<svg xmlns="http://www.w3.org/2000/svg" viewBox="0 0 100.027 30.003"><g id="Layer_1" data-name="Layer 1"><g id="Dosis"><path d="M36.928,24.259A1.655,1.655,0,0,1,35.9,23.95a.866.866,0,0,1-.409-.677V11.861a.8.8,0,0,1,.409-.691,1.842,1.842,0,0,1,1.028-.268,1.669,1.669,0,0,1,.958.268.807.807,0,0,1,.395.691V13.1a4.818,4.818,0,0,1,.831-1.127,4.533,4.533,0,0,1,1.226-.887,3.351,3.351,0,0,1,1.521-.353h.9a1.025,1.025,0,0,1,.789.381,1.328,1.328,0,0,1,.339.916,1.377,1.377,0,0,1-.339.929,1.01,1.01,0,0,1-.789.395h-.9a2.983,2.983,0,0,0-1.634.507,3.79,3.79,0,0,0-1.282,1.423A4.607,4.607,0,0,0,38.45,17.5v5.777a.859.859,0,0,1-.437.677A1.832,1.832,0,0,1,36.928,24.259Z" transform="translate(-1.344)" style="fill:#af62f1"/><path d="M50.9,24.485a7.711,7.711,0,0,1-3.381-.7,5.691,5.691,0,0,1-2.311-1.958,5.14,5.14,0,0,1-.845-2.945V16.2a4.924,4.924,0,0,1,.8-2.733A6,6,0,0,1,47.3,11.48a5.873,5.873,0,0,1,2.931-.747,5.944,5.944,0,0,1,2.79.662,5.383,5.383,0,0,1,2.043,1.846,4.836,4.836,0,0,1,.775,2.706,2.965,2.965,0,0,1-.367,1.69,1.49,1.49,0,0,1-.958.62,6.624,6.624,0,0,1-1.239.112H47.326v.649a2.729,2.729,0,0,0,1.028,2.24,4.055,4.055,0,0,0,2.635.831,3.924,3.924,0,0,0,1.606-.281,10.391,10.391,0,0,0,1.043-.536,1.545,1.545,0,0,1,.789-.253.9.9,0,0,1,.619.225,1.583,1.583,0,0,1,.4.536,1.378,1.378,0,0,1,.141.563,1.365,1.365,0,0,1-.578.93,4.732,4.732,0,0,1-1.62.859A7.77,7.77,0,0,1,50.9,24.485Zm-3.578-7.947H52a1.423,1.423,0,0,0,.832-.169.842.842,0,0,0,.211-.676,2.7,2.7,0,0,0-.366-1.367,2.574,2.574,0,0,0-1.015-.986,3.014,3.014,0,0,0-1.465-.352,3.052,3.052,0,0,0-1.437.338,2.77,2.77,0,0,0-1.043.929,2.435,2.435,0,0,0-.394,1.381Z" transform="translate(-1.344)" style="fill:#af62f1"/><path d="M62.063,24.485a8.459,8.459,0,0,1-2.479-.338,5.064,5.064,0,0,1-1.734-.86,1.428,1.428,0,0,1-.634-1.057,1.625,1.625,0,0,1,.494-1.1.746.746,0,0,1,.521-.225,1.27,1.27,0,0,1,.774.324,5.836,5.836,0,0,0,1.085.648,4.466,4.466,0,0,0,1.889.324,2.778,2.778,0,0,0,1.9-.479,1.436,1.436,0,0,0,.494-1.043,1.4,1.4,0,0,0-.494-1.141,3.834,3.834,0,0,0-1.268-.662q-.774-.253-1.648-.493a8.574,8.574,0,0,1-1.649-.635,3.415,3.415,0,0,1-1.268-1.1,3.184,3.184,0,0,1-.493-1.86,4.172,4.172,0,0,1,.479-1.9,3.757,3.757,0,0,1,1.536-1.55,5.684,5.684,0,0,1,2.832-.606,8.8,8.8,0,0,1,2.029.226,5.372,5.372,0,0,1,1.578.606c.413.253.62.531.62.831a1.6,1.6,0,0,1-.141.549,2.084,2.084,0,0,1-.38.62.781.781,0,0,1-.606.268,1.65,1.65,0,0,1-.7-.212,8.66,8.66,0,0,0-.986-.408,4.226,4.226,0,0,0-1.381-.2,2.751,2.751,0,0,0-1.31.267,1.862,1.862,0,0,0-.719.634,1.394,1.394,0,0,0-.225.733,1.106,1.106,0,0,0,.479.959,4.229,4.229,0,0,0,1.268.563q.789.226,1.663.465a6.886,6.886,0,0,1,1.648.69A3.749,3.749,0,0,1,66.5,18.538,3.7,3.7,0,0,1,67,20.568a3.519,3.519,0,0,1-1.283,2.845A5.537,5.537,0,0,1,62.063,24.485Z" transform="translate(-1.344)" style="fill:#af62f1"/><path d="M74.264,24.485a5.461,5.461,0,0,1-2.845-.789,6.217,6.217,0,0,1-2.128-2.072,5.076,5.076,0,0,1-.8-2.747V16.284a5.2,5.2,0,0,1,.774-2.761,5.925,5.925,0,0,1,7.933-2.029,6.117,6.117,0,0,1,2.127,2,5.015,5.015,0,0,1,.8,2.789v2.593a5.109,5.109,0,0,1-.8,2.734A6.147,6.147,0,0,1,77.18,23.7,5.636,5.636,0,0,1,74.264,24.485Zm.029-2.621a2.58,2.58,0,0,0,1.436-.422,3.223,3.223,0,0,0,1.043-1.114,2.882,2.882,0,0,0,.395-1.451V16.284a2.732,2.732,0,0,0-.395-1.422,3.279,3.279,0,0,0-1.043-1.085,2.62,2.62,0,0,0-1.465-.423,2.508,2.508,0,0,0-1.423.423,3.2,3.2,0,0,0-1.014,1.085,2.8,2.8,0,0,0-.381,1.422v2.593a2.96,2.96,0,0,0,.381,1.451,3.092,3.092,0,0,0,1.028,1.114A2.581,2.581,0,0,0,74.293,21.864Z" transform="translate(-1.344)" style="fill:#af62f1"/><path d="M86.86,24.259A5.58,5.58,0,0,1,83.2,23.2a4.1,4.1,0,0,1-1.269-3.338V5.746a.792.792,0,0,1,.465-.691,1.981,1.981,0,0,1,1-.268,2.06,2.06,0,0,1,1.015.268.791.791,0,0,1,.478.691V10.9h3.438a.673.673,0,0,1,.606.339,1.476,1.476,0,0,1,0,1.521.672.672,0,0,1-.606.338H84.887v6.764a1.947,1.947,0,0,0,.437,1.436,2.191,2.191,0,0,0,1.536.423h.958a1.209,1.209,0,0,1,.973.381,1.334,1.334,0,0,1,.323.888,1.353,1.353,0,0,1-.323.873,1.188,1.188,0,0,1-.973.394Z" transform="translate(-1.344)" style="fill:#af62f1"/><path d="M95.509,24.485a5.461,5.461,0,0,1-2.845-.789,6.217,6.217,0,0,1-2.128-2.072,5.084,5.084,0,0,1-.8-2.747V16.284a5.2,5.2,0,0,1,.774-2.761,5.925,5.925,0,0,1,7.933-2.029,6.117,6.117,0,0,1,2.127,2,5.015,5.015,0,0,1,.8,2.789v2.593a5.109,5.109,0,0,1-.8,2.734A6.147,6.147,0,0,1,98.425,23.7,5.636,5.636,0,0,1,95.509,24.485Zm.029-2.621a2.577,2.577,0,0,0,1.436-.422,3.223,3.223,0,0,0,1.043-1.114,2.882,2.882,0,0,0,.4-1.451V16.284a2.732,2.732,0,0,0-.4-1.422,3.279,3.279,0,0,0-1.043-1.085,2.618,2.618,0,0,0-1.465-.423,2.508,2.508,0,0,0-1.423.423,3.2,3.2,0,0,0-1.014,1.085,2.8,2.8,0,0,0-.381,1.422v2.593a2.96,2.96,0,0,0,.381,1.451A3.1,3.1,0,0,0,94.1,21.442,2.581,2.581,0,0,0,95.538,21.864Z" transform="translate(-1.344)" style="fill:#af62f1"/></g></g><g id="Big"><path id="EarR" d="M22.038,14.962c4.169,2.432,6.32,6.353,6.32,8.808s-1.731,2.774-3.113,2.025c-1.409-.764-2.027-3.374-2.027-3.374Z" transform="translate(-1.344)" style="fill:#fec08d"/><path id="EarR-2" data-name="EarR" d="M22.823,18.938a.808.808,0,0,1,1.3-.768c2.092,1.633,3,3.424,3,4.976a1.512,1.512,0,0,1-2.383,1.3A3.373,3.373,0,0,1,23.406,22.2Z" transform="translate(-1.344)" style="fill:#fb9b7a"/><path id="EarL" d="M8.274,14.657c-4.169,2.432-6.625,6.658-6.625,9.113S3.38,26.544,4.762,25.8c1.409-.764,1.722-3.374,1.722-3.374Z" transform="translate(-1.344)" style="fill:#fec08d"/><path id="EarR-3" data-name="EarR" d="M7.232,18.67a.7.7,0,0,0-1.094-.692C3.88,19.661,2.9,21.532,2.9,23.146a1.5,1.5,0,0,0,2.368,1.3A3.37,3.37,0,0,0,6.6,22.2Z" transform="translate(-1.344)" style="fill:#fb9b7a"/><path id="ShadowEarR" d="M28.48,23.756c0,2.456-1.884,2.774-3.266,2.025a3.192,3.192,0,0,1-1.156-1.3,7.43,7.43,0,0,1-.393-.844,7.621,7.621,0,0,0,.574-2.912,9.283,9.283,0,0,0-.307-2.373h.076a9.6,9.6,0,0,1,.577,3.288,9.73,9.73,0,0,1-.156,1.736,3.05,3.05,0,0,0,1.091,1.186,1.906,1.906,0,0,0,2.806-.89C28.327,23.7,28.48,23.728,28.48,23.756Z" transform="translate(-1.344)" style="fill:#dd9a63"/><path id="ShadowHair" d="M22.78,16a9.892,9.892,0,0,0-.66-.811l-.082-.534c.2.118.4.239.593.365Z" transform="translate(-1.344)" style="fill:#dd9a63"/><path id="Head" d="M24.1,20.737a8.932,8.932,0,0,1-8.9,9.088,9.088,9.088,0,0,1,0-18.176A8.932,8.932,0,0,1,24.1,20.737Z" transform="translate(-1.344)" style="fill:#fec08d"/><path d="M23.833,16.2a2.567,2.567,0,0,1-1.785.79A3.507,3.507,0,0,1,20,16.333a.253.253,0,0,0-.336.036,2.212,2.212,0,0,1-1.576.839,2.175,2.175,0,0,1-1.642-.9.235.235,0,0,0-.4.057,3.68,3.68,0,0,1-3.22,2.265A3.744,3.744,0,0,1,9.71,16.492a.182.182,0,0,0-.239-.081A3.653,3.653,0,0,1,7.95,16.7a2.129,2.129,0,0,1-1.407-.555c-.02-.136.888-1.208,3.166-2.049a29.752,29.752,0,0,1,6.337-.352s4.5.276,6.2,2.263l1.169-.249C23.7,15.851,23.9,16.052,23.833,16.2Z" transform="translate(-1.344)" style="fill:#dd9a63"/><path d="M23.964,20.737A8.754,8.754,0,0,1,15,29.7a8.754,8.754,0,0,1-8.961-8.961,9.288,9.288,0,0,1,.307-2.373H6.6a8.1,8.1,0,0,0-.1,1.244A8.391,8.391,0,0,0,15,27.89a8.391,8.391,0,0,0,8.5-8.282,8.232,8.232,0,0,0-.095-1.244h.252A9.288,9.288,0,0,1,23.964,20.737Z" transform="translate(-1.344)" style="fill:#dd9a63"/><path d="M23.185,17.794h0a.414.414,0,0,0-.4.526,9.008,9.008,0,0,1,.321,2.417c0,4.87-3.628,8.819-8.1,8.819s-8.1-3.949-8.1-8.819a9.008,9.008,0,0,1,.321-2.417.414.414,0,0,0-.4-.526h0a.413.413,0,0,0-.4.292,8.99,8.99,0,0,0-.383,2.651A8.754,8.754,0,0,0,15,29.7a8.754,8.754,0,0,0,8.96-8.961,9.023,9.023,0,0,0-.382-2.651A.415.415,0,0,0,23.185,17.794Z" transform="translate(-1.344)" style="fill:#fee4ce"/><path d="M28.327,23.756c0,2.216-1.353,2.635-2.692,2.2A2.275,2.275,0,0,0,27.5,23.45c0-2.553-1.995-5.342-5.3-7.548l-.191-.953C26.176,17.381,28.327,21.3,28.327,23.756Z" transform="translate(-1.344)" style="fill:#fee4ce"/><path id="ShadowEarR-2" data-name="ShadowEarR" d="M1.528,23.756c0,2.456,1.884,2.774,3.265,2.025a3.185,3.185,0,0,0,1.156-1.3,7.617,7.617,0,0,0,.394-.844,7.6,7.6,0,0,1-.574-2.912,9.239,9.239,0,0,1,.307-2.373H6a9.653,9.653,0,0,0-.421,5.024,3.065,3.065,0,0,1-1.091,1.186,1.907,1.907,0,0,1-2.807-.89C1.681,23.7,1.528,23.728,1.528,23.756Z" transform="translate(-1.344)" style="fill:#dd9a63"/><path d="M1.68,23.756c0,2.216,1.354,2.635,2.693,2.2A2.276,2.276,0,0,1,2.508,23.45c0-2.553,2-5.342,5.3-7.548L8,14.949C3.831,17.381,1.68,21.3,1.68,23.756Z" transform="translate(-1.344)" style="fill:#fee4ce"/><circle cx="19.378" cy="18.517" r="1.305"/><path d="M20.042,18.512l-.52.53a1.308,1.308,0,0,1,0-1.05Z" transform="translate(-1.344)" style="fill:#fff"/><circle cx="7.936" cy="18.517" r="1.305"/><path d="M8.6,18.512l-.52.53a1.308,1.308,0,0,1,0-1.05Z" transform="translate(-1.344)" style="fill:#fff"/><circle id="Cheeks" cx="18.954" cy="22.058" r="0.882" style="fill:#fb9b7a"/><circle id="Cheeks-2" data-name="Cheeks" cx="8.365" cy="22.03" r="0.882" style="fill:#fb9b7a"/><path id="NoseRed" d="M16.7,22.1a2.462,2.462,0,0,1-.8.719,2.155,2.155,0,0,1-.9.2,2.191,2.191,0,0,1-.9-.2,2.442,2.442,0,0,1-.8-.719,2.175,2.175,0,0,1,3.4,0Z" transform="translate(-1.344)" style="fill:#fb9b7a"/><circle id="NoseHighlight" cx="13.218" cy="22.058" r="0.441" style="fill:#fff"/><path id="Mouth" d="M18.288,25.143A2.176,2.176,0,0,1,15,25.972a2.175,2.175,0,0,1-3.284-.829,2.768,2.768,0,0,0,1.851.7h.068a1.308,1.308,0,0,0,.653-2.421l-.037-.023a1.735,1.735,0,0,1-.337-.247,2.229,2.229,0,0,1-.615-1.062h0a2.174,2.174,0,0,0,.8.625,2.13,2.13,0,0,0,.508.159,2.207,2.207,0,0,0,.783,0,2.138,2.138,0,0,0,.509-.159,2.178,2.178,0,0,0,.8-.624h0a2.221,2.221,0,0,1-.615,1.061,1.7,1.7,0,0,1-.337.248l-.038.023a1.309,1.309,0,0,0,.655,2.421h.068A2.762,2.762,0,0,0,18.288,25.143Z" transform="translate(-1.344)"/><path d="M27.315,13.9a3.672,3.672,0,0,1,1.105,2.484,3.583,3.583,0,0,1-1.729,2.948,15.308,15.308,0,0,0-3.163-3.437,2.4,2.4,0,0,1-1.48.332,3.661,3.661,0,0,1-2.232-.948,2.354,2.354,0,0,1-1.724,1.033,2.354,2.354,0,0,1-1.9-1.3,3.673,3.673,0,0,1-3.361,2.6,3.326,3.326,0,0,1-3.075-2,4.017,4.017,0,0,1-1.8.425,2.873,2.873,0,0,1-1.3-.265q-.311.243-.6.5-.187.162-.368.328a14.3,14.3,0,0,0-1.746,1.854H3.6a1.884,1.884,0,0,1-1.911-2.08,2.176,2.176,0,0,1,1.576-2.092,5.7,5.7,0,0,1-.725-2.792A5.229,5.229,0,0,1,7.975,6.041a8.866,8.866,0,0,1,1.6.146c0-.048,0-.4,0-.451A5.229,5.229,0,0,1,15,.305a5.737,5.737,0,0,1,5.3,3.547,3.51,3.51,0,0,1,1.741-.458,3.031,3.031,0,0,1,3.224,3.224c0,.185-.014.671-.041.848a6.574,6.574,0,0,1,1.149-.1A3.031,3.031,0,0,1,29.6,10.589,3.532,3.532,0,0,1,27.315,13.9Z" transform="translate(-1.344)" style="fill:#762dd7"/><path d="M23.455,9.32c-.042,0-.084,0-.126,0a.061.061,0,0,1-.039-.109A2.635,2.635,0,0,0,24.3,7.143a2.725,2.725,0,0,0-2.773-2.676,2.829,2.829,0,0,0-1.439.388.374.374,0,0,1-.552-.225,4.545,4.545,0,0,0-4.229-3.614c-2.438,0-4.415,2.272-4.415,5.075a5.742,5.742,0,0,0,.042.7.455.455,0,0,1-.627.473,4.56,4.56,0,0,0-5.828,6.256.071.071,0,0,0,.135-.038c-.008-.094-.013-.189-.013-.285a3.253,3.253,0,0,1,.3-1.37.149.149,0,0,1,.283.059v0a3.159,3.159,0,0,0,3.154,3.036,3.124,3.124,0,0,0,.9-.133.122.122,0,0,0,.087-.131,3.7,3.7,0,0,1-.026-.437c0-.092,0-.183.01-.273a.066.066,0,0,1,.129-.016A3.453,3.453,0,0,0,12.7,16.123a3.289,3.289,0,0,0,3.414-2.9.061.061,0,0,1,.118-.017,2.017,2.017,0,0,1,.122.831.14.14,0,0,0,.011.07,1.887,1.887,0,0,0,1.723,1.116A2.016,2.016,0,0,0,20.1,13.917a.074.074,0,0,1,.144.014,2.284,2.284,0,0,1,.024.323,2.206,2.206,0,0,1-.056.491.127.127,0,0,0,.056.136,2.768,2.768,0,0,0,3.819-3.812.094.094,0,0,1,.132-.127,2.976,2.976,0,0,1,.71.661.155.155,0,0,0,.275-.063,1.87,1.87,0,0,0-1.749-2.22Zm-15.738,0a2.037,2.037,0,0,1,1.322.155H8.976a2.05,2.05,0,0,0-.946,3.868.09.09,0,0,1-.043.17h0A2.159,2.159,0,0,1,5.83,11.334a2.472,2.472,0,0,1,.424-1.2A2.744,2.744,0,0,1,7.717,9.317ZM21.56,8.861a.062.062,0,0,1-.118.027,2.2,2.2,0,0,0-2.586-1.1.127.127,0,0,0-.086.16,2.659,2.659,0,0,1,.138.976.067.067,0,0,1-.132.014,3.256,3.256,0,0,0-6.277.027.087.087,0,0,1-.171-.02c0-.07,0-.14,0-.212A3.463,3.463,0,0,1,15.8,5.386a3.527,3.527,0,0,1,2.891,1.425.059.059,0,0,0,.066.022,2.181,2.181,0,0,1,.675-.092,2.1,2.1,0,0,1,2.13,2.112Z" transform="translate(-1.344)" style="fill:#af62f1"/><path d="M27.154,23.146a1.491,1.491,0,0,1-.606,1.283,1.447,1.447,0,0,0,.391-1.048c0-1.46-.9-3.144-2.894-4.678a9.335,9.335,0,0,1-.2,4.827c-.045.143-.094.285-.146.424A9.268,9.268,0,0,1,5.962,18.7c-2,1.534-2.894,3.218-2.894,4.678a1.447,1.447,0,0,0,.391,1.048,1.491,1.491,0,0,1-.606-1.283c0-1.62,1.021-3.5,3.309-5.187h0c.1-.074.2-.146.3-.219a.187.187,0,0,1,.282.217c-.029.081-.056.161-.083.242a8.149,8.149,0,0,0-.4,2.538A8.59,8.59,0,0,0,15,29.169,8.705,8.705,0,0,0,23.4,23.1q.077-.251.136-.51a8.2,8.2,0,0,0-.192-4.386c-.026-.082-.054-.162-.083-.242a.187.187,0,0,1,.282-.218q.156.11.306.219C26.133,19.647,27.154,21.526,27.154,23.146Z" transform="translate(-1.344)"/><path d="M27.154,23.146a1.491,1.491,0,0,1-.606,1.283,1.447,1.447,0,0,0,.391-1.048c0-1.46-.9-3.144-2.894-4.678a9.335,9.335,0,0,1-.2,4.827c-.045.143-.094.285-.146.424A9.268,9.268,0,0,1,5.962,18.7c-2,1.534-2.894,3.218-2.894,4.678a1.447,1.447,0,0,0,.391,1.048,1.491,1.491,0,0,1-.606-1.283c0-1.62,1.021-3.5,3.309-5.187h0c.1-.074.2-.146.3-.219a.187.187,0,0,1,.282.217c-.029.081-.056.161-.083.242a8.149,8.149,0,0,0-.4,2.538A8.59,8.59,0,0,0,15,29.169,8.705,8.705,0,0,0,23.4,23.1q.077-.251.136-.51a8.2,8.2,0,0,0-.192-4.386c-.026-.082-.054-.162-.083-.242a.187.187,0,0,1,.282-.218q.156.11.306.219C26.133,19.647,27.154,21.526,27.154,23.146Z" transform="translate(-1.344)"/><path d="M27.774,13.833a.117.117,0,0,0-.041.184A3.529,3.529,0,0,1,27,19.327c-.146-.219-.3-.438-.464-.656a3.108,3.108,0,0,0,.2-4.975.177.177,0,0,1,.049-.3c4.288-1.595,2.2-7.033-1.649-5.566a.177.177,0,0,1-.234-.209c.622-2.485-1.48-4.809-4.7-3.294a.176.176,0,0,1-.245-.115c-1.275-4.9-9.449-5.564-9.891,2.177a.177.177,0,0,1-.229.16C5.721,5.245,1.151,9.1,3.913,14.232a.177.177,0,0,1-.141.26,1.733,1.733,0,1,0,.3,3.434q-.256.3-.49.605h0a2.176,2.176,0,0,1-.748-4.225.117.117,0,0,0,.066-.164,5.74,5.74,0,0,1,6.231-8.29.117.117,0,0,0,.139-.115h0a5.737,5.737,0,0,1,10.99-2.3.114.114,0,0,0,.159.056,3.53,3.53,0,0,1,5.16,3.131,3.391,3.391,0,0,1-.02.38.117.117,0,0,0,.137.128,3.531,3.531,0,0,1,2.08,6.707Z" transform="translate(-1.344)"/><path d="M25.427,13.5a.045.045,0,0,1,.086.024,3.529,3.529,0,0,1-5.572,2.153l-.021-.015a.136.136,0,0,0-.186.021,2.176,2.176,0,0,1-3.39-.132.148.148,0,0,0-.256.031,3.531,3.531,0,0,1-6.412.233.1.1,0,0,0-.133-.041,3.428,3.428,0,0,1-1.593.373,3.53,3.53,0,0,1-3.245-2.14.044.044,0,0,1,.077-.043A3.821,3.821,0,0,0,7.95,15.645a3.238,3.238,0,0,0,1.744-.413.161.161,0,0,1,.221.06c.037.067.079.14.106.183,1.554,2.516,4.712,2.5,5.944-.879a.15.15,0,0,1,.275-.018c.854,1.682,2.34,1.965,3.282.732.037-.048.073-.1.108-.152a.178.178,0,0,1,.254-.045l.013.009a3.632,3.632,0,0,0,5.53-1.624Z" transform="translate(-1.344)"/><path d="M28.663,23.77c0,2.455-2.037,3.079-3.418,2.33a4.214,4.214,0,0,1-1.55-2.146c-.124-.312-.223-.609-.3-.858q.077-.251.136-.51a9.038,9.038,0,0,0,.308.944,3.557,3.557,0,0,0,1.306,1.831,1.908,1.908,0,0,0,2.839-1.936c0-1.788-1.873-5.129-4.669-7.286q-.236-.183-.48-.353l-.059-.04a3.61,3.61,0,0,0,.622-.189q.221.164.433.333C26.9,18.344,28.663,21.691,28.663,23.77Z" transform="translate(-1.344)"/><path d="M7.431,15.609q-.132.087-.261.177c-.093.065-.185.131-.276.2-2.909,2.149-4.874,5.609-4.874,7.44a1.908,1.908,0,0,0,2.84,1.936A3.562,3.562,0,0,0,6.166,23.53a9.285,9.285,0,0,0,.308-.944q.06.26.136.51c-.075.249-.174.546-.3.858A4.214,4.214,0,0,1,4.762,26.1c-1.382.749-3.418.125-3.418-2.33,0-2.116,1.824-5.548,5-8.012q.2-.156.408-.306A3.675,3.675,0,0,0,7.431,15.609Z" transform="translate(-1.344)"/><path d="M21.557,8.939a.055.055,0,0,1-.108.007A2.217,2.217,0,0,0,19.28,7.167a2.629,2.629,0,0,0-.3.02,2.1,2.1,0,0,0-.373.084.3.3,0,0,1-.324-.1c-.042-.05-.084-.1-.128-.145A3.531,3.531,0,0,0,12.9,7.1a.055.055,0,0,1-.089-.063A3.531,3.531,0,0,1,18.6,6.6a.307.307,0,0,0,.308.1,2.176,2.176,0,0,1,2.656,2.033C21.561,8.8,21.561,8.872,21.557,8.939Z" transform="translate(-1.344)"/><path d="M25.753,12.168a2.333,2.333,0,0,0,.044-.57,2.367,2.367,0,0,0-2.834-2.221.064.064,0,0,1-.045-.119,2.177,2.177,0,0,1,2.954,2.955A.064.064,0,0,1,25.753,12.168Z" transform="translate(-1.344)"/><path d="M6.2,12.335a2.436,2.436,0,0,1-.044-.57A2.372,2.372,0,0,1,8.988,9.543a.064.064,0,0,0,.044-.118,2.176,2.176,0,0,0-2.953,2.954A.064.064,0,0,0,6.2,12.335Z" transform="translate(-1.344)"/></g></svg>