<?xml version="1.0" encoding="UTF-8" standalone="no"?><svg xmlns="http://www.w3.org/2000/svg" xmlns:xlink="http://www.w3.org/1999/xlink" contentScriptType="application/ecmascript" contentStyleType="text/css" height="854px" preserveAspectRatio="none" style="width:926px;height:854px;background:#00000000;" version="1.1" viewBox="0 0 926 854" width="926px" zoomAndPan="magnify"><defs><filter height="300%" id="f1uwfug7s9i1ic" width="300%" x="-1" y="-1"><feGaussianBlur result="blurOut" stdDeviation="4.0"/><feColorMatrix in="blurOut" result="blurOut2" type="matrix" values="0 0 0 0 0 0 0 0 0 0 0 0 0 0 0 0 0 0 .4 0"/><feOffset dx="8.0" dy="8.0" in="blurOut2" result="blurOut3"/><feBlend in="SourceGraphic" in2="blurOut3" mode="normal"/></filter></defs><g><!--MD5=[7f0ecf5f554433d3f2e1213379ac821c]
class resource--><rect codeLine="3" fill="#FEFECE" filter="url(#f1uwfug7s9i1ic)" height="96" id="resource" style="stroke:#A80036;stroke-width:3.0;" width="164" x="390" y="14"/><ellipse cx="420" cy="46" fill="#ADD1B2" rx="22" ry="22" style="stroke:#A80036;stroke-width:2.0;"/><path d="M424.9463,58.2861 Q423.7842,58.8838 422.5059,59.1826 Q421.2275,59.4814 419.8164,59.4814 Q414.8027,59.4814 412.1631,56.1777 Q409.5234,52.874 409.5234,46.6318 Q409.5234,40.373 412.1631,37.0693 Q414.8027,33.7656 419.8164,33.7656 Q421.2275,33.7656 422.5225,34.0645 Q423.8174,34.3633 424.9463,34.9609 L424.9463,40.4063 Q423.6846,39.2441 422.4976,38.7046 Q421.3105,38.165 420.0488,38.165 Q417.3594,38.165 415.9897,40.2983 Q414.6201,42.4316 414.6201,46.6318 Q414.6201,50.8154 415.9897,52.9487 Q417.3594,55.082 420.0488,55.082 Q421.3105,55.082 422.4976,54.5425 Q423.6846,54.0029 424.9463,52.8408 Z " fill="#000000"/><text fill="#000000" font-family="sans-serif" font-size="24" lengthAdjust="spacing" textLength="100" x="448" y="55.0703">resource</text><line style="stroke:#A80036;stroke-width:3.0;" x1="392" x2="552" y1="78" y2="78"/><line style="stroke:#A80036;stroke-width:3.0;" x1="392" x2="552" y1="94" y2="94"/><!--MD5=[cd869b34d688661372d713ff53dbac1f]
class account--><rect codeLine="5" fill="#FEFECE" filter="url(#f1uwfug7s9i1ic)" height="96" id="account" style="stroke:#A80036;stroke-width:3.0;" width="152" x="168" y="14"/><ellipse cx="198" cy="46" fill="#ADD1B2" rx="22" ry="22" style="stroke:#A80036;stroke-width:2.0;"/><path d="M202.9463,58.2861 Q201.7842,58.8838 200.5059,59.1826 Q199.2275,59.4814 197.8164,59.4814 Q192.8027,59.4814 190.1631,56.1777 Q187.5234,52.874 187.5234,46.6318 Q187.5234,40.373 190.1631,37.0693 Q192.8027,33.7656 197.8164,33.7656 Q199.2275,33.7656 200.5225,34.0645 Q201.8174,34.3633 202.9463,34.9609 L202.9463,40.4063 Q201.6846,39.2441 200.4976,38.7046 Q199.3105,38.165 198.0488,38.165 Q195.3594,38.165 193.9897,40.2983 Q192.6201,42.4316 192.6201,46.6318 Q192.6201,50.8154 193.9897,52.9487 Q195.3594,55.082 198.0488,55.082 Q199.3105,55.082 200.4976,54.5425 Q201.6846,54.0029 202.9463,52.8408 Z " fill="#000000"/><text fill="#000000" font-family="sans-serif" font-size="24" lengthAdjust="spacing" textLength="88" x="226" y="55.0703">account</text><line style="stroke:#A80036;stroke-width:3.0;" x1="170" x2="318" y1="78" y2="78"/><line style="stroke:#A80036;stroke-width:3.0;" x1="170" x2="318" y1="94" y2="94"/><!--MD5=[377914defea557e9612d777552f01035]
class volume--><rect codeLine="6" fill="#FEFECE" filter="url(#f1uwfug7s9i1ic)" height="277.3711" id="volume" style="stroke:#A80036;stroke-width:3.0;" width="380" x="282" y="230"/><ellipse cx="422.5" cy="262" fill="#ADD1B2" rx="22" ry="22" style="stroke:#A80036;stroke-width:2.0;"/><path d="M427.4463,274.2861 Q426.2842,274.8838 425.0059,275.1826 Q423.7275,275.4814 422.3164,275.4814 Q417.3027,275.4814 414.6631,272.1777 Q412.0234,268.874 412.0234,262.6318 Q412.0234,256.373 414.6631,253.0693 Q417.3027,249.7656 422.3164,249.7656 Q423.7275,249.7656 425.0225,250.0645 Q426.3174,250.3633 427.4463,250.9609 L427.4463,256.4063 Q426.1846,255.2441 424.9976,254.7046 Q423.8105,254.165 422.5488,254.165 Q419.8594,254.165 418.4897,256.2983 Q417.1201,258.4316 417.1201,262.6318 Q417.1201,266.8154 418.4897,268.9487 Q419.8594,271.082 422.5488,271.082 Q423.8105,271.082 424.9976,270.5425 Q426.1846,270.0029 427.4463,268.8408 Z " fill="#000000"/><text fill="#000000" font-family="sans-serif" font-size="24" lengthAdjust="spacing" textLength="82" x="463.5" y="271.0703">volume</text><line style="stroke:#A80036;stroke-width:3.0;" x1="284" x2="660" y1="294" y2="294"/><text fill="#000000" font-family="sans-serif" font-size="22" lengthAdjust="spacing" textLength="200" x="294" y="323.2695">volume_size: int64</text><text fill="#000000" font-family="sans-serif" font-size="22" lengthAdjust="spacing" textLength="212" x="294" y="349.1797">volume_type: string</text><text fill="#000000" font-family="sans-serif" font-size="22" lengthAdjust="spacing" textLength="232" x="294" y="375.0898">volume_status: string</text><text fill="#000000" font-family="sans-serif" font-size="22" lengthAdjust="spacing" textLength="204" x="294" y="401">volume_iops: int64</text><text fill="#000000" font-family="sans-serif" font-size="22" lengthAdjust="spacing" textLength="282" x="294" y="426.9102">volume_throughput: int64</text><text fill="#000000" font-family="sans-serif" font-size="22" lengthAdjust="spacing" textLength="296" x="294" y="452.8203">volume_encrypted: boolean</text><text fill="#000000" font-family="sans-serif" font-size="22" lengthAdjust="spacing" textLength="356" x="294" y="478.7305">snapshot_before_delete: boolean</text><line style="stroke:#A80036;stroke-width:3.0;" x1="284" x2="660" y1="491.3711" y2="491.3711"/><!--MD5=[0c8b414976a9a2e585b005b662babc37]
class aws_ec2_volume--><rect codeLine="15" fill="#FEFECE" filter="url(#f1uwfug7s9i1ic)" height="199.6406" id="aws_ec2_volume" style="stroke:#A80036;stroke-width:3.0;" width="440" x="14" y="628"/><ellipse cx="129.5" cy="660" fill="#ADD1B2" rx="22" ry="22" style="stroke:#A80036;stroke-width:2.0;"/><path d="M134.4463,672.2861 Q133.2842,672.8838 132.0059,673.1826 Q130.7275,673.4814 129.3164,673.4814 Q124.3027,673.4814 121.6631,670.1777 Q119.0234,666.874 119.0234,660.6318 Q119.0234,654.373 121.6631,651.0693 Q124.3027,647.7656 129.3164,647.7656 Q130.7275,647.7656 132.0225,648.0645 Q133.3174,648.3633 134.4463,648.9609 L134.4463,654.4063 Q133.1846,653.2441 131.9976,652.7046 Q130.8105,652.165 129.5488,652.165 Q126.8594,652.165 125.4897,654.2983 Q124.1201,656.4316 124.1201,660.6318 Q124.1201,664.8154 125.4897,666.9487 Q126.8594,669.082 129.5488,669.082 Q130.8105,669.082 131.9976,668.5425 Q133.1846,668.0029 134.4463,666.8408 Z " fill="#000000"/><text fill="#000000" font-family="sans-serif" font-size="24" lengthAdjust="spacing" textLength="192" x="170.5" y="669.0703">aws_ec2_volume</text><line style="stroke:#A80036;stroke-width:3.0;" x1="16" x2="452" y1="692" y2="692"/><text fill="#000000" font-family="sans-serif" font-size="22" lengthAdjust="spacing" textLength="290" x="26" y="721.2695">volume_kms_key_id: string</text><text fill="#000000" font-family="sans-serif" font-size="22" lengthAdjust="spacing" textLength="416" x="26" y="747.1797">volume_multi_attach_enabled: boolean</text><text fill="#000000" font-family="sans-serif" font-size="22" lengthAdjust="spacing" textLength="298" x="26" y="773.0898">volume_outpost_arn: string</text><text fill="#000000" font-family="sans-serif" font-size="22" lengthAdjust="spacing" textLength="298" x="26" y="799">volume_snapshot_id: string</text><line style="stroke:#A80036;stroke-width:3.0;" x1="16" x2="452" y1="811.6406" y2="811.6406"/><!--MD5=[b72d563ba2de8ea3b7970681f1fe7854]
class gcp_disk--><rect codeLine="21" fill="#FEFECE" filter="url(#f1uwfug7s9i1ic)" height="147.8203" id="gcp_disk" style="stroke:#A80036;stroke-width:3.0;" width="374" x="525" y="654"/><ellipse cx="652.5" cy="686" fill="#ADD1B2" rx="22" ry="22" style="stroke:#A80036;stroke-width:2.0;"/><path d="M657.4463,698.2861 Q656.2842,698.8838 655.0059,699.1826 Q653.7275,699.4814 652.3164,699.4814 Q647.3027,699.4814 644.6631,696.1777 Q642.0234,692.874 642.0234,686.6318 Q642.0234,680.373 644.6631,677.0693 Q647.3027,673.7656 652.3164,673.7656 Q653.7275,673.7656 655.0225,674.0645 Q656.3174,674.3633 657.4463,674.9609 L657.4463,680.4063 Q656.1846,679.2441 654.9976,678.7046 Q653.8105,678.165 652.5488,678.165 Q649.8594,678.165 648.4897,680.2983 Q647.1201,682.4316 647.1201,686.6318 Q647.1201,690.8154 648.4897,692.9487 Q649.8594,695.082 652.5488,695.082 Q653.8105,695.082 654.9976,694.5425 Q656.1846,694.0029 657.4463,692.8408 Z " fill="#000000"/><text fill="#000000" font-family="sans-serif" font-size="24" lengthAdjust="spacing" textLength="102" x="693.5" y="695.0703">gcp_disk</text><line style="stroke:#A80036;stroke-width:3.0;" x1="527" x2="897" y1="718" y2="718"/><text fill="#000000" font-family="sans-serif" font-size="22" lengthAdjust="spacing" textLength="344" x="537" y="747.2695">last_attach_timestamp: datetime</text><text fill="#000000" font-family="sans-serif" font-size="22" lengthAdjust="spacing" textLength="350" x="537" y="773.1797">last_detach_timestamp: datetime</text><line style="stroke:#A80036;stroke-width:3.0;" x1="527" x2="897" y1="785.8203" y2="785.8203"/><!--MD5=[8b1d0cd971437c9a7460168ced960a3e]
class cloud--><rect fill="#FEFECE" filter="url(#f1uwfug7s9i1ic)" height="96" id="cloud" style="stroke:#A80036;stroke-width:3.0;" width="126" x="625" y="14"/><ellipse cx="655" cy="46" fill="#ADD1B2" rx="22" ry="22" style="stroke:#A80036;stroke-width:2.0;"/><path d="M659.9463,58.2861 Q658.7842,58.8838 657.5059,59.1826 Q656.2275,59.4814 654.8164,59.4814 Q649.8027,59.4814 647.1631,56.1777 Q644.5234,52.874 644.5234,46.6318 Q644.5234,40.373 647.1631,37.0693 Q649.8027,33.7656 654.8164,33.7656 Q656.2275,33.7656 657.5225,34.0645 Q658.8174,34.3633 659.9463,34.9609 L659.9463,40.4063 Q658.6846,39.2441 657.4976,38.7046 Q656.3105,38.165 655.0488,38.165 Q652.3594,38.165 650.9897,40.2983 Q649.6201,42.4316 649.6201,46.6318 Q649.6201,50.8154 650.9897,52.9487 Q652.3594,55.082 655.0488,55.082 Q656.3105,55.082 657.4976,54.5425 Q658.6846,54.0029 659.9463,52.8408 Z " fill="#000000"/><text fill="#000000" font-family="sans-serif" font-size="24" lengthAdjust="spacing" textLength="62" x="683" y="55.0703">cloud</text><line style="stroke:#A80036;stroke-width:3.0;" x1="627" x2="749" y1="78" y2="78"/><line style="stroke:#A80036;stroke-width:3.0;" x1="627" x2="749" y1="94" y2="94"/><!--MD5=[cf34588bf3c9f638fc6361762225d6f5]
reverse link resource to cloud--><path codeLine="25" d="M594.78,62 C604.86,62 614.92,62 624.98,62 " fill="none" id="resource-backto-cloud" style="stroke:#A80036;stroke-width:2.0;"/><polygon fill="none" points="594.68,76,554.68,62,594.68,48,594.68,76" style="stroke:#A80036;stroke-width:2.0;"/><!--MD5=[df67a10e0298e7c691e06ef949a04b32]
link account to resource--><path codeLine="26" d="M320.6,62 C330.32,62 340.06,62 349.78,62 " fill="none" id="account-to-resource" style="stroke:#A80036;stroke-width:2.0;"/><polygon fill="none" points="349.8,48,389.8,62,349.8,76,349.8,48" style="stroke:#A80036;stroke-width:2.0;"/><!--MD5=[14bde95197a4d9e34b3c6fec8235f531]
reverse link resource to volume--><path codeLine="27" d="M472,150.7 C472,175.42 472,202.98 472,229.92 " fill="none" id="resource-backto-volume" style="stroke:#A80036;stroke-width:2.0;"/><polygon fill="none" points="458,150.02,472,110.02,486,150.02,458,150.02" style="stroke:#A80036;stroke-width:2.0;"/><!--MD5=[643eeab1204dc44c0a75b50ac445c508]
reverse link volume to aws_ec2_volume--><path codeLine="28" d="M357.14,542.32 C337.52,571.6 317.74,601.08 299.96,627.62 " fill="none" id="volume-backto-aws_ec2_volume" style="stroke:#A80036;stroke-width:2.0;"/><polygon fill="none" points="346.08,533.68,379.98,508.26,369.34,549.28,346.08,533.68" style="stroke:#A80036;stroke-width:2.0;"/><!--MD5=[f1cc1043d94c61b26a5913ec3e82eb04]
reverse link volume to gcp_disk--><path codeLine="29" d="M587.5,541.82 C614.14,581.24 641.08,621.1 663.06,653.6 " fill="none" id="volume-backto-gcp_disk" style="stroke:#A80036;stroke-width:2.0;"/><polygon fill="none" points="575.6,549.24,564.8,508.26,598.8,533.54,575.6,549.24" style="stroke:#A80036;stroke-width:2.0;"/><!--MD5=[d62ade7510a45de83726c1c4f963fd34]
@startuml
    skinparam backgroundColor transparent

    class resource {
    }
    class account
    class volume {
    volume_size: int64
    volume_type: string
    volume_status: string
    volume_iops: int64
    volume_throughput: int64
    volume_encrypted: boolean
    snapshot_before_delete: boolean
    }
    class aws_ec2_volume {
    volume_kms_key_id: string
    volume_multi_attach_enabled: boolean
    volume_outpost_arn: string
    volume_snapshot_id: string
    }
    class gcp_disk {
    last_attach_timestamp: datetime
    last_detach_timestamp: datetime
    }
    resource <|- cloud
    account -|> resource
    resource <|- - volume
    volume <|- - aws_ec2_volume
    volume <|- - gcp_disk

    @enduml

PlantUML version 1.2021.7(Sun May 23 14:40:07 CEST 2021)
(GPL source distribution)
Java Runtime: OpenJDK Runtime Environment
JVM: OpenJDK 64-Bit Server VM
Default Encoding: UTF-8
Language: en
Country: DE
--></g></svg>