<?xml version="1.0" encoding="UTF-8" standalone="no"?><svg xmlns="http://www.w3.org/2000/svg" xmlns:xlink="http://www.w3.org/1999/xlink" contentScriptType="application/ecmascript" contentStyleType="text/css" height="341px" preserveAspectRatio="none" style="width:820px;height:341px;background:#00000000;" version="1.1" viewBox="0 0 820 341" width="820px" zoomAndPan="magnify"><defs/><g><!--MD5=[a78a17b35dcf435f0eee6761f15e83c6]
class aws_ec2_instance--><rect codeLine="18" fill="#194875" height="37" id="aws_ec2_instance" rx="2.5" ry="2.5" style="stroke:#000000;stroke-width:1.5;" width="180" x="457.5" y="201"/><ellipse cx="472.5" cy="219.5" fill="#1A83AF" rx="11" ry="11" style="stroke:#000000;stroke-width:1.0;"/><path d="M474.9731,225.6431 Q474.3921,225.9419 473.7529,226.0913 Q473.1138,226.2407 472.4082,226.2407 Q469.9014,226.2407 468.5815,224.5889 Q467.2617,222.937 467.2617,219.8159 Q467.2617,216.6865 468.5815,215.0347 Q469.9014,213.3828 472.4082,213.3828 Q473.1138,213.3828 473.7612,213.5322 Q474.4087,213.6816 474.9731,213.9805 L474.9731,216.7031 Q474.3423,216.1221 473.7488,215.8523 Q473.1553,215.5825 472.5244,215.5825 Q471.1797,215.5825 470.4949,216.6492 Q469.8101,217.7158 469.8101,219.8159 Q469.8101,221.9077 470.4949,222.9744 Q471.1797,224.041 472.5244,224.041 Q473.1553,224.041 473.7488,223.7712 Q474.3423,223.5015 474.9731,222.9204 Z " fill="#000000"/><text fill="#FFE797" font-family="Helvetica" font-size="17" lengthAdjust="spacing" textLength="138" x="491.5" y="224.0903">aws_ec2_instance</text><!--MD5=[4617c00eee5669b088370cf9241a91df]
class aws_account--><rect fill="#194875" height="37" id="aws_account" rx="2.5" ry="2.5" style="stroke:#000000;stroke-width:1.5;" width="140" x="477.5" y="7"/><ellipse cx="492.5" cy="25.5" fill="#1A83AF" rx="11" ry="11" style="stroke:#000000;stroke-width:1.0;"/><path d="M494.9731,31.6431 Q494.3921,31.9419 493.7529,32.0913 Q493.1138,32.2407 492.4082,32.2407 Q489.9014,32.2407 488.5815,30.5889 Q487.2617,28.937 487.2617,25.8159 Q487.2617,22.6865 488.5815,21.0347 Q489.9014,19.3828 492.4082,19.3828 Q493.1138,19.3828 493.7612,19.5322 Q494.4087,19.6816 494.9731,19.9805 L494.9731,22.7031 Q494.3423,22.1221 493.7488,21.8523 Q493.1553,21.5825 492.5244,21.5825 Q491.1797,21.5825 490.4949,22.6492 Q489.8101,23.7158 489.8101,25.8159 Q489.8101,27.9077 490.4949,28.9744 Q491.1797,30.041 492.5244,30.041 Q493.1553,30.041 493.7488,29.7712 Q494.3423,29.5015 494.9731,28.9204 Z " fill="#000000"/><text fill="#FFE797" font-family="Helvetica" font-size="17" lengthAdjust="spacing" textLength="98" x="511.5" y="30.0903">aws_account</text><!--MD5=[ab1eae8f76718f629e325f873a4fb1f8]
class aws_region--><rect fill="#194875" height="37" id="aws_region" rx="2.5" ry="2.5" style="stroke:#000000;stroke-width:1.5;" width="127" x="484" y="104"/><ellipse cx="499" cy="122.5" fill="#1A83AF" rx="11" ry="11" style="stroke:#000000;stroke-width:1.0;"/><path d="M501.4731,128.6431 Q500.8921,128.9419 500.2529,129.0913 Q499.6138,129.2407 498.9082,129.2407 Q496.4014,129.2407 495.0815,127.5889 Q493.7617,125.937 493.7617,122.8159 Q493.7617,119.6865 495.0815,118.0347 Q496.4014,116.3828 498.9082,116.3828 Q499.6138,116.3828 500.2612,116.5322 Q500.9087,116.6816 501.4731,116.9805 L501.4731,119.7031 Q500.8423,119.1221 500.2488,118.8523 Q499.6553,118.5825 499.0244,118.5825 Q497.6797,118.5825 496.9949,119.6492 Q496.3101,120.7158 496.3101,122.8159 Q496.3101,124.9077 496.9949,125.9744 Q497.6797,127.041 499.0244,127.041 Q499.6553,127.041 500.2488,126.7712 Q500.8423,126.5015 501.4731,125.9204 Z " fill="#000000"/><text fill="#FFE797" font-family="Helvetica" font-size="17" lengthAdjust="spacing" textLength="85" x="518" y="127.0903">aws_region</text><!--MD5=[dd6f315a6e7ddad885d23d64bcb1b317]
class aws_iam_role--><rect fill="#194875" height="37" id="aws_iam_role" rx="2.5" ry="2.5" style="stroke:#000000;stroke-width:1.5;" width="145" x="7" y="201"/><ellipse cx="22" cy="219.5" fill="#1A83AF" rx="11" ry="11" style="stroke:#000000;stroke-width:1.0;"/><path d="M24.4731,225.6431 Q23.8921,225.9419 23.2529,226.0913 Q22.6138,226.2407 21.9082,226.2407 Q19.4014,226.2407 18.0815,224.5889 Q16.7617,222.937 16.7617,219.8159 Q16.7617,216.6865 18.0815,215.0347 Q19.4014,213.3828 21.9082,213.3828 Q22.6138,213.3828 23.2612,213.5322 Q23.9087,213.6816 24.4731,213.9805 L24.4731,216.7031 Q23.8423,216.1221 23.2488,215.8523 Q22.6553,215.5825 22.0244,215.5825 Q20.6797,215.5825 19.9949,216.6492 Q19.3101,217.7158 19.3101,219.8159 Q19.3101,221.9077 19.9949,222.9744 Q20.6797,224.041 22.0244,224.041 Q22.6553,224.041 23.2488,223.7712 Q23.8423,223.5015 24.4731,222.9204 Z " fill="#000000"/><text fill="#FFE797" font-family="Helvetica" font-size="17" lengthAdjust="spacing" textLength="103" x="41" y="224.0903">aws_iam_role</text><!--MD5=[49e37c1973721d540297d8189dade450]
class aws_iam_instance_profile--><rect fill="#194875" height="37" id="aws_iam_instance_profile" rx="2.5" ry="2.5" style="stroke:#000000;stroke-width:1.5;" width="235" x="187" y="201"/><ellipse cx="202" cy="219.5" fill="#1A83AF" rx="11" ry="11" style="stroke:#000000;stroke-width:1.0;"/><path d="M204.4731,225.6431 Q203.8921,225.9419 203.2529,226.0913 Q202.6138,226.2407 201.9082,226.2407 Q199.4014,226.2407 198.0815,224.5889 Q196.7617,222.937 196.7617,219.8159 Q196.7617,216.6865 198.0815,215.0347 Q199.4014,213.3828 201.9082,213.3828 Q202.6138,213.3828 203.2612,213.5322 Q203.9087,213.6816 204.4731,213.9805 L204.4731,216.7031 Q203.8423,216.1221 203.2488,215.8523 Q202.6553,215.5825 202.0244,215.5825 Q200.6797,215.5825 199.9949,216.6492 Q199.3101,217.7158 199.3101,219.8159 Q199.3101,221.9077 199.9949,222.9744 Q200.6797,224.041 202.0244,224.041 Q202.6553,224.041 203.2488,223.7712 Q203.8423,223.5015 204.4731,222.9204 Z " fill="#000000"/><text fill="#FFE797" font-family="Helvetica" font-size="17" lengthAdjust="spacing" textLength="193" x="221" y="224.0903">aws_iam_instance_profile</text><!--MD5=[a3f309bd024815b191fa978c23e5db4f]
class aws_alb_target_group--><rect fill="#194875" height="37" id="aws_alb_target_group" rx="2.5" ry="2.5" style="stroke:#000000;stroke-width:1.5;" width="206" x="468.5" y="298"/><ellipse cx="483.5" cy="316.5" fill="#1A83AF" rx="11" ry="11" style="stroke:#000000;stroke-width:1.0;"/><path d="M485.9731,322.6431 Q485.3921,322.9419 484.7529,323.0913 Q484.1138,323.2407 483.4082,323.2407 Q480.9014,323.2407 479.5815,321.5889 Q478.2617,319.937 478.2617,316.8159 Q478.2617,313.6865 479.5815,312.0347 Q480.9014,310.3828 483.4082,310.3828 Q484.1138,310.3828 484.7612,310.5322 Q485.4087,310.6816 485.9731,310.9805 L485.9731,313.7031 Q485.3423,313.1221 484.7488,312.8523 Q484.1553,312.5825 483.5244,312.5825 Q482.1797,312.5825 481.4949,313.6492 Q480.8101,314.7158 480.8101,316.8159 Q480.8101,318.9077 481.4949,319.9744 Q482.1797,321.041 483.5244,321.041 Q484.1553,321.041 484.7488,320.7712 Q485.3423,320.5015 485.9731,319.9204 Z " fill="#000000"/><text fill="#FFE797" font-family="Helvetica" font-size="17" lengthAdjust="spacing" textLength="164" x="502.5" y="321.0903">aws_alb_target_group</text><!--MD5=[62feba95c454080ece180dc52d22d73f]
class aws_alb--><rect fill="#194875" height="37" id="aws_alb" rx="2.5" ry="2.5" style="stroke:#000000;stroke-width:1.5;" width="103" x="710" y="298"/><ellipse cx="725" cy="316.5" fill="#1A83AF" rx="11" ry="11" style="stroke:#000000;stroke-width:1.0;"/><path d="M727.4731,322.6431 Q726.8921,322.9419 726.2529,323.0913 Q725.6138,323.2407 724.9082,323.2407 Q722.4014,323.2407 721.0815,321.5889 Q719.7617,319.937 719.7617,316.8159 Q719.7617,313.6865 721.0815,312.0347 Q722.4014,310.3828 724.9082,310.3828 Q725.6138,310.3828 726.2612,310.5322 Q726.9087,310.6816 727.4731,310.9805 L727.4731,313.7031 Q726.8423,313.1221 726.2488,312.8523 Q725.6553,312.5825 725.0244,312.5825 Q723.6797,312.5825 722.9949,313.6492 Q722.3101,314.7158 722.3101,316.8159 Q722.3101,318.9077 722.9949,319.9744 Q723.6797,321.041 725.0244,321.041 Q725.6553,321.041 726.2488,320.7712 Q726.8423,320.5015 727.4731,319.9204 Z " fill="#000000"/><text fill="#FFE797" font-family="Helvetica" font-size="17" lengthAdjust="spacing" textLength="61" x="744" y="321.0903">aws_alb</text><!--MD5=[c43c386641439f7f236300442a7feb48]
link aws_account to aws_region--><path codeLine="19" d="M547.5,44.37 C547.5,59.63 547.5,81.68 547.5,98.3 " fill="none" id="aws_account-to-aws_region" style="stroke:#FFAF37;stroke-width:2.0;"/><polygon fill="#FFAF37" points="547.5,103.71,551.5,94.71,547.5,98.71,543.5,94.71,547.5,103.71" style="stroke:#FFAF37;stroke-width:2.0;"/><!--MD5=[bb83b478075d4e1bbf2390b342e3820b]
link aws_region to aws_iam_role--><path codeLine="20" d="M483.9,136.41 C399.03,153.64 248.85,184.12 157.32,202.7 " fill="none" id="aws_region-to-aws_iam_role" style="stroke:#FFAF37;stroke-width:2.0;"/><polygon fill="#FFAF37" points="152.19,203.74,161.8021,205.8865,157.0918,202.7539,160.2244,198.0436,152.19,203.74" style="stroke:#FFAF37;stroke-width:2.0;"/><!--MD5=[63b6fc69f1ad7c1988b028988d55ed01]
link aws_iam_role to aws_iam_instance_profile--><path codeLine="21" d="M152.01,219.5 C161.9,219.5 171.79,219.5 181.68,219.5 " fill="none" id="aws_iam_role-to-aws_iam_instance_profile" style="stroke:#FFAF37;stroke-width:2.0;"/><polygon fill="#FFAF37" points="186.86,219.5,177.86,215.5,181.86,219.5,177.86,223.5,186.86,219.5" style="stroke:#FFAF37;stroke-width:2.0;"/><!--MD5=[9c87da9807a633b382f502c7c61e54fd]
link aws_iam_instance_profile to aws_ec2_instance--><path codeLine="22" d="M422.2,219.5 C432.21,219.5 442.21,219.5 452.21,219.5 " fill="none" id="aws_iam_instance_profile-to-aws_ec2_instance" style="stroke:#FFAF37;stroke-width:2.0;"/><polygon fill="#FFAF37" points="457.44,219.5,448.44,215.5,452.44,219.5,448.44,223.5,457.44,219.5" style="stroke:#FFAF37;stroke-width:2.0;"/><!--MD5=[1fb6319e58ada6896a26c8722e09dca7]
link aws_region to aws_ec2_instance--><path codeLine="23" d="M547.5,141.37 C547.5,156.63 547.5,178.68 547.5,195.3 " fill="none" id="aws_region-to-aws_ec2_instance" style="stroke:#FFAF37;stroke-width:2.0;"/><polygon fill="#FFAF37" points="547.5,200.71,551.5,191.71,547.5,195.71,543.5,191.71,547.5,200.71" style="stroke:#FFAF37;stroke-width:2.0;"/><!--MD5=[a8d652d78a558f8642190f6c8e411ebf]
link aws_region to aws_alb_target_group--><path codeLine="24" d="M587.99,141.02 C612.08,153.82 640.58,173.73 654.5,201 C672.53,236.33 634.75,272.67 604.42,294.67 " fill="none" id="aws_region-to-aws_alb_target_group" style="stroke:#FFAF37;stroke-width:2.0;"/><polygon fill="#FFAF37" points="600,297.81,609.6512,295.8466,604.0725,294.9092,605.0099,289.3306,600,297.81" style="stroke:#FFAF37;stroke-width:2.0;"/><!--MD5=[1fa05452ca90b94b70c63cb40b725620]
link aws_ec2_instance to aws_alb_target_group--><path codeLine="25" d="M552.01,238.37 C555.9,253.76 561.54,276.06 565.75,292.73 " fill="none" id="aws_ec2_instance-to-aws_alb_target_group" style="stroke:#FFAF37;stroke-width:2.0;"/><polygon fill="#FFAF37" points="567.01,297.71,568.6809,288.0039,565.7839,292.8627,560.9252,289.9657,567.01,297.71" style="stroke:#FFAF37;stroke-width:2.0;"/><!--MD5=[b21c46d22c5164791a54d8458a957a6e]
link aws_region to aws_alb--><path codeLine="26" d="M589.05,141.07 C617.76,154.58 655.64,175.29 683.5,201 C712.95,228.18 737.11,268.49 750.39,293.32 " fill="none" id="aws_region-to-aws_alb" style="stroke:#FFAF37;stroke-width:2.0;"/><polygon fill="#FFAF37" points="752.74,297.77,752.0919,287.9425,750.413,293.3445,745.011,291.6656,752.74,297.77" style="stroke:#FFAF37;stroke-width:2.0;"/><!--MD5=[a02c064474e8418fe1ca67f90189321c]
link aws_region to aws_iam_instance_profile--><path codeLine="27" d="M502.65,141.04 C460.57,157.48 397.77,182.04 354.19,199.07 " fill="none" id="aws_region-to-aws_iam_instance_profile" style="stroke:#FFAF37;stroke-width:2.0;"/><polygon fill="#FFAF37" points="349.5,200.91,359.3393,201.344,354.1541,199.0826,356.4155,193.8974,349.5,200.91" style="stroke:#FFAF37;stroke-width:2.0;"/><!--MD5=[8a2cc34d5014324cd195cb2fc844b00e]
link aws_alb_target_group to aws_alb--><path codeLine="28" d="M674.66,316.5 C684.68,316.5 694.69,316.5 704.7,316.5 " fill="none" id="aws_alb_target_group-to-aws_alb" style="stroke:#FFAF37;stroke-width:2.0;"/><polygon fill="#FFAF37" points="709.94,316.5,700.94,312.5,704.94,316.5,700.94,320.5,709.94,316.5" style="stroke:#FFAF37;stroke-width:2.0;"/><!--MD5=[0fc7eead589122f6d5da998a605db3a5]
@startuml
    hide empty members
    skinparam backgroundColor transparent
    skinparam ArrowColor #ffaf37
    skinparam ArrowThickness 2
    skinparam BackgroundColor transparent
    skinparam ClassAttributeFontColor #ffe797
    skinparam ClassBackgroundColor #194875
    skinparam ClassBorderColor Black
    skinparam ClassFontColor #ffe797
    skinparam ClassFontName Helvetica  
    skinparam ClassFontSize 17
    skinparam Padding 5
    skinparam RoundCorner 5
    skinparam Shadowing false
    skinparam stereotypeCBackgroundColor #1a83af
    skinparam stereotypeIBackgroundColor #1a83af
    
    class aws_ec2_instance
    aws_account - -> aws_region
    aws_region - -> aws_iam_role
    aws_iam_role -> aws_iam_instance_profile
    aws_iam_instance_profile -> aws_ec2_instance
    aws_region - -> aws_ec2_instance
    aws_region - -> aws_alb_target_group
    aws_ec2_instance - -> aws_alb_target_group
    aws_region -> aws_alb
    aws_region -> aws_iam_instance_profile
    aws_alb_target_group -> aws_alb
    @enduml

PlantUML version 1.2021.16(Wed Dec 08 18:25:22 CET 2021)
(GPL source distribution)
Java Runtime: OpenJDK Runtime Environment
JVM: OpenJDK 64-Bit Server VM
Default Encoding: UTF-8
Language: en
Country: DE
--></g></svg>