<svg xmlns="http://www.w3.org/2000/svg" xmlns:xlink="http://www.w3.org/1999/xlink" width="870" height="576" contentScriptType="application/ecmascript" contentStyleType="text/css" style="width:870px;height:576px;background:#00000000" preserveAspectRatio="none" version="1.1" viewBox="0 0 870 576" zoomAndPan="magnify"><g><rect style="stroke:#00000000;stroke-width:3;fill:none" width="826" height="532.695" x="20" y="20" rx="10" ry="10"/><text x="30" y="51.07" fill="#FF0" font-family="sans-serif" font-size="28" lengthAdjust="spacing" textLength="26">id</text><text x="456" y="51.07" fill="#FF0" font-family="sans-serif" font-size="28" lengthAdjust="spacing" textLength="362">vol-0000000000000dddd</text><line style="stroke:#a80036;stroke-width:2" x1="446" x2="446" y1="20" y2="60.977"/><line style="stroke:#a80036;stroke-width:2" x1="20" x2="846" y1="60.977" y2="60.977"/><text x="30" y="92.047" fill="#FF0" font-family="sans-serif" font-size="28" lengthAdjust="spacing" textLength="60">kind</text><text x="456" y="92.047" fill="#FF0" font-family="sans-serif" font-size="28" lengthAdjust="spacing" textLength="228">aws_ec2_volume</text><line style="stroke:#a80036;stroke-width:2" x1="446" x2="446" y1="60.977" y2="101.953"/><line style="stroke:#a80036;stroke-width:2" x1="20" x2="846" y1="101.953" y2="101.953"/><text x="30" y="133.023" fill="#FF0" font-family="sans-serif" font-size="28" lengthAdjust="spacing" textLength="76">name</text><text x="456" y="133.023" fill="#FF0" font-family="sans-serif" font-size="28" lengthAdjust="spacing" textLength="352">vol-0d09582f815b0ded4</text><line style="stroke:#a80036;stroke-width:2" x1="446" x2="446" y1="101.953" y2="142.93"/><line style="stroke:#a80036;stroke-width:2" x1="20" x2="846" y1="142.93" y2="142.93"/><text x="30" y="174" fill="#FF0" font-family="sans-serif" font-size="28" lengthAdjust="spacing" textLength="172">volume_type</text><text x="456" y="174" fill="#FF0" font-family="sans-serif" font-size="28" lengthAdjust="spacing" textLength="44">io1</text><line style="stroke:#a80036;stroke-width:2" x1="446" x2="446" y1="142.93" y2="183.906"/><line style="stroke:#a80036;stroke-width:2" x1="20" x2="846" y1="183.906" y2="183.906"/><text x="30" y="214.977" fill="#FF0" font-family="sans-serif" font-size="28" lengthAdjust="spacing" textLength="250">volume_encrypted</text><text x="456" y="214.977" fill="#FF0" font-family="sans-serif" font-size="28" lengthAdjust="spacing" textLength="96">☐ false</text><line style="stroke:#a80036;stroke-width:2" x1="446" x2="446" y1="183.906" y2="224.883"/><line style="stroke:#a80036;stroke-width:2" x1="20" x2="846" y1="224.883" y2="224.883"/><text x="30" y="255.953" fill="#FF0" font-family="sans-serif" font-size="28" lengthAdjust="spacing" textLength="172">volume_iops</text><text x="456" y="255.953" fill="#FF0" font-family="sans-serif" font-size="28" lengthAdjust="spacing" textLength="72">1000</text><line style="stroke:#a80036;stroke-width:2" x1="446" x2="446" y1="224.883" y2="265.859"/><line style="stroke:#a80036;stroke-width:2" x1="20" x2="846" y1="265.859" y2="265.859"/><text x="30" y="296.93" fill="#FF0" font-family="sans-serif" font-size="28" lengthAdjust="spacing" textLength="406">volume_multi_attach_enabled</text><text x="456" y="296.93" fill="#FF0" font-family="sans-serif" font-size="28" lengthAdjust="spacing" textLength="88">☑ true</text><line style="stroke:#a80036;stroke-width:2" x1="446" x2="446" y1="265.859" y2="306.836"/><line style="stroke:#a80036;stroke-width:2" x1="20" x2="846" y1="306.836" y2="306.836"/><text x="30" y="337.906" fill="#FF0" font-family="sans-serif" font-size="28" lengthAdjust="spacing" textLength="168">volume_size</text><text x="456" y="337.906" fill="#FF0" font-family="sans-serif" font-size="28" lengthAdjust="spacing" textLength="54">100</text><line style="stroke:#a80036;stroke-width:2" x1="446" x2="446" y1="306.836" y2="347.813"/><line style="stroke:#a80036;stroke-width:2" x1="20" x2="846" y1="347.813" y2="347.813"/><text x="30" y="378.883" fill="#FF0" font-family="sans-serif" font-size="28" lengthAdjust="spacing" textLength="280">volume_snapshot_id</text><text x="456" y="378.883" fill="#FF0" font-family="sans-serif" font-size="28" lengthAdjust="spacing" textLength="380">snap-0b2dacd5b0a61831d</text><line style="stroke:#a80036;stroke-width:2" x1="446" x2="446" y1="347.813" y2="388.789"/><line style="stroke:#a80036;stroke-width:2" x1="20" x2="846" y1="388.789" y2="388.789"/><text x="30" y="419.859" fill="#FF0" font-family="sans-serif" font-size="28" lengthAdjust="spacing" textLength="196">volume_status</text><text x="456" y="419.859" fill="#FF0" font-family="sans-serif" font-size="28" lengthAdjust="spacing" textLength="90">in-use</text><line style="stroke:#a80036;stroke-width:2" x1="446" x2="446" y1="388.789" y2="429.766"/><line style="stroke:#a80036;stroke-width:2" x1="20" x2="846" y1="429.766" y2="429.766"/><text x="30" y="460.836" fill="#FF0" font-family="sans-serif" font-size="28" lengthAdjust="spacing" textLength="328">snapshot_before_delete</text><text x="456" y="460.836" fill="#FF0" font-family="sans-serif" font-size="28" lengthAdjust="spacing" textLength="96">☐ false</text><line style="stroke:#a80036;stroke-width:2" x1="446" x2="446" y1="429.766" y2="470.742"/><line style="stroke:#a80036;stroke-width:2" x1="20" x2="846" y1="470.742" y2="470.742"/><text x="30" y="501.813" fill="#FF0" font-family="sans-serif" font-size="28" lengthAdjust="spacing" textLength="74">ctime</text><text x="456" y="501.813" fill="#FF0" font-family="sans-serif" font-size="28" lengthAdjust="spacing" textLength="334">2021-09-21T00:35:09Z</text><line style="stroke:#a80036;stroke-width:2" x1="446" x2="446" y1="470.742" y2="511.719"/><line style="stroke:#a80036;stroke-width:2" x1="20" x2="846" y1="511.719" y2="511.719"/><text x="30" y="542.789" fill="#FF0" font-family="sans-serif" font-size="28" lengthAdjust="spacing" textLength="76">atime</text><text x="456" y="542.789" fill="#FF0" font-family="sans-serif" font-size="28" lengthAdjust="spacing" textLength="334">2021-09-26T11:56:31Z</text><line style="stroke:#a80036;stroke-width:2" x1="446" x2="446" y1="511.719" y2="552.695"/><rect style="stroke:#a80036;stroke-width:3" width="826" height="532.695" x="20" y="20" fill="none" rx="10" ry="10"/></g></svg>