<svg xmlns="http://www.w3.org/2000/svg" xmlns:xlink="http://www.w3.org/1999/xlink" width="416" height="318" contentScriptType="application/ecmascript" contentStyleType="text/css" style="width:416px;height:318px;background:#00000000" preserveAspectRatio="none" version="1.1" viewBox="0 0 416 318" zoomAndPan="magnify"><defs><filter id="f14hymg47t1nrq" width="300%" height="300%" x="-1" y="-1"><feGaussianBlur result="blurOut" stdDeviation="4"/><feColorMatrix in="blurOut" result="blurOut2" type="matrix" values="0 0 0 0 0 0 0 0 0 0 0 0 0 0 0 0 0 0 .4 0"/><feOffset dx="8" dy="8" in="blurOut2" result="blurOut3"/><feBlend in="SourceGraphic" in2="blurOut3" mode="normal"/></filter></defs><g><rect id="resource" width="374" height="277.371" x="14" y="14" fill="#FEFECE" codeLine="3" filter="url(#f14hymg47t1nrq)" style="stroke:#a80036;stroke-width:3"/><ellipse cx="142.5" cy="46" fill="#ADD1B2" rx="22" ry="22" style="stroke:#a80036;stroke-width:2"/><path fill="#000" d="M147.4463,58.2861 Q146.2842,58.8838 145.0059,59.1826 Q143.7275,59.4814 142.3164,59.4814 Q137.3027,59.4814 134.6631,56.1777 Q132.0234,52.874 132.0234,46.6318 Q132.0234,40.373 134.6631,37.0693 Q137.3027,33.7656 142.3164,33.7656 Q143.7275,33.7656 145.0225,34.0645 Q146.3174,34.3633 147.4463,34.9609 L147.4463,40.4063 Q146.1846,39.2441 144.9976,38.7046 Q143.8105,38.165 142.5488,38.165 Q139.8594,38.165 138.4897,40.2983 Q137.1201,42.4316 137.1201,46.6318 Q137.1201,50.8154 138.4897,52.9487 Q139.8594,55.082 142.5488,55.082 Q143.8105,55.082 144.9976,54.5425 Q146.1846,54.0029 147.4463,52.8408 Z"/><text x="183.5" y="55.07" fill="#000" font-family="sans-serif" font-size="24" lengthAdjust="spacing" textLength="100">resource</text><line style="stroke:#a80036;stroke-width:3" x1="16" x2="386" y1="78" y2="78"/><rect style="stroke:#c82930;stroke-width:2" width="12" height="12" x="30" y="94" fill="none"/><text x="54" y="107.269" fill="#000" font-family="sans-serif" font-size="22" lengthAdjust="spacing" textLength="96">id: string</text><rect style="stroke:#c82930;stroke-width:2" width="12" height="12" x="30" y="119.91" fill="none"/><text x="54" y="133.18" fill="#000" font-family="sans-serif" font-size="22" lengthAdjust="spacing" textLength="134">name: string</text><rect style="stroke:#c82930;stroke-width:2" width="12" height="12" x="30" y="145.82" fill="none"/><text x="54" y="159.09" fill="#000" font-family="sans-serif" font-size="22" lengthAdjust="spacing" textLength="122">kind: string</text><rect style="stroke:#c82930;stroke-width:2" width="12" height="12" x="30" y="171.731" fill="none"/><text x="54" y="185" fill="#000" font-family="sans-serif" font-size="22" lengthAdjust="spacing" textLength="322">tags: dictionary[string, string]</text><rect style="stroke:#c82930;stroke-width:2" width="12" height="12" x="30" y="197.641" fill="none"/><text x="54" y="210.91" fill="#000" font-family="sans-serif" font-size="22" lengthAdjust="spacing" textLength="162">ctime: datetime</text><rect style="stroke:#c82930;stroke-width:2" width="12" height="12" x="30" y="223.551" fill="none"/><text x="54" y="236.82" fill="#000" font-family="sans-serif" font-size="22" lengthAdjust="spacing" textLength="170">mtime: datetime</text><rect style="stroke:#c82930;stroke-width:2" width="12" height="12" x="30" y="249.461" fill="none"/><text x="54" y="262.731" fill="#000" font-family="sans-serif" font-size="22" lengthAdjust="spacing" textLength="162">atime: datetime</text><line style="stroke:#a80036;stroke-width:3" x1="16" x2="386" y1="275.371" y2="275.371"/></g></svg>