<?xml version="1.0" encoding="UTF-8" standalone="no"?><svg xmlns="http://www.w3.org/2000/svg" xmlns:xlink="http://www.w3.org/1999/xlink" contentScriptType="application/ecmascript" contentStyleType="text/css" height="786px" preserveAspectRatio="none" style="width:1348px;height:786px;background:#00000000;" version="1.1" viewBox="0 0 1348 786" width="1348px" zoomAndPan="magnify"><defs><filter height="300%" id="f1vgmzrvkw19yj" width="300%" x="-1" y="-1"><feGaussianBlur result="blurOut" stdDeviation="4.0"/><feColorMatrix in="blurOut" result="blurOut2" type="matrix" values="0 0 0 0 0 0 0 0 0 0 0 0 0 0 0 0 0 0 .4 0"/><feOffset dx="8.0" dy="8.0" in="blurOut2" result="blurOut3"/><feBlend in="SourceGraphic" in2="blurOut3" mode="normal"/></filter></defs><g><!--MD5=[a78a17b35dcf435f0eee6761f15e83c6]
class aws_ec2_instance--><rect codeLine="2" fill="#FEFECE" filter="url(#f1vgmzrvkw19yj)" height="96" id="aws_ec2_instance" style="stroke:#A80036;stroke-width:3.0;" width="268" x="727" y="446"/><ellipse cx="757" cy="478" fill="#ADD1B2" rx="22" ry="22" style="stroke:#A80036;stroke-width:2.0;"/><path d="M761.9463,490.2861 Q760.7842,490.8838 759.5059,491.1826 Q758.2275,491.4814 756.8164,491.4814 Q751.8027,491.4814 749.1631,488.1777 Q746.5234,484.874 746.5234,478.6318 Q746.5234,472.373 749.1631,469.0693 Q751.8027,465.7656 756.8164,465.7656 Q758.2275,465.7656 759.5225,466.0645 Q760.8174,466.3633 761.9463,466.9609 L761.9463,472.4063 Q760.6846,471.2441 759.4976,470.7046 Q758.3105,470.165 757.0488,470.165 Q754.3594,470.165 752.9897,472.2983 Q751.6201,474.4316 751.6201,478.6318 Q751.6201,482.8154 752.9897,484.9487 Q754.3594,487.082 757.0488,487.082 Q758.3105,487.082 759.4976,486.5425 Q760.6846,486.0029 761.9463,484.8408 Z " fill="#000000"/><text fill="#000000" font-family="sans-serif" font-size="24" lengthAdjust="spacing" textLength="204" x="785" y="487.0703">aws_ec2_instance</text><line style="stroke:#A80036;stroke-width:3.0;" x1="729" x2="993" y1="510" y2="510"/><line style="stroke:#A80036;stroke-width:3.0;" x1="729" x2="993" y1="526" y2="526"/><!--MD5=[4617c00eee5669b088370cf9241a91df]
class aws_account--><rect fill="#FEFECE" filter="url(#f1vgmzrvkw19yj)" height="96" id="aws_account" style="stroke:#A80036;stroke-width:3.0;" width="208" x="757" y="14"/><ellipse cx="787" cy="46" fill="#ADD1B2" rx="22" ry="22" style="stroke:#A80036;stroke-width:2.0;"/><path d="M791.9463,58.2861 Q790.7842,58.8838 789.5059,59.1826 Q788.2275,59.4814 786.8164,59.4814 Q781.8027,59.4814 779.1631,56.1777 Q776.5234,52.874 776.5234,46.6318 Q776.5234,40.373 779.1631,37.0693 Q781.8027,33.7656 786.8164,33.7656 Q788.2275,33.7656 789.5225,34.0645 Q790.8174,34.3633 791.9463,34.9609 L791.9463,40.4063 Q790.6846,39.2441 789.4976,38.7046 Q788.3105,38.165 787.0488,38.165 Q784.3594,38.165 782.9897,40.2983 Q781.6201,42.4316 781.6201,46.6318 Q781.6201,50.8154 782.9897,52.9487 Q784.3594,55.082 787.0488,55.082 Q788.3105,55.082 789.4976,54.5425 Q790.6846,54.0029 791.9463,52.8408 Z " fill="#000000"/><text fill="#000000" font-family="sans-serif" font-size="24" lengthAdjust="spacing" textLength="144" x="815" y="55.0703">aws_account</text><line style="stroke:#A80036;stroke-width:3.0;" x1="759" x2="963" y1="78" y2="78"/><line style="stroke:#A80036;stroke-width:3.0;" x1="759" x2="963" y1="94" y2="94"/><!--MD5=[ab1eae8f76718f629e325f873a4fb1f8]
class aws_region--><rect fill="#FEFECE" filter="url(#f1vgmzrvkw19yj)" height="96" id="aws_region" style="stroke:#A80036;stroke-width:3.0;" width="192" x="765" y="230"/><ellipse cx="795" cy="262" fill="#ADD1B2" rx="22" ry="22" style="stroke:#A80036;stroke-width:2.0;"/><path d="M799.9463,274.2861 Q798.7842,274.8838 797.5059,275.1826 Q796.2275,275.4814 794.8164,275.4814 Q789.8027,275.4814 787.1631,272.1777 Q784.5234,268.874 784.5234,262.6318 Q784.5234,256.373 787.1631,253.0693 Q789.8027,249.7656 794.8164,249.7656 Q796.2275,249.7656 797.5225,250.0645 Q798.8174,250.3633 799.9463,250.9609 L799.9463,256.4063 Q798.6846,255.2441 797.4976,254.7046 Q796.3105,254.165 795.0488,254.165 Q792.3594,254.165 790.9897,256.2983 Q789.6201,258.4316 789.6201,262.6318 Q789.6201,266.8154 790.9897,268.9487 Q792.3594,271.082 795.0488,271.082 Q796.3105,271.082 797.4976,270.5425 Q798.6846,270.0029 799.9463,268.8408 Z " fill="#000000"/><text fill="#000000" font-family="sans-serif" font-size="24" lengthAdjust="spacing" textLength="128" x="823" y="271.0703">aws_region</text><line style="stroke:#A80036;stroke-width:3.0;" x1="767" x2="955" y1="294" y2="294"/><line style="stroke:#A80036;stroke-width:3.0;" x1="767" x2="955" y1="310" y2="310"/><!--MD5=[dd6f315a6e7ddad885d23d64bcb1b317]
class aws_iam_role--><rect fill="#FEFECE" filter="url(#f1vgmzrvkw19yj)" height="96" id="aws_iam_role" style="stroke:#A80036;stroke-width:3.0;" width="218" x="14" y="446"/><ellipse cx="44" cy="478" fill="#ADD1B2" rx="22" ry="22" style="stroke:#A80036;stroke-width:2.0;"/><path d="M48.9463,490.2861 Q47.7842,490.8838 46.5059,491.1826 Q45.2275,491.4814 43.8164,491.4814 Q38.8027,491.4814 36.1631,488.1777 Q33.5234,484.874 33.5234,478.6318 Q33.5234,472.373 36.1631,469.0693 Q38.8027,465.7656 43.8164,465.7656 Q45.2275,465.7656 46.5225,466.0645 Q47.8174,466.3633 48.9463,466.9609 L48.9463,472.4063 Q47.6846,471.2441 46.4976,470.7046 Q45.3105,470.165 44.0488,470.165 Q41.3594,470.165 39.9897,472.2983 Q38.6201,474.4316 38.6201,478.6318 Q38.6201,482.8154 39.9897,484.9487 Q41.3594,487.082 44.0488,487.082 Q45.3105,487.082 46.4976,486.5425 Q47.6846,486.0029 48.9463,484.8408 Z " fill="#000000"/><text fill="#000000" font-family="sans-serif" font-size="24" lengthAdjust="spacing" textLength="154" x="72" y="487.0703">aws_iam_role</text><line style="stroke:#A80036;stroke-width:3.0;" x1="16" x2="230" y1="510" y2="510"/><line style="stroke:#A80036;stroke-width:3.0;" x1="16" x2="230" y1="526" y2="526"/><!--MD5=[49e37c1973721d540297d8189dade450]
class aws_iam_instance_profile--><rect fill="#FEFECE" filter="url(#f1vgmzrvkw19yj)" height="96" id="aws_iam_instance_profile" style="stroke:#A80036;stroke-width:3.0;" width="354" x="302" y="446"/><ellipse cx="332" cy="478" fill="#ADD1B2" rx="22" ry="22" style="stroke:#A80036;stroke-width:2.0;"/><path d="M336.9463,490.2861 Q335.7842,490.8838 334.5059,491.1826 Q333.2275,491.4814 331.8164,491.4814 Q326.8027,491.4814 324.1631,488.1777 Q321.5234,484.874 321.5234,478.6318 Q321.5234,472.373 324.1631,469.0693 Q326.8027,465.7656 331.8164,465.7656 Q333.2275,465.7656 334.5225,466.0645 Q335.8174,466.3633 336.9463,466.9609 L336.9463,472.4063 Q335.6846,471.2441 334.4976,470.7046 Q333.3105,470.165 332.0488,470.165 Q329.3594,470.165 327.9897,472.2983 Q326.6201,474.4316 326.6201,478.6318 Q326.6201,482.8154 327.9897,484.9487 Q329.3594,487.082 332.0488,487.082 Q333.3105,487.082 334.4976,486.5425 Q335.6846,486.0029 336.9463,484.8408 Z " fill="#000000"/><text fill="#000000" font-family="sans-serif" font-size="24" lengthAdjust="spacing" textLength="290" x="360" y="487.0703">aws_iam_instance_profile</text><line style="stroke:#A80036;stroke-width:3.0;" x1="304" x2="654" y1="510" y2="510"/><line style="stroke:#A80036;stroke-width:3.0;" x1="304" x2="654" y1="526" y2="526"/><!--MD5=[a3f309bd024815b191fa978c23e5db4f]
class aws_alb_target_group--><rect fill="#FEFECE" filter="url(#f1vgmzrvkw19yj)" height="96" id="aws_alb_target_group" style="stroke:#A80036;stroke-width:3.0;" width="316" x="779" y="662"/><ellipse cx="809" cy="694" fill="#ADD1B2" rx="22" ry="22" style="stroke:#A80036;stroke-width:2.0;"/><path d="M813.9463,706.2861 Q812.7842,706.8838 811.5059,707.1826 Q810.2275,707.4814 808.8164,707.4814 Q803.8027,707.4814 801.1631,704.1777 Q798.5234,700.874 798.5234,694.6318 Q798.5234,688.373 801.1631,685.0693 Q803.8027,681.7656 808.8164,681.7656 Q810.2275,681.7656 811.5225,682.0645 Q812.8174,682.3633 813.9463,682.9609 L813.9463,688.4063 Q812.6846,687.2441 811.4976,686.7046 Q810.3105,686.165 809.0488,686.165 Q806.3594,686.165 804.9897,688.2983 Q803.6201,690.4316 803.6201,694.6318 Q803.6201,698.8154 804.9897,700.9487 Q806.3594,703.082 809.0488,703.082 Q810.3105,703.082 811.4976,702.5425 Q812.6846,702.0029 813.9463,700.8408 Z " fill="#000000"/><text fill="#000000" font-family="sans-serif" font-size="24" lengthAdjust="spacing" textLength="252" x="837" y="703.0703">aws_alb_target_group</text><line style="stroke:#A80036;stroke-width:3.0;" x1="781" x2="1093" y1="726" y2="726"/><line style="stroke:#A80036;stroke-width:3.0;" x1="781" x2="1093" y1="742" y2="742"/><!--MD5=[62feba95c454080ece180dc52d22d73f]
class aws_alb--><rect fill="#FEFECE" filter="url(#f1vgmzrvkw19yj)" height="96" id="aws_alb" style="stroke:#A80036;stroke-width:3.0;" width="156" x="1165" y="662"/><ellipse cx="1195" cy="694" fill="#ADD1B2" rx="22" ry="22" style="stroke:#A80036;stroke-width:2.0;"/><path d="M1199.9463,706.2861 Q1198.7842,706.8838 1197.5059,707.1826 Q1196.2275,707.4814 1194.8164,707.4814 Q1189.8027,707.4814 1187.1631,704.1777 Q1184.5234,700.874 1184.5234,694.6318 Q1184.5234,688.373 1187.1631,685.0693 Q1189.8027,681.7656 1194.8164,681.7656 Q1196.2275,681.7656 1197.5225,682.0645 Q1198.8174,682.3633 1199.9463,682.9609 L1199.9463,688.4063 Q1198.6846,687.2441 1197.4976,686.7046 Q1196.3105,686.165 1195.0488,686.165 Q1192.3594,686.165 1190.9897,688.2983 Q1189.6201,690.4316 1189.6201,694.6318 Q1189.6201,698.8154 1190.9897,700.9487 Q1192.3594,703.082 1195.0488,703.082 Q1196.3105,703.082 1197.4976,702.5425 Q1198.6846,702.0029 1199.9463,700.8408 Z " fill="#000000"/><text fill="#000000" font-family="sans-serif" font-size="24" lengthAdjust="spacing" textLength="92" x="1223" y="703.0703">aws_alb</text><line style="stroke:#A80036;stroke-width:3.0;" x1="1167" x2="1319" y1="726" y2="726"/><line style="stroke:#A80036;stroke-width:3.0;" x1="1167" x2="1319" y1="742" y2="742"/><!--MD5=[c43c386641439f7f236300442a7feb48]
link aws_account to aws_region--><path codeLine="3" d="M861,110 C861,142 861,184.9 861,219.06 " fill="none" id="aws_account-to-aws_region" style="stroke:#A80036;stroke-width:2.0;"/><polygon fill="#A80036" points="861,229.36,869,211.36,861,219.36,853,211.36,861,229.36" style="stroke:#A80036;stroke-width:2.0;"/><!--MD5=[bb83b478075d4e1bbf2390b342e3820b]
link aws_region to aws_iam_role--><path codeLine="4" d="M764.5,305.8 C646.7,337.56 441.64,393.72 267,446 C258.86,448.44 250.5,450.98 242.06,453.6 " fill="none" id="aws_region-to-aws_iam_role" style="stroke:#A80036;stroke-width:2.0;"/><polygon fill="#A80036" points="232.16,456.66,251.7182,459.0003,241.7159,453.7131,247.0032,443.7109,232.16,456.66" style="stroke:#A80036;stroke-width:2.0;"/><!--MD5=[63b6fc69f1ad7c1988b028988d55ed01]
link aws_iam_role to aws_iam_instance_profile--><path codeLine="5" d="M232.16,494 C251.86,494 271.58,494 291.28,494 " fill="none" id="aws_iam_role-to-aws_iam_instance_profile" style="stroke:#A80036;stroke-width:2.0;"/><polygon fill="#A80036" points="301.58,494,283.58,486,291.58,494,283.58,502,301.58,494" style="stroke:#A80036;stroke-width:2.0;"/><!--MD5=[9c87da9807a633b382f502c7c61e54fd]
link aws_iam_instance_profile to aws_ec2_instance--><path codeLine="6" d="M656.58,494 C676.52,494 696.46,494 716.42,494 " fill="none" id="aws_iam_instance_profile-to-aws_ec2_instance" style="stroke:#A80036;stroke-width:2.0;"/><polygon fill="#A80036" points="726.84,494,708.84,486,716.84,494,708.84,502,726.84,494" style="stroke:#A80036;stroke-width:2.0;"/><!--MD5=[1fb6319e58ada6896a26c8722e09dca7]
link aws_region to aws_ec2_instance--><path codeLine="7" d="M861,326 C861,358 861,400.9 861,435.06 " fill="none" id="aws_region-to-aws_ec2_instance" style="stroke:#A80036;stroke-width:2.0;"/><polygon fill="#A80036" points="861,445.36,869,427.36,861,435.36,853,427.36,861,445.36" style="stroke:#A80036;stroke-width:2.0;"/><!--MD5=[a8d652d78a558f8642190f6c8e411ebf]
link aws_region to aws_alb_target_group--><path codeLine="8" d="M929.82,326.68 C966.78,356.08 1008.78,397.58 1029,446 C1058.46,516.52 1016.16,600.16 979.68,653.64 " fill="none" id="aws_region-to-aws_alb_target_group" style="stroke:#A80036;stroke-width:2.0;"/><polygon fill="#A80036" points="973.88,661.96,990.7347,651.766,979.5973,653.7556,977.6077,642.6182,973.88,661.96" style="stroke:#A80036;stroke-width:2.0;"/><!--MD5=[1fa05452ca90b94b70c63cb40b725620]
link aws_ec2_instance to aws_alb_target_group--><path codeLine="9" d="M877.5,542 C889.06,574.28 904.6,617.64 916.9,651.94 " fill="none" id="aws_ec2_instance-to-aws_alb_target_group" style="stroke:#A80036;stroke-width:2.0;"/><polygon fill="#A80036" points="920.28,661.36,921.7523,641.7174,916.913,651.9439,906.6865,647.1046,920.28,661.36" style="stroke:#A80036;stroke-width:2.0;"/><!--MD5=[b21c46d22c5164791a54d8458a957a6e]
link aws_region to aws_alb--><path codeLine="10" d="M939.36,326.32 C985.96,356.42 1044.14,398.78 1087,446 C1144.18,508.98 1191.04,596.14 1218.02,652.3 " fill="none" id="aws_region-to-aws_alb" style="stroke:#A80036;stroke-width:2.0;"/><polygon fill="#A80036" points="1222.5,661.72,1221.9575,642.0298,1218.1885,652.6972,1207.521,648.9282,1222.5,661.72" style="stroke:#A80036;stroke-width:2.0;"/><!--MD5=[a02c064474e8418fe1ca67f90189321c]
link aws_region to aws_iam_instance_profile--><path codeLine="11" d="M778.12,326 C717.26,359.78 634.56,405.68 571.54,440.64 " fill="none" id="aws_region-to-aws_iam_instance_profile" style="stroke:#A80036;stroke-width:2.0;"/><polygon fill="#A80036" points="562.38,445.72,582.0043,444.0208,571.1337,440.8854,574.269,430.0149,562.38,445.72" style="stroke:#A80036;stroke-width:2.0;"/><!--MD5=[8a2cc34d5014324cd195cb2fc844b00e]
link aws_alb_target_group to aws_alb--><path codeLine="12" d="M1095.38,710 C1115.02,710 1134.66,710 1154.3,710 " fill="none" id="aws_alb_target_group-to-aws_alb" style="stroke:#A80036;stroke-width:2.0;"/><polygon fill="#A80036" points="1164.58,710,1146.58,702,1154.58,710,1146.58,718,1164.58,710" style="stroke:#A80036;stroke-width:2.0;"/><!--MD5=[7238d9659dd7caaa65a70d18dc6869f7]
@startuml
    skinparam backgroundColor transparent
    class aws_ec2_instance
    aws_account - -> aws_region
    aws_region - -> aws_iam_role
    aws_iam_role -> aws_iam_instance_profile
    aws_iam_instance_profile -> aws_ec2_instance
    aws_region - -> aws_ec2_instance
    aws_region - -> aws_alb_target_group
    aws_ec2_instance - -> aws_alb_target_group
    aws_region -> aws_alb
    aws_region -> aws_iam_instance_profile
    aws_alb_target_group -> aws_alb
    @enduml

PlantUML version 1.2021.7(Sun May 23 14:40:07 CEST 2021)
(GPL source distribution)
Java Runtime: OpenJDK Runtime Environment
JVM: OpenJDK 64-Bit Server VM
Default Encoding: UTF-8
Language: en
Country: DE
--></g></svg>