<?xml version="1.0" encoding="UTF-8" standalone="no"?>
<!DOCTYPE svg PUBLIC "-//W3C//DTD SVG 1.1//EN" "http://www.w3.org/Graphics/SVG/1.1/DTD/svg11.dtd">
<svg width="100%" height="100%" viewBox="0 0 180 33" version="1.1" xmlns="http://www.w3.org/2000/svg" xmlns:xlink="http://www.w3.org/1999/xlink" xml:space="preserve" xmlns:serif="http://www.serif.com/" style="fill-rule:evenodd;clip-rule:evenodd;stroke-linejoin:round;stroke-miterlimit:2;">
    <g transform="matrix(1.32044,0,0,1.32044,-11.2811,-8.99067)">
        <g id="Layer_1">
            <g transform="matrix(21.9624,0,0,21.9624,142.572,24.7016)">
            </g>
            <text x="33.221px" y="24.702px" style="font-family:'Dosis-SemiBold', 'Dosis';font-weight:200;font-size:21.962px;fill:rgb(175,98,241);">Fi<tspan x="48.397px 57.424px 62.475px 67.439px 78.508px 87.776px 98.208px 109.431px 115.822px 126.474px 133.897px " y="24.702px 24.702px 24.702px 24.702px 24.702px 24.702px 24.702px 24.702px 24.702px 24.702px 24.702px ">x Inventory</tspan></text>
        </g>
    </g>
    <g id="Big" transform="matrix(1,0,0,1,0,-0.0015)">
        <g id="EarR" transform="matrix(1,0,0,1,-1.344,0)">
            <path d="M22.038,14.962C26.207,17.394 28.358,21.315 28.358,23.77C28.358,26.225 26.627,26.544 25.245,25.795C23.836,25.031 23.218,22.421 23.218,22.421L22.038,14.962Z" style="fill:rgb(254,192,141);fill-rule:nonzero;"/>
        </g>
        <g id="EarR-2" transform="matrix(1,0,0,1,-1.344,0)">
            <path d="M22.823,18.938C22.815,18.893 22.811,18.848 22.811,18.802C22.811,18.359 23.176,17.994 23.619,17.994C23.802,17.994 23.98,18.056 24.123,18.17C26.215,19.803 27.123,21.594 27.123,23.146C27.124,23.168 27.124,23.189 27.124,23.211C27.124,24.041 26.442,24.723 25.612,24.723C25.3,24.723 24.995,24.626 24.74,24.446C24.012,23.907 23.531,23.097 23.406,22.2L22.823,18.938Z" style="fill:rgb(251,155,122);fill-rule:nonzero;"/>
        </g>
        <g id="EarL" transform="matrix(1,0,0,1,-1.344,0)">
            <path d="M8.274,14.657C4.105,17.089 1.649,21.315 1.649,23.77C1.649,26.225 3.38,26.544 4.762,25.8C6.171,25.036 6.484,22.426 6.484,22.426L8.274,14.657Z" style="fill:rgb(254,192,141);fill-rule:nonzero;"/>
        </g>
        <g id="EarR-3" transform="matrix(1,0,0,1,-1.344,0)">
            <path d="M7.232,18.67C7.239,18.63 7.242,18.59 7.242,18.549C7.242,18.165 6.926,17.849 6.542,17.849C6.398,17.849 6.256,17.894 6.138,17.978C3.88,19.661 2.9,21.532 2.9,23.146C2.899,23.172 2.898,23.198 2.898,23.224C2.898,24.047 3.575,24.724 4.398,24.724C4.71,24.724 5.014,24.627 5.268,24.446C5.996,23.907 6.476,23.097 6.6,22.2L7.232,18.67Z" style="fill:rgb(251,155,122);fill-rule:nonzero;"/>
        </g>
        <g id="ShadowEarR" transform="matrix(1,0,0,1,-1.344,0)">
            <path d="M28.48,23.756C28.48,26.212 26.596,26.53 25.214,25.781C24.716,25.463 24.316,25.013 24.058,24.481C23.909,24.208 23.778,23.926 23.665,23.637C24.045,22.713 24.24,21.724 24.239,20.725C24.239,19.924 24.136,19.126 23.932,18.352L24.008,18.352C24.391,19.406 24.586,20.519 24.585,21.64C24.585,22.222 24.533,22.803 24.429,23.376C24.68,23.862 25.057,24.272 25.52,24.562C25.829,24.762 26.189,24.869 26.557,24.869C27.334,24.869 28.037,24.393 28.326,23.672C28.327,23.7 28.48,23.728 28.48,23.756Z" style="fill:rgb(221,154,99);fill-rule:nonzero;"/>
        </g>
        <g id="ShadowHair" transform="matrix(1,0,0,1,-1.344,0)">
            <path d="M22.78,16C22.574,15.718 22.354,15.448 22.12,15.189L22.038,14.655C22.238,14.773 22.438,14.894 22.631,15.02L22.78,16Z" style="fill:rgb(221,154,99);fill-rule:nonzero;"/>
        </g>
        <g id="Head" transform="matrix(1,0,0,1,-1.344,0)">
            <path d="M24.1,20.737C24.101,20.789 24.101,20.841 24.101,20.893C24.101,25.781 20.088,29.808 15.2,29.825C10.214,29.825 6.112,25.723 6.112,20.737C6.112,15.751 10.214,11.649 15.2,11.649C20.088,11.666 24.101,15.693 24.101,20.581C24.101,20.633 24.101,20.685 24.1,20.737Z" style="fill:rgb(254,192,141);fill-rule:nonzero;"/>
        </g>
        <g transform="matrix(1,0,0,1,-1.344,0)">
            <path d="M23.833,16.2C23.365,16.688 22.724,16.972 22.048,16.99C21.313,16.991 20.597,16.761 20,16.333C19.896,16.258 19.75,16.273 19.664,16.369C19.28,16.857 18.708,17.162 18.088,17.208C17.433,17.171 16.829,16.84 16.446,16.308C16.401,16.253 16.334,16.22 16.263,16.22C16.168,16.22 16.082,16.278 16.046,16.365C15.502,17.677 14.245,18.561 12.826,18.63C11.479,18.532 10.286,17.713 9.71,16.492C9.665,16.406 9.559,16.37 9.471,16.411C8.99,16.615 8.472,16.713 7.95,16.7C7.429,16.693 6.928,16.496 6.543,16.145C6.523,16.009 7.431,14.937 9.709,14.096C11.803,13.753 13.927,13.635 16.046,13.744C18.165,13.853 20.546,14.02 22.246,16.007L23.415,15.758C23.7,15.851 23.9,16.052 23.833,16.2Z" style="fill:rgb(221,154,99);fill-rule:nonzero;"/>
        </g>
        <g transform="matrix(1,0,0,1,-1.344,0)">
            <path d="M23.964,20.737C23.966,20.808 23.967,20.878 23.967,20.949C23.967,25.751 20.015,29.703 15.213,29.703C15.142,29.703 15.071,29.702 15,29.7C14.93,29.702 14.86,29.703 14.79,29.703C9.988,29.703 6.036,25.751 6.036,20.949C6.036,20.879 6.037,20.809 6.039,20.739C6.039,19.938 6.142,19.14 6.346,18.366L6.6,18.366C6.535,18.777 6.501,19.193 6.5,19.61C6.56,24.213 10.397,27.95 15,27.89C15.037,27.89 15.073,27.891 15.11,27.891C19.672,27.891 23.441,24.17 23.5,19.608C23.5,19.192 23.468,18.776 23.405,18.364L23.657,18.364C23.861,19.138 23.964,19.936 23.964,20.737Z" style="fill:rgb(221,154,99);fill-rule:nonzero;"/>
        </g>
        <g transform="matrix(1,0,0,1,-1.344,0)">
            <path d="M23.185,17.794C23.185,17.794 23.184,17.794 23.184,17.794C22.956,17.794 22.77,17.981 22.77,18.208C22.77,18.246 22.775,18.284 22.785,18.32C23.001,19.107 23.109,19.921 23.106,20.737C23.106,25.607 19.478,29.556 15.006,29.556C10.534,29.556 6.906,25.607 6.906,20.737C6.903,19.921 7.011,19.107 7.227,18.32C7.237,18.284 7.242,18.246 7.242,18.208C7.242,17.981 7.056,17.794 6.828,17.794C6.828,17.794 6.827,17.794 6.827,17.794C6.644,17.792 6.481,17.911 6.427,18.086C6.168,18.946 6.039,19.839 6.044,20.737C6.042,20.807 6.041,20.878 6.041,20.948C6.041,25.751 9.993,29.702 14.795,29.702C14.864,29.702 14.932,29.702 15,29.7C15.069,29.702 15.139,29.702 15.209,29.702C20.011,29.702 23.963,25.751 23.963,20.948C23.963,20.879 23.962,20.809 23.96,20.739C23.965,19.841 23.837,18.948 23.578,18.088C23.525,17.915 23.366,17.796 23.185,17.794Z" style="fill:rgb(254,228,206);fill-rule:nonzero;"/>
        </g>
        <g transform="matrix(1,0,0,1,-1.344,0)">
            <path d="M28.327,23.756C28.327,25.972 26.974,26.391 25.635,25.956C26.816,25.748 27.64,24.641 27.5,23.45C27.5,20.897 25.505,18.108 22.2,15.902L22.009,14.949C26.176,17.381 28.327,21.3 28.327,23.756Z" style="fill:rgb(254,228,206);fill-rule:nonzero;"/>
        </g>
        <g id="ShadowEarR-2" transform="matrix(1,0,0,1,-1.344,0)">
            <path d="M1.528,23.756C1.528,26.212 3.412,26.53 4.793,25.781C5.291,25.463 5.692,25.013 5.949,24.481C6.097,24.208 6.229,23.926 6.343,23.637C5.962,22.714 5.767,21.724 5.769,20.725C5.768,19.924 5.871,19.126 6.076,18.352L6,18.352C5.417,19.96 5.272,21.694 5.579,23.376C5.328,23.862 4.951,24.271 4.488,24.562C4.179,24.762 3.819,24.869 3.451,24.869C2.673,24.869 1.971,24.393 1.681,23.672C1.681,23.7 1.528,23.728 1.528,23.756Z" style="fill:rgb(221,154,99);fill-rule:nonzero;"/>
        </g>
        <g transform="matrix(1,0,0,1,-1.344,0)">
            <path d="M1.68,23.756C1.68,25.972 3.034,26.391 4.373,25.956C3.193,25.748 2.369,24.641 2.508,23.45C2.508,20.897 4.508,18.108 7.808,15.902L8,14.949C3.831,17.381 1.68,21.3 1.68,23.756Z" style="fill:rgb(254,228,206);fill-rule:nonzero;"/>
        </g>
        <circle cx="19.378" cy="18.517" r="1.305"/>
        <g transform="matrix(1,0,0,1,-1.344,0)">
            <path d="M20.042,18.512L19.522,19.042C19.375,18.708 19.375,18.326 19.522,17.992L20.042,18.512Z" style="fill:white;fill-rule:nonzero;"/>
        </g>
        <circle cx="7.936" cy="18.517" r="1.305"/>
        <g transform="matrix(1,0,0,1,-1.344,0)">
            <path d="M8.6,18.512L8.08,19.042C7.933,18.708 7.933,18.326 8.08,17.992L8.6,18.512Z" style="fill:white;fill-rule:nonzero;"/>
        </g>
        <circle id="Cheeks" cx="18.954" cy="22.058" r="0.882" style="fill:rgb(251,155,122);"/>
        <circle id="Cheeks-2" cx="8.365" cy="22.03" r="0.882" style="fill:rgb(251,155,122);"/>
        <g id="NoseRed" transform="matrix(1,0,0,1,-1.344,0)">
            <path d="M16.7,22.1C16.49,22.396 16.216,22.641 15.9,22.819C15.618,22.95 15.311,23.018 15,23.019C14.689,23.017 14.382,22.949 14.1,22.819C13.783,22.642 13.51,22.396 13.3,22.1C13.712,21.583 14.339,21.282 15,21.282C15.661,21.282 16.288,21.583 16.7,22.1Z" style="fill:rgb(251,155,122);fill-rule:nonzero;"/>
        </g>
        <circle id="NoseHighlight" cx="13.218" cy="22.058" r="0.441" style="fill:white;"/>
        <g id="Mouth" transform="matrix(1,0,0,1,-1.344,0)">
            <path d="M18.288,25.143C17.934,25.914 17.159,26.411 16.311,26.411C15.838,26.411 15.377,26.257 15,25.972C14.623,26.256 14.164,26.409 13.692,26.409C12.844,26.409 12.07,25.913 11.716,25.143C12.226,25.596 12.885,25.846 13.567,25.843L13.635,25.843C14.34,25.825 14.91,25.24 14.91,24.535C14.91,24.082 14.674,23.66 14.288,23.422L14.251,23.399C14.129,23.331 14.016,23.248 13.914,23.152C13.614,22.863 13.401,22.495 13.299,22.09C13.513,22.359 13.787,22.573 14.099,22.715C14.261,22.789 14.432,22.842 14.607,22.874C14.866,22.921 15.131,22.921 15.39,22.874C15.566,22.842 15.737,22.789 15.899,22.715C16.211,22.573 16.485,22.359 16.699,22.091C16.598,22.495 16.384,22.863 16.084,23.152C15.982,23.248 15.869,23.332 15.747,23.4L15.709,23.423C15.324,23.661 15.09,24.083 15.09,24.535C15.09,25.24 15.659,25.825 16.364,25.844L16.432,25.844C17.116,25.848 17.778,25.598 18.288,25.143Z" style="fill-rule:nonzero;"/>
        </g>
        <g transform="matrix(1,0,0,1,-1.344,0)">
            <path d="M27.315,13.9C27.987,14.556 28.383,15.445 28.42,16.384C28.38,17.595 27.728,18.706 26.691,19.332C25.819,18.031 24.752,16.872 23.528,15.895C23.084,16.163 22.564,16.279 22.048,16.227C21.218,16.174 20.431,15.839 19.816,15.279C19.425,15.863 18.792,16.243 18.092,16.312C17.276,16.239 16.555,15.746 16.192,15.012C15.739,16.501 14.386,17.547 12.831,17.612C11.5,17.622 10.286,16.832 9.756,15.612C9.197,15.892 8.581,16.037 7.956,16.037C7.508,16.051 7.063,15.961 6.656,15.772C6.449,15.934 6.249,16.101 6.056,16.272C5.931,16.38 5.809,16.489 5.688,16.6C5.052,17.165 4.468,17.785 3.942,18.454L3.6,18.454C3.588,18.454 3.575,18.454 3.563,18.454C2.529,18.454 1.679,17.604 1.679,16.57C1.679,16.505 1.682,16.439 1.689,16.374C1.689,15.406 2.335,14.549 3.265,14.282C2.788,13.429 2.538,12.467 2.54,11.49C2.537,11.415 2.535,11.341 2.535,11.266C2.535,8.397 4.896,6.037 7.764,6.037C7.834,6.037 7.905,6.038 7.975,6.041C8.512,6.041 9.047,6.09 9.575,6.187L9.575,5.736C9.572,5.667 9.571,5.599 9.571,5.53C9.571,2.662 11.931,0.301 14.8,0.301C14.867,0.301 14.933,0.302 15,0.305C17.317,0.306 19.416,1.711 20.3,3.852C20.831,3.551 21.431,3.393 22.041,3.394C22.107,3.39 22.174,3.387 22.241,3.387C23.903,3.387 25.272,4.756 25.272,6.418C25.272,6.485 25.269,6.552 25.265,6.618C25.265,6.803 25.251,7.289 25.224,7.466C25.603,7.399 25.988,7.366 26.373,7.366C26.44,7.361 26.508,7.359 26.576,7.359C28.238,7.359 29.607,8.727 29.607,10.39C29.607,10.457 29.604,10.523 29.6,10.589C29.603,12.058 28.689,13.381 27.315,13.9Z" style="fill:rgb(118,45,215);fill-rule:nonzero;"/>
        </g>
        <g transform="matrix(1,0,0,1,-1.344,0)">
            <path d="M23.455,9.32C23.413,9.32 23.328,9.32 23.328,9.32C23.294,9.32 23.267,9.292 23.267,9.259C23.267,9.24 23.275,9.223 23.29,9.211C23.925,8.713 24.298,7.95 24.3,7.143C24.273,5.648 23.022,4.44 21.527,4.467C21.021,4.465 20.524,4.599 20.088,4.855C20.03,4.889 19.964,4.907 19.897,4.907C19.729,4.907 19.58,4.793 19.536,4.63C19.116,2.609 17.369,1.116 15.307,1.016C12.869,1.016 10.892,3.288 10.892,6.091C10.892,6.325 10.906,6.559 10.934,6.791C10.936,6.809 10.937,6.826 10.937,6.844C10.937,7.094 10.732,7.299 10.482,7.299C10.422,7.299 10.362,7.287 10.307,7.264C9.752,7.033 9.156,6.914 8.554,6.914C6.052,6.914 3.994,8.972 3.994,11.474C3.994,12.184 4.16,12.885 4.479,13.52C4.491,13.545 4.516,13.561 4.543,13.561C4.582,13.561 4.614,13.529 4.614,13.49C4.614,13.488 4.614,13.485 4.614,13.482C4.606,13.388 4.601,13.293 4.601,13.197C4.6,12.724 4.703,12.256 4.901,11.827C4.926,11.776 4.978,11.743 5.035,11.743C5.115,11.743 5.181,11.807 5.184,11.886C5.25,13.57 6.652,14.921 8.338,14.922C8.643,14.922 8.946,14.877 9.238,14.789C9.295,14.772 9.332,14.717 9.325,14.658C9.308,14.513 9.299,14.367 9.299,14.221C9.299,14.129 9.299,14.038 9.309,13.948C9.311,13.913 9.34,13.885 9.375,13.885C9.404,13.885 9.43,13.904 9.438,13.932C9.962,15.267 11.266,16.143 12.7,16.123C14.413,16.2 15.913,14.926 16.114,13.223C16.116,13.191 16.143,13.166 16.175,13.166C16.2,13.166 16.223,13.182 16.232,13.206C16.331,13.471 16.372,13.755 16.354,14.037C16.352,14.061 16.355,14.085 16.365,14.107C16.668,14.785 17.345,15.223 18.088,15.223C18.97,15.277 19.79,14.745 20.1,13.917C20.11,13.886 20.138,13.866 20.17,13.866C20.208,13.866 20.24,13.894 20.244,13.931C20.26,14.038 20.268,14.146 20.268,14.254C20.268,14.419 20.249,14.584 20.212,14.745C20.2,14.798 20.222,14.852 20.268,14.881C20.709,15.158 21.22,15.305 21.74,15.305C23.259,15.305 24.508,14.056 24.508,12.537C24.508,12.018 24.362,11.509 24.087,11.069C24.078,11.054 24.074,11.038 24.074,11.021C24.074,10.969 24.116,10.927 24.168,10.927C24.186,10.927 24.204,10.932 24.219,10.942C24.49,11.122 24.73,11.345 24.929,11.603C24.958,11.641 25.004,11.664 25.052,11.664C25.125,11.664 25.189,11.612 25.204,11.54C25.226,11.424 25.237,11.306 25.237,11.188C25.237,10.195 24.447,9.366 23.455,9.32ZM7.717,9.32C8.163,9.222 8.628,9.277 9.039,9.475L8.976,9.475C7.852,9.476 6.927,10.401 6.927,11.525C6.927,12.288 7.353,12.99 8.03,13.343C8.06,13.358 8.079,13.389 8.079,13.423C8.079,13.472 8.038,13.513 7.989,13.513C7.988,13.513 7.988,13.513 7.987,13.513C6.803,13.512 5.83,12.538 5.83,11.354C5.83,11.347 5.83,11.341 5.83,11.334C5.864,10.904 6.01,10.49 6.254,10.134C6.644,9.716 7.156,9.43 7.717,9.317L7.717,9.32ZM21.56,8.861C21.56,8.861 21.56,8.861 21.56,8.861C21.56,8.895 21.532,8.923 21.498,8.923C21.474,8.923 21.452,8.91 21.442,8.888C20.959,7.951 19.866,7.486 18.856,7.788C18.802,7.804 18.764,7.854 18.764,7.91C18.764,7.923 18.766,7.936 18.77,7.948C18.876,8.262 18.923,8.593 18.908,8.924C18.907,8.96 18.877,8.989 18.841,8.989C18.81,8.989 18.783,8.968 18.776,8.938C18.383,7.537 17.096,6.562 15.641,6.562C14.176,6.562 12.883,7.551 12.499,8.965C12.489,9.003 12.454,9.029 12.415,9.029C12.368,9.029 12.329,8.992 12.328,8.945L12.328,8.733C12.39,6.874 13.94,5.38 15.8,5.386C16.936,5.367 18.014,5.898 18.691,6.811C18.706,6.832 18.733,6.841 18.757,6.833C18.976,6.767 19.204,6.736 19.432,6.741C19.442,6.741 19.452,6.741 19.462,6.741C20.614,6.741 21.562,7.689 21.562,8.841C21.562,8.845 21.562,8.849 21.562,8.853L21.56,8.861Z" style="fill:rgb(175,98,241);fill-rule:nonzero;"/>
        </g>
        <g transform="matrix(1,0,0,1,-1.344,0)">
            <path d="M27.154,23.146C27.181,23.648 26.953,24.131 26.548,24.429C26.813,24.146 26.954,23.768 26.939,23.381C26.939,21.921 26.039,20.237 24.045,18.703C24.403,20.302 24.334,21.967 23.845,23.53C23.8,23.673 23.751,23.815 23.699,23.954C22.364,27.596 18.877,30.032 14.997,30.032C9.913,30.032 5.729,25.849 5.729,20.764C5.729,20.07 5.807,19.377 5.962,18.7C3.962,20.234 3.068,21.918 3.068,23.378C3.053,23.765 3.194,24.143 3.459,24.426C3.054,24.128 2.826,23.645 2.853,23.143C2.853,21.523 3.874,19.643 6.162,17.956C6.262,17.882 6.362,17.81 6.462,17.737C6.493,17.716 6.53,17.704 6.568,17.704C6.67,17.704 6.755,17.789 6.755,17.891C6.755,17.913 6.751,17.934 6.744,17.954C6.715,18.035 6.688,18.115 6.661,18.196C6.394,19.016 6.259,19.872 6.261,20.734C6.345,25.444 10.29,29.251 15,29.169C18.82,29.214 22.244,26.741 23.4,23.1C23.451,22.933 23.497,22.763 23.536,22.59C23.872,21.138 23.805,19.621 23.344,18.204C23.318,18.122 23.29,18.042 23.261,17.962C23.253,17.941 23.25,17.92 23.25,17.898C23.25,17.795 23.334,17.711 23.437,17.711C23.475,17.711 23.512,17.722 23.543,17.744C23.647,17.817 23.749,17.89 23.849,17.963C26.133,19.647 27.154,21.526 27.154,23.146Z" style="fill-rule:nonzero;"/>
        </g>
        <g transform="matrix(1,0,0,1,-1.344,0)">
            <path d="M27.154,23.146C27.181,23.648 26.953,24.131 26.548,24.429C26.813,24.146 26.954,23.768 26.939,23.381C26.939,21.921 26.039,20.237 24.045,18.703C24.403,20.302 24.334,21.967 23.845,23.53C23.8,23.673 23.751,23.815 23.699,23.954C22.364,27.596 18.877,30.032 14.997,30.032C9.913,30.032 5.729,25.849 5.729,20.764C5.729,20.07 5.807,19.377 5.962,18.7C3.962,20.234 3.068,21.918 3.068,23.378C3.053,23.765 3.194,24.143 3.459,24.426C3.054,24.128 2.826,23.645 2.853,23.143C2.853,21.523 3.874,19.643 6.162,17.956C6.262,17.882 6.362,17.81 6.462,17.737C6.493,17.716 6.53,17.704 6.568,17.704C6.67,17.704 6.755,17.789 6.755,17.891C6.755,17.913 6.751,17.934 6.744,17.954C6.715,18.035 6.688,18.115 6.661,18.196C6.394,19.016 6.259,19.872 6.261,20.734C6.345,25.444 10.29,29.251 15,29.169C18.82,29.214 22.244,26.741 23.4,23.1C23.451,22.933 23.497,22.763 23.536,22.59C23.872,21.138 23.805,19.621 23.344,18.204C23.318,18.122 23.29,18.042 23.261,17.962C23.253,17.941 23.25,17.92 23.25,17.898C23.25,17.795 23.334,17.711 23.437,17.711C23.475,17.711 23.512,17.722 23.543,17.744C23.647,17.817 23.749,17.89 23.849,17.963C26.133,19.647 27.154,21.526 27.154,23.146Z" style="fill-rule:nonzero;"/>
        </g>
        <g transform="matrix(1,0,0,1,-1.344,0)">
            <path d="M27.774,13.833C27.732,13.852 27.704,13.894 27.704,13.94C27.704,13.968 27.714,13.996 27.733,14.017C28.305,14.662 28.621,15.496 28.621,16.358C28.621,17.558 28.009,18.678 27,19.327C26.854,19.108 26.7,18.889 26.536,18.671C27.38,18.092 27.885,17.132 27.885,16.109C27.885,15.173 27.462,14.286 26.736,13.696C26.696,13.662 26.673,13.613 26.673,13.561C26.673,13.488 26.718,13.423 26.785,13.396C31.073,11.801 28.985,6.363 25.136,7.83C25.116,7.838 25.095,7.841 25.074,7.841C24.977,7.841 24.897,7.761 24.897,7.664C24.897,7.65 24.898,7.635 24.902,7.621C25.524,5.136 23.422,2.812 20.202,4.327C20.179,4.338 20.153,4.344 20.127,4.344C20.047,4.344 19.977,4.289 19.957,4.212C18.682,-0.688 10.508,-1.352 10.066,6.389C10.061,6.483 9.983,6.557 9.889,6.557C9.872,6.557 9.854,6.554 9.837,6.549C5.721,5.245 1.151,9.1 3.913,14.232C3.927,14.258 3.934,14.286 3.934,14.316C3.934,14.407 3.863,14.484 3.772,14.492C3.762,14.492 3.752,14.492 3.742,14.492C2.791,14.492 2.009,15.274 2.009,16.225C2.009,17.175 2.791,17.958 3.742,17.958C3.853,17.958 3.963,17.947 4.072,17.926C3.901,18.126 3.738,18.328 3.582,18.531C3.577,18.531 3.572,18.531 3.566,18.531C2.373,18.531 1.39,17.549 1.39,16.355C1.39,15.438 1.97,14.615 2.834,14.306C2.881,14.29 2.913,14.245 2.913,14.195C2.913,14.177 2.908,14.159 2.9,14.142C2.469,13.32 2.243,12.405 2.243,11.476C2.243,8.327 4.834,5.736 7.983,5.736C8.369,5.736 8.753,5.775 9.131,5.852C9.138,5.853 9.146,5.854 9.153,5.854C9.217,5.854 9.27,5.801 9.27,5.737C9.27,5.737 9.27,5.737 9.27,5.737C9.273,2.592 11.862,0.006 15.007,0.006C17.279,0.006 19.347,1.356 20.26,3.437C20.278,3.479 20.319,3.507 20.365,3.507C20.384,3.507 20.402,3.502 20.419,3.493C20.922,3.231 21.482,3.094 22.049,3.094C23.985,3.094 25.579,4.688 25.579,6.624C25.579,6.751 25.573,6.878 25.559,7.004C25.559,7.008 25.558,7.013 25.558,7.017C25.558,7.081 25.611,7.134 25.675,7.134C25.682,7.134 25.689,7.133 25.696,7.132C25.921,7.088 26.149,7.065 26.378,7.065C28.315,7.065 29.909,8.659 29.909,10.596C29.909,12.004 29.068,13.282 27.776,13.839L27.774,13.833Z" style="fill-rule:nonzero;"/>
        </g>
        <g transform="matrix(1,0,0,1,-1.344,0)">
            <path d="M25.427,13.5C25.434,13.483 25.45,13.472 25.468,13.472C25.493,13.472 25.513,13.493 25.513,13.517C25.513,13.52 25.513,13.522 25.513,13.524C25.19,15.174 23.731,16.376 22.05,16.376C21.29,16.376 20.55,16.131 19.941,15.677L19.92,15.662C19.863,15.619 19.78,15.628 19.734,15.683C19.321,16.158 18.721,16.431 18.092,16.431C17.403,16.431 16.754,16.104 16.344,15.551C16.316,15.513 16.272,15.491 16.225,15.491C16.165,15.491 16.111,15.527 16.088,15.582C15.541,16.895 14.251,17.755 12.828,17.755C11.498,17.755 10.275,17.003 9.676,15.815C9.65,15.768 9.591,15.75 9.543,15.774C9.05,16.025 8.503,16.153 7.95,16.147C6.54,16.147 5.26,15.303 4.705,14.007C4.701,14 4.699,13.993 4.699,13.986C4.699,13.961 4.719,13.941 4.744,13.941C4.759,13.941 4.774,13.95 4.782,13.964C5.492,15.015 6.681,15.646 7.95,15.645C8.559,15.674 9.163,15.531 9.694,15.232C9.719,15.218 9.746,15.21 9.775,15.21C9.833,15.21 9.886,15.242 9.915,15.292C9.952,15.359 9.994,15.432 10.021,15.475C11.575,17.991 14.733,17.975 15.965,14.596C15.986,14.536 16.043,14.496 16.106,14.496C16.163,14.496 16.214,14.528 16.24,14.578C17.094,16.26 18.58,16.543 19.522,15.31C19.559,15.262 19.595,15.21 19.63,15.158C19.663,15.108 19.719,15.078 19.778,15.078C19.816,15.078 19.853,15.09 19.884,15.113L19.897,15.122C20.519,15.576 21.269,15.821 22.039,15.821C23.537,15.821 24.887,14.895 25.427,13.498L25.427,13.5Z" style="fill-rule:nonzero;"/>
        </g>
        <g transform="matrix(1,0,0,1,-1.344,0)">
            <path d="M28.663,23.77C28.663,26.225 26.626,26.849 25.245,26.1C24.511,25.57 23.968,24.817 23.695,23.954C23.571,23.642 23.472,23.345 23.395,23.096C23.446,22.929 23.492,22.759 23.531,22.586C23.616,22.906 23.719,23.221 23.839,23.53C24.065,24.265 24.523,24.908 25.145,25.361C25.435,25.528 25.763,25.615 26.097,25.615C27.144,25.615 28.005,24.754 28.005,23.707C28.005,23.613 27.998,23.519 27.984,23.425C27.984,21.637 26.111,18.296 23.315,16.139C23.158,16.017 22.998,15.899 22.835,15.786L22.776,15.746C22.989,15.702 23.197,15.639 23.398,15.557C23.545,15.666 23.69,15.777 23.831,15.89C26.9,18.344 28.663,21.691 28.663,23.77Z" style="fill-rule:nonzero;"/>
        </g>
        <g transform="matrix(1,0,0,1,-1.344,0)">
            <path d="M7.431,15.609C7.343,15.667 7.256,15.726 7.17,15.786C7.077,15.851 6.985,15.917 6.894,15.986C3.985,18.135 2.02,21.595 2.02,23.426C2.006,23.52 1.999,23.614 1.999,23.709C1.999,24.756 2.86,25.617 3.907,25.617C4.241,25.617 4.57,25.529 4.86,25.362C5.482,24.909 5.94,24.266 6.166,23.53C6.285,23.221 6.388,22.906 6.474,22.586C6.514,22.759 6.559,22.929 6.61,23.096C6.535,23.345 6.436,23.642 6.31,23.954C6.038,24.817 5.495,25.57 4.762,26.1C3.38,26.849 1.344,26.225 1.344,23.77C1.344,21.654 3.168,18.222 6.344,15.758C6.477,15.654 6.613,15.552 6.752,15.452C6.973,15.526 7.2,15.578 7.431,15.609Z" style="fill-rule:nonzero;"/>
        </g>
        <g transform="matrix(1,0,0,1,-1.344,0)">
            <path d="M21.557,8.939C21.554,8.967 21.53,8.988 21.502,8.988C21.477,8.988 21.455,8.97 21.449,8.946C21.242,7.917 20.33,7.169 19.28,7.167C19.18,7.168 19.08,7.175 18.98,7.187C18.853,7.204 18.729,7.232 18.607,7.271C18.489,7.308 18.36,7.268 18.283,7.171C18.241,7.121 18.199,7.071 18.155,7.026C17.487,6.302 16.546,5.89 15.561,5.89C14.541,5.89 13.57,6.332 12.9,7.1C12.89,7.111 12.875,7.118 12.86,7.118C12.83,7.118 12.805,7.093 12.805,7.063C12.805,7.054 12.807,7.045 12.811,7.037C13.444,5.958 14.605,5.292 15.857,5.292C16.921,5.292 17.93,5.773 18.6,6.6C18.675,6.689 18.795,6.728 18.908,6.7C19.066,6.664 19.228,6.646 19.39,6.646C20.55,6.646 21.517,7.574 21.564,8.733C21.561,8.8 21.561,8.872 21.557,8.939Z" style="fill-rule:nonzero;"/>
        </g>
        <g transform="matrix(1,0,0,1,-1.344,0)">
            <path d="M25.753,12.168C25.791,11.981 25.806,11.789 25.797,11.598C25.744,10.338 24.693,9.33 23.432,9.33C23.275,9.33 23.117,9.346 22.963,9.377C22.958,9.378 22.952,9.379 22.947,9.379C22.912,9.379 22.883,9.35 22.883,9.315C22.883,9.291 22.897,9.269 22.918,9.258C23.238,9.083 23.597,8.991 23.962,8.991C25.156,8.991 26.139,9.974 26.139,11.168C26.139,11.533 26.047,11.893 25.872,12.213C25.861,12.234 25.839,12.248 25.815,12.248C25.78,12.248 25.751,12.219 25.751,12.184C25.751,12.179 25.752,12.173 25.753,12.168Z" style="fill-rule:nonzero;"/>
        </g>
        <g transform="matrix(1,0,0,1,-1.344,0)">
            <path d="M6.2,12.335C6.163,12.147 6.148,11.956 6.156,11.765C6.212,10.504 7.264,9.498 8.526,9.498C8.681,9.498 8.836,9.513 8.988,9.543C8.992,9.544 8.995,9.544 8.999,9.544C9.034,9.544 9.063,9.515 9.063,9.48C9.063,9.457 9.051,9.437 9.032,9.425C8.712,9.25 8.353,9.158 7.988,9.158C6.794,9.158 5.812,10.14 5.812,11.334C5.812,11.699 5.904,12.059 6.079,12.379C6.088,12.404 6.112,12.421 6.139,12.421C6.175,12.421 6.204,12.392 6.204,12.357C6.204,12.349 6.203,12.342 6.2,12.335Z" style="fill-rule:nonzero;"/>
        </g>
    </g>
</svg>
