<svg xmlns="http://www.w3.org/2000/svg" viewBox="0 0 721 125"><path fill="#fec08d" d="M86.225 62.335c17.371 10.134 26.333 26.471 26.333 36.7s-7.212 11.559-12.97 8.438c-5.871-3.183-8.446-14.058-8.446-14.058z"/><path fill="#fb9b7a" d="M89.496 78.902a3.4 3.4 0 0 1-.048-.567 3.383 3.383 0 0 1 3.366-3.367 3.37 3.37 0 0 1 2.099.734c8.716 6.804 12.5 14.267 12.5 20.733q.005.136.005.272c0 3.456-2.844 6.3-6.3 6.3a6.3 6.3 0 0 1-3.635-1.155 14.06 14.06 0 0 1-5.558-9.358z"/><path fill="#fec08d" d="M28.875 61.065C11.504 71.198 1.271 88.806 1.271 99.035c0 10.23 7.212 11.559 12.971 8.459 5.87-3.184 7.175-14.059 7.175-14.059z"/><path fill="#fb9b7a" d="M24.533 77.785q.044-.25.044-.502a2.93 2.93 0 0 0-2.917-2.917c-.603 0-1.192.187-1.685.536C10.567 81.915 6.483 89.71 6.483 96.435a7 7 0 0 0-.008.326c0 3.428 2.821 6.25 6.25 6.25a6.25 6.25 0 0 0 3.625-1.159 14.05 14.05 0 0 0 5.55-9.358z"/><path fill="#dd9a63" d="M113.07 98.977c0 10.233-7.85 11.558-13.609 8.438a13.3 13.3 0 0 1-4.816-5.417 31 31 0 0 1-1.638-3.517 31.8 31.8 0 0 0 2.392-12.133 38.7 38.7 0 0 0-1.279-9.888h.316a40 40 0 0 1 2.405 13.7c0 2.426-.218 4.847-.65 7.234a12.7 12.7 0 0 0 4.545 4.941 7.95 7.95 0 0 0 4.321 1.278 7.955 7.955 0 0 0 7.371-4.986c.004.117.642.233.642.35M89.317 66.66a42 42 0 0 0-2.75-3.379l-.342-2.225c.833.492 1.667.996 2.471 1.521z"/><path fill="#fec08d" d="M94.817 86.398q.005.325.005.65c0 20.368-16.721 37.147-37.089 37.217-20.773 0-37.866-17.094-37.866-37.867S36.96 48.531 57.733 48.531c20.368.07 37.089 16.848 37.089 37.217q0 .324-.005.65"/><path fill="#dd9a63" d="M93.704 67.494a10.7 10.7 0 0 1-7.437 3.291 14.6 14.6 0 0 1-8.534-2.737 1.06 1.06 0 0 0-1.4.15 9.22 9.22 0 0 1-6.566 3.496 9.07 9.07 0 0 1-6.842-3.75.98.98 0 0 0-1.667.237 15.36 15.36 0 0 1-13.416 9.438 15.62 15.62 0 0 1-12.984-8.909.76.76 0 0 0-.995-.337 15.2 15.2 0 0 1-6.338 1.204 8.87 8.87 0 0 1-5.862-2.312c-.084-.567 3.7-5.034 13.191-8.538a124 124 0 0 1 26.404-1.467c8.829.454 18.75 1.15 25.834 9.43l4.871-1.038c1.187.388 2.02 1.225 1.741 1.842"/><path fill="#dd9a63" d="M94.25 86.398q.01.441.011.882c0 20.009-16.466 36.475-36.475 36.475q-.444 0-.886-.011a36 36 0 0 1-.873.01c-20.01 0-36.475-16.465-36.475-36.475q0-.436.01-.873a38.7 38.7 0 0 1 1.28-9.887H21.9a34 34 0 0 0-.417 5.183c.252 19.177 16.24 34.751 35.417 34.5q.228.003.457.003c19.01 0 34.714-15.503 34.96-34.511a34 34 0 0 0-.396-5.184h1.05a38.7 38.7 0 0 1 1.279 9.888"/><path fill="#fee4ce" d="M91.004 74.135h-.006c-.946 0-1.725.779-1.725 1.725q0 .238.065.467c.9 3.281 1.35 6.669 1.337 10.071 0 20.292-15.117 36.746-33.75 36.746s-33.75-16.454-33.75-36.746a37.5 37.5 0 0 1 1.338-10.071q.064-.229.064-.467c0-.946-.779-1.725-1.725-1.725h-.006a1.73 1.73 0 0 0-1.667 1.217 37.5 37.5 0 0 0-1.596 11.046q-.01.44-.01.881c0 20.009 16.465 36.475 36.475 36.475q.426 0 .852-.01.434.01.869.01c20.009 0 36.475-16.465 36.475-36.475q0-.436-.011-.873a37.6 37.6 0 0 0-1.591-11.046 1.735 1.735 0 0 0-1.638-1.225"/><path fill="#fee4ce" d="M112.43 98.977c0 9.233-5.637 10.979-11.216 9.167 4.919-.866 8.353-5.481 7.77-10.442 0-10.637-8.312-22.258-22.083-31.45l-.796-3.971c17.363 10.134 26.325 26.463 26.325 36.696"/><path fill="#dd9a63" d="M.767 98.977c0 10.233 7.85 11.558 13.604 8.438a13.3 13.3 0 0 0 4.817-5.417 32 32 0 0 0 1.641-3.517 31.7 31.7 0 0 1-2.392-12.133 38.5 38.5 0 0 1 1.28-9.888H19.4a40.2 40.2 0 0 0-1.754 20.934 12.77 12.77 0 0 1-4.546 4.941 7.94 7.94 0 0 1-4.322 1.278 7.96 7.96 0 0 1-7.374-4.986c0 .117-.637.233-.637.35"/><path fill="#fee4ce" d="M1.4 98.977c0 9.233 5.642 10.979 11.221 9.167-4.919-.868-8.352-5.481-7.771-10.442 0-10.637 8.333-22.258 22.083-31.45l.8-3.971C10.363 72.415 1.4 88.744 1.4 98.977"/><circle cx="80.742" cy="77.148" r="5.438"/><path fill="#fff" d="m77.908 77.127-2.166 2.208a5.45 5.45 0 0 1 0-4.375z"/><circle cx="33.067" cy="77.148" r="5.438"/><path fill="#fff" d="m30.233 77.127-2.166 2.208a5.45 5.45 0 0 1 0-4.375z"/><circle cx="78.975" cy="91.902" r="3.675" fill="#fb9b7a"/><circle cx="34.854" cy="91.785" r="3.675" fill="#fb9b7a"/><path fill="#fb9b7a" d="M63.983 92.077a10.3 10.3 0 0 1-3.333 2.996 9 9 0 0 1-3.75.833 9.1 9.1 0 0 1-3.75-.833 10.2 10.2 0 0 1-3.333-2.996c1.718-2.153 4.328-3.41 7.083-3.41s5.365 1.257 7.083 3.41"/><circle cx="55.075" cy="91.902" r="1.838" fill="#fff"/><path d="M70.6 104.76a9.066 9.066 0 0 1-13.7 3.454 9.06 9.06 0 0 1-13.683-3.454 11.54 11.54 0 0 0 7.712 2.917h.284c2.936-.075 5.31-2.511 5.31-5.448a5.46 5.46 0 0 0-2.59-4.64l-.154-.095a7.2 7.2 0 0 1-1.404-1.03 9.3 9.3 0 0 1-2.562-4.425 9.05 9.05 0 0 0 3.333 2.605 9 9 0 0 0 2.117.662 9.2 9.2 0 0 0 3.262 0 9 9 0 0 0 2.121-.662 9.1 9.1 0 0 0 3.333-2.6 9.25 9.25 0 0 1-2.562 4.42 7 7 0 0 1-1.405 1.034l-.158.096a5.46 5.46 0 0 0-2.58 4.635c0 2.937 2.373 5.374 5.309 5.452h.284a11.5 11.5 0 0 0 7.733-2.921"/><path fill="#762dd7" d="M108.21 57.91a15.3 15.3 0 0 1 4.604 10.35 14.95 14.95 0 0 1-7.204 12.284 63.8 63.8 0 0 0-13.18-14.321 10 10 0 0 1-6.166 1.383 15.25 15.25 0 0 1-9.3-3.95 9.81 9.81 0 0 1-7.184 4.304 9.82 9.82 0 0 1-7.916-5.416A15.34 15.34 0 0 1 47.86 73.377a13.88 13.88 0 0 1-12.813-8.333 16.75 16.75 0 0 1-7.5 1.771 12 12 0 0 1-5.417-1.105 51 51 0 0 0-2.5 2.084q-.779.675-1.533 1.366a59.6 59.6 0 0 0-7.275 7.725H9.397l-.155.002c-4.307 0-7.85-3.544-7.85-7.85q0-.41.043-.818a9.09 9.09 0 0 1 6.566-8.717A23.76 23.76 0 0 1 4.98 47.869q-.02-.468-.02-.935c0-11.952 9.836-21.787 21.788-21.787q.44 0 .878.018c2.236 0 4.468.204 6.667.608v-1.879a22 22 0 0 1-.017-.858c0-11.952 9.835-21.787 21.787-21.787q.417 0 .834.016c9.654.004 18.398 5.856 22.083 14.779a14.63 14.63 0 0 1 7.255-1.909q.415-.027.831-.027c6.928 0 12.629 5.701 12.629 12.629q0 .417-.027.832c0 .771-.058 2.796-.171 3.533a27.5 27.5 0 0 1 4.788-.417q.42-.028.843-.028c6.929 0 12.63 5.701 12.63 12.629q0 .415-.028.829a14.74 14.74 0 0 1-9.52 13.795"/><path fill="#af62f1" d="M92.129 38.827h-.531a.253.253 0 0 1-.156-.454 10.99 10.99 0 0 0 4.208-8.617c-.111-6.227-5.327-11.26-11.554-11.15a11.8 11.8 0 0 0-5.996 1.617 1.556 1.556 0 0 1-2.3-.938c-1.752-8.42-9.03-14.64-17.621-15.058-10.158 0-18.396 9.467-18.396 21.146q-.001 1.464.175 2.917.013.11.013.221c0 1.04-.856 1.895-1.896 1.895-.25 0-.498-.049-.729-.146a19 19 0 0 0-7.304-1.46c-10.423 0-19 8.577-19 19 0 2.961.692 5.881 2.021 8.527a.295.295 0 0 0 .562-.158 13.54 13.54 0 0 1 1.196-6.896.62.62 0 0 1 1.179.246c.273 7.018 6.118 12.644 13.142 12.65a13 13 0 0 0 3.75-.554.51.51 0 0 0 .362-.546 15 15 0 0 1-.108-1.821c0-.383 0-.763.042-1.138a.275.275 0 0 1 .537-.066 14.41 14.41 0 0 0 13.592 9.129c7.136.321 13.387-4.989 14.225-12.083a.255.255 0 0 1 .253-.237c.106 0 .201.067.238.166a8.4 8.4 0 0 1 .509 3.462c-.01.1.005.2.046.292a7.87 7.87 0 0 0 7.179 4.65 8.42 8.42 0 0 0 8.383-5.442.309.309 0 0 1 .6.059q.098.669.1 1.345a9.2 9.2 0 0 1-.233 2.046.53.53 0 0 0 .233.567 11.54 11.54 0 0 0 6.135 1.767c6.327 0 11.533-5.206 11.533-11.533 0-2.163-.608-4.284-1.755-6.117a.394.394 0 0 1 .55-.53c1.13.75 2.129 1.681 2.958 2.755a.648.648 0 0 0 1.146-.263c.092-.483.139-.975.139-1.467 0-4.137-3.295-7.589-7.427-7.783m-65.575 0a8.5 8.5 0 0 1 5.508.646H31.8c-4.684.003-8.536 3.858-8.536 8.542a8.55 8.55 0 0 0 4.594 7.575.375.375 0 0 1-.171.708h-.008c-4.932-.004-8.988-4.064-8.988-8.996l.001-.083a10.3 10.3 0 0 1 1.766-5 11.43 11.43 0 0 1 6.096-3.404zm57.679-1.912a.257.257 0 0 1-.491.111c-2.013-3.906-6.565-5.842-10.775-4.583a.53.53 0 0 0-.359.666 11.1 11.1 0 0 1 .575 4.067.28.28 0 0 1-.55.058c-1.638-5.836-6.999-9.899-13.061-9.899-6.105 0-11.493 4.121-13.093 10.012a.363.363 0 0 1-.712-.083v-.884c.259-7.746 6.716-13.97 14.466-13.946a14.71 14.71 0 0 1 12.046 5.938.25.25 0 0 0 .275.092 9.1 9.1 0 0 1 2.813-.384l.125-.001c4.8 0 8.75 3.95 8.75 8.75v.051z"/><path d="M107.54 96.435a6.22 6.22 0 0 1-2.525 5.346 6.03 6.03 0 0 0 1.629-4.366c0-6.084-3.75-13.1-12.058-19.492a38.9 38.9 0 0 1-.834 20.112 34 34 0 0 1-.608 1.767c-5.563 15.177-20.093 25.326-36.258 25.326-21.184 0-38.616-17.432-38.616-38.616 0-2.895.325-5.78.97-8.602-8.334 6.392-12.059 13.409-12.059 19.492a6.03 6.03 0 0 0 1.63 4.367 6.22 6.22 0 0 1-2.525-5.346c-.001-6.75 4.254-14.583 13.787-21.613.417-.308.833-.608 1.25-.912a.8.8 0 0 1 .441-.137.783.783 0 0 1 .734 1.041 34 34 0 0 0-2.013 11.583c.352 19.627 16.786 35.49 36.413 35.146 15.915.19 30.181-10.118 35-25.287q.321-1.046.567-2.125a34.2 34.2 0 0 0-1.146-19.284.783.783 0 0 1 1.175-.908q.65.459 1.275.913c9.517 7.016 13.771 14.845 13.771 21.595"/><path d="M107.54 96.435a6.22 6.22 0 0 1-2.525 5.346 6.03 6.03 0 0 0 1.629-4.366c0-6.084-3.75-13.1-12.058-19.492a38.9 38.9 0 0 1-.834 20.112 34 34 0 0 1-.608 1.767c-5.563 15.177-20.093 25.326-36.258 25.326-21.184 0-38.616-17.432-38.616-38.616 0-2.895.325-5.78.97-8.602-8.334 6.392-12.059 13.409-12.059 19.492a6.03 6.03 0 0 0 1.63 4.367 6.22 6.22 0 0 1-2.525-5.346c-.001-6.75 4.254-14.583 13.787-21.613.417-.308.833-.608 1.25-.912a.8.8 0 0 1 .441-.137.783.783 0 0 1 .734 1.041 34 34 0 0 0-2.013 11.583c.352 19.627 16.786 35.49 36.413 35.146 15.915.19 30.181-10.118 35-25.287q.321-1.046.567-2.125a34.2 34.2 0 0 0-1.146-19.284.783.783 0 0 1 1.175-.908q.65.459 1.275.913c9.517 7.016 13.771 14.845 13.771 21.595"/><path d="M110.12 57.631a.488.488 0 0 0-.171.767 14.707 14.707 0 0 1-3.054 22.125 58 58 0 0 0-1.933-2.733 12.96 12.96 0 0 0 5.62-10.676 12.96 12.96 0 0 0-4.787-10.054.737.737 0 0 1 .204-1.25c17.867-6.645 9.167-29.304-6.871-23.191a.74.74 0 0 1-.975-.871c2.592-10.354-6.166-20.038-19.583-13.725a.735.735 0 0 1-1.021-.479C72.237-2.873 38.178-5.64 36.337 26.615a.74.74 0 0 1-.955.666C18.233 21.848-.809 37.91 10.699 59.294a.74.74 0 0 1-.587 1.083l-.126-.001c-3.961 0-7.221 3.26-7.221 7.221s3.26 7.221 7.221 7.221q.694 0 1.376-.133a63 63 0 0 0-2.042 2.521h-.065c-4.974 0-9.067-4.092-9.067-9.066a9.085 9.085 0 0 1 6.015-8.538.488.488 0 0 0 .275-.683 23.9 23.9 0 0 1-2.736-11.108c0-13.12 10.797-23.917 23.917-23.917 1.606 0 3.208.162 4.782.483a.49.49 0 0 0 .579-.479C33.034 10.794 43.821.02 56.924.02a23.94 23.94 0 0 1 21.888 14.295.476.476 0 0 0 .662.233 14.7 14.7 0 0 1 6.792-1.662c8.068 0 14.708 6.639 14.708 14.708a14 14 0 0 1-.083 1.583.49.49 0 0 0 .571.533 14.7 14.7 0 0 1 2.842-.277c8.071 0 14.712 6.642 14.712 14.713a14.74 14.74 0 0 1-8.888 13.51z"/><path d="M100.35 56.244a.19.19 0 0 1 .173-.115c.103 0 .187.085.187.187l-.002.028c-1.344 6.876-7.425 11.884-14.431 11.884a14.7 14.7 0 0 1-8.785-2.913l-.088-.063a.57.57 0 0 0-.775.088 9.07 9.07 0 0 1-6.842 3.117 9.07 9.07 0 0 1-7.283-3.667.618.618 0 0 0-1.067.129 14.74 14.74 0 0 1-13.581 9.055 14.73 14.73 0 0 1-13.135-8.084.42.42 0 0 0-.554-.171 14.3 14.3 0 0 1-6.638 1.554 14.73 14.73 0 0 1-13.521-8.917.184.184 0 0 1 .161-.273c.066 0 .128.036.16.094a15.93 15.93 0 0 0 13.2 7.004 13.5 13.5 0 0 0 7.267-1.721.67.67 0 0 1 .921.25c.154.28.329.584.441.763 6.475 10.483 19.634 10.417 24.767-3.663a.627.627 0 0 1 1.146-.075c3.558 7.009 9.75 8.188 13.675 3.05.154-.2.304-.416.45-.633a.74.74 0 0 1 1.058-.187l.054.037a15.14 15.14 0 0 0 8.926 2.912 15.16 15.16 0 0 0 14.116-9.679z"/><path d="M113.83 99.035c0 10.23-8.487 12.83-14.241 9.709a17.56 17.56 0 0 1-6.459-8.942 49 49 0 0 1-1.25-3.575q.321-1.045.567-2.125a38 38 0 0 0 1.283 3.933 14.83 14.83 0 0 0 5.442 7.63 7.95 7.95 0 0 0 3.967 1.06c4.361 0 7.95-3.589 7.95-7.95q0-.592-.088-1.177c0-7.45-7.804-21.371-19.454-30.358a48 48 0 0 0-2-1.471l-.246-.167a15 15 0 0 0 2.592-.787q.92.683 1.804 1.387c12.787 10.225 20.133 24.171 20.133 32.833M25.363 65.031q-.55.363-1.088.738-.581.405-1.15.833c-12.121 8.954-20.308 23.371-20.308 31a8 8 0 0 0-.088 1.18c0 4.361 3.588 7.95 7.95 7.95a7.95 7.95 0 0 0 3.971-1.063c2.59-1.89 4.5-4.569 5.442-7.634a39 39 0 0 0 1.283-3.933q.25 1.083.567 2.125a42 42 0 0 1-1.25 3.575 17.57 17.57 0 0 1-6.45 8.942C8.483 111.865 0 109.265 0 99.035c0-8.816 7.6-23.116 20.833-33.383a59 59 0 0 1 1.7-1.275c.921.307 1.868.526 2.829.654zM84.221 37.24a.23.23 0 0 1-.45.029c-.864-4.289-4.663-7.404-9.038-7.413q-.627.006-1.25.084a8.7 8.7 0 0 0-1.554.35 1.25 1.25 0 0 1-1.35-.417c-.175-.208-.35-.417-.533-.604a14.72 14.72 0 0 0-10.81-4.732 14.72 14.72 0 0 0-11.086 5.04.23.23 0 0 1-.371-.262 14.73 14.73 0 0 1 12.691-7.27 14.72 14.72 0 0 1 11.43 5.449c.313.371.812.533 1.283.416a9 9 0 0 1 2.008-.225c4.834 0 8.861 3.866 9.059 8.696-.012.279-.012.579-.029.859M101.7 50.694c.158-.781.22-1.579.184-2.375-.22-5.25-4.6-9.45-9.854-9.45q-.987 0-1.955.196a.268.268 0 0 1-.333-.259c0-.1.057-.192.146-.237a9.1 9.1 0 0 1 4.35-1.111c4.976 0 9.071 4.094 9.071 9.07a9.1 9.1 0 0 1-1.113 4.353.267.267 0 0 1-.496-.187m-81.467.696a10.2 10.2 0 0 1-.183-2.375c.232-5.253 4.616-9.448 9.874-9.448.646 0 1.292.063 1.926.189a.268.268 0 0 0 .314-.262.27.27 0 0 0-.131-.229 9.06 9.06 0 0 0-4.351-1.113c-4.974 0-9.067 4.093-9.067 9.067 0 1.522.383 3.019 1.114 4.354a.269.269 0 0 0 .52-.092.3.3 0 0 0-.016-.091"/><path fill="#762dd7" d="M143.27 97.75v-70.5h43v10.3h-30.4v19.9h28.6v10.3h-28.6v30zm52.1-59.8v-12.4h13.9v12.4zm.8 59.8v-49.4h12.4v49.4zm19.5 0 19.5-28.5.2 6.4-18.8-27.3h14.1l11.4 17.9h-2.5l11.6-17.9h13.8l-18.8 27.2.2-6.1 19.5 28.3h-14.1l-12.2-19.1h2.3l-12.3 19.1zm84.8-70.5h12.6v70.5h-12.6zm27 70.5v-49.4h11.7v9.6h-.4q2.1-4.9 6.35-7.75t9.85-2.85q5.2 0 8.8 2.1c3.6 2.1 4.2 3.517 5.4 6.35s1.8 6.417 1.8 10.75v31.2h-12.4v-30.4q0-3.5-.85-5.7t-2.65-3.2c-1.8-1-2.667-1-4.4-1q-3.1 0-5.55 1.4t-3.85 4.05-1.4 6.05v28.8zm68.6 0-19-49.4h13.1l12.8 38.1h-1.8l13-38.1h12.5l-19.1 49.4zm59.4 1q-8.1 0-13.8-3c-5.7-3-6.7-4.9-8.7-8.7s-3-8.433-3-13.9q0-7.7 2.85-13.5c2.85-5.8 4.583-6.883 8.05-9.05q5.199-3.25 12.3-3.25 6.7 0 11.45 2.95t7.25 8.45 2.5 13.4v4.3h-34.4v-7.7h25.5l-1.5 1.7q0-7.5-2.7-10.9c-2.7-3.4-4.4-3.4-7.8-3.4q-3.7 0-6.3 1.75-2.601 1.75-4.05 5.2-1.45 3.45-1.45 8.65v2q0 5.4 1.6 8.75t4.75 5c3.15 1.65 4.716 1.65 7.85 1.65q3.699 0 7.35-1.05t6.65-3.55l3.6 8.5q-3.7 2.9-8.45 4.3t-9.55 1.4m29.5-1v-49.4h11.7v9.6h-.4q2.1-4.9 6.35-7.75t9.85-2.85q5.2 0 8.8 2.1c3.6 2.1 4.2 3.517 5.4 6.35s1.8 6.417 1.8 10.75v31.2h-12.4v-30.4q0-3.5-.85-5.7t-2.65-3.2c-1.8-1-2.667-1-4.4-1q-3.1 0-5.55 1.4t-3.85 4.05-1.4 6.05v28.8zm77.7 1q-9.2 0-13.75-4.7t-4.55-13.9v-22.2h-8.6v-9.6h8.9v-14.3h12.1v14.3h14.5v9.6h-14.5v21.6q0 4.7 2 6.8t6 2.1q1.5 0 3.15-.35c1.65-.35 2.116-.517 3.05-.85l1.8 9.3q-2.001 1.1-4.65 1.65t-5.45.55m38.3 0q-7.3 0-12.55-3.05c-5.25-3.05-6.2-4.983-8.1-8.85s-2.85-8.467-2.85-13.8q0-8.1 2.85-13.85c2.85-5.75 4.6-6.767 8.1-8.8s7.683-3.05 12.55-3.05q7.3 0 12.55 3.05c5.25 3.05 6.2 4.967 8.1 8.8s2.85 8.45 2.85 13.85q0 8-2.85 13.8c-2.85 5.8-4.6 6.817-8.1 8.85s-7.684 3.05-12.55 3.05m0-9.8q5.2 0 8.2-3.95c3-3.95 3-6.65 3-12.05s-.984-9.367-2.95-11.9q-2.95-3.8-8.25-3.8-5.301 0-8.25 3.8-2.95 3.8-2.95 11.9c0 8.1 1 9.417 3 12.05s4.733 3.95 8.2 3.95m34.3 8.8v-49.4h11.5v11.7h-.3q1.4-5.6 5.05-8.8t9.75-3.7l4.4-.4.9 10.9-7.7.7q-5.3.5-8.15 3.8c-2.85 3.3-2.85 5.2-2.85 9v26.2zm46.3 18 9.6-22.7v7.9l-20.5-52.6h13.2l12.7 37.8h-1.5l12.8-37.8h12.5l-26 67.4z"/></svg>