<svg xmlns="http://www.w3.org/2000/svg" viewBox="0 0 725 134"><path fill="#fec08d" d="M86.225 66.502c17.371 10.133 26.333 26.471 26.333 36.7s-7.212 11.558-12.97 8.438c-5.871-3.184-8.446-14.059-8.446-14.059z"/><path fill="#fb9b7a" d="M89.496 83.069a3.4 3.4 0 0 1-.048-.567 3.383 3.383 0 0 1 3.366-3.367 3.37 3.37 0 0 1 2.099.734c8.716 6.804 12.5 14.266 12.5 20.733q.005.136.005.271c0 3.456-2.844 6.3-6.3 6.3a6.3 6.3 0 0 1-3.635-1.154 14.06 14.06 0 0 1-5.558-9.359z"/><path fill="#fec08d" d="M28.875 65.231C11.504 75.365 1.271 92.973 1.271 103.202s7.212 11.558 12.971 8.458c5.87-3.183 7.175-14.058 7.175-14.058z"/><path fill="#fb9b7a" d="M24.533 81.952a3 3 0 0 0 .044-.503 2.93 2.93 0 0 0-2.917-2.916c-.603 0-1.192.187-1.685.536-9.408 7.012-13.492 14.808-13.492 21.533a7 7 0 0 0-.008.325c0 3.429 2.821 6.25 6.25 6.25a6.25 6.25 0 0 0 3.625-1.158 14.05 14.05 0 0 0 5.55-9.359z"/><path fill="#dd9a63" d="M113.07 103.14c0 10.233-7.85 11.558-13.609 8.437a13.3 13.3 0 0 1-4.816-5.416 31 31 0 0 1-1.638-3.517 31.8 31.8 0 0 0 2.392-12.133 38.7 38.7 0 0 0-1.279-9.888h.316a40 40 0 0 1 2.405 13.7c0 2.426-.218 4.847-.65 7.233a12.7 12.7 0 0 0 4.545 4.942 7.95 7.95 0 0 0 4.321 1.278 7.96 7.96 0 0 0 7.371-4.986c.004.116.642.233.642.35M89.317 70.827a42 42 0 0 0-2.75-3.379l-.342-2.225c.833.492 1.667.996 2.471 1.521z"/><path fill="#fec08d" d="M94.817 90.565q.005.324.005.65c0 20.368-16.721 37.146-37.089 37.216-20.773 0-37.866-17.093-37.866-37.866S36.96 52.698 57.733 52.698c20.368.07 37.089 16.848 37.089 37.216q0 .326-.005.651"/><path fill="#dd9a63" d="M93.704 71.66a10.7 10.7 0 0 1-7.437 3.292 14.6 14.6 0 0 1-8.534-2.737 1.057 1.057 0 0 0-1.4.15 9.22 9.22 0 0 1-6.566 3.495 9.07 9.07 0 0 1-6.842-3.75.98.98 0 0 0-.763-.365.98.98 0 0 0-.904.603 15.35 15.35 0 0 1-13.416 9.437 15.62 15.62 0 0 1-12.984-8.908.76.76 0 0 0-.995-.337 15.2 15.2 0 0 1-6.338 1.204 8.87 8.87 0 0 1-5.862-2.313c-.084-.566 3.7-5.033 13.191-8.537a124 124 0 0 1 26.404-1.467c8.829.454 18.75 1.15 25.834 9.429l4.871-1.037c1.187.387 2.02 1.225 1.741 1.841"/><path fill="#dd9a63" d="M94.25 90.565q.01.44.011.881c0 20.01-16.466 36.475-36.475 36.475q-.444 0-.886-.011-.436.01-.873.011c-20.01 0-36.475-16.466-36.475-36.475q0-.436.01-.873a38.7 38.7 0 0 1 1.28-9.888H21.9a34 34 0 0 0-.417 5.184c.252 19.177 16.24 34.751 35.417 34.5q.228.003.457.003c19.01 0 34.714-15.504 34.96-34.512a34 34 0 0 0-.396-5.183h1.05a38.7 38.7 0 0 1 1.279 9.888"/><path fill="#fee4ce" d="M91.004 78.302h-.006c-.946 0-1.725.779-1.725 1.725q0 .238.065.467c.9 3.281 1.35 6.669 1.337 10.071 0 20.291-15.117 36.745-33.75 36.745s-33.75-16.454-33.75-36.745a37.5 37.5 0 0 1 1.338-10.071q.064-.229.064-.467c0-.946-.779-1.725-1.725-1.725h-.006a1.725 1.725 0 0 0-1.667 1.217 37.5 37.5 0 0 0-1.596 11.046q-.01.44-.01.88c0 20.01 16.465 36.475 36.475 36.475q.426 0 .852-.01.434.01.869.011c20.009 0 36.475-16.466 36.475-36.475q0-.436-.011-.873a37.6 37.6 0 0 0-1.591-11.046 1.73 1.73 0 0 0-1.638-1.225"/><path fill="#fee4ce" d="M112.43 103.14c0 9.233-5.637 10.979-11.216 9.166 4.919-.866 8.353-5.48 7.77-10.441 0-10.638-8.312-22.259-22.083-31.45l-.796-3.971c17.363 10.133 26.325 26.462 26.325 36.696"/><path fill="#dd9a63" d="M.767 103.14c0 10.233 7.85 11.558 13.604 8.437a13.27 13.27 0 0 0 4.817-5.416 32 32 0 0 0 1.641-3.517 31.7 31.7 0 0 1-2.392-12.133 38.5 38.5 0 0 1 1.28-9.888H19.4a40.2 40.2 0 0 0-1.754 20.933 12.77 12.77 0 0 1-4.546 4.942 7.95 7.95 0 0 1-4.322 1.278 7.96 7.96 0 0 1-7.374-4.986c0 .116-.637.233-.637.35"/><path fill="#fee4ce" d="M1.4 103.14c0 9.233 5.642 10.979 11.221 9.166-4.919-.868-8.352-5.48-7.771-10.441 0-10.638 8.333-22.259 22.083-31.45l.8-3.971C10.363 76.577 1.4 92.906 1.4 103.14"/><circle cx="80.742" cy="81.315" r="5.438"/><path fill="#fff" d="m77.908 81.294-2.166 2.208a5.45 5.45 0 0 1 0-4.375z"/><circle cx="33.067" cy="81.315" r="5.438"/><path fill="#fff" d="m30.233 81.294-2.166 2.208a5.45 5.45 0 0 1 0-4.375z"/><circle cx="78.975" cy="96.069" r="3.675" fill="#fb9b7a"/><circle cx="34.854" cy="95.952" r="3.675" fill="#fb9b7a"/><path fill="#fb9b7a" d="M63.983 96.244a10.3 10.3 0 0 1-3.333 2.996 9 9 0 0 1-3.75.833 9.15 9.15 0 0 1-3.75-.833 10.2 10.2 0 0 1-3.333-2.996c1.718-2.154 4.328-3.41 7.083-3.41s5.365 1.256 7.083 3.41"/><circle cx="55.075" cy="96.069" r="1.838" fill="#fff"/><path d="M70.6 108.92a9.066 9.066 0 0 1-13.7 3.454 9.07 9.07 0 0 1-5.45 1.822 9.07 9.07 0 0 1-8.233-5.276 11.54 11.54 0 0 0 7.712 2.917h.284c2.936-.075 5.31-2.511 5.31-5.449a5.45 5.45 0 0 0-2.59-4.639l-.154-.096a7.2 7.2 0 0 1-1.404-1.029 9.3 9.3 0 0 1-2.562-4.425 9.05 9.05 0 0 0 5.45 3.267 9.2 9.2 0 0 0 3.262 0 9 9 0 0 0 2.121-.663 9.1 9.1 0 0 0 3.333-2.6 9.25 9.25 0 0 1-2.562 4.421 7 7 0 0 1-1.405 1.033l-.158.096a5.46 5.46 0 0 0-2.58 4.636c0 2.937 2.373 5.374 5.309 5.452h.284a11.5 11.5 0 0 0 7.733-2.921"/><path fill="#762dd7" d="M108.21 62.077a15.3 15.3 0 0 1 4.604 10.35 14.94 14.94 0 0 1-7.204 12.283 63.8 63.8 0 0 0-13.18-14.32 10 10 0 0 1-6.166 1.383 15.26 15.26 0 0 1-9.3-3.95 9.81 9.81 0 0 1-7.184 4.304 9.82 9.82 0 0 1-7.916-5.417A15.34 15.34 0 0 1 47.86 77.544a13.88 13.88 0 0 1-12.813-8.334 16.7 16.7 0 0 1-7.5 1.771 11.96 11.96 0 0 1-5.417-1.104 52 52 0 0 0-2.5 2.083q-.779.675-1.533 1.367a59.6 59.6 0 0 0-7.275 7.725H9.397l-.155.002c-4.307 0-7.85-3.544-7.85-7.85q0-.411.043-.819a9.086 9.086 0 0 1 6.566-8.716A23.76 23.76 0 0 1 4.98 52.035a22 22 0 0 1-.02-.934c0-11.952 9.836-21.787 21.788-21.787q.44 0 .878.017c2.236.001 4.468.204 6.667.609v-1.88a22 22 0 0 1-.017-.857c0-11.952 9.835-21.788 21.787-21.788q.417 0 .834.016c9.654.005 18.398 5.857 22.083 14.779a14.64 14.64 0 0 1 7.255-1.908q.415-.027.831-.027c6.928 0 12.629 5.701 12.629 12.629q0 .416-.027.831c0 .771-.058 2.796-.171 3.534a27.4 27.4 0 0 1 4.788-.417q.42-.028.843-.028c6.929 0 12.63 5.701 12.63 12.629q0 .415-.028.828a14.74 14.74 0 0 1-9.52 13.796"/><path fill="#af62f1" d="M92.129 42.994h-.531a.253.253 0 0 1-.156-.454 10.99 10.99 0 0 0 4.208-8.617c-.111-6.228-5.327-11.261-11.554-11.15A11.8 11.8 0 0 0 78.1 24.39a1.562 1.562 0 0 1-2.3-.938c-1.752-8.42-9.03-14.641-17.621-15.058-10.158 0-18.396 9.466-18.396 21.146-.001.974.058 1.949.175 2.916q.013.11.013.221c0 1.04-.856 1.896-1.896 1.896-.25 0-.498-.05-.729-.146a19 19 0 0 0-7.304-1.46c-10.423 0-19 8.577-19 19 0 2.961.692 5.881 2.021 8.527a.3.3 0 0 0 .268.172.3.3 0 0 0 .296-.296l-.002-.035a13.54 13.54 0 0 1 1.196-6.895.621.621 0 0 1 1.179.245c.273 7.018 6.118 12.645 13.142 12.65 1.27 0 2.533-.187 3.75-.554a.51.51 0 0 0 .362-.546 15 15 0 0 1-.108-1.82c0-.384 0-.763.042-1.138a.275.275 0 0 1 .537-.067 14.42 14.42 0 0 0 13.592 9.13c7.136.32 13.387-4.99 14.225-12.084a.254.254 0 0 1 .491-.071 8.4 8.4 0 0 1 .509 3.463c-.01.099.005.2.046.292a7.88 7.88 0 0 0 7.179 4.65 8.42 8.42 0 0 0 8.383-5.442.31.31 0 0 1 .6.058q.098.67.1 1.346a9.2 9.2 0 0 1-.233 2.046.53.53 0 0 0 .233.567 11.54 11.54 0 0 0 6.135 1.767c6.327 0 11.533-5.207 11.533-11.534 0-2.163-.608-4.283-1.755-6.117a.393.393 0 0 1 .55-.529c1.13.75 2.129 1.681 2.958 2.754a.646.646 0 0 0 1.146-.262q.138-.727.139-1.467c0-4.137-3.295-7.59-7.427-7.783m-65.575 0a8.5 8.5 0 0 1 5.508.646H31.8c-4.684.003-8.536 3.857-8.536 8.541a8.55 8.55 0 0 0 4.594 7.575.375.375 0 0 1-.171.709h-.008c-4.932-.005-8.988-4.064-8.988-8.996l.001-.084a10.3 10.3 0 0 1 1.766-5 11.44 11.44 0 0 1 6.096-3.404zm57.679-1.913v.002a.259.259 0 0 1-.491.111c-2.013-3.906-6.565-5.843-10.775-4.584a.53.53 0 0 0-.359.667c.444 1.308.639 2.687.575 4.067a.28.28 0 0 1-.55.058c-1.638-5.836-6.999-9.899-13.061-9.899-6.105 0-11.493 4.12-13.093 10.012a.362.362 0 0 1-.712-.084v-.883c.259-7.746 6.716-13.97 14.466-13.946a14.7 14.7 0 0 1 12.046 5.938.25.25 0 0 0 .275.091 9.1 9.1 0 0 1 2.813-.383l.125-.001c4.8 0 8.75 3.95 8.75 8.75v.051z"/><path d="M107.54 100.6a6.22 6.22 0 0 1-2.525 5.346 6.03 6.03 0 0 0 1.629-4.367c0-6.083-3.75-13.1-12.058-19.491a38.9 38.9 0 0 1-.834 20.112 34 34 0 0 1-.608 1.767c-5.563 15.177-20.093 25.326-36.258 25.326-21.184 0-38.616-17.432-38.616-38.617a38.6 38.6 0 0 1 .97-8.601c-8.334 6.392-12.059 13.408-12.059 19.492a6.03 6.03 0 0 0 1.63 4.366 6.21 6.21 0 0 1-2.525-5.345c-.001-6.75 4.254-14.584 13.787-21.613.417-.308.833-.608 1.25-.912a.782.782 0 0 1 1.175.904 34 34 0 0 0-2.013 11.583c.352 19.626 16.786 35.49 36.413 35.146 15.915.189 30.181-10.118 35-25.288q.321-1.045.567-2.125A34.2 34.2 0 0 0 91.319 79a.784.784 0 0 1 .732-1.047.8.8 0 0 1 .443.139q.65.458 1.275.912c9.517 7.017 13.771 14.846 13.771 21.596"/><path d="M107.54 100.6a6.22 6.22 0 0 1-2.525 5.346 6.03 6.03 0 0 0 1.629-4.367c0-6.083-3.75-13.1-12.058-19.491a38.9 38.9 0 0 1-.834 20.112 34 34 0 0 1-.608 1.767c-5.563 15.177-20.093 25.326-36.258 25.326-21.184 0-38.616-17.432-38.616-38.617a38.6 38.6 0 0 1 .97-8.601c-8.334 6.392-12.059 13.408-12.059 19.492a6.03 6.03 0 0 0 1.63 4.366 6.21 6.21 0 0 1-2.525-5.345c-.001-6.75 4.254-14.584 13.787-21.613.417-.308.833-.608 1.25-.912a.782.782 0 0 1 1.175.904 34 34 0 0 0-2.013 11.583c.352 19.626 16.786 35.49 36.413 35.146 15.915.189 30.181-10.118 35-25.288q.321-1.045.567-2.125A34.2 34.2 0 0 0 91.319 79a.784.784 0 0 1 .732-1.047.8.8 0 0 1 .443.139q.65.458 1.275.912c9.517 7.017 13.771 14.846 13.771 21.596"/><path d="M110.12 61.798a.487.487 0 0 0-.171.767 14.705 14.705 0 0 1-3.054 22.125 59 59 0 0 0-1.933-2.734 12.96 12.96 0 0 0 5.62-10.676 12.96 12.96 0 0 0-4.787-10.053.74.74 0 0 1 .204-1.25c17.867-6.646 9.167-29.304-6.871-23.192a.741.741 0 0 1-.975-.87c2.592-10.355-6.166-20.038-19.583-13.725a.736.736 0 0 1-1.021-.48C72.237 1.294 38.178-1.473 36.337 30.781a.74.74 0 0 1-.955.667C18.233 26.015-.809 42.077 10.699 63.46a.742.742 0 0 1-.587 1.084l-.126-.001c-3.961 0-7.221 3.259-7.221 7.22 0 3.962 3.26 7.221 7.221 7.221q.694 0 1.376-.132a62 62 0 0 0-2.042 2.521h-.065c-4.974 0-9.067-4.093-9.067-9.067a9.085 9.085 0 0 1 6.015-8.537.49.49 0 0 0 .275-.684 23.9 23.9 0 0 1-2.736-11.107c0-13.121 10.797-23.917 23.917-23.917 1.606 0 3.208.162 4.782.483a.49.49 0 0 0 .579-.479c.014-13.104 10.801-23.878 23.904-23.878a23.94 23.94 0 0 1 21.888 14.294.475.475 0 0 0 .662.234 14.7 14.7 0 0 1 6.792-1.662c8.068 0 14.708 6.639 14.708 14.707q.003.794-.083 1.584l-.003.053a.49.49 0 0 0 .574.48 14.7 14.7 0 0 1 2.842-.277c8.071 0 14.712 6.641 14.712 14.712 0 5.863-3.504 11.19-8.888 13.511z"/><path d="M100.35 60.41a.187.187 0 0 1 .36.073l-.002.027c-1.344 6.877-7.425 11.884-14.431 11.884a14.7 14.7 0 0 1-8.785-2.913l-.088-.062a.57.57 0 0 0-.775.087 9.07 9.07 0 0 1-6.842 3.117 9.07 9.07 0 0 1-7.283-3.667.617.617 0 0 0-1.067.129 14.74 14.74 0 0 1-13.581 9.056 14.73 14.73 0 0 1-13.135-8.085.42.42 0 0 0-.554-.171 14.3 14.3 0 0 1-6.638 1.555 14.73 14.73 0 0 1-13.521-8.917.185.185 0 0 1 .161-.273c.066 0 .128.036.16.094a15.94 15.94 0 0 0 13.2 7.004 13.5 13.5 0 0 0 7.267-1.721.673.673 0 0 1 .921.25c.154.279.329.583.441.763 6.475 10.483 19.634 10.416 24.767-3.663a.626.626 0 0 1 1.146-.075c3.558 7.008 9.75 8.188 13.675 3.05.154-.2.304-.417.45-.633a.74.74 0 0 1 1.058-.188l.054.038a15.14 15.14 0 0 0 8.926 2.912 15.16 15.16 0 0 0 14.116-9.679z"/><path d="M113.83 103.2c0 10.229-8.487 12.829-14.241 9.708a17.56 17.56 0 0 1-6.459-8.941 49 49 0 0 1-1.25-3.575q.321-1.046.567-2.125a38 38 0 0 0 1.283 3.933 14.82 14.82 0 0 0 5.442 7.629 7.95 7.95 0 0 0 3.967 1.061c4.361 0 7.95-3.589 7.95-7.95q0-.592-.088-1.177c0-7.45-7.804-21.371-19.454-30.359a50 50 0 0 0-2-1.471l-.246-.166a15 15 0 0 0 2.592-.788q.92.684 1.804 1.388c12.787 10.225 20.133 24.171 20.133 32.833M25.363 69.198q-.55.362-1.088.737c-.387.271-.771.546-1.15.834-12.121 8.954-20.308 23.371-20.308 31a8 8 0 0 0-.088 1.179c0 4.362 3.588 7.95 7.95 7.95a7.94 7.94 0 0 0 3.971-1.063 14.85 14.85 0 0 0 5.442-7.633 39 39 0 0 0 1.283-3.933 33 33 0 0 0 .567 2.125 42 42 0 0 1-1.25 3.575 17.56 17.56 0 0 1-6.45 8.941C8.483 116.031 0 113.431 0 103.202c0-8.817 7.6-23.117 20.833-33.383a56 56 0 0 1 1.7-1.275c.921.307 1.868.526 2.829.654zm58.858-27.792a.229.229 0 0 1-.45.029c-.864-4.288-4.663-7.404-9.038-7.412q-.627.006-1.25.083a9 9 0 0 0-1.554.35 1.25 1.25 0 0 1-1.35-.416 11 11 0 0 0-.533-.605 14.72 14.72 0 0 0-10.81-4.732 14.72 14.72 0 0 0-11.086 5.041.23.23 0 0 1-.371-.263 14.73 14.73 0 0 1 12.691-7.269c4.434 0 8.638 2.004 11.43 5.448a1.28 1.28 0 0 0 1.283.417 9 9 0 0 1 2.008-.225c4.834 0 8.861 3.866 9.059 8.696-.012.279-.012.579-.029.858M101.7 54.86c.158-.781.22-1.578.184-2.375-.22-5.25-4.6-9.449-9.854-9.449q-.987 0-1.955.195a.27.27 0 0 1-.333-.258c0-.1.057-.192.146-.238a9.1 9.1 0 0 1 4.35-1.111c4.976 0 9.071 4.095 9.071 9.071a9.1 9.1 0 0 1-1.113 4.353.266.266 0 0 1-.504-.121.3.3 0 0 1 .008-.067m-81.467.696a10.2 10.2 0 0 1-.183-2.375c.232-5.252 4.616-9.448 9.874-9.448.646 0 1.292.064 1.926.19a.268.268 0 0 0 .314-.263.27.27 0 0 0-.131-.229 9.06 9.06 0 0 0-4.351-1.112c-4.974 0-9.067 4.093-9.067 9.066 0 1.522.383 3.02 1.114 4.355a.27.27 0 0 0 .252.176.27.27 0 0 0 .252-.36"/><path fill="#af62f1" d="M146.684 106.617c-1.781 0-3.206-.356-4.394-1.187-1.068-.713-1.662-1.663-1.662-2.85V41.66c0-4.393 1.069-8.43 3.325-12.23 2.137-3.8 5.225-6.888 9.381-9.144s9.025-3.444 14.844-3.444c3.206 0 6.294.356 9.263.95 2.968.712 5.462 1.662 7.362 2.85q2.85 1.959 2.85 4.275c0 .594-.119 1.425-.475 2.494a13 13 0 0 1-1.425 3.206c-.712.95-1.544 1.425-2.612 1.425q-1.248 0-2.85-1.069c-1.07-.831-2.613-1.544-4.394-2.375-1.781-.712-4.394-1.069-7.6-1.069-2.494 0-4.75.357-6.65 1.07-2.02.712-3.563 1.662-4.87 2.968-1.305 1.187-2.255 2.612-2.73 4.156-.594 1.663-.95 3.444-.95 5.344v9.263h13.181c1.187 0 2.137.475 2.731 1.425s.831 2.018.831 3.206-.237 2.256-.83 3.206-1.545 1.425-2.732 1.425h-13.181v42.988c0 1.187-.594 2.137-1.9 2.85-1.307.831-2.732 1.187-4.513 1.187m39.07 0c-1.782 0-3.207-.475-4.395-1.306s-1.78-1.781-1.78-2.85V54.367c0-1.187.593-2.137 1.78-2.969 1.188-.712 2.613-1.068 4.394-1.068s3.206.356 4.394 1.068c1.306.832 1.9 1.782 1.9 2.97v48.093c0 1.069-.594 2.019-1.9 2.85-1.188.831-2.613 1.306-4.394 1.306m23.154.95c-.95 0-2.018-.356-3.206-.95-1.306-.593-2.375-1.306-3.206-2.256-.95-.95-1.425-1.9-1.425-2.969 0-.83.237-1.543.712-2.256L216.508 78l-13.894-19.95c-.238-.238-.475-.594-.594-.95s-.238-.832-.238-1.188c0-1.069.475-2.019 1.425-2.969.832-.95 1.9-1.781 3.207-2.375s2.375-.95 3.443-.95c.357 0 .95.119 1.544.238s1.188.593 1.544 1.187l11.994 19 12.112-18.881c.357-.594.95-1.069 1.544-1.188.594-.237 1.069-.356 1.663-.356.95 0 2.018.356 3.325.95 1.306.475 2.375 1.306 3.206 2.256.95 1.07 1.425 2.02 1.425 3.088 0 .594-.237 1.306-.831 2.137l-14.013 20.07 14.725 21.018c.238.238.475.594.594.95s.238.831.238 1.306c0 .832-.475 1.782-1.307 2.732-.831 1.068-1.9 1.9-3.087 2.493-1.307.594-2.494.95-3.563.95-.594 0-1.187-.118-1.662-.356q-.891-.178-1.425-1.069L224.939 86.55l-12.825 19.593c-.357.475-.832.832-1.544 1.07-.594.237-1.188.355-1.663.355m78.97-71.37c-2.019 0-3.681-.712-5.106-2.019s-2.138-2.85-2.138-4.512q0-2.672 2.138-4.631c2.138-1.96 3.087-1.9 5.106-1.9s3.681.593 5.106 1.9c1.306 1.306 2.019 2.85 2.019 4.63 0 1.663-.713 3.207-2.019 4.513-1.425 1.307-3.087 2.02-5.106 2.02m0 70.42c-1.781 0-3.325-.476-4.394-1.307q-1.78-1.246-1.781-2.85V54.367c0-1.187.594-2.137 1.781-2.969 1.069-.712 2.613-1.068 4.394-1.068s3.206.356 4.512 1.068c1.188.832 1.782 1.782 1.782 2.97v48.093q0 1.603-1.782 2.85c-1.306.831-2.73 1.306-4.512 1.306m25.413 0c-1.782 0-3.325-.475-4.394-1.306q-1.782-1.246-1.781-2.85V54.367c0-1.187.593-2.137 1.78-2.969 1.07-.712 2.613-1.068 4.395-1.068q2.315 0 3.918 1.068c1.07.832 1.663 1.782 1.663 2.97v4.274c1.187-2.256 3.206-4.394 5.819-6.294 2.85-1.781 6.175-2.731 10.093-2.731 3.682 0 7.126 1.069 10.332 3.088 3.087 2.137 5.581 4.987 7.481 8.43 1.9 3.563 2.85 7.482 2.85 11.876v29.45c0 1.306-.594 2.375-1.9 3.088s-2.85 1.068-4.394 1.068c-1.425 0-2.85-.356-4.156-1.068s-2.019-1.782-2.019-3.088v-29.45c0-2.019-.475-4.038-1.543-5.938s-2.613-3.443-4.394-4.63-3.8-1.782-6.057-1.782c-1.9 0-3.68.475-5.462 1.425q-2.672 1.604-4.275 4.275c-1.603 2.67-1.663 4.037-1.663 6.65v29.45q0 1.604-1.78 2.85c-1.307.831-2.732 1.306-4.513 1.306m74.458 1.188c-1.306 0-2.612-.238-3.562-.713q-1.603-.535-2.138-1.78l-19.95-48.095c-.118-.237-.118-.594-.237-.95s-.238-.712-.238-1.069c0-1.068.475-1.9 1.425-2.73.832-.832 1.9-1.426 3.207-1.901 1.187-.475 2.375-.712 3.443-.712.832 0 1.544.237 2.375.593.713.357 1.188.832 1.425 1.663l14.25 37.525 14.013-37.288q.534-1.247 1.425-1.781c.594-.475 1.425-.712 2.375-.712.831 0 2.019.237 3.206.712a11.4 11.4 0 0 1 3.563 1.9c.95.831 1.425 1.781 1.425 2.731 0 .357 0 .713-.119 1.07s-.237.593-.356.95l-19.831 48.093q-.536 1.247-2.138 1.781-1.603.713-3.563.713m58.772-.238c-5.344 0-10.094-.95-14.25-2.968s-7.363-4.75-9.738-8.194q-3.562-5.344-3.562-12.469V72.655c0-4.157 1.187-8.075 3.443-11.52s5.225-6.293 8.907-8.43c3.68-2.02 7.837-3.088 12.35-3.088 4.275 0 8.194.95 11.756 2.731 3.563 1.9 6.413 4.513 8.669 7.838q3.206 4.988 3.206 11.4c0 3.325-.475 5.7-1.544 7.125s-2.375 2.256-4.037 2.613-3.444.475-5.225.475h-25.057v2.73c0 3.92 1.425 7.126 4.394 9.382q4.276 3.563 11.044 3.563c2.731 0 4.988-.357 6.769-1.188s3.206-1.544 4.394-2.256 2.256-1.069 3.325-1.069 1.9.356 2.612.95 1.306 1.425 1.663 2.256.593 1.663.593 2.375q0 1.781-2.493 3.92-2.315 2.136-6.77 3.562c-2.968 1.068-6.412 1.543-10.45 1.543M431.438 74.08h19.713q2.672 0 3.563-.713c.89-.713.83-1.425.83-2.85 0-2.019-.474-4.037-1.543-5.819s-2.494-3.087-4.275-4.156c-1.781-.95-3.919-1.425-6.175-1.425s-4.275.475-6.056 1.425-3.325 2.256-4.394 3.919-1.663 3.562-1.663 5.819zm52.262 32.537c-1.782 0-3.326-.475-4.395-1.306q-1.78-1.246-1.78-2.85V54.367c0-1.187.593-2.137 1.78-2.969 1.07-.712 2.613-1.068 4.394-1.068q2.316 0 3.919 1.068c1.069.832 1.663 1.782 1.663 2.97v4.274c1.187-2.256 3.206-4.394 5.818-6.294 2.85-1.781 6.175-2.731 10.094-2.731 3.681 0 7.125 1.069 10.332 3.088 3.087 2.137 5.58 4.987 7.48 8.43 1.9 3.563 2.85 7.482 2.85 11.876v29.45c0 1.306-.593 2.375-1.9 3.088s-2.85 1.068-4.393 1.068c-1.425 0-2.85-.356-4.156-1.068s-2.019-1.782-2.019-3.088v-29.45c0-2.019-.475-4.038-1.544-5.938s-2.612-3.443-4.394-4.63-3.8-1.782-6.056-1.782c-1.9 0-3.681.475-5.462 1.425q-2.673 1.604-4.275 4.275c-1.602 2.67-1.663 4.037-1.663 6.65v29.45q0 1.604-1.781 2.85c-1.306.831-2.731 1.306-4.513 1.306m75.161 0c-6.769 0-11.875-1.543-15.437-4.512s-5.344-7.6-5.344-14.013V28.598c0-1.187.712-2.137 2.019-2.969 1.306-.712 2.612-1.068 4.156-1.068s2.969.356 4.275 1.068c1.306.832 2.019 1.782 2.019 2.97v21.73h14.487c1.07 0 2.02.476 2.613 1.426s.831 2.018.831 3.206-.237 2.256-.831 3.206-1.544 1.425-2.613 1.425h-14.487v28.5q0 4.276 1.781 6.057c1.306 1.187 3.444 1.78 6.531 1.78h4.038c1.781 0 3.206.476 4.156 1.545a6.14 6.14 0 0 1 1.306 3.8c0 1.306-.475 2.612-1.306 3.681-.95 1.069-2.375 1.662-4.156 1.662zm39.455.95c-4.275 0-8.313-1.068-11.994-3.325s-6.65-5.106-8.906-8.787c-2.257-3.563-3.444-7.363-3.444-11.519V73.011c0-4.156 1.069-8.075 3.325-11.638q3.206-5.343 8.906-8.55c3.681-2.137 7.838-3.206 12.232-3.206s8.55 1.069 12.23 3.088c3.682 2.137 6.77 4.987 9.026 8.43 2.256 3.563 3.325 7.482 3.325 11.876v10.925c0 4.038-1.069 7.838-3.325 11.519s-5.344 6.531-9.144 8.787c-3.681 2.257-7.837 3.325-12.231 3.325m.119-11.043q3.384 0 6.056-1.782c2.672-1.782 3.325-2.73 4.394-4.75 1.068-1.9 1.662-3.918 1.662-6.056V73.011c0-2.019-.594-4.038-1.662-5.938s-2.613-3.443-4.394-4.63-3.8-1.782-6.056-1.782-4.394.594-6.057 1.781q-2.671 1.781-4.275 4.631c-1.604 2.85-1.662 3.92-1.662 5.938v10.925c0 2.138.593 4.156 1.662 6.056 1.069 2.02 2.494 3.563 4.275 4.75s3.8 1.782 6.057 1.782m41.439 10.093c-1.78 0-3.206-.475-4.275-1.306q-1.78-1.246-1.78-2.85V54.367c0-1.187.593-2.137 1.78-2.969q1.604-1.068 4.275-1.068c1.544 0 2.97.356 4.038 1.068 1.069.832 1.662 1.782 1.662 2.97v5.224c.832-1.662 2.02-3.206 3.563-4.75 1.425-1.544 3.088-2.731 5.106-3.8a14.9 14.9 0 0 1 6.413-1.425h3.8c1.306 0 2.375.594 3.325 1.544q1.425 1.603 1.425 3.919c0 2.316-.475 2.85-1.425 3.918s-2.019 1.663-3.325 1.663h-3.8c-2.375 0-4.631.712-6.888 2.137s-4.037 3.444-5.344 5.938c-1.425 2.612-2.137 5.7-2.137 9.381v24.344q0 1.604-1.781 2.85c-1.307.831-2.85 1.306-4.632 1.306m39.182 26.719c-1.544 0-2.969-.356-4.038-1.068-1.068-.594-1.662-2.02-1.662-4.275 0-1.425.237-2.732.712-3.8s1.307-1.544 2.613-1.544c1.544 0 3.206-.356 4.988-1.188 1.78-.712 3.443-1.9 5.225-3.562 1.662-1.544 3.087-3.563 4.393-6.056 1.188-2.494 2.02-5.344 2.494-8.67l-20.069-46.075c-.356-.593-.475-1.068-.475-1.662 0-1.069.475-2.019 1.425-2.969q1.247-1.247 3.206-2.137c1.96-.89 2.494-.832 3.563-.832.831 0 1.544.119 2.375.594.713.356 1.188.831 1.425 1.663l14.963 38.594 12.944-38.594c.237-.832.712-1.307 1.425-1.663.712-.475 1.425-.594 2.137-.594.95 0 2.138.238 3.444.832 1.187.593 2.375 1.306 3.444 2.137q1.425 1.425 1.425 3.206 0 .892-.357 1.425l-17.812 46.432-3.92 10.331c-1.305 3.563-2.968 6.77-4.868 9.738-2.019 2.969-4.512 5.225-7.481 7.006-3.088 1.781-6.888 2.731-11.519 2.731"/></svg>