<?xml version="1.0" encoding="UTF-8" standalone="no"?><svg xmlns="http://www.w3.org/2000/svg" xmlns:xlink="http://www.w3.org/1999/xlink" contentScriptType="application/ecmascript" contentStyleType="text/css" height="855px" preserveAspectRatio="none" style="width:420px;height:855px;background:#00000000;" version="1.1" viewBox="0 0 420 855" width="420px" zoomAndPan="magnify"><defs/><g><!--MD5=[7f0ecf5f554433d3f2e1213379ac821c]
class resource--><rect codeLine="17" fill="#194875" height="275.8359" id="resource" rx="2.5" ry="2.5" style="stroke:#000000;stroke-width:1.5;" width="256" x="7" y="7"/><ellipse cx="90.25" cy="26.8945" fill="#1A83AF" rx="11" ry="11" style="stroke:#000000;stroke-width:1.0;"/><path d="M93.2188,32.5352 Q92.6406,32.832 92,32.9727 Q91.3594,33.1289 90.6563,33.1289 Q88.1563,33.1289 86.8281,31.4883 Q85.5156,29.832 85.5156,26.707 Q85.5156,23.582 86.8281,21.9258 Q88.1563,20.2695 90.6563,20.2695 Q91.3594,20.2695 92,20.4258 Q92.6563,20.582 93.2188,20.8789 L93.2188,23.5977 Q92.5938,23.0195 92,22.7539 Q91.4063,22.4727 90.7813,22.4727 Q89.4375,22.4727 88.75,23.5508 Q88.0625,24.6133 88.0625,26.707 Q88.0625,28.8008 88.75,29.8789 Q89.4375,30.9414 90.7813,30.9414 Q91.4063,30.9414 92,30.6758 Q92.5938,30.3945 93.2188,29.8164 L93.2188,32.5352 Z " fill="#000000"/><text fill="#FFE797" font-family="Helvetica" font-size="17" lengthAdjust="spacing" textLength="71" x="115.75" y="32.7798">resource</text><line style="stroke:#000000;stroke-width:1.5;" x1="8" x2="262" y1="46.7891" y2="46.7891"/><text fill="#FFE797" font-family="sans-serif" font-size="11" font-weight="bold" lengthAdjust="spacing" textLength="12" x="18" y="65.9995">id</text><text fill="#FFE797" font-family="sans-serif" font-size="11" lengthAdjust="spacing" textLength="41" x="30" y="65.9995">: string</text><text fill="#FFE797" font-family="sans-serif" font-size="11" font-weight="bold" lengthAdjust="spacing" textLength="28" x="18" y="88.8042">tags</text><text fill="#FFE797" font-family="sans-serif" font-size="11" lengthAdjust="spacing" textLength="145" x="46" y="88.8042">: dictionary[string, string]</text><text fill="#FFE797" font-family="sans-serif" font-size="11" font-weight="bold" lengthAdjust="spacing" textLength="35" x="18" y="111.6089">name</text><text fill="#FFE797" font-family="sans-serif" font-size="11" lengthAdjust="spacing" textLength="41" x="53" y="111.6089">: string</text><text fill="#FFE797" font-family="sans-serif" font-size="11" font-weight="bold" lengthAdjust="spacing" textLength="35" x="18" y="134.4136">ctime</text><text fill="#FFE797" font-family="sans-serif" font-size="11" lengthAdjust="spacing" textLength="58" x="53" y="134.4136">: datetime</text><text fill="#FFE797" font-family="sans-serif" font-size="11" font-weight="bold" lengthAdjust="spacing" textLength="24" x="18" y="157.2183">age</text><text fill="#FFE797" font-family="sans-serif" font-size="11" lengthAdjust="spacing" textLength="159" x="42" y="157.2183">: trafo.duration_to_datetime</text><text fill="#FFE797" font-family="sans-serif" font-size="11" font-weight="bold" lengthAdjust="spacing" textLength="39" x="18" y="180.0229">mtime</text><text fill="#FFE797" font-family="sans-serif" font-size="11" lengthAdjust="spacing" textLength="58" x="57" y="180.0229">: datetime</text><text fill="#FFE797" font-family="sans-serif" font-size="11" font-weight="bold" lengthAdjust="spacing" textLength="75" x="18" y="202.8276">last_update</text><text fill="#FFE797" font-family="sans-serif" font-size="11" lengthAdjust="spacing" textLength="159" x="93" y="202.8276">: trafo.duration_to_datetime</text><text fill="#FFE797" font-family="sans-serif" font-size="11" font-weight="bold" lengthAdjust="spacing" textLength="36" x="18" y="225.6323">atime</text><text fill="#FFE797" font-family="sans-serif" font-size="11" lengthAdjust="spacing" textLength="58" x="54" y="225.6323">: datetime</text><text fill="#FFE797" font-family="sans-serif" font-size="11" font-weight="bold" lengthAdjust="spacing" textLength="74" x="18" y="248.437">last_access</text><text fill="#FFE797" font-family="sans-serif" font-size="11" lengthAdjust="spacing" textLength="159" x="92" y="248.437">: trafo.duration_to_datetime</text><text fill="#FFE797" font-family="sans-serif" font-size="11" font-weight="bold" lengthAdjust="spacing" textLength="27" x="18" y="271.2417">kind</text><text fill="#FFE797" font-family="sans-serif" font-size="11" lengthAdjust="spacing" textLength="41" x="45" y="271.2417">: string</text><!--MD5=[c069b88079f3e36515859a1683f3923c]
class aws_resource--><rect codeLine="29" fill="#194875" height="70.5938" id="aws_resource" rx="2.5" ry="2.5" style="stroke:#000000;stroke-width:1.5;" width="155" x="258.5" y="415"/><ellipse cx="273.5" cy="434.8945" fill="#1A83AF" rx="11" ry="11" style="stroke:#000000;stroke-width:1.0;"/><path d="M276.4688,440.5352 Q275.8906,440.832 275.25,440.9727 Q274.6094,441.1289 273.9063,441.1289 Q271.4063,441.1289 270.0781,439.4883 Q268.7656,437.832 268.7656,434.707 Q268.7656,431.582 270.0781,429.9258 Q271.4063,428.2695 273.9063,428.2695 Q274.6094,428.2695 275.25,428.4258 Q275.9063,428.582 276.4688,428.8789 L276.4688,431.5977 Q275.8438,431.0195 275.25,430.7539 Q274.6563,430.4727 274.0313,430.4727 Q272.6875,430.4727 272,431.5508 Q271.3125,432.6133 271.3125,434.707 Q271.3125,436.8008 272,437.8789 Q272.6875,438.9414 274.0313,438.9414 Q274.6563,438.9414 275.25,438.6758 Q275.8438,438.3945 276.4688,437.8164 L276.4688,440.5352 Z " fill="#000000"/><text fill="#FFE797" font-family="Helvetica" font-size="17" lengthAdjust="spacing" textLength="113" x="292.5" y="440.7798">aws_resource</text><line style="stroke:#000000;stroke-width:1.5;" x1="259.5" x2="412.5" y1="454.7891" y2="454.7891"/><text fill="#FFE797" font-family="sans-serif" font-size="11" font-weight="bold" lengthAdjust="spacing" textLength="21" x="269.5" y="473.9995">arn</text><text fill="#FFE797" font-family="sans-serif" font-size="11" lengthAdjust="spacing" textLength="41" x="290.5" y="473.9995">: string</text><!--MD5=[073e8d79724a5faf315c48f30d75a20f]
class aws_ec2_elastic_ip--><rect codeLine="32" fill="#194875" height="230.2266" id="aws_ec2_elastic_ip" rx="2.5" ry="2.5" style="stroke:#000000;stroke-width:1.5;" width="243" x="146.5" y="618"/><ellipse cx="181.3" cy="637.8945" fill="#1A83AF" rx="11" ry="11" style="stroke:#000000;stroke-width:1.0;"/><path d="M184.2688,643.5352 Q183.6906,643.832 183.05,643.9727 Q182.4094,644.1289 181.7063,644.1289 Q179.2063,644.1289 177.8781,642.4883 Q176.5656,640.832 176.5656,637.707 Q176.5656,634.582 177.8781,632.9258 Q179.2063,631.2695 181.7063,631.2695 Q182.4094,631.2695 183.05,631.4258 Q183.7063,631.582 184.2688,631.8789 L184.2688,634.5977 Q183.6438,634.0195 183.05,633.7539 Q182.4563,633.4727 181.8313,633.4727 Q180.4875,633.4727 179.8,634.5508 Q179.1125,635.6133 179.1125,637.707 Q179.1125,639.8008 179.8,640.8789 Q180.4875,641.9414 181.8313,641.9414 Q182.4563,641.9414 183.05,641.6758 Q183.6438,641.3945 184.2688,640.8164 L184.2688,643.5352 Z " fill="#000000"/><text fill="#FFE797" font-family="Helvetica" font-size="17" lengthAdjust="spacing" textLength="157" x="204.7" y="643.7798">aws_ec2_elastic_ip</text><line style="stroke:#000000;stroke-width:1.5;" x1="147.5" x2="388.5" y1="657.7891" y2="657.7891"/><text fill="#FFE797" font-family="sans-serif" font-size="11" font-weight="bold" lengthAdjust="spacing" textLength="73" x="157.5" y="676.9995">instance_id</text><text fill="#FFE797" font-family="sans-serif" font-size="11" lengthAdjust="spacing" textLength="41" x="230.5" y="676.9995">: string</text><text fill="#FFE797" font-family="sans-serif" font-size="11" font-weight="bold" lengthAdjust="spacing" textLength="57" x="157.5" y="699.8042">public_ip</text><text fill="#FFE797" font-family="sans-serif" font-size="11" lengthAdjust="spacing" textLength="41" x="214.5" y="699.8042">: string</text><text fill="#FFE797" font-family="sans-serif" font-size="11" font-weight="bold" lengthAdjust="spacing" textLength="82" x="157.5" y="722.6089">allocation_id</text><text fill="#FFE797" font-family="sans-serif" font-size="11" lengthAdjust="spacing" textLength="41" x="239.5" y="722.6089">: string</text><text fill="#FFE797" font-family="sans-serif" font-size="11" font-weight="bold" lengthAdjust="spacing" textLength="92" x="157.5" y="745.4136">association_id</text><text fill="#FFE797" font-family="sans-serif" font-size="11" lengthAdjust="spacing" textLength="41" x="249.5" y="745.4136">: string</text><text fill="#FFE797" font-family="sans-serif" font-size="11" font-weight="bold" lengthAdjust="spacing" textLength="47" x="157.5" y="768.2183">domain</text><text fill="#FFE797" font-family="sans-serif" font-size="11" lengthAdjust="spacing" textLength="41" x="204.5" y="768.2183">: string</text><text fill="#FFE797" font-family="sans-serif" font-size="11" font-weight="bold" lengthAdjust="spacing" textLength="134" x="157.5" y="791.0229">network_interface_id</text><text fill="#FFE797" font-family="sans-serif" font-size="11" lengthAdjust="spacing" textLength="41" x="291.5" y="791.0229">: string</text><text fill="#FFE797" font-family="sans-serif" font-size="11" font-weight="bold" lengthAdjust="spacing" textLength="180" x="157.5" y="813.8276">network_interface_owner_id</text><text fill="#FFE797" font-family="sans-serif" font-size="11" lengthAdjust="spacing" textLength="41" x="337.5" y="813.8276">: string</text><text fill="#FFE797" font-family="sans-serif" font-size="11" font-weight="bold" lengthAdjust="spacing" textLength="120" x="157.5" y="836.6323">private_ip_address</text><text fill="#FFE797" font-family="sans-serif" font-size="11" lengthAdjust="spacing" textLength="41" x="277.5" y="836.6323">: string</text><!--MD5=[c746a11190c8d61fa49c12ea476eeb5b]
class ip_address--><rect codeLine="42" fill="#194875" height="93.3984" id="ip_address" rx="2.5" ry="2.5" style="stroke:#000000;stroke-width:1.5;" width="177" x="46.5" y="404"/><ellipse cx="83.1" cy="423.8945" fill="#1A83AF" rx="11" ry="11" style="stroke:#000000;stroke-width:1.0;"/><path d="M86.0688,429.5352 Q85.4906,429.832 84.85,429.9727 Q84.2094,430.1289 83.5063,430.1289 Q81.0063,430.1289 79.6781,428.4883 Q78.3656,426.832 78.3656,423.707 Q78.3656,420.582 79.6781,418.9258 Q81.0063,417.2695 83.5063,417.2695 Q84.2094,417.2695 84.85,417.4258 Q85.5063,417.582 86.0688,417.8789 L86.0688,420.5977 Q85.4438,420.0195 84.85,419.7539 Q84.2563,419.4727 83.6313,419.4727 Q82.2875,419.4727 81.6,420.5508 Q80.9125,421.6133 80.9125,423.707 Q80.9125,425.8008 81.6,426.8789 Q82.2875,427.9414 83.6313,427.9414 Q84.2563,427.9414 84.85,427.6758 Q85.4438,427.3945 86.0688,426.8164 L86.0688,429.5352 Z " fill="#000000"/><text fill="#FFE797" font-family="Helvetica" font-size="17" lengthAdjust="spacing" textLength="87" x="106.9" y="429.7798">ip_address</text><line style="stroke:#000000;stroke-width:1.5;" x1="47.5" x2="222.5" y1="443.7891" y2="443.7891"/><text fill="#FFE797" font-family="sans-serif" font-size="11" font-weight="bold" lengthAdjust="spacing" textLength="69" x="57.5" y="462.9995">ip_address</text><text fill="#FFE797" font-family="sans-serif" font-size="11" lengthAdjust="spacing" textLength="41" x="126.5" y="462.9995">: string</text><text fill="#FFE797" font-family="sans-serif" font-size="11" font-weight="bold" lengthAdjust="spacing" textLength="114" x="57.5" y="485.8042">ip_address_family</text><text fill="#FFE797" font-family="sans-serif" font-size="11" lengthAdjust="spacing" textLength="41" x="171.5" y="485.8042">: string</text><!--MD5=[be5451c1db64d9568f737a0202deca2b]
reverse link aws_resource to aws_ec2_elastic_ip--><path codeLine="46" d="M322.88,505.61 C315.15,537.52 305.06,579.13 295.65,617.96 " fill="none" id="aws_resource-backto-aws_ec2_elastic_ip" style="stroke:#FFAF37;stroke-width:2.0;"/><polygon fill="none" points="316.08,503.96,327.59,486.18,329.68,507.26,316.08,503.96" style="stroke:#FFAF37;stroke-width:2.0;"/><!--MD5=[d4cf2a8cd39d16b12f57ba85bdd3cbfe]
reverse link ip_address to aws_ec2_elastic_ip--><path codeLine="47" d="M165.38,515.57 C179.75,545.89 197.36,583.03 213.91,617.92 " fill="none" id="ip_address-backto-aws_ec2_elastic_ip" style="stroke:#FFAF37;stroke-width:2.0;"/><polygon fill="none" points="158.91,518.26,156.66,497.19,171.56,512.26,158.91,518.26" style="stroke:#FFAF37;stroke-width:2.0;"/><!--MD5=[44bbf348323bb8c5a9684ebee16cc426]
reverse link resource to ip_address--><path codeLine="48" d="M135,303.23 C135,340.03 135,376.4 135,403.66 " fill="none" id="resource-backto-ip_address" style="stroke:#FFAF37;stroke-width:2.0;"/><polygon fill="none" points="128,303.1,135,283.1,142,303.1,128,303.1" style="stroke:#FFAF37;stroke-width:2.0;"/><!--MD5=[e7b209e51568f3287be8b977d9f8c44a]
@startuml
hide empty members
skinparam ArrowColor #ffaf37
skinparam ArrowThickness 2
skinparam BackgroundColor transparent
skinparam ClassAttributeFontColor #ffe797
skinparam ClassBackgroundColor #194875
skinparam ClassBorderColor Black
skinparam ClassFontColor #ffe797
skinparam ClassFontName Helvetica
skinparam ClassFontSize 17
skinparam Padding 5
skinparam RoundCorner 5
skinparam Shadowing false
skinparam stereotypeCBackgroundColor #1a83af
skinparam stereotypeIBackgroundColor #1a83af

class resource {
**id**: string
**tags**: dictionary[string, string]
**name**: string
**ctime**: datetime
**age**: trafo.duration_to_datetime
**mtime**: datetime
**last_update**: trafo.duration_to_datetime
**atime**: datetime
**last_access**: trafo.duration_to_datetime
**kind**: string
}
class aws_resource {
**arn**: string
}
class aws_ec2_elastic_ip {
**instance_id**: string
**public_ip**: string
**allocation_id**: string
**association_id**: string
**domain**: string
**network_interface_id**: string
**network_interface_owner_id**: string
**private_ip_address**: string
}
class ip_address {
**ip_address**: string
**ip_address_family**: string
}
aws_resource <|- - - aws_ec2_elastic_ip
ip_address <|- - - aws_ec2_elastic_ip
resource <|- - - ip_address
@enduml

PlantUML version 1.2021.16(Wed Dec 08 17:25:22 UTC 2021)
(GPL source distribution)
Java Runtime: OpenJDK Runtime Environment
JVM: OpenJDK 64-Bit Server VM
Default Encoding: UTF-8
Language: en
Country: null
--></g></svg>