<?xml version="1.0" encoding="UTF-8" standalone="no"?><svg xmlns="http://www.w3.org/2000/svg" xmlns:xlink="http://www.w3.org/1999/xlink" contentScriptType="application/ecmascript" contentStyleType="text/css" height="560px" preserveAspectRatio="none" style="width:380px;height:560px;background:#00000000;" version="1.1" viewBox="0 0 380 560" width="380px" zoomAndPan="magnify"><defs><filter height="300%" id="f1k0owu35e4eu1" width="300%" x="-1" y="-1"><feGaussianBlur result="blurOut" stdDeviation="2.0"/><feColorMatrix in="blurOut" result="blurOut2" type="matrix" values="0 0 0 0 0 0 0 0 0 0 0 0 0 0 0 0 0 0 .4 0"/><feOffset dx="4.0" dy="4.0" in="blurOut2" result="blurOut3"/><feBlend in="SourceGraphic" in2="blurOut3" mode="normal"/></filter></defs><g><!--MD5=[7f0ecf5f554433d3f2e1213379ac821c]
class resource--><rect codeLine="2" fill="#FEFECE" filter="url(#f1k0owu35e4eu1)" height="176.0469" id="resource" style="stroke:#A80036;stroke-width:1.5;" width="252" x="7" y="7"/><ellipse cx="100.75" cy="23" fill="#ADD1B2" rx="11" ry="11" style="stroke:#A80036;stroke-width:1.0;"/><path d="M103.7188,28.6406 Q103.1406,28.9375 102.5,29.0781 Q101.8594,29.2344 101.1563,29.2344 Q98.6563,29.2344 97.3281,27.5938 Q96.0156,25.9375 96.0156,22.8125 Q96.0156,19.6875 97.3281,18.0313 Q98.6563,16.375 101.1563,16.375 Q101.8594,16.375 102.5,16.5313 Q103.1563,16.6875 103.7188,16.9844 L103.7188,19.7031 Q103.0938,19.125 102.5,18.8594 Q101.9063,18.5781 101.2813,18.5781 Q99.9375,18.5781 99.25,19.6563 Q98.5625,20.7188 98.5625,22.8125 Q98.5625,24.9063 99.25,25.9844 Q99.9375,27.0469 101.2813,27.0469 Q101.9063,27.0469 102.5,26.7813 Q103.0938,26.5 103.7188,25.9219 L103.7188,28.6406 Z " fill="#000000"/><text fill="#000000" font-family="sans-serif" font-size="12" lengthAdjust="spacing" textLength="56" x="121.25" y="27.1543">resource</text><line style="stroke:#A80036;stroke-width:1.5;" x1="8" x2="258" y1="39" y2="39"/><ellipse cx="18" cy="50" rx="3" ry="3" style="stroke:#038048;stroke-width:1.0;fill:none;"/><text fill="#000000" font-family="sans-serif" font-size="11" lengthAdjust="spacing" textLength="51" x="27" y="53.2104">id: string</text><ellipse cx="18" cy="62.8047" rx="3" ry="3" style="stroke:#038048;stroke-width:1.0;fill:none;"/><text fill="#000000" font-family="sans-serif" font-size="11" lengthAdjust="spacing" textLength="170" x="27" y="66.0151">tags: dictionary[string, string]</text><ellipse cx="18" cy="75.6094" rx="3" ry="3" style="stroke:#038048;stroke-width:1.0;fill:none;"/><text fill="#000000" font-family="sans-serif" font-size="11" lengthAdjust="spacing" textLength="73" x="27" y="78.8198">name: string</text><ellipse cx="18" cy="88.4141" rx="3" ry="3" style="stroke:#038048;stroke-width:1.0;fill:none;"/><text fill="#000000" font-family="sans-serif" font-size="11" lengthAdjust="spacing" textLength="89" x="27" y="91.6245">ctime: datetime</text><ellipse cx="18" cy="101.2188" rx="3" ry="3" style="stroke:#038048;stroke-width:1.0;fill:none;"/><text fill="#000000" font-family="sans-serif" font-size="11" lengthAdjust="spacing" textLength="180" x="27" y="104.4292">age: trafo.duration_to_datetime</text><ellipse cx="18" cy="114.0234" rx="3" ry="3" style="stroke:#038048;stroke-width:1.0;fill:none;"/><text fill="#000000" font-family="sans-serif" font-size="11" lengthAdjust="spacing" textLength="94" x="27" y="117.2339">mtime: datetime</text><ellipse cx="18" cy="126.8281" rx="3" ry="3" style="stroke:#038048;stroke-width:1.0;fill:none;"/><text fill="#000000" font-family="sans-serif" font-size="11" lengthAdjust="spacing" textLength="225" x="27" y="130.0386">last_update: trafo.duration_to_datetime</text><ellipse cx="18" cy="139.6328" rx="3" ry="3" style="stroke:#038048;stroke-width:1.0;fill:none;"/><text fill="#000000" font-family="sans-serif" font-size="11" lengthAdjust="spacing" textLength="90" x="27" y="142.8433">atime: datetime</text><ellipse cx="18" cy="152.4375" rx="3" ry="3" style="stroke:#038048;stroke-width:1.0;fill:none;"/><text fill="#000000" font-family="sans-serif" font-size="11" lengthAdjust="spacing" textLength="226" x="27" y="155.6479">last_access: trafo.duration_to_datetime</text><ellipse cx="18" cy="165.2422" rx="3" ry="3" style="stroke:#038048;stroke-width:1.0;fill:none;"/><text fill="#000000" font-family="sans-serif" font-size="11" lengthAdjust="spacing" textLength="64" x="27" y="168.4526">kind: string</text><line style="stroke:#A80036;stroke-width:1.5;" x1="8" x2="258" y1="175.0469" y2="175.0469"/><!--MD5=[c069b88079f3e36515859a1683f3923c]
class aws_resource--><rect codeLine="14" fill="#FEFECE" filter="url(#f1k0owu35e4eu1)" height="60.8047" id="aws_resource" style="stroke:#A80036;stroke-width:1.5;" width="118" x="246" y="304"/><ellipse cx="261" cy="320" fill="#ADD1B2" rx="11" ry="11" style="stroke:#A80036;stroke-width:1.0;"/><path d="M263.9688,325.6406 Q263.3906,325.9375 262.75,326.0781 Q262.1094,326.2344 261.4063,326.2344 Q258.9063,326.2344 257.5781,324.5938 Q256.2656,322.9375 256.2656,319.8125 Q256.2656,316.6875 257.5781,315.0313 Q258.9063,313.375 261.4063,313.375 Q262.1094,313.375 262.75,313.5313 Q263.4063,313.6875 263.9688,313.9844 L263.9688,316.7031 Q263.3438,316.125 262.75,315.8594 Q262.1563,315.5781 261.5313,315.5781 Q260.1875,315.5781 259.5,316.6563 Q258.8125,317.7188 258.8125,319.8125 Q258.8125,321.9063 259.5,322.9844 Q260.1875,324.0469 261.5313,324.0469 Q262.1563,324.0469 262.75,323.7813 Q263.3438,323.5 263.9688,322.9219 L263.9688,325.6406 Z " fill="#000000"/><text fill="#000000" font-family="sans-serif" font-size="12" lengthAdjust="spacing" textLength="86" x="275" y="324.1543">aws_resource</text><line style="stroke:#A80036;stroke-width:1.5;" x1="247" x2="363" y1="336" y2="336"/><ellipse cx="257" cy="347" rx="3" ry="3" style="stroke:#038048;stroke-width:1.0;fill:none;"/><text fill="#000000" font-family="sans-serif" font-size="11" lengthAdjust="spacing" textLength="60" x="266" y="350.2104">arn: string</text><line style="stroke:#A80036;stroke-width:1.5;" x1="247" x2="363" y1="356.8047" y2="356.8047"/><!--MD5=[ebd6617bd15e73c021fa6286e3295249]
class aws_vpc_peering_connection--><rect codeLine="17" fill="#FEFECE" filter="url(#f1k0owu35e4eu1)" height="60.8047" id="aws_vpc_peering_connection" style="stroke:#A80036;stroke-width:1.5;" width="244" x="122" y="486"/><ellipse cx="150.95" cy="502" fill="#ADD1B2" rx="11" ry="11" style="stroke:#A80036;stroke-width:1.0;"/><path d="M153.9188,507.6406 Q153.3406,507.9375 152.7,508.0781 Q152.0594,508.2344 151.3563,508.2344 Q148.8563,508.2344 147.5281,506.5938 Q146.2156,504.9375 146.2156,501.8125 Q146.2156,498.6875 147.5281,497.0313 Q148.8563,495.375 151.3563,495.375 Q152.0594,495.375 152.7,495.5313 Q153.3563,495.6875 153.9188,495.9844 L153.9188,498.7031 Q153.2938,498.125 152.7,497.8594 Q152.1063,497.5781 151.4813,497.5781 Q150.1375,497.5781 149.45,498.6563 Q148.7625,499.7188 148.7625,501.8125 Q148.7625,503.9063 149.45,504.9844 Q150.1375,506.0469 151.4813,506.0469 Q152.1063,506.0469 152.7,505.7813 Q153.2938,505.5 153.9188,504.9219 L153.9188,507.6406 Z " fill="#000000"/><text fill="#000000" font-family="sans-serif" font-size="12" lengthAdjust="spacing" textLength="181" x="168.05" y="506.1543">aws_vpc_peering_connection</text><line style="stroke:#A80036;stroke-width:1.5;" x1="123" x2="365" y1="518" y2="518"/><ellipse cx="133" cy="529" rx="3" ry="3" style="stroke:#038048;stroke-width:1.0;fill:none;"/><text fill="#000000" font-family="sans-serif" font-size="11" lengthAdjust="spacing" textLength="218" x="142" y="532.2104">vpc_peering_connection_status: string</text><line style="stroke:#A80036;stroke-width:1.5;" x1="123" x2="365" y1="538.8047" y2="538.8047"/><!--MD5=[4e9d2e37369f8f94d3e034385d06dd33]
class peering_connection--><rect codeLine="20" fill="#FEFECE" filter="url(#f1k0owu35e4eu1)" height="48" id="peering_connection" style="stroke:#A80036;stroke-width:1.5;" width="156" x="55" y="310.5"/><ellipse cx="70" cy="326.5" fill="#ADD1B2" rx="11" ry="11" style="stroke:#A80036;stroke-width:1.0;"/><path d="M72.9688,332.1406 Q72.3906,332.4375 71.75,332.5781 Q71.1094,332.7344 70.4063,332.7344 Q67.9063,332.7344 66.5781,331.0938 Q65.2656,329.4375 65.2656,326.3125 Q65.2656,323.1875 66.5781,321.5313 Q67.9063,319.875 70.4063,319.875 Q71.1094,319.875 71.75,320.0313 Q72.4063,320.1875 72.9688,320.4844 L72.9688,323.2031 Q72.3438,322.625 71.75,322.3594 Q71.1563,322.0781 70.5313,322.0781 Q69.1875,322.0781 68.5,323.1563 Q67.8125,324.2188 67.8125,326.3125 Q67.8125,328.4063 68.5,329.4844 Q69.1875,330.5469 70.5313,330.5469 Q71.1563,330.5469 71.75,330.2813 Q72.3438,330 72.9688,329.4219 L72.9688,332.1406 Z " fill="#000000"/><text fill="#000000" font-family="sans-serif" font-size="12" lengthAdjust="spacing" textLength="124" x="84" y="330.6543">peering_connection</text><line style="stroke:#A80036;stroke-width:1.5;" x1="56" x2="210" y1="342.5" y2="342.5"/><line style="stroke:#A80036;stroke-width:1.5;" x1="56" x2="210" y1="350.5" y2="350.5"/><!--MD5=[68273dec79fb1b0c61eb79e66405e3cf]
reverse link aws_resource to aws_vpc_peering_connection--><path codeLine="23" d="M288.4,384.48 C277.43,416.85 263.41,458.23 254.09,485.73 " fill="none" id="aws_resource-backto-aws_vpc_peering_connection" style="stroke:#A80036;stroke-width:1.0;"/><polygon fill="none" points="281.88,381.92,294.93,365.22,295.14,386.41,281.88,381.92" style="stroke:#A80036;stroke-width:1.0;"/><!--MD5=[932804c3a395af4877d0d81d3ab8c012]
reverse link peering_connection to aws_vpc_peering_connection--><path codeLine="24" d="M158.04,376.11 C178.61,409.46 207.26,455.91 225.72,485.85 " fill="none" id="peering_connection-backto-aws_vpc_peering_connection" style="stroke:#A80036;stroke-width:1.0;"/><polygon fill="none" points="151.82,379.36,147.28,358.66,163.74,372.01,151.82,379.36" style="stroke:#A80036;stroke-width:1.0;"/><!--MD5=[5073960f4af5fa4df5ecc168e07f50d9]
reverse link resource to peering_connection--><path codeLine="25" d="M133,203.16 C133,243.25 133,285.12 133,310.25 " fill="none" id="resource-backto-peering_connection" style="stroke:#A80036;stroke-width:1.0;"/><polygon fill="none" points="126,203.09,133,183.09,140,203.09,126,203.09" style="stroke:#A80036;stroke-width:1.0;"/><!--MD5=[a71264edaa31061c9ae7c283078d2da7]
@startuml
skinparam backgroundcolor transparent
class resource {
+ id: string
+ tags: dictionary[string, string]
+ name: string
+ ctime: datetime
+ age: trafo.duration_to_datetime
+ mtime: datetime
+ last_update: trafo.duration_to_datetime
+ atime: datetime
+ last_access: trafo.duration_to_datetime
+ kind: string
}
class aws_resource {
+ arn: string
}
class aws_vpc_peering_connection {
+ vpc_peering_connection_status: string
}
class peering_connection {

}
aws_resource <|- - - aws_vpc_peering_connection
peering_connection <|- - - aws_vpc_peering_connection
resource <|- - - peering_connection
@enduml

PlantUML version 1.2021.16(Wed Dec 08 17:25:22 UTC 2021)
(GPL source distribution)
Java Runtime: OpenJDK Runtime Environment
JVM: OpenJDK 64-Bit Server VM
Default Encoding: UTF-8
Language: en
Country: null
--></g></svg>