<svg xmlns="http://www.w3.org/2000/svg" xmlns:xlink="http://www.w3.org/1999/xlink" width="369" height="673" contentScriptType="application/ecmascript" contentStyleType="text/css" style="width:369px;height:673px;background:#00000000" preserveAspectRatio="none" version="1.1" viewBox="0 0 369 673" zoomAndPan="magnify"><g><rect id="resource" width="256" height="275.836" x="7" y="7" fill="#194875" codeLine="17" rx="2.5" ry="2.5" style="stroke:#000;stroke-width:1.5"/><ellipse cx="90.25" cy="26.895" fill="#1A83AF" rx="11" ry="11" style="stroke:#000;stroke-width:1"/><path fill="#000" d="M93.2188,32.5352 Q92.6406,32.832 92,32.9727 Q91.3594,33.1289 90.6563,33.1289 Q88.1563,33.1289 86.8281,31.4883 Q85.5156,29.832 85.5156,26.707 Q85.5156,23.582 86.8281,21.9258 Q88.1563,20.2695 90.6563,20.2695 Q91.3594,20.2695 92,20.4258 Q92.6563,20.582 93.2188,20.8789 L93.2188,23.5977 Q92.5938,23.0195 92,22.7539 Q91.4063,22.4727 90.7813,22.4727 Q89.4375,22.4727 88.75,23.5508 Q88.0625,24.6133 88.0625,26.707 Q88.0625,28.8008 88.75,29.8789 Q89.4375,30.9414 90.7813,30.9414 Q91.4063,30.9414 92,30.6758 Q92.5938,30.3945 93.2188,29.8164 L93.2188,32.5352 Z"/><text x="115.75" y="32.78" fill="#FFE797" font-family="Helvetica" font-size="17" lengthAdjust="spacing" textLength="71">resource</text><line style="stroke:#000;stroke-width:1.5" x1="8" x2="262" y1="46.789" y2="46.789"/><text x="18" y="65.999" fill="#FFE797" font-family="sans-serif" font-size="11" font-weight="bold" lengthAdjust="spacing" textLength="12">id</text><text x="30" y="65.999" fill="#FFE797" font-family="sans-serif" font-size="11" lengthAdjust="spacing" textLength="41">: string</text><text x="18" y="88.804" fill="#FFE797" font-family="sans-serif" font-size="11" font-weight="bold" lengthAdjust="spacing" textLength="28">tags</text><text x="46" y="88.804" fill="#FFE797" font-family="sans-serif" font-size="11" lengthAdjust="spacing" textLength="145">: dictionary[string, string]</text><text x="18" y="111.609" fill="#FFE797" font-family="sans-serif" font-size="11" font-weight="bold" lengthAdjust="spacing" textLength="35">name</text><text x="53" y="111.609" fill="#FFE797" font-family="sans-serif" font-size="11" lengthAdjust="spacing" textLength="41">: string</text><text x="18" y="134.414" fill="#FFE797" font-family="sans-serif" font-size="11" font-weight="bold" lengthAdjust="spacing" textLength="35">ctime</text><text x="53" y="134.414" fill="#FFE797" font-family="sans-serif" font-size="11" lengthAdjust="spacing" textLength="58">: datetime</text><text x="18" y="157.218" fill="#FFE797" font-family="sans-serif" font-size="11" font-weight="bold" lengthAdjust="spacing" textLength="24">age</text><text x="42" y="157.218" fill="#FFE797" font-family="sans-serif" font-size="11" lengthAdjust="spacing" textLength="159">: trafo.duration_to_datetime</text><text x="18" y="180.023" fill="#FFE797" font-family="sans-serif" font-size="11" font-weight="bold" lengthAdjust="spacing" textLength="39">mtime</text><text x="57" y="180.023" fill="#FFE797" font-family="sans-serif" font-size="11" lengthAdjust="spacing" textLength="58">: datetime</text><text x="18" y="202.828" fill="#FFE797" font-family="sans-serif" font-size="11" font-weight="bold" lengthAdjust="spacing" textLength="75">last_update</text><text x="93" y="202.828" fill="#FFE797" font-family="sans-serif" font-size="11" lengthAdjust="spacing" textLength="159">: trafo.duration_to_datetime</text><text x="18" y="225.632" fill="#FFE797" font-family="sans-serif" font-size="11" font-weight="bold" lengthAdjust="spacing" textLength="36">atime</text><text x="54" y="225.632" fill="#FFE797" font-family="sans-serif" font-size="11" lengthAdjust="spacing" textLength="58">: datetime</text><text x="18" y="248.437" fill="#FFE797" font-family="sans-serif" font-size="11" font-weight="bold" lengthAdjust="spacing" textLength="74">last_access</text><text x="92" y="248.437" fill="#FFE797" font-family="sans-serif" font-size="11" lengthAdjust="spacing" textLength="159">: trafo.duration_to_datetime</text><text x="18" y="271.242" fill="#FFE797" font-family="sans-serif" font-size="11" font-weight="bold" lengthAdjust="spacing" textLength="27">kind</text><text x="45" y="271.242" fill="#FFE797" font-family="sans-serif" font-size="11" lengthAdjust="spacing" textLength="41">: string</text><rect id="aws_resource" width="155" height="70.594" x="207.5" y="404" fill="#194875" codeLine="29" rx="2.5" ry="2.5" style="stroke:#000;stroke-width:1.5"/><ellipse cx="222.5" cy="423.894" fill="#1A83AF" rx="11" ry="11" style="stroke:#000;stroke-width:1"/><path fill="#000" d="M225.4688,429.5352 Q224.8906,429.832 224.25,429.9727 Q223.6094,430.1289 222.9063,430.1289 Q220.4063,430.1289 219.0781,428.4883 Q217.7656,426.832 217.7656,423.707 Q217.7656,420.582 219.0781,418.9258 Q220.4063,417.2695 222.9063,417.2695 Q223.6094,417.2695 224.25,417.4258 Q224.9063,417.582 225.4688,417.8789 L225.4688,420.5977 Q224.8438,420.0195 224.25,419.7539 Q223.6563,419.4727 223.0313,419.4727 Q221.6875,419.4727 221,420.5508 Q220.3125,421.6133 220.3125,423.707 Q220.3125,425.8008 221,426.8789 Q221.6875,427.9414 223.0313,427.9414 Q223.6563,427.9414 224.25,427.6758 Q224.8438,427.3945 225.4688,426.8164 L225.4688,429.5352 Z"/><text x="241.5" y="429.78" fill="#FFE797" font-family="Helvetica" font-size="17" lengthAdjust="spacing" textLength="113">aws_resource</text><line style="stroke:#000;stroke-width:1.5" x1="208.5" x2="361.5" y1="443.789" y2="443.789"/><text x="218.5" y="463" fill="#FFE797" font-family="sans-serif" font-size="11" font-weight="bold" lengthAdjust="spacing" textLength="21">arn</text><text x="239.5" y="463" fill="#FFE797" font-family="sans-serif" font-size="11" lengthAdjust="spacing" textLength="41">: string</text><rect id="role" width="74" height="39.789" x="98" y="419.5" fill="#194875" codeLine="32" rx="2.5" ry="2.5" style="stroke:#000;stroke-width:1.5"/><ellipse cx="113" cy="439.394" fill="#1A83AF" rx="11" ry="11" style="stroke:#000;stroke-width:1"/><path fill="#000" d="M115.9688,445.0352 Q115.3906,445.332 114.75,445.4727 Q114.1094,445.6289 113.4063,445.6289 Q110.9063,445.6289 109.5781,443.9883 Q108.2656,442.332 108.2656,439.207 Q108.2656,436.082 109.5781,434.4258 Q110.9063,432.7695 113.4063,432.7695 Q114.1094,432.7695 114.75,432.9258 Q115.4063,433.082 115.9688,433.3789 L115.9688,436.0977 Q115.3438,435.5195 114.75,435.2539 Q114.1563,434.9727 113.5313,434.9727 Q112.1875,434.9727 111.5,436.0508 Q110.8125,437.1133 110.8125,439.207 Q110.8125,441.3008 111.5,442.3789 Q112.1875,443.4414 113.5313,443.4414 Q114.1563,443.4414 114.75,443.1758 Q115.3438,442.8945 115.9688,442.3164 L115.9688,445.0352 Z"/><text x="132" y="445.28" fill="#FFE797" font-family="Helvetica" font-size="17" lengthAdjust="spacing" textLength="32">role</text><rect id="aws_iam_role" width="157" height="70.594" x="131.5" y="596" fill="#194875" codeLine="35" rx="2.5" ry="2.5" style="stroke:#000;stroke-width:1.5"/><ellipse cx="146.5" cy="615.894" fill="#1A83AF" rx="11" ry="11" style="stroke:#000;stroke-width:1"/><path fill="#000" d="M149.4688,621.5352 Q148.8906,621.832 148.25,621.9727 Q147.6094,622.1289 146.9063,622.1289 Q144.4063,622.1289 143.0781,620.4883 Q141.7656,618.832 141.7656,615.707 Q141.7656,612.582 143.0781,610.9258 Q144.4063,609.2695 146.9063,609.2695 Q147.6094,609.2695 148.25,609.4258 Q148.9063,609.582 149.4688,609.8789 L149.4688,612.5977 Q148.8438,612.0195 148.25,611.7539 Q147.6563,611.4727 147.0313,611.4727 Q145.6875,611.4727 145,612.5508 Q144.3125,613.6133 144.3125,615.707 Q144.3125,617.8008 145,618.8789 Q145.6875,619.9414 147.0313,619.9414 Q147.6563,619.9414 148.25,619.6758 Q148.8438,619.3945 149.4688,618.8164 L149.4688,621.5352 Z"/><text x="165.5" y="621.78" fill="#FFE797" font-family="Helvetica" font-size="17" lengthAdjust="spacing" textLength="115">aws_iam_role</text><line style="stroke:#000;stroke-width:1.5" x1="132.5" x2="287.5" y1="635.789" y2="635.789"/><text x="142.5" y="655" fill="#FFE797" font-family="sans-serif" font-size="11" font-weight="bold" lengthAdjust="spacing" textLength="81">role_policies</text><text x="223.5" y="655" fill="#FFE797" font-family="sans-serif" font-size="11" lengthAdjust="spacing" textLength="36">: any[]</text><path id="resource-backto-role" fill="none" d="M135,303.51 C135,349.86 135,394.69 135,419.24" codeLine="38" style="stroke:#ffaf37;stroke-width:2"/><polygon fill="none" points="128 303.26 135 283.26 142 303.26 128 303.26" style="stroke:#ffaf37;stroke-width:2"/><path id="aws_resource-backto-aws_iam_role" fill="none" d="M263.9,493.96 C251.01,526.61 234.9,567.41 223.67,595.87" codeLine="39" style="stroke:#ffaf37;stroke-width:2"/><polygon fill="none" points="257.39 491.38 271.24 475.35 270.41 496.52 257.39 491.38" style="stroke:#ffaf37;stroke-width:2"/><path id="role-backto-aws_iam_role" fill="none" d="M150.11,478.78 C163.62,513 183.24,562.71 196.3,595.79" codeLine="40" style="stroke:#ffaf37;stroke-width:2"/><polygon fill="none" points="143.44 480.94 142.6 459.76 156.46 475.8 143.44 480.94" style="stroke:#ffaf37;stroke-width:2"/></g></svg>