<svg xmlns="http://www.w3.org/2000/svg" xmlns:xlink="http://www.w3.org/1999/xlink" width="434" height="673" contentScriptType="application/ecmascript" contentStyleType="text/css" style="width:434px;height:673px;background:#00000000" preserveAspectRatio="none" version="1.1" viewBox="0 0 434 673" zoomAndPan="magnify"><g><rect id="resource" width="256" height="275.836" x="7" y="7" fill="#194875" codeLine="17" rx="2.5" ry="2.5" style="stroke:#000;stroke-width:1.5"/><ellipse cx="90.25" cy="26.895" fill="#1A83AF" rx="11" ry="11" style="stroke:#000;stroke-width:1"/><path fill="#000" d="M93.2188,32.5352 Q92.6406,32.832 92,32.9727 Q91.3594,33.1289 90.6563,33.1289 Q88.1563,33.1289 86.8281,31.4883 Q85.5156,29.832 85.5156,26.707 Q85.5156,23.582 86.8281,21.9258 Q88.1563,20.2695 90.6563,20.2695 Q91.3594,20.2695 92,20.4258 Q92.6563,20.582 93.2188,20.8789 L93.2188,23.5977 Q92.5938,23.0195 92,22.7539 Q91.4063,22.4727 90.7813,22.4727 Q89.4375,22.4727 88.75,23.5508 Q88.0625,24.6133 88.0625,26.707 Q88.0625,28.8008 88.75,29.8789 Q89.4375,30.9414 90.7813,30.9414 Q91.4063,30.9414 92,30.6758 Q92.5938,30.3945 93.2188,29.8164 L93.2188,32.5352 Z"/><text x="115.75" y="32.78" fill="#FFE797" font-family="Helvetica" font-size="17" lengthAdjust="spacing" textLength="71">resource</text><line style="stroke:#000;stroke-width:1.5" x1="8" x2="262" y1="46.789" y2="46.789"/><text x="18" y="65.999" fill="#FFE797" font-family="sans-serif" font-size="11" font-weight="bold" lengthAdjust="spacing" textLength="12">id</text><text x="30" y="65.999" fill="#FFE797" font-family="sans-serif" font-size="11" lengthAdjust="spacing" textLength="41">: string</text><text x="18" y="88.804" fill="#FFE797" font-family="sans-serif" font-size="11" font-weight="bold" lengthAdjust="spacing" textLength="28">tags</text><text x="46" y="88.804" fill="#FFE797" font-family="sans-serif" font-size="11" lengthAdjust="spacing" textLength="145">: dictionary[string, string]</text><text x="18" y="111.609" fill="#FFE797" font-family="sans-serif" font-size="11" font-weight="bold" lengthAdjust="spacing" textLength="35">name</text><text x="53" y="111.609" fill="#FFE797" font-family="sans-serif" font-size="11" lengthAdjust="spacing" textLength="41">: string</text><text x="18" y="134.414" fill="#FFE797" font-family="sans-serif" font-size="11" font-weight="bold" lengthAdjust="spacing" textLength="35">ctime</text><text x="53" y="134.414" fill="#FFE797" font-family="sans-serif" font-size="11" lengthAdjust="spacing" textLength="58">: datetime</text><text x="18" y="157.218" fill="#FFE797" font-family="sans-serif" font-size="11" font-weight="bold" lengthAdjust="spacing" textLength="24">age</text><text x="42" y="157.218" fill="#FFE797" font-family="sans-serif" font-size="11" lengthAdjust="spacing" textLength="159">: trafo.duration_to_datetime</text><text x="18" y="180.023" fill="#FFE797" font-family="sans-serif" font-size="11" font-weight="bold" lengthAdjust="spacing" textLength="39">mtime</text><text x="57" y="180.023" fill="#FFE797" font-family="sans-serif" font-size="11" lengthAdjust="spacing" textLength="58">: datetime</text><text x="18" y="202.828" fill="#FFE797" font-family="sans-serif" font-size="11" font-weight="bold" lengthAdjust="spacing" textLength="75">last_update</text><text x="93" y="202.828" fill="#FFE797" font-family="sans-serif" font-size="11" lengthAdjust="spacing" textLength="159">: trafo.duration_to_datetime</text><text x="18" y="225.632" fill="#FFE797" font-family="sans-serif" font-size="11" font-weight="bold" lengthAdjust="spacing" textLength="36">atime</text><text x="54" y="225.632" fill="#FFE797" font-family="sans-serif" font-size="11" lengthAdjust="spacing" textLength="58">: datetime</text><text x="18" y="248.437" fill="#FFE797" font-family="sans-serif" font-size="11" font-weight="bold" lengthAdjust="spacing" textLength="74">last_access</text><text x="92" y="248.437" fill="#FFE797" font-family="sans-serif" font-size="11" lengthAdjust="spacing" textLength="159">: trafo.duration_to_datetime</text><text x="18" y="271.242" fill="#FFE797" font-family="sans-serif" font-size="11" font-weight="bold" lengthAdjust="spacing" textLength="27">kind</text><text x="45" y="271.242" fill="#FFE797" font-family="sans-serif" font-size="11" lengthAdjust="spacing" textLength="41">: string</text><rect id="aws_resource" width="155" height="70.594" x="272.5" y="404" fill="#194875" codeLine="29" rx="2.5" ry="2.5" style="stroke:#000;stroke-width:1.5"/><ellipse cx="287.5" cy="423.894" fill="#1A83AF" rx="11" ry="11" style="stroke:#000;stroke-width:1"/><path fill="#000" d="M290.4688,429.5352 Q289.8906,429.832 289.25,429.9727 Q288.6094,430.1289 287.9063,430.1289 Q285.4063,430.1289 284.0781,428.4883 Q282.7656,426.832 282.7656,423.707 Q282.7656,420.582 284.0781,418.9258 Q285.4063,417.2695 287.9063,417.2695 Q288.6094,417.2695 289.25,417.4258 Q289.9063,417.582 290.4688,417.8789 L290.4688,420.5977 Q289.8438,420.0195 289.25,419.7539 Q288.6563,419.4727 288.0313,419.4727 Q286.6875,419.4727 286,420.5508 Q285.3125,421.6133 285.3125,423.707 Q285.3125,425.8008 286,426.8789 Q286.6875,427.9414 288.0313,427.9414 Q288.6563,427.9414 289.25,427.6758 Q289.8438,427.3945 290.4688,426.8164 L290.4688,429.5352 Z"/><text x="306.5" y="429.78" fill="#FFE797" font-family="Helvetica" font-size="17" lengthAdjust="spacing" textLength="113">aws_resource</text><line style="stroke:#000;stroke-width:1.5" x1="273.5" x2="426.5" y1="443.789" y2="443.789"/><text x="283.5" y="463" fill="#FFE797" font-family="sans-serif" font-size="11" font-weight="bold" lengthAdjust="spacing" textLength="21">arn</text><text x="304.5" y="463" fill="#FFE797" font-family="sans-serif" font-size="11" lengthAdjust="spacing" textLength="41">: string</text><rect id="aws_vpc_peering_connection" width="284" height="70.594" x="136" y="596" fill="#194875" codeLine="32" rx="2.5" ry="2.5" style="stroke:#000;stroke-width:1.5"/><ellipse cx="151" cy="615.894" fill="#1A83AF" rx="11" ry="11" style="stroke:#000;stroke-width:1"/><path fill="#000" d="M153.9688,621.5352 Q153.3906,621.832 152.75,621.9727 Q152.1094,622.1289 151.4063,622.1289 Q148.9063,622.1289 147.5781,620.4883 Q146.2656,618.832 146.2656,615.707 Q146.2656,612.582 147.5781,610.9258 Q148.9063,609.2695 151.4063,609.2695 Q152.1094,609.2695 152.75,609.4258 Q153.4063,609.582 153.9688,609.8789 L153.9688,612.5977 Q153.3438,612.0195 152.75,611.7539 Q152.1563,611.4727 151.5313,611.4727 Q150.1875,611.4727 149.5,612.5508 Q148.8125,613.6133 148.8125,615.707 Q148.8125,617.8008 149.5,618.8789 Q150.1875,619.9414 151.5313,619.9414 Q152.1563,619.9414 152.75,619.6758 Q153.3438,619.3945 153.9688,618.8164 L153.9688,621.5352 Z"/><text x="170" y="621.78" fill="#FFE797" font-family="Helvetica" font-size="17" lengthAdjust="spacing" textLength="242">aws_vpc_peering_connection</text><line style="stroke:#000;stroke-width:1.5" x1="137" x2="419" y1="635.789" y2="635.789"/><text x="147" y="655" fill="#FFE797" font-family="sans-serif" font-size="11" font-weight="bold" lengthAdjust="spacing" textLength="200">vpc_peering_connection_status</text><text x="347" y="655" fill="#FFE797" font-family="sans-serif" font-size="11" lengthAdjust="spacing" textLength="41">: string</text><rect id="peering_connection" width="205" height="39.789" x="32.5" y="419.5" fill="#194875" codeLine="35" rx="2.5" ry="2.5" style="stroke:#000;stroke-width:1.5"/><ellipse cx="47.5" cy="439.394" fill="#1A83AF" rx="11" ry="11" style="stroke:#000;stroke-width:1"/><path fill="#000" d="M50.4688,445.0352 Q49.8906,445.332 49.25,445.4727 Q48.6094,445.6289 47.9063,445.6289 Q45.4063,445.6289 44.0781,443.9883 Q42.7656,442.332 42.7656,439.207 Q42.7656,436.082 44.0781,434.4258 Q45.4063,432.7695 47.9063,432.7695 Q48.6094,432.7695 49.25,432.9258 Q49.9063,433.082 50.4688,433.3789 L50.4688,436.0977 Q49.8438,435.5195 49.25,435.2539 Q48.6563,434.9727 48.0313,434.9727 Q46.6875,434.9727 46,436.0508 Q45.3125,437.1133 45.3125,439.207 Q45.3125,441.3008 46,442.3789 Q46.6875,443.4414 48.0313,443.4414 Q48.6563,443.4414 49.25,443.1758 Q49.8438,442.8945 50.4688,442.3164 L50.4688,445.0352 Z"/><text x="66.5" y="445.28" fill="#FFE797" font-family="Helvetica" font-size="17" lengthAdjust="spacing" textLength="163">peering_connection</text><path id="aws_resource-backto-aws_vpc_peering_connection" fill="none" d="M329.57,494.42 C317.22,526.99 301.86,567.55 291.12,595.87" codeLine="38" style="stroke:#ffaf37;stroke-width:2"/><polygon fill="none" points="323.16 491.57 336.79 475.35 336.25 496.53 323.16 491.57" style="stroke:#ffaf37;stroke-width:2"/><path id="peering_connection-backto-aws_vpc_peering_connection" fill="none" d="M161.65,475.91 C187.44,510.18 226.28,561.78 251.88,595.79" codeLine="39" style="stroke:#ffaf37;stroke-width:2"/><polygon fill="none" points="155.93 479.95 149.5 459.76 167.12 471.53 155.93 479.95" style="stroke:#ffaf37;stroke-width:2"/><path id="resource-backto-peering_connection" fill="none" d="M135,303.51 C135,349.86 135,394.69 135,419.24" codeLine="40" style="stroke:#ffaf37;stroke-width:2"/><polygon fill="none" points="128 303.26 135 283.26 142 303.26 128 303.26" style="stroke:#ffaf37;stroke-width:2"/></g></svg>