<svg xmlns="http://www.w3.org/2000/svg" xmlns:xlink="http://www.w3.org/1999/xlink" width="387" height="586" contentScriptType="application/ecmascript" contentStyleType="text/css" style="width:387px;height:586px;background:#00000000" preserveAspectRatio="none" version="1.1" viewBox="0 0 387 586" zoomAndPan="magnify"><defs><filter id="f1ebiiummk65bm" width="300%" height="300%" x="-1" y="-1"><feGaussianBlur result="blurOut" stdDeviation="2"/><feColorMatrix in="blurOut" result="blurOut2" type="matrix" values="0 0 0 0 0 0 0 0 0 0 0 0 0 0 0 0 0 0 .4 0"/><feOffset dx="4" dy="4" in="blurOut2" result="blurOut3"/><feBlend in="SourceGraphic" in2="blurOut3" mode="normal"/></filter></defs><g><rect id="resource" width="252" height="176.047" x="7" y="7" fill="#FEFECE" codeLine="2" filter="url(#f1ebiiummk65bm)" style="stroke:#a80036;stroke-width:1.5"/><ellipse cx="100.75" cy="23" fill="#ADD1B2" rx="11" ry="11" style="stroke:#a80036;stroke-width:1"/><path fill="#000" d="M103.7188,28.6406 Q103.1406,28.9375 102.5,29.0781 Q101.8594,29.2344 101.1563,29.2344 Q98.6563,29.2344 97.3281,27.5938 Q96.0156,25.9375 96.0156,22.8125 Q96.0156,19.6875 97.3281,18.0313 Q98.6563,16.375 101.1563,16.375 Q101.8594,16.375 102.5,16.5313 Q103.1563,16.6875 103.7188,16.9844 L103.7188,19.7031 Q103.0938,19.125 102.5,18.8594 Q101.9063,18.5781 101.2813,18.5781 Q99.9375,18.5781 99.25,19.6563 Q98.5625,20.7188 98.5625,22.8125 Q98.5625,24.9063 99.25,25.9844 Q99.9375,27.0469 101.2813,27.0469 Q101.9063,27.0469 102.5,26.7813 Q103.0938,26.5 103.7188,25.9219 L103.7188,28.6406 Z"/><text x="121.25" y="27.154" fill="#000" font-family="sans-serif" font-size="12" lengthAdjust="spacing" textLength="56">resource</text><line style="stroke:#a80036;stroke-width:1.5" x1="8" x2="258" y1="39" y2="39"/><ellipse cx="18" cy="50" rx="3" ry="3" style="stroke:#038048;stroke-width:1;fill:none"/><text x="27" y="53.21" fill="#000" font-family="sans-serif" font-size="11" lengthAdjust="spacing" textLength="51">id: string</text><ellipse cx="18" cy="62.805" rx="3" ry="3" style="stroke:#038048;stroke-width:1;fill:none"/><text x="27" y="66.015" fill="#000" font-family="sans-serif" font-size="11" lengthAdjust="spacing" textLength="170">tags: dictionary[string, string]</text><ellipse cx="18" cy="75.609" rx="3" ry="3" style="stroke:#038048;stroke-width:1;fill:none"/><text x="27" y="78.82" fill="#000" font-family="sans-serif" font-size="11" lengthAdjust="spacing" textLength="73">name: string</text><ellipse cx="18" cy="88.414" rx="3" ry="3" style="stroke:#038048;stroke-width:1;fill:none"/><text x="27" y="91.624" fill="#000" font-family="sans-serif" font-size="11" lengthAdjust="spacing" textLength="89">ctime: datetime</text><ellipse cx="18" cy="101.219" rx="3" ry="3" style="stroke:#038048;stroke-width:1;fill:none"/><text x="27" y="104.429" fill="#000" font-family="sans-serif" font-size="11" lengthAdjust="spacing" textLength="180">age: trafo.duration_to_datetime</text><ellipse cx="18" cy="114.023" rx="3" ry="3" style="stroke:#038048;stroke-width:1;fill:none"/><text x="27" y="117.234" fill="#000" font-family="sans-serif" font-size="11" lengthAdjust="spacing" textLength="94">mtime: datetime</text><ellipse cx="18" cy="126.828" rx="3" ry="3" style="stroke:#038048;stroke-width:1;fill:none"/><text x="27" y="130.039" fill="#000" font-family="sans-serif" font-size="11" lengthAdjust="spacing" textLength="225">last_update: trafo.duration_to_datetime</text><ellipse cx="18" cy="139.633" rx="3" ry="3" style="stroke:#038048;stroke-width:1;fill:none"/><text x="27" y="142.843" fill="#000" font-family="sans-serif" font-size="11" lengthAdjust="spacing" textLength="90">atime: datetime</text><ellipse cx="18" cy="152.438" rx="3" ry="3" style="stroke:#038048;stroke-width:1;fill:none"/><text x="27" y="155.648" fill="#000" font-family="sans-serif" font-size="11" lengthAdjust="spacing" textLength="226">last_access: trafo.duration_to_datetime</text><ellipse cx="18" cy="165.242" rx="3" ry="3" style="stroke:#038048;stroke-width:1;fill:none"/><text x="27" y="168.453" fill="#000" font-family="sans-serif" font-size="11" lengthAdjust="spacing" textLength="64">kind: string</text><line style="stroke:#a80036;stroke-width:1.5" x1="8" x2="258" y1="175.047" y2="175.047"/><rect id="aws_resource" width="118" height="60.805" x="255" y="323" fill="#FEFECE" codeLine="14" filter="url(#f1ebiiummk65bm)" style="stroke:#a80036;stroke-width:1.5"/><ellipse cx="270" cy="339" fill="#ADD1B2" rx="11" ry="11" style="stroke:#a80036;stroke-width:1"/><path fill="#000" d="M272.9688,344.6406 Q272.3906,344.9375 271.75,345.0781 Q271.1094,345.2344 270.4063,345.2344 Q267.9063,345.2344 266.5781,343.5938 Q265.2656,341.9375 265.2656,338.8125 Q265.2656,335.6875 266.5781,334.0313 Q267.9063,332.375 270.4063,332.375 Q271.1094,332.375 271.75,332.5313 Q272.4063,332.6875 272.9688,332.9844 L272.9688,335.7031 Q272.3438,335.125 271.75,334.8594 Q271.1563,334.5781 270.5313,334.5781 Q269.1875,334.5781 268.5,335.6563 Q267.8125,336.7188 267.8125,338.8125 Q267.8125,340.9063 268.5,341.9844 Q269.1875,343.0469 270.5313,343.0469 Q271.1563,343.0469 271.75,342.7813 Q272.3438,342.5 272.9688,341.9219 L272.9688,344.6406 Z"/><text x="284" y="343.154" fill="#000" font-family="sans-serif" font-size="12" lengthAdjust="spacing" textLength="86">aws_resource</text><line style="stroke:#a80036;stroke-width:1.5" x1="256" x2="372" y1="355" y2="355"/><ellipse cx="266" cy="366" rx="3" ry="3" style="stroke:#038048;stroke-width:1;fill:none"/><text x="275" y="369.21" fill="#000" font-family="sans-serif" font-size="11" lengthAdjust="spacing" textLength="60">arn: string</text><line style="stroke:#a80036;stroke-width:1.5" x1="256" x2="372" y1="375.805" y2="375.805"/><rect id="instance" width="173" height="99.219" x="46.5" y="304" fill="#FEFECE" codeLine="17" filter="url(#f1ebiiummk65bm)" style="stroke:#a80036;stroke-width:1.5"/><ellipse cx="101.75" cy="320" fill="#ADD1B2" rx="11" ry="11" style="stroke:#a80036;stroke-width:1"/><path fill="#000" d="M104.7188,325.6406 Q104.1406,325.9375 103.5,326.0781 Q102.8594,326.2344 102.1563,326.2344 Q99.6563,326.2344 98.3281,324.5938 Q97.0156,322.9375 97.0156,319.8125 Q97.0156,316.6875 98.3281,315.0313 Q99.6563,313.375 102.1563,313.375 Q102.8594,313.375 103.5,313.5313 Q104.1563,313.6875 104.7188,313.9844 L104.7188,316.7031 Q104.0938,316.125 103.5,315.8594 Q102.9063,315.5781 102.2813,315.5781 Q100.9375,315.5781 100.25,316.6563 Q99.5625,317.7188 99.5625,319.8125 Q99.5625,321.9063 100.25,322.9844 Q100.9375,324.0469 102.2813,324.0469 Q102.9063,324.0469 103.5,323.7813 Q104.0938,323.5 104.7188,322.9219 L104.7188,325.6406 Z"/><text x="122.25" y="324.154" fill="#000" font-family="sans-serif" font-size="12" lengthAdjust="spacing" textLength="54">instance</text><line style="stroke:#a80036;stroke-width:1.5" x1="47.5" x2="218.5" y1="336" y2="336"/><ellipse cx="57.5" cy="347" rx="3" ry="3" style="stroke:#038048;stroke-width:1;fill:none"/><text x="66.5" y="350.21" fill="#000" font-family="sans-serif" font-size="11" lengthAdjust="spacing" textLength="132">instance_cores: double</text><ellipse cx="57.5" cy="359.805" rx="3" ry="3" style="stroke:#038048;stroke-width:1;fill:none"/><text x="66.5" y="363.015" fill="#000" font-family="sans-serif" font-size="11" lengthAdjust="spacing" textLength="147">instance_memory: double</text><ellipse cx="57.5" cy="372.609" rx="3" ry="3" style="stroke:#038048;stroke-width:1;fill:none"/><text x="66.5" y="375.82" fill="#000" font-family="sans-serif" font-size="11" lengthAdjust="spacing" textLength="119">instance_type: string</text><ellipse cx="57.5" cy="385.414" rx="3" ry="3" style="stroke:#038048;stroke-width:1;fill:none"/><text x="66.5" y="388.625" fill="#000" font-family="sans-serif" font-size="11" lengthAdjust="spacing" textLength="131">instance_status: string</text><line style="stroke:#a80036;stroke-width:1.5" x1="47.5" x2="218.5" y1="395.219" y2="395.219"/><rect id="aws_ec2_instance" width="145" height="48" x="150.5" y="524" fill="#FEFECE" codeLine="23" filter="url(#f1ebiiummk65bm)" style="stroke:#a80036;stroke-width:1.5"/><ellipse cx="165.5" cy="540" fill="#ADD1B2" rx="11" ry="11" style="stroke:#a80036;stroke-width:1"/><path fill="#000" d="M168.4688,545.6406 Q167.8906,545.9375 167.25,546.0781 Q166.6094,546.2344 165.9063,546.2344 Q163.4063,546.2344 162.0781,544.5938 Q160.7656,542.9375 160.7656,539.8125 Q160.7656,536.6875 162.0781,535.0313 Q163.4063,533.375 165.9063,533.375 Q166.6094,533.375 167.25,533.5313 Q167.9063,533.6875 168.4688,533.9844 L168.4688,536.7031 Q167.8438,536.125 167.25,535.8594 Q166.6563,535.5781 166.0313,535.5781 Q164.6875,535.5781 164,536.6563 Q163.3125,537.7188 163.3125,539.8125 Q163.3125,541.9063 164,542.9844 Q164.6875,544.0469 166.0313,544.0469 Q166.6563,544.0469 167.25,543.7813 Q167.8438,543.5 168.4688,542.9219 L168.4688,545.6406 Z"/><text x="179.5" y="544.154" fill="#000" font-family="sans-serif" font-size="12" lengthAdjust="spacing" textLength="113">aws_ec2_instance</text><line style="stroke:#a80036;stroke-width:1.5" x1="151.5" x2="294.5" y1="556" y2="556"/><line style="stroke:#a80036;stroke-width:1.5" x1="151.5" x2="294.5" y1="564" y2="564"/><path id="resource-backto-instance" fill="none" d="M133,203.4 C133,238.27 133,275.26 133,303.67" codeLine="26" style="stroke:#a80036;stroke-width:1"/><polygon fill="none" points="126 203.2 133 183.2 140 203.2 126 203.2" style="stroke:#a80036;stroke-width:1"/><path id="aws_resource-backto-aws_ec2_instance" fill="none" d="M291.35,402.42 C273.02,441.18 248.02,494.07 233.89,523.96" codeLine="27" style="stroke:#a80036;stroke-width:1"/><polygon fill="none" points="285.1 399.25 299.98 384.16 297.76 405.23 285.1 399.25" style="stroke:#a80036;stroke-width:1"/><path id="instance-backto-aws_ec2_instance" fill="none" d="M164.36,421.57 C180.99,457.16 200.38,498.62 212.17,523.83" codeLine="28" style="stroke:#a80036;stroke-width:1"/><polygon fill="none" points="157.84 424.16 155.71 403.08 170.52 418.23 157.84 424.16" style="stroke:#a80036;stroke-width:1"/></g></svg>