<svg xmlns="http://www.w3.org/2000/svg" xmlns:xlink="http://www.w3.org/1999/xlink" width="442" height="855" contentScriptType="application/ecmascript" contentStyleType="text/css" style="width:442px;height:855px;background:#00000000" preserveAspectRatio="none" version="1.1" viewBox="0 0 442 855" zoomAndPan="magnify"><g><rect id="resource" width="256" height="275.836" x="7" y="7" fill="#194875" codeLine="17" rx="2.5" ry="2.5" style="stroke:#000;stroke-width:1.5"/><ellipse cx="90.25" cy="26.895" fill="#1A83AF" rx="11" ry="11" style="stroke:#000;stroke-width:1"/><path fill="#000" d="M93.2188,32.5352 Q92.6406,32.832 92,32.9727 Q91.3594,33.1289 90.6563,33.1289 Q88.1563,33.1289 86.8281,31.4883 Q85.5156,29.832 85.5156,26.707 Q85.5156,23.582 86.8281,21.9258 Q88.1563,20.2695 90.6563,20.2695 Q91.3594,20.2695 92,20.4258 Q92.6563,20.582 93.2188,20.8789 L93.2188,23.5977 Q92.5938,23.0195 92,22.7539 Q91.4063,22.4727 90.7813,22.4727 Q89.4375,22.4727 88.75,23.5508 Q88.0625,24.6133 88.0625,26.707 Q88.0625,28.8008 88.75,29.8789 Q89.4375,30.9414 90.7813,30.9414 Q91.4063,30.9414 92,30.6758 Q92.5938,30.3945 93.2188,29.8164 L93.2188,32.5352 Z"/><text x="115.75" y="32.78" fill="#FFE797" font-family="Helvetica" font-size="17" lengthAdjust="spacing" textLength="71">resource</text><line style="stroke:#000;stroke-width:1.5" x1="8" x2="262" y1="46.789" y2="46.789"/><text x="18" y="65.999" fill="#FFE797" font-family="sans-serif" font-size="11" font-weight="bold" lengthAdjust="spacing" textLength="12">id</text><text x="30" y="65.999" fill="#FFE797" font-family="sans-serif" font-size="11" lengthAdjust="spacing" textLength="41">: string</text><text x="18" y="88.804" fill="#FFE797" font-family="sans-serif" font-size="11" font-weight="bold" lengthAdjust="spacing" textLength="28">tags</text><text x="46" y="88.804" fill="#FFE797" font-family="sans-serif" font-size="11" lengthAdjust="spacing" textLength="145">: dictionary[string, string]</text><text x="18" y="111.609" fill="#FFE797" font-family="sans-serif" font-size="11" font-weight="bold" lengthAdjust="spacing" textLength="35">name</text><text x="53" y="111.609" fill="#FFE797" font-family="sans-serif" font-size="11" lengthAdjust="spacing" textLength="41">: string</text><text x="18" y="134.414" fill="#FFE797" font-family="sans-serif" font-size="11" font-weight="bold" lengthAdjust="spacing" textLength="35">ctime</text><text x="53" y="134.414" fill="#FFE797" font-family="sans-serif" font-size="11" lengthAdjust="spacing" textLength="58">: datetime</text><text x="18" y="157.218" fill="#FFE797" font-family="sans-serif" font-size="11" font-weight="bold" lengthAdjust="spacing" textLength="24">age</text><text x="42" y="157.218" fill="#FFE797" font-family="sans-serif" font-size="11" lengthAdjust="spacing" textLength="159">: trafo.duration_to_datetime</text><text x="18" y="180.023" fill="#FFE797" font-family="sans-serif" font-size="11" font-weight="bold" lengthAdjust="spacing" textLength="39">mtime</text><text x="57" y="180.023" fill="#FFE797" font-family="sans-serif" font-size="11" lengthAdjust="spacing" textLength="58">: datetime</text><text x="18" y="202.828" fill="#FFE797" font-family="sans-serif" font-size="11" font-weight="bold" lengthAdjust="spacing" textLength="75">last_update</text><text x="93" y="202.828" fill="#FFE797" font-family="sans-serif" font-size="11" lengthAdjust="spacing" textLength="159">: trafo.duration_to_datetime</text><text x="18" y="225.632" fill="#FFE797" font-family="sans-serif" font-size="11" font-weight="bold" lengthAdjust="spacing" textLength="36">atime</text><text x="54" y="225.632" fill="#FFE797" font-family="sans-serif" font-size="11" lengthAdjust="spacing" textLength="58">: datetime</text><text x="18" y="248.437" fill="#FFE797" font-family="sans-serif" font-size="11" font-weight="bold" lengthAdjust="spacing" textLength="74">last_access</text><text x="92" y="248.437" fill="#FFE797" font-family="sans-serif" font-size="11" lengthAdjust="spacing" textLength="159">: trafo.duration_to_datetime</text><text x="18" y="271.242" fill="#FFE797" font-family="sans-serif" font-size="11" font-weight="bold" lengthAdjust="spacing" textLength="27">kind</text><text x="45" y="271.242" fill="#FFE797" font-family="sans-serif" font-size="11" lengthAdjust="spacing" textLength="41">: string</text><rect id="aws_resource" width="155" height="70.594" x="280.5" y="495" fill="#194875" codeLine="29" rx="2.5" ry="2.5" style="stroke:#000;stroke-width:1.5"/><ellipse cx="295.5" cy="514.894" fill="#1A83AF" rx="11" ry="11" style="stroke:#000;stroke-width:1"/><path fill="#000" d="M298.4688,520.5352 Q297.8906,520.832 297.25,520.9727 Q296.6094,521.1289 295.9063,521.1289 Q293.4063,521.1289 292.0781,519.4883 Q290.7656,517.832 290.7656,514.707 Q290.7656,511.582 292.0781,509.9258 Q293.4063,508.2695 295.9063,508.2695 Q296.6094,508.2695 297.25,508.4258 Q297.9063,508.582 298.4688,508.8789 L298.4688,511.5977 Q297.8438,511.0195 297.25,510.7539 Q296.6563,510.4727 296.0313,510.4727 Q294.6875,510.4727 294,511.5508 Q293.3125,512.6133 293.3125,514.707 Q293.3125,516.8008 294,517.8789 Q294.6875,518.9414 296.0313,518.9414 Q296.6563,518.9414 297.25,518.6758 Q297.8438,518.3945 298.4688,517.8164 L298.4688,520.5352 Z"/><text x="314.5" y="520.78" fill="#FFE797" font-family="Helvetica" font-size="17" lengthAdjust="spacing" textLength="113">aws_resource</text><line style="stroke:#000;stroke-width:1.5" x1="281.5" x2="434.5" y1="534.789" y2="534.789"/><text x="291.5" y="554" fill="#FFE797" font-family="sans-serif" font-size="11" font-weight="bold" lengthAdjust="spacing" textLength="21">arn</text><text x="312.5" y="554" fill="#FFE797" font-family="sans-serif" font-size="11" lengthAdjust="spacing" textLength="41">: string</text><rect id="database" width="221" height="253.031" x="24.5" y="404" fill="#194875" codeLine="32" rx="2.5" ry="2.5" style="stroke:#000;stroke-width:1.5"/><ellipse cx="88.25" cy="423.894" fill="#1A83AF" rx="11" ry="11" style="stroke:#000;stroke-width:1"/><path fill="#000" d="M91.2188,429.5352 Q90.6406,429.832 90,429.9727 Q89.3594,430.1289 88.6563,430.1289 Q86.1563,430.1289 84.8281,428.4883 Q83.5156,426.832 83.5156,423.707 Q83.5156,420.582 84.8281,418.9258 Q86.1563,417.2695 88.6563,417.2695 Q89.3594,417.2695 90,417.4258 Q90.6563,417.582 91.2188,417.8789 L91.2188,420.5977 Q90.5938,420.0195 90,419.7539 Q89.4063,419.4727 88.7813,419.4727 Q87.4375,419.4727 86.75,420.5508 Q86.0625,421.6133 86.0625,423.707 Q86.0625,425.8008 86.75,426.8789 Q87.4375,427.9414 88.7813,427.9414 Q89.4063,427.9414 90,427.6758 Q90.5938,427.3945 91.2188,426.8164 L91.2188,429.5352 Z"/><text x="113.75" y="429.78" fill="#FFE797" font-family="Helvetica" font-size="17" lengthAdjust="spacing" textLength="75">database</text><line style="stroke:#000;stroke-width:1.5" x1="25.5" x2="244.5" y1="443.789" y2="443.789"/><text x="35.5" y="463" fill="#FFE797" font-family="sans-serif" font-size="11" font-weight="bold" lengthAdjust="spacing" textLength="50">db_type</text><text x="85.5" y="463" fill="#FFE797" font-family="sans-serif" font-size="11" lengthAdjust="spacing" textLength="41">: string</text><text x="35.5" y="485.804" fill="#FFE797" font-family="sans-serif" font-size="11" font-weight="bold" lengthAdjust="spacing" textLength="62">db_status</text><text x="97.5" y="485.804" fill="#FFE797" font-family="sans-serif" font-size="11" lengthAdjust="spacing" textLength="41">: string</text><text x="35.5" y="508.609" fill="#FFE797" font-family="sans-serif" font-size="11" font-weight="bold" lengthAdjust="spacing" textLength="79">db_endpoint</text><text x="114.5" y="508.609" fill="#FFE797" font-family="sans-serif" font-size="11" lengthAdjust="spacing" textLength="41">: string</text><text x="35.5" y="531.414" fill="#FFE797" font-family="sans-serif" font-size="11" font-weight="bold" lengthAdjust="spacing" textLength="69">db_version</text><text x="104.5" y="531.414" fill="#FFE797" font-family="sans-serif" font-size="11" lengthAdjust="spacing" textLength="41">: string</text><text x="35.5" y="554.218" fill="#FFE797" font-family="sans-serif" font-size="11" font-weight="bold" lengthAdjust="spacing" textLength="146">db_publicly_accessible</text><text x="181.5" y="554.218" fill="#FFE797" font-family="sans-serif" font-size="11" lengthAdjust="spacing" textLength="53">: boolean</text><text x="35.5" y="577.023" fill="#FFE797" font-family="sans-serif" font-size="11" font-weight="bold" lengthAdjust="spacing" textLength="89">instance_type</text><text x="124.5" y="577.023" fill="#FFE797" font-family="sans-serif" font-size="11" lengthAdjust="spacing" textLength="41">: string</text><text x="35.5" y="599.828" fill="#FFE797" font-family="sans-serif" font-size="11" font-weight="bold" lengthAdjust="spacing" textLength="78">volume_size</text><text x="113.5" y="599.828" fill="#FFE797" font-family="sans-serif" font-size="11" lengthAdjust="spacing" textLength="36">: int64</text><text x="35.5" y="622.632" fill="#FFE797" font-family="sans-serif" font-size="11" font-weight="bold" lengthAdjust="spacing" textLength="79">volume_iops</text><text x="114.5" y="622.632" fill="#FFE797" font-family="sans-serif" font-size="11" lengthAdjust="spacing" textLength="36">: int64</text><text x="35.5" y="645.437" fill="#FFE797" font-family="sans-serif" font-size="11" font-weight="bold" lengthAdjust="spacing" textLength="116">volume_encrypted</text><text x="151.5" y="645.437" fill="#FFE797" font-family="sans-serif" font-size="11" lengthAdjust="spacing" textLength="53">: boolean</text><rect id="aws_rds_instance" width="188" height="70.594" x="190" y="778" fill="#194875" codeLine="43" rx="2.5" ry="2.5" style="stroke:#000;stroke-width:1.5"/><ellipse cx="205" cy="797.894" fill="#1A83AF" rx="11" ry="11" style="stroke:#000;stroke-width:1"/><path fill="#000" d="M207.9688,803.5352 Q207.3906,803.832 206.75,803.9727 Q206.1094,804.1289 205.4063,804.1289 Q202.9063,804.1289 201.5781,802.4883 Q200.2656,800.832 200.2656,797.707 Q200.2656,794.582 201.5781,792.9258 Q202.9063,791.2695 205.4063,791.2695 Q206.1094,791.2695 206.75,791.4258 Q207.4063,791.582 207.9688,791.8789 L207.9688,794.5977 Q207.3438,794.0195 206.75,793.7539 Q206.1563,793.4727 205.5313,793.4727 Q204.1875,793.4727 203.5,794.5508 Q202.8125,795.6133 202.8125,797.707 Q202.8125,799.8008 203.5,800.8789 Q204.1875,801.9414 205.5313,801.9414 Q206.1563,801.9414 206.75,801.6758 Q207.3438,801.3945 207.9688,800.8164 L207.9688,803.5352 Z"/><text x="224" y="803.78" fill="#FFE797" font-family="Helvetica" font-size="17" lengthAdjust="spacing" textLength="146">aws_rds_instance</text><line style="stroke:#000;stroke-width:1.5" x1="191" x2="377" y1="817.789" y2="817.789"/><text x="201" y="837" fill="#FFE797" font-family="sans-serif" font-size="11" font-weight="bold" lengthAdjust="spacing" textLength="123">volume_kms_key_id</text><text x="324" y="837" fill="#FFE797" font-family="sans-serif" font-size="11" lengthAdjust="spacing" textLength="41">: string</text><path id="resource-backto-database" fill="none" d="M135,303.17 C135,336.68 135,371.63 135,403.77" codeLine="46" style="stroke:#ffaf37;stroke-width:2"/><polygon fill="none" points="128 303.1 135 283.1 142 303.1 128 303.1" style="stroke:#ffaf37;stroke-width:2"/><path id="aws_resource-backto-aws_rds_instance" fill="none" d="M343.75,585.62 C328.81,642.34 305.79,729.76 293.13,777.84" codeLine="47" style="stroke:#ffaf37;stroke-width:2"/><polygon fill="none" points="336.99 583.8 348.85 566.24 350.53 587.36 336.99 583.8" style="stroke:#ffaf37;stroke-width:2"/><path id="database-backto-aws_rds_instance" fill="none" d="M211.15,675.11 C231.49,713.48 251.67,751.53 265.62,777.83" codeLine="48" style="stroke:#ffaf37;stroke-width:2"/><polygon fill="none" points="204.84 678.15 201.66 657.21 217.21 671.6 204.84 678.15" style="stroke:#ffaf37;stroke-width:2"/></g></svg>