<?xml version="1.0" encoding="UTF-8" standalone="no"?><svg xmlns="http://www.w3.org/2000/svg" xmlns:xlink="http://www.w3.org/1999/xlink" contentScriptType="application/ecmascript" contentStyleType="text/css" height="829px" preserveAspectRatio="none" style="width:294px;height:829px;background:#00000000;" version="1.1" viewBox="0 0 294 829" width="294px" zoomAndPan="magnify"><defs><filter height="300%" id="fr6regbwy00vc" width="300%" x="-1" y="-1"><feGaussianBlur result="blurOut" stdDeviation="2.0"/><feColorMatrix in="blurOut" result="blurOut2" type="matrix" values="0 0 0 0 0 0 0 0 0 0 0 0 0 0 0 0 0 0 .4 0"/><feOffset dx="4.0" dy="4.0" in="blurOut2" result="blurOut3"/><feBlend in="SourceGraphic" in2="blurOut3" mode="normal"/></filter></defs><g><!--MD5=[7f0ecf5f554433d3f2e1213379ac821c]
class resource--><rect codeLine="2" fill="#FEFECE" filter="url(#fr6regbwy00vc)" height="176.0469" id="resource" style="stroke:#A80036;stroke-width:1.5;" width="252" x="17.5" y="7"/><ellipse cx="111.25" cy="23" fill="#ADD1B2" rx="11" ry="11" style="stroke:#A80036;stroke-width:1.0;"/><path d="M114.2188,28.6406 Q113.6406,28.9375 113,29.0781 Q112.3594,29.2344 111.6563,29.2344 Q109.1563,29.2344 107.8281,27.5938 Q106.5156,25.9375 106.5156,22.8125 Q106.5156,19.6875 107.8281,18.0313 Q109.1563,16.375 111.6563,16.375 Q112.3594,16.375 113,16.5313 Q113.6563,16.6875 114.2188,16.9844 L114.2188,19.7031 Q113.5938,19.125 113,18.8594 Q112.4063,18.5781 111.7813,18.5781 Q110.4375,18.5781 109.75,19.6563 Q109.0625,20.7188 109.0625,22.8125 Q109.0625,24.9063 109.75,25.9844 Q110.4375,27.0469 111.7813,27.0469 Q112.4063,27.0469 113,26.7813 Q113.5938,26.5 114.2188,25.9219 L114.2188,28.6406 Z " fill="#000000"/><text fill="#000000" font-family="sans-serif" font-size="12" lengthAdjust="spacing" textLength="56" x="131.75" y="27.1543">resource</text><line style="stroke:#A80036;stroke-width:1.5;" x1="18.5" x2="268.5" y1="39" y2="39"/><ellipse cx="28.5" cy="50" rx="3" ry="3" style="stroke:#038048;stroke-width:1.0;fill:none;"/><text fill="#000000" font-family="sans-serif" font-size="11" lengthAdjust="spacing" textLength="51" x="37.5" y="53.2104">id: string</text><ellipse cx="28.5" cy="62.8047" rx="3" ry="3" style="stroke:#038048;stroke-width:1.0;fill:none;"/><text fill="#000000" font-family="sans-serif" font-size="11" lengthAdjust="spacing" textLength="170" x="37.5" y="66.0151">tags: dictionary[string, string]</text><ellipse cx="28.5" cy="75.6094" rx="3" ry="3" style="stroke:#038048;stroke-width:1.0;fill:none;"/><text fill="#000000" font-family="sans-serif" font-size="11" lengthAdjust="spacing" textLength="73" x="37.5" y="78.8198">name: string</text><ellipse cx="28.5" cy="88.4141" rx="3" ry="3" style="stroke:#038048;stroke-width:1.0;fill:none;"/><text fill="#000000" font-family="sans-serif" font-size="11" lengthAdjust="spacing" textLength="89" x="37.5" y="91.6245">ctime: datetime</text><ellipse cx="28.5" cy="101.2188" rx="3" ry="3" style="stroke:#038048;stroke-width:1.0;fill:none;"/><text fill="#000000" font-family="sans-serif" font-size="11" lengthAdjust="spacing" textLength="180" x="37.5" y="104.4292">age: trafo.duration_to_datetime</text><ellipse cx="28.5" cy="114.0234" rx="3" ry="3" style="stroke:#038048;stroke-width:1.0;fill:none;"/><text fill="#000000" font-family="sans-serif" font-size="11" lengthAdjust="spacing" textLength="94" x="37.5" y="117.2339">mtime: datetime</text><ellipse cx="28.5" cy="126.8281" rx="3" ry="3" style="stroke:#038048;stroke-width:1.0;fill:none;"/><text fill="#000000" font-family="sans-serif" font-size="11" lengthAdjust="spacing" textLength="225" x="37.5" y="130.0386">last_update: trafo.duration_to_datetime</text><ellipse cx="28.5" cy="139.6328" rx="3" ry="3" style="stroke:#038048;stroke-width:1.0;fill:none;"/><text fill="#000000" font-family="sans-serif" font-size="11" lengthAdjust="spacing" textLength="90" x="37.5" y="142.8433">atime: datetime</text><ellipse cx="28.5" cy="152.4375" rx="3" ry="3" style="stroke:#038048;stroke-width:1.0;fill:none;"/><text fill="#000000" font-family="sans-serif" font-size="11" lengthAdjust="spacing" textLength="226" x="37.5" y="155.6479">last_access: trafo.duration_to_datetime</text><ellipse cx="28.5" cy="165.2422" rx="3" ry="3" style="stroke:#038048;stroke-width:1.0;fill:none;"/><text fill="#000000" font-family="sans-serif" font-size="11" lengthAdjust="spacing" textLength="64" x="37.5" y="168.4526">kind: string</text><line style="stroke:#A80036;stroke-width:1.5;" x1="18.5" x2="268.5" y1="175.0469" y2="175.0469"/><!--MD5=[cd869b34d688661372d713ff53dbac1f]
class account--><rect codeLine="14" fill="#FEFECE" filter="url(#fr6regbwy00vc)" height="48" id="account" style="stroke:#A80036;stroke-width:1.5;" width="83" x="102" y="304"/><ellipse cx="117" cy="320" fill="#ADD1B2" rx="11" ry="11" style="stroke:#A80036;stroke-width:1.0;"/><path d="M119.9688,325.6406 Q119.3906,325.9375 118.75,326.0781 Q118.1094,326.2344 117.4063,326.2344 Q114.9063,326.2344 113.5781,324.5938 Q112.2656,322.9375 112.2656,319.8125 Q112.2656,316.6875 113.5781,315.0313 Q114.9063,313.375 117.4063,313.375 Q118.1094,313.375 118.75,313.5313 Q119.4063,313.6875 119.9688,313.9844 L119.9688,316.7031 Q119.3438,316.125 118.75,315.8594 Q118.1563,315.5781 117.5313,315.5781 Q116.1875,315.5781 115.5,316.6563 Q114.8125,317.7188 114.8125,319.8125 Q114.8125,321.9063 115.5,322.9844 Q116.1875,324.0469 117.5313,324.0469 Q118.1563,324.0469 118.75,323.7813 Q119.3438,323.5 119.9688,322.9219 L119.9688,325.6406 Z " fill="#000000"/><text fill="#000000" font-family="sans-serif" font-size="12" lengthAdjust="spacing" textLength="51" x="131" y="324.1543">account</text><line style="stroke:#A80036;stroke-width:1.5;" x1="103" x2="184" y1="336" y2="336"/><line style="stroke:#A80036;stroke-width:1.5;" x1="103" x2="184" y1="344" y2="344"/><!--MD5=[4617c00eee5669b088370cf9241a91df]
class aws_account--><rect codeLine="17" fill="#FEFECE" filter="url(#fr6regbwy00vc)" height="342.5078" id="aws_account" style="stroke:#A80036;stroke-width:1.5;" width="273" x="7" y="473"/><ellipse cx="98.75" cy="489" fill="#ADD1B2" rx="11" ry="11" style="stroke:#A80036;stroke-width:1.0;"/><path d="M101.7188,494.6406 Q101.1406,494.9375 100.5,495.0781 Q99.8594,495.2344 99.1563,495.2344 Q96.6563,495.2344 95.3281,493.5938 Q94.0156,491.9375 94.0156,488.8125 Q94.0156,485.6875 95.3281,484.0313 Q96.6563,482.375 99.1563,482.375 Q99.8594,482.375 100.5,482.5313 Q101.1563,482.6875 101.7188,482.9844 L101.7188,485.7031 Q101.0938,485.125 100.5,484.8594 Q99.9063,484.5781 99.2813,484.5781 Q97.9375,484.5781 97.25,485.6563 Q96.5625,486.7188 96.5625,488.8125 Q96.5625,490.9063 97.25,491.9844 Q97.9375,493.0469 99.2813,493.0469 Q99.9063,493.0469 100.5,492.7813 Q101.0938,492.5 101.7188,491.9219 L101.7188,494.6406 Z " fill="#000000"/><text fill="#000000" font-family="sans-serif" font-size="12" lengthAdjust="spacing" textLength="81" x="119.25" y="493.1543">aws_account</text><line style="stroke:#A80036;stroke-width:1.5;" x1="8" x2="279" y1="505" y2="505"/><ellipse cx="18" cy="516" rx="3" ry="3" style="stroke:#038048;stroke-width:1.0;fill:none;"/><text fill="#000000" font-family="sans-serif" font-size="11" lengthAdjust="spacing" textLength="118" x="27" y="519.2104">account_alias: string</text><ellipse cx="18" cy="528.8047" rx="3" ry="3" style="stroke:#038048;stroke-width:1.0;fill:none;"/><text fill="#000000" font-family="sans-serif" font-size="11" lengthAdjust="spacing" textLength="63" x="27" y="532.0151">role: string</text><ellipse cx="18" cy="541.6094" rx="3" ry="3" style="stroke:#038048;stroke-width:1.0;fill:none;"/><text fill="#000000" font-family="sans-serif" font-size="11" lengthAdjust="spacing" textLength="69" x="27" y="544.8198">users: int64</text><ellipse cx="18" cy="554.4141" rx="3" ry="3" style="stroke:#038048;stroke-width:1.0;fill:none;"/><text fill="#000000" font-family="sans-serif" font-size="11" lengthAdjust="spacing" textLength="76" x="27" y="557.6245">groups: int64</text><ellipse cx="18" cy="567.2188" rx="3" ry="3" style="stroke:#038048;stroke-width:1.0;fill:none;"/><text fill="#000000" font-family="sans-serif" font-size="11" lengthAdjust="spacing" textLength="159" x="27" y="570.4292">account_mfa_enabled: int64</text><ellipse cx="18" cy="580.0234" rx="3" ry="3" style="stroke:#038048;stroke-width:1.0;fill:none;"/><text fill="#000000" font-family="sans-serif" font-size="11" lengthAdjust="spacing" textLength="208" x="27" y="583.2339">account_access_keys_present: int64</text><ellipse cx="18" cy="592.8281" rx="3" ry="3" style="stroke:#038048;stroke-width:1.0;fill:none;"/><text fill="#000000" font-family="sans-serif" font-size="11" lengthAdjust="spacing" textLength="246" x="27" y="596.0386">account_signing_certificates_present: int64</text><ellipse cx="18" cy="605.6328" rx="3" ry="3" style="stroke:#038048;stroke-width:1.0;fill:none;"/><text fill="#000000" font-family="sans-serif" font-size="11" lengthAdjust="spacing" textLength="107" x="27" y="608.8433">mfa_devices: int64</text><ellipse cx="18" cy="618.4375" rx="3" ry="3" style="stroke:#038048;stroke-width:1.0;fill:none;"/><text fill="#000000" font-family="sans-serif" font-size="11" lengthAdjust="spacing" textLength="150" x="27" y="621.6479">mfa_devices_in_use: int64</text><ellipse cx="18" cy="631.2422" rx="3" ry="3" style="stroke:#038048;stroke-width:1.0;fill:none;"/><text fill="#000000" font-family="sans-serif" font-size="11" lengthAdjust="spacing" textLength="79" x="27" y="634.4526">policies: int64</text><ellipse cx="18" cy="644.0469" rx="3" ry="3" style="stroke:#038048;stroke-width:1.0;fill:none;"/><text fill="#000000" font-family="sans-serif" font-size="11" lengthAdjust="spacing" textLength="166" x="27" y="647.2573">policy_versions_in_use: int64</text><ellipse cx="18" cy="656.8516" rx="3" ry="3" style="stroke:#038048;stroke-width:1.0;fill:none;"/><text fill="#000000" font-family="sans-serif" font-size="11" lengthAdjust="spacing" textLength="210" x="27" y="660.062">global_endpoint_token_version: int64</text><ellipse cx="18" cy="669.6563" rx="3" ry="3" style="stroke:#038048;stroke-width:1.0;fill:none;"/><text fill="#000000" font-family="sans-serif" font-size="11" lengthAdjust="spacing" textLength="142" x="27" y="672.8667">server_certificates: int64</text><ellipse cx="18" cy="682.4609" rx="3" ry="3" style="stroke:#038048;stroke-width:1.0;fill:none;"/><text fill="#000000" font-family="sans-serif" font-size="11" lengthAdjust="spacing" textLength="192" x="27" y="685.6714">minimum_password_length: int64</text><ellipse cx="18" cy="695.2656" rx="3" ry="3" style="stroke:#038048;stroke-width:1.0;fill:none;"/><text fill="#000000" font-family="sans-serif" font-size="11" lengthAdjust="spacing" textLength="148" x="27" y="698.4761">require_symbols: boolean</text><ellipse cx="18" cy="708.0703" rx="3" ry="3" style="stroke:#038048;stroke-width:1.0;fill:none;"/><text fill="#000000" font-family="sans-serif" font-size="11" lengthAdjust="spacing" textLength="151" x="27" y="711.2808">require_numbers: boolean</text><ellipse cx="18" cy="720.875" rx="3" ry="3" style="stroke:#038048;stroke-width:1.0;fill:none;"/><text fill="#000000" font-family="sans-serif" font-size="11" lengthAdjust="spacing" textLength="227" x="27" y="724.0854">require_uppercase_characters: boolean</text><ellipse cx="18" cy="733.6797" rx="3" ry="3" style="stroke:#038048;stroke-width:1.0;fill:none;"/><text fill="#000000" font-family="sans-serif" font-size="11" lengthAdjust="spacing" textLength="225" x="27" y="736.8901">require_lowercase_characters: boolean</text><ellipse cx="18" cy="746.4844" rx="3" ry="3" style="stroke:#038048;stroke-width:1.0;fill:none;"/><text fill="#000000" font-family="sans-serif" font-size="11" lengthAdjust="spacing" textLength="247" x="27" y="749.6948">allow_users_to_change_password: boolean</text><ellipse cx="18" cy="759.2891" rx="3" ry="3" style="stroke:#038048;stroke-width:1.0;fill:none;"/><text fill="#000000" font-family="sans-serif" font-size="11" lengthAdjust="spacing" textLength="157" x="27" y="762.4995">expire_passwords: boolean</text><ellipse cx="18" cy="772.0938" rx="3" ry="3" style="stroke:#038048;stroke-width:1.0;fill:none;"/><text fill="#000000" font-family="sans-serif" font-size="11" lengthAdjust="spacing" textLength="149" x="27" y="775.3042">max_password_age: int64</text><ellipse cx="18" cy="784.8984" rx="3" ry="3" style="stroke:#038048;stroke-width:1.0;fill:none;"/><text fill="#000000" font-family="sans-serif" font-size="11" lengthAdjust="spacing" textLength="197" x="27" y="788.1089">password_reuse_prevention: int64</text><ellipse cx="18" cy="797.7031" rx="3" ry="3" style="stroke:#038048;stroke-width:1.0;fill:none;"/><text fill="#000000" font-family="sans-serif" font-size="11" lengthAdjust="spacing" textLength="119" x="27" y="800.9136">hard_expiry: boolean</text><line style="stroke:#A80036;stroke-width:1.5;" x1="8" x2="279" y1="807.5078" y2="807.5078"/><!--MD5=[62607f6f3c82c72f08ad8473d4c0997b]
reverse link resource to account--><path codeLine="42" d="M143.5,203.18 C143.5,241 143.5,280.01 143.5,303.89 " fill="none" id="resource-backto-account" style="stroke:#A80036;stroke-width:1.0;"/><polygon fill="none" points="136.5,203,143.5,183,150.5,203,136.5,203" style="stroke:#A80036;stroke-width:1.0;"/><!--MD5=[548072170966c3402771b29dae4e9483]
reverse link account to aws_account--><path codeLine="43" d="M143.5,372.21 C143.5,399.01 143.5,435.39 143.5,472.79 " fill="none" id="account-backto-aws_account" style="stroke:#A80036;stroke-width:1.0;"/><polygon fill="none" points="136.5,372.13,143.5,352.13,150.5,372.13,136.5,372.13" style="stroke:#A80036;stroke-width:1.0;"/><!--MD5=[bfce2cbd5f175eff132d50fa899aaa4f]
@startuml
skinparam backgroundcolor transparent
class resource {
+ id: string
+ tags: dictionary[string, string]
+ name: string
+ ctime: datetime
+ age: trafo.duration_to_datetime
+ mtime: datetime
+ last_update: trafo.duration_to_datetime
+ atime: datetime
+ last_access: trafo.duration_to_datetime
+ kind: string
}
class account {

}
class aws_account {
+ account_alias: string
+ role: string
+ users: int64
+ groups: int64
+ account_mfa_enabled: int64
+ account_access_keys_present: int64
+ account_signing_certificates_present: int64
+ mfa_devices: int64
+ mfa_devices_in_use: int64
+ policies: int64
+ policy_versions_in_use: int64
+ global_endpoint_token_version: int64
+ server_certificates: int64
+ minimum_password_length: int64
+ require_symbols: boolean
+ require_numbers: boolean
+ require_uppercase_characters: boolean
+ require_lowercase_characters: boolean
+ allow_users_to_change_password: boolean
+ expire_passwords: boolean
+ max_password_age: int64
+ password_reuse_prevention: int64
+ hard_expiry: boolean
}
resource <|- - - account
account <|- - - aws_account
@enduml

PlantUML version 1.2021.16(Wed Dec 08 17:25:22 UTC 2021)
(GPL source distribution)
Java Runtime: OpenJDK Runtime Environment
JVM: OpenJDK 64-Bit Server VM
Default Encoding: UTF-8
Language: en
Country: null
--></g></svg>