<svg xmlns="http://www.w3.org/2000/svg" xmlns:xlink="http://www.w3.org/1999/xlink" width="419" height="1222" contentScriptType="application/ecmascript" contentStyleType="text/css" style="width:419px;height:1222px;background:#00000000" preserveAspectRatio="none" version="1.1" viewBox="0 0 419 1222" zoomAndPan="magnify"><g><rect id="phantom_resource" width="198" height="39.789" x="185.5" y="404" fill="#194875" codeLine="17" rx="2.5" ry="2.5" style="stroke:#000;stroke-width:1.5"/><ellipse cx="200.5" cy="423.894" fill="#1A83AF" rx="11" ry="11" style="stroke:#000;stroke-width:1"/><path fill="#000" d="M203.4688,429.5352 Q202.8906,429.832 202.25,429.9727 Q201.6094,430.1289 200.9063,430.1289 Q198.4063,430.1289 197.0781,428.4883 Q195.7656,426.832 195.7656,423.707 Q195.7656,420.582 197.0781,418.9258 Q198.4063,417.2695 200.9063,417.2695 Q201.6094,417.2695 202.25,417.4258 Q202.9063,417.582 203.4688,417.8789 L203.4688,420.5977 Q202.8438,420.0195 202.25,419.7539 Q201.6563,419.4727 201.0313,419.4727 Q199.6875,419.4727 199,420.5508 Q198.3125,421.6133 198.3125,423.707 Q198.3125,425.8008 199,426.8789 Q199.6875,427.9414 201.0313,427.9414 Q201.6563,427.9414 202.25,427.6758 Q202.8438,427.3945 203.4688,426.8164 L203.4688,429.5352 Z"/><text x="219.5" y="429.78" fill="#FFE797" font-family="Helvetica" font-size="17" lengthAdjust="spacing" textLength="156">phantom_resource</text><rect id="resource" width="256" height="275.836" x="156.5" y="7" fill="#194875" codeLine="20" rx="2.5" ry="2.5" style="stroke:#000;stroke-width:1.5"/><ellipse cx="239.75" cy="26.895" fill="#1A83AF" rx="11" ry="11" style="stroke:#000;stroke-width:1"/><path fill="#000" d="M242.7188,32.5352 Q242.1406,32.832 241.5,32.9727 Q240.8594,33.1289 240.1563,33.1289 Q237.6563,33.1289 236.3281,31.4883 Q235.0156,29.832 235.0156,26.707 Q235.0156,23.582 236.3281,21.9258 Q237.6563,20.2695 240.1563,20.2695 Q240.8594,20.2695 241.5,20.4258 Q242.1563,20.582 242.7188,20.8789 L242.7188,23.5977 Q242.0938,23.0195 241.5,22.7539 Q240.9063,22.4727 240.2813,22.4727 Q238.9375,22.4727 238.25,23.5508 Q237.5625,24.6133 237.5625,26.707 Q237.5625,28.8008 238.25,29.8789 Q238.9375,30.9414 240.2813,30.9414 Q240.9063,30.9414 241.5,30.6758 Q242.0938,30.3945 242.7188,29.8164 L242.7188,32.5352 Z"/><text x="265.25" y="32.78" fill="#FFE797" font-family="Helvetica" font-size="17" lengthAdjust="spacing" textLength="71">resource</text><line style="stroke:#000;stroke-width:1.5" x1="157.5" x2="411.5" y1="46.789" y2="46.789"/><text x="167.5" y="65.999" fill="#FFE797" font-family="sans-serif" font-size="11" font-weight="bold" lengthAdjust="spacing" textLength="12">id</text><text x="179.5" y="65.999" fill="#FFE797" font-family="sans-serif" font-size="11" lengthAdjust="spacing" textLength="41">: string</text><text x="167.5" y="88.804" fill="#FFE797" font-family="sans-serif" font-size="11" font-weight="bold" lengthAdjust="spacing" textLength="28">tags</text><text x="195.5" y="88.804" fill="#FFE797" font-family="sans-serif" font-size="11" lengthAdjust="spacing" textLength="145">: dictionary[string, string]</text><text x="167.5" y="111.609" fill="#FFE797" font-family="sans-serif" font-size="11" font-weight="bold" lengthAdjust="spacing" textLength="35">name</text><text x="202.5" y="111.609" fill="#FFE797" font-family="sans-serif" font-size="11" lengthAdjust="spacing" textLength="41">: string</text><text x="167.5" y="134.414" fill="#FFE797" font-family="sans-serif" font-size="11" font-weight="bold" lengthAdjust="spacing" textLength="35">ctime</text><text x="202.5" y="134.414" fill="#FFE797" font-family="sans-serif" font-size="11" lengthAdjust="spacing" textLength="58">: datetime</text><text x="167.5" y="157.218" fill="#FFE797" font-family="sans-serif" font-size="11" font-weight="bold" lengthAdjust="spacing" textLength="24">age</text><text x="191.5" y="157.218" fill="#FFE797" font-family="sans-serif" font-size="11" lengthAdjust="spacing" textLength="159">: trafo.duration_to_datetime</text><text x="167.5" y="180.023" fill="#FFE797" font-family="sans-serif" font-size="11" font-weight="bold" lengthAdjust="spacing" textLength="39">mtime</text><text x="206.5" y="180.023" fill="#FFE797" font-family="sans-serif" font-size="11" lengthAdjust="spacing" textLength="58">: datetime</text><text x="167.5" y="202.828" fill="#FFE797" font-family="sans-serif" font-size="11" font-weight="bold" lengthAdjust="spacing" textLength="75">last_update</text><text x="242.5" y="202.828" fill="#FFE797" font-family="sans-serif" font-size="11" lengthAdjust="spacing" textLength="159">: trafo.duration_to_datetime</text><text x="167.5" y="225.632" fill="#FFE797" font-family="sans-serif" font-size="11" font-weight="bold" lengthAdjust="spacing" textLength="36">atime</text><text x="203.5" y="225.632" fill="#FFE797" font-family="sans-serif" font-size="11" lengthAdjust="spacing" textLength="58">: datetime</text><text x="167.5" y="248.437" fill="#FFE797" font-family="sans-serif" font-size="11" font-weight="bold" lengthAdjust="spacing" textLength="74">last_access</text><text x="241.5" y="248.437" fill="#FFE797" font-family="sans-serif" font-size="11" lengthAdjust="spacing" textLength="159">: trafo.duration_to_datetime</text><text x="167.5" y="271.242" fill="#FFE797" font-family="sans-serif" font-size="11" font-weight="bold" lengthAdjust="spacing" textLength="27">kind</text><text x="194.5" y="271.242" fill="#FFE797" font-family="sans-serif" font-size="11" lengthAdjust="spacing" textLength="41">: string</text><rect id="aws_resource" width="155" height="70.594" x="10" y="974" fill="#194875" codeLine="32" rx="2.5" ry="2.5" style="stroke:#000;stroke-width:1.5"/><ellipse cx="25" cy="993.894" fill="#1A83AF" rx="11" ry="11" style="stroke:#000;stroke-width:1"/><path fill="#000" d="M27.9688,999.5352 Q27.3906,999.832 26.75,999.9727 Q26.1094,1000.1289 25.4063,1000.1289 Q22.9063,1000.1289 21.5781,998.4883 Q20.2656,996.832 20.2656,993.707 Q20.2656,990.582 21.5781,988.9258 Q22.9063,987.2695 25.4063,987.2695 Q26.1094,987.2695 26.75,987.4258 Q27.4063,987.582 27.9688,987.8789 L27.9688,990.5977 Q27.3438,990.0195 26.75,989.7539 Q26.1563,989.4727 25.5313,989.4727 Q24.1875,989.4727 23.5,990.5508 Q22.8125,991.6133 22.8125,993.707 Q22.8125,995.8008 23.5,996.8789 Q24.1875,997.9414 25.5313,997.9414 Q26.1563,997.9414 26.75,997.6758 Q27.3438,997.3945 27.9688,996.8164 L27.9688,999.5352 Z"/><text x="44" y="999.78" fill="#FFE797" font-family="Helvetica" font-size="17" lengthAdjust="spacing" textLength="113">aws_resource</text><line style="stroke:#000;stroke-width:1.5" x1="11" x2="164" y1="1013.789" y2="1013.789"/><text x="21" y="1032.999" fill="#FFE797" font-family="sans-serif" font-size="11" font-weight="bold" lengthAdjust="spacing" textLength="21">arn</text><text x="42" y="1032.999" fill="#FFE797" font-family="sans-serif" font-size="11" lengthAdjust="spacing" textLength="41">: string</text><rect id="type" width="79" height="39.789" x="245" y="802" fill="#194875" codeLine="35" rx="2.5" ry="2.5" style="stroke:#000;stroke-width:1.5"/><ellipse cx="260" cy="821.894" fill="#1A83AF" rx="11" ry="11" style="stroke:#000;stroke-width:1"/><path fill="#000" d="M262.9688,827.5352 Q262.3906,827.832 261.75,827.9727 Q261.1094,828.1289 260.4063,828.1289 Q257.9063,828.1289 256.5781,826.4883 Q255.2656,824.832 255.2656,821.707 Q255.2656,818.582 256.5781,816.9258 Q257.9063,815.2695 260.4063,815.2695 Q261.1094,815.2695 261.75,815.4258 Q262.4063,815.582 262.9688,815.8789 L262.9688,818.5977 Q262.3438,818.0195 261.75,817.7539 Q261.1563,817.4727 260.5313,817.4727 Q259.1875,817.4727 258.5,818.5508 Q257.8125,819.6133 257.8125,821.707 Q257.8125,823.8008 258.5,824.8789 Q259.1875,825.9414 260.5313,825.9414 Q261.1563,825.9414 261.75,825.6758 Q262.3438,825.3945 262.9688,824.8164 L262.9688,827.5352 Z"/><text x="279" y="827.78" fill="#FFE797" font-family="Helvetica" font-size="17" lengthAdjust="spacing" textLength="37">type</text><rect id="quota" width="134" height="116.203" x="217.5" y="565" fill="#194875" codeLine="38" rx="2.5" ry="2.5" style="stroke:#000;stroke-width:1.5"/><ellipse cx="252.3" cy="584.894" fill="#1A83AF" rx="11" ry="11" style="stroke:#000;stroke-width:1"/><path fill="#000" d="M255.2688,590.5352 Q254.6906,590.832 254.05,590.9727 Q253.4094,591.1289 252.7063,591.1289 Q250.2063,591.1289 248.8781,589.4883 Q247.5656,587.832 247.5656,584.707 Q247.5656,581.582 248.8781,579.9258 Q250.2063,578.2695 252.7063,578.2695 Q253.4094,578.2695 254.05,578.4258 Q254.7063,578.582 255.2688,578.8789 L255.2688,581.5977 Q254.6438,581.0195 254.05,580.7539 Q253.4563,580.4727 252.8313,580.4727 Q251.4875,580.4727 250.8,581.5508 Q250.1125,582.6133 250.1125,584.707 Q250.1125,586.8008 250.8,587.8789 Q251.4875,588.9414 252.8313,588.9414 Q253.4563,588.9414 254.05,588.6758 Q254.6438,588.3945 255.2688,587.8164 L255.2688,590.5352 Z"/><text x="275.7" y="590.78" fill="#FFE797" font-family="Helvetica" font-size="17" lengthAdjust="spacing" textLength="48">quota</text><line style="stroke:#000;stroke-width:1.5" x1="218.5" x2="350.5" y1="604.789" y2="604.789"/><text x="228.5" y="624" fill="#FFE797" font-family="sans-serif" font-size="11" font-weight="bold" lengthAdjust="spacing" textLength="37">quota</text><text x="265.5" y="624" fill="#FFE797" font-family="sans-serif" font-size="11" lengthAdjust="spacing" textLength="46">: double</text><text x="228.5" y="646.804" fill="#FFE797" font-family="sans-serif" font-size="11" font-weight="bold" lengthAdjust="spacing" textLength="39">usage</text><text x="267.5" y="646.804" fill="#FFE797" font-family="sans-serif" font-size="11" lengthAdjust="spacing" textLength="46">: double</text><text x="228.5" y="669.609" fill="#FFE797" font-family="sans-serif" font-size="11" font-weight="bold" lengthAdjust="spacing" textLength="71">quota_type</text><text x="299.5" y="669.609" fill="#FFE797" font-family="sans-serif" font-size="11" lengthAdjust="spacing" textLength="41">: string</text><rect id="volume_type" width="168" height="93.398" x="200.5" y="963" fill="#194875" codeLine="43" rx="2.5" ry="2.5" style="stroke:#000;stroke-width:1.5"/><ellipse cx="223.15" cy="982.894" fill="#1A83AF" rx="11" ry="11" style="stroke:#000;stroke-width:1"/><path fill="#000" d="M226.1188,988.5352 Q225.5406,988.832 224.9,988.9727 Q224.2594,989.1289 223.5563,989.1289 Q221.0563,989.1289 219.7281,987.4883 Q218.4156,985.832 218.4156,982.707 Q218.4156,979.582 219.7281,977.9258 Q221.0563,976.2695 223.5563,976.2695 Q224.2594,976.2695 224.9,976.4258 Q225.5563,976.582 226.1188,976.8789 L226.1188,979.5977 Q225.4938,979.0195 224.9,978.7539 Q224.3063,978.4727 223.6813,978.4727 Q222.3375,978.4727 221.65,979.5508 Q220.9625,980.6133 220.9625,982.707 Q220.9625,984.8008 221.65,985.8789 Q222.3375,986.9414 223.6813,986.9414 Q224.3063,986.9414 224.9,986.6758 Q225.4938,986.3945 226.1188,985.8164 L226.1188,988.5352 Z"/><text x="243.85" y="988.78" fill="#FFE797" font-family="Helvetica" font-size="17" lengthAdjust="spacing" textLength="109">volume_type</text><line style="stroke:#000;stroke-width:1.5" x1="201.5" x2="367.5" y1="1002.789" y2="1002.789"/><text x="211.5" y="1022" fill="#FFE797" font-family="sans-serif" font-size="11" font-weight="bold" lengthAdjust="spacing" textLength="80">volume_type</text><text x="291.5" y="1022" fill="#FFE797" font-family="sans-serif" font-size="11" lengthAdjust="spacing" textLength="41">: string</text><text x="211.5" y="1044.804" fill="#FFE797" font-family="sans-serif" font-size="11" font-weight="bold" lengthAdjust="spacing" textLength="100">ondemand_cost</text><text x="311.5" y="1044.804" fill="#FFE797" font-family="sans-serif" font-size="11" lengthAdjust="spacing" textLength="46">: double</text><rect id="aws_ec2_volume_type" width="231" height="39.789" x="7" y="1177" fill="#194875" codeLine="47" rx="2.5" ry="2.5" style="stroke:#000;stroke-width:1.5"/><ellipse cx="22" cy="1196.895" fill="#1A83AF" rx="11" ry="11" style="stroke:#000;stroke-width:1"/><path fill="#000" d="M24.9688,1202.5352 Q24.3906,1202.832 23.75,1202.9727 Q23.1094,1203.1289 22.4063,1203.1289 Q19.9063,1203.1289 18.5781,1201.4883 Q17.2656,1199.832 17.2656,1196.707 Q17.2656,1193.582 18.5781,1191.9258 Q19.9063,1190.2695 22.4063,1190.2695 Q23.1094,1190.2695 23.75,1190.4258 Q24.4063,1190.582 24.9688,1190.8789 L24.9688,1193.5977 Q24.3438,1193.0195 23.75,1192.7539 Q23.1563,1192.4727 22.5313,1192.4727 Q21.1875,1192.4727 20.5,1193.5508 Q19.8125,1194.6133 19.8125,1196.707 Q19.8125,1198.8008 20.5,1199.8789 Q21.1875,1200.9414 22.5313,1200.9414 Q23.1563,1200.9414 23.75,1200.6758 Q24.3438,1200.3945 24.9688,1199.8164 L24.9688,1202.5352 Z"/><text x="41" y="1202.78" fill="#FFE797" font-family="Helvetica" font-size="17" lengthAdjust="spacing" textLength="189">aws_ec2_volume_type</text><path id="resource-backto-phantom_resource" fill="none" d="M284.5,303.48 C284.5,343.73 284.5,381.81 284.5,403.75" codeLine="50" style="stroke:#ffaf37;stroke-width:2"/><polygon fill="none" points="277.5 303.28 284.5 283.28 291.5 303.28 277.5 303.28" style="stroke:#ffaf37;stroke-width:2"/><path id="quota-backto-type" fill="none" d="M284.5,701.27 C284.5,737.8 284.5,778.42 284.5,801.71" codeLine="51" style="stroke:#ffaf37;stroke-width:2"/><polygon fill="none" points="277.5 701.25 284.5 681.25 291.5 701.25 277.5 701.25" style="stroke:#ffaf37;stroke-width:2"/><path id="phantom_resource-backto-quota" fill="none" d="M284.5,464.28 C284.5,493.07 284.5,532.58 284.5,564.86" codeLine="52" style="stroke:#ffaf37;stroke-width:2"/><polygon fill="none" points="277.5 464.25 284.5 444.25 291.5 464.25 277.5 464.25" style="stroke:#ffaf37;stroke-width:2"/><path id="type-backto-volume_type" fill="none" d="M284.5,862.16 C284.5,891.56 284.5,931.88 284.5,962.76" codeLine="53" style="stroke:#ffaf37;stroke-width:2"/><polygon fill="none" points="277.5 862.15 284.5 842.15 291.5 862.15 277.5 862.15" style="stroke:#ffaf37;stroke-width:2"/><path id="aws_resource-backto-aws_ec2_volume_type" fill="none" d="M97.8,1065.1 C104.92,1102.83 113.96,1150.75 118.89,1176.88" codeLine="54" style="stroke:#ffaf37;stroke-width:2"/><polygon fill="none" points="90.91 1066.34 94.08 1045.39 104.67 1063.75 90.91 1066.34" style="stroke:#ffaf37;stroke-width:2"/><path id="volume_type-backto-aws_ec2_volume_type" fill="none" d="M231.27,1071.45 C199.42,1107.92 161.05,1151.86 139.44,1176.6" codeLine="55" style="stroke:#ffaf37;stroke-width:2"/><polygon fill="none" points="226.03 1066.81 244.46 1056.35 236.57 1076.02 226.03 1066.81" style="stroke:#ffaf37;stroke-width:2"/></g></svg>