<svg xmlns="http://www.w3.org/2000/svg" xmlns:xlink="http://www.w3.org/1999/xlink" width="397" height="641" contentScriptType="application/ecmascript" contentStyleType="text/css" style="width:397px;height:641px;background:#00000000" preserveAspectRatio="none" version="1.1" viewBox="0 0 397 641" zoomAndPan="magnify"><g><rect id="resource" width="256" height="275.836" x="7" y="7" fill="#194875" codeLine="17" rx="2.5" ry="2.5" style="stroke:#000;stroke-width:1.5"/><ellipse cx="90.25" cy="26.895" fill="#1A83AF" rx="11" ry="11" style="stroke:#000;stroke-width:1"/><path fill="#000" d="M93.2188,32.5352 Q92.6406,32.832 92,32.9727 Q91.3594,33.1289 90.6563,33.1289 Q88.1563,33.1289 86.8281,31.4883 Q85.5156,29.832 85.5156,26.707 Q85.5156,23.582 86.8281,21.9258 Q88.1563,20.2695 90.6563,20.2695 Q91.3594,20.2695 92,20.4258 Q92.6563,20.582 93.2188,20.8789 L93.2188,23.5977 Q92.5938,23.0195 92,22.7539 Q91.4063,22.4727 90.7813,22.4727 Q89.4375,22.4727 88.75,23.5508 Q88.0625,24.6133 88.0625,26.707 Q88.0625,28.8008 88.75,29.8789 Q89.4375,30.9414 90.7813,30.9414 Q91.4063,30.9414 92,30.6758 Q92.5938,30.3945 93.2188,29.8164 L93.2188,32.5352 Z"/><text x="115.75" y="32.78" fill="#FFE797" font-family="Helvetica" font-size="17" lengthAdjust="spacing" textLength="71">resource</text><line style="stroke:#000;stroke-width:1.5" x1="8" x2="262" y1="46.789" y2="46.789"/><text x="18" y="65.999" fill="#FFE797" font-family="sans-serif" font-size="11" font-weight="bold" lengthAdjust="spacing" textLength="12">id</text><text x="30" y="65.999" fill="#FFE797" font-family="sans-serif" font-size="11" lengthAdjust="spacing" textLength="41">: string</text><text x="18" y="88.804" fill="#FFE797" font-family="sans-serif" font-size="11" font-weight="bold" lengthAdjust="spacing" textLength="28">tags</text><text x="46" y="88.804" fill="#FFE797" font-family="sans-serif" font-size="11" lengthAdjust="spacing" textLength="145">: dictionary[string, string]</text><text x="18" y="111.609" fill="#FFE797" font-family="sans-serif" font-size="11" font-weight="bold" lengthAdjust="spacing" textLength="35">name</text><text x="53" y="111.609" fill="#FFE797" font-family="sans-serif" font-size="11" lengthAdjust="spacing" textLength="41">: string</text><text x="18" y="134.414" fill="#FFE797" font-family="sans-serif" font-size="11" font-weight="bold" lengthAdjust="spacing" textLength="35">ctime</text><text x="53" y="134.414" fill="#FFE797" font-family="sans-serif" font-size="11" lengthAdjust="spacing" textLength="58">: datetime</text><text x="18" y="157.218" fill="#FFE797" font-family="sans-serif" font-size="11" font-weight="bold" lengthAdjust="spacing" textLength="24">age</text><text x="42" y="157.218" fill="#FFE797" font-family="sans-serif" font-size="11" lengthAdjust="spacing" textLength="159">: trafo.duration_to_datetime</text><text x="18" y="180.023" fill="#FFE797" font-family="sans-serif" font-size="11" font-weight="bold" lengthAdjust="spacing" textLength="39">mtime</text><text x="57" y="180.023" fill="#FFE797" font-family="sans-serif" font-size="11" lengthAdjust="spacing" textLength="58">: datetime</text><text x="18" y="202.828" fill="#FFE797" font-family="sans-serif" font-size="11" font-weight="bold" lengthAdjust="spacing" textLength="75">last_update</text><text x="93" y="202.828" fill="#FFE797" font-family="sans-serif" font-size="11" lengthAdjust="spacing" textLength="159">: trafo.duration_to_datetime</text><text x="18" y="225.632" fill="#FFE797" font-family="sans-serif" font-size="11" font-weight="bold" lengthAdjust="spacing" textLength="36">atime</text><text x="54" y="225.632" fill="#FFE797" font-family="sans-serif" font-size="11" lengthAdjust="spacing" textLength="58">: datetime</text><text x="18" y="248.437" fill="#FFE797" font-family="sans-serif" font-size="11" font-weight="bold" lengthAdjust="spacing" textLength="74">last_access</text><text x="92" y="248.437" fill="#FFE797" font-family="sans-serif" font-size="11" lengthAdjust="spacing" textLength="159">: trafo.duration_to_datetime</text><text x="18" y="271.242" fill="#FFE797" font-family="sans-serif" font-size="11" font-weight="bold" lengthAdjust="spacing" textLength="27">kind</text><text x="45" y="271.242" fill="#FFE797" font-family="sans-serif" font-size="11" lengthAdjust="spacing" textLength="41">: string</text><rect id="aws_resource" width="155" height="70.594" x="235.5" y="404" fill="#194875" codeLine="29" rx="2.5" ry="2.5" style="stroke:#000;stroke-width:1.5"/><ellipse cx="250.5" cy="423.894" fill="#1A83AF" rx="11" ry="11" style="stroke:#000;stroke-width:1"/><path fill="#000" d="M253.4688,429.5352 Q252.8906,429.832 252.25,429.9727 Q251.6094,430.1289 250.9063,430.1289 Q248.4063,430.1289 247.0781,428.4883 Q245.7656,426.832 245.7656,423.707 Q245.7656,420.582 247.0781,418.9258 Q248.4063,417.2695 250.9063,417.2695 Q251.6094,417.2695 252.25,417.4258 Q252.9063,417.582 253.4688,417.8789 L253.4688,420.5977 Q252.8438,420.0195 252.25,419.7539 Q251.6563,419.4727 251.0313,419.4727 Q249.6875,419.4727 249,420.5508 Q248.3125,421.6133 248.3125,423.707 Q248.3125,425.8008 249,426.8789 Q249.6875,427.9414 251.0313,427.9414 Q251.6563,427.9414 252.25,427.6758 Q252.8438,427.3945 253.4688,426.8164 L253.4688,429.5352 Z"/><text x="269.5" y="429.78" fill="#FFE797" font-family="Helvetica" font-size="17" lengthAdjust="spacing" textLength="113">aws_resource</text><line style="stroke:#000;stroke-width:1.5" x1="236.5" x2="389.5" y1="443.789" y2="443.789"/><text x="246.5" y="463" fill="#FFE797" font-family="sans-serif" font-size="11" font-weight="bold" lengthAdjust="spacing" textLength="21">arn</text><text x="267.5" y="463" fill="#FFE797" font-family="sans-serif" font-size="11" lengthAdjust="spacing" textLength="41">: string</text><rect id="aws_ec2_keypair" width="184" height="39.789" x="158" y="596" fill="#194875" codeLine="32" rx="2.5" ry="2.5" style="stroke:#000;stroke-width:1.5"/><ellipse cx="173" cy="615.894" fill="#1A83AF" rx="11" ry="11" style="stroke:#000;stroke-width:1"/><path fill="#000" d="M175.9688,621.5352 Q175.3906,621.832 174.75,621.9727 Q174.1094,622.1289 173.4063,622.1289 Q170.9063,622.1289 169.5781,620.4883 Q168.2656,618.832 168.2656,615.707 Q168.2656,612.582 169.5781,610.9258 Q170.9063,609.2695 173.4063,609.2695 Q174.1094,609.2695 174.75,609.4258 Q175.4063,609.582 175.9688,609.8789 L175.9688,612.5977 Q175.3438,612.0195 174.75,611.7539 Q174.1563,611.4727 173.5313,611.4727 Q172.1875,611.4727 171.5,612.5508 Q170.8125,613.6133 170.8125,615.707 Q170.8125,617.8008 171.5,618.8789 Q172.1875,619.9414 173.5313,619.9414 Q174.1563,619.9414 174.75,619.6758 Q175.3438,619.3945 175.9688,618.8164 L175.9688,621.5352 Z"/><text x="192" y="621.78" fill="#FFE797" font-family="Helvetica" font-size="17" lengthAdjust="spacing" textLength="142">aws_ec2_keypair</text><rect id="keypair" width="131" height="70.594" x="69.5" y="404" fill="#194875" codeLine="35" rx="2.5" ry="2.5" style="stroke:#000;stroke-width:1.5"/><ellipse cx="96.65" cy="423.894" fill="#1A83AF" rx="11" ry="11" style="stroke:#000;stroke-width:1"/><path fill="#000" d="M99.6188,429.5352 Q99.0406,429.832 98.4,429.9727 Q97.7594,430.1289 97.0563,430.1289 Q94.5563,430.1289 93.2281,428.4883 Q91.9156,426.832 91.9156,423.707 Q91.9156,420.582 93.2281,418.9258 Q94.5563,417.2695 97.0563,417.2695 Q97.7594,417.2695 98.4,417.4258 Q99.0563,417.582 99.6188,417.8789 L99.6188,420.5977 Q98.9938,420.0195 98.4,419.7539 Q97.8063,419.4727 97.1813,419.4727 Q95.8375,419.4727 95.15,420.5508 Q94.4625,421.6133 94.4625,423.707 Q94.4625,425.8008 95.15,426.8789 Q95.8375,427.9414 97.1813,427.9414 Q97.8063,427.9414 98.4,427.6758 Q98.9938,427.3945 99.6188,426.8164 L99.6188,429.5352 Z"/><text x="118.35" y="429.78" fill="#FFE797" font-family="Helvetica" font-size="17" lengthAdjust="spacing" textLength="62">keypair</text><line style="stroke:#000;stroke-width:1.5" x1="70.5" x2="199.5" y1="443.789" y2="443.789"/><text x="80.5" y="463" fill="#FFE797" font-family="sans-serif" font-size="11" font-weight="bold" lengthAdjust="spacing" textLength="68">fingerprint</text><text x="148.5" y="463" fill="#FFE797" font-family="sans-serif" font-size="11" lengthAdjust="spacing" textLength="41">: string</text><path id="aws_resource-backto-aws_ec2_keypair" fill="none" d="M293.49,494.55 C281.04,529.03 265.66,571.63 256.92,595.82" codeLine="38" style="stroke:#ffaf37;stroke-width:2"/><polygon fill="none" points="287.03 491.83 300.4 475.39 300.19 496.58 287.03 491.83" style="stroke:#ffaf37;stroke-width:2"/><path id="keypair-backto-aws_ec2_keypair" fill="none" d="M169.04,492.15 C192.02,527.03 221.05,571.07 237.36,595.82" codeLine="39" style="stroke:#ffaf37;stroke-width:2"/><polygon fill="none" points="163.16 495.94 158 475.39 174.85 488.24 163.16 495.94" style="stroke:#ffaf37;stroke-width:2"/><path id="resource-backto-keypair" fill="none" d="M135,303.43 C135,341.36 135,378.27 135,403.9" codeLine="40" style="stroke:#ffaf37;stroke-width:2"/><polygon fill="none" points="128 303.26 135 283.26 142 303.26 128 303.26" style="stroke:#ffaf37;stroke-width:2"/></g></svg>