<svg xmlns="http://www.w3.org/2000/svg" xmlns:xlink="http://www.w3.org/1999/xlink" width="273" height="547" contentScriptType="application/ecmascript" contentStyleType="text/css" style="width:273px;height:547px;background:#00000000" preserveAspectRatio="none" version="1.1" viewBox="0 0 273 547" zoomAndPan="magnify"><defs><filter id="f3smrwwphhiej" width="300%" height="300%" x="-1" y="-1"><feGaussianBlur result="blurOut" stdDeviation="2"/><feColorMatrix in="blurOut" result="blurOut2" type="matrix" values="0 0 0 0 0 0 0 0 0 0 0 0 0 0 0 0 0 0 .4 0"/><feOffset dx="4" dy="4" in="blurOut2" result="blurOut3"/><feBlend in="SourceGraphic" in2="blurOut3" mode="normal"/></filter></defs><g><rect id="region" width="72" height="48" x="97" y="304" fill="#FEFECE" codeLine="2" filter="url(#f3smrwwphhiej)" style="stroke:#a80036;stroke-width:1.5"/><ellipse cx="112" cy="320" fill="#ADD1B2" rx="11" ry="11" style="stroke:#a80036;stroke-width:1"/><path fill="#000" d="M114.9688,325.6406 Q114.3906,325.9375 113.75,326.0781 Q113.1094,326.2344 112.4063,326.2344 Q109.9063,326.2344 108.5781,324.5938 Q107.2656,322.9375 107.2656,319.8125 Q107.2656,316.6875 108.5781,315.0313 Q109.9063,313.375 112.4063,313.375 Q113.1094,313.375 113.75,313.5313 Q114.4063,313.6875 114.9688,313.9844 L114.9688,316.7031 Q114.3438,316.125 113.75,315.8594 Q113.1563,315.5781 112.5313,315.5781 Q111.1875,315.5781 110.5,316.6563 Q109.8125,317.7188 109.8125,319.8125 Q109.8125,321.9063 110.5,322.9844 Q111.1875,324.0469 112.5313,324.0469 Q113.1563,324.0469 113.75,323.7813 Q114.3438,323.5 114.9688,322.9219 L114.9688,325.6406 Z"/><text x="126" y="324.154" fill="#000" font-family="sans-serif" font-size="12" lengthAdjust="spacing" textLength="40">region</text><line style="stroke:#a80036;stroke-width:1.5" x1="98" x2="168" y1="336" y2="336"/><line style="stroke:#a80036;stroke-width:1.5" x1="98" x2="168" y1="344" y2="344"/><rect id="resource" width="252" height="176.047" x="7" y="7" fill="#FEFECE" codeLine="5" filter="url(#f3smrwwphhiej)" style="stroke:#a80036;stroke-width:1.5"/><ellipse cx="100.75" cy="23" fill="#ADD1B2" rx="11" ry="11" style="stroke:#a80036;stroke-width:1"/><path fill="#000" d="M103.7188,28.6406 Q103.1406,28.9375 102.5,29.0781 Q101.8594,29.2344 101.1563,29.2344 Q98.6563,29.2344 97.3281,27.5938 Q96.0156,25.9375 96.0156,22.8125 Q96.0156,19.6875 97.3281,18.0313 Q98.6563,16.375 101.1563,16.375 Q101.8594,16.375 102.5,16.5313 Q103.1563,16.6875 103.7188,16.9844 L103.7188,19.7031 Q103.0938,19.125 102.5,18.8594 Q101.9063,18.5781 101.2813,18.5781 Q99.9375,18.5781 99.25,19.6563 Q98.5625,20.7188 98.5625,22.8125 Q98.5625,24.9063 99.25,25.9844 Q99.9375,27.0469 101.2813,27.0469 Q101.9063,27.0469 102.5,26.7813 Q103.0938,26.5 103.7188,25.9219 L103.7188,28.6406 Z"/><text x="121.25" y="27.154" fill="#000" font-family="sans-serif" font-size="12" lengthAdjust="spacing" textLength="56">resource</text><line style="stroke:#a80036;stroke-width:1.5" x1="8" x2="258" y1="39" y2="39"/><ellipse cx="18" cy="50" rx="3" ry="3" style="stroke:#038048;stroke-width:1;fill:none"/><text x="27" y="53.21" fill="#000" font-family="sans-serif" font-size="11" lengthAdjust="spacing" textLength="51">id: string</text><ellipse cx="18" cy="62.805" rx="3" ry="3" style="stroke:#038048;stroke-width:1;fill:none"/><text x="27" y="66.015" fill="#000" font-family="sans-serif" font-size="11" lengthAdjust="spacing" textLength="170">tags: dictionary[string, string]</text><ellipse cx="18" cy="75.609" rx="3" ry="3" style="stroke:#038048;stroke-width:1;fill:none"/><text x="27" y="78.82" fill="#000" font-family="sans-serif" font-size="11" lengthAdjust="spacing" textLength="73">name: string</text><ellipse cx="18" cy="88.414" rx="3" ry="3" style="stroke:#038048;stroke-width:1;fill:none"/><text x="27" y="91.624" fill="#000" font-family="sans-serif" font-size="11" lengthAdjust="spacing" textLength="89">ctime: datetime</text><ellipse cx="18" cy="101.219" rx="3" ry="3" style="stroke:#038048;stroke-width:1;fill:none"/><text x="27" y="104.429" fill="#000" font-family="sans-serif" font-size="11" lengthAdjust="spacing" textLength="180">age: trafo.duration_to_datetime</text><ellipse cx="18" cy="114.023" rx="3" ry="3" style="stroke:#038048;stroke-width:1;fill:none"/><text x="27" y="117.234" fill="#000" font-family="sans-serif" font-size="11" lengthAdjust="spacing" textLength="94">mtime: datetime</text><ellipse cx="18" cy="126.828" rx="3" ry="3" style="stroke:#038048;stroke-width:1;fill:none"/><text x="27" y="130.039" fill="#000" font-family="sans-serif" font-size="11" lengthAdjust="spacing" textLength="225">last_update: trafo.duration_to_datetime</text><ellipse cx="18" cy="139.633" rx="3" ry="3" style="stroke:#038048;stroke-width:1;fill:none"/><text x="27" y="142.843" fill="#000" font-family="sans-serif" font-size="11" lengthAdjust="spacing" textLength="90">atime: datetime</text><ellipse cx="18" cy="152.438" rx="3" ry="3" style="stroke:#038048;stroke-width:1;fill:none"/><text x="27" y="155.648" fill="#000" font-family="sans-serif" font-size="11" lengthAdjust="spacing" textLength="226">last_access: trafo.duration_to_datetime</text><ellipse cx="18" cy="165.242" rx="3" ry="3" style="stroke:#038048;stroke-width:1;fill:none"/><text x="27" y="168.453" fill="#000" font-family="sans-serif" font-size="11" lengthAdjust="spacing" textLength="64">kind: string</text><line style="stroke:#a80036;stroke-width:1.5" x1="8" x2="258" y1="175.047" y2="175.047"/><rect id="aws_region" width="115" height="60.805" x="75.5" y="473" fill="#FEFECE" codeLine="17" filter="url(#f3smrwwphhiej)" style="stroke:#a80036;stroke-width:1.5"/><ellipse cx="96.35" cy="489" fill="#ADD1B2" rx="11" ry="11" style="stroke:#a80036;stroke-width:1"/><path fill="#000" d="M99.3188,494.6406 Q98.7406,494.9375 98.1,495.0781 Q97.4594,495.2344 96.7563,495.2344 Q94.2563,495.2344 92.9281,493.5938 Q91.6156,491.9375 91.6156,488.8125 Q91.6156,485.6875 92.9281,484.0313 Q94.2563,482.375 96.7563,482.375 Q97.4594,482.375 98.1,482.5313 Q98.7563,482.6875 99.3188,482.9844 L99.3188,485.7031 Q98.6938,485.125 98.1,484.8594 Q97.5063,484.5781 96.8813,484.5781 Q95.5375,484.5781 94.85,485.6563 Q94.1625,486.7188 94.1625,488.8125 Q94.1625,490.9063 94.85,491.9844 Q95.5375,493.0469 96.8813,493.0469 Q97.5063,493.0469 98.1,492.7813 Q98.6938,492.5 99.3188,491.9219 L99.3188,494.6406 Z"/><text x="111.65" y="493.154" fill="#000" font-family="sans-serif" font-size="12" lengthAdjust="spacing" textLength="70">aws_region</text><line style="stroke:#a80036;stroke-width:1.5" x1="76.5" x2="189.5" y1="505" y2="505"/><ellipse cx="86.5" cy="516" rx="3" ry="3" style="stroke:#038048;stroke-width:1;fill:none"/><text x="95.5" y="519.21" fill="#000" font-family="sans-serif" font-size="11" lengthAdjust="spacing" textLength="89">ctime: datetime</text><line style="stroke:#a80036;stroke-width:1.5" x1="76.5" x2="189.5" y1="525.805" y2="525.805"/><path id="resource-backto-region" fill="none" d="M133,203.18 C133,241 133,280.01 133,303.89" codeLine="20" style="stroke:#a80036;stroke-width:1"/><polygon fill="none" points="126 203 133 183 140 203 126 203" style="stroke:#a80036;stroke-width:1"/><path id="region-backto-aws_region" fill="none" d="M133,372.29 C133,403.69 133,445.33 133,472.97" codeLine="21" style="stroke:#a80036;stroke-width:1"/><polygon fill="none" points="126 372.04 133 352.04 140 372.04 126 372.04" style="stroke:#a80036;stroke-width:1"/></g></svg>