<?xml version="1.0" encoding="UTF-8" standalone="no"?><svg xmlns="http://www.w3.org/2000/svg" xmlns:xlink="http://www.w3.org/1999/xlink" contentScriptType="application/ecmascript" contentStyleType="text/css" height="1039px" preserveAspectRatio="none" style="width:428px;height:1039px;background:#00000000;" version="1.1" viewBox="0 0 428 1039" width="428px" zoomAndPan="magnify"><defs/><g><!--MD5=[156df1ec125634b672185ad659f2920c]
class phantom_resource--><rect codeLine="17" fill="#194875" height="39.7891" id="phantom_resource" rx="2.5" ry="2.5" style="stroke:#000000;stroke-width:1.5;" width="198" x="194.5" y="404"/><ellipse cx="209.5" cy="423.8945" fill="#1A83AF" rx="11" ry="11" style="stroke:#000000;stroke-width:1.0;"/><path d="M212.4688,429.5352 Q211.8906,429.832 211.25,429.9727 Q210.6094,430.1289 209.9063,430.1289 Q207.4063,430.1289 206.0781,428.4883 Q204.7656,426.832 204.7656,423.707 Q204.7656,420.582 206.0781,418.9258 Q207.4063,417.2695 209.9063,417.2695 Q210.6094,417.2695 211.25,417.4258 Q211.9063,417.582 212.4688,417.8789 L212.4688,420.5977 Q211.8438,420.0195 211.25,419.7539 Q210.6563,419.4727 210.0313,419.4727 Q208.6875,419.4727 208,420.5508 Q207.3125,421.6133 207.3125,423.707 Q207.3125,425.8008 208,426.8789 Q208.6875,427.9414 210.0313,427.9414 Q210.6563,427.9414 211.25,427.6758 Q211.8438,427.3945 212.4688,426.8164 L212.4688,429.5352 Z " fill="#000000"/><text fill="#FFE797" font-family="Helvetica" font-size="17" lengthAdjust="spacing" textLength="156" x="228.5" y="429.7798">phantom_resource</text><!--MD5=[7f0ecf5f554433d3f2e1213379ac821c]
class resource--><rect codeLine="20" fill="#194875" height="275.8359" id="resource" rx="2.5" ry="2.5" style="stroke:#000000;stroke-width:1.5;" width="256" x="165.5" y="7"/><ellipse cx="248.75" cy="26.8945" fill="#1A83AF" rx="11" ry="11" style="stroke:#000000;stroke-width:1.0;"/><path d="M251.7188,32.5352 Q251.1406,32.832 250.5,32.9727 Q249.8594,33.1289 249.1563,33.1289 Q246.6563,33.1289 245.3281,31.4883 Q244.0156,29.832 244.0156,26.707 Q244.0156,23.582 245.3281,21.9258 Q246.6563,20.2695 249.1563,20.2695 Q249.8594,20.2695 250.5,20.4258 Q251.1563,20.582 251.7188,20.8789 L251.7188,23.5977 Q251.0938,23.0195 250.5,22.7539 Q249.9063,22.4727 249.2813,22.4727 Q247.9375,22.4727 247.25,23.5508 Q246.5625,24.6133 246.5625,26.707 Q246.5625,28.8008 247.25,29.8789 Q247.9375,30.9414 249.2813,30.9414 Q249.9063,30.9414 250.5,30.6758 Q251.0938,30.3945 251.7188,29.8164 L251.7188,32.5352 Z " fill="#000000"/><text fill="#FFE797" font-family="Helvetica" font-size="17" lengthAdjust="spacing" textLength="71" x="274.25" y="32.7798">resource</text><line style="stroke:#000000;stroke-width:1.5;" x1="166.5" x2="420.5" y1="46.7891" y2="46.7891"/><text fill="#FFE797" font-family="sans-serif" font-size="11" font-weight="bold" lengthAdjust="spacing" textLength="12" x="176.5" y="65.9995">id</text><text fill="#FFE797" font-family="sans-serif" font-size="11" lengthAdjust="spacing" textLength="41" x="188.5" y="65.9995">: string</text><text fill="#FFE797" font-family="sans-serif" font-size="11" font-weight="bold" lengthAdjust="spacing" textLength="28" x="176.5" y="88.8042">tags</text><text fill="#FFE797" font-family="sans-serif" font-size="11" lengthAdjust="spacing" textLength="145" x="204.5" y="88.8042">: dictionary[string, string]</text><text fill="#FFE797" font-family="sans-serif" font-size="11" font-weight="bold" lengthAdjust="spacing" textLength="35" x="176.5" y="111.6089">name</text><text fill="#FFE797" font-family="sans-serif" font-size="11" lengthAdjust="spacing" textLength="41" x="211.5" y="111.6089">: string</text><text fill="#FFE797" font-family="sans-serif" font-size="11" font-weight="bold" lengthAdjust="spacing" textLength="35" x="176.5" y="134.4136">ctime</text><text fill="#FFE797" font-family="sans-serif" font-size="11" lengthAdjust="spacing" textLength="58" x="211.5" y="134.4136">: datetime</text><text fill="#FFE797" font-family="sans-serif" font-size="11" font-weight="bold" lengthAdjust="spacing" textLength="24" x="176.5" y="157.2183">age</text><text fill="#FFE797" font-family="sans-serif" font-size="11" lengthAdjust="spacing" textLength="159" x="200.5" y="157.2183">: trafo.duration_to_datetime</text><text fill="#FFE797" font-family="sans-serif" font-size="11" font-weight="bold" lengthAdjust="spacing" textLength="39" x="176.5" y="180.0229">mtime</text><text fill="#FFE797" font-family="sans-serif" font-size="11" lengthAdjust="spacing" textLength="58" x="215.5" y="180.0229">: datetime</text><text fill="#FFE797" font-family="sans-serif" font-size="11" font-weight="bold" lengthAdjust="spacing" textLength="75" x="176.5" y="202.8276">last_update</text><text fill="#FFE797" font-family="sans-serif" font-size="11" lengthAdjust="spacing" textLength="159" x="251.5" y="202.8276">: trafo.duration_to_datetime</text><text fill="#FFE797" font-family="sans-serif" font-size="11" font-weight="bold" lengthAdjust="spacing" textLength="36" x="176.5" y="225.6323">atime</text><text fill="#FFE797" font-family="sans-serif" font-size="11" lengthAdjust="spacing" textLength="58" x="212.5" y="225.6323">: datetime</text><text fill="#FFE797" font-family="sans-serif" font-size="11" font-weight="bold" lengthAdjust="spacing" textLength="74" x="176.5" y="248.437">last_access</text><text fill="#FFE797" font-family="sans-serif" font-size="11" lengthAdjust="spacing" textLength="159" x="250.5" y="248.437">: trafo.duration_to_datetime</text><text fill="#FFE797" font-family="sans-serif" font-size="11" font-weight="bold" lengthAdjust="spacing" textLength="27" x="176.5" y="271.2417">kind</text><text fill="#FFE797" font-family="sans-serif" font-size="11" lengthAdjust="spacing" textLength="41" x="203.5" y="271.2417">: string</text><!--MD5=[c069b88079f3e36515859a1683f3923c]
class aws_resource--><rect codeLine="32" fill="#194875" height="70.5938" id="aws_resource" rx="2.5" ry="2.5" style="stroke:#000000;stroke-width:1.5;" width="155" x="19" y="802"/><ellipse cx="34" cy="821.8945" fill="#1A83AF" rx="11" ry="11" style="stroke:#000000;stroke-width:1.0;"/><path d="M36.9688,827.5352 Q36.3906,827.832 35.75,827.9727 Q35.1094,828.1289 34.4063,828.1289 Q31.9063,828.1289 30.5781,826.4883 Q29.2656,824.832 29.2656,821.707 Q29.2656,818.582 30.5781,816.9258 Q31.9063,815.2695 34.4063,815.2695 Q35.1094,815.2695 35.75,815.4258 Q36.4063,815.582 36.9688,815.8789 L36.9688,818.5977 Q36.3438,818.0195 35.75,817.7539 Q35.1563,817.4727 34.5313,817.4727 Q33.1875,817.4727 32.5,818.5508 Q31.8125,819.6133 31.8125,821.707 Q31.8125,823.8008 32.5,824.8789 Q33.1875,825.9414 34.5313,825.9414 Q35.1563,825.9414 35.75,825.6758 Q36.3438,825.3945 36.9688,824.8164 L36.9688,827.5352 Z " fill="#000000"/><text fill="#FFE797" font-family="Helvetica" font-size="17" lengthAdjust="spacing" textLength="113" x="53" y="827.7798">aws_resource</text><line style="stroke:#000000;stroke-width:1.5;" x1="20" x2="173" y1="841.7891" y2="841.7891"/><text fill="#FFE797" font-family="sans-serif" font-size="11" font-weight="bold" lengthAdjust="spacing" textLength="21" x="30" y="860.9995">arn</text><text fill="#FFE797" font-family="sans-serif" font-size="11" lengthAdjust="spacing" textLength="41" x="51" y="860.9995">: string</text><!--MD5=[205bc3e74ea7d385e2b6aa1bb29a5024]
class quota--><rect codeLine="35" fill="#194875" height="116.2031" id="quota" rx="2.5" ry="2.5" style="stroke:#000000;stroke-width:1.5;" width="134" x="226.5" y="565"/><ellipse cx="261.3" cy="584.8945" fill="#1A83AF" rx="11" ry="11" style="stroke:#000000;stroke-width:1.0;"/><path d="M264.2688,590.5352 Q263.6906,590.832 263.05,590.9727 Q262.4094,591.1289 261.7063,591.1289 Q259.2063,591.1289 257.8781,589.4883 Q256.5656,587.832 256.5656,584.707 Q256.5656,581.582 257.8781,579.9258 Q259.2063,578.2695 261.7063,578.2695 Q262.4094,578.2695 263.05,578.4258 Q263.7063,578.582 264.2688,578.8789 L264.2688,581.5977 Q263.6438,581.0195 263.05,580.7539 Q262.4563,580.4727 261.8313,580.4727 Q260.4875,580.4727 259.8,581.5508 Q259.1125,582.6133 259.1125,584.707 Q259.1125,586.8008 259.8,587.8789 Q260.4875,588.9414 261.8313,588.9414 Q262.4563,588.9414 263.05,588.6758 Q263.6438,588.3945 264.2688,587.8164 L264.2688,590.5352 Z " fill="#000000"/><text fill="#FFE797" font-family="Helvetica" font-size="17" lengthAdjust="spacing" textLength="48" x="284.7" y="590.7798">quota</text><line style="stroke:#000000;stroke-width:1.5;" x1="227.5" x2="359.5" y1="604.7891" y2="604.7891"/><text fill="#FFE797" font-family="sans-serif" font-size="11" font-weight="bold" lengthAdjust="spacing" textLength="37" x="237.5" y="623.9995">quota</text><text fill="#FFE797" font-family="sans-serif" font-size="11" lengthAdjust="spacing" textLength="46" x="274.5" y="623.9995">: double</text><text fill="#FFE797" font-family="sans-serif" font-size="11" font-weight="bold" lengthAdjust="spacing" textLength="39" x="237.5" y="646.8042">usage</text><text fill="#FFE797" font-family="sans-serif" font-size="11" lengthAdjust="spacing" textLength="46" x="276.5" y="646.8042">: double</text><text fill="#FFE797" font-family="sans-serif" font-size="11" font-weight="bold" lengthAdjust="spacing" textLength="71" x="237.5" y="669.6089">quota_type</text><text fill="#FFE797" font-family="sans-serif" font-size="11" lengthAdjust="spacing" textLength="41" x="308.5" y="669.6089">: string</text><!--MD5=[8cbe3fb2e7f90bf8b96fbca2aa45f27a]
class instance_quota--><rect codeLine="40" fill="#194875" height="70.5938" id="instance_quota" rx="2.5" ry="2.5" style="stroke:#000000;stroke-width:1.5;" width="169" x="209" y="802"/><ellipse cx="224" cy="821.8945" fill="#1A83AF" rx="11" ry="11" style="stroke:#000000;stroke-width:1.0;"/><path d="M226.9688,827.5352 Q226.3906,827.832 225.75,827.9727 Q225.1094,828.1289 224.4063,828.1289 Q221.9063,828.1289 220.5781,826.4883 Q219.2656,824.832 219.2656,821.707 Q219.2656,818.582 220.5781,816.9258 Q221.9063,815.2695 224.4063,815.2695 Q225.1094,815.2695 225.75,815.4258 Q226.4063,815.582 226.9688,815.8789 L226.9688,818.5977 Q226.3438,818.0195 225.75,817.7539 Q225.1563,817.4727 224.5313,817.4727 Q223.1875,817.4727 222.5,818.5508 Q221.8125,819.6133 221.8125,821.707 Q221.8125,823.8008 222.5,824.8789 Q223.1875,825.9414 224.5313,825.9414 Q225.1563,825.9414 225.75,825.6758 Q226.3438,825.3945 226.9688,824.8164 L226.9688,827.5352 Z " fill="#000000"/><text fill="#FFE797" font-family="Helvetica" font-size="17" lengthAdjust="spacing" textLength="127" x="243" y="827.7798">instance_quota</text><line style="stroke:#000000;stroke-width:1.5;" x1="210" x2="377" y1="841.7891" y2="841.7891"/><text fill="#FFE797" font-family="sans-serif" font-size="11" font-weight="bold" lengthAdjust="spacing" textLength="89" x="220" y="860.9995">instance_type</text><text fill="#FFE797" font-family="sans-serif" font-size="11" lengthAdjust="spacing" textLength="41" x="309" y="860.9995">: string</text><!--MD5=[22d2efb2e7f987df58498ac7e545f04b]
class aws_ec2_instance_quota--><rect codeLine="43" fill="#194875" height="39.7891" id="aws_ec2_instance_quota" rx="2.5" ry="2.5" style="stroke:#000000;stroke-width:1.5;" width="249" x="7" y="994"/><ellipse cx="22" cy="1013.8945" fill="#1A83AF" rx="11" ry="11" style="stroke:#000000;stroke-width:1.0;"/><path d="M24.9688,1019.5352 Q24.3906,1019.832 23.75,1019.9727 Q23.1094,1020.1289 22.4063,1020.1289 Q19.9063,1020.1289 18.5781,1018.4883 Q17.2656,1016.832 17.2656,1013.707 Q17.2656,1010.582 18.5781,1008.9258 Q19.9063,1007.2695 22.4063,1007.2695 Q23.1094,1007.2695 23.75,1007.4258 Q24.4063,1007.582 24.9688,1007.8789 L24.9688,1010.5977 Q24.3438,1010.0195 23.75,1009.7539 Q23.1563,1009.4727 22.5313,1009.4727 Q21.1875,1009.4727 20.5,1010.5508 Q19.8125,1011.6133 19.8125,1013.707 Q19.8125,1015.8008 20.5,1016.8789 Q21.1875,1017.9414 22.5313,1017.9414 Q23.1563,1017.9414 23.75,1017.6758 Q24.3438,1017.3945 24.9688,1016.8164 L24.9688,1019.5352 Z " fill="#000000"/><text fill="#FFE797" font-family="Helvetica" font-size="17" lengthAdjust="spacing" textLength="207" x="41" y="1019.7798">aws_ec2_instance_quota</text><!--MD5=[e134558fd6f7e839ecb28ecbda576c0a]
reverse link resource to phantom_resource--><path codeLine="46" d="M293.5,303.48 C293.5,343.73 293.5,381.81 293.5,403.75 " fill="none" id="resource-backto-phantom_resource" style="stroke:#FFAF37;stroke-width:2.0;"/><polygon fill="none" points="286.5,303.28,293.5,283.28,300.5,303.28,286.5,303.28" style="stroke:#FFAF37;stroke-width:2.0;"/><!--MD5=[8c556d10106c40540c768b31155cb09d]
reverse link phantom_resource to quota--><path codeLine="47" d="M293.5,464.28 C293.5,493.07 293.5,532.58 293.5,564.86 " fill="none" id="phantom_resource-backto-quota" style="stroke:#FFAF37;stroke-width:2.0;"/><polygon fill="none" points="286.5,464.25,293.5,444.25,300.5,464.25,286.5,464.25" style="stroke:#FFAF37;stroke-width:2.0;"/><!--MD5=[76640ff8015b8a680d36e237912f5c7c]
reverse link quota to instance_quota--><path codeLine="48" d="M293.5,701.41 C293.5,735.84 293.5,774.65 293.5,801.8 " fill="none" id="quota-backto-instance_quota" style="stroke:#FFAF37;stroke-width:2.0;"/><polygon fill="none" points="286.5,701.23,293.5,681.23,300.5,701.23,286.5,701.23" style="stroke:#FFAF37;stroke-width:2.0;"/><!--MD5=[2b9bef2b01f969a7d89a6e693b7988bb]
reverse link aws_resource to aws_ec2_instance_quota--><path codeLine="49" d="M107.44,893.04 C114.34,927.43 122.82,969.75 127.65,993.82 " fill="none" id="aws_resource-backto-aws_ec2_instance_quota" style="stroke:#FFAF37;stroke-width:2.0;"/><polygon fill="none" points="100.57,894.38,103.5,873.39,114.3,891.63,100.57,894.38" style="stroke:#FFAF37;stroke-width:2.0;"/><!--MD5=[9054aae28a1438629099acbc88cf024b]
reverse link instance_quota to aws_ec2_instance_quota--><path codeLine="50" d="M247.32,888.25 C214.67,923.41 172.71,968.62 149.3,993.82 " fill="none" id="instance_quota-backto-aws_ec2_instance_quota" style="stroke:#FFAF37;stroke-width:2.0;"/><polygon fill="none" points="242.37,883.29,261.11,873.39,252.63,892.81,242.37,883.29" style="stroke:#FFAF37;stroke-width:2.0;"/><!--MD5=[95b5773c8800068fb8825c48a0459c1d]
@startuml
hide empty members
skinparam ArrowColor #ffaf37
skinparam ArrowThickness 2
skinparam BackgroundColor transparent
skinparam ClassAttributeFontColor #ffe797
skinparam ClassBackgroundColor #194875
skinparam ClassBorderColor Black
skinparam ClassFontColor #ffe797
skinparam ClassFontName Helvetica
skinparam ClassFontSize 17
skinparam Padding 5
skinparam RoundCorner 5
skinparam Shadowing false
skinparam stereotypeCBackgroundColor #1a83af
skinparam stereotypeIBackgroundColor #1a83af

class phantom_resource {

}
class resource {
**id**: string
**tags**: dictionary[string, string]
**name**: string
**ctime**: datetime
**age**: trafo.duration_to_datetime
**mtime**: datetime
**last_update**: trafo.duration_to_datetime
**atime**: datetime
**last_access**: trafo.duration_to_datetime
**kind**: string
}
class aws_resource {
**arn**: string
}
class quota {
**quota**: double
**usage**: double
**quota_type**: string
}
class instance_quota {
**instance_type**: string
}
class aws_ec2_instance_quota {

}
resource <|- - - phantom_resource
phantom_resource <|- - - quota
quota <|- - - instance_quota
aws_resource <|- - - aws_ec2_instance_quota
instance_quota <|- - - aws_ec2_instance_quota
@enduml

PlantUML version 1.2021.16(Wed Dec 08 17:25:22 UTC 2021)
(GPL source distribution)
Java Runtime: OpenJDK Runtime Environment
JVM: OpenJDK 64-Bit Server VM
Default Encoding: UTF-8
Language: en
Country: null
--></g></svg>