<svg xmlns="http://www.w3.org/2000/svg" xmlns:xlink="http://www.w3.org/1999/xlink" width="414" height="641" contentScriptType="application/ecmascript" contentStyleType="text/css" style="width:414px;height:641px;background:#00000000" preserveAspectRatio="none" version="1.1" viewBox="0 0 414 641" zoomAndPan="magnify"><g><rect id="resource" width="256" height="275.836" x="7" y="7" fill="#194875" codeLine="17" rx="2.5" ry="2.5" style="stroke:#000;stroke-width:1.5"/><ellipse cx="90.25" cy="26.895" fill="#1A83AF" rx="11" ry="11" style="stroke:#000;stroke-width:1"/><path fill="#000" d="M93.2188,32.5352 Q92.6406,32.832 92,32.9727 Q91.3594,33.1289 90.6563,33.1289 Q88.1563,33.1289 86.8281,31.4883 Q85.5156,29.832 85.5156,26.707 Q85.5156,23.582 86.8281,21.9258 Q88.1563,20.2695 90.6563,20.2695 Q91.3594,20.2695 92,20.4258 Q92.6563,20.582 93.2188,20.8789 L93.2188,23.5977 Q92.5938,23.0195 92,22.7539 Q91.4063,22.4727 90.7813,22.4727 Q89.4375,22.4727 88.75,23.5508 Q88.0625,24.6133 88.0625,26.707 Q88.0625,28.8008 88.75,29.8789 Q89.4375,30.9414 90.7813,30.9414 Q91.4063,30.9414 92,30.6758 Q92.5938,30.3945 93.2188,29.8164 L93.2188,32.5352 Z"/><text x="115.75" y="32.78" fill="#FFE797" font-family="Helvetica" font-size="17" lengthAdjust="spacing" textLength="71">resource</text><line style="stroke:#000;stroke-width:1.5" x1="8" x2="262" y1="46.789" y2="46.789"/><text x="18" y="65.999" fill="#FFE797" font-family="sans-serif" font-size="11" font-weight="bold" lengthAdjust="spacing" textLength="12">id</text><text x="30" y="65.999" fill="#FFE797" font-family="sans-serif" font-size="11" lengthAdjust="spacing" textLength="41">: string</text><text x="18" y="88.804" fill="#FFE797" font-family="sans-serif" font-size="11" font-weight="bold" lengthAdjust="spacing" textLength="28">tags</text><text x="46" y="88.804" fill="#FFE797" font-family="sans-serif" font-size="11" lengthAdjust="spacing" textLength="145">: dictionary[string, string]</text><text x="18" y="111.609" fill="#FFE797" font-family="sans-serif" font-size="11" font-weight="bold" lengthAdjust="spacing" textLength="35">name</text><text x="53" y="111.609" fill="#FFE797" font-family="sans-serif" font-size="11" lengthAdjust="spacing" textLength="41">: string</text><text x="18" y="134.414" fill="#FFE797" font-family="sans-serif" font-size="11" font-weight="bold" lengthAdjust="spacing" textLength="35">ctime</text><text x="53" y="134.414" fill="#FFE797" font-family="sans-serif" font-size="11" lengthAdjust="spacing" textLength="58">: datetime</text><text x="18" y="157.218" fill="#FFE797" font-family="sans-serif" font-size="11" font-weight="bold" lengthAdjust="spacing" textLength="24">age</text><text x="42" y="157.218" fill="#FFE797" font-family="sans-serif" font-size="11" lengthAdjust="spacing" textLength="159">: trafo.duration_to_datetime</text><text x="18" y="180.023" fill="#FFE797" font-family="sans-serif" font-size="11" font-weight="bold" lengthAdjust="spacing" textLength="39">mtime</text><text x="57" y="180.023" fill="#FFE797" font-family="sans-serif" font-size="11" lengthAdjust="spacing" textLength="58">: datetime</text><text x="18" y="202.828" fill="#FFE797" font-family="sans-serif" font-size="11" font-weight="bold" lengthAdjust="spacing" textLength="75">last_update</text><text x="93" y="202.828" fill="#FFE797" font-family="sans-serif" font-size="11" lengthAdjust="spacing" textLength="159">: trafo.duration_to_datetime</text><text x="18" y="225.632" fill="#FFE797" font-family="sans-serif" font-size="11" font-weight="bold" lengthAdjust="spacing" textLength="36">atime</text><text x="54" y="225.632" fill="#FFE797" font-family="sans-serif" font-size="11" lengthAdjust="spacing" textLength="58">: datetime</text><text x="18" y="248.437" fill="#FFE797" font-family="sans-serif" font-size="11" font-weight="bold" lengthAdjust="spacing" textLength="74">last_access</text><text x="92" y="248.437" fill="#FFE797" font-family="sans-serif" font-size="11" lengthAdjust="spacing" textLength="159">: trafo.duration_to_datetime</text><text x="18" y="271.242" fill="#FFE797" font-family="sans-serif" font-size="11" font-weight="bold" lengthAdjust="spacing" textLength="27">kind</text><text x="45" y="271.242" fill="#FFE797" font-family="sans-serif" font-size="11" lengthAdjust="spacing" textLength="41">: string</text><rect id="aws_resource" width="155" height="70.594" x="252.5" y="404" fill="#194875" codeLine="29" rx="2.5" ry="2.5" style="stroke:#000;stroke-width:1.5"/><ellipse cx="267.5" cy="423.894" fill="#1A83AF" rx="11" ry="11" style="stroke:#000;stroke-width:1"/><path fill="#000" d="M270.4688,429.5352 Q269.8906,429.832 269.25,429.9727 Q268.6094,430.1289 267.9063,430.1289 Q265.4063,430.1289 264.0781,428.4883 Q262.7656,426.832 262.7656,423.707 Q262.7656,420.582 264.0781,418.9258 Q265.4063,417.2695 267.9063,417.2695 Q268.6094,417.2695 269.25,417.4258 Q269.9063,417.582 270.4688,417.8789 L270.4688,420.5977 Q269.8438,420.0195 269.25,419.7539 Q268.6563,419.4727 268.0313,419.4727 Q266.6875,419.4727 266,420.5508 Q265.3125,421.6133 265.3125,423.707 Q265.3125,425.8008 266,426.8789 Q266.6875,427.9414 268.0313,427.9414 Q268.6563,427.9414 269.25,427.6758 Q269.8438,427.3945 270.4688,426.8164 L270.4688,429.5352 Z"/><text x="286.5" y="429.78" fill="#FFE797" font-family="Helvetica" font-size="17" lengthAdjust="spacing" textLength="113">aws_resource</text><line style="stroke:#000;stroke-width:1.5" x1="253.5" x2="406.5" y1="443.789" y2="443.789"/><text x="263.5" y="463" fill="#FFE797" font-family="sans-serif" font-size="11" font-weight="bold" lengthAdjust="spacing" textLength="21">arn</text><text x="284.5" y="463" fill="#FFE797" font-family="sans-serif" font-size="11" lengthAdjust="spacing" textLength="41">: string</text><rect id="security_group" width="165" height="39.789" x="52.5" y="419.5" fill="#194875" codeLine="32" rx="2.5" ry="2.5" style="stroke:#000;stroke-width:1.5"/><ellipse cx="67.5" cy="439.394" fill="#1A83AF" rx="11" ry="11" style="stroke:#000;stroke-width:1"/><path fill="#000" d="M70.4688,445.0352 Q69.8906,445.332 69.25,445.4727 Q68.6094,445.6289 67.9063,445.6289 Q65.4063,445.6289 64.0781,443.9883 Q62.7656,442.332 62.7656,439.207 Q62.7656,436.082 64.0781,434.4258 Q65.4063,432.7695 67.9063,432.7695 Q68.6094,432.7695 69.25,432.9258 Q69.9063,433.082 70.4688,433.3789 L70.4688,436.0977 Q69.8438,435.5195 69.25,435.2539 Q68.6563,434.9727 68.0313,434.9727 Q66.6875,434.9727 66,436.0508 Q65.3125,437.1133 65.3125,439.207 Q65.3125,441.3008 66,442.3789 Q66.6875,443.4414 68.0313,443.4414 Q68.6563,443.4414 69.25,443.1758 Q69.8438,442.8945 70.4688,442.3164 L70.4688,445.0352 Z"/><text x="86.5" y="445.28" fill="#FFE797" font-family="Helvetica" font-size="17" lengthAdjust="spacing" textLength="123">security_group</text><rect id="aws_ec2_security_group" width="245" height="39.789" x="140.5" y="596" fill="#194875" codeLine="35" rx="2.5" ry="2.5" style="stroke:#000;stroke-width:1.5"/><ellipse cx="155.5" cy="615.894" fill="#1A83AF" rx="11" ry="11" style="stroke:#000;stroke-width:1"/><path fill="#000" d="M158.4688,621.5352 Q157.8906,621.832 157.25,621.9727 Q156.6094,622.1289 155.9063,622.1289 Q153.4063,622.1289 152.0781,620.4883 Q150.7656,618.832 150.7656,615.707 Q150.7656,612.582 152.0781,610.9258 Q153.4063,609.2695 155.9063,609.2695 Q156.6094,609.2695 157.25,609.4258 Q157.9063,609.582 158.4688,609.8789 L158.4688,612.5977 Q157.8438,612.0195 157.25,611.7539 Q156.6563,611.4727 156.0313,611.4727 Q154.6875,611.4727 154,612.5508 Q153.3125,613.6133 153.3125,615.707 Q153.3125,617.8008 154,618.8789 Q154.6875,619.9414 156.0313,619.9414 Q156.6563,619.9414 157.25,619.6758 Q157.8438,619.3945 158.4688,618.8164 L158.4688,621.5352 Z"/><text x="174.5" y="621.78" fill="#FFE797" font-family="Helvetica" font-size="17" lengthAdjust="spacing" textLength="203">aws_ec2_security_group</text><path id="resource-backto-security_group" fill="none" d="M135,303.51 C135,349.86 135,394.69 135,419.24" codeLine="38" style="stroke:#ffaf37;stroke-width:2"/><polygon fill="none" points="128 303.26 135 283.26 142 303.26 128 303.26" style="stroke:#ffaf37;stroke-width:2"/><path id="aws_resource-backto-aws_ec2_security_group" fill="none" d="M309.43,494.07 C296.16,528.63 279.69,571.52 270.36,595.82" codeLine="39" style="stroke:#ffaf37;stroke-width:2"/><polygon fill="none" points="302.9 491.56 316.6 475.39 315.97 496.57 302.9 491.56" style="stroke:#ffaf37;stroke-width:2"/><path id="security_group-backto-aws_ec2_security_group" fill="none" d="M161.07,476.04 C187.61,512.22 227.77,566.97 248.88,595.75" codeLine="40" style="stroke:#ffaf37;stroke-width:2"/><polygon fill="none" points="155.13 479.77 148.94 459.51 166.42 471.49 155.13 479.77" style="stroke:#ffaf37;stroke-width:2"/></g></svg>