<svg xmlns="http://www.w3.org/2000/svg" xmlns:xlink="http://www.w3.org/1999/xlink" width="388" height="673" contentScriptType="application/ecmascript" contentStyleType="text/css" style="width:388px;height:673px;background:#00000000" preserveAspectRatio="none" version="1.1" viewBox="0 0 388 673" zoomAndPan="magnify"><g><rect id="resource" width="256" height="275.836" x="7" y="7" fill="#194875" codeLine="17" rx="2.5" ry="2.5" style="stroke:#000;stroke-width:1.5"/><ellipse cx="90.25" cy="26.895" fill="#1A83AF" rx="11" ry="11" style="stroke:#000;stroke-width:1"/><path fill="#000" d="M93.2188,32.5352 Q92.6406,32.832 92,32.9727 Q91.3594,33.1289 90.6563,33.1289 Q88.1563,33.1289 86.8281,31.4883 Q85.5156,29.832 85.5156,26.707 Q85.5156,23.582 86.8281,21.9258 Q88.1563,20.2695 90.6563,20.2695 Q91.3594,20.2695 92,20.4258 Q92.6563,20.582 93.2188,20.8789 L93.2188,23.5977 Q92.5938,23.0195 92,22.7539 Q91.4063,22.4727 90.7813,22.4727 Q89.4375,22.4727 88.75,23.5508 Q88.0625,24.6133 88.0625,26.707 Q88.0625,28.8008 88.75,29.8789 Q89.4375,30.9414 90.7813,30.9414 Q91.4063,30.9414 92,30.6758 Q92.5938,30.3945 93.2188,29.8164 L93.2188,32.5352 Z"/><text x="115.75" y="32.78" fill="#FFE797" font-family="Helvetica" font-size="17" lengthAdjust="spacing" textLength="71">resource</text><line style="stroke:#000;stroke-width:1.5" x1="8" x2="262" y1="46.789" y2="46.789"/><text x="18" y="65.999" fill="#FFE797" font-family="sans-serif" font-size="11" font-weight="bold" lengthAdjust="spacing" textLength="12">id</text><text x="30" y="65.999" fill="#FFE797" font-family="sans-serif" font-size="11" lengthAdjust="spacing" textLength="41">: string</text><text x="18" y="88.804" fill="#FFE797" font-family="sans-serif" font-size="11" font-weight="bold" lengthAdjust="spacing" textLength="28">tags</text><text x="46" y="88.804" fill="#FFE797" font-family="sans-serif" font-size="11" lengthAdjust="spacing" textLength="145">: dictionary[string, string]</text><text x="18" y="111.609" fill="#FFE797" font-family="sans-serif" font-size="11" font-weight="bold" lengthAdjust="spacing" textLength="35">name</text><text x="53" y="111.609" fill="#FFE797" font-family="sans-serif" font-size="11" lengthAdjust="spacing" textLength="41">: string</text><text x="18" y="134.414" fill="#FFE797" font-family="sans-serif" font-size="11" font-weight="bold" lengthAdjust="spacing" textLength="35">ctime</text><text x="53" y="134.414" fill="#FFE797" font-family="sans-serif" font-size="11" lengthAdjust="spacing" textLength="58">: datetime</text><text x="18" y="157.218" fill="#FFE797" font-family="sans-serif" font-size="11" font-weight="bold" lengthAdjust="spacing" textLength="24">age</text><text x="42" y="157.218" fill="#FFE797" font-family="sans-serif" font-size="11" lengthAdjust="spacing" textLength="159">: trafo.duration_to_datetime</text><text x="18" y="180.023" fill="#FFE797" font-family="sans-serif" font-size="11" font-weight="bold" lengthAdjust="spacing" textLength="39">mtime</text><text x="57" y="180.023" fill="#FFE797" font-family="sans-serif" font-size="11" lengthAdjust="spacing" textLength="58">: datetime</text><text x="18" y="202.828" fill="#FFE797" font-family="sans-serif" font-size="11" font-weight="bold" lengthAdjust="spacing" textLength="75">last_update</text><text x="93" y="202.828" fill="#FFE797" font-family="sans-serif" font-size="11" lengthAdjust="spacing" textLength="159">: trafo.duration_to_datetime</text><text x="18" y="225.632" fill="#FFE797" font-family="sans-serif" font-size="11" font-weight="bold" lengthAdjust="spacing" textLength="36">atime</text><text x="54" y="225.632" fill="#FFE797" font-family="sans-serif" font-size="11" lengthAdjust="spacing" textLength="58">: datetime</text><text x="18" y="248.437" fill="#FFE797" font-family="sans-serif" font-size="11" font-weight="bold" lengthAdjust="spacing" textLength="74">last_access</text><text x="92" y="248.437" fill="#FFE797" font-family="sans-serif" font-size="11" lengthAdjust="spacing" textLength="159">: trafo.duration_to_datetime</text><text x="18" y="271.242" fill="#FFE797" font-family="sans-serif" font-size="11" font-weight="bold" lengthAdjust="spacing" textLength="27">kind</text><text x="45" y="271.242" fill="#FFE797" font-family="sans-serif" font-size="11" lengthAdjust="spacing" textLength="41">: string</text><rect id="aws_resource" width="155" height="70.594" x="226.5" y="404" fill="#194875" codeLine="29" rx="2.5" ry="2.5" style="stroke:#000;stroke-width:1.5"/><ellipse cx="241.5" cy="423.894" fill="#1A83AF" rx="11" ry="11" style="stroke:#000;stroke-width:1"/><path fill="#000" d="M244.4688,429.5352 Q243.8906,429.832 243.25,429.9727 Q242.6094,430.1289 241.9063,430.1289 Q239.4063,430.1289 238.0781,428.4883 Q236.7656,426.832 236.7656,423.707 Q236.7656,420.582 238.0781,418.9258 Q239.4063,417.2695 241.9063,417.2695 Q242.6094,417.2695 243.25,417.4258 Q243.9063,417.582 244.4688,417.8789 L244.4688,420.5977 Q243.8438,420.0195 243.25,419.7539 Q242.6563,419.4727 242.0313,419.4727 Q240.6875,419.4727 240,420.5508 Q239.3125,421.6133 239.3125,423.707 Q239.3125,425.8008 240,426.8789 Q240.6875,427.9414 242.0313,427.9414 Q242.6563,427.9414 243.25,427.6758 Q243.8438,427.3945 244.4688,426.8164 L244.4688,429.5352 Z"/><text x="260.5" y="429.78" fill="#FFE797" font-family="Helvetica" font-size="17" lengthAdjust="spacing" textLength="113">aws_resource</text><line style="stroke:#000;stroke-width:1.5" x1="227.5" x2="380.5" y1="443.789" y2="443.789"/><text x="237.5" y="463" fill="#FFE797" font-family="sans-serif" font-size="11" font-weight="bold" lengthAdjust="spacing" textLength="21">arn</text><text x="258.5" y="463" fill="#FFE797" font-family="sans-serif" font-size="11" lengthAdjust="spacing" textLength="41">: string</text><rect id="network" width="112" height="39.789" x="79" y="419.5" fill="#194875" codeLine="32" rx="2.5" ry="2.5" style="stroke:#000;stroke-width:1.5"/><ellipse cx="94" cy="439.394" fill="#1A83AF" rx="11" ry="11" style="stroke:#000;stroke-width:1"/><path fill="#000" d="M96.9688,445.0352 Q96.3906,445.332 95.75,445.4727 Q95.1094,445.6289 94.4063,445.6289 Q91.9063,445.6289 90.5781,443.9883 Q89.2656,442.332 89.2656,439.207 Q89.2656,436.082 90.5781,434.4258 Q91.9063,432.7695 94.4063,432.7695 Q95.1094,432.7695 95.75,432.9258 Q96.4063,433.082 96.9688,433.3789 L96.9688,436.0977 Q96.3438,435.5195 95.75,435.2539 Q95.1563,434.9727 94.5313,434.9727 Q93.1875,434.9727 92.5,436.0508 Q91.8125,437.1133 91.8125,439.207 Q91.8125,441.3008 92.5,442.3789 Q93.1875,443.4414 94.5313,443.4414 Q95.1563,443.4414 95.75,443.1758 Q96.3438,442.8945 96.9688,442.3164 L96.9688,445.0352 Z"/><text x="113" y="445.28" fill="#FFE797" font-family="Helvetica" font-size="17" lengthAdjust="spacing" textLength="70">network</text><rect id="aws_vpc" width="138" height="70.594" x="150" y="596" fill="#194875" codeLine="35" rx="2.5" ry="2.5" style="stroke:#000;stroke-width:1.5"/><ellipse cx="176.7" cy="615.894" fill="#1A83AF" rx="11" ry="11" style="stroke:#000;stroke-width:1"/><path fill="#000" d="M179.6688,621.5352 Q179.0906,621.832 178.45,621.9727 Q177.8094,622.1289 177.1063,622.1289 Q174.6063,622.1289 173.2781,620.4883 Q171.9656,618.832 171.9656,615.707 Q171.9656,612.582 173.2781,610.9258 Q174.6063,609.2695 177.1063,609.2695 Q177.8094,609.2695 178.45,609.4258 Q179.1063,609.582 179.6688,609.8789 L179.6688,612.5977 Q179.0438,612.0195 178.45,611.7539 Q177.8563,611.4727 177.2313,611.4727 Q175.8875,611.4727 175.2,612.5508 Q174.5125,613.6133 174.5125,615.707 Q174.5125,617.8008 175.2,618.8789 Q175.8875,619.9414 177.2313,619.9414 Q177.8563,619.9414 178.45,619.6758 Q179.0438,619.3945 179.6688,618.8164 L179.6688,621.5352 Z"/><text x="198.3" y="621.78" fill="#FFE797" font-family="Helvetica" font-size="17" lengthAdjust="spacing" textLength="70">aws_vpc</text><line style="stroke:#000;stroke-width:1.5" x1="151" x2="287" y1="635.789" y2="635.789"/><text x="161" y="655" fill="#FFE797" font-family="sans-serif" font-size="11" font-weight="bold" lengthAdjust="spacing" textLength="63">is_default</text><text x="224" y="655" fill="#FFE797" font-family="sans-serif" font-size="11" lengthAdjust="spacing" textLength="53">: boolean</text><path id="resource-backto-network" fill="none" d="M135,303.51 C135,349.86 135,394.69 135,419.24" codeLine="38" style="stroke:#ffaf37;stroke-width:2"/><polygon fill="none" points="128 303.26 135 283.26 142 303.26 128 303.26" style="stroke:#ffaf37;stroke-width:2"/><path id="aws_resource-backto-aws_vpc" fill="none" d="M280.08,493.96 C265.48,526.61 247.22,567.41 234.49,595.87" codeLine="39" style="stroke:#ffaf37;stroke-width:2"/><polygon fill="none" points="273.85 490.75 288.41 475.35 286.63 496.46 273.85 490.75" style="stroke:#ffaf37;stroke-width:2"/><path id="network-backto-aws_vpc" fill="none" d="M151.71,478.3 C166.85,512.53 188.96,562.56 203.66,595.79" codeLine="40" style="stroke:#ffaf37;stroke-width:2"/><polygon fill="none" points="145.2 480.89 143.52 459.76 158.01 475.23 145.2 480.89" style="stroke:#ffaf37;stroke-width:2"/></g></svg>