<?xml version="1.0" encoding="UTF-8" standalone="no"?><svg xmlns="http://www.w3.org/2000/svg" xmlns:xlink="http://www.w3.org/1999/xlink" contentScriptType="application/ecmascript" contentStyleType="text/css" height="924px" preserveAspectRatio="none" style="width:395px;height:924px;background:#00000000;" version="1.1" viewBox="0 0 395 924" width="395px" zoomAndPan="magnify"><defs><filter height="300%" id="f3mgmigxmlme5" width="300%" x="-1" y="-1"><feGaussianBlur result="blurOut" stdDeviation="2.0"/><feColorMatrix in="blurOut" result="blurOut2" type="matrix" values="0 0 0 0 0 0 0 0 0 0 0 0 0 0 0 0 0 0 .4 0"/><feOffset dx="4.0" dy="4.0" in="blurOut2" result="blurOut3"/><feBlend in="SourceGraphic" in2="blurOut3" mode="normal"/></filter></defs><g><!--MD5=[156df1ec125634b672185ad659f2920c]
class phantom_resource--><rect codeLine="2" fill="#FEFECE" filter="url(#f3mgmigxmlme5)" height="48" id="phantom_resource" style="stroke:#A80036;stroke-width:1.5;" width="150" x="180.5" y="304"/><ellipse cx="195.5" cy="320" fill="#ADD1B2" rx="11" ry="11" style="stroke:#A80036;stroke-width:1.0;"/><path d="M198.4688,325.6406 Q197.8906,325.9375 197.25,326.0781 Q196.6094,326.2344 195.9063,326.2344 Q193.4063,326.2344 192.0781,324.5938 Q190.7656,322.9375 190.7656,319.8125 Q190.7656,316.6875 192.0781,315.0313 Q193.4063,313.375 195.9063,313.375 Q196.6094,313.375 197.25,313.5313 Q197.9063,313.6875 198.4688,313.9844 L198.4688,316.7031 Q197.8438,316.125 197.25,315.8594 Q196.6563,315.5781 196.0313,315.5781 Q194.6875,315.5781 194,316.6563 Q193.3125,317.7188 193.3125,319.8125 Q193.3125,321.9063 194,322.9844 Q194.6875,324.0469 196.0313,324.0469 Q196.6563,324.0469 197.25,323.7813 Q197.8438,323.5 198.4688,322.9219 L198.4688,325.6406 Z " fill="#000000"/><text fill="#000000" font-family="sans-serif" font-size="12" lengthAdjust="spacing" textLength="118" x="209.5" y="324.1543">phantom_resource</text><line style="stroke:#A80036;stroke-width:1.5;" x1="181.5" x2="329.5" y1="336" y2="336"/><line style="stroke:#A80036;stroke-width:1.5;" x1="181.5" x2="329.5" y1="344" y2="344"/><!--MD5=[7f0ecf5f554433d3f2e1213379ac821c]
class resource--><rect codeLine="5" fill="#FEFECE" filter="url(#f3mgmigxmlme5)" height="176.0469" id="resource" style="stroke:#A80036;stroke-width:1.5;" width="252" x="129.5" y="7"/><ellipse cx="223.25" cy="23" fill="#ADD1B2" rx="11" ry="11" style="stroke:#A80036;stroke-width:1.0;"/><path d="M226.2188,28.6406 Q225.6406,28.9375 225,29.0781 Q224.3594,29.2344 223.6563,29.2344 Q221.1563,29.2344 219.8281,27.5938 Q218.5156,25.9375 218.5156,22.8125 Q218.5156,19.6875 219.8281,18.0313 Q221.1563,16.375 223.6563,16.375 Q224.3594,16.375 225,16.5313 Q225.6563,16.6875 226.2188,16.9844 L226.2188,19.7031 Q225.5938,19.125 225,18.8594 Q224.4063,18.5781 223.7813,18.5781 Q222.4375,18.5781 221.75,19.6563 Q221.0625,20.7188 221.0625,22.8125 Q221.0625,24.9063 221.75,25.9844 Q222.4375,27.0469 223.7813,27.0469 Q224.4063,27.0469 225,26.7813 Q225.5938,26.5 226.2188,25.9219 L226.2188,28.6406 Z " fill="#000000"/><text fill="#000000" font-family="sans-serif" font-size="12" lengthAdjust="spacing" textLength="56" x="243.75" y="27.1543">resource</text><line style="stroke:#A80036;stroke-width:1.5;" x1="130.5" x2="380.5" y1="39" y2="39"/><ellipse cx="140.5" cy="50" rx="3" ry="3" style="stroke:#038048;stroke-width:1.0;fill:none;"/><text fill="#000000" font-family="sans-serif" font-size="11" lengthAdjust="spacing" textLength="51" x="149.5" y="53.2104">id: string</text><ellipse cx="140.5" cy="62.8047" rx="3" ry="3" style="stroke:#038048;stroke-width:1.0;fill:none;"/><text fill="#000000" font-family="sans-serif" font-size="11" lengthAdjust="spacing" textLength="170" x="149.5" y="66.0151">tags: dictionary[string, string]</text><ellipse cx="140.5" cy="75.6094" rx="3" ry="3" style="stroke:#038048;stroke-width:1.0;fill:none;"/><text fill="#000000" font-family="sans-serif" font-size="11" lengthAdjust="spacing" textLength="73" x="149.5" y="78.8198">name: string</text><ellipse cx="140.5" cy="88.4141" rx="3" ry="3" style="stroke:#038048;stroke-width:1.0;fill:none;"/><text fill="#000000" font-family="sans-serif" font-size="11" lengthAdjust="spacing" textLength="89" x="149.5" y="91.6245">ctime: datetime</text><ellipse cx="140.5" cy="101.2188" rx="3" ry="3" style="stroke:#038048;stroke-width:1.0;fill:none;"/><text fill="#000000" font-family="sans-serif" font-size="11" lengthAdjust="spacing" textLength="180" x="149.5" y="104.4292">age: trafo.duration_to_datetime</text><ellipse cx="140.5" cy="114.0234" rx="3" ry="3" style="stroke:#038048;stroke-width:1.0;fill:none;"/><text fill="#000000" font-family="sans-serif" font-size="11" lengthAdjust="spacing" textLength="94" x="149.5" y="117.2339">mtime: datetime</text><ellipse cx="140.5" cy="126.8281" rx="3" ry="3" style="stroke:#038048;stroke-width:1.0;fill:none;"/><text fill="#000000" font-family="sans-serif" font-size="11" lengthAdjust="spacing" textLength="225" x="149.5" y="130.0386">last_update: trafo.duration_to_datetime</text><ellipse cx="140.5" cy="139.6328" rx="3" ry="3" style="stroke:#038048;stroke-width:1.0;fill:none;"/><text fill="#000000" font-family="sans-serif" font-size="11" lengthAdjust="spacing" textLength="90" x="149.5" y="142.8433">atime: datetime</text><ellipse cx="140.5" cy="152.4375" rx="3" ry="3" style="stroke:#038048;stroke-width:1.0;fill:none;"/><text fill="#000000" font-family="sans-serif" font-size="11" lengthAdjust="spacing" textLength="226" x="149.5" y="155.6479">last_access: trafo.duration_to_datetime</text><ellipse cx="140.5" cy="165.2422" rx="3" ry="3" style="stroke:#038048;stroke-width:1.0;fill:none;"/><text fill="#000000" font-family="sans-serif" font-size="11" lengthAdjust="spacing" textLength="64" x="149.5" y="168.4526">kind: string</text><line style="stroke:#A80036;stroke-width:1.5;" x1="130.5" x2="380.5" y1="175.0469" y2="175.0469"/><!--MD5=[c069b88079f3e36515859a1683f3923c]
class aws_resource--><rect codeLine="17" fill="#FEFECE" filter="url(#f3mgmigxmlme5)" height="60.8047" id="aws_resource" style="stroke:#A80036;stroke-width:1.5;" width="118" x="33.5" y="680"/><ellipse cx="48.5" cy="696" fill="#ADD1B2" rx="11" ry="11" style="stroke:#A80036;stroke-width:1.0;"/><path d="M51.4688,701.6406 Q50.8906,701.9375 50.25,702.0781 Q49.6094,702.2344 48.9063,702.2344 Q46.4063,702.2344 45.0781,700.5938 Q43.7656,698.9375 43.7656,695.8125 Q43.7656,692.6875 45.0781,691.0313 Q46.4063,689.375 48.9063,689.375 Q49.6094,689.375 50.25,689.5313 Q50.9063,689.6875 51.4688,689.9844 L51.4688,692.7031 Q50.8438,692.125 50.25,691.8594 Q49.6563,691.5781 49.0313,691.5781 Q47.6875,691.5781 47,692.6563 Q46.3125,693.7188 46.3125,695.8125 Q46.3125,697.9063 47,698.9844 Q47.6875,700.0469 49.0313,700.0469 Q49.6563,700.0469 50.25,699.7813 Q50.8438,699.5 51.4688,698.9219 L51.4688,701.6406 Z " fill="#000000"/><text fill="#000000" font-family="sans-serif" font-size="12" lengthAdjust="spacing" textLength="86" x="62.5" y="700.1543">aws_resource</text><line style="stroke:#A80036;stroke-width:1.5;" x1="34.5" x2="150.5" y1="712" y2="712"/><ellipse cx="44.5" cy="723" rx="3" ry="3" style="stroke:#038048;stroke-width:1.0;fill:none;"/><text fill="#000000" font-family="sans-serif" font-size="11" lengthAdjust="spacing" textLength="60" x="53.5" y="726.2104">arn: string</text><line style="stroke:#A80036;stroke-width:1.5;" x1="34.5" x2="150.5" y1="732.8047" y2="732.8047"/><!--MD5=[205bc3e74ea7d385e2b6aa1bb29a5024]
class quota--><rect codeLine="20" fill="#FEFECE" filter="url(#f3mgmigxmlme5)" height="86.4141" id="quota" style="stroke:#A80036;stroke-width:1.5;" width="129" x="191" y="473"/><ellipse cx="233" cy="489" fill="#ADD1B2" rx="11" ry="11" style="stroke:#A80036;stroke-width:1.0;"/><path d="M235.9688,494.6406 Q235.3906,494.9375 234.75,495.0781 Q234.1094,495.2344 233.4063,495.2344 Q230.9063,495.2344 229.5781,493.5938 Q228.2656,491.9375 228.2656,488.8125 Q228.2656,485.6875 229.5781,484.0313 Q230.9063,482.375 233.4063,482.375 Q234.1094,482.375 234.75,482.5313 Q235.4063,482.6875 235.9688,482.9844 L235.9688,485.7031 Q235.3438,485.125 234.75,484.8594 Q234.1563,484.5781 233.5313,484.5781 Q232.1875,484.5781 231.5,485.6563 Q230.8125,486.7188 230.8125,488.8125 Q230.8125,490.9063 231.5,491.9844 Q232.1875,493.0469 233.5313,493.0469 Q234.1563,493.0469 234.75,492.7813 Q235.3438,492.5 235.9688,491.9219 L235.9688,494.6406 Z " fill="#000000"/><text fill="#000000" font-family="sans-serif" font-size="12" lengthAdjust="spacing" textLength="37" x="253" y="493.1543">quota</text><line style="stroke:#A80036;stroke-width:1.5;" x1="192" x2="319" y1="505" y2="505"/><ellipse cx="202" cy="516" rx="3" ry="3" style="stroke:#038048;stroke-width:1.0;fill:none;"/><text fill="#000000" font-family="sans-serif" font-size="11" lengthAdjust="spacing" textLength="78" x="211" y="519.2104">quota: double</text><ellipse cx="202" cy="528.8047" rx="3" ry="3" style="stroke:#038048;stroke-width:1.0;fill:none;"/><text fill="#000000" font-family="sans-serif" font-size="11" lengthAdjust="spacing" textLength="81" x="211" y="532.0151">usage: double</text><ellipse cx="202" cy="541.6094" rx="3" ry="3" style="stroke:#038048;stroke-width:1.0;fill:none;"/><text fill="#000000" font-family="sans-serif" font-size="11" lengthAdjust="spacing" textLength="103" x="211" y="544.8198">quota_type: string</text><line style="stroke:#A80036;stroke-width:1.5;" x1="192" x2="319" y1="551.4141" y2="551.4141"/><!--MD5=[f2e159a96ac7000503ac17b81890b08b]
class certificate_quota--><rect codeLine="25" fill="#FEFECE" filter="url(#f3mgmigxmlme5)" height="48" id="certificate_quota" style="stroke:#A80036;stroke-width:1.5;" width="138" x="186.5" y="686.5"/><ellipse cx="201.5" cy="702.5" fill="#ADD1B2" rx="11" ry="11" style="stroke:#A80036;stroke-width:1.0;"/><path d="M204.4688,708.1406 Q203.8906,708.4375 203.25,708.5781 Q202.6094,708.7344 201.9063,708.7344 Q199.4063,708.7344 198.0781,707.0938 Q196.7656,705.4375 196.7656,702.3125 Q196.7656,699.1875 198.0781,697.5313 Q199.4063,695.875 201.9063,695.875 Q202.6094,695.875 203.25,696.0313 Q203.9063,696.1875 204.4688,696.4844 L204.4688,699.2031 Q203.8438,698.625 203.25,698.3594 Q202.6563,698.0781 202.0313,698.0781 Q200.6875,698.0781 200,699.1563 Q199.3125,700.2188 199.3125,702.3125 Q199.3125,704.4063 200,705.4844 Q200.6875,706.5469 202.0313,706.5469 Q202.6563,706.5469 203.25,706.2813 Q203.8438,706 204.4688,705.4219 L204.4688,708.1406 Z " fill="#000000"/><text fill="#000000" font-family="sans-serif" font-size="12" lengthAdjust="spacing" textLength="106" x="215.5" y="706.6543">certificate_quota</text><line style="stroke:#A80036;stroke-width:1.5;" x1="187.5" x2="323.5" y1="718.5" y2="718.5"/><line style="stroke:#A80036;stroke-width:1.5;" x1="187.5" x2="323.5" y1="726.5" y2="726.5"/><!--MD5=[552019ffe41fea5cb78274e58c2151ab]
class aws_iam_server_certificate_quota--><rect codeLine="28" fill="#FEFECE" filter="url(#f3mgmigxmlme5)" height="48" id="aws_iam_server_certificate_quota" style="stroke:#A80036;stroke-width:1.5;" width="241" x="7" y="862"/><ellipse cx="22" cy="878" fill="#ADD1B2" rx="11" ry="11" style="stroke:#A80036;stroke-width:1.0;"/><path d="M24.9688,883.6406 Q24.3906,883.9375 23.75,884.0781 Q23.1094,884.2344 22.4063,884.2344 Q19.9063,884.2344 18.5781,882.5938 Q17.2656,880.9375 17.2656,877.8125 Q17.2656,874.6875 18.5781,873.0313 Q19.9063,871.375 22.4063,871.375 Q23.1094,871.375 23.75,871.5313 Q24.4063,871.6875 24.9688,871.9844 L24.9688,874.7031 Q24.3438,874.125 23.75,873.8594 Q23.1563,873.5781 22.5313,873.5781 Q21.1875,873.5781 20.5,874.6563 Q19.8125,875.7188 19.8125,877.8125 Q19.8125,879.9063 20.5,880.9844 Q21.1875,882.0469 22.5313,882.0469 Q23.1563,882.0469 23.75,881.7813 Q24.3438,881.5 24.9688,880.9219 L24.9688,883.6406 Z " fill="#000000"/><text fill="#000000" font-family="sans-serif" font-size="12" lengthAdjust="spacing" textLength="209" x="36" y="882.1543">aws_iam_server_certificate_quota</text><line style="stroke:#A80036;stroke-width:1.5;" x1="8" x2="247" y1="894" y2="894"/><line style="stroke:#A80036;stroke-width:1.5;" x1="8" x2="247" y1="902" y2="902"/><!--MD5=[e134558fd6f7e839ecb28ecbda576c0a]
reverse link resource to phantom_resource--><path codeLine="31" d="M255.5,203.18 C255.5,241 255.5,280.01 255.5,303.89 " fill="none" id="resource-backto-phantom_resource" style="stroke:#A80036;stroke-width:1.0;"/><polygon fill="none" points="248.5,203,255.5,183,262.5,203,248.5,203" style="stroke:#A80036;stroke-width:1.0;"/><!--MD5=[8c556d10106c40540c768b31155cb09d]
reverse link phantom_resource to quota--><path codeLine="32" d="M255.5,372.6 C255.5,402.8 255.5,442.79 255.5,472.7 " fill="none" id="phantom_resource-backto-quota" style="stroke:#A80036;stroke-width:1.0;"/><polygon fill="none" points="248.5,372.18,255.5,352.18,262.5,372.18,248.5,372.18" style="stroke:#A80036;stroke-width:1.0;"/><!--MD5=[b4c38ffdb109c0b2955a8b84d2960200]
reverse link quota to certificate_quota--><path codeLine="33" d="M255.5,579.45 C255.5,616.01 255.5,660.02 255.5,686.33 " fill="none" id="quota-backto-certificate_quota" style="stroke:#A80036;stroke-width:1.0;"/><polygon fill="none" points="248.5,579.24,255.5,559.24,262.5,579.24,248.5,579.24" style="stroke:#A80036;stroke-width:1.0;"/><!--MD5=[a8eb8f74a3a05da62bdb50eb2270347f]
reverse link aws_resource to aws_iam_server_certificate_quota--><path codeLine="34" d="M102.5,761.07 C109.19,794.23 117.68,836.32 122.85,861.93 " fill="none" id="aws_resource-backto-aws_iam_server_certificate_quota" style="stroke:#A80036;stroke-width:1.0;"/><polygon fill="none" points="95.61,762.32,98.52,741.33,109.33,759.55,95.61,762.32" style="stroke:#A80036;stroke-width:1.0;"/><!--MD5=[7cd4797e41d14cad12203326673729dd]
reverse link certificate_quota to aws_iam_server_certificate_quota--><path codeLine="35" d="M226.38,750.97 C201.13,785.2 165.45,833.56 144.57,861.87 " fill="none" id="certificate_quota-backto-aws_iam_server_certificate_quota" style="stroke:#A80036;stroke-width:1.0;"/><polygon fill="none" points="221,746.48,238.5,734.54,232.26,754.79,221,746.48" style="stroke:#A80036;stroke-width:1.0;"/><!--MD5=[1f2e4528ea01cbeed60033c92500f580]
@startuml
skinparam backgroundcolor transparent
class phantom_resource {

}
class resource {
+ id: string
+ tags: dictionary[string, string]
+ name: string
+ ctime: datetime
+ age: trafo.duration_to_datetime
+ mtime: datetime
+ last_update: trafo.duration_to_datetime
+ atime: datetime
+ last_access: trafo.duration_to_datetime
+ kind: string
}
class aws_resource {
+ arn: string
}
class quota {
+ quota: double
+ usage: double
+ quota_type: string
}
class certificate_quota {

}
class aws_iam_server_certificate_quota {

}
resource <|- - - phantom_resource
phantom_resource <|- - - quota
quota <|- - - certificate_quota
aws_resource <|- - - aws_iam_server_certificate_quota
certificate_quota <|- - - aws_iam_server_certificate_quota
@enduml

PlantUML version 1.2021.16(Wed Dec 08 17:25:22 UTC 2021)
(GPL source distribution)
Java Runtime: OpenJDK Runtime Environment
JVM: OpenJDK 64-Bit Server VM
Default Encoding: UTF-8
Language: en
Country: null
--></g></svg>