<?xml version="1.0" encoding="UTF-8" standalone="no"?><svg xmlns="http://www.w3.org/2000/svg" xmlns:xlink="http://www.w3.org/1999/xlink" contentScriptType="application/ecmascript" contentStyleType="text/css" height="548px" preserveAspectRatio="none" style="width:363px;height:548px;background:#00000000;" version="1.1" viewBox="0 0 363 548" width="363px" zoomAndPan="magnify"><defs><filter height="300%" id="fgsv3n1vigduy" width="300%" x="-1" y="-1"><feGaussianBlur result="blurOut" stdDeviation="2.0"/><feColorMatrix in="blurOut" result="blurOut2" type="matrix" values="0 0 0 0 0 0 0 0 0 0 0 0 0 0 0 0 0 0 .4 0"/><feOffset dx="4.0" dy="4.0" in="blurOut2" result="blurOut3"/><feBlend in="SourceGraphic" in2="blurOut3" mode="normal"/></filter></defs><g><!--MD5=[7f0ecf5f554433d3f2e1213379ac821c]
class resource--><rect codeLine="2" fill="#FEFECE" filter="url(#fgsv3n1vigduy)" height="176.0469" id="resource" style="stroke:#A80036;stroke-width:1.5;" width="252" x="7" y="7"/><ellipse cx="100.75" cy="23" fill="#ADD1B2" rx="11" ry="11" style="stroke:#A80036;stroke-width:1.0;"/><path d="M103.7188,28.6406 Q103.1406,28.9375 102.5,29.0781 Q101.8594,29.2344 101.1563,29.2344 Q98.6563,29.2344 97.3281,27.5938 Q96.0156,25.9375 96.0156,22.8125 Q96.0156,19.6875 97.3281,18.0313 Q98.6563,16.375 101.1563,16.375 Q101.8594,16.375 102.5,16.5313 Q103.1563,16.6875 103.7188,16.9844 L103.7188,19.7031 Q103.0938,19.125 102.5,18.8594 Q101.9063,18.5781 101.2813,18.5781 Q99.9375,18.5781 99.25,19.6563 Q98.5625,20.7188 98.5625,22.8125 Q98.5625,24.9063 99.25,25.9844 Q99.9375,27.0469 101.2813,27.0469 Q101.9063,27.0469 102.5,26.7813 Q103.0938,26.5 103.7188,25.9219 L103.7188,28.6406 Z " fill="#000000"/><text fill="#000000" font-family="sans-serif" font-size="12" lengthAdjust="spacing" textLength="56" x="121.25" y="27.1543">resource</text><line style="stroke:#A80036;stroke-width:1.5;" x1="8" x2="258" y1="39" y2="39"/><ellipse cx="18" cy="50" rx="3" ry="3" style="stroke:#038048;stroke-width:1.0;fill:none;"/><text fill="#000000" font-family="sans-serif" font-size="11" lengthAdjust="spacing" textLength="51" x="27" y="53.2104">id: string</text><ellipse cx="18" cy="62.8047" rx="3" ry="3" style="stroke:#038048;stroke-width:1.0;fill:none;"/><text fill="#000000" font-family="sans-serif" font-size="11" lengthAdjust="spacing" textLength="170" x="27" y="66.0151">tags: dictionary[string, string]</text><ellipse cx="18" cy="75.6094" rx="3" ry="3" style="stroke:#038048;stroke-width:1.0;fill:none;"/><text fill="#000000" font-family="sans-serif" font-size="11" lengthAdjust="spacing" textLength="73" x="27" y="78.8198">name: string</text><ellipse cx="18" cy="88.4141" rx="3" ry="3" style="stroke:#038048;stroke-width:1.0;fill:none;"/><text fill="#000000" font-family="sans-serif" font-size="11" lengthAdjust="spacing" textLength="89" x="27" y="91.6245">ctime: datetime</text><ellipse cx="18" cy="101.2188" rx="3" ry="3" style="stroke:#038048;stroke-width:1.0;fill:none;"/><text fill="#000000" font-family="sans-serif" font-size="11" lengthAdjust="spacing" textLength="180" x="27" y="104.4292">age: trafo.duration_to_datetime</text><ellipse cx="18" cy="114.0234" rx="3" ry="3" style="stroke:#038048;stroke-width:1.0;fill:none;"/><text fill="#000000" font-family="sans-serif" font-size="11" lengthAdjust="spacing" textLength="94" x="27" y="117.2339">mtime: datetime</text><ellipse cx="18" cy="126.8281" rx="3" ry="3" style="stroke:#038048;stroke-width:1.0;fill:none;"/><text fill="#000000" font-family="sans-serif" font-size="11" lengthAdjust="spacing" textLength="225" x="27" y="130.0386">last_update: trafo.duration_to_datetime</text><ellipse cx="18" cy="139.6328" rx="3" ry="3" style="stroke:#038048;stroke-width:1.0;fill:none;"/><text fill="#000000" font-family="sans-serif" font-size="11" lengthAdjust="spacing" textLength="90" x="27" y="142.8433">atime: datetime</text><ellipse cx="18" cy="152.4375" rx="3" ry="3" style="stroke:#038048;stroke-width:1.0;fill:none;"/><text fill="#000000" font-family="sans-serif" font-size="11" lengthAdjust="spacing" textLength="226" x="27" y="155.6479">last_access: trafo.duration_to_datetime</text><ellipse cx="18" cy="165.2422" rx="3" ry="3" style="stroke:#038048;stroke-width:1.0;fill:none;"/><text fill="#000000" font-family="sans-serif" font-size="11" lengthAdjust="spacing" textLength="64" x="27" y="168.4526">kind: string</text><line style="stroke:#A80036;stroke-width:1.5;" x1="8" x2="258" y1="175.0469" y2="175.0469"/><!--MD5=[c069b88079f3e36515859a1683f3923c]
class aws_resource--><rect codeLine="14" fill="#FEFECE" filter="url(#fgsv3n1vigduy)" height="60.8047" id="aws_resource" style="stroke:#A80036;stroke-width:1.5;" width="118" x="231" y="304"/><ellipse cx="246" cy="320" fill="#ADD1B2" rx="11" ry="11" style="stroke:#A80036;stroke-width:1.0;"/><path d="M248.9688,325.6406 Q248.3906,325.9375 247.75,326.0781 Q247.1094,326.2344 246.4063,326.2344 Q243.9063,326.2344 242.5781,324.5938 Q241.2656,322.9375 241.2656,319.8125 Q241.2656,316.6875 242.5781,315.0313 Q243.9063,313.375 246.4063,313.375 Q247.1094,313.375 247.75,313.5313 Q248.4063,313.6875 248.9688,313.9844 L248.9688,316.7031 Q248.3438,316.125 247.75,315.8594 Q247.1563,315.5781 246.5313,315.5781 Q245.1875,315.5781 244.5,316.6563 Q243.8125,317.7188 243.8125,319.8125 Q243.8125,321.9063 244.5,322.9844 Q245.1875,324.0469 246.5313,324.0469 Q247.1563,324.0469 247.75,323.7813 Q248.3438,323.5 248.9688,322.9219 L248.9688,325.6406 Z " fill="#000000"/><text fill="#000000" font-family="sans-serif" font-size="12" lengthAdjust="spacing" textLength="86" x="260" y="324.1543">aws_resource</text><line style="stroke:#A80036;stroke-width:1.5;" x1="232" x2="348" y1="336" y2="336"/><ellipse cx="242" cy="347" rx="3" ry="3" style="stroke:#038048;stroke-width:1.0;fill:none;"/><text fill="#000000" font-family="sans-serif" font-size="11" lengthAdjust="spacing" textLength="60" x="251" y="350.2104">arn: string</text><line style="stroke:#A80036;stroke-width:1.5;" x1="232" x2="348" y1="356.8047" y2="356.8047"/><!--MD5=[0dce51bb3cd66f7be5ecbafd740e77db]
class aws_ec2_keypair--><rect codeLine="17" fill="#FEFECE" filter="url(#fgsv3n1vigduy)" height="48" id="aws_ec2_keypair" style="stroke:#A80036;stroke-width:1.5;" width="136" x="165" y="486"/><ellipse cx="180" cy="502" fill="#ADD1B2" rx="11" ry="11" style="stroke:#A80036;stroke-width:1.0;"/><path d="M182.9688,507.6406 Q182.3906,507.9375 181.75,508.0781 Q181.1094,508.2344 180.4063,508.2344 Q177.9063,508.2344 176.5781,506.5938 Q175.2656,504.9375 175.2656,501.8125 Q175.2656,498.6875 176.5781,497.0313 Q177.9063,495.375 180.4063,495.375 Q181.1094,495.375 181.75,495.5313 Q182.4063,495.6875 182.9688,495.9844 L182.9688,498.7031 Q182.3438,498.125 181.75,497.8594 Q181.1563,497.5781 180.5313,497.5781 Q179.1875,497.5781 178.5,498.6563 Q177.8125,499.7188 177.8125,501.8125 Q177.8125,503.9063 178.5,504.9844 Q179.1875,506.0469 180.5313,506.0469 Q181.1563,506.0469 181.75,505.7813 Q182.3438,505.5 182.9688,504.9219 L182.9688,507.6406 Z " fill="#000000"/><text fill="#000000" font-family="sans-serif" font-size="12" lengthAdjust="spacing" textLength="104" x="194" y="506.1543">aws_ec2_keypair</text><line style="stroke:#A80036;stroke-width:1.5;" x1="166" x2="300" y1="518" y2="518"/><line style="stroke:#A80036;stroke-width:1.5;" x1="166" x2="300" y1="526" y2="526"/><!--MD5=[8a72132597df3e074ff8933da087a886]
class keypair--><rect codeLine="20" fill="#FEFECE" filter="url(#fgsv3n1vigduy)" height="60.8047" id="keypair" style="stroke:#A80036;stroke-width:1.5;" width="126" x="70" y="304"/><ellipse cx="107.05" cy="320" fill="#ADD1B2" rx="11" ry="11" style="stroke:#A80036;stroke-width:1.0;"/><path d="M110.0188,325.6406 Q109.4406,325.9375 108.8,326.0781 Q108.1594,326.2344 107.4563,326.2344 Q104.9563,326.2344 103.6281,324.5938 Q102.3156,322.9375 102.3156,319.8125 Q102.3156,316.6875 103.6281,315.0313 Q104.9563,313.375 107.4563,313.375 Q108.1594,313.375 108.8,313.5313 Q109.4563,313.6875 110.0188,313.9844 L110.0188,316.7031 Q109.3938,316.125 108.8,315.8594 Q108.2063,315.5781 107.5813,315.5781 Q106.2375,315.5781 105.55,316.6563 Q104.8625,317.7188 104.8625,319.8125 Q104.8625,321.9063 105.55,322.9844 Q106.2375,324.0469 107.5813,324.0469 Q108.2063,324.0469 108.8,323.7813 Q109.3938,323.5 110.0188,322.9219 L110.0188,325.6406 Z " fill="#000000"/><text fill="#000000" font-family="sans-serif" font-size="12" lengthAdjust="spacing" textLength="45" x="125.95" y="324.1543">keypair</text><line style="stroke:#A80036;stroke-width:1.5;" x1="71" x2="195" y1="336" y2="336"/><ellipse cx="81" cy="347" rx="3" ry="3" style="stroke:#038048;stroke-width:1.0;fill:none;"/><text fill="#000000" font-family="sans-serif" font-size="11" lengthAdjust="spacing" textLength="100" x="90" y="350.2104">fingerprint: string</text><line style="stroke:#A80036;stroke-width:1.5;" x1="71" x2="195" y1="356.8047" y2="356.8047"/><!--MD5=[3a177025258d4e2bb4cd79d6b663c0cc]
reverse link aws_resource to aws_ec2_keypair--><path codeLine="23" d="M273.87,384.6 C262.95,417.83 249.03,460.2 240.58,485.93 " fill="none" id="aws_resource-backto-aws_ec2_keypair" style="stroke:#A80036;stroke-width:1.0;"/><polygon fill="none" points="267.31,382.14,280.2,365.33,280.61,386.51,267.31,382.14" style="stroke:#A80036;stroke-width:1.0;"/><!--MD5=[cc16a20967108d38274f2a9db3c86617]
reverse link keypair to aws_ec2_keypair--><path codeLine="24" d="M160.22,382.73 C179.53,416.23 204.6,459.72 219.71,485.93 " fill="none" id="keypair-backto-aws_ec2_keypair" style="stroke:#A80036;stroke-width:1.0;"/><polygon fill="none" points="154.11,386.15,150.19,365.33,166.24,379.16,154.11,386.15" style="stroke:#A80036;stroke-width:1.0;"/><!--MD5=[8488247532a2f49c90c386f28ee08b10]
reverse link resource to keypair--><path codeLine="25" d="M133,203.28 C133,240.06 133,278.33 133,303.78 " fill="none" id="resource-backto-keypair" style="stroke:#A80036;stroke-width:1.0;"/><polygon fill="none" points="126,203.09,133,183.09,140,203.09,126,203.09" style="stroke:#A80036;stroke-width:1.0;"/><!--MD5=[fec127a39fed6d6c92ac935432a98d8a]
@startuml
skinparam backgroundcolor transparent
class resource {
+ id: string
+ tags: dictionary[string, string]
+ name: string
+ ctime: datetime
+ age: trafo.duration_to_datetime
+ mtime: datetime
+ last_update: trafo.duration_to_datetime
+ atime: datetime
+ last_access: trafo.duration_to_datetime
+ kind: string
}
class aws_resource {
+ arn: string
}
class aws_ec2_keypair {

}
class keypair {
+ fingerprint: string
}
aws_resource <|- - - aws_ec2_keypair
keypair <|- - - aws_ec2_keypair
resource <|- - - keypair
@enduml

PlantUML version 1.2021.16(Wed Dec 08 17:25:22 UTC 2021)
(GPL source distribution)
Java Runtime: OpenJDK Runtime Environment
JVM: OpenJDK 64-Bit Server VM
Default Encoding: UTF-8
Language: en
Country: null
--></g></svg>