<?xml version="1.0" encoding="UTF-8" standalone="no"?><svg xmlns="http://www.w3.org/2000/svg" xmlns:xlink="http://www.w3.org/1999/xlink" contentScriptType="application/ecmascript" contentStyleType="text/css" height="641px" preserveAspectRatio="none" style="width:381px;height:641px;background:#00000000;" version="1.1" viewBox="0 0 381 641" width="381px" zoomAndPan="magnify"><defs/><g><!--MD5=[7f0ecf5f554433d3f2e1213379ac821c]
class resource--><rect codeLine="17" fill="#194875" height="275.8359" id="resource" rx="2.5" ry="2.5" style="stroke:#000000;stroke-width:1.5;" width="256" x="7" y="7"/><ellipse cx="90.25" cy="26.8945" fill="#1A83AF" rx="11" ry="11" style="stroke:#000000;stroke-width:1.0;"/><path d="M93.2188,32.5352 Q92.6406,32.832 92,32.9727 Q91.3594,33.1289 90.6563,33.1289 Q88.1563,33.1289 86.8281,31.4883 Q85.5156,29.832 85.5156,26.707 Q85.5156,23.582 86.8281,21.9258 Q88.1563,20.2695 90.6563,20.2695 Q91.3594,20.2695 92,20.4258 Q92.6563,20.582 93.2188,20.8789 L93.2188,23.5977 Q92.5938,23.0195 92,22.7539 Q91.4063,22.4727 90.7813,22.4727 Q89.4375,22.4727 88.75,23.5508 Q88.0625,24.6133 88.0625,26.707 Q88.0625,28.8008 88.75,29.8789 Q89.4375,30.9414 90.7813,30.9414 Q91.4063,30.9414 92,30.6758 Q92.5938,30.3945 93.2188,29.8164 L93.2188,32.5352 Z " fill="#000000"/><text fill="#FFE797" font-family="Helvetica" font-size="17" lengthAdjust="spacing" textLength="71" x="115.75" y="32.7798">resource</text><line style="stroke:#000000;stroke-width:1.5;" x1="8" x2="262" y1="46.7891" y2="46.7891"/><text fill="#FFE797" font-family="sans-serif" font-size="11" font-weight="bold" lengthAdjust="spacing" textLength="12" x="18" y="65.9995">id</text><text fill="#FFE797" font-family="sans-serif" font-size="11" lengthAdjust="spacing" textLength="41" x="30" y="65.9995">: string</text><text fill="#FFE797" font-family="sans-serif" font-size="11" font-weight="bold" lengthAdjust="spacing" textLength="28" x="18" y="88.8042">tags</text><text fill="#FFE797" font-family="sans-serif" font-size="11" lengthAdjust="spacing" textLength="145" x="46" y="88.8042">: dictionary[string, string]</text><text fill="#FFE797" font-family="sans-serif" font-size="11" font-weight="bold" lengthAdjust="spacing" textLength="35" x="18" y="111.6089">name</text><text fill="#FFE797" font-family="sans-serif" font-size="11" lengthAdjust="spacing" textLength="41" x="53" y="111.6089">: string</text><text fill="#FFE797" font-family="sans-serif" font-size="11" font-weight="bold" lengthAdjust="spacing" textLength="35" x="18" y="134.4136">ctime</text><text fill="#FFE797" font-family="sans-serif" font-size="11" lengthAdjust="spacing" textLength="58" x="53" y="134.4136">: datetime</text><text fill="#FFE797" font-family="sans-serif" font-size="11" font-weight="bold" lengthAdjust="spacing" textLength="24" x="18" y="157.2183">age</text><text fill="#FFE797" font-family="sans-serif" font-size="11" lengthAdjust="spacing" textLength="159" x="42" y="157.2183">: trafo.duration_to_datetime</text><text fill="#FFE797" font-family="sans-serif" font-size="11" font-weight="bold" lengthAdjust="spacing" textLength="39" x="18" y="180.0229">mtime</text><text fill="#FFE797" font-family="sans-serif" font-size="11" lengthAdjust="spacing" textLength="58" x="57" y="180.0229">: datetime</text><text fill="#FFE797" font-family="sans-serif" font-size="11" font-weight="bold" lengthAdjust="spacing" textLength="75" x="18" y="202.8276">last_update</text><text fill="#FFE797" font-family="sans-serif" font-size="11" lengthAdjust="spacing" textLength="159" x="93" y="202.8276">: trafo.duration_to_datetime</text><text fill="#FFE797" font-family="sans-serif" font-size="11" font-weight="bold" lengthAdjust="spacing" textLength="36" x="18" y="225.6323">atime</text><text fill="#FFE797" font-family="sans-serif" font-size="11" lengthAdjust="spacing" textLength="58" x="54" y="225.6323">: datetime</text><text fill="#FFE797" font-family="sans-serif" font-size="11" font-weight="bold" lengthAdjust="spacing" textLength="74" x="18" y="248.437">last_access</text><text fill="#FFE797" font-family="sans-serif" font-size="11" lengthAdjust="spacing" textLength="159" x="92" y="248.437">: trafo.duration_to_datetime</text><text fill="#FFE797" font-family="sans-serif" font-size="11" font-weight="bold" lengthAdjust="spacing" textLength="27" x="18" y="271.2417">kind</text><text fill="#FFE797" font-family="sans-serif" font-size="11" lengthAdjust="spacing" textLength="41" x="45" y="271.2417">: string</text><!--MD5=[c069b88079f3e36515859a1683f3923c]
class aws_resource--><rect codeLine="29" fill="#194875" height="70.5938" id="aws_resource" rx="2.5" ry="2.5" style="stroke:#000000;stroke-width:1.5;" width="155" x="219.5" y="404"/><ellipse cx="234.5" cy="423.8945" fill="#1A83AF" rx="11" ry="11" style="stroke:#000000;stroke-width:1.0;"/><path d="M237.4688,429.5352 Q236.8906,429.832 236.25,429.9727 Q235.6094,430.1289 234.9063,430.1289 Q232.4063,430.1289 231.0781,428.4883 Q229.7656,426.832 229.7656,423.707 Q229.7656,420.582 231.0781,418.9258 Q232.4063,417.2695 234.9063,417.2695 Q235.6094,417.2695 236.25,417.4258 Q236.9063,417.582 237.4688,417.8789 L237.4688,420.5977 Q236.8438,420.0195 236.25,419.7539 Q235.6563,419.4727 235.0313,419.4727 Q233.6875,419.4727 233,420.5508 Q232.3125,421.6133 232.3125,423.707 Q232.3125,425.8008 233,426.8789 Q233.6875,427.9414 235.0313,427.9414 Q235.6563,427.9414 236.25,427.6758 Q236.8438,427.3945 237.4688,426.8164 L237.4688,429.5352 Z " fill="#000000"/><text fill="#FFE797" font-family="Helvetica" font-size="17" lengthAdjust="spacing" textLength="113" x="253.5" y="429.7798">aws_resource</text><line style="stroke:#000000;stroke-width:1.5;" x1="220.5" x2="373.5" y1="443.7891" y2="443.7891"/><text fill="#FFE797" font-family="sans-serif" font-size="11" font-weight="bold" lengthAdjust="spacing" textLength="21" x="230.5" y="462.9995">arn</text><text fill="#FFE797" font-family="sans-serif" font-size="11" lengthAdjust="spacing" textLength="41" x="251.5" y="462.9995">: string</text><!--MD5=[b60e41f8c5ce2a05a6014451cfd4b9a4]
class bucket--><rect codeLine="32" fill="#194875" height="39.7891" id="bucket" rx="2.5" ry="2.5" style="stroke:#000000;stroke-width:1.5;" width="98" x="86" y="419.5"/><ellipse cx="101" cy="439.3945" fill="#1A83AF" rx="11" ry="11" style="stroke:#000000;stroke-width:1.0;"/><path d="M103.9688,445.0352 Q103.3906,445.332 102.75,445.4727 Q102.1094,445.6289 101.4063,445.6289 Q98.9063,445.6289 97.5781,443.9883 Q96.2656,442.332 96.2656,439.207 Q96.2656,436.082 97.5781,434.4258 Q98.9063,432.7695 101.4063,432.7695 Q102.1094,432.7695 102.75,432.9258 Q103.4063,433.082 103.9688,433.3789 L103.9688,436.0977 Q103.3438,435.5195 102.75,435.2539 Q102.1563,434.9727 101.5313,434.9727 Q100.1875,434.9727 99.5,436.0508 Q98.8125,437.1133 98.8125,439.207 Q98.8125,441.3008 99.5,442.3789 Q100.1875,443.4414 101.5313,443.4414 Q102.1563,443.4414 102.75,443.1758 Q103.3438,442.8945 103.9688,442.3164 L103.9688,445.0352 Z " fill="#000000"/><text fill="#FFE797" font-family="Helvetica" font-size="17" lengthAdjust="spacing" textLength="56" x="120" y="445.2798">bucket</text><!--MD5=[dc763064429dafde6699fb963bb77801]
class aws_s3_bucket--><rect codeLine="35" fill="#194875" height="39.7891" id="aws_s3_bucket" rx="2.5" ry="2.5" style="stroke:#000000;stroke-width:1.5;" width="168" x="132" y="596"/><ellipse cx="147" cy="615.8945" fill="#1A83AF" rx="11" ry="11" style="stroke:#000000;stroke-width:1.0;"/><path d="M149.9688,621.5352 Q149.3906,621.832 148.75,621.9727 Q148.1094,622.1289 147.4063,622.1289 Q144.9063,622.1289 143.5781,620.4883 Q142.2656,618.832 142.2656,615.707 Q142.2656,612.582 143.5781,610.9258 Q144.9063,609.2695 147.4063,609.2695 Q148.1094,609.2695 148.75,609.4258 Q149.4063,609.582 149.9688,609.8789 L149.9688,612.5977 Q149.3438,612.0195 148.75,611.7539 Q148.1563,611.4727 147.5313,611.4727 Q146.1875,611.4727 145.5,612.5508 Q144.8125,613.6133 144.8125,615.707 Q144.8125,617.8008 145.5,618.8789 Q146.1875,619.9414 147.5313,619.9414 Q148.1563,619.9414 148.75,619.6758 Q149.3438,619.3945 149.9688,618.8164 L149.9688,621.5352 Z " fill="#000000"/><text fill="#FFE797" font-family="Helvetica" font-size="17" lengthAdjust="spacing" textLength="126" x="166" y="621.7798">aws_s3_bucket</text><!--MD5=[c2ce428bba000f1aae17481df3b8690b]
reverse link resource to bucket--><path codeLine="38" d="M135,303.51 C135,349.86 135,394.69 135,419.24 " fill="none" id="resource-backto-bucket" style="stroke:#FFAF37;stroke-width:2.0;"/><polygon fill="none" points="128,303.26,135,283.26,142,303.26,128,303.26" style="stroke:#FFAF37;stroke-width:2.0;"/><!--MD5=[c96310c579abf3dae7cf30e335164f92]
reverse link aws_resource to aws_s3_bucket--><path codeLine="39" d="M272.36,493.59 C256.28,528.23 236.24,571.41 224.9,595.82 " fill="none" id="aws_resource-backto-aws_s3_bucket" style="stroke:#FFAF37;stroke-width:2.0;"/><polygon fill="none" points="266.03,490.59,280.8,475.39,278.73,496.48,266.03,490.59" style="stroke:#FFAF37;stroke-width:2.0;"/><!--MD5=[74b136b4a0a0b9aaaaef28fc2dbcdf47]
reverse link bucket to aws_s3_bucket--><path codeLine="40" d="M152.31,477.79 C169.1,513.97 193.92,567.43 207.06,595.75 " fill="none" id="bucket-backto-aws_s3_bucket" style="stroke:#FFAF37;stroke-width:2.0;"/><polygon fill="none" points="145.89,480.59,143.82,459.51,158.59,474.7,145.89,480.59" style="stroke:#FFAF37;stroke-width:2.0;"/><!--MD5=[ba7c92073b5a8a122266b1b82bcdc6c6]
@startuml
hide empty members
skinparam ArrowColor #ffaf37
skinparam ArrowThickness 2
skinparam BackgroundColor transparent
skinparam ClassAttributeFontColor #ffe797
skinparam ClassBackgroundColor #194875
skinparam ClassBorderColor Black
skinparam ClassFontColor #ffe797
skinparam ClassFontName Helvetica
skinparam ClassFontSize 17
skinparam Padding 5
skinparam RoundCorner 5
skinparam Shadowing false
skinparam stereotypeCBackgroundColor #1a83af
skinparam stereotypeIBackgroundColor #1a83af

class resource {
**id**: string
**tags**: dictionary[string, string]
**name**: string
**ctime**: datetime
**age**: trafo.duration_to_datetime
**mtime**: datetime
**last_update**: trafo.duration_to_datetime
**atime**: datetime
**last_access**: trafo.duration_to_datetime
**kind**: string
}
class aws_resource {
**arn**: string
}
class bucket {

}
class aws_s3_bucket {

}
resource <|- - - bucket
aws_resource <|- - - aws_s3_bucket
bucket <|- - - aws_s3_bucket
@enduml

PlantUML version 1.2021.16(Wed Dec 08 17:25:22 UTC 2021)
(GPL source distribution)
Java Runtime: OpenJDK Runtime Environment
JVM: OpenJDK 64-Bit Server VM
Default Encoding: UTF-8
Language: en
Country: null
--></g></svg>