<svg xmlns="http://www.w3.org/2000/svg" xmlns:xlink="http://www.w3.org/1999/xlink" width="363" height="560" contentScriptType="application/ecmascript" contentStyleType="text/css" style="width:363px;height:560px;background:#00000000" preserveAspectRatio="none" version="1.1" viewBox="0 0 363 560" zoomAndPan="magnify"><defs><filter id="fj6gcc8wvxifo" width="300%" height="300%" x="-1" y="-1"><feGaussianBlur result="blurOut" stdDeviation="2"/><feColorMatrix in="blurOut" result="blurOut2" type="matrix" values="0 0 0 0 0 0 0 0 0 0 0 0 0 0 0 0 0 0 .4 0"/><feOffset dx="4" dy="4" in="blurOut2" result="blurOut3"/><feBlend in="SourceGraphic" in2="blurOut3" mode="normal"/></filter></defs><g><rect id="resource" width="252" height="176.047" x="7" y="7" fill="#FEFECE" codeLine="2" filter="url(#fj6gcc8wvxifo)" style="stroke:#a80036;stroke-width:1.5"/><ellipse cx="100.75" cy="23" fill="#ADD1B2" rx="11" ry="11" style="stroke:#a80036;stroke-width:1"/><path fill="#000" d="M103.7188,28.6406 Q103.1406,28.9375 102.5,29.0781 Q101.8594,29.2344 101.1563,29.2344 Q98.6563,29.2344 97.3281,27.5938 Q96.0156,25.9375 96.0156,22.8125 Q96.0156,19.6875 97.3281,18.0313 Q98.6563,16.375 101.1563,16.375 Q101.8594,16.375 102.5,16.5313 Q103.1563,16.6875 103.7188,16.9844 L103.7188,19.7031 Q103.0938,19.125 102.5,18.8594 Q101.9063,18.5781 101.2813,18.5781 Q99.9375,18.5781 99.25,19.6563 Q98.5625,20.7188 98.5625,22.8125 Q98.5625,24.9063 99.25,25.9844 Q99.9375,27.0469 101.2813,27.0469 Q101.9063,27.0469 102.5,26.7813 Q103.0938,26.5 103.7188,25.9219 L103.7188,28.6406 Z"/><text x="121.25" y="27.154" fill="#000" font-family="sans-serif" font-size="12" lengthAdjust="spacing" textLength="56">resource</text><line style="stroke:#a80036;stroke-width:1.5" x1="8" x2="258" y1="39" y2="39"/><ellipse cx="18" cy="50" rx="3" ry="3" style="stroke:#038048;stroke-width:1;fill:none"/><text x="27" y="53.21" fill="#000" font-family="sans-serif" font-size="11" lengthAdjust="spacing" textLength="51">id: string</text><ellipse cx="18" cy="62.805" rx="3" ry="3" style="stroke:#038048;stroke-width:1;fill:none"/><text x="27" y="66.015" fill="#000" font-family="sans-serif" font-size="11" lengthAdjust="spacing" textLength="170">tags: dictionary[string, string]</text><ellipse cx="18" cy="75.609" rx="3" ry="3" style="stroke:#038048;stroke-width:1;fill:none"/><text x="27" y="78.82" fill="#000" font-family="sans-serif" font-size="11" lengthAdjust="spacing" textLength="73">name: string</text><ellipse cx="18" cy="88.414" rx="3" ry="3" style="stroke:#038048;stroke-width:1;fill:none"/><text x="27" y="91.624" fill="#000" font-family="sans-serif" font-size="11" lengthAdjust="spacing" textLength="89">ctime: datetime</text><ellipse cx="18" cy="101.219" rx="3" ry="3" style="stroke:#038048;stroke-width:1;fill:none"/><text x="27" y="104.429" fill="#000" font-family="sans-serif" font-size="11" lengthAdjust="spacing" textLength="180">age: trafo.duration_to_datetime</text><ellipse cx="18" cy="114.023" rx="3" ry="3" style="stroke:#038048;stroke-width:1;fill:none"/><text x="27" y="117.234" fill="#000" font-family="sans-serif" font-size="11" lengthAdjust="spacing" textLength="94">mtime: datetime</text><ellipse cx="18" cy="126.828" rx="3" ry="3" style="stroke:#038048;stroke-width:1;fill:none"/><text x="27" y="130.039" fill="#000" font-family="sans-serif" font-size="11" lengthAdjust="spacing" textLength="225">last_update: trafo.duration_to_datetime</text><ellipse cx="18" cy="139.633" rx="3" ry="3" style="stroke:#038048;stroke-width:1;fill:none"/><text x="27" y="142.843" fill="#000" font-family="sans-serif" font-size="11" lengthAdjust="spacing" textLength="90">atime: datetime</text><ellipse cx="18" cy="152.438" rx="3" ry="3" style="stroke:#038048;stroke-width:1;fill:none"/><text x="27" y="155.648" fill="#000" font-family="sans-serif" font-size="11" lengthAdjust="spacing" textLength="226">last_access: trafo.duration_to_datetime</text><ellipse cx="18" cy="165.242" rx="3" ry="3" style="stroke:#038048;stroke-width:1;fill:none"/><text x="27" y="168.453" fill="#000" font-family="sans-serif" font-size="11" lengthAdjust="spacing" textLength="64">kind: string</text><line style="stroke:#a80036;stroke-width:1.5" x1="8" x2="258" y1="175.047" y2="175.047"/><rect id="aws_iam_server_certificate" width="198" height="60.805" x="134" y="486" fill="#FEFECE" codeLine="14" filter="url(#fj6gcc8wvxifo)" style="stroke:#a80036;stroke-width:1.5"/><ellipse cx="149" cy="502" fill="#ADD1B2" rx="11" ry="11" style="stroke:#a80036;stroke-width:1"/><path fill="#000" d="M151.9688,507.6406 Q151.3906,507.9375 150.75,508.0781 Q150.1094,508.2344 149.4063,508.2344 Q146.9063,508.2344 145.5781,506.5938 Q144.2656,504.9375 144.2656,501.8125 Q144.2656,498.6875 145.5781,497.0313 Q146.9063,495.375 149.4063,495.375 Q150.1094,495.375 150.75,495.5313 Q151.4063,495.6875 151.9688,495.9844 L151.9688,498.7031 Q151.3438,498.125 150.75,497.8594 Q150.1563,497.5781 149.5313,497.5781 Q148.1875,497.5781 147.5,498.6563 Q146.8125,499.7188 146.8125,501.8125 Q146.8125,503.9063 147.5,504.9844 Q148.1875,506.0469 149.5313,506.0469 Q150.1563,506.0469 150.75,505.7813 Q151.3438,505.5 151.9688,504.9219 L151.9688,507.6406 Z"/><text x="163" y="506.154" fill="#000" font-family="sans-serif" font-size="12" lengthAdjust="spacing" textLength="166">aws_iam_server_certificate</text><line style="stroke:#a80036;stroke-width:1.5" x1="135" x2="331" y1="518" y2="518"/><ellipse cx="145" cy="529" rx="3" ry="3" style="stroke:#038048;stroke-width:1;fill:none"/><text x="154" y="532.21" fill="#000" font-family="sans-serif" font-size="11" lengthAdjust="spacing" textLength="66">path: string</text><line style="stroke:#a80036;stroke-width:1.5" x1="135" x2="331" y1="538.805" y2="538.805"/><rect id="aws_resource" width="118" height="60.805" x="231" y="304" fill="#FEFECE" codeLine="17" filter="url(#fj6gcc8wvxifo)" style="stroke:#a80036;stroke-width:1.5"/><ellipse cx="246" cy="320" fill="#ADD1B2" rx="11" ry="11" style="stroke:#a80036;stroke-width:1"/><path fill="#000" d="M248.9688,325.6406 Q248.3906,325.9375 247.75,326.0781 Q247.1094,326.2344 246.4063,326.2344 Q243.9063,326.2344 242.5781,324.5938 Q241.2656,322.9375 241.2656,319.8125 Q241.2656,316.6875 242.5781,315.0313 Q243.9063,313.375 246.4063,313.375 Q247.1094,313.375 247.75,313.5313 Q248.4063,313.6875 248.9688,313.9844 L248.9688,316.7031 Q248.3438,316.125 247.75,315.8594 Q247.1563,315.5781 246.5313,315.5781 Q245.1875,315.5781 244.5,316.6563 Q243.8125,317.7188 243.8125,319.8125 Q243.8125,321.9063 244.5,322.9844 Q245.1875,324.0469 246.5313,324.0469 Q247.1563,324.0469 247.75,323.7813 Q248.3438,323.5 248.9688,322.9219 L248.9688,325.6406 Z"/><text x="260" y="324.154" fill="#000" font-family="sans-serif" font-size="12" lengthAdjust="spacing" textLength="86">aws_resource</text><line style="stroke:#a80036;stroke-width:1.5" x1="232" x2="348" y1="336" y2="336"/><ellipse cx="242" cy="347" rx="3" ry="3" style="stroke:#038048;stroke-width:1;fill:none"/><text x="251" y="350.21" fill="#000" font-family="sans-serif" font-size="11" lengthAdjust="spacing" textLength="60">arn: string</text><line style="stroke:#a80036;stroke-width:1.5" x1="232" x2="348" y1="356.805" y2="356.805"/><rect id="certificate" width="126" height="60.805" x="70" y="304" fill="#FEFECE" codeLine="20" filter="url(#fj6gcc8wvxifo)" style="stroke:#a80036;stroke-width:1.5"/><ellipse cx="98.95" cy="320" fill="#ADD1B2" rx="11" ry="11" style="stroke:#a80036;stroke-width:1"/><path fill="#000" d="M101.9188,325.6406 Q101.3406,325.9375 100.7,326.0781 Q100.0594,326.2344 99.3563,326.2344 Q96.8563,326.2344 95.5281,324.5938 Q94.2156,322.9375 94.2156,319.8125 Q94.2156,316.6875 95.5281,315.0313 Q96.8563,313.375 99.3563,313.375 Q100.0594,313.375 100.7,313.5313 Q101.3563,313.6875 101.9188,313.9844 L101.9188,316.7031 Q101.2938,316.125 100.7,315.8594 Q100.1063,315.5781 99.4813,315.5781 Q98.1375,315.5781 97.45,316.6563 Q96.7625,317.7188 96.7625,319.8125 Q96.7625,321.9063 97.45,322.9844 Q98.1375,324.0469 99.4813,324.0469 Q100.1063,324.0469 100.7,323.7813 Q101.2938,323.5 101.9188,322.9219 L101.9188,325.6406 Z"/><text x="116.05" y="324.154" fill="#000" font-family="sans-serif" font-size="12" lengthAdjust="spacing" textLength="63">certificate</text><line style="stroke:#a80036;stroke-width:1.5" x1="71" x2="195" y1="336" y2="336"/><ellipse cx="81" cy="347" rx="3" ry="3" style="stroke:#038048;stroke-width:1;fill:none"/><text x="90" y="350.21" fill="#000" font-family="sans-serif" font-size="11" lengthAdjust="spacing" textLength="100">expires: datetime</text><line style="stroke:#a80036;stroke-width:1.5" x1="71" x2="195" y1="356.805" y2="356.805"/><path id="aws_resource-backto-aws_iam_server_certificate" fill="none" d="M274.49,384.48 C264.24,416.85 251.14,458.23 242.43,485.73" codeLine="23" style="stroke:#a80036;stroke-width:1"/><polygon fill="none" points="267.88 382.18 280.59 365.22 281.22 386.4 267.88 382.18" style="stroke:#a80036;stroke-width:1"/><path id="certificate-backto-aws_iam_server_certificate" fill="none" d="M159.45,383.11 C177.54,415.67 200.97,457.84 216.46,485.73" codeLine="24" style="stroke:#a80036;stroke-width:1"/><polygon fill="none" points="153.11 386.11 149.51 365.22 165.34 379.31 153.11 386.11" style="stroke:#a80036;stroke-width:1"/><path id="resource-backto-certificate" fill="none" d="M133,203.28 C133,240.06 133,278.33 133,303.78" codeLine="25" style="stroke:#a80036;stroke-width:1"/><polygon fill="none" points="126 203.09 133 183.09 140 203.09 126 203.09" style="stroke:#a80036;stroke-width:1"/></g></svg>