<?xml version="1.0" encoding="UTF-8" standalone="no"?><svg xmlns="http://www.w3.org/2000/svg" xmlns:xlink="http://www.w3.org/1999/xlink" contentScriptType="application/ecmascript" contentStyleType="text/css" height="676px" preserveAspectRatio="none" style="width:408px;height:676px;background:#00000000;" version="1.1" viewBox="0 0 408 676" width="408px" zoomAndPan="magnify"><defs><filter height="300%" id="fop2vkb71gugk" width="300%" x="-1" y="-1"><feGaussianBlur result="blurOut" stdDeviation="2.0"/><feColorMatrix in="blurOut" result="blurOut2" type="matrix" values="0 0 0 0 0 0 0 0 0 0 0 0 0 0 0 0 0 0 .4 0"/><feOffset dx="4.0" dy="4.0" in="blurOut2" result="blurOut3"/><feBlend in="SourceGraphic" in2="blurOut3" mode="normal"/></filter></defs><g><!--MD5=[7f0ecf5f554433d3f2e1213379ac821c]
class resource--><rect codeLine="2" fill="#FEFECE" filter="url(#fop2vkb71gugk)" height="176.0469" id="resource" style="stroke:#A80036;stroke-width:1.5;" width="252" x="7" y="7"/><ellipse cx="100.75" cy="23" fill="#ADD1B2" rx="11" ry="11" style="stroke:#A80036;stroke-width:1.0;"/><path d="M103.7188,28.6406 Q103.1406,28.9375 102.5,29.0781 Q101.8594,29.2344 101.1563,29.2344 Q98.6563,29.2344 97.3281,27.5938 Q96.0156,25.9375 96.0156,22.8125 Q96.0156,19.6875 97.3281,18.0313 Q98.6563,16.375 101.1563,16.375 Q101.8594,16.375 102.5,16.5313 Q103.1563,16.6875 103.7188,16.9844 L103.7188,19.7031 Q103.0938,19.125 102.5,18.8594 Q101.9063,18.5781 101.2813,18.5781 Q99.9375,18.5781 99.25,19.6563 Q98.5625,20.7188 98.5625,22.8125 Q98.5625,24.9063 99.25,25.9844 Q99.9375,27.0469 101.2813,27.0469 Q101.9063,27.0469 102.5,26.7813 Q103.0938,26.5 103.7188,25.9219 L103.7188,28.6406 Z " fill="#000000"/><text fill="#000000" font-family="sans-serif" font-size="12" lengthAdjust="spacing" textLength="56" x="121.25" y="27.1543">resource</text><line style="stroke:#A80036;stroke-width:1.5;" x1="8" x2="258" y1="39" y2="39"/><ellipse cx="18" cy="50" rx="3" ry="3" style="stroke:#038048;stroke-width:1.0;fill:none;"/><text fill="#000000" font-family="sans-serif" font-size="11" lengthAdjust="spacing" textLength="51" x="27" y="53.2104">id: string</text><ellipse cx="18" cy="62.8047" rx="3" ry="3" style="stroke:#038048;stroke-width:1.0;fill:none;"/><text fill="#000000" font-family="sans-serif" font-size="11" lengthAdjust="spacing" textLength="170" x="27" y="66.0151">tags: dictionary[string, string]</text><ellipse cx="18" cy="75.6094" rx="3" ry="3" style="stroke:#038048;stroke-width:1.0;fill:none;"/><text fill="#000000" font-family="sans-serif" font-size="11" lengthAdjust="spacing" textLength="73" x="27" y="78.8198">name: string</text><ellipse cx="18" cy="88.4141" rx="3" ry="3" style="stroke:#038048;stroke-width:1.0;fill:none;"/><text fill="#000000" font-family="sans-serif" font-size="11" lengthAdjust="spacing" textLength="89" x="27" y="91.6245">ctime: datetime</text><ellipse cx="18" cy="101.2188" rx="3" ry="3" style="stroke:#038048;stroke-width:1.0;fill:none;"/><text fill="#000000" font-family="sans-serif" font-size="11" lengthAdjust="spacing" textLength="180" x="27" y="104.4292">age: trafo.duration_to_datetime</text><ellipse cx="18" cy="114.0234" rx="3" ry="3" style="stroke:#038048;stroke-width:1.0;fill:none;"/><text fill="#000000" font-family="sans-serif" font-size="11" lengthAdjust="spacing" textLength="94" x="27" y="117.2339">mtime: datetime</text><ellipse cx="18" cy="126.8281" rx="3" ry="3" style="stroke:#038048;stroke-width:1.0;fill:none;"/><text fill="#000000" font-family="sans-serif" font-size="11" lengthAdjust="spacing" textLength="225" x="27" y="130.0386">last_update: trafo.duration_to_datetime</text><ellipse cx="18" cy="139.6328" rx="3" ry="3" style="stroke:#038048;stroke-width:1.0;fill:none;"/><text fill="#000000" font-family="sans-serif" font-size="11" lengthAdjust="spacing" textLength="90" x="27" y="142.8433">atime: datetime</text><ellipse cx="18" cy="152.4375" rx="3" ry="3" style="stroke:#038048;stroke-width:1.0;fill:none;"/><text fill="#000000" font-family="sans-serif" font-size="11" lengthAdjust="spacing" textLength="226" x="27" y="155.6479">last_access: trafo.duration_to_datetime</text><ellipse cx="18" cy="165.2422" rx="3" ry="3" style="stroke:#038048;stroke-width:1.0;fill:none;"/><text fill="#000000" font-family="sans-serif" font-size="11" lengthAdjust="spacing" textLength="64" x="27" y="168.4526">kind: string</text><line style="stroke:#A80036;stroke-width:1.5;" x1="8" x2="258" y1="175.0469" y2="175.0469"/><!--MD5=[c069b88079f3e36515859a1683f3923c]
class aws_resource--><rect codeLine="14" fill="#FEFECE" filter="url(#fop2vkb71gugk)" height="60.8047" id="aws_resource" style="stroke:#A80036;stroke-width:1.5;" width="118" x="276" y="342.5"/><ellipse cx="291" cy="358.5" fill="#ADD1B2" rx="11" ry="11" style="stroke:#A80036;stroke-width:1.0;"/><path d="M293.9688,364.1406 Q293.3906,364.4375 292.75,364.5781 Q292.1094,364.7344 291.4063,364.7344 Q288.9063,364.7344 287.5781,363.0938 Q286.2656,361.4375 286.2656,358.3125 Q286.2656,355.1875 287.5781,353.5313 Q288.9063,351.875 291.4063,351.875 Q292.1094,351.875 292.75,352.0313 Q293.4063,352.1875 293.9688,352.4844 L293.9688,355.2031 Q293.3438,354.625 292.75,354.3594 Q292.1563,354.0781 291.5313,354.0781 Q290.1875,354.0781 289.5,355.1563 Q288.8125,356.2188 288.8125,358.3125 Q288.8125,360.4063 289.5,361.4844 Q290.1875,362.5469 291.5313,362.5469 Q292.1563,362.5469 292.75,362.2813 Q293.3438,362 293.9688,361.4219 L293.9688,364.1406 Z " fill="#000000"/><text fill="#000000" font-family="sans-serif" font-size="12" lengthAdjust="spacing" textLength="86" x="305" y="362.6543">aws_resource</text><line style="stroke:#A80036;stroke-width:1.5;" x1="277" x2="393" y1="374.5" y2="374.5"/><ellipse cx="287" cy="385.5" rx="3" ry="3" style="stroke:#038048;stroke-width:1.0;fill:none;"/><text fill="#000000" font-family="sans-serif" font-size="11" lengthAdjust="spacing" textLength="60" x="296" y="388.7104">arn: string</text><line style="stroke:#A80036;stroke-width:1.5;" x1="277" x2="393" y1="395.3047" y2="395.3047"/><!--MD5=[377914defea557e9612d777552f01035]
class volume--><rect codeLine="17" fill="#FEFECE" filter="url(#fop2vkb71gugk)" height="137.6328" id="volume" style="stroke:#A80036;stroke-width:1.5;" width="216" x="25" y="304"/><ellipse cx="106.75" cy="320" fill="#ADD1B2" rx="11" ry="11" style="stroke:#A80036;stroke-width:1.0;"/><path d="M109.7188,325.6406 Q109.1406,325.9375 108.5,326.0781 Q107.8594,326.2344 107.1563,326.2344 Q104.6563,326.2344 103.3281,324.5938 Q102.0156,322.9375 102.0156,319.8125 Q102.0156,316.6875 103.3281,315.0313 Q104.6563,313.375 107.1563,313.375 Q107.8594,313.375 108.5,313.5313 Q109.1563,313.6875 109.7188,313.9844 L109.7188,316.7031 Q109.0938,316.125 108.5,315.8594 Q107.9063,315.5781 107.2813,315.5781 Q105.9375,315.5781 105.25,316.6563 Q104.5625,317.7188 104.5625,319.8125 Q104.5625,321.9063 105.25,322.9844 Q105.9375,324.0469 107.2813,324.0469 Q107.9063,324.0469 108.5,323.7813 Q109.0938,323.5 109.7188,322.9219 L109.7188,325.6406 Z " fill="#000000"/><text fill="#000000" font-family="sans-serif" font-size="12" lengthAdjust="spacing" textLength="44" x="127.25" y="324.1543">volume</text><line style="stroke:#A80036;stroke-width:1.5;" x1="26" x2="240" y1="336" y2="336"/><ellipse cx="36" cy="347" rx="3" ry="3" style="stroke:#038048;stroke-width:1.0;fill:none;"/><text fill="#000000" font-family="sans-serif" font-size="11" lengthAdjust="spacing" textLength="105" x="45" y="350.2104">volume_size: int64</text><ellipse cx="36" cy="359.8047" rx="3" ry="3" style="stroke:#038048;stroke-width:1.0;fill:none;"/><text fill="#000000" font-family="sans-serif" font-size="11" lengthAdjust="spacing" textLength="112" x="45" y="363.0151">volume_type: string</text><ellipse cx="36" cy="372.6094" rx="3" ry="3" style="stroke:#038048;stroke-width:1.0;fill:none;"/><text fill="#000000" font-family="sans-serif" font-size="11" lengthAdjust="spacing" textLength="124" x="45" y="375.8198">volume_status: string</text><ellipse cx="36" cy="385.4141" rx="3" ry="3" style="stroke:#038048;stroke-width:1.0;fill:none;"/><text fill="#000000" font-family="sans-serif" font-size="11" lengthAdjust="spacing" textLength="107" x="45" y="388.6245">volume_iops: int64</text><ellipse cx="36" cy="398.2188" rx="3" ry="3" style="stroke:#038048;stroke-width:1.0;fill:none;"/><text fill="#000000" font-family="sans-serif" font-size="11" lengthAdjust="spacing" textLength="145" x="45" y="401.4292">volume_throughput: int64</text><ellipse cx="36" cy="411.0234" rx="3" ry="3" style="stroke:#038048;stroke-width:1.0;fill:none;"/><text fill="#000000" font-family="sans-serif" font-size="11" lengthAdjust="spacing" textLength="156" x="45" y="414.2339">volume_encrypted: boolean</text><ellipse cx="36" cy="423.8281" rx="3" ry="3" style="stroke:#038048;stroke-width:1.0;fill:none;"/><text fill="#000000" font-family="sans-serif" font-size="11" lengthAdjust="spacing" textLength="190" x="45" y="427.0386">snapshot_before_delete: boolean</text><line style="stroke:#A80036;stroke-width:1.5;" x1="26" x2="240" y1="433.6328" y2="433.6328"/><!--MD5=[0c8b414976a9a2e585b005b662babc37]
class aws_ec2_volume--><rect codeLine="26" fill="#FEFECE" filter="url(#fop2vkb71gugk)" height="99.2188" id="aws_ec2_volume" style="stroke:#A80036;stroke-width:1.5;" width="246" x="143" y="563"/><ellipse cx="210.25" cy="579" fill="#ADD1B2" rx="11" ry="11" style="stroke:#A80036;stroke-width:1.0;"/><path d="M213.2188,584.6406 Q212.6406,584.9375 212,585.0781 Q211.3594,585.2344 210.6563,585.2344 Q208.1563,585.2344 206.8281,583.5938 Q205.5156,581.9375 205.5156,578.8125 Q205.5156,575.6875 206.8281,574.0313 Q208.1563,572.375 210.6563,572.375 Q211.3594,572.375 212,572.5313 Q212.6563,572.6875 213.2188,572.9844 L213.2188,575.7031 Q212.5938,575.125 212,574.8594 Q211.4063,574.5781 210.7813,574.5781 Q209.4375,574.5781 208.75,575.6563 Q208.0625,576.7188 208.0625,578.8125 Q208.0625,580.9063 208.75,581.9844 Q209.4375,583.0469 210.7813,583.0469 Q211.4063,583.0469 212,582.7813 Q212.5938,582.5 213.2188,581.9219 L213.2188,584.6406 Z " fill="#000000"/><text fill="#000000" font-family="sans-serif" font-size="12" lengthAdjust="spacing" textLength="103" x="230.75" y="583.1543">aws_ec2_volume</text><line style="stroke:#A80036;stroke-width:1.5;" x1="144" x2="388" y1="595" y2="595"/><ellipse cx="154" cy="606" rx="3" ry="3" style="stroke:#038048;stroke-width:1.0;fill:none;"/><text fill="#000000" font-family="sans-serif" font-size="11" lengthAdjust="spacing" textLength="153" x="163" y="609.2104">volume_kms_key_id: string</text><ellipse cx="154" cy="618.8047" rx="3" ry="3" style="stroke:#038048;stroke-width:1.0;fill:none;"/><text fill="#000000" font-family="sans-serif" font-size="11" lengthAdjust="spacing" textLength="220" x="163" y="622.0151">volume_multi_attach_enabled: boolean</text><ellipse cx="154" cy="631.6094" rx="3" ry="3" style="stroke:#038048;stroke-width:1.0;fill:none;"/><text fill="#000000" font-family="sans-serif" font-size="11" lengthAdjust="spacing" textLength="156" x="163" y="634.8198">volume_outpost_arn: string</text><ellipse cx="154" cy="644.4141" rx="3" ry="3" style="stroke:#038048;stroke-width:1.0;fill:none;"/><text fill="#000000" font-family="sans-serif" font-size="11" lengthAdjust="spacing" textLength="157" x="163" y="647.6245">volume_snapshot_id: string</text><line style="stroke:#A80036;stroke-width:1.5;" x1="144" x2="388" y1="654.2188" y2="654.2188"/><!--MD5=[14bde95197a4d9e34b3c6fec8235f531]
reverse link resource to volume--><path codeLine="32" d="M133,203.36 C133,237.07 133,273.36 133,303.6 " fill="none" id="resource-backto-volume" style="stroke:#A80036;stroke-width:1.0;"/><polygon fill="none" points="126,203.33,133,183.33,140,203.33,126,203.33" style="stroke:#A80036;stroke-width:1.0;"/><!--MD5=[a98a7428f05d1a3a2711bcced92a2684]
reverse link aws_resource to aws_ec2_volume--><path codeLine="33" d="M320.76,423 C308.86,463.98 291.97,522.11 280.1,562.95 " fill="none" id="aws_resource-backto-aws_ec2_volume" style="stroke:#A80036;stroke-width:1.0;"/><polygon fill="none" points="314.1,420.85,326.4,403.6,327.54,424.76,314.1,420.85" style="stroke:#A80036;stroke-width:1.0;"/><!--MD5=[643eeab1204dc44c0a75b50ac445c508]
reverse link volume to aws_ec2_volume--><path codeLine="34" d="M181,459.72 C200.39,494.34 222.05,533.02 238.66,562.67 " fill="none" id="volume-backto-aws_ec2_volume" style="stroke:#A80036;stroke-width:1.0;"/><polygon fill="none" points="174.78,462.93,171.11,442.06,186.99,456.09,174.78,462.93" style="stroke:#A80036;stroke-width:1.0;"/><!--MD5=[a068b5e118f89de230589243e70fcd68]
@startuml
skinparam backgroundcolor transparent
class resource {
+ id: string
+ tags: dictionary[string, string]
+ name: string
+ ctime: datetime
+ age: trafo.duration_to_datetime
+ mtime: datetime
+ last_update: trafo.duration_to_datetime
+ atime: datetime
+ last_access: trafo.duration_to_datetime
+ kind: string
}
class aws_resource {
+ arn: string
}
class volume {
+ volume_size: int64
+ volume_type: string
+ volume_status: string
+ volume_iops: int64
+ volume_throughput: int64
+ volume_encrypted: boolean
+ snapshot_before_delete: boolean
}
class aws_ec2_volume {
+ volume_kms_key_id: string
+ volume_multi_attach_enabled: boolean
+ volume_outpost_arn: string
+ volume_snapshot_id: string
}
resource <|- - - volume
aws_resource <|- - - aws_ec2_volume
volume <|- - - aws_ec2_volume
@enduml

PlantUML version 1.2021.16(Wed Dec 08 17:25:22 UTC 2021)
(GPL source distribution)
Java Runtime: OpenJDK Runtime Environment
JVM: OpenJDK 64-Bit Server VM
Default Encoding: UTF-8
Language: en
Country: null
--></g></svg>