<svg xmlns="http://www.w3.org/2000/svg" xmlns:xlink="http://www.w3.org/1999/xlink" width="421" height="709" contentScriptType="application/ecmascript" contentStyleType="text/css" style="width:421px;height:709px;background:#00000000" preserveAspectRatio="none" version="1.1" viewBox="0 0 421 709" zoomAndPan="magnify"><g><rect id="resource" width="256" height="275.836" x="7" y="7" fill="#194875" codeLine="17" rx="2.5" ry="2.5" style="stroke:#000;stroke-width:1.5"/><ellipse cx="90.25" cy="26.895" fill="#1A83AF" rx="11" ry="11" style="stroke:#000;stroke-width:1"/><path fill="#000" d="M93.2188,32.5352 Q92.6406,32.832 92,32.9727 Q91.3594,33.1289 90.6563,33.1289 Q88.1563,33.1289 86.8281,31.4883 Q85.5156,29.832 85.5156,26.707 Q85.5156,23.582 86.8281,21.9258 Q88.1563,20.2695 90.6563,20.2695 Q91.3594,20.2695 92,20.4258 Q92.6563,20.582 93.2188,20.8789 L93.2188,23.5977 Q92.5938,23.0195 92,22.7539 Q91.4063,22.4727 90.7813,22.4727 Q89.4375,22.4727 88.75,23.5508 Q88.0625,24.6133 88.0625,26.707 Q88.0625,28.8008 88.75,29.8789 Q89.4375,30.9414 90.7813,30.9414 Q91.4063,30.9414 92,30.6758 Q92.5938,30.3945 93.2188,29.8164 L93.2188,32.5352 Z"/><text x="115.75" y="32.78" fill="#FFE797" font-family="Helvetica" font-size="17" lengthAdjust="spacing" textLength="71">resource</text><line style="stroke:#000;stroke-width:1.5" x1="8" x2="262" y1="46.789" y2="46.789"/><text x="18" y="65.999" fill="#FFE797" font-family="sans-serif" font-size="11" font-weight="bold" lengthAdjust="spacing" textLength="12">id</text><text x="30" y="65.999" fill="#FFE797" font-family="sans-serif" font-size="11" lengthAdjust="spacing" textLength="41">: string</text><text x="18" y="88.804" fill="#FFE797" font-family="sans-serif" font-size="11" font-weight="bold" lengthAdjust="spacing" textLength="28">tags</text><text x="46" y="88.804" fill="#FFE797" font-family="sans-serif" font-size="11" lengthAdjust="spacing" textLength="145">: dictionary[string, string]</text><text x="18" y="111.609" fill="#FFE797" font-family="sans-serif" font-size="11" font-weight="bold" lengthAdjust="spacing" textLength="35">name</text><text x="53" y="111.609" fill="#FFE797" font-family="sans-serif" font-size="11" lengthAdjust="spacing" textLength="41">: string</text><text x="18" y="134.414" fill="#FFE797" font-family="sans-serif" font-size="11" font-weight="bold" lengthAdjust="spacing" textLength="35">ctime</text><text x="53" y="134.414" fill="#FFE797" font-family="sans-serif" font-size="11" lengthAdjust="spacing" textLength="58">: datetime</text><text x="18" y="157.218" fill="#FFE797" font-family="sans-serif" font-size="11" font-weight="bold" lengthAdjust="spacing" textLength="24">age</text><text x="42" y="157.218" fill="#FFE797" font-family="sans-serif" font-size="11" lengthAdjust="spacing" textLength="159">: trafo.duration_to_datetime</text><text x="18" y="180.023" fill="#FFE797" font-family="sans-serif" font-size="11" font-weight="bold" lengthAdjust="spacing" textLength="39">mtime</text><text x="57" y="180.023" fill="#FFE797" font-family="sans-serif" font-size="11" lengthAdjust="spacing" textLength="58">: datetime</text><text x="18" y="202.828" fill="#FFE797" font-family="sans-serif" font-size="11" font-weight="bold" lengthAdjust="spacing" textLength="75">last_update</text><text x="93" y="202.828" fill="#FFE797" font-family="sans-serif" font-size="11" lengthAdjust="spacing" textLength="159">: trafo.duration_to_datetime</text><text x="18" y="225.632" fill="#FFE797" font-family="sans-serif" font-size="11" font-weight="bold" lengthAdjust="spacing" textLength="36">atime</text><text x="54" y="225.632" fill="#FFE797" font-family="sans-serif" font-size="11" lengthAdjust="spacing" textLength="58">: datetime</text><text x="18" y="248.437" fill="#FFE797" font-family="sans-serif" font-size="11" font-weight="bold" lengthAdjust="spacing" textLength="74">last_access</text><text x="92" y="248.437" fill="#FFE797" font-family="sans-serif" font-size="11" lengthAdjust="spacing" textLength="159">: trafo.duration_to_datetime</text><text x="18" y="271.242" fill="#FFE797" font-family="sans-serif" font-size="11" font-weight="bold" lengthAdjust="spacing" textLength="27">kind</text><text x="45" y="271.242" fill="#FFE797" font-family="sans-serif" font-size="11" lengthAdjust="spacing" textLength="41">: string</text><rect id="aws_resource" width="155" height="70.594" x="259.5" y="438" fill="#194875" codeLine="29" rx="2.5" ry="2.5" style="stroke:#000;stroke-width:1.5"/><ellipse cx="274.5" cy="457.894" fill="#1A83AF" rx="11" ry="11" style="stroke:#000;stroke-width:1"/><path fill="#000" d="M277.4688,463.5352 Q276.8906,463.832 276.25,463.9727 Q275.6094,464.1289 274.9063,464.1289 Q272.4063,464.1289 271.0781,462.4883 Q269.7656,460.832 269.7656,457.707 Q269.7656,454.582 271.0781,452.9258 Q272.4063,451.2695 274.9063,451.2695 Q275.6094,451.2695 276.25,451.4258 Q276.9063,451.582 277.4688,451.8789 L277.4688,454.5977 Q276.8438,454.0195 276.25,453.7539 Q275.6563,453.4727 275.0313,453.4727 Q273.6875,453.4727 273,454.5508 Q272.3125,455.6133 272.3125,457.707 Q272.3125,459.8008 273,460.8789 Q273.6875,461.9414 275.0313,461.9414 Q275.6563,461.9414 276.25,461.6758 Q276.8438,461.3945 277.4688,460.8164 L277.4688,463.5352 Z"/><text x="293.5" y="463.78" fill="#FFE797" font-family="Helvetica" font-size="17" lengthAdjust="spacing" textLength="113">aws_resource</text><line style="stroke:#000;stroke-width:1.5" x1="260.5" x2="413.5" y1="477.789" y2="477.789"/><text x="270.5" y="497" fill="#FFE797" font-family="sans-serif" font-size="11" font-weight="bold" lengthAdjust="spacing" textLength="21">arn</text><text x="291.5" y="497" fill="#FFE797" font-family="sans-serif" font-size="11" lengthAdjust="spacing" textLength="41">: string</text><rect id="instance" width="179" height="139.008" x="45.5" y="404" fill="#194875" codeLine="32" rx="2.5" ry="2.5" style="stroke:#000;stroke-width:1.5"/><ellipse cx="90.75" cy="423.894" fill="#1A83AF" rx="11" ry="11" style="stroke:#000;stroke-width:1"/><path fill="#000" d="M93.7188,429.5352 Q93.1406,429.832 92.5,429.9727 Q91.8594,430.1289 91.1563,430.1289 Q88.6563,430.1289 87.3281,428.4883 Q86.0156,426.832 86.0156,423.707 Q86.0156,420.582 87.3281,418.9258 Q88.6563,417.2695 91.1563,417.2695 Q91.8594,417.2695 92.5,417.4258 Q93.1563,417.582 93.7188,417.8789 L93.7188,420.5977 Q93.0938,420.0195 92.5,419.7539 Q91.9063,419.4727 91.2813,419.4727 Q89.9375,419.4727 89.25,420.5508 Q88.5625,421.6133 88.5625,423.707 Q88.5625,425.8008 89.25,426.8789 Q89.9375,427.9414 91.2813,427.9414 Q91.9063,427.9414 92.5,427.6758 Q93.0938,427.3945 93.7188,426.8164 L93.7188,429.5352 Z"/><text x="116.25" y="429.78" fill="#FFE797" font-family="Helvetica" font-size="17" lengthAdjust="spacing" textLength="70">instance</text><line style="stroke:#000;stroke-width:1.5" x1="46.5" x2="223.5" y1="443.789" y2="443.789"/><text x="56.5" y="463" fill="#FFE797" font-family="sans-serif" font-size="11" font-weight="bold" lengthAdjust="spacing" textLength="96">instance_cores</text><text x="152.5" y="463" fill="#FFE797" font-family="sans-serif" font-size="11" lengthAdjust="spacing" textLength="46">: double</text><text x="56.5" y="485.804" fill="#FFE797" font-family="sans-serif" font-size="11" font-weight="bold" lengthAdjust="spacing" textLength="111">instance_memory</text><text x="167.5" y="485.804" fill="#FFE797" font-family="sans-serif" font-size="11" lengthAdjust="spacing" textLength="46">: double</text><text x="56.5" y="508.609" fill="#FFE797" font-family="sans-serif" font-size="11" font-weight="bold" lengthAdjust="spacing" textLength="89">instance_type</text><text x="145.5" y="508.609" fill="#FFE797" font-family="sans-serif" font-size="11" lengthAdjust="spacing" textLength="41">: string</text><text x="56.5" y="531.414" fill="#FFE797" font-family="sans-serif" font-size="11" font-weight="bold" lengthAdjust="spacing" textLength="101">instance_status</text><text x="157.5" y="531.414" fill="#FFE797" font-family="sans-serif" font-size="11" lengthAdjust="spacing" textLength="41">: string</text><rect id="aws_ec2_instance" width="192" height="39.789" x="172" y="664" fill="#194875" codeLine="38" rx="2.5" ry="2.5" style="stroke:#000;stroke-width:1.5"/><ellipse cx="187" cy="683.894" fill="#1A83AF" rx="11" ry="11" style="stroke:#000;stroke-width:1"/><path fill="#000" d="M189.9688,689.5352 Q189.3906,689.832 188.75,689.9727 Q188.1094,690.1289 187.4063,690.1289 Q184.9063,690.1289 183.5781,688.4883 Q182.2656,686.832 182.2656,683.707 Q182.2656,680.582 183.5781,678.9258 Q184.9063,677.2695 187.4063,677.2695 Q188.1094,677.2695 188.75,677.4258 Q189.4063,677.582 189.9688,677.8789 L189.9688,680.5977 Q189.3438,680.0195 188.75,679.7539 Q188.1563,679.4727 187.5313,679.4727 Q186.1875,679.4727 185.5,680.5508 Q184.8125,681.6133 184.8125,683.707 Q184.8125,685.8008 185.5,686.8789 Q186.1875,687.9414 187.5313,687.9414 Q188.1563,687.9414 188.75,687.6758 Q189.3438,687.3945 189.9688,686.8164 L189.9688,689.5352 Z"/><text x="206" y="689.78" fill="#FFE797" font-family="Helvetica" font-size="17" lengthAdjust="spacing" textLength="150">aws_ec2_instance</text><path id="resource-backto-instance" fill="none" d="M135,303.22 C135,338.64 135,374.43 135,403.93" codeLine="41" style="stroke:#ffaf37;stroke-width:2"/><polygon fill="none" points="128 303.05 135 283.05 142 303.05 128 303.05" style="stroke:#ffaf37;stroke-width:2"/><path id="aws_resource-backto-aws_ec2_instance" fill="none" d="M319.11,528.55 C304.39,573.04 284.36,633.57 274.31,663.95" codeLine="42" style="stroke:#ffaf37;stroke-width:2"/><polygon fill="none" points="312.52 526.19 325.45 509.4 325.81 530.58 312.52 526.19" style="stroke:#ffaf37;stroke-width:2"/><path id="instance-backto-aws_ec2_instance" fill="none" d="M189.56,560.03 C213.97,598.29 240.59,640.03 255.7,663.71" codeLine="43" style="stroke:#ffaf37;stroke-width:2"/><polygon fill="none" points="183.59 563.69 178.73 543.06 195.39 556.16 183.59 563.69" style="stroke:#ffaf37;stroke-width:2"/></g></svg>