<?xml version="1.0" encoding="UTF-8" standalone="no"?><svg xmlns="http://www.w3.org/2000/svg" xmlns:xlink="http://www.w3.org/1999/xlink" contentScriptType="application/ecmascript" contentStyleType="text/css" height="547px" preserveAspectRatio="none" style="width:273px;height:547px;background:#00000000;" version="1.1" viewBox="0 0 273 547" width="273px" zoomAndPan="magnify"><defs><filter height="300%" id="f3smrwwphhiej" width="300%" x="-1" y="-1"><feGaussianBlur result="blurOut" stdDeviation="2.0"/><feColorMatrix in="blurOut" result="blurOut2" type="matrix" values="0 0 0 0 0 0 0 0 0 0 0 0 0 0 0 0 0 0 .4 0"/><feOffset dx="4.0" dy="4.0" in="blurOut2" result="blurOut3"/><feBlend in="SourceGraphic" in2="blurOut3" mode="normal"/></filter></defs><g><!--MD5=[9816fef65c55bd144cddd7de1655a168]
class region--><rect codeLine="2" fill="#FEFECE" filter="url(#f3smrwwphhiej)" height="48" id="region" style="stroke:#A80036;stroke-width:1.5;" width="72" x="97" y="304"/><ellipse cx="112" cy="320" fill="#ADD1B2" rx="11" ry="11" style="stroke:#A80036;stroke-width:1.0;"/><path d="M114.9688,325.6406 Q114.3906,325.9375 113.75,326.0781 Q113.1094,326.2344 112.4063,326.2344 Q109.9063,326.2344 108.5781,324.5938 Q107.2656,322.9375 107.2656,319.8125 Q107.2656,316.6875 108.5781,315.0313 Q109.9063,313.375 112.4063,313.375 Q113.1094,313.375 113.75,313.5313 Q114.4063,313.6875 114.9688,313.9844 L114.9688,316.7031 Q114.3438,316.125 113.75,315.8594 Q113.1563,315.5781 112.5313,315.5781 Q111.1875,315.5781 110.5,316.6563 Q109.8125,317.7188 109.8125,319.8125 Q109.8125,321.9063 110.5,322.9844 Q111.1875,324.0469 112.5313,324.0469 Q113.1563,324.0469 113.75,323.7813 Q114.3438,323.5 114.9688,322.9219 L114.9688,325.6406 Z " fill="#000000"/><text fill="#000000" font-family="sans-serif" font-size="12" lengthAdjust="spacing" textLength="40" x="126" y="324.1543">region</text><line style="stroke:#A80036;stroke-width:1.5;" x1="98" x2="168" y1="336" y2="336"/><line style="stroke:#A80036;stroke-width:1.5;" x1="98" x2="168" y1="344" y2="344"/><!--MD5=[7f0ecf5f554433d3f2e1213379ac821c]
class resource--><rect codeLine="5" fill="#FEFECE" filter="url(#f3smrwwphhiej)" height="176.0469" id="resource" style="stroke:#A80036;stroke-width:1.5;" width="252" x="7" y="7"/><ellipse cx="100.75" cy="23" fill="#ADD1B2" rx="11" ry="11" style="stroke:#A80036;stroke-width:1.0;"/><path d="M103.7188,28.6406 Q103.1406,28.9375 102.5,29.0781 Q101.8594,29.2344 101.1563,29.2344 Q98.6563,29.2344 97.3281,27.5938 Q96.0156,25.9375 96.0156,22.8125 Q96.0156,19.6875 97.3281,18.0313 Q98.6563,16.375 101.1563,16.375 Q101.8594,16.375 102.5,16.5313 Q103.1563,16.6875 103.7188,16.9844 L103.7188,19.7031 Q103.0938,19.125 102.5,18.8594 Q101.9063,18.5781 101.2813,18.5781 Q99.9375,18.5781 99.25,19.6563 Q98.5625,20.7188 98.5625,22.8125 Q98.5625,24.9063 99.25,25.9844 Q99.9375,27.0469 101.2813,27.0469 Q101.9063,27.0469 102.5,26.7813 Q103.0938,26.5 103.7188,25.9219 L103.7188,28.6406 Z " fill="#000000"/><text fill="#000000" font-family="sans-serif" font-size="12" lengthAdjust="spacing" textLength="56" x="121.25" y="27.1543">resource</text><line style="stroke:#A80036;stroke-width:1.5;" x1="8" x2="258" y1="39" y2="39"/><ellipse cx="18" cy="50" rx="3" ry="3" style="stroke:#038048;stroke-width:1.0;fill:none;"/><text fill="#000000" font-family="sans-serif" font-size="11" lengthAdjust="spacing" textLength="51" x="27" y="53.2104">id: string</text><ellipse cx="18" cy="62.8047" rx="3" ry="3" style="stroke:#038048;stroke-width:1.0;fill:none;"/><text fill="#000000" font-family="sans-serif" font-size="11" lengthAdjust="spacing" textLength="170" x="27" y="66.0151">tags: dictionary[string, string]</text><ellipse cx="18" cy="75.6094" rx="3" ry="3" style="stroke:#038048;stroke-width:1.0;fill:none;"/><text fill="#000000" font-family="sans-serif" font-size="11" lengthAdjust="spacing" textLength="73" x="27" y="78.8198">name: string</text><ellipse cx="18" cy="88.4141" rx="3" ry="3" style="stroke:#038048;stroke-width:1.0;fill:none;"/><text fill="#000000" font-family="sans-serif" font-size="11" lengthAdjust="spacing" textLength="89" x="27" y="91.6245">ctime: datetime</text><ellipse cx="18" cy="101.2188" rx="3" ry="3" style="stroke:#038048;stroke-width:1.0;fill:none;"/><text fill="#000000" font-family="sans-serif" font-size="11" lengthAdjust="spacing" textLength="180" x="27" y="104.4292">age: trafo.duration_to_datetime</text><ellipse cx="18" cy="114.0234" rx="3" ry="3" style="stroke:#038048;stroke-width:1.0;fill:none;"/><text fill="#000000" font-family="sans-serif" font-size="11" lengthAdjust="spacing" textLength="94" x="27" y="117.2339">mtime: datetime</text><ellipse cx="18" cy="126.8281" rx="3" ry="3" style="stroke:#038048;stroke-width:1.0;fill:none;"/><text fill="#000000" font-family="sans-serif" font-size="11" lengthAdjust="spacing" textLength="225" x="27" y="130.0386">last_update: trafo.duration_to_datetime</text><ellipse cx="18" cy="139.6328" rx="3" ry="3" style="stroke:#038048;stroke-width:1.0;fill:none;"/><text fill="#000000" font-family="sans-serif" font-size="11" lengthAdjust="spacing" textLength="90" x="27" y="142.8433">atime: datetime</text><ellipse cx="18" cy="152.4375" rx="3" ry="3" style="stroke:#038048;stroke-width:1.0;fill:none;"/><text fill="#000000" font-family="sans-serif" font-size="11" lengthAdjust="spacing" textLength="226" x="27" y="155.6479">last_access: trafo.duration_to_datetime</text><ellipse cx="18" cy="165.2422" rx="3" ry="3" style="stroke:#038048;stroke-width:1.0;fill:none;"/><text fill="#000000" font-family="sans-serif" font-size="11" lengthAdjust="spacing" textLength="64" x="27" y="168.4526">kind: string</text><line style="stroke:#A80036;stroke-width:1.5;" x1="8" x2="258" y1="175.0469" y2="175.0469"/><!--MD5=[ab1eae8f76718f629e325f873a4fb1f8]
class aws_region--><rect codeLine="17" fill="#FEFECE" filter="url(#f3smrwwphhiej)" height="60.8047" id="aws_region" style="stroke:#A80036;stroke-width:1.5;" width="115" x="75.5" y="473"/><ellipse cx="96.35" cy="489" fill="#ADD1B2" rx="11" ry="11" style="stroke:#A80036;stroke-width:1.0;"/><path d="M99.3188,494.6406 Q98.7406,494.9375 98.1,495.0781 Q97.4594,495.2344 96.7563,495.2344 Q94.2563,495.2344 92.9281,493.5938 Q91.6156,491.9375 91.6156,488.8125 Q91.6156,485.6875 92.9281,484.0313 Q94.2563,482.375 96.7563,482.375 Q97.4594,482.375 98.1,482.5313 Q98.7563,482.6875 99.3188,482.9844 L99.3188,485.7031 Q98.6938,485.125 98.1,484.8594 Q97.5063,484.5781 96.8813,484.5781 Q95.5375,484.5781 94.85,485.6563 Q94.1625,486.7188 94.1625,488.8125 Q94.1625,490.9063 94.85,491.9844 Q95.5375,493.0469 96.8813,493.0469 Q97.5063,493.0469 98.1,492.7813 Q98.6938,492.5 99.3188,491.9219 L99.3188,494.6406 Z " fill="#000000"/><text fill="#000000" font-family="sans-serif" font-size="12" lengthAdjust="spacing" textLength="70" x="111.65" y="493.1543">aws_region</text><line style="stroke:#A80036;stroke-width:1.5;" x1="76.5" x2="189.5" y1="505" y2="505"/><ellipse cx="86.5" cy="516" rx="3" ry="3" style="stroke:#038048;stroke-width:1.0;fill:none;"/><text fill="#000000" font-family="sans-serif" font-size="11" lengthAdjust="spacing" textLength="89" x="95.5" y="519.2104">ctime: datetime</text><line style="stroke:#A80036;stroke-width:1.5;" x1="76.5" x2="189.5" y1="525.8047" y2="525.8047"/><!--MD5=[d58696f1e4bc9d0c039b8d6296c69bfb]
reverse link resource to region--><path codeLine="20" d="M133,203.18 C133,241 133,280.01 133,303.89 " fill="none" id="resource-backto-region" style="stroke:#A80036;stroke-width:1.0;"/><polygon fill="none" points="126,203,133,183,140,203,126,203" style="stroke:#A80036;stroke-width:1.0;"/><!--MD5=[74a2c40a56fa3a45c83352f4a753fdb5]
reverse link region to aws_region--><path codeLine="21" d="M133,372.29 C133,403.69 133,445.33 133,472.97 " fill="none" id="region-backto-aws_region" style="stroke:#A80036;stroke-width:1.0;"/><polygon fill="none" points="126,372.04,133,352.04,140,372.04,126,372.04" style="stroke:#A80036;stroke-width:1.0;"/><!--MD5=[607cdfdac5656f4ab903070193450046]
@startuml
skinparam backgroundcolor transparent
class region {

}
class resource {
+ id: string
+ tags: dictionary[string, string]
+ name: string
+ ctime: datetime
+ age: trafo.duration_to_datetime
+ mtime: datetime
+ last_update: trafo.duration_to_datetime
+ atime: datetime
+ last_access: trafo.duration_to_datetime
+ kind: string
}
class aws_region {
+ ctime: datetime
}
resource <|- - - region
region <|- - - aws_region
@enduml

PlantUML version 1.2021.16(Wed Dec 08 17:25:22 UTC 2021)
(GPL source distribution)
Java Runtime: OpenJDK Runtime Environment
JVM: OpenJDK 64-Bit Server VM
Default Encoding: UTF-8
Language: en
Country: null
--></g></svg>