<?xml version="1.0" encoding="UTF-8" standalone="no"?><svg xmlns="http://www.w3.org/2000/svg" xmlns:xlink="http://www.w3.org/1999/xlink" contentScriptType="application/ecmascript" contentStyleType="text/css" height="673px" preserveAspectRatio="none" style="width:371px;height:673px;background:#00000000;" version="1.1" viewBox="0 0 371 673" width="371px" zoomAndPan="magnify"><defs/><g><!--MD5=[7f0ecf5f554433d3f2e1213379ac821c]
class resource--><rect codeLine="17" fill="#194875" height="275.8359" id="resource" rx="2.5" ry="2.5" style="stroke:#000000;stroke-width:1.5;" width="256" x="7" y="7"/><ellipse cx="90.25" cy="26.8945" fill="#1A83AF" rx="11" ry="11" style="stroke:#000000;stroke-width:1.0;"/><path d="M93.2188,32.5352 Q92.6406,32.832 92,32.9727 Q91.3594,33.1289 90.6563,33.1289 Q88.1563,33.1289 86.8281,31.4883 Q85.5156,29.832 85.5156,26.707 Q85.5156,23.582 86.8281,21.9258 Q88.1563,20.2695 90.6563,20.2695 Q91.3594,20.2695 92,20.4258 Q92.6563,20.582 93.2188,20.8789 L93.2188,23.5977 Q92.5938,23.0195 92,22.7539 Q91.4063,22.4727 90.7813,22.4727 Q89.4375,22.4727 88.75,23.5508 Q88.0625,24.6133 88.0625,26.707 Q88.0625,28.8008 88.75,29.8789 Q89.4375,30.9414 90.7813,30.9414 Q91.4063,30.9414 92,30.6758 Q92.5938,30.3945 93.2188,29.8164 L93.2188,32.5352 Z " fill="#000000"/><text fill="#FFE797" font-family="Helvetica" font-size="17" lengthAdjust="spacing" textLength="71" x="115.75" y="32.7798">resource</text><line style="stroke:#000000;stroke-width:1.5;" x1="8" x2="262" y1="46.7891" y2="46.7891"/><text fill="#FFE797" font-family="sans-serif" font-size="11" font-weight="bold" lengthAdjust="spacing" textLength="12" x="18" y="65.9995">id</text><text fill="#FFE797" font-family="sans-serif" font-size="11" lengthAdjust="spacing" textLength="41" x="30" y="65.9995">: string</text><text fill="#FFE797" font-family="sans-serif" font-size="11" font-weight="bold" lengthAdjust="spacing" textLength="28" x="18" y="88.8042">tags</text><text fill="#FFE797" font-family="sans-serif" font-size="11" lengthAdjust="spacing" textLength="145" x="46" y="88.8042">: dictionary[string, string]</text><text fill="#FFE797" font-family="sans-serif" font-size="11" font-weight="bold" lengthAdjust="spacing" textLength="35" x="18" y="111.6089">name</text><text fill="#FFE797" font-family="sans-serif" font-size="11" lengthAdjust="spacing" textLength="41" x="53" y="111.6089">: string</text><text fill="#FFE797" font-family="sans-serif" font-size="11" font-weight="bold" lengthAdjust="spacing" textLength="35" x="18" y="134.4136">ctime</text><text fill="#FFE797" font-family="sans-serif" font-size="11" lengthAdjust="spacing" textLength="58" x="53" y="134.4136">: datetime</text><text fill="#FFE797" font-family="sans-serif" font-size="11" font-weight="bold" lengthAdjust="spacing" textLength="24" x="18" y="157.2183">age</text><text fill="#FFE797" font-family="sans-serif" font-size="11" lengthAdjust="spacing" textLength="159" x="42" y="157.2183">: trafo.duration_to_datetime</text><text fill="#FFE797" font-family="sans-serif" font-size="11" font-weight="bold" lengthAdjust="spacing" textLength="39" x="18" y="180.0229">mtime</text><text fill="#FFE797" font-family="sans-serif" font-size="11" lengthAdjust="spacing" textLength="58" x="57" y="180.0229">: datetime</text><text fill="#FFE797" font-family="sans-serif" font-size="11" font-weight="bold" lengthAdjust="spacing" textLength="75" x="18" y="202.8276">last_update</text><text fill="#FFE797" font-family="sans-serif" font-size="11" lengthAdjust="spacing" textLength="159" x="93" y="202.8276">: trafo.duration_to_datetime</text><text fill="#FFE797" font-family="sans-serif" font-size="11" font-weight="bold" lengthAdjust="spacing" textLength="36" x="18" y="225.6323">atime</text><text fill="#FFE797" font-family="sans-serif" font-size="11" lengthAdjust="spacing" textLength="58" x="54" y="225.6323">: datetime</text><text fill="#FFE797" font-family="sans-serif" font-size="11" font-weight="bold" lengthAdjust="spacing" textLength="74" x="18" y="248.437">last_access</text><text fill="#FFE797" font-family="sans-serif" font-size="11" lengthAdjust="spacing" textLength="159" x="92" y="248.437">: trafo.duration_to_datetime</text><text fill="#FFE797" font-family="sans-serif" font-size="11" font-weight="bold" lengthAdjust="spacing" textLength="27" x="18" y="271.2417">kind</text><text fill="#FFE797" font-family="sans-serif" font-size="11" lengthAdjust="spacing" textLength="41" x="45" y="271.2417">: string</text><!--MD5=[c069b88079f3e36515859a1683f3923c]
class aws_resource--><rect codeLine="29" fill="#194875" height="70.5938" id="aws_resource" rx="2.5" ry="2.5" style="stroke:#000000;stroke-width:1.5;" width="155" x="209.5" y="404"/><ellipse cx="224.5" cy="423.8945" fill="#1A83AF" rx="11" ry="11" style="stroke:#000000;stroke-width:1.0;"/><path d="M227.4688,429.5352 Q226.8906,429.832 226.25,429.9727 Q225.6094,430.1289 224.9063,430.1289 Q222.4063,430.1289 221.0781,428.4883 Q219.7656,426.832 219.7656,423.707 Q219.7656,420.582 221.0781,418.9258 Q222.4063,417.2695 224.9063,417.2695 Q225.6094,417.2695 226.25,417.4258 Q226.9063,417.582 227.4688,417.8789 L227.4688,420.5977 Q226.8438,420.0195 226.25,419.7539 Q225.6563,419.4727 225.0313,419.4727 Q223.6875,419.4727 223,420.5508 Q222.3125,421.6133 222.3125,423.707 Q222.3125,425.8008 223,426.8789 Q223.6875,427.9414 225.0313,427.9414 Q225.6563,427.9414 226.25,427.6758 Q226.8438,427.3945 227.4688,426.8164 L227.4688,429.5352 Z " fill="#000000"/><text fill="#FFE797" font-family="Helvetica" font-size="17" lengthAdjust="spacing" textLength="113" x="243.5" y="429.7798">aws_resource</text><line style="stroke:#000000;stroke-width:1.5;" x1="210.5" x2="363.5" y1="443.7891" y2="443.7891"/><text fill="#FFE797" font-family="sans-serif" font-size="11" font-weight="bold" lengthAdjust="spacing" textLength="21" x="220.5" y="462.9995">arn</text><text fill="#FFE797" font-family="sans-serif" font-size="11" lengthAdjust="spacing" textLength="41" x="241.5" y="462.9995">: string</text><!--MD5=[e59cf999063292dce8d6ea34dd10a338]
class user--><rect codeLine="32" fill="#194875" height="39.7891" id="user" rx="2.5" ry="2.5" style="stroke:#000000;stroke-width:1.5;" width="78" x="96" y="419.5"/><ellipse cx="111" cy="439.3945" fill="#1A83AF" rx="11" ry="11" style="stroke:#000000;stroke-width:1.0;"/><path d="M113.9688,445.0352 Q113.3906,445.332 112.75,445.4727 Q112.1094,445.6289 111.4063,445.6289 Q108.9063,445.6289 107.5781,443.9883 Q106.2656,442.332 106.2656,439.207 Q106.2656,436.082 107.5781,434.4258 Q108.9063,432.7695 111.4063,432.7695 Q112.1094,432.7695 112.75,432.9258 Q113.4063,433.082 113.9688,433.3789 L113.9688,436.0977 Q113.3438,435.5195 112.75,435.2539 Q112.1563,434.9727 111.5313,434.9727 Q110.1875,434.9727 109.5,436.0508 Q108.8125,437.1133 108.8125,439.207 Q108.8125,441.3008 109.5,442.3789 Q110.1875,443.4414 111.5313,443.4414 Q112.1563,443.4414 112.75,443.1758 Q113.3438,442.8945 113.9688,442.3164 L113.9688,445.0352 Z " fill="#000000"/><text fill="#FFE797" font-family="Helvetica" font-size="17" lengthAdjust="spacing" textLength="36" x="130" y="445.2798">user</text><!--MD5=[7d116dcf279e56138fbdce2e6cd1fb62]
class aws_iam_user--><rect codeLine="35" fill="#194875" height="70.5938" id="aws_iam_user" rx="2.5" ry="2.5" style="stroke:#000000;stroke-width:1.5;" width="161" x="130.5" y="596"/><ellipse cx="145.5" cy="615.8945" fill="#1A83AF" rx="11" ry="11" style="stroke:#000000;stroke-width:1.0;"/><path d="M148.4688,621.5352 Q147.8906,621.832 147.25,621.9727 Q146.6094,622.1289 145.9063,622.1289 Q143.4063,622.1289 142.0781,620.4883 Q140.7656,618.832 140.7656,615.707 Q140.7656,612.582 142.0781,610.9258 Q143.4063,609.2695 145.9063,609.2695 Q146.6094,609.2695 147.25,609.4258 Q147.9063,609.582 148.4688,609.8789 L148.4688,612.5977 Q147.8438,612.0195 147.25,611.7539 Q146.6563,611.4727 146.0313,611.4727 Q144.6875,611.4727 144,612.5508 Q143.3125,613.6133 143.3125,615.707 Q143.3125,617.8008 144,618.8789 Q144.6875,619.9414 146.0313,619.9414 Q146.6563,619.9414 147.25,619.6758 Q147.8438,619.3945 148.4688,618.8164 L148.4688,621.5352 Z " fill="#000000"/><text fill="#FFE797" font-family="Helvetica" font-size="17" lengthAdjust="spacing" textLength="119" x="164.5" y="621.7798">aws_iam_user</text><line style="stroke:#000000;stroke-width:1.5;" x1="131.5" x2="290.5" y1="635.7891" y2="635.7891"/><text fill="#FFE797" font-family="sans-serif" font-size="11" font-weight="bold" lengthAdjust="spacing" textLength="84" x="141.5" y="654.9995">user_policies</text><text fill="#FFE797" font-family="sans-serif" font-size="11" lengthAdjust="spacing" textLength="36" x="225.5" y="654.9995">: any[]</text><!--MD5=[e9adb88d742c26080265e0c7b9f8570b]
reverse link resource to user--><path codeLine="38" d="M135,303.51 C135,349.86 135,394.69 135,419.24 " fill="none" id="resource-backto-user" style="stroke:#FFAF37;stroke-width:2.0;"/><polygon fill="none" points="128,303.26,135,283.26,142,303.26,128,303.26" style="stroke:#FFAF37;stroke-width:2.0;"/><!--MD5=[251635a8d394816890216fc3f49a1517]
reverse link aws_resource to aws_iam_user--><path codeLine="39" d="M265.62,493.96 C252.56,526.61 236.24,567.41 224.85,595.87 " fill="none" id="aws_resource-backto-aws_iam_user" style="stroke:#FFAF37;stroke-width:2.0;"/><polygon fill="none" points="259.13,491.32,273.06,475.35,272.13,496.52,259.13,491.32" style="stroke:#FFAF37;stroke-width:2.0;"/><!--MD5=[e9aae5b723c26172641eed2b8ca188f5]
reverse link user to aws_iam_user--><path codeLine="40" d="M150.31,478.78 C164,513 183.88,562.71 197.12,595.79 " fill="none" id="user-backto-aws_iam_user" style="stroke:#FFAF37;stroke-width:2.0;"/><polygon fill="none" points="143.63,480.93,142.71,459.76,156.63,475.73,143.63,480.93" style="stroke:#FFAF37;stroke-width:2.0;"/><!--MD5=[79ed78cc152afbf6bb7a4e73aca0c685]
@startuml
hide empty members
skinparam ArrowColor #ffaf37
skinparam ArrowThickness 2
skinparam BackgroundColor transparent
skinparam ClassAttributeFontColor #ffe797
skinparam ClassBackgroundColor #194875
skinparam ClassBorderColor Black
skinparam ClassFontColor #ffe797
skinparam ClassFontName Helvetica
skinparam ClassFontSize 17
skinparam Padding 5
skinparam RoundCorner 5
skinparam Shadowing false
skinparam stereotypeCBackgroundColor #1a83af
skinparam stereotypeIBackgroundColor #1a83af

class resource {
**id**: string
**tags**: dictionary[string, string]
**name**: string
**ctime**: datetime
**age**: trafo.duration_to_datetime
**mtime**: datetime
**last_update**: trafo.duration_to_datetime
**atime**: datetime
**last_access**: trafo.duration_to_datetime
**kind**: string
}
class aws_resource {
**arn**: string
}
class user {

}
class aws_iam_user {
**user_policies**: any[]
}
resource <|- - - user
aws_resource <|- - - aws_iam_user
user <|- - - aws_iam_user
@enduml

PlantUML version 1.2021.16(Wed Dec 08 17:25:22 UTC 2021)
(GPL source distribution)
Java Runtime: OpenJDK Runtime Environment
JVM: OpenJDK 64-Bit Server VM
Default Encoding: UTF-8
Language: en
Country: null
--></g></svg>