<?xml version="1.0" encoding="UTF-8" standalone="no"?><svg xmlns="http://www.w3.org/2000/svg" xmlns:xlink="http://www.w3.org/1999/xlink" contentScriptType="application/ecmascript" contentStyleType="text/css" height="709px" preserveAspectRatio="none" style="width:421px;height:709px;background:#00000000;" version="1.1" viewBox="0 0 421 709" width="421px" zoomAndPan="magnify"><defs/><g><!--MD5=[7f0ecf5f554433d3f2e1213379ac821c]
class resource--><rect codeLine="17" fill="#194875" height="275.8359" id="resource" rx="2.5" ry="2.5" style="stroke:#000000;stroke-width:1.5;" width="256" x="7" y="7"/><ellipse cx="90.25" cy="26.8945" fill="#1A83AF" rx="11" ry="11" style="stroke:#000000;stroke-width:1.0;"/><path d="M93.2188,32.5352 Q92.6406,32.832 92,32.9727 Q91.3594,33.1289 90.6563,33.1289 Q88.1563,33.1289 86.8281,31.4883 Q85.5156,29.832 85.5156,26.707 Q85.5156,23.582 86.8281,21.9258 Q88.1563,20.2695 90.6563,20.2695 Q91.3594,20.2695 92,20.4258 Q92.6563,20.582 93.2188,20.8789 L93.2188,23.5977 Q92.5938,23.0195 92,22.7539 Q91.4063,22.4727 90.7813,22.4727 Q89.4375,22.4727 88.75,23.5508 Q88.0625,24.6133 88.0625,26.707 Q88.0625,28.8008 88.75,29.8789 Q89.4375,30.9414 90.7813,30.9414 Q91.4063,30.9414 92,30.6758 Q92.5938,30.3945 93.2188,29.8164 L93.2188,32.5352 Z " fill="#000000"/><text fill="#FFE797" font-family="Helvetica" font-size="17" lengthAdjust="spacing" textLength="71" x="115.75" y="32.7798">resource</text><line style="stroke:#000000;stroke-width:1.5;" x1="8" x2="262" y1="46.7891" y2="46.7891"/><text fill="#FFE797" font-family="sans-serif" font-size="11" font-weight="bold" lengthAdjust="spacing" textLength="12" x="18" y="65.9995">id</text><text fill="#FFE797" font-family="sans-serif" font-size="11" lengthAdjust="spacing" textLength="41" x="30" y="65.9995">: string</text><text fill="#FFE797" font-family="sans-serif" font-size="11" font-weight="bold" lengthAdjust="spacing" textLength="28" x="18" y="88.8042">tags</text><text fill="#FFE797" font-family="sans-serif" font-size="11" lengthAdjust="spacing" textLength="145" x="46" y="88.8042">: dictionary[string, string]</text><text fill="#FFE797" font-family="sans-serif" font-size="11" font-weight="bold" lengthAdjust="spacing" textLength="35" x="18" y="111.6089">name</text><text fill="#FFE797" font-family="sans-serif" font-size="11" lengthAdjust="spacing" textLength="41" x="53" y="111.6089">: string</text><text fill="#FFE797" font-family="sans-serif" font-size="11" font-weight="bold" lengthAdjust="spacing" textLength="35" x="18" y="134.4136">ctime</text><text fill="#FFE797" font-family="sans-serif" font-size="11" lengthAdjust="spacing" textLength="58" x="53" y="134.4136">: datetime</text><text fill="#FFE797" font-family="sans-serif" font-size="11" font-weight="bold" lengthAdjust="spacing" textLength="24" x="18" y="157.2183">age</text><text fill="#FFE797" font-family="sans-serif" font-size="11" lengthAdjust="spacing" textLength="159" x="42" y="157.2183">: trafo.duration_to_datetime</text><text fill="#FFE797" font-family="sans-serif" font-size="11" font-weight="bold" lengthAdjust="spacing" textLength="39" x="18" y="180.0229">mtime</text><text fill="#FFE797" font-family="sans-serif" font-size="11" lengthAdjust="spacing" textLength="58" x="57" y="180.0229">: datetime</text><text fill="#FFE797" font-family="sans-serif" font-size="11" font-weight="bold" lengthAdjust="spacing" textLength="75" x="18" y="202.8276">last_update</text><text fill="#FFE797" font-family="sans-serif" font-size="11" lengthAdjust="spacing" textLength="159" x="93" y="202.8276">: trafo.duration_to_datetime</text><text fill="#FFE797" font-family="sans-serif" font-size="11" font-weight="bold" lengthAdjust="spacing" textLength="36" x="18" y="225.6323">atime</text><text fill="#FFE797" font-family="sans-serif" font-size="11" lengthAdjust="spacing" textLength="58" x="54" y="225.6323">: datetime</text><text fill="#FFE797" font-family="sans-serif" font-size="11" font-weight="bold" lengthAdjust="spacing" textLength="74" x="18" y="248.437">last_access</text><text fill="#FFE797" font-family="sans-serif" font-size="11" lengthAdjust="spacing" textLength="159" x="92" y="248.437">: trafo.duration_to_datetime</text><text fill="#FFE797" font-family="sans-serif" font-size="11" font-weight="bold" lengthAdjust="spacing" textLength="27" x="18" y="271.2417">kind</text><text fill="#FFE797" font-family="sans-serif" font-size="11" lengthAdjust="spacing" textLength="41" x="45" y="271.2417">: string</text><!--MD5=[c069b88079f3e36515859a1683f3923c]
class aws_resource--><rect codeLine="29" fill="#194875" height="70.5938" id="aws_resource" rx="2.5" ry="2.5" style="stroke:#000000;stroke-width:1.5;" width="155" x="259.5" y="438"/><ellipse cx="274.5" cy="457.8945" fill="#1A83AF" rx="11" ry="11" style="stroke:#000000;stroke-width:1.0;"/><path d="M277.4688,463.5352 Q276.8906,463.832 276.25,463.9727 Q275.6094,464.1289 274.9063,464.1289 Q272.4063,464.1289 271.0781,462.4883 Q269.7656,460.832 269.7656,457.707 Q269.7656,454.582 271.0781,452.9258 Q272.4063,451.2695 274.9063,451.2695 Q275.6094,451.2695 276.25,451.4258 Q276.9063,451.582 277.4688,451.8789 L277.4688,454.5977 Q276.8438,454.0195 276.25,453.7539 Q275.6563,453.4727 275.0313,453.4727 Q273.6875,453.4727 273,454.5508 Q272.3125,455.6133 272.3125,457.707 Q272.3125,459.8008 273,460.8789 Q273.6875,461.9414 275.0313,461.9414 Q275.6563,461.9414 276.25,461.6758 Q276.8438,461.3945 277.4688,460.8164 L277.4688,463.5352 Z " fill="#000000"/><text fill="#FFE797" font-family="Helvetica" font-size="17" lengthAdjust="spacing" textLength="113" x="293.5" y="463.7798">aws_resource</text><line style="stroke:#000000;stroke-width:1.5;" x1="260.5" x2="413.5" y1="477.7891" y2="477.7891"/><text fill="#FFE797" font-family="sans-serif" font-size="11" font-weight="bold" lengthAdjust="spacing" textLength="21" x="270.5" y="496.9995">arn</text><text fill="#FFE797" font-family="sans-serif" font-size="11" lengthAdjust="spacing" textLength="41" x="291.5" y="496.9995">: string</text><!--MD5=[230a9b3152d0e43428e5ec47aa3382f3]
class instance--><rect codeLine="32" fill="#194875" height="139.0078" id="instance" rx="2.5" ry="2.5" style="stroke:#000000;stroke-width:1.5;" width="179" x="45.5" y="404"/><ellipse cx="90.75" cy="423.8945" fill="#1A83AF" rx="11" ry="11" style="stroke:#000000;stroke-width:1.0;"/><path d="M93.7188,429.5352 Q93.1406,429.832 92.5,429.9727 Q91.8594,430.1289 91.1563,430.1289 Q88.6563,430.1289 87.3281,428.4883 Q86.0156,426.832 86.0156,423.707 Q86.0156,420.582 87.3281,418.9258 Q88.6563,417.2695 91.1563,417.2695 Q91.8594,417.2695 92.5,417.4258 Q93.1563,417.582 93.7188,417.8789 L93.7188,420.5977 Q93.0938,420.0195 92.5,419.7539 Q91.9063,419.4727 91.2813,419.4727 Q89.9375,419.4727 89.25,420.5508 Q88.5625,421.6133 88.5625,423.707 Q88.5625,425.8008 89.25,426.8789 Q89.9375,427.9414 91.2813,427.9414 Q91.9063,427.9414 92.5,427.6758 Q93.0938,427.3945 93.7188,426.8164 L93.7188,429.5352 Z " fill="#000000"/><text fill="#FFE797" font-family="Helvetica" font-size="17" lengthAdjust="spacing" textLength="70" x="116.25" y="429.7798">instance</text><line style="stroke:#000000;stroke-width:1.5;" x1="46.5" x2="223.5" y1="443.7891" y2="443.7891"/><text fill="#FFE797" font-family="sans-serif" font-size="11" font-weight="bold" lengthAdjust="spacing" textLength="96" x="56.5" y="462.9995">instance_cores</text><text fill="#FFE797" font-family="sans-serif" font-size="11" lengthAdjust="spacing" textLength="46" x="152.5" y="462.9995">: double</text><text fill="#FFE797" font-family="sans-serif" font-size="11" font-weight="bold" lengthAdjust="spacing" textLength="111" x="56.5" y="485.8042">instance_memory</text><text fill="#FFE797" font-family="sans-serif" font-size="11" lengthAdjust="spacing" textLength="46" x="167.5" y="485.8042">: double</text><text fill="#FFE797" font-family="sans-serif" font-size="11" font-weight="bold" lengthAdjust="spacing" textLength="89" x="56.5" y="508.6089">instance_type</text><text fill="#FFE797" font-family="sans-serif" font-size="11" lengthAdjust="spacing" textLength="41" x="145.5" y="508.6089">: string</text><text fill="#FFE797" font-family="sans-serif" font-size="11" font-weight="bold" lengthAdjust="spacing" textLength="101" x="56.5" y="531.4136">instance_status</text><text fill="#FFE797" font-family="sans-serif" font-size="11" lengthAdjust="spacing" textLength="41" x="157.5" y="531.4136">: string</text><!--MD5=[a78a17b35dcf435f0eee6761f15e83c6]
class aws_ec2_instance--><rect codeLine="38" fill="#194875" height="39.7891" id="aws_ec2_instance" rx="2.5" ry="2.5" style="stroke:#000000;stroke-width:1.5;" width="192" x="172" y="664"/><ellipse cx="187" cy="683.8945" fill="#1A83AF" rx="11" ry="11" style="stroke:#000000;stroke-width:1.0;"/><path d="M189.9688,689.5352 Q189.3906,689.832 188.75,689.9727 Q188.1094,690.1289 187.4063,690.1289 Q184.9063,690.1289 183.5781,688.4883 Q182.2656,686.832 182.2656,683.707 Q182.2656,680.582 183.5781,678.9258 Q184.9063,677.2695 187.4063,677.2695 Q188.1094,677.2695 188.75,677.4258 Q189.4063,677.582 189.9688,677.8789 L189.9688,680.5977 Q189.3438,680.0195 188.75,679.7539 Q188.1563,679.4727 187.5313,679.4727 Q186.1875,679.4727 185.5,680.5508 Q184.8125,681.6133 184.8125,683.707 Q184.8125,685.8008 185.5,686.8789 Q186.1875,687.9414 187.5313,687.9414 Q188.1563,687.9414 188.75,687.6758 Q189.3438,687.3945 189.9688,686.8164 L189.9688,689.5352 Z " fill="#000000"/><text fill="#FFE797" font-family="Helvetica" font-size="17" lengthAdjust="spacing" textLength="150" x="206" y="689.7798">aws_ec2_instance</text><!--MD5=[d8c8fec3d897e15ddf46b16cbe65a677]
reverse link resource to instance--><path codeLine="41" d="M135,303.22 C135,338.64 135,374.43 135,403.93 " fill="none" id="resource-backto-instance" style="stroke:#FFAF37;stroke-width:2.0;"/><polygon fill="none" points="128,303.05,135,283.05,142,303.05,128,303.05" style="stroke:#FFAF37;stroke-width:2.0;"/><!--MD5=[15de91de1592c2657f974c1962306a76]
reverse link aws_resource to aws_ec2_instance--><path codeLine="42" d="M319.11,528.55 C304.39,573.04 284.36,633.57 274.31,663.95 " fill="none" id="aws_resource-backto-aws_ec2_instance" style="stroke:#FFAF37;stroke-width:2.0;"/><polygon fill="none" points="312.52,526.19,325.45,509.4,325.81,530.58,312.52,526.19" style="stroke:#FFAF37;stroke-width:2.0;"/><!--MD5=[93c317f3510cfca52c24740b5ca4bf14]
reverse link instance to aws_ec2_instance--><path codeLine="43" d="M189.56,560.03 C213.97,598.29 240.59,640.03 255.7,663.71 " fill="none" id="instance-backto-aws_ec2_instance" style="stroke:#FFAF37;stroke-width:2.0;"/><polygon fill="none" points="183.59,563.69,178.73,543.06,195.39,556.16,183.59,563.69" style="stroke:#FFAF37;stroke-width:2.0;"/><!--MD5=[e2d68b5e5ae0812ea1c5c41aca5769b2]
@startuml
hide empty members
skinparam ArrowColor #ffaf37
skinparam ArrowThickness 2
skinparam BackgroundColor transparent
skinparam ClassAttributeFontColor #ffe797
skinparam ClassBackgroundColor #194875
skinparam ClassBorderColor Black
skinparam ClassFontColor #ffe797
skinparam ClassFontName Helvetica
skinparam ClassFontSize 17
skinparam Padding 5
skinparam RoundCorner 5
skinparam Shadowing false
skinparam stereotypeCBackgroundColor #1a83af
skinparam stereotypeIBackgroundColor #1a83af

class resource {
**id**: string
**tags**: dictionary[string, string]
**name**: string
**ctime**: datetime
**age**: trafo.duration_to_datetime
**mtime**: datetime
**last_update**: trafo.duration_to_datetime
**atime**: datetime
**last_access**: trafo.duration_to_datetime
**kind**: string
}
class aws_resource {
**arn**: string
}
class instance {
**instance_cores**: double
**instance_memory**: double
**instance_type**: string
**instance_status**: string
}
class aws_ec2_instance {

}
resource <|- - - instance
aws_resource <|- - - aws_ec2_instance
instance <|- - - aws_ec2_instance
@enduml

PlantUML version 1.2021.16(Wed Dec 08 17:25:22 UTC 2021)
(GPL source distribution)
Java Runtime: OpenJDK Runtime Environment
JVM: OpenJDK 64-Bit Server VM
Default Encoding: UTF-8
Language: en
Country: null
--></g></svg>