<?xml version="1.0" encoding="UTF-8" standalone="no"?><svg xmlns="http://www.w3.org/2000/svg" xmlns:xlink="http://www.w3.org/1999/xlink" contentScriptType="application/ecmascript" contentStyleType="text/css" height="560px" preserveAspectRatio="none" style="width:341px;height:560px;background:#00000000;" version="1.1" viewBox="0 0 341 560" width="341px" zoomAndPan="magnify"><defs><filter height="300%" id="f1aaswx5gnx87z" width="300%" x="-1" y="-1"><feGaussianBlur result="blurOut" stdDeviation="2.0"/><feColorMatrix in="blurOut" result="blurOut2" type="matrix" values="0 0 0 0 0 0 0 0 0 0 0 0 0 0 0 0 0 0 .4 0"/><feOffset dx="4.0" dy="4.0" in="blurOut2" result="blurOut3"/><feBlend in="SourceGraphic" in2="blurOut3" mode="normal"/></filter></defs><g><!--MD5=[7f0ecf5f554433d3f2e1213379ac821c]
class resource--><rect codeLine="2" fill="#FEFECE" filter="url(#f1aaswx5gnx87z)" height="176.0469" id="resource" style="stroke:#A80036;stroke-width:1.5;" width="252" x="7" y="7"/><ellipse cx="100.75" cy="23" fill="#ADD1B2" rx="11" ry="11" style="stroke:#A80036;stroke-width:1.0;"/><path d="M103.7188,28.6406 Q103.1406,28.9375 102.5,29.0781 Q101.8594,29.2344 101.1563,29.2344 Q98.6563,29.2344 97.3281,27.5938 Q96.0156,25.9375 96.0156,22.8125 Q96.0156,19.6875 97.3281,18.0313 Q98.6563,16.375 101.1563,16.375 Q101.8594,16.375 102.5,16.5313 Q103.1563,16.6875 103.7188,16.9844 L103.7188,19.7031 Q103.0938,19.125 102.5,18.8594 Q101.9063,18.5781 101.2813,18.5781 Q99.9375,18.5781 99.25,19.6563 Q98.5625,20.7188 98.5625,22.8125 Q98.5625,24.9063 99.25,25.9844 Q99.9375,27.0469 101.2813,27.0469 Q101.9063,27.0469 102.5,26.7813 Q103.0938,26.5 103.7188,25.9219 L103.7188,28.6406 Z " fill="#000000"/><text fill="#000000" font-family="sans-serif" font-size="12" lengthAdjust="spacing" textLength="56" x="121.25" y="27.1543">resource</text><line style="stroke:#A80036;stroke-width:1.5;" x1="8" x2="258" y1="39" y2="39"/><ellipse cx="18" cy="50" rx="3" ry="3" style="stroke:#038048;stroke-width:1.0;fill:none;"/><text fill="#000000" font-family="sans-serif" font-size="11" lengthAdjust="spacing" textLength="51" x="27" y="53.2104">id: string</text><ellipse cx="18" cy="62.8047" rx="3" ry="3" style="stroke:#038048;stroke-width:1.0;fill:none;"/><text fill="#000000" font-family="sans-serif" font-size="11" lengthAdjust="spacing" textLength="170" x="27" y="66.0151">tags: dictionary[string, string]</text><ellipse cx="18" cy="75.6094" rx="3" ry="3" style="stroke:#038048;stroke-width:1.0;fill:none;"/><text fill="#000000" font-family="sans-serif" font-size="11" lengthAdjust="spacing" textLength="73" x="27" y="78.8198">name: string</text><ellipse cx="18" cy="88.4141" rx="3" ry="3" style="stroke:#038048;stroke-width:1.0;fill:none;"/><text fill="#000000" font-family="sans-serif" font-size="11" lengthAdjust="spacing" textLength="89" x="27" y="91.6245">ctime: datetime</text><ellipse cx="18" cy="101.2188" rx="3" ry="3" style="stroke:#038048;stroke-width:1.0;fill:none;"/><text fill="#000000" font-family="sans-serif" font-size="11" lengthAdjust="spacing" textLength="180" x="27" y="104.4292">age: trafo.duration_to_datetime</text><ellipse cx="18" cy="114.0234" rx="3" ry="3" style="stroke:#038048;stroke-width:1.0;fill:none;"/><text fill="#000000" font-family="sans-serif" font-size="11" lengthAdjust="spacing" textLength="94" x="27" y="117.2339">mtime: datetime</text><ellipse cx="18" cy="126.8281" rx="3" ry="3" style="stroke:#038048;stroke-width:1.0;fill:none;"/><text fill="#000000" font-family="sans-serif" font-size="11" lengthAdjust="spacing" textLength="225" x="27" y="130.0386">last_update: trafo.duration_to_datetime</text><ellipse cx="18" cy="139.6328" rx="3" ry="3" style="stroke:#038048;stroke-width:1.0;fill:none;"/><text fill="#000000" font-family="sans-serif" font-size="11" lengthAdjust="spacing" textLength="90" x="27" y="142.8433">atime: datetime</text><ellipse cx="18" cy="152.4375" rx="3" ry="3" style="stroke:#038048;stroke-width:1.0;fill:none;"/><text fill="#000000" font-family="sans-serif" font-size="11" lengthAdjust="spacing" textLength="226" x="27" y="155.6479">last_access: trafo.duration_to_datetime</text><ellipse cx="18" cy="165.2422" rx="3" ry="3" style="stroke:#038048;stroke-width:1.0;fill:none;"/><text fill="#000000" font-family="sans-serif" font-size="11" lengthAdjust="spacing" textLength="64" x="27" y="168.4526">kind: string</text><line style="stroke:#A80036;stroke-width:1.5;" x1="8" x2="258" y1="175.0469" y2="175.0469"/><!--MD5=[c069b88079f3e36515859a1683f3923c]
class aws_resource--><rect codeLine="14" fill="#FEFECE" filter="url(#f1aaswx5gnx87z)" height="60.8047" id="aws_resource" style="stroke:#A80036;stroke-width:1.5;" width="118" x="209" y="304"/><ellipse cx="224" cy="320" fill="#ADD1B2" rx="11" ry="11" style="stroke:#A80036;stroke-width:1.0;"/><path d="M226.9688,325.6406 Q226.3906,325.9375 225.75,326.0781 Q225.1094,326.2344 224.4063,326.2344 Q221.9063,326.2344 220.5781,324.5938 Q219.2656,322.9375 219.2656,319.8125 Q219.2656,316.6875 220.5781,315.0313 Q221.9063,313.375 224.4063,313.375 Q225.1094,313.375 225.75,313.5313 Q226.4063,313.6875 226.9688,313.9844 L226.9688,316.7031 Q226.3438,316.125 225.75,315.8594 Q225.1563,315.5781 224.5313,315.5781 Q223.1875,315.5781 222.5,316.6563 Q221.8125,317.7188 221.8125,319.8125 Q221.8125,321.9063 222.5,322.9844 Q223.1875,324.0469 224.5313,324.0469 Q225.1563,324.0469 225.75,323.7813 Q226.3438,323.5 226.9688,322.9219 L226.9688,325.6406 Z " fill="#000000"/><text fill="#000000" font-family="sans-serif" font-size="12" lengthAdjust="spacing" textLength="86" x="238" y="324.1543">aws_resource</text><line style="stroke:#A80036;stroke-width:1.5;" x1="210" x2="326" y1="336" y2="336"/><ellipse cx="220" cy="347" rx="3" ry="3" style="stroke:#038048;stroke-width:1.0;fill:none;"/><text fill="#000000" font-family="sans-serif" font-size="11" lengthAdjust="spacing" textLength="60" x="229" y="350.2104">arn: string</text><line style="stroke:#A80036;stroke-width:1.5;" x1="210" x2="326" y1="356.8047" y2="356.8047"/><!--MD5=[f0301c5ee29ff369095e7c7bf5b421a4]
class network--><rect codeLine="17" fill="#FEFECE" filter="url(#f1aaswx5gnx87z)" height="48" id="network" style="stroke:#A80036;stroke-width:1.5;" width="82" x="92" y="310.5"/><ellipse cx="107" cy="326.5" fill="#ADD1B2" rx="11" ry="11" style="stroke:#A80036;stroke-width:1.0;"/><path d="M109.9688,332.1406 Q109.3906,332.4375 108.75,332.5781 Q108.1094,332.7344 107.4063,332.7344 Q104.9063,332.7344 103.5781,331.0938 Q102.2656,329.4375 102.2656,326.3125 Q102.2656,323.1875 103.5781,321.5313 Q104.9063,319.875 107.4063,319.875 Q108.1094,319.875 108.75,320.0313 Q109.4063,320.1875 109.9688,320.4844 L109.9688,323.2031 Q109.3438,322.625 108.75,322.3594 Q108.1563,322.0781 107.5313,322.0781 Q106.1875,322.0781 105.5,323.1563 Q104.8125,324.2188 104.8125,326.3125 Q104.8125,328.4063 105.5,329.4844 Q106.1875,330.5469 107.5313,330.5469 Q108.1563,330.5469 108.75,330.2813 Q109.3438,330 109.9688,329.4219 L109.9688,332.1406 Z " fill="#000000"/><text fill="#000000" font-family="sans-serif" font-size="12" lengthAdjust="spacing" textLength="50" x="121" y="330.6543">network</text><line style="stroke:#A80036;stroke-width:1.5;" x1="93" x2="173" y1="342.5" y2="342.5"/><line style="stroke:#A80036;stroke-width:1.5;" x1="93" x2="173" y1="350.5" y2="350.5"/><!--MD5=[b092df8b8fb1f6f311aad85fb2df39d7]
class aws_vpc--><rect codeLine="20" fill="#FEFECE" filter="url(#f1aaswx5gnx87z)" height="60.8047" id="aws_vpc" style="stroke:#A80036;stroke-width:1.5;" width="134" x="149" y="486"/><ellipse cx="186.95" cy="502" fill="#ADD1B2" rx="11" ry="11" style="stroke:#A80036;stroke-width:1.0;"/><path d="M189.9188,507.6406 Q189.3406,507.9375 188.7,508.0781 Q188.0594,508.2344 187.3563,508.2344 Q184.8563,508.2344 183.5281,506.5938 Q182.2156,504.9375 182.2156,501.8125 Q182.2156,498.6875 183.5281,497.0313 Q184.8563,495.375 187.3563,495.375 Q188.0594,495.375 188.7,495.5313 Q189.3563,495.6875 189.9188,495.9844 L189.9188,498.7031 Q189.2938,498.125 188.7,497.8594 Q188.1063,497.5781 187.4813,497.5781 Q186.1375,497.5781 185.45,498.6563 Q184.7625,499.7188 184.7625,501.8125 Q184.7625,503.9063 185.45,504.9844 Q186.1375,506.0469 187.4813,506.0469 Q188.1063,506.0469 188.7,505.7813 Q189.2938,505.5 189.9188,504.9219 L189.9188,507.6406 Z " fill="#000000"/><text fill="#000000" font-family="sans-serif" font-size="12" lengthAdjust="spacing" textLength="51" x="206.05" y="506.1543">aws_vpc</text><line style="stroke:#A80036;stroke-width:1.5;" x1="150" x2="282" y1="518" y2="518"/><ellipse cx="160" cy="529" rx="3" ry="3" style="stroke:#038048;stroke-width:1.0;fill:none;"/><text fill="#000000" font-family="sans-serif" font-size="11" lengthAdjust="spacing" textLength="108" x="169" y="532.2104">is_default: boolean</text><line style="stroke:#A80036;stroke-width:1.5;" x1="150" x2="282" y1="538.8047" y2="538.8047"/><!--MD5=[ffa6012732118393e6926d868a523dc2]
reverse link resource to network--><path codeLine="23" d="M133,203.16 C133,243.25 133,285.12 133,310.25 " fill="none" id="resource-backto-network" style="stroke:#A80036;stroke-width:1.0;"/><polygon fill="none" points="126,203.09,133,183.09,140,203.09,126,203.09" style="stroke:#A80036;stroke-width:1.0;"/><!--MD5=[d4312ec6c79ae036d81e00f30aa9c902]
reverse link aws_resource to aws_vpc--><path codeLine="24" d="M253.85,384.48 C244.5,416.85 232.54,458.23 224.6,485.73 " fill="none" id="aws_resource-backto-aws_vpc" style="stroke:#A80036;stroke-width:1.0;"/><polygon fill="none" points="247.14,382.49,259.41,365.22,260.59,386.38,247.14,382.49" style="stroke:#A80036;stroke-width:1.0;"/><!--MD5=[38fd6ffdfd57641a05726f52345adb65]
reverse link network to aws_vpc--><path codeLine="25" d="M152.15,377.04 C167.5,410.32 188.65,456.19 202.33,485.85 " fill="none" id="network-backto-aws_vpc" style="stroke:#A80036;stroke-width:1.0;"/><polygon fill="none" points="145.7,379.76,143.68,358.66,158.41,373.89,145.7,379.76" style="stroke:#A80036;stroke-width:1.0;"/><!--MD5=[d2f1f3746456138e658233d3e9098b70]
@startuml
skinparam backgroundcolor transparent
class resource {
+ id: string
+ tags: dictionary[string, string]
+ name: string
+ ctime: datetime
+ age: trafo.duration_to_datetime
+ mtime: datetime
+ last_update: trafo.duration_to_datetime
+ atime: datetime
+ last_access: trafo.duration_to_datetime
+ kind: string
}
class aws_resource {
+ arn: string
}
class network {

}
class aws_vpc {
+ is_default: boolean
}
resource <|- - - network
aws_resource <|- - - aws_vpc
network <|- - - aws_vpc
@enduml

PlantUML version 1.2021.16(Wed Dec 08 17:25:22 UTC 2021)
(GPL source distribution)
Java Runtime: OpenJDK Runtime Environment
JVM: OpenJDK 64-Bit Server VM
Default Encoding: UTF-8
Language: en
Country: null
--></g></svg>