<svg xmlns="http://www.w3.org/2000/svg" xmlns:xlink="http://www.w3.org/1999/xlink" width="416" height="777" contentScriptType="application/ecmascript" contentStyleType="text/css" style="width:416px;height:777px;background:#00000000" preserveAspectRatio="none" version="1.1" viewBox="0 0 416 777" zoomAndPan="magnify"><g><rect id="resource" width="256" height="275.836" x="7" y="7" fill="#194875" codeLine="17" rx="2.5" ry="2.5" style="stroke:#000;stroke-width:1.5"/><ellipse cx="90.25" cy="26.895" fill="#1A83AF" rx="11" ry="11" style="stroke:#000;stroke-width:1"/><path fill="#000" d="M93.2188,32.5352 Q92.6406,32.832 92,32.9727 Q91.3594,33.1289 90.6563,33.1289 Q88.1563,33.1289 86.8281,31.4883 Q85.5156,29.832 85.5156,26.707 Q85.5156,23.582 86.8281,21.9258 Q88.1563,20.2695 90.6563,20.2695 Q91.3594,20.2695 92,20.4258 Q92.6563,20.582 93.2188,20.8789 L93.2188,23.5977 Q92.5938,23.0195 92,22.7539 Q91.4063,22.4727 90.7813,22.4727 Q89.4375,22.4727 88.75,23.5508 Q88.0625,24.6133 88.0625,26.707 Q88.0625,28.8008 88.75,29.8789 Q89.4375,30.9414 90.7813,30.9414 Q91.4063,30.9414 92,30.6758 Q92.5938,30.3945 93.2188,29.8164 L93.2188,32.5352 Z"/><text x="115.75" y="32.78" fill="#FFE797" font-family="Helvetica" font-size="17" lengthAdjust="spacing" textLength="71">resource</text><line style="stroke:#000;stroke-width:1.5" x1="8" x2="262" y1="46.789" y2="46.789"/><text x="18" y="65.999" fill="#FFE797" font-family="sans-serif" font-size="11" font-weight="bold" lengthAdjust="spacing" textLength="12">id</text><text x="30" y="65.999" fill="#FFE797" font-family="sans-serif" font-size="11" lengthAdjust="spacing" textLength="41">: string</text><text x="18" y="88.804" fill="#FFE797" font-family="sans-serif" font-size="11" font-weight="bold" lengthAdjust="spacing" textLength="28">tags</text><text x="46" y="88.804" fill="#FFE797" font-family="sans-serif" font-size="11" lengthAdjust="spacing" textLength="145">: dictionary[string, string]</text><text x="18" y="111.609" fill="#FFE797" font-family="sans-serif" font-size="11" font-weight="bold" lengthAdjust="spacing" textLength="35">name</text><text x="53" y="111.609" fill="#FFE797" font-family="sans-serif" font-size="11" lengthAdjust="spacing" textLength="41">: string</text><text x="18" y="134.414" fill="#FFE797" font-family="sans-serif" font-size="11" font-weight="bold" lengthAdjust="spacing" textLength="35">ctime</text><text x="53" y="134.414" fill="#FFE797" font-family="sans-serif" font-size="11" lengthAdjust="spacing" textLength="58">: datetime</text><text x="18" y="157.218" fill="#FFE797" font-family="sans-serif" font-size="11" font-weight="bold" lengthAdjust="spacing" textLength="24">age</text><text x="42" y="157.218" fill="#FFE797" font-family="sans-serif" font-size="11" lengthAdjust="spacing" textLength="159">: trafo.duration_to_datetime</text><text x="18" y="180.023" fill="#FFE797" font-family="sans-serif" font-size="11" font-weight="bold" lengthAdjust="spacing" textLength="39">mtime</text><text x="57" y="180.023" fill="#FFE797" font-family="sans-serif" font-size="11" lengthAdjust="spacing" textLength="58">: datetime</text><text x="18" y="202.828" fill="#FFE797" font-family="sans-serif" font-size="11" font-weight="bold" lengthAdjust="spacing" textLength="75">last_update</text><text x="93" y="202.828" fill="#FFE797" font-family="sans-serif" font-size="11" lengthAdjust="spacing" textLength="159">: trafo.duration_to_datetime</text><text x="18" y="225.632" fill="#FFE797" font-family="sans-serif" font-size="11" font-weight="bold" lengthAdjust="spacing" textLength="36">atime</text><text x="54" y="225.632" fill="#FFE797" font-family="sans-serif" font-size="11" lengthAdjust="spacing" textLength="58">: datetime</text><text x="18" y="248.437" fill="#FFE797" font-family="sans-serif" font-size="11" font-weight="bold" lengthAdjust="spacing" textLength="74">last_access</text><text x="92" y="248.437" fill="#FFE797" font-family="sans-serif" font-size="11" lengthAdjust="spacing" textLength="159">: trafo.duration_to_datetime</text><text x="18" y="271.242" fill="#FFE797" font-family="sans-serif" font-size="11" font-weight="bold" lengthAdjust="spacing" textLength="27">kind</text><text x="45" y="271.242" fill="#FFE797" font-family="sans-serif" font-size="11" lengthAdjust="spacing" textLength="41">: string</text><rect id="aws_resource" width="155" height="70.594" x="254.5" y="472" fill="#194875" codeLine="29" rx="2.5" ry="2.5" style="stroke:#000;stroke-width:1.5"/><ellipse cx="269.5" cy="491.894" fill="#1A83AF" rx="11" ry="11" style="stroke:#000;stroke-width:1"/><path fill="#000" d="M272.4688,497.5352 Q271.8906,497.832 271.25,497.9727 Q270.6094,498.1289 269.9063,498.1289 Q267.4063,498.1289 266.0781,496.4883 Q264.7656,494.832 264.7656,491.707 Q264.7656,488.582 266.0781,486.9258 Q267.4063,485.2695 269.9063,485.2695 Q270.6094,485.2695 271.25,485.4258 Q271.9063,485.582 272.4688,485.8789 L272.4688,488.5977 Q271.8438,488.0195 271.25,487.7539 Q270.6563,487.4727 270.0313,487.4727 Q268.6875,487.4727 268,488.5508 Q267.3125,489.6133 267.3125,491.707 Q267.3125,493.8008 268,494.8789 Q268.6875,495.9414 270.0313,495.9414 Q270.6563,495.9414 271.25,495.6758 Q271.8438,495.3945 272.4688,494.8164 L272.4688,497.5352 Z"/><text x="288.5" y="497.78" fill="#FFE797" font-family="Helvetica" font-size="17" lengthAdjust="spacing" textLength="113">aws_resource</text><line style="stroke:#000;stroke-width:1.5" x1="255.5" x2="408.5" y1="511.789" y2="511.789"/><text x="265.5" y="531" fill="#FFE797" font-family="sans-serif" font-size="11" font-weight="bold" lengthAdjust="spacing" textLength="21">arn</text><text x="286.5" y="531" fill="#FFE797" font-family="sans-serif" font-size="11" lengthAdjust="spacing" textLength="41">: string</text><rect id="snapshot" width="168" height="207.422" x="51" y="404" fill="#194875" codeLine="32" rx="2.5" ry="2.5" style="stroke:#000;stroke-width:1.5"/><ellipse cx="88.95" cy="423.894" fill="#1A83AF" rx="11" ry="11" style="stroke:#000;stroke-width:1"/><path fill="#000" d="M91.9188,429.5352 Q91.3406,429.832 90.7,429.9727 Q90.0594,430.1289 89.3563,430.1289 Q86.8563,430.1289 85.5281,428.4883 Q84.2156,426.832 84.2156,423.707 Q84.2156,420.582 85.5281,418.9258 Q86.8563,417.2695 89.3563,417.2695 Q90.0594,417.2695 90.7,417.4258 Q91.3563,417.582 91.9188,417.8789 L91.9188,420.5977 Q91.2938,420.0195 90.7,419.7539 Q90.1063,419.4727 89.4813,419.4727 Q88.1375,419.4727 87.45,420.5508 Q86.7625,421.6133 86.7625,423.707 Q86.7625,425.8008 87.45,426.8789 Q88.1375,427.9414 89.4813,427.9414 Q90.1063,427.9414 90.7,427.6758 Q91.2938,427.3945 91.9188,426.8164 L91.9188,429.5352 Z"/><text x="113.05" y="429.78" fill="#FFE797" font-family="Helvetica" font-size="17" lengthAdjust="spacing" textLength="75">snapshot</text><line style="stroke:#000;stroke-width:1.5" x1="52" x2="218" y1="443.789" y2="443.789"/><text x="62" y="463" fill="#FFE797" font-family="sans-serif" font-size="11" font-weight="bold" lengthAdjust="spacing" textLength="105">snapshot_status</text><text x="167" y="463" fill="#FFE797" font-family="sans-serif" font-size="11" lengthAdjust="spacing" textLength="41">: string</text><text x="62" y="485.804" fill="#FFE797" font-family="sans-serif" font-size="11" font-weight="bold" lengthAdjust="spacing" textLength="72">description</text><text x="134" y="485.804" fill="#FFE797" font-family="sans-serif" font-size="11" lengthAdjust="spacing" textLength="41">: string</text><text x="62" y="508.609" fill="#FFE797" font-family="sans-serif" font-size="11" font-weight="bold" lengthAdjust="spacing" textLength="64">volume_id</text><text x="126" y="508.609" fill="#FFE797" font-family="sans-serif" font-size="11" lengthAdjust="spacing" textLength="41">: string</text><text x="62" y="531.414" fill="#FFE797" font-family="sans-serif" font-size="11" font-weight="bold" lengthAdjust="spacing" textLength="78">volume_size</text><text x="140" y="531.414" fill="#FFE797" font-family="sans-serif" font-size="11" lengthAdjust="spacing" textLength="36">: int64</text><text x="62" y="554.218" fill="#FFE797" font-family="sans-serif" font-size="11" font-weight="bold" lengthAdjust="spacing" textLength="64">encrypted</text><text x="126" y="554.218" fill="#FFE797" font-family="sans-serif" font-size="11" lengthAdjust="spacing" textLength="53">: boolean</text><text x="62" y="577.023" fill="#FFE797" font-family="sans-serif" font-size="11" font-weight="bold" lengthAdjust="spacing" textLength="58">owner_id</text><text x="120" y="577.023" fill="#FFE797" font-family="sans-serif" font-size="11" lengthAdjust="spacing" textLength="41">: string</text><text x="62" y="599.828" fill="#FFE797" font-family="sans-serif" font-size="11" font-weight="bold" lengthAdjust="spacing" textLength="77">owner_alias</text><text x="139" y="599.828" fill="#FFE797" font-family="sans-serif" font-size="11" lengthAdjust="spacing" textLength="41">: string</text><rect id="aws_ec2_snapshot" width="197" height="39.789" x="134.5" y="732" fill="#194875" codeLine="41" rx="2.5" ry="2.5" style="stroke:#000;stroke-width:1.5"/><ellipse cx="149.5" cy="751.894" fill="#1A83AF" rx="11" ry="11" style="stroke:#000;stroke-width:1"/><path fill="#000" d="M152.4688,757.5352 Q151.8906,757.832 151.25,757.9727 Q150.6094,758.1289 149.9063,758.1289 Q147.4063,758.1289 146.0781,756.4883 Q144.7656,754.832 144.7656,751.707 Q144.7656,748.582 146.0781,746.9258 Q147.4063,745.2695 149.9063,745.2695 Q150.6094,745.2695 151.25,745.4258 Q151.9063,745.582 152.4688,745.8789 L152.4688,748.5977 Q151.8438,748.0195 151.25,747.7539 Q150.6563,747.4727 150.0313,747.4727 Q148.6875,747.4727 148,748.5508 Q147.3125,749.6133 147.3125,751.707 Q147.3125,753.8008 148,754.8789 Q148.6875,755.9414 150.0313,755.9414 Q150.6563,755.9414 151.25,755.6758 Q151.8438,755.3945 152.4688,754.8164 L152.4688,757.5352 Z"/><text x="168.5" y="757.78" fill="#FFE797" font-family="Helvetica" font-size="17" lengthAdjust="spacing" textLength="155">aws_ec2_snapshot</text><path id="resource-backto-snapshot" fill="none" d="M135,303.49 C135,337.51 135,372.64 135,403.9" codeLine="44" style="stroke:#ffaf37;stroke-width:2"/><polygon fill="none" points="128 303.06 135 283.06 142 303.06 128 303.06" style="stroke:#ffaf37;stroke-width:2"/><path id="aws_resource-backto-aws_ec2_snapshot" fill="none" d="M310.13,562.07 C288.2,615.78 255.63,695.57 240.83,731.83" codeLine="45" style="stroke:#ffaf37;stroke-width:2"/><polygon fill="none" points="303.78 559.11 317.82 543.24 316.74 564.41 303.78 559.11" style="stroke:#ffaf37;stroke-width:2"/><path id="snapshot-backto-aws_ec2_snapshot" fill="none" d="M184.15,630.11 C200.16,669.75 216.16,709.33 225.29,731.92" codeLine="46" style="stroke:#ffaf37;stroke-width:2"/><polygon fill="none" points="177.56 632.51 176.56 611.34 190.54 627.26 177.56 632.51" style="stroke:#ffaf37;stroke-width:2"/></g></svg>