<svg xmlns="http://www.w3.org/2000/svg" xmlns:xlink="http://www.w3.org/1999/xlink" width="270" height="642" contentScriptType="application/ecmascript" contentStyleType="text/css" style="width:270px;height:642px;background:#00000000" preserveAspectRatio="none" version="1.1" viewBox="0 0 270 642" zoomAndPan="magnify"><g><rect id="region" width="95" height="39.789" x="87.5" y="404" fill="#194875" codeLine="17" rx="2.5" ry="2.5" style="stroke:#000;stroke-width:1.5"/><ellipse cx="102.5" cy="423.894" fill="#1A83AF" rx="11" ry="11" style="stroke:#000;stroke-width:1"/><path fill="#000" d="M105.4688,429.5352 Q104.8906,429.832 104.25,429.9727 Q103.6094,430.1289 102.9063,430.1289 Q100.4063,430.1289 99.0781,428.4883 Q97.7656,426.832 97.7656,423.707 Q97.7656,420.582 99.0781,418.9258 Q100.4063,417.2695 102.9063,417.2695 Q103.6094,417.2695 104.25,417.4258 Q104.9063,417.582 105.4688,417.8789 L105.4688,420.5977 Q104.8438,420.0195 104.25,419.7539 Q103.6563,419.4727 103.0313,419.4727 Q101.6875,419.4727 101,420.5508 Q100.3125,421.6133 100.3125,423.707 Q100.3125,425.8008 101,426.8789 Q101.6875,427.9414 103.0313,427.9414 Q103.6563,427.9414 104.25,427.6758 Q104.8438,427.3945 105.4688,426.8164 L105.4688,429.5352 Z"/><text x="121.5" y="429.78" fill="#FFE797" font-family="Helvetica" font-size="17" lengthAdjust="spacing" textLength="53">region</text><rect id="resource" width="256" height="275.836" x="7" y="7" fill="#194875" codeLine="20" rx="2.5" ry="2.5" style="stroke:#000;stroke-width:1.5"/><ellipse cx="90.25" cy="26.895" fill="#1A83AF" rx="11" ry="11" style="stroke:#000;stroke-width:1"/><path fill="#000" d="M93.2188,32.5352 Q92.6406,32.832 92,32.9727 Q91.3594,33.1289 90.6563,33.1289 Q88.1563,33.1289 86.8281,31.4883 Q85.5156,29.832 85.5156,26.707 Q85.5156,23.582 86.8281,21.9258 Q88.1563,20.2695 90.6563,20.2695 Q91.3594,20.2695 92,20.4258 Q92.6563,20.582 93.2188,20.8789 L93.2188,23.5977 Q92.5938,23.0195 92,22.7539 Q91.4063,22.4727 90.7813,22.4727 Q89.4375,22.4727 88.75,23.5508 Q88.0625,24.6133 88.0625,26.707 Q88.0625,28.8008 88.75,29.8789 Q89.4375,30.9414 90.7813,30.9414 Q91.4063,30.9414 92,30.6758 Q92.5938,30.3945 93.2188,29.8164 L93.2188,32.5352 Z"/><text x="115.75" y="32.78" fill="#FFE797" font-family="Helvetica" font-size="17" lengthAdjust="spacing" textLength="71">resource</text><line style="stroke:#000;stroke-width:1.5" x1="8" x2="262" y1="46.789" y2="46.789"/><text x="18" y="65.999" fill="#FFE797" font-family="sans-serif" font-size="11" font-weight="bold" lengthAdjust="spacing" textLength="12">id</text><text x="30" y="65.999" fill="#FFE797" font-family="sans-serif" font-size="11" lengthAdjust="spacing" textLength="41">: string</text><text x="18" y="88.804" fill="#FFE797" font-family="sans-serif" font-size="11" font-weight="bold" lengthAdjust="spacing" textLength="28">tags</text><text x="46" y="88.804" fill="#FFE797" font-family="sans-serif" font-size="11" lengthAdjust="spacing" textLength="145">: dictionary[string, string]</text><text x="18" y="111.609" fill="#FFE797" font-family="sans-serif" font-size="11" font-weight="bold" lengthAdjust="spacing" textLength="35">name</text><text x="53" y="111.609" fill="#FFE797" font-family="sans-serif" font-size="11" lengthAdjust="spacing" textLength="41">: string</text><text x="18" y="134.414" fill="#FFE797" font-family="sans-serif" font-size="11" font-weight="bold" lengthAdjust="spacing" textLength="35">ctime</text><text x="53" y="134.414" fill="#FFE797" font-family="sans-serif" font-size="11" lengthAdjust="spacing" textLength="58">: datetime</text><text x="18" y="157.218" fill="#FFE797" font-family="sans-serif" font-size="11" font-weight="bold" lengthAdjust="spacing" textLength="24">age</text><text x="42" y="157.218" fill="#FFE797" font-family="sans-serif" font-size="11" lengthAdjust="spacing" textLength="159">: trafo.duration_to_datetime</text><text x="18" y="180.023" fill="#FFE797" font-family="sans-serif" font-size="11" font-weight="bold" lengthAdjust="spacing" textLength="39">mtime</text><text x="57" y="180.023" fill="#FFE797" font-family="sans-serif" font-size="11" lengthAdjust="spacing" textLength="58">: datetime</text><text x="18" y="202.828" fill="#FFE797" font-family="sans-serif" font-size="11" font-weight="bold" lengthAdjust="spacing" textLength="75">last_update</text><text x="93" y="202.828" fill="#FFE797" font-family="sans-serif" font-size="11" lengthAdjust="spacing" textLength="159">: trafo.duration_to_datetime</text><text x="18" y="225.632" fill="#FFE797" font-family="sans-serif" font-size="11" font-weight="bold" lengthAdjust="spacing" textLength="36">atime</text><text x="54" y="225.632" fill="#FFE797" font-family="sans-serif" font-size="11" lengthAdjust="spacing" textLength="58">: datetime</text><text x="18" y="248.437" fill="#FFE797" font-family="sans-serif" font-size="11" font-weight="bold" lengthAdjust="spacing" textLength="74">last_access</text><text x="92" y="248.437" fill="#FFE797" font-family="sans-serif" font-size="11" lengthAdjust="spacing" textLength="159">: trafo.duration_to_datetime</text><text x="18" y="271.242" fill="#FFE797" font-family="sans-serif" font-size="11" font-weight="bold" lengthAdjust="spacing" textLength="27">kind</text><text x="45" y="271.242" fill="#FFE797" font-family="sans-serif" font-size="11" lengthAdjust="spacing" textLength="41">: string</text><rect id="aws_region" width="137" height="70.594" x="66.5" y="565" fill="#194875" codeLine="32" rx="2.5" ry="2.5" style="stroke:#000;stroke-width:1.5"/><ellipse cx="81.5" cy="584.894" fill="#1A83AF" rx="11" ry="11" style="stroke:#000;stroke-width:1"/><path fill="#000" d="M84.4688,590.5352 Q83.8906,590.832 83.25,590.9727 Q82.6094,591.1289 81.9063,591.1289 Q79.4063,591.1289 78.0781,589.4883 Q76.7656,587.832 76.7656,584.707 Q76.7656,581.582 78.0781,579.9258 Q79.4063,578.2695 81.9063,578.2695 Q82.6094,578.2695 83.25,578.4258 Q83.9063,578.582 84.4688,578.8789 L84.4688,581.5977 Q83.8438,581.0195 83.25,580.7539 Q82.6563,580.4727 82.0313,580.4727 Q80.6875,580.4727 80,581.5508 Q79.3125,582.6133 79.3125,584.707 Q79.3125,586.8008 80,587.8789 Q80.6875,588.9414 82.0313,588.9414 Q82.6563,588.9414 83.25,588.6758 Q83.8438,588.3945 84.4688,587.8164 L84.4688,590.5352 Z"/><text x="100.5" y="590.78" fill="#FFE797" font-family="Helvetica" font-size="17" lengthAdjust="spacing" textLength="95">aws_region</text><line style="stroke:#000;stroke-width:1.5" x1="67.5" x2="202.5" y1="604.789" y2="604.789"/><text x="77.5" y="624" fill="#FFE797" font-family="sans-serif" font-size="11" font-weight="bold" lengthAdjust="spacing" textLength="35">ctime</text><text x="112.5" y="624" fill="#FFE797" font-family="sans-serif" font-size="11" lengthAdjust="spacing" textLength="58">: datetime</text><path id="resource-backto-region" fill="none" d="M135,303.48 C135,343.73 135,381.81 135,403.75" codeLine="35" style="stroke:#ffaf37;stroke-width:2"/><polygon fill="none" points="128 303.28 135 283.28 142 303.28 128 303.28" style="stroke:#ffaf37;stroke-width:2"/><path id="region-backto-aws_region" fill="none" d="M135,464.14 C135,494.39 135,535.87 135,564.91" codeLine="36" style="stroke:#ffaf37;stroke-width:2"/><polygon fill="none" points="128 464.01 135 444.01 142 464.01 128 464.01" style="stroke:#ffaf37;stroke-width:2"/></g></svg>