<svg xmlns="http://www.w3.org/2000/svg" xmlns:xlink="http://www.w3.org/1999/xlink" width="389" height="641" contentScriptType="application/ecmascript" contentStyleType="text/css" style="width:389px;height:641px;background:#00000000" preserveAspectRatio="none" version="1.1" viewBox="0 0 389 641" zoomAndPan="magnify"><g><rect id="resource" width="256" height="275.836" x="7" y="7" fill="#194875" codeLine="17" rx="2.5" ry="2.5" style="stroke:#000;stroke-width:1.5"/><ellipse cx="90.25" cy="26.895" fill="#1A83AF" rx="11" ry="11" style="stroke:#000;stroke-width:1"/><path fill="#000" d="M93.2188,32.5352 Q92.6406,32.832 92,32.9727 Q91.3594,33.1289 90.6563,33.1289 Q88.1563,33.1289 86.8281,31.4883 Q85.5156,29.832 85.5156,26.707 Q85.5156,23.582 86.8281,21.9258 Q88.1563,20.2695 90.6563,20.2695 Q91.3594,20.2695 92,20.4258 Q92.6563,20.582 93.2188,20.8789 L93.2188,23.5977 Q92.5938,23.0195 92,22.7539 Q91.4063,22.4727 90.7813,22.4727 Q89.4375,22.4727 88.75,23.5508 Q88.0625,24.6133 88.0625,26.707 Q88.0625,28.8008 88.75,29.8789 Q89.4375,30.9414 90.7813,30.9414 Q91.4063,30.9414 92,30.6758 Q92.5938,30.3945 93.2188,29.8164 L93.2188,32.5352 Z"/><text x="115.75" y="32.78" fill="#FFE797" font-family="Helvetica" font-size="17" lengthAdjust="spacing" textLength="71">resource</text><line style="stroke:#000;stroke-width:1.5" x1="8" x2="262" y1="46.789" y2="46.789"/><text x="18" y="65.999" fill="#FFE797" font-family="sans-serif" font-size="11" font-weight="bold" lengthAdjust="spacing" textLength="12">id</text><text x="30" y="65.999" fill="#FFE797" font-family="sans-serif" font-size="11" lengthAdjust="spacing" textLength="41">: string</text><text x="18" y="88.804" fill="#FFE797" font-family="sans-serif" font-size="11" font-weight="bold" lengthAdjust="spacing" textLength="28">tags</text><text x="46" y="88.804" fill="#FFE797" font-family="sans-serif" font-size="11" lengthAdjust="spacing" textLength="145">: dictionary[string, string]</text><text x="18" y="111.609" fill="#FFE797" font-family="sans-serif" font-size="11" font-weight="bold" lengthAdjust="spacing" textLength="35">name</text><text x="53" y="111.609" fill="#FFE797" font-family="sans-serif" font-size="11" lengthAdjust="spacing" textLength="41">: string</text><text x="18" y="134.414" fill="#FFE797" font-family="sans-serif" font-size="11" font-weight="bold" lengthAdjust="spacing" textLength="35">ctime</text><text x="53" y="134.414" fill="#FFE797" font-family="sans-serif" font-size="11" lengthAdjust="spacing" textLength="58">: datetime</text><text x="18" y="157.218" fill="#FFE797" font-family="sans-serif" font-size="11" font-weight="bold" lengthAdjust="spacing" textLength="24">age</text><text x="42" y="157.218" fill="#FFE797" font-family="sans-serif" font-size="11" lengthAdjust="spacing" textLength="159">: trafo.duration_to_datetime</text><text x="18" y="180.023" fill="#FFE797" font-family="sans-serif" font-size="11" font-weight="bold" lengthAdjust="spacing" textLength="39">mtime</text><text x="57" y="180.023" fill="#FFE797" font-family="sans-serif" font-size="11" lengthAdjust="spacing" textLength="58">: datetime</text><text x="18" y="202.828" fill="#FFE797" font-family="sans-serif" font-size="11" font-weight="bold" lengthAdjust="spacing" textLength="75">last_update</text><text x="93" y="202.828" fill="#FFE797" font-family="sans-serif" font-size="11" lengthAdjust="spacing" textLength="159">: trafo.duration_to_datetime</text><text x="18" y="225.632" fill="#FFE797" font-family="sans-serif" font-size="11" font-weight="bold" lengthAdjust="spacing" textLength="36">atime</text><text x="54" y="225.632" fill="#FFE797" font-family="sans-serif" font-size="11" lengthAdjust="spacing" textLength="58">: datetime</text><text x="18" y="248.437" fill="#FFE797" font-family="sans-serif" font-size="11" font-weight="bold" lengthAdjust="spacing" textLength="74">last_access</text><text x="92" y="248.437" fill="#FFE797" font-family="sans-serif" font-size="11" lengthAdjust="spacing" textLength="159">: trafo.duration_to_datetime</text><text x="18" y="271.242" fill="#FFE797" font-family="sans-serif" font-size="11" font-weight="bold" lengthAdjust="spacing" textLength="27">kind</text><text x="45" y="271.242" fill="#FFE797" font-family="sans-serif" font-size="11" lengthAdjust="spacing" textLength="41">: string</text><rect id="aws_resource" width="155" height="70.594" x="227.5" y="404" fill="#194875" codeLine="29" rx="2.5" ry="2.5" style="stroke:#000;stroke-width:1.5"/><ellipse cx="242.5" cy="423.894" fill="#1A83AF" rx="11" ry="11" style="stroke:#000;stroke-width:1"/><path fill="#000" d="M245.4688,429.5352 Q244.8906,429.832 244.25,429.9727 Q243.6094,430.1289 242.9063,430.1289 Q240.4063,430.1289 239.0781,428.4883 Q237.7656,426.832 237.7656,423.707 Q237.7656,420.582 239.0781,418.9258 Q240.4063,417.2695 242.9063,417.2695 Q243.6094,417.2695 244.25,417.4258 Q244.9063,417.582 245.4688,417.8789 L245.4688,420.5977 Q244.8438,420.0195 244.25,419.7539 Q243.6563,419.4727 243.0313,419.4727 Q241.6875,419.4727 241,420.5508 Q240.3125,421.6133 240.3125,423.707 Q240.3125,425.8008 241,426.8789 Q241.6875,427.9414 243.0313,427.9414 Q243.6563,427.9414 244.25,427.6758 Q244.8438,427.3945 245.4688,426.8164 L245.4688,429.5352 Z"/><text x="261.5" y="429.78" fill="#FFE797" font-family="Helvetica" font-size="17" lengthAdjust="spacing" textLength="113">aws_resource</text><line style="stroke:#000;stroke-width:1.5" x1="228.5" x2="381.5" y1="443.789" y2="443.789"/><text x="238.5" y="463" fill="#FFE797" font-family="sans-serif" font-size="11" font-weight="bold" lengthAdjust="spacing" textLength="21">arn</text><text x="259.5" y="463" fill="#FFE797" font-family="sans-serif" font-size="11" lengthAdjust="spacing" textLength="41">: string</text><rect id="gateway" width="114" height="39.789" x="78" y="419.5" fill="#194875" codeLine="32" rx="2.5" ry="2.5" style="stroke:#000;stroke-width:1.5"/><ellipse cx="93" cy="439.394" fill="#1A83AF" rx="11" ry="11" style="stroke:#000;stroke-width:1"/><path fill="#000" d="M95.9688,445.0352 Q95.3906,445.332 94.75,445.4727 Q94.1094,445.6289 93.4063,445.6289 Q90.9063,445.6289 89.5781,443.9883 Q88.2656,442.332 88.2656,439.207 Q88.2656,436.082 89.5781,434.4258 Q90.9063,432.7695 93.4063,432.7695 Q94.1094,432.7695 94.75,432.9258 Q95.4063,433.082 95.9688,433.3789 L95.9688,436.0977 Q95.3438,435.5195 94.75,435.2539 Q94.1563,434.9727 93.5313,434.9727 Q92.1875,434.9727 91.5,436.0508 Q90.8125,437.1133 90.8125,439.207 Q90.8125,441.3008 91.5,442.3789 Q92.1875,443.4414 93.5313,443.4414 Q94.1563,443.4414 94.75,443.1758 Q95.3438,442.8945 95.9688,442.3164 L95.9688,445.0352 Z"/><text x="112" y="445.28" fill="#FFE797" font-family="Helvetica" font-size="17" lengthAdjust="spacing" textLength="72">gateway</text><rect id="aws_ec2_internet_gateway" width="271" height="39.789" x="84.5" y="596" fill="#194875" codeLine="35" rx="2.5" ry="2.5" style="stroke:#000;stroke-width:1.5"/><ellipse cx="99.5" cy="615.894" fill="#1A83AF" rx="11" ry="11" style="stroke:#000;stroke-width:1"/><path fill="#000" d="M102.4688,621.5352 Q101.8906,621.832 101.25,621.9727 Q100.6094,622.1289 99.9063,622.1289 Q97.4063,622.1289 96.0781,620.4883 Q94.7656,618.832 94.7656,615.707 Q94.7656,612.582 96.0781,610.9258 Q97.4063,609.2695 99.9063,609.2695 Q100.6094,609.2695 101.25,609.4258 Q101.9063,609.582 102.4688,609.8789 L102.4688,612.5977 Q101.8438,612.0195 101.25,611.7539 Q100.6563,611.4727 100.0313,611.4727 Q98.6875,611.4727 98,612.5508 Q97.3125,613.6133 97.3125,615.707 Q97.3125,617.8008 98,618.8789 Q98.6875,619.9414 100.0313,619.9414 Q100.6563,619.9414 101.25,619.6758 Q101.8438,619.3945 102.4688,618.8164 L102.4688,621.5352 Z"/><text x="118.5" y="621.78" fill="#FFE797" font-family="Helvetica" font-size="17" lengthAdjust="spacing" textLength="229">aws_ec2_internet_gateway</text><path id="resource-backto-gateway" fill="none" d="M135,303.51 C135,349.86 135,394.69 135,419.24" codeLine="38" style="stroke:#ffaf37;stroke-width:2"/><polygon fill="none" points="128 303.26 135 283.26 142 303.26 128 303.26" style="stroke:#ffaf37;stroke-width:2"/><path id="aws_resource-backto-aws_ec2_internet_gateway" fill="none" d="M279.14,493.59 C262.27,528.23 241.23,571.41 229.34,595.82" codeLine="39" style="stroke:#ffaf37;stroke-width:2"/><polygon fill="none" points="272.95 490.31 288 475.39 285.54 496.44 272.95 490.31" style="stroke:#ffaf37;stroke-width:2"/><path id="gateway-backto-aws_ec2_internet_gateway" fill="none" d="M153.04,477.54 C170.66,513.72 196.79,567.36 210.62,595.75" codeLine="40" style="stroke:#ffaf37;stroke-width:2"/><polygon fill="none" points="146.72 480.55 144.26 459.51 159.31 474.42 146.72 480.55" style="stroke:#ffaf37;stroke-width:2"/></g></svg>