<svg xmlns="http://www.w3.org/2000/svg" xmlns:xlink="http://www.w3.org/1999/xlink" width="439" height="1039" contentScriptType="application/ecmascript" contentStyleType="text/css" style="width:439px;height:1039px;background:#00000000" preserveAspectRatio="none" version="1.1" viewBox="0 0 439 1039" zoomAndPan="magnify"><g><rect id="phantom_resource" width="198" height="39.789" x="205.5" y="404" fill="#194875" codeLine="17" rx="2.5" ry="2.5" style="stroke:#000;stroke-width:1.5"/><ellipse cx="220.5" cy="423.894" fill="#1A83AF" rx="11" ry="11" style="stroke:#000;stroke-width:1"/><path fill="#000" d="M223.4688,429.5352 Q222.8906,429.832 222.25,429.9727 Q221.6094,430.1289 220.9063,430.1289 Q218.4063,430.1289 217.0781,428.4883 Q215.7656,426.832 215.7656,423.707 Q215.7656,420.582 217.0781,418.9258 Q218.4063,417.2695 220.9063,417.2695 Q221.6094,417.2695 222.25,417.4258 Q222.9063,417.582 223.4688,417.8789 L223.4688,420.5977 Q222.8438,420.0195 222.25,419.7539 Q221.6563,419.4727 221.0313,419.4727 Q219.6875,419.4727 219,420.5508 Q218.3125,421.6133 218.3125,423.707 Q218.3125,425.8008 219,426.8789 Q219.6875,427.9414 221.0313,427.9414 Q221.6563,427.9414 222.25,427.6758 Q222.8438,427.3945 223.4688,426.8164 L223.4688,429.5352 Z"/><text x="239.5" y="429.78" fill="#FFE797" font-family="Helvetica" font-size="17" lengthAdjust="spacing" textLength="156">phantom_resource</text><rect id="resource" width="256" height="275.836" x="176.5" y="7" fill="#194875" codeLine="20" rx="2.5" ry="2.5" style="stroke:#000;stroke-width:1.5"/><ellipse cx="259.75" cy="26.895" fill="#1A83AF" rx="11" ry="11" style="stroke:#000;stroke-width:1"/><path fill="#000" d="M262.7188,32.5352 Q262.1406,32.832 261.5,32.9727 Q260.8594,33.1289 260.1563,33.1289 Q257.6563,33.1289 256.3281,31.4883 Q255.0156,29.832 255.0156,26.707 Q255.0156,23.582 256.3281,21.9258 Q257.6563,20.2695 260.1563,20.2695 Q260.8594,20.2695 261.5,20.4258 Q262.1563,20.582 262.7188,20.8789 L262.7188,23.5977 Q262.0938,23.0195 261.5,22.7539 Q260.9063,22.4727 260.2813,22.4727 Q258.9375,22.4727 258.25,23.5508 Q257.5625,24.6133 257.5625,26.707 Q257.5625,28.8008 258.25,29.8789 Q258.9375,30.9414 260.2813,30.9414 Q260.9063,30.9414 261.5,30.6758 Q262.0938,30.3945 262.7188,29.8164 L262.7188,32.5352 Z"/><text x="285.25" y="32.78" fill="#FFE797" font-family="Helvetica" font-size="17" lengthAdjust="spacing" textLength="71">resource</text><line style="stroke:#000;stroke-width:1.5" x1="177.5" x2="431.5" y1="46.789" y2="46.789"/><text x="187.5" y="65.999" fill="#FFE797" font-family="sans-serif" font-size="11" font-weight="bold" lengthAdjust="spacing" textLength="12">id</text><text x="199.5" y="65.999" fill="#FFE797" font-family="sans-serif" font-size="11" lengthAdjust="spacing" textLength="41">: string</text><text x="187.5" y="88.804" fill="#FFE797" font-family="sans-serif" font-size="11" font-weight="bold" lengthAdjust="spacing" textLength="28">tags</text><text x="215.5" y="88.804" fill="#FFE797" font-family="sans-serif" font-size="11" lengthAdjust="spacing" textLength="145">: dictionary[string, string]</text><text x="187.5" y="111.609" fill="#FFE797" font-family="sans-serif" font-size="11" font-weight="bold" lengthAdjust="spacing" textLength="35">name</text><text x="222.5" y="111.609" fill="#FFE797" font-family="sans-serif" font-size="11" lengthAdjust="spacing" textLength="41">: string</text><text x="187.5" y="134.414" fill="#FFE797" font-family="sans-serif" font-size="11" font-weight="bold" lengthAdjust="spacing" textLength="35">ctime</text><text x="222.5" y="134.414" fill="#FFE797" font-family="sans-serif" font-size="11" lengthAdjust="spacing" textLength="58">: datetime</text><text x="187.5" y="157.218" fill="#FFE797" font-family="sans-serif" font-size="11" font-weight="bold" lengthAdjust="spacing" textLength="24">age</text><text x="211.5" y="157.218" fill="#FFE797" font-family="sans-serif" font-size="11" lengthAdjust="spacing" textLength="159">: trafo.duration_to_datetime</text><text x="187.5" y="180.023" fill="#FFE797" font-family="sans-serif" font-size="11" font-weight="bold" lengthAdjust="spacing" textLength="39">mtime</text><text x="226.5" y="180.023" fill="#FFE797" font-family="sans-serif" font-size="11" lengthAdjust="spacing" textLength="58">: datetime</text><text x="187.5" y="202.828" fill="#FFE797" font-family="sans-serif" font-size="11" font-weight="bold" lengthAdjust="spacing" textLength="75">last_update</text><text x="262.5" y="202.828" fill="#FFE797" font-family="sans-serif" font-size="11" lengthAdjust="spacing" textLength="159">: trafo.duration_to_datetime</text><text x="187.5" y="225.632" fill="#FFE797" font-family="sans-serif" font-size="11" font-weight="bold" lengthAdjust="spacing" textLength="36">atime</text><text x="223.5" y="225.632" fill="#FFE797" font-family="sans-serif" font-size="11" lengthAdjust="spacing" textLength="58">: datetime</text><text x="187.5" y="248.437" fill="#FFE797" font-family="sans-serif" font-size="11" font-weight="bold" lengthAdjust="spacing" textLength="74">last_access</text><text x="261.5" y="248.437" fill="#FFE797" font-family="sans-serif" font-size="11" lengthAdjust="spacing" textLength="159">: trafo.duration_to_datetime</text><text x="187.5" y="271.242" fill="#FFE797" font-family="sans-serif" font-size="11" font-weight="bold" lengthAdjust="spacing" textLength="27">kind</text><text x="214.5" y="271.242" fill="#FFE797" font-family="sans-serif" font-size="11" lengthAdjust="spacing" textLength="41">: string</text><rect id="aws_resource" width="155" height="70.594" x="7" y="802" fill="#194875" codeLine="32" rx="2.5" ry="2.5" style="stroke:#000;stroke-width:1.5"/><ellipse cx="22" cy="821.894" fill="#1A83AF" rx="11" ry="11" style="stroke:#000;stroke-width:1"/><path fill="#000" d="M24.9688,827.5352 Q24.3906,827.832 23.75,827.9727 Q23.1094,828.1289 22.4063,828.1289 Q19.9063,828.1289 18.5781,826.4883 Q17.2656,824.832 17.2656,821.707 Q17.2656,818.582 18.5781,816.9258 Q19.9063,815.2695 22.4063,815.2695 Q23.1094,815.2695 23.75,815.4258 Q24.4063,815.582 24.9688,815.8789 L24.9688,818.5977 Q24.3438,818.0195 23.75,817.7539 Q23.1563,817.4727 22.5313,817.4727 Q21.1875,817.4727 20.5,818.5508 Q19.8125,819.6133 19.8125,821.707 Q19.8125,823.8008 20.5,824.8789 Q21.1875,825.9414 22.5313,825.9414 Q23.1563,825.9414 23.75,825.6758 Q24.3438,825.3945 24.9688,824.8164 L24.9688,827.5352 Z"/><text x="41" y="827.78" fill="#FFE797" font-family="Helvetica" font-size="17" lengthAdjust="spacing" textLength="113">aws_resource</text><line style="stroke:#000;stroke-width:1.5" x1="8" x2="161" y1="841.789" y2="841.789"/><text x="18" y="861" fill="#FFE797" font-family="sans-serif" font-size="11" font-weight="bold" lengthAdjust="spacing" textLength="21">arn</text><text x="39" y="861" fill="#FFE797" font-family="sans-serif" font-size="11" lengthAdjust="spacing" textLength="41">: string</text><rect id="load_balancer_quota" width="214" height="39.789" x="197.5" y="817.5" fill="#194875" codeLine="35" rx="2.5" ry="2.5" style="stroke:#000;stroke-width:1.5"/><ellipse cx="212.5" cy="837.394" fill="#1A83AF" rx="11" ry="11" style="stroke:#000;stroke-width:1"/><path fill="#000" d="M215.4688,843.0352 Q214.8906,843.332 214.25,843.4727 Q213.6094,843.6289 212.9063,843.6289 Q210.4063,843.6289 209.0781,841.9883 Q207.7656,840.332 207.7656,837.207 Q207.7656,834.082 209.0781,832.4258 Q210.4063,830.7695 212.9063,830.7695 Q213.6094,830.7695 214.25,830.9258 Q214.9063,831.082 215.4688,831.3789 L215.4688,834.0977 Q214.8438,833.5195 214.25,833.2539 Q213.6563,832.9727 213.0313,832.9727 Q211.6875,832.9727 211,834.0508 Q210.3125,835.1133 210.3125,837.207 Q210.3125,839.3008 211,840.3789 Q211.6875,841.4414 213.0313,841.4414 Q213.6563,841.4414 214.25,841.1758 Q214.8438,840.8945 215.4688,840.3164 L215.4688,843.0352 Z"/><text x="231.5" y="843.28" fill="#FFE797" font-family="Helvetica" font-size="17" lengthAdjust="spacing" textLength="172">load_balancer_quota</text><rect id="quota" width="134" height="116.203" x="237.5" y="565" fill="#194875" codeLine="38" rx="2.5" ry="2.5" style="stroke:#000;stroke-width:1.5"/><ellipse cx="272.3" cy="584.894" fill="#1A83AF" rx="11" ry="11" style="stroke:#000;stroke-width:1"/><path fill="#000" d="M275.2688,590.5352 Q274.6906,590.832 274.05,590.9727 Q273.4094,591.1289 272.7063,591.1289 Q270.2063,591.1289 268.8781,589.4883 Q267.5656,587.832 267.5656,584.707 Q267.5656,581.582 268.8781,579.9258 Q270.2063,578.2695 272.7063,578.2695 Q273.4094,578.2695 274.05,578.4258 Q274.7063,578.582 275.2688,578.8789 L275.2688,581.5977 Q274.6438,581.0195 274.05,580.7539 Q273.4563,580.4727 272.8313,580.4727 Q271.4875,580.4727 270.8,581.5508 Q270.1125,582.6133 270.1125,584.707 Q270.1125,586.8008 270.8,587.8789 Q271.4875,588.9414 272.8313,588.9414 Q273.4563,588.9414 274.05,588.6758 Q274.6438,588.3945 275.2688,587.8164 L275.2688,590.5352 Z"/><text x="295.7" y="590.78" fill="#FFE797" font-family="Helvetica" font-size="17" lengthAdjust="spacing" textLength="48">quota</text><line style="stroke:#000;stroke-width:1.5" x1="238.5" x2="370.5" y1="604.789" y2="604.789"/><text x="248.5" y="624" fill="#FFE797" font-family="sans-serif" font-size="11" font-weight="bold" lengthAdjust="spacing" textLength="37">quota</text><text x="285.5" y="624" fill="#FFE797" font-family="sans-serif" font-size="11" lengthAdjust="spacing" textLength="46">: double</text><text x="248.5" y="646.804" fill="#FFE797" font-family="sans-serif" font-size="11" font-weight="bold" lengthAdjust="spacing" textLength="39">usage</text><text x="287.5" y="646.804" fill="#FFE797" font-family="sans-serif" font-size="11" lengthAdjust="spacing" textLength="46">: double</text><text x="248.5" y="669.609" fill="#FFE797" font-family="sans-serif" font-size="11" font-weight="bold" lengthAdjust="spacing" textLength="71">quota_type</text><text x="319.5" y="669.609" fill="#FFE797" font-family="sans-serif" font-size="11" lengthAdjust="spacing" textLength="41">: string</text><rect id="aws_elb_quota" width="166" height="39.789" x="36.5" y="994" fill="#194875" codeLine="43" rx="2.5" ry="2.5" style="stroke:#000;stroke-width:1.5"/><ellipse cx="51.5" cy="1013.894" fill="#1A83AF" rx="11" ry="11" style="stroke:#000;stroke-width:1"/><path fill="#000" d="M54.4688,1019.5352 Q53.8906,1019.832 53.25,1019.9727 Q52.6094,1020.1289 51.9063,1020.1289 Q49.4063,1020.1289 48.0781,1018.4883 Q46.7656,1016.832 46.7656,1013.707 Q46.7656,1010.582 48.0781,1008.9258 Q49.4063,1007.2695 51.9063,1007.2695 Q52.6094,1007.2695 53.25,1007.4258 Q53.9063,1007.582 54.4688,1007.8789 L54.4688,1010.5977 Q53.8438,1010.0195 53.25,1009.7539 Q52.6563,1009.4727 52.0313,1009.4727 Q50.6875,1009.4727 50,1010.5508 Q49.3125,1011.6133 49.3125,1013.707 Q49.3125,1015.8008 50,1016.8789 Q50.6875,1017.9414 52.0313,1017.9414 Q52.6563,1017.9414 53.25,1017.6758 Q53.8438,1017.3945 54.4688,1016.8164 L54.4688,1019.5352 Z"/><text x="70.5" y="1019.78" fill="#FFE797" font-family="Helvetica" font-size="17" lengthAdjust="spacing" textLength="124">aws_elb_quota</text><path id="resource-backto-phantom_resource" fill="none" d="M304.5,303.48 C304.5,343.73 304.5,381.81 304.5,403.75" codeLine="46" style="stroke:#ffaf37;stroke-width:2"/><polygon fill="none" points="297.5 303.28 304.5 283.28 311.5 303.28 297.5 303.28" style="stroke:#ffaf37;stroke-width:2"/><path id="quota-backto-load_balancer_quota" fill="none" d="M304.5,701.37 C304.5,743.08 304.5,791.22 304.5,817.3" codeLine="47" style="stroke:#ffaf37;stroke-width:2"/><polygon fill="none" points="297.5 701.23 304.5 681.23 311.5 701.23 297.5 701.23" style="stroke:#ffaf37;stroke-width:2"/><path id="phantom_resource-backto-quota" fill="none" d="M304.5,464.28 C304.5,493.07 304.5,532.58 304.5,564.86" codeLine="48" style="stroke:#ffaf37;stroke-width:2"/><polygon fill="none" points="297.5 464.25 304.5 444.25 311.5 464.25 297.5 464.25" style="stroke:#ffaf37;stroke-width:2"/><path id="aws_resource-backto-aws_elb_quota" fill="none" d="M95.44,893.04 C102.34,927.43 110.82,969.75 115.65,993.82" codeLine="49" style="stroke:#ffaf37;stroke-width:2"/><polygon fill="none" points="88.57 894.38 91.5 873.39 102.3 891.63 88.57 894.38" style="stroke:#ffaf37;stroke-width:2"/><path id="load_balancer_quota-backto-aws_elb_quota" fill="none" d="M269.67,871.35 C231.39,907.46 171.19,964.24 139.91,993.75" codeLine="50" style="stroke:#ffaf37;stroke-width:2"/><polygon fill="none" points="265 866.14 284.35 857.51 274.6 876.32 265 866.14" style="stroke:#ffaf37;stroke-width:2"/></g></svg>