<svg xmlns="http://www.w3.org/2000/svg" xmlns:xlink="http://www.w3.org/1999/xlink" width="373" height="924" contentScriptType="application/ecmascript" contentStyleType="text/css" style="width:373px;height:924px;background:#00000000" preserveAspectRatio="none" version="1.1" viewBox="0 0 373 924" zoomAndPan="magnify"><defs><filter id="fjnc0hlib2zxc" width="300%" height="300%" x="-1" y="-1"><feGaussianBlur result="blurOut" stdDeviation="2"/><feColorMatrix in="blurOut" result="blurOut2" type="matrix" values="0 0 0 0 0 0 0 0 0 0 0 0 0 0 0 0 0 0 .4 0"/><feOffset dx="4" dy="4" in="blurOut2" result="blurOut3"/><feBlend in="SourceGraphic" in2="blurOut3" mode="normal"/></filter></defs><g><rect id="phantom_resource" width="150" height="48" x="158" y="304" fill="#FEFECE" codeLine="2" filter="url(#fjnc0hlib2zxc)" style="stroke:#a80036;stroke-width:1.5"/><ellipse cx="173" cy="320" fill="#ADD1B2" rx="11" ry="11" style="stroke:#a80036;stroke-width:1"/><path fill="#000" d="M175.9688,325.6406 Q175.3906,325.9375 174.75,326.0781 Q174.1094,326.2344 173.4063,326.2344 Q170.9063,326.2344 169.5781,324.5938 Q168.2656,322.9375 168.2656,319.8125 Q168.2656,316.6875 169.5781,315.0313 Q170.9063,313.375 173.4063,313.375 Q174.1094,313.375 174.75,313.5313 Q175.4063,313.6875 175.9688,313.9844 L175.9688,316.7031 Q175.3438,316.125 174.75,315.8594 Q174.1563,315.5781 173.5313,315.5781 Q172.1875,315.5781 171.5,316.6563 Q170.8125,317.7188 170.8125,319.8125 Q170.8125,321.9063 171.5,322.9844 Q172.1875,324.0469 173.5313,324.0469 Q174.1563,324.0469 174.75,323.7813 Q175.3438,323.5 175.9688,322.9219 L175.9688,325.6406 Z"/><text x="187" y="324.154" fill="#000" font-family="sans-serif" font-size="12" lengthAdjust="spacing" textLength="118">phantom_resource</text><line style="stroke:#a80036;stroke-width:1.5" x1="159" x2="307" y1="336" y2="336"/><line style="stroke:#a80036;stroke-width:1.5" x1="159" x2="307" y1="344" y2="344"/><rect id="resource" width="252" height="176.047" x="107" y="7" fill="#FEFECE" codeLine="5" filter="url(#fjnc0hlib2zxc)" style="stroke:#a80036;stroke-width:1.5"/><ellipse cx="200.75" cy="23" fill="#ADD1B2" rx="11" ry="11" style="stroke:#a80036;stroke-width:1"/><path fill="#000" d="M203.7188,28.6406 Q203.1406,28.9375 202.5,29.0781 Q201.8594,29.2344 201.1563,29.2344 Q198.6563,29.2344 197.3281,27.5938 Q196.0156,25.9375 196.0156,22.8125 Q196.0156,19.6875 197.3281,18.0313 Q198.6563,16.375 201.1563,16.375 Q201.8594,16.375 202.5,16.5313 Q203.1563,16.6875 203.7188,16.9844 L203.7188,19.7031 Q203.0938,19.125 202.5,18.8594 Q201.9063,18.5781 201.2813,18.5781 Q199.9375,18.5781 199.25,19.6563 Q198.5625,20.7188 198.5625,22.8125 Q198.5625,24.9063 199.25,25.9844 Q199.9375,27.0469 201.2813,27.0469 Q201.9063,27.0469 202.5,26.7813 Q203.0938,26.5 203.7188,25.9219 L203.7188,28.6406 Z"/><text x="221.25" y="27.154" fill="#000" font-family="sans-serif" font-size="12" lengthAdjust="spacing" textLength="56">resource</text><line style="stroke:#a80036;stroke-width:1.5" x1="108" x2="358" y1="39" y2="39"/><ellipse cx="118" cy="50" rx="3" ry="3" style="stroke:#038048;stroke-width:1;fill:none"/><text x="127" y="53.21" fill="#000" font-family="sans-serif" font-size="11" lengthAdjust="spacing" textLength="51">id: string</text><ellipse cx="118" cy="62.805" rx="3" ry="3" style="stroke:#038048;stroke-width:1;fill:none"/><text x="127" y="66.015" fill="#000" font-family="sans-serif" font-size="11" lengthAdjust="spacing" textLength="170">tags: dictionary[string, string]</text><ellipse cx="118" cy="75.609" rx="3" ry="3" style="stroke:#038048;stroke-width:1;fill:none"/><text x="127" y="78.82" fill="#000" font-family="sans-serif" font-size="11" lengthAdjust="spacing" textLength="73">name: string</text><ellipse cx="118" cy="88.414" rx="3" ry="3" style="stroke:#038048;stroke-width:1;fill:none"/><text x="127" y="91.624" fill="#000" font-family="sans-serif" font-size="11" lengthAdjust="spacing" textLength="89">ctime: datetime</text><ellipse cx="118" cy="101.219" rx="3" ry="3" style="stroke:#038048;stroke-width:1;fill:none"/><text x="127" y="104.429" fill="#000" font-family="sans-serif" font-size="11" lengthAdjust="spacing" textLength="180">age: trafo.duration_to_datetime</text><ellipse cx="118" cy="114.023" rx="3" ry="3" style="stroke:#038048;stroke-width:1;fill:none"/><text x="127" y="117.234" fill="#000" font-family="sans-serif" font-size="11" lengthAdjust="spacing" textLength="94">mtime: datetime</text><ellipse cx="118" cy="126.828" rx="3" ry="3" style="stroke:#038048;stroke-width:1;fill:none"/><text x="127" y="130.039" fill="#000" font-family="sans-serif" font-size="11" lengthAdjust="spacing" textLength="225">last_update: trafo.duration_to_datetime</text><ellipse cx="118" cy="139.633" rx="3" ry="3" style="stroke:#038048;stroke-width:1;fill:none"/><text x="127" y="142.843" fill="#000" font-family="sans-serif" font-size="11" lengthAdjust="spacing" textLength="90">atime: datetime</text><ellipse cx="118" cy="152.438" rx="3" ry="3" style="stroke:#038048;stroke-width:1;fill:none"/><text x="127" y="155.648" fill="#000" font-family="sans-serif" font-size="11" lengthAdjust="spacing" textLength="226">last_access: trafo.duration_to_datetime</text><ellipse cx="118" cy="165.242" rx="3" ry="3" style="stroke:#038048;stroke-width:1;fill:none"/><text x="127" y="168.453" fill="#000" font-family="sans-serif" font-size="11" lengthAdjust="spacing" textLength="64">kind: string</text><line style="stroke:#a80036;stroke-width:1.5" x1="108" x2="358" y1="175.047" y2="175.047"/><rect id="aws_resource" width="118" height="60.805" x="7" y="680" fill="#FEFECE" codeLine="17" filter="url(#fjnc0hlib2zxc)" style="stroke:#a80036;stroke-width:1.5"/><ellipse cx="22" cy="696" fill="#ADD1B2" rx="11" ry="11" style="stroke:#a80036;stroke-width:1"/><path fill="#000" d="M24.9688,701.6406 Q24.3906,701.9375 23.75,702.0781 Q23.1094,702.2344 22.4063,702.2344 Q19.9063,702.2344 18.5781,700.5938 Q17.2656,698.9375 17.2656,695.8125 Q17.2656,692.6875 18.5781,691.0313 Q19.9063,689.375 22.4063,689.375 Q23.1094,689.375 23.75,689.5313 Q24.4063,689.6875 24.9688,689.9844 L24.9688,692.7031 Q24.3438,692.125 23.75,691.8594 Q23.1563,691.5781 22.5313,691.5781 Q21.1875,691.5781 20.5,692.6563 Q19.8125,693.7188 19.8125,695.8125 Q19.8125,697.9063 20.5,698.9844 Q21.1875,700.0469 22.5313,700.0469 Q23.1563,700.0469 23.75,699.7813 Q24.3438,699.5 24.9688,698.9219 L24.9688,701.6406 Z"/><text x="36" y="700.154" fill="#000" font-family="sans-serif" font-size="12" lengthAdjust="spacing" textLength="86">aws_resource</text><line style="stroke:#a80036;stroke-width:1.5" x1="8" x2="124" y1="712" y2="712"/><ellipse cx="18" cy="723" rx="3" ry="3" style="stroke:#038048;stroke-width:1;fill:none"/><text x="27" y="726.21" fill="#000" font-family="sans-serif" font-size="11" lengthAdjust="spacing" textLength="60">arn: string</text><line style="stroke:#a80036;stroke-width:1.5" x1="8" x2="124" y1="732.805" y2="732.805"/><rect id="quota" width="129" height="86.414" x="168.5" y="473" fill="#FEFECE" codeLine="20" filter="url(#fjnc0hlib2zxc)" style="stroke:#a80036;stroke-width:1.5"/><ellipse cx="210.5" cy="489" fill="#ADD1B2" rx="11" ry="11" style="stroke:#a80036;stroke-width:1"/><path fill="#000" d="M213.4688,494.6406 Q212.8906,494.9375 212.25,495.0781 Q211.6094,495.2344 210.9063,495.2344 Q208.4063,495.2344 207.0781,493.5938 Q205.7656,491.9375 205.7656,488.8125 Q205.7656,485.6875 207.0781,484.0313 Q208.4063,482.375 210.9063,482.375 Q211.6094,482.375 212.25,482.5313 Q212.9063,482.6875 213.4688,482.9844 L213.4688,485.7031 Q212.8438,485.125 212.25,484.8594 Q211.6563,484.5781 211.0313,484.5781 Q209.6875,484.5781 209,485.6563 Q208.3125,486.7188 208.3125,488.8125 Q208.3125,490.9063 209,491.9844 Q209.6875,493.0469 211.0313,493.0469 Q211.6563,493.0469 212.25,492.7813 Q212.8438,492.5 213.4688,491.9219 L213.4688,494.6406 Z"/><text x="230.5" y="493.154" fill="#000" font-family="sans-serif" font-size="12" lengthAdjust="spacing" textLength="37">quota</text><line style="stroke:#a80036;stroke-width:1.5" x1="169.5" x2="296.5" y1="505" y2="505"/><ellipse cx="179.5" cy="516" rx="3" ry="3" style="stroke:#038048;stroke-width:1;fill:none"/><text x="188.5" y="519.21" fill="#000" font-family="sans-serif" font-size="11" lengthAdjust="spacing" textLength="78">quota: double</text><ellipse cx="179.5" cy="528.805" rx="3" ry="3" style="stroke:#038048;stroke-width:1;fill:none"/><text x="188.5" y="532.015" fill="#000" font-family="sans-serif" font-size="11" lengthAdjust="spacing" textLength="81">usage: double</text><ellipse cx="179.5" cy="541.609" rx="3" ry="3" style="stroke:#038048;stroke-width:1;fill:none"/><text x="188.5" y="544.82" fill="#000" font-family="sans-serif" font-size="11" lengthAdjust="spacing" textLength="103">quota_type: string</text><line style="stroke:#a80036;stroke-width:1.5" x1="169.5" x2="296.5" y1="551.414" y2="551.414"/><rect id="instance_quota" width="145" height="60.805" x="160.5" y="680" fill="#FEFECE" codeLine="25" filter="url(#fjnc0hlib2zxc)" style="stroke:#a80036;stroke-width:1.5"/><ellipse cx="182.7" cy="696" fill="#ADD1B2" rx="11" ry="11" style="stroke:#a80036;stroke-width:1"/><path fill="#000" d="M185.6688,701.6406 Q185.0906,701.9375 184.45,702.0781 Q183.8094,702.2344 183.1063,702.2344 Q180.6063,702.2344 179.2781,700.5938 Q177.9656,698.9375 177.9656,695.8125 Q177.9656,692.6875 179.2781,691.0313 Q180.6063,689.375 183.1063,689.375 Q183.8094,689.375 184.45,689.5313 Q185.1063,689.6875 185.6688,689.9844 L185.6688,692.7031 Q185.0438,692.125 184.45,691.8594 Q183.8563,691.5781 183.2313,691.5781 Q181.8875,691.5781 181.2,692.6563 Q180.5125,693.7188 180.5125,695.8125 Q180.5125,697.9063 181.2,698.9844 Q181.8875,700.0469 183.2313,700.0469 Q183.8563,700.0469 184.45,699.7813 Q185.0438,699.5 185.6688,698.9219 L185.6688,701.6406 Z"/><text x="198.3" y="700.154" fill="#000" font-family="sans-serif" font-size="12" lengthAdjust="spacing" textLength="97">instance_quota</text><line style="stroke:#a80036;stroke-width:1.5" x1="161.5" x2="304.5" y1="712" y2="712"/><ellipse cx="171.5" cy="723" rx="3" ry="3" style="stroke:#038048;stroke-width:1;fill:none"/><text x="180.5" y="726.21" fill="#000" font-family="sans-serif" font-size="11" lengthAdjust="spacing" textLength="119">instance_type: string</text><line style="stroke:#a80036;stroke-width:1.5" x1="161.5" x2="304.5" y1="732.805" y2="732.805"/><rect id="aws_ec2_instance_quota" width="188" height="48" x="7" y="862" fill="#FEFECE" codeLine="28" filter="url(#fjnc0hlib2zxc)" style="stroke:#a80036;stroke-width:1.5"/><ellipse cx="22" cy="878" fill="#ADD1B2" rx="11" ry="11" style="stroke:#a80036;stroke-width:1"/><path fill="#000" d="M24.9688,883.6406 Q24.3906,883.9375 23.75,884.0781 Q23.1094,884.2344 22.4063,884.2344 Q19.9063,884.2344 18.5781,882.5938 Q17.2656,880.9375 17.2656,877.8125 Q17.2656,874.6875 18.5781,873.0313 Q19.9063,871.375 22.4063,871.375 Q23.1094,871.375 23.75,871.5313 Q24.4063,871.6875 24.9688,871.9844 L24.9688,874.7031 Q24.3438,874.125 23.75,873.8594 Q23.1563,873.5781 22.5313,873.5781 Q21.1875,873.5781 20.5,874.6563 Q19.8125,875.7188 19.8125,877.8125 Q19.8125,879.9063 20.5,880.9844 Q21.1875,882.0469 22.5313,882.0469 Q23.1563,882.0469 23.75,881.7813 Q24.3438,881.5 24.9688,880.9219 L24.9688,883.6406 Z"/><text x="36" y="882.154" fill="#000" font-family="sans-serif" font-size="12" lengthAdjust="spacing" textLength="156">aws_ec2_instance_quota</text><line style="stroke:#a80036;stroke-width:1.5" x1="8" x2="194" y1="894" y2="894"/><line style="stroke:#a80036;stroke-width:1.5" x1="8" x2="194" y1="902" y2="902"/><path id="resource-backto-phantom_resource" fill="none" d="M233,203.18 C233,241 233,280.01 233,303.89" codeLine="31" style="stroke:#a80036;stroke-width:1"/><polygon fill="none" points="226 203 233 183 240 203 226 203" style="stroke:#a80036;stroke-width:1"/><path id="phantom_resource-backto-quota" fill="none" d="M233,372.6 C233,402.8 233,442.79 233,472.7" codeLine="32" style="stroke:#a80036;stroke-width:1"/><polygon fill="none" points="226 372.18 233 352.18 240 372.18 226 372.18" style="stroke:#a80036;stroke-width:1"/><path id="quota-backto-instance_quota" fill="none" d="M233,579.26 C233,613.02 233,653.17 233,679.88" codeLine="33" style="stroke:#a80036;stroke-width:1"/><polygon fill="none" points="226 579.24 233 559.24 240 579.24 226 579.24" style="stroke:#a80036;stroke-width:1"/><path id="aws_resource-backto-aws_ec2_instance_quota" fill="none" d="M76,761.07 C82.69,794.23 91.18,836.32 96.35,861.93" codeLine="34" style="stroke:#a80036;stroke-width:1"/><polygon fill="none" points="69.11 762.32 72.02 741.33 82.83 759.55 69.11 762.32" style="stroke:#a80036;stroke-width:1"/><path id="instance_quota-backto-aws_ec2_instance_quota" fill="none" d="M198.12,757.34 C172.5,791.02 138.77,835.35 118.55,861.93" codeLine="35" style="stroke:#a80036;stroke-width:1"/><polygon fill="none" points="192.63 753 210.31 741.33 203.77 761.48 192.63 753" style="stroke:#a80036;stroke-width:1"/></g></svg>