<?xml version="1.0" encoding="UTF-8" standalone="no"?><svg xmlns="http://www.w3.org/2000/svg" xmlns:xlink="http://www.w3.org/1999/xlink" contentScriptType="application/ecmascript" contentStyleType="text/css" height="504px" preserveAspectRatio="none" style="width:460px;height:504px;background:#00000000;" version="1.1" viewBox="0 0 460 504" width="460px" zoomAndPan="magnify"><defs/><g><!--MD5=[7f0ecf5f554433d3f2e1213379ac821c]
class resource--><rect codeLine="17" fill="#194875" height="275.8359" id="resource" rx="2.5" ry="2.5" style="stroke:#000000;stroke-width:1.5;" width="256" x="7" y="7"/><ellipse cx="90.25" cy="26.8945" fill="#1A83AF" rx="11" ry="11" style="stroke:#000000;stroke-width:1.0;"/><path d="M93.2188,32.5352 Q92.6406,32.832 92,32.9727 Q91.3594,33.1289 90.6563,33.1289 Q88.1563,33.1289 86.8281,31.4883 Q85.5156,29.832 85.5156,26.707 Q85.5156,23.582 86.8281,21.9258 Q88.1563,20.2695 90.6563,20.2695 Q91.3594,20.2695 92,20.4258 Q92.6563,20.582 93.2188,20.8789 L93.2188,23.5977 Q92.5938,23.0195 92,22.7539 Q91.4063,22.4727 90.7813,22.4727 Q89.4375,22.4727 88.75,23.5508 Q88.0625,24.6133 88.0625,26.707 Q88.0625,28.8008 88.75,29.8789 Q89.4375,30.9414 90.7813,30.9414 Q91.4063,30.9414 92,30.6758 Q92.5938,30.3945 93.2188,29.8164 L93.2188,32.5352 Z " fill="#000000"/><text fill="#FFE797" font-family="Helvetica" font-size="17" lengthAdjust="spacing" textLength="71" x="115.75" y="32.7798">resource</text><line style="stroke:#000000;stroke-width:1.5;" x1="8" x2="262" y1="46.7891" y2="46.7891"/><text fill="#FFE797" font-family="sans-serif" font-size="11" font-weight="bold" lengthAdjust="spacing" textLength="12" x="18" y="65.9995">id</text><text fill="#FFE797" font-family="sans-serif" font-size="11" lengthAdjust="spacing" textLength="41" x="30" y="65.9995">: string</text><text fill="#FFE797" font-family="sans-serif" font-size="11" font-weight="bold" lengthAdjust="spacing" textLength="28" x="18" y="88.8042">tags</text><text fill="#FFE797" font-family="sans-serif" font-size="11" lengthAdjust="spacing" textLength="145" x="46" y="88.8042">: dictionary[string, string]</text><text fill="#FFE797" font-family="sans-serif" font-size="11" font-weight="bold" lengthAdjust="spacing" textLength="35" x="18" y="111.6089">name</text><text fill="#FFE797" font-family="sans-serif" font-size="11" lengthAdjust="spacing" textLength="41" x="53" y="111.6089">: string</text><text fill="#FFE797" font-family="sans-serif" font-size="11" font-weight="bold" lengthAdjust="spacing" textLength="35" x="18" y="134.4136">ctime</text><text fill="#FFE797" font-family="sans-serif" font-size="11" lengthAdjust="spacing" textLength="58" x="53" y="134.4136">: datetime</text><text fill="#FFE797" font-family="sans-serif" font-size="11" font-weight="bold" lengthAdjust="spacing" textLength="24" x="18" y="157.2183">age</text><text fill="#FFE797" font-family="sans-serif" font-size="11" lengthAdjust="spacing" textLength="159" x="42" y="157.2183">: trafo.duration_to_datetime</text><text fill="#FFE797" font-family="sans-serif" font-size="11" font-weight="bold" lengthAdjust="spacing" textLength="39" x="18" y="180.0229">mtime</text><text fill="#FFE797" font-family="sans-serif" font-size="11" lengthAdjust="spacing" textLength="58" x="57" y="180.0229">: datetime</text><text fill="#FFE797" font-family="sans-serif" font-size="11" font-weight="bold" lengthAdjust="spacing" textLength="75" x="18" y="202.8276">last_update</text><text fill="#FFE797" font-family="sans-serif" font-size="11" lengthAdjust="spacing" textLength="159" x="93" y="202.8276">: trafo.duration_to_datetime</text><text fill="#FFE797" font-family="sans-serif" font-size="11" font-weight="bold" lengthAdjust="spacing" textLength="36" x="18" y="225.6323">atime</text><text fill="#FFE797" font-family="sans-serif" font-size="11" lengthAdjust="spacing" textLength="58" x="54" y="225.6323">: datetime</text><text fill="#FFE797" font-family="sans-serif" font-size="11" font-weight="bold" lengthAdjust="spacing" textLength="74" x="18" y="248.437">last_access</text><text fill="#FFE797" font-family="sans-serif" font-size="11" lengthAdjust="spacing" textLength="159" x="92" y="248.437">: trafo.duration_to_datetime</text><text fill="#FFE797" font-family="sans-serif" font-size="11" font-weight="bold" lengthAdjust="spacing" textLength="27" x="18" y="271.2417">kind</text><text fill="#FFE797" font-family="sans-serif" font-size="11" lengthAdjust="spacing" textLength="41" x="45" y="271.2417">: string</text><!--MD5=[c069b88079f3e36515859a1683f3923c]
class aws_resource--><rect codeLine="29" fill="#194875" height="70.5938" id="aws_resource" rx="2.5" ry="2.5" style="stroke:#000000;stroke-width:1.5;" width="155" x="298.5" y="109.5"/><ellipse cx="313.5" cy="129.3945" fill="#1A83AF" rx="11" ry="11" style="stroke:#000000;stroke-width:1.0;"/><path d="M316.4688,135.0352 Q315.8906,135.332 315.25,135.4727 Q314.6094,135.6289 313.9063,135.6289 Q311.4063,135.6289 310.0781,133.9883 Q308.7656,132.332 308.7656,129.207 Q308.7656,126.082 310.0781,124.4258 Q311.4063,122.7695 313.9063,122.7695 Q314.6094,122.7695 315.25,122.9258 Q315.9063,123.082 316.4688,123.3789 L316.4688,126.0977 Q315.8438,125.5195 315.25,125.2539 Q314.6563,124.9727 314.0313,124.9727 Q312.6875,124.9727 312,126.0508 Q311.3125,127.1133 311.3125,129.207 Q311.3125,131.3008 312,132.3789 Q312.6875,133.4414 314.0313,133.4414 Q314.6563,133.4414 315.25,133.1758 Q315.8438,132.8945 316.4688,132.3164 L316.4688,135.0352 Z " fill="#000000"/><text fill="#FFE797" font-family="Helvetica" font-size="17" lengthAdjust="spacing" textLength="113" x="332.5" y="135.2798">aws_resource</text><line style="stroke:#000000;stroke-width:1.5;" x1="299.5" x2="452.5" y1="149.2891" y2="149.2891"/><text fill="#FFE797" font-family="sans-serif" font-size="11" font-weight="bold" lengthAdjust="spacing" textLength="21" x="309.5" y="168.4995">arn</text><text fill="#FFE797" font-family="sans-serif" font-size="11" lengthAdjust="spacing" textLength="41" x="330.5" y="168.4995">: string</text><!--MD5=[24e19bae338051856ea1cbfd96c407c4]
class aws_eks_cluster--><rect codeLine="32" fill="#194875" height="93.3984" id="aws_eks_cluster" rx="2.5" ry="2.5" style="stroke:#000000;stroke-width:1.5;" width="177" x="166.5" y="404"/><ellipse cx="181.5" cy="423.8945" fill="#1A83AF" rx="11" ry="11" style="stroke:#000000;stroke-width:1.0;"/><path d="M184.4688,429.5352 Q183.8906,429.832 183.25,429.9727 Q182.6094,430.1289 181.9063,430.1289 Q179.4063,430.1289 178.0781,428.4883 Q176.7656,426.832 176.7656,423.707 Q176.7656,420.582 178.0781,418.9258 Q179.4063,417.2695 181.9063,417.2695 Q182.6094,417.2695 183.25,417.4258 Q183.9063,417.582 184.4688,417.8789 L184.4688,420.5977 Q183.8438,420.0195 183.25,419.7539 Q182.6563,419.4727 182.0313,419.4727 Q180.6875,419.4727 180,420.5508 Q179.3125,421.6133 179.3125,423.707 Q179.3125,425.8008 180,426.8789 Q180.6875,427.9414 182.0313,427.9414 Q182.6563,427.9414 183.25,427.6758 Q183.8438,427.3945 184.4688,426.8164 L184.4688,429.5352 Z " fill="#000000"/><text fill="#FFE797" font-family="Helvetica" font-size="17" lengthAdjust="spacing" textLength="135" x="200.5" y="429.7798">aws_eks_cluster</text><line style="stroke:#000000;stroke-width:1.5;" x1="167.5" x2="342.5" y1="443.7891" y2="443.7891"/><text fill="#FFE797" font-family="sans-serif" font-size="11" font-weight="bold" lengthAdjust="spacing" textLength="90" x="177.5" y="462.9995">cluster_status</text><text fill="#FFE797" font-family="sans-serif" font-size="11" lengthAdjust="spacing" textLength="41" x="267.5" y="462.9995">: string</text><text fill="#FFE797" font-family="sans-serif" font-size="11" font-weight="bold" lengthAdjust="spacing" textLength="107" x="177.5" y="485.8042">cluster_endpoint</text><text fill="#FFE797" font-family="sans-serif" font-size="11" lengthAdjust="spacing" textLength="41" x="284.5" y="485.8042">: string</text><!--MD5=[36e25ca09c9d943d9e0b17c2731050dd]
reverse link aws_resource to aws_eks_cluster--><path codeLine="36" d="M354.81,199.15 C331.68,257.16 295.04,349.08 273.17,403.92 " fill="none" id="aws_resource-backto-aws_eks_cluster" style="stroke:#FFAF37;stroke-width:2.0;"/><polygon fill="none" points="348.33,196.51,362.24,180.52,361.33,201.69,348.33,196.51" style="stroke:#FFAF37;stroke-width:2.0;"/><!--MD5=[09f8deb1a79ed511b70febd1c4493150]
reverse link resource to aws_eks_cluster--><path codeLine="37" d="M196.56,301.7 C211.32,339.02 225.95,376.02 236.88,403.66 " fill="none" id="resource-backto-aws_eks_cluster" style="stroke:#FFAF37;stroke-width:2.0;"/><polygon fill="none" points="190.05,304.27,189.21,283.1,203.07,299.12,190.05,304.27" style="stroke:#FFAF37;stroke-width:2.0;"/><!--MD5=[25851635be3d50b38cd8fa092a1fe0fe]
@startuml
hide empty members
skinparam ArrowColor #ffaf37
skinparam ArrowThickness 2
skinparam BackgroundColor transparent
skinparam ClassAttributeFontColor #ffe797
skinparam ClassBackgroundColor #194875
skinparam ClassBorderColor Black
skinparam ClassFontColor #ffe797
skinparam ClassFontName Helvetica
skinparam ClassFontSize 17
skinparam Padding 5
skinparam RoundCorner 5
skinparam Shadowing false
skinparam stereotypeCBackgroundColor #1a83af
skinparam stereotypeIBackgroundColor #1a83af

class resource {
**id**: string
**tags**: dictionary[string, string]
**name**: string
**ctime**: datetime
**age**: trafo.duration_to_datetime
**mtime**: datetime
**last_update**: trafo.duration_to_datetime
**atime**: datetime
**last_access**: trafo.duration_to_datetime
**kind**: string
}
class aws_resource {
**arn**: string
}
class aws_eks_cluster {
**cluster_status**: string
**cluster_endpoint**: string
}
aws_resource <|- - - aws_eks_cluster
resource <|- - - aws_eks_cluster
@enduml

PlantUML version 1.2021.16(Wed Dec 08 17:25:22 UTC 2021)
(GPL source distribution)
Java Runtime: OpenJDK Runtime Environment
JVM: OpenJDK 64-Bit Server VM
Default Encoding: UTF-8
Language: en
Country: null
--></g></svg>