<svg xmlns="http://www.w3.org/2000/svg" xmlns:xlink="http://www.w3.org/1999/xlink" width="381" height="625" contentScriptType="application/ecmascript" contentStyleType="text/css" style="width:381px;height:625px;background:#00000000" preserveAspectRatio="none" version="1.1" viewBox="0 0 381 625" zoomAndPan="magnify"><defs><filter id="f15r6fj7f3c7ud" width="300%" height="300%" x="-1" y="-1"><feGaussianBlur result="blurOut" stdDeviation="2"/><feColorMatrix in="blurOut" result="blurOut2" type="matrix" values="0 0 0 0 0 0 0 0 0 0 0 0 0 0 0 0 0 0 .4 0"/><feOffset dx="4" dy="4" in="blurOut2" result="blurOut3"/><feBlend in="SourceGraphic" in2="blurOut3" mode="normal"/></filter></defs><g><rect id="resource" width="252" height="176.047" x="7" y="7" fill="#FEFECE" codeLine="2" filter="url(#f15r6fj7f3c7ud)" style="stroke:#a80036;stroke-width:1.5"/><ellipse cx="100.75" cy="23" fill="#ADD1B2" rx="11" ry="11" style="stroke:#a80036;stroke-width:1"/><path fill="#000" d="M103.7188,28.6406 Q103.1406,28.9375 102.5,29.0781 Q101.8594,29.2344 101.1563,29.2344 Q98.6563,29.2344 97.3281,27.5938 Q96.0156,25.9375 96.0156,22.8125 Q96.0156,19.6875 97.3281,18.0313 Q98.6563,16.375 101.1563,16.375 Q101.8594,16.375 102.5,16.5313 Q103.1563,16.6875 103.7188,16.9844 L103.7188,19.7031 Q103.0938,19.125 102.5,18.8594 Q101.9063,18.5781 101.2813,18.5781 Q99.9375,18.5781 99.25,19.6563 Q98.5625,20.7188 98.5625,22.8125 Q98.5625,24.9063 99.25,25.9844 Q99.9375,27.0469 101.2813,27.0469 Q101.9063,27.0469 102.5,26.7813 Q103.0938,26.5 103.7188,25.9219 L103.7188,28.6406 Z"/><text x="121.25" y="27.154" fill="#000" font-family="sans-serif" font-size="12" lengthAdjust="spacing" textLength="56">resource</text><line style="stroke:#a80036;stroke-width:1.5" x1="8" x2="258" y1="39" y2="39"/><ellipse cx="18" cy="50" rx="3" ry="3" style="stroke:#038048;stroke-width:1;fill:none"/><text x="27" y="53.21" fill="#000" font-family="sans-serif" font-size="11" lengthAdjust="spacing" textLength="51">id: string</text><ellipse cx="18" cy="62.805" rx="3" ry="3" style="stroke:#038048;stroke-width:1;fill:none"/><text x="27" y="66.015" fill="#000" font-family="sans-serif" font-size="11" lengthAdjust="spacing" textLength="170">tags: dictionary[string, string]</text><ellipse cx="18" cy="75.609" rx="3" ry="3" style="stroke:#038048;stroke-width:1;fill:none"/><text x="27" y="78.82" fill="#000" font-family="sans-serif" font-size="11" lengthAdjust="spacing" textLength="73">name: string</text><ellipse cx="18" cy="88.414" rx="3" ry="3" style="stroke:#038048;stroke-width:1;fill:none"/><text x="27" y="91.624" fill="#000" font-family="sans-serif" font-size="11" lengthAdjust="spacing" textLength="89">ctime: datetime</text><ellipse cx="18" cy="101.219" rx="3" ry="3" style="stroke:#038048;stroke-width:1;fill:none"/><text x="27" y="104.429" fill="#000" font-family="sans-serif" font-size="11" lengthAdjust="spacing" textLength="180">age: trafo.duration_to_datetime</text><ellipse cx="18" cy="114.023" rx="3" ry="3" style="stroke:#038048;stroke-width:1;fill:none"/><text x="27" y="117.234" fill="#000" font-family="sans-serif" font-size="11" lengthAdjust="spacing" textLength="94">mtime: datetime</text><ellipse cx="18" cy="126.828" rx="3" ry="3" style="stroke:#038048;stroke-width:1;fill:none"/><text x="27" y="130.039" fill="#000" font-family="sans-serif" font-size="11" lengthAdjust="spacing" textLength="225">last_update: trafo.duration_to_datetime</text><ellipse cx="18" cy="139.633" rx="3" ry="3" style="stroke:#038048;stroke-width:1;fill:none"/><text x="27" y="142.843" fill="#000" font-family="sans-serif" font-size="11" lengthAdjust="spacing" textLength="90">atime: datetime</text><ellipse cx="18" cy="152.438" rx="3" ry="3" style="stroke:#038048;stroke-width:1;fill:none"/><text x="27" y="155.648" fill="#000" font-family="sans-serif" font-size="11" lengthAdjust="spacing" textLength="226">last_access: trafo.duration_to_datetime</text><ellipse cx="18" cy="165.242" rx="3" ry="3" style="stroke:#038048;stroke-width:1;fill:none"/><text x="27" y="168.453" fill="#000" font-family="sans-serif" font-size="11" lengthAdjust="spacing" textLength="64">kind: string</text><line style="stroke:#a80036;stroke-width:1.5" x1="8" x2="258" y1="175.047" y2="175.047"/><rect id="aws_resource" width="118" height="60.805" x="249" y="342.5" fill="#FEFECE" codeLine="14" filter="url(#f15r6fj7f3c7ud)" style="stroke:#a80036;stroke-width:1.5"/><ellipse cx="264" cy="358.5" fill="#ADD1B2" rx="11" ry="11" style="stroke:#a80036;stroke-width:1"/><path fill="#000" d="M266.9688,364.1406 Q266.3906,364.4375 265.75,364.5781 Q265.1094,364.7344 264.4063,364.7344 Q261.9063,364.7344 260.5781,363.0938 Q259.2656,361.4375 259.2656,358.3125 Q259.2656,355.1875 260.5781,353.5313 Q261.9063,351.875 264.4063,351.875 Q265.1094,351.875 265.75,352.0313 Q266.4063,352.1875 266.9688,352.4844 L266.9688,355.2031 Q266.3438,354.625 265.75,354.3594 Q265.1563,354.0781 264.5313,354.0781 Q263.1875,354.0781 262.5,355.1563 Q261.8125,356.2188 261.8125,358.3125 Q261.8125,360.4063 262.5,361.4844 Q263.1875,362.5469 264.5313,362.5469 Q265.1563,362.5469 265.75,362.2813 Q266.3438,362 266.9688,361.4219 L266.9688,364.1406 Z"/><text x="278" y="362.654" fill="#000" font-family="sans-serif" font-size="12" lengthAdjust="spacing" textLength="86">aws_resource</text><line style="stroke:#a80036;stroke-width:1.5" x1="250" x2="366" y1="374.5" y2="374.5"/><ellipse cx="260" cy="385.5" rx="3" ry="3" style="stroke:#038048;stroke-width:1;fill:none"/><text x="269" y="388.71" fill="#000" font-family="sans-serif" font-size="11" lengthAdjust="spacing" textLength="60">arn: string</text><line style="stroke:#a80036;stroke-width:1.5" x1="250" x2="366" y1="395.305" y2="395.305"/><rect id="snapshot" width="162" height="137.633" x="52" y="304" fill="#FEFECE" codeLine="17" filter="url(#f15r6fj7f3c7ud)" style="stroke:#a80036;stroke-width:1.5"/><ellipse cx="99.25" cy="320" fill="#ADD1B2" rx="11" ry="11" style="stroke:#a80036;stroke-width:1"/><path fill="#000" d="M102.2188,325.6406 Q101.6406,325.9375 101,326.0781 Q100.3594,326.2344 99.6563,326.2344 Q97.1563,326.2344 95.8281,324.5938 Q94.5156,322.9375 94.5156,319.8125 Q94.5156,316.6875 95.8281,315.0313 Q97.1563,313.375 99.6563,313.375 Q100.3594,313.375 101,313.5313 Q101.6563,313.6875 102.2188,313.9844 L102.2188,316.7031 Q101.5938,316.125 101,315.8594 Q100.4063,315.5781 99.7813,315.5781 Q98.4375,315.5781 97.75,316.6563 Q97.0625,317.7188 97.0625,319.8125 Q97.0625,321.9063 97.75,322.9844 Q98.4375,324.0469 99.7813,324.0469 Q100.4063,324.0469 101,323.7813 Q101.5938,323.5 102.2188,322.9219 L102.2188,325.6406 Z"/><text x="119.75" y="324.154" fill="#000" font-family="sans-serif" font-size="12" lengthAdjust="spacing" textLength="59">snapshot</text><line style="stroke:#a80036;stroke-width:1.5" x1="53" x2="213" y1="336" y2="336"/><ellipse cx="63" cy="347" rx="3" ry="3" style="stroke:#038048;stroke-width:1;fill:none"/><text x="72" y="350.21" fill="#000" font-family="sans-serif" font-size="11" lengthAdjust="spacing" textLength="136">snapshot_status: string</text><ellipse cx="63" cy="359.805" rx="3" ry="3" style="stroke:#038048;stroke-width:1;fill:none"/><text x="72" y="363.015" fill="#000" font-family="sans-serif" font-size="11" lengthAdjust="spacing" textLength="104">description: string</text><ellipse cx="63" cy="372.609" rx="3" ry="3" style="stroke:#038048;stroke-width:1;fill:none"/><text x="72" y="375.82" fill="#000" font-family="sans-serif" font-size="11" lengthAdjust="spacing" textLength="98">volume_id: string</text><ellipse cx="63" cy="385.414" rx="3" ry="3" style="stroke:#038048;stroke-width:1;fill:none"/><text x="72" y="388.625" fill="#000" font-family="sans-serif" font-size="11" lengthAdjust="spacing" textLength="105">volume_size: int64</text><ellipse cx="63" cy="398.219" rx="3" ry="3" style="stroke:#038048;stroke-width:1;fill:none"/><text x="72" y="401.429" fill="#000" font-family="sans-serif" font-size="11" lengthAdjust="spacing" textLength="109">encrypted: boolean</text><ellipse cx="63" cy="411.023" rx="3" ry="3" style="stroke:#038048;stroke-width:1;fill:none"/><text x="72" y="414.234" fill="#000" font-family="sans-serif" font-size="11" lengthAdjust="spacing" textLength="92">owner_id: string</text><ellipse cx="63" cy="423.828" rx="3" ry="3" style="stroke:#038048;stroke-width:1;fill:none"/><text x="72" y="427.039" fill="#000" font-family="sans-serif" font-size="11" lengthAdjust="spacing" textLength="109">owner_alias: string</text><line style="stroke:#a80036;stroke-width:1.5" x1="53" x2="213" y1="433.633" y2="433.633"/><rect id="aws_ec2_snapshot" width="150" height="48" x="171" y="563" fill="#FEFECE" codeLine="26" filter="url(#f15r6fj7f3c7ud)" style="stroke:#a80036;stroke-width:1.5"/><ellipse cx="186" cy="579" fill="#ADD1B2" rx="11" ry="11" style="stroke:#a80036;stroke-width:1"/><path fill="#000" d="M188.9688,584.6406 Q188.3906,584.9375 187.75,585.0781 Q187.1094,585.2344 186.4063,585.2344 Q183.9063,585.2344 182.5781,583.5938 Q181.2656,581.9375 181.2656,578.8125 Q181.2656,575.6875 182.5781,574.0313 Q183.9063,572.375 186.4063,572.375 Q187.1094,572.375 187.75,572.5313 Q188.4063,572.6875 188.9688,572.9844 L188.9688,575.7031 Q188.3438,575.125 187.75,574.8594 Q187.1563,574.5781 186.5313,574.5781 Q185.1875,574.5781 184.5,575.6563 Q183.8125,576.7188 183.8125,578.8125 Q183.8125,580.9063 184.5,581.9844 Q185.1875,583.0469 186.5313,583.0469 Q187.1563,583.0469 187.75,582.7813 Q188.3438,582.5 188.9688,581.9219 L188.9688,584.6406 Z"/><text x="200" y="583.154" fill="#000" font-family="sans-serif" font-size="12" lengthAdjust="spacing" textLength="118">aws_ec2_snapshot</text><line style="stroke:#a80036;stroke-width:1.5" x1="172" x2="320" y1="595" y2="595"/><line style="stroke:#a80036;stroke-width:1.5" x1="172" x2="320" y1="603" y2="603"/><path id="resource-backto-snapshot" fill="none" d="M133,203.36 C133,237.07 133,273.36 133,303.6" codeLine="29" style="stroke:#a80036;stroke-width:1"/><polygon fill="none" points="126 203.33 133 183.33 140 203.33 126 203.33" style="stroke:#a80036;stroke-width:1"/><path id="aws_resource-backto-aws_ec2_snapshot" fill="none" d="M293.61,423.2 C280.78,467.07 262.56,529.37 252.8,562.75" codeLine="30" style="stroke:#a80036;stroke-width:1"/><polygon fill="none" points="286.92 421.16 299.25 403.92 300.35 425.09 286.92 421.16" style="stroke:#a80036;stroke-width:1"/><path id="snapshot-backto-aws_ec2_snapshot" fill="none" d="M178.81,459.95 C198.74,497.33 220.5,538.16 233.7,562.92" codeLine="31" style="stroke:#a80036;stroke-width:1"/><polygon fill="none" points="172.61 463.19 169.38 442.25 184.96 456.6 172.61 463.19" style="stroke:#a80036;stroke-width:1"/></g></svg>