<svg xmlns="http://www.w3.org/2000/svg" xmlns:xlink="http://www.w3.org/1999/xlink" width="459" height="686" contentScriptType="application/ecmascript" contentStyleType="text/css" style="width:459px;height:686px;background:#00000000" preserveAspectRatio="none" version="1.1" viewBox="0 0 459 686" zoomAndPan="magnify"><g><rect id="resource" width="256" height="275.836" x="7" y="7" fill="#194875" codeLine="17" rx="2.5" ry="2.5" style="stroke:#000;stroke-width:1.5"/><ellipse cx="90.25" cy="26.895" fill="#1A83AF" rx="11" ry="11" style="stroke:#000;stroke-width:1"/><path fill="#000" d="M93.2188,32.5352 Q92.6406,32.832 92,32.9727 Q91.3594,33.1289 90.6563,33.1289 Q88.1563,33.1289 86.8281,31.4883 Q85.5156,29.832 85.5156,26.707 Q85.5156,23.582 86.8281,21.9258 Q88.1563,20.2695 90.6563,20.2695 Q91.3594,20.2695 92,20.4258 Q92.6563,20.582 93.2188,20.8789 L93.2188,23.5977 Q92.5938,23.0195 92,22.7539 Q91.4063,22.4727 90.7813,22.4727 Q89.4375,22.4727 88.75,23.5508 Q88.0625,24.6133 88.0625,26.707 Q88.0625,28.8008 88.75,29.8789 Q89.4375,30.9414 90.7813,30.9414 Q91.4063,30.9414 92,30.6758 Q92.5938,30.3945 93.2188,29.8164 L93.2188,32.5352 Z"/><text x="115.75" y="32.78" fill="#FFE797" font-family="Helvetica" font-size="17" lengthAdjust="spacing" textLength="71">resource</text><line style="stroke:#000;stroke-width:1.5" x1="8" x2="262" y1="46.789" y2="46.789"/><text x="18" y="65.999" fill="#FFE797" font-family="sans-serif" font-size="11" font-weight="bold" lengthAdjust="spacing" textLength="12">id</text><text x="30" y="65.999" fill="#FFE797" font-family="sans-serif" font-size="11" lengthAdjust="spacing" textLength="41">: string</text><text x="18" y="88.804" fill="#FFE797" font-family="sans-serif" font-size="11" font-weight="bold" lengthAdjust="spacing" textLength="28">tags</text><text x="46" y="88.804" fill="#FFE797" font-family="sans-serif" font-size="11" lengthAdjust="spacing" textLength="145">: dictionary[string, string]</text><text x="18" y="111.609" fill="#FFE797" font-family="sans-serif" font-size="11" font-weight="bold" lengthAdjust="spacing" textLength="35">name</text><text x="53" y="111.609" fill="#FFE797" font-family="sans-serif" font-size="11" lengthAdjust="spacing" textLength="41">: string</text><text x="18" y="134.414" fill="#FFE797" font-family="sans-serif" font-size="11" font-weight="bold" lengthAdjust="spacing" textLength="35">ctime</text><text x="53" y="134.414" fill="#FFE797" font-family="sans-serif" font-size="11" lengthAdjust="spacing" textLength="58">: datetime</text><text x="18" y="157.218" fill="#FFE797" font-family="sans-serif" font-size="11" font-weight="bold" lengthAdjust="spacing" textLength="24">age</text><text x="42" y="157.218" fill="#FFE797" font-family="sans-serif" font-size="11" lengthAdjust="spacing" textLength="159">: trafo.duration_to_datetime</text><text x="18" y="180.023" fill="#FFE797" font-family="sans-serif" font-size="11" font-weight="bold" lengthAdjust="spacing" textLength="39">mtime</text><text x="57" y="180.023" fill="#FFE797" font-family="sans-serif" font-size="11" lengthAdjust="spacing" textLength="58">: datetime</text><text x="18" y="202.828" fill="#FFE797" font-family="sans-serif" font-size="11" font-weight="bold" lengthAdjust="spacing" textLength="75">last_update</text><text x="93" y="202.828" fill="#FFE797" font-family="sans-serif" font-size="11" lengthAdjust="spacing" textLength="159">: trafo.duration_to_datetime</text><text x="18" y="225.632" fill="#FFE797" font-family="sans-serif" font-size="11" font-weight="bold" lengthAdjust="spacing" textLength="36">atime</text><text x="54" y="225.632" fill="#FFE797" font-family="sans-serif" font-size="11" lengthAdjust="spacing" textLength="58">: datetime</text><text x="18" y="248.437" fill="#FFE797" font-family="sans-serif" font-size="11" font-weight="bold" lengthAdjust="spacing" textLength="74">last_access</text><text x="92" y="248.437" fill="#FFE797" font-family="sans-serif" font-size="11" lengthAdjust="spacing" textLength="159">: trafo.duration_to_datetime</text><text x="18" y="271.242" fill="#FFE797" font-family="sans-serif" font-size="11" font-weight="bold" lengthAdjust="spacing" textLength="27">kind</text><text x="45" y="271.242" fill="#FFE797" font-family="sans-serif" font-size="11" lengthAdjust="spacing" textLength="41">: string</text><rect id="aws_resource" width="155" height="70.594" x="297.5" y="426.5" fill="#194875" codeLine="29" rx="2.5" ry="2.5" style="stroke:#000;stroke-width:1.5"/><ellipse cx="312.5" cy="446.394" fill="#1A83AF" rx="11" ry="11" style="stroke:#000;stroke-width:1"/><path fill="#000" d="M315.4688,452.0352 Q314.8906,452.332 314.25,452.4727 Q313.6094,452.6289 312.9063,452.6289 Q310.4063,452.6289 309.0781,450.9883 Q307.7656,449.332 307.7656,446.207 Q307.7656,443.082 309.0781,441.4258 Q310.4063,439.7695 312.9063,439.7695 Q313.6094,439.7695 314.25,439.9258 Q314.9063,440.082 315.4688,440.3789 L315.4688,443.0977 Q314.8438,442.5195 314.25,442.2539 Q313.6563,441.9727 313.0313,441.9727 Q311.6875,441.9727 311,443.0508 Q310.3125,444.1133 310.3125,446.207 Q310.3125,448.3008 311,449.3789 Q311.6875,450.4414 313.0313,450.4414 Q313.6563,450.4414 314.25,450.1758 Q314.8438,449.8945 315.4688,449.3164 L315.4688,452.0352 Z"/><text x="331.5" y="452.28" fill="#FFE797" font-family="Helvetica" font-size="17" lengthAdjust="spacing" textLength="113">aws_resource</text><line style="stroke:#000;stroke-width:1.5" x1="298.5" x2="451.5" y1="466.289" y2="466.289"/><text x="308.5" y="485.5" fill="#FFE797" font-family="sans-serif" font-size="11" font-weight="bold" lengthAdjust="spacing" textLength="21">arn</text><text x="329.5" y="485.5" fill="#FFE797" font-family="sans-serif" font-size="11" lengthAdjust="spacing" textLength="41">: string</text><rect id="stack" width="254" height="116.203" x="8" y="404" fill="#194875" codeLine="32" rx="2.5" ry="2.5" style="stroke:#000;stroke-width:1.5"/><ellipse cx="104.25" cy="423.894" fill="#1A83AF" rx="11" ry="11" style="stroke:#000;stroke-width:1"/><path fill="#000" d="M107.2188,429.5352 Q106.6406,429.832 106,429.9727 Q105.3594,430.1289 104.6563,430.1289 Q102.1563,430.1289 100.8281,428.4883 Q99.5156,426.832 99.5156,423.707 Q99.5156,420.582 100.8281,418.9258 Q102.1563,417.2695 104.6563,417.2695 Q105.3594,417.2695 106,417.4258 Q106.6563,417.582 107.2188,417.8789 L107.2188,420.5977 Q106.5938,420.0195 106,419.7539 Q105.4063,419.4727 104.7813,419.4727 Q103.4375,419.4727 102.75,420.5508 Q102.0625,421.6133 102.0625,423.707 Q102.0625,425.8008 102.75,426.8789 Q103.4375,427.9414 104.7813,427.9414 Q105.4063,427.9414 106,427.6758 Q106.5938,427.3945 107.2188,426.8164 L107.2188,429.5352 Z"/><text x="129.75" y="429.78" fill="#FFE797" font-family="Helvetica" font-size="17" lengthAdjust="spacing" textLength="43">stack</text><line style="stroke:#000;stroke-width:1.5" x1="9" x2="261" y1="443.789" y2="443.789"/><text x="19" y="463" fill="#FFE797" font-family="sans-serif" font-size="11" font-weight="bold" lengthAdjust="spacing" textLength="80">stack_status</text><text x="99" y="463" fill="#FFE797" font-family="sans-serif" font-size="11" lengthAdjust="spacing" textLength="41">: string</text><text x="19" y="485.804" fill="#FFE797" font-family="sans-serif" font-size="11" font-weight="bold" lengthAdjust="spacing" textLength="130">stack_status_reason</text><text x="149" y="485.804" fill="#FFE797" font-family="sans-serif" font-size="11" lengthAdjust="spacing" textLength="41">: string</text><text x="19" y="508.609" fill="#FFE797" font-family="sans-serif" font-size="11" font-weight="bold" lengthAdjust="spacing" textLength="113">stack_parameters</text><text x="132" y="508.609" fill="#FFE797" font-family="sans-serif" font-size="11" lengthAdjust="spacing" textLength="119">: dictionary[any, any]</text><rect id="aws_cloudformation_stack" width="263" height="39.789" x="123.5" y="641" fill="#194875" codeLine="37" rx="2.5" ry="2.5" style="stroke:#000;stroke-width:1.5"/><ellipse cx="138.5" cy="660.894" fill="#1A83AF" rx="11" ry="11" style="stroke:#000;stroke-width:1"/><path fill="#000" d="M141.4688,666.5352 Q140.8906,666.832 140.25,666.9727 Q139.6094,667.1289 138.9063,667.1289 Q136.4063,667.1289 135.0781,665.4883 Q133.7656,663.832 133.7656,660.707 Q133.7656,657.582 135.0781,655.9258 Q136.4063,654.2695 138.9063,654.2695 Q139.6094,654.2695 140.25,654.4258 Q140.9063,654.582 141.4688,654.8789 L141.4688,657.5977 Q140.8438,657.0195 140.25,656.7539 Q139.6563,656.4727 139.0313,656.4727 Q137.6875,656.4727 137,657.5508 Q136.3125,658.6133 136.3125,660.707 Q136.3125,662.8008 137,663.8789 Q137.6875,664.9414 139.0313,664.9414 Q139.6563,664.9414 140.25,664.6758 Q140.8438,664.3945 141.4688,663.8164 L141.4688,666.5352 Z"/><text x="157.5" y="666.78" fill="#FFE797" font-family="Helvetica" font-size="17" lengthAdjust="spacing" textLength="221">aws_cloudformation_stack</text><path id="resource-backto-stack" fill="none" d="M135,303.49 C135,339.49 135,375.48 135,403.96" codeLine="40" style="stroke:#ffaf37;stroke-width:2"/><polygon fill="none" points="128 303.25 135 283.25 142 303.25 128 303.25" style="stroke:#ffaf37;stroke-width:2"/><path id="aws_resource-backto-aws_cloudformation_stack" fill="none" d="M343.28,515.07 C318.09,556.43 284.27,611.95 266.7,640.8" codeLine="41" style="stroke:#ffaf37;stroke-width:2"/><polygon fill="none" points="337.44 511.21 353.82 497.77 349.4 518.49 337.44 511.21" style="stroke:#ffaf37;stroke-width:2"/><path id="stack-backto-aws_cloudformation_stack" fill="none" d="M180.37,537.48 C203.05,574.71 228.7,616.82 243.25,640.71" codeLine="42" style="stroke:#ffaf37;stroke-width:2"/><polygon fill="none" points="174.3 540.97 169.87 520.25 186.25 533.68 174.3 540.97" style="stroke:#ffaf37;stroke-width:2"/></g></svg>