<svg xmlns="http://www.w3.org/2000/svg" xmlns:xlink="http://www.w3.org/1999/xlink" width="377" height="673" contentScriptType="application/ecmascript" contentStyleType="text/css" style="width:377px;height:673px;background:#00000000" preserveAspectRatio="none" version="1.1" viewBox="0 0 377 673" zoomAndPan="magnify"><g><rect id="resource" width="256" height="275.836" x="7" y="7" fill="#194875" codeLine="17" rx="2.5" ry="2.5" style="stroke:#000;stroke-width:1.5"/><ellipse cx="90.25" cy="26.895" fill="#1A83AF" rx="11" ry="11" style="stroke:#000;stroke-width:1"/><path fill="#000" d="M93.2188,32.5352 Q92.6406,32.832 92,32.9727 Q91.3594,33.1289 90.6563,33.1289 Q88.1563,33.1289 86.8281,31.4883 Q85.5156,29.832 85.5156,26.707 Q85.5156,23.582 86.8281,21.9258 Q88.1563,20.2695 90.6563,20.2695 Q91.3594,20.2695 92,20.4258 Q92.6563,20.582 93.2188,20.8789 L93.2188,23.5977 Q92.5938,23.0195 92,22.7539 Q91.4063,22.4727 90.7813,22.4727 Q89.4375,22.4727 88.75,23.5508 Q88.0625,24.6133 88.0625,26.707 Q88.0625,28.8008 88.75,29.8789 Q89.4375,30.9414 90.7813,30.9414 Q91.4063,30.9414 92,30.6758 Q92.5938,30.3945 93.2188,29.8164 L93.2188,32.5352 Z"/><text x="115.75" y="32.78" fill="#FFE797" font-family="Helvetica" font-size="17" lengthAdjust="spacing" textLength="71">resource</text><line style="stroke:#000;stroke-width:1.5" x1="8" x2="262" y1="46.789" y2="46.789"/><text x="18" y="65.999" fill="#FFE797" font-family="sans-serif" font-size="11" font-weight="bold" lengthAdjust="spacing" textLength="12">id</text><text x="30" y="65.999" fill="#FFE797" font-family="sans-serif" font-size="11" lengthAdjust="spacing" textLength="41">: string</text><text x="18" y="88.804" fill="#FFE797" font-family="sans-serif" font-size="11" font-weight="bold" lengthAdjust="spacing" textLength="28">tags</text><text x="46" y="88.804" fill="#FFE797" font-family="sans-serif" font-size="11" lengthAdjust="spacing" textLength="145">: dictionary[string, string]</text><text x="18" y="111.609" fill="#FFE797" font-family="sans-serif" font-size="11" font-weight="bold" lengthAdjust="spacing" textLength="35">name</text><text x="53" y="111.609" fill="#FFE797" font-family="sans-serif" font-size="11" lengthAdjust="spacing" textLength="41">: string</text><text x="18" y="134.414" fill="#FFE797" font-family="sans-serif" font-size="11" font-weight="bold" lengthAdjust="spacing" textLength="35">ctime</text><text x="53" y="134.414" fill="#FFE797" font-family="sans-serif" font-size="11" lengthAdjust="spacing" textLength="58">: datetime</text><text x="18" y="157.218" fill="#FFE797" font-family="sans-serif" font-size="11" font-weight="bold" lengthAdjust="spacing" textLength="24">age</text><text x="42" y="157.218" fill="#FFE797" font-family="sans-serif" font-size="11" lengthAdjust="spacing" textLength="159">: trafo.duration_to_datetime</text><text x="18" y="180.023" fill="#FFE797" font-family="sans-serif" font-size="11" font-weight="bold" lengthAdjust="spacing" textLength="39">mtime</text><text x="57" y="180.023" fill="#FFE797" font-family="sans-serif" font-size="11" lengthAdjust="spacing" textLength="58">: datetime</text><text x="18" y="202.828" fill="#FFE797" font-family="sans-serif" font-size="11" font-weight="bold" lengthAdjust="spacing" textLength="75">last_update</text><text x="93" y="202.828" fill="#FFE797" font-family="sans-serif" font-size="11" lengthAdjust="spacing" textLength="159">: trafo.duration_to_datetime</text><text x="18" y="225.632" fill="#FFE797" font-family="sans-serif" font-size="11" font-weight="bold" lengthAdjust="spacing" textLength="36">atime</text><text x="54" y="225.632" fill="#FFE797" font-family="sans-serif" font-size="11" lengthAdjust="spacing" textLength="58">: datetime</text><text x="18" y="248.437" fill="#FFE797" font-family="sans-serif" font-size="11" font-weight="bold" lengthAdjust="spacing" textLength="74">last_access</text><text x="92" y="248.437" fill="#FFE797" font-family="sans-serif" font-size="11" lengthAdjust="spacing" textLength="159">: trafo.duration_to_datetime</text><text x="18" y="271.242" fill="#FFE797" font-family="sans-serif" font-size="11" font-weight="bold" lengthAdjust="spacing" textLength="27">kind</text><text x="45" y="271.242" fill="#FFE797" font-family="sans-serif" font-size="11" lengthAdjust="spacing" textLength="41">: string</text><rect id="aws_resource" width="155" height="70.594" x="215.5" y="404" fill="#194875" codeLine="29" rx="2.5" ry="2.5" style="stroke:#000;stroke-width:1.5"/><ellipse cx="230.5" cy="423.894" fill="#1A83AF" rx="11" ry="11" style="stroke:#000;stroke-width:1"/><path fill="#000" d="M233.4688,429.5352 Q232.8906,429.832 232.25,429.9727 Q231.6094,430.1289 230.9063,430.1289 Q228.4063,430.1289 227.0781,428.4883 Q225.7656,426.832 225.7656,423.707 Q225.7656,420.582 227.0781,418.9258 Q228.4063,417.2695 230.9063,417.2695 Q231.6094,417.2695 232.25,417.4258 Q232.9063,417.582 233.4688,417.8789 L233.4688,420.5977 Q232.8438,420.0195 232.25,419.7539 Q231.6563,419.4727 231.0313,419.4727 Q229.6875,419.4727 229,420.5508 Q228.3125,421.6133 228.3125,423.707 Q228.3125,425.8008 229,426.8789 Q229.6875,427.9414 231.0313,427.9414 Q231.6563,427.9414 232.25,427.6758 Q232.8438,427.3945 233.4688,426.8164 L233.4688,429.5352 Z"/><text x="249.5" y="429.78" fill="#FFE797" font-family="Helvetica" font-size="17" lengthAdjust="spacing" textLength="113">aws_resource</text><line style="stroke:#000;stroke-width:1.5" x1="216.5" x2="369.5" y1="443.789" y2="443.789"/><text x="226.5" y="463" fill="#FFE797" font-family="sans-serif" font-size="11" font-weight="bold" lengthAdjust="spacing" textLength="21">arn</text><text x="247.5" y="463" fill="#FFE797" font-family="sans-serif" font-size="11" lengthAdjust="spacing" textLength="41">: string</text><rect id="group" width="90" height="39.789" x="90" y="419.5" fill="#194875" codeLine="32" rx="2.5" ry="2.5" style="stroke:#000;stroke-width:1.5"/><ellipse cx="105" cy="439.394" fill="#1A83AF" rx="11" ry="11" style="stroke:#000;stroke-width:1"/><path fill="#000" d="M107.9688,445.0352 Q107.3906,445.332 106.75,445.4727 Q106.1094,445.6289 105.4063,445.6289 Q102.9063,445.6289 101.5781,443.9883 Q100.2656,442.332 100.2656,439.207 Q100.2656,436.082 101.5781,434.4258 Q102.9063,432.7695 105.4063,432.7695 Q106.1094,432.7695 106.75,432.9258 Q107.4063,433.082 107.9688,433.3789 L107.9688,436.0977 Q107.3438,435.5195 106.75,435.2539 Q106.1563,434.9727 105.5313,434.9727 Q104.1875,434.9727 103.5,436.0508 Q102.8125,437.1133 102.8125,439.207 Q102.8125,441.3008 103.5,442.3789 Q104.1875,443.4414 105.5313,443.4414 Q106.1563,443.4414 106.75,443.1758 Q107.3438,442.8945 107.9688,442.3164 L107.9688,445.0352 Z"/><text x="124" y="445.28" fill="#FFE797" font-family="Helvetica" font-size="17" lengthAdjust="spacing" textLength="48">group</text><rect id="aws_iam_group" width="173" height="70.594" x="127.5" y="596" fill="#194875" codeLine="35" rx="2.5" ry="2.5" style="stroke:#000;stroke-width:1.5"/><ellipse cx="142.5" cy="615.894" fill="#1A83AF" rx="11" ry="11" style="stroke:#000;stroke-width:1"/><path fill="#000" d="M145.4688,621.5352 Q144.8906,621.832 144.25,621.9727 Q143.6094,622.1289 142.9063,622.1289 Q140.4063,622.1289 139.0781,620.4883 Q137.7656,618.832 137.7656,615.707 Q137.7656,612.582 139.0781,610.9258 Q140.4063,609.2695 142.9063,609.2695 Q143.6094,609.2695 144.25,609.4258 Q144.9063,609.582 145.4688,609.8789 L145.4688,612.5977 Q144.8438,612.0195 144.25,611.7539 Q143.6563,611.4727 143.0313,611.4727 Q141.6875,611.4727 141,612.5508 Q140.3125,613.6133 140.3125,615.707 Q140.3125,617.8008 141,618.8789 Q141.6875,619.9414 143.0313,619.9414 Q143.6563,619.9414 144.25,619.6758 Q144.8438,619.3945 145.4688,618.8164 L145.4688,621.5352 Z"/><text x="161.5" y="621.78" fill="#FFE797" font-family="Helvetica" font-size="17" lengthAdjust="spacing" textLength="131">aws_iam_group</text><line style="stroke:#000;stroke-width:1.5" x1="128.5" x2="299.5" y1="635.789" y2="635.789"/><text x="138.5" y="655" fill="#FFE797" font-family="sans-serif" font-size="11" font-weight="bold" lengthAdjust="spacing" textLength="93">group_policies</text><text x="231.5" y="655" fill="#FFE797" font-family="sans-serif" font-size="11" lengthAdjust="spacing" textLength="36">: any[]</text><path id="resource-backto-group" fill="none" d="M135,303.51 C135,349.86 135,394.69 135,419.24" codeLine="38" style="stroke:#ffaf37;stroke-width:2"/><polygon fill="none" points="128 303.26 135 283.26 142 303.26 128 303.26" style="stroke:#ffaf37;stroke-width:2"/><path id="aws_resource-backto-aws_iam_group" fill="none" d="M270.77,493.96 C257.2,526.61 240.23,567.41 228.4,595.87" codeLine="39" style="stroke:#ffaf37;stroke-width:2"/><polygon fill="none" points="264.37 491.13 278.51 475.35 277.3 496.5 264.37 491.13" style="stroke:#ffaf37;stroke-width:2"/><path id="group-backto-aws_iam_group" fill="none" d="M150.72,478.3 C164.95,512.53 185.75,562.56 199.57,595.79" codeLine="40" style="stroke:#ffaf37;stroke-width:2"/><polygon fill="none" points="144.22 480.92 143.01 459.76 157.15 475.54 144.22 480.92" style="stroke:#ffaf37;stroke-width:2"/></g></svg>