<?xml version="1.0" encoding="UTF-8" standalone="no"?><svg xmlns="http://www.w3.org/2000/svg" xmlns:xlink="http://www.w3.org/1999/xlink" contentScriptType="application/ecmascript" contentStyleType="text/css" height="1291px" preserveAspectRatio="none" style="width:428px;height:1291px;background:#00000000;" version="1.1" viewBox="0 0 428 1291" width="428px" zoomAndPan="magnify"><defs/><g><!--MD5=[156df1ec125634b672185ad659f2920c]
class phantom_resource--><rect codeLine="17" fill="#194875" height="39.7891" id="phantom_resource" rx="2.5" ry="2.5" style="stroke:#000000;stroke-width:1.5;" width="198" x="194" y="404"/><ellipse cx="209" cy="423.8945" fill="#1A83AF" rx="11" ry="11" style="stroke:#000000;stroke-width:1.0;"/><path d="M211.9688,429.5352 Q211.3906,429.832 210.75,429.9727 Q210.1094,430.1289 209.4063,430.1289 Q206.9063,430.1289 205.5781,428.4883 Q204.2656,426.832 204.2656,423.707 Q204.2656,420.582 205.5781,418.9258 Q206.9063,417.2695 209.4063,417.2695 Q210.1094,417.2695 210.75,417.4258 Q211.4063,417.582 211.9688,417.8789 L211.9688,420.5977 Q211.3438,420.0195 210.75,419.7539 Q210.1563,419.4727 209.5313,419.4727 Q208.1875,419.4727 207.5,420.5508 Q206.8125,421.6133 206.8125,423.707 Q206.8125,425.8008 207.5,426.8789 Q208.1875,427.9414 209.5313,427.9414 Q210.1563,427.9414 210.75,427.6758 Q211.3438,427.3945 211.9688,426.8164 L211.9688,429.5352 Z " fill="#000000"/><text fill="#FFE797" font-family="Helvetica" font-size="17" lengthAdjust="spacing" textLength="156" x="228" y="429.7798">phantom_resource</text><!--MD5=[7f0ecf5f554433d3f2e1213379ac821c]
class resource--><rect codeLine="20" fill="#194875" height="275.8359" id="resource" rx="2.5" ry="2.5" style="stroke:#000000;stroke-width:1.5;" width="256" x="165" y="7"/><ellipse cx="248.25" cy="26.8945" fill="#1A83AF" rx="11" ry="11" style="stroke:#000000;stroke-width:1.0;"/><path d="M251.2188,32.5352 Q250.6406,32.832 250,32.9727 Q249.3594,33.1289 248.6563,33.1289 Q246.1563,33.1289 244.8281,31.4883 Q243.5156,29.832 243.5156,26.707 Q243.5156,23.582 244.8281,21.9258 Q246.1563,20.2695 248.6563,20.2695 Q249.3594,20.2695 250,20.4258 Q250.6563,20.582 251.2188,20.8789 L251.2188,23.5977 Q250.5938,23.0195 250,22.7539 Q249.4063,22.4727 248.7813,22.4727 Q247.4375,22.4727 246.75,23.5508 Q246.0625,24.6133 246.0625,26.707 Q246.0625,28.8008 246.75,29.8789 Q247.4375,30.9414 248.7813,30.9414 Q249.4063,30.9414 250,30.6758 Q250.5938,30.3945 251.2188,29.8164 L251.2188,32.5352 Z " fill="#000000"/><text fill="#FFE797" font-family="Helvetica" font-size="17" lengthAdjust="spacing" textLength="71" x="273.75" y="32.7798">resource</text><line style="stroke:#000000;stroke-width:1.5;" x1="166" x2="420" y1="46.7891" y2="46.7891"/><text fill="#FFE797" font-family="sans-serif" font-size="11" font-weight="bold" lengthAdjust="spacing" textLength="12" x="176" y="65.9995">id</text><text fill="#FFE797" font-family="sans-serif" font-size="11" lengthAdjust="spacing" textLength="41" x="188" y="65.9995">: string</text><text fill="#FFE797" font-family="sans-serif" font-size="11" font-weight="bold" lengthAdjust="spacing" textLength="28" x="176" y="88.8042">tags</text><text fill="#FFE797" font-family="sans-serif" font-size="11" lengthAdjust="spacing" textLength="145" x="204" y="88.8042">: dictionary[string, string]</text><text fill="#FFE797" font-family="sans-serif" font-size="11" font-weight="bold" lengthAdjust="spacing" textLength="35" x="176" y="111.6089">name</text><text fill="#FFE797" font-family="sans-serif" font-size="11" lengthAdjust="spacing" textLength="41" x="211" y="111.6089">: string</text><text fill="#FFE797" font-family="sans-serif" font-size="11" font-weight="bold" lengthAdjust="spacing" textLength="35" x="176" y="134.4136">ctime</text><text fill="#FFE797" font-family="sans-serif" font-size="11" lengthAdjust="spacing" textLength="58" x="211" y="134.4136">: datetime</text><text fill="#FFE797" font-family="sans-serif" font-size="11" font-weight="bold" lengthAdjust="spacing" textLength="24" x="176" y="157.2183">age</text><text fill="#FFE797" font-family="sans-serif" font-size="11" lengthAdjust="spacing" textLength="159" x="200" y="157.2183">: trafo.duration_to_datetime</text><text fill="#FFE797" font-family="sans-serif" font-size="11" font-weight="bold" lengthAdjust="spacing" textLength="39" x="176" y="180.0229">mtime</text><text fill="#FFE797" font-family="sans-serif" font-size="11" lengthAdjust="spacing" textLength="58" x="215" y="180.0229">: datetime</text><text fill="#FFE797" font-family="sans-serif" font-size="11" font-weight="bold" lengthAdjust="spacing" textLength="75" x="176" y="202.8276">last_update</text><text fill="#FFE797" font-family="sans-serif" font-size="11" lengthAdjust="spacing" textLength="159" x="251" y="202.8276">: trafo.duration_to_datetime</text><text fill="#FFE797" font-family="sans-serif" font-size="11" font-weight="bold" lengthAdjust="spacing" textLength="36" x="176" y="225.6323">atime</text><text fill="#FFE797" font-family="sans-serif" font-size="11" lengthAdjust="spacing" textLength="58" x="212" y="225.6323">: datetime</text><text fill="#FFE797" font-family="sans-serif" font-size="11" font-weight="bold" lengthAdjust="spacing" textLength="74" x="176" y="248.437">last_access</text><text fill="#FFE797" font-family="sans-serif" font-size="11" lengthAdjust="spacing" textLength="159" x="250" y="248.437">: trafo.duration_to_datetime</text><text fill="#FFE797" font-family="sans-serif" font-size="11" font-weight="bold" lengthAdjust="spacing" textLength="27" x="176" y="271.2417">kind</text><text fill="#FFE797" font-family="sans-serif" font-size="11" lengthAdjust="spacing" textLength="41" x="203" y="271.2417">: string</text><!--MD5=[c069b88079f3e36515859a1683f3923c]
class aws_resource--><rect codeLine="32" fill="#194875" height="70.5938" id="aws_resource" rx="2.5" ry="2.5" style="stroke:#000000;stroke-width:1.5;" width="155" x="13.5" y="1008.5"/><ellipse cx="28.5" cy="1028.3945" fill="#1A83AF" rx="11" ry="11" style="stroke:#000000;stroke-width:1.0;"/><path d="M31.4688,1034.0352 Q30.8906,1034.332 30.25,1034.4727 Q29.6094,1034.6289 28.9063,1034.6289 Q26.4063,1034.6289 25.0781,1032.9883 Q23.7656,1031.332 23.7656,1028.207 Q23.7656,1025.082 25.0781,1023.4258 Q26.4063,1021.7695 28.9063,1021.7695 Q29.6094,1021.7695 30.25,1021.9258 Q30.9063,1022.082 31.4688,1022.3789 L31.4688,1025.0977 Q30.8438,1024.5195 30.25,1024.2539 Q29.6563,1023.9727 29.0313,1023.9727 Q27.6875,1023.9727 27,1025.0508 Q26.3125,1026.1133 26.3125,1028.207 Q26.3125,1030.3008 27,1031.3789 Q27.6875,1032.4414 29.0313,1032.4414 Q29.6563,1032.4414 30.25,1032.1758 Q30.8438,1031.8945 31.4688,1031.3164 L31.4688,1034.0352 Z " fill="#000000"/><text fill="#FFE797" font-family="Helvetica" font-size="17" lengthAdjust="spacing" textLength="113" x="47.5" y="1034.2798">aws_resource</text><line style="stroke:#000000;stroke-width:1.5;" x1="14.5" x2="167.5" y1="1048.2891" y2="1048.2891"/><text fill="#FFE797" font-family="sans-serif" font-size="11" font-weight="bold" lengthAdjust="spacing" textLength="21" x="24.5" y="1067.4995">arn</text><text fill="#FFE797" font-family="sans-serif" font-size="11" lengthAdjust="spacing" textLength="41" x="45.5" y="1067.4995">: string</text><!--MD5=[22174b9730fcba0c4a11f474626e54a0]
class instance_type--><rect codeLine="35" fill="#194875" height="161.8125" id="instance_type" rx="2.5" ry="2.5" style="stroke:#000000;stroke-width:1.5;" width="179" x="203.5" y="963"/><ellipse cx="227.95" cy="982.8945" fill="#1A83AF" rx="11" ry="11" style="stroke:#000000;stroke-width:1.0;"/><path d="M230.9188,988.5352 Q230.3406,988.832 229.7,988.9727 Q229.0594,989.1289 228.3563,989.1289 Q225.8563,989.1289 224.5281,987.4883 Q223.2156,985.832 223.2156,982.707 Q223.2156,979.582 224.5281,977.9258 Q225.8563,976.2695 228.3563,976.2695 Q229.0594,976.2695 229.7,976.4258 Q230.3563,976.582 230.9188,976.8789 L230.9188,979.5977 Q230.2938,979.0195 229.7,978.7539 Q229.1063,978.4727 228.4813,978.4727 Q227.1375,978.4727 226.45,979.5508 Q225.7625,980.6133 225.7625,982.707 Q225.7625,984.8008 226.45,985.8789 Q227.1375,986.9414 228.4813,986.9414 Q229.1063,986.9414 229.7,986.6758 Q230.2938,986.3945 230.9188,985.8164 L230.9188,988.5352 Z " fill="#000000"/><text fill="#FFE797" font-family="Helvetica" font-size="17" lengthAdjust="spacing" textLength="116" x="249.05" y="988.7798">instance_type</text><line style="stroke:#000000;stroke-width:1.5;" x1="204.5" x2="381.5" y1="1002.7891" y2="1002.7891"/><text fill="#FFE797" font-family="sans-serif" font-size="11" font-weight="bold" lengthAdjust="spacing" textLength="89" x="214.5" y="1021.9995">instance_type</text><text fill="#FFE797" font-family="sans-serif" font-size="11" lengthAdjust="spacing" textLength="41" x="303.5" y="1021.9995">: string</text><text fill="#FFE797" font-family="sans-serif" font-size="11" font-weight="bold" lengthAdjust="spacing" textLength="96" x="214.5" y="1044.8042">instance_cores</text><text fill="#FFE797" font-family="sans-serif" font-size="11" lengthAdjust="spacing" textLength="46" x="310.5" y="1044.8042">: double</text><text fill="#FFE797" font-family="sans-serif" font-size="11" font-weight="bold" lengthAdjust="spacing" textLength="111" x="214.5" y="1067.6089">instance_memory</text><text fill="#FFE797" font-family="sans-serif" font-size="11" lengthAdjust="spacing" textLength="46" x="325.5" y="1067.6089">: double</text><text fill="#FFE797" font-family="sans-serif" font-size="11" font-weight="bold" lengthAdjust="spacing" textLength="100" x="214.5" y="1090.4136">ondemand_cost</text><text fill="#FFE797" font-family="sans-serif" font-size="11" lengthAdjust="spacing" textLength="46" x="314.5" y="1090.4136">: double</text><text fill="#FFE797" font-family="sans-serif" font-size="11" font-weight="bold" lengthAdjust="spacing" textLength="80" x="214.5" y="1113.2183">reservations</text><text fill="#FFE797" font-family="sans-serif" font-size="11" lengthAdjust="spacing" textLength="36" x="294.5" y="1113.2183">: int64</text><!--MD5=[857a356b9e77f83de603e0318f36b735]
class type--><rect codeLine="42" fill="#194875" height="39.7891" id="type" rx="2.5" ry="2.5" style="stroke:#000000;stroke-width:1.5;" width="79" x="253.5" y="802"/><ellipse cx="268.5" cy="821.8945" fill="#1A83AF" rx="11" ry="11" style="stroke:#000000;stroke-width:1.0;"/><path d="M271.4688,827.5352 Q270.8906,827.832 270.25,827.9727 Q269.6094,828.1289 268.9063,828.1289 Q266.4063,828.1289 265.0781,826.4883 Q263.7656,824.832 263.7656,821.707 Q263.7656,818.582 265.0781,816.9258 Q266.4063,815.2695 268.9063,815.2695 Q269.6094,815.2695 270.25,815.4258 Q270.9063,815.582 271.4688,815.8789 L271.4688,818.5977 Q270.8438,818.0195 270.25,817.7539 Q269.6563,817.4727 269.0313,817.4727 Q267.6875,817.4727 267,818.5508 Q266.3125,819.6133 266.3125,821.707 Q266.3125,823.8008 267,824.8789 Q267.6875,825.9414 269.0313,825.9414 Q269.6563,825.9414 270.25,825.6758 Q270.8438,825.3945 271.4688,824.8164 L271.4688,827.5352 Z " fill="#000000"/><text fill="#FFE797" font-family="Helvetica" font-size="17" lengthAdjust="spacing" textLength="37" x="287.5" y="827.7798">type</text><!--MD5=[205bc3e74ea7d385e2b6aa1bb29a5024]
class quota--><rect codeLine="45" fill="#194875" height="116.2031" id="quota" rx="2.5" ry="2.5" style="stroke:#000000;stroke-width:1.5;" width="134" x="226" y="565"/><ellipse cx="260.8" cy="584.8945" fill="#1A83AF" rx="11" ry="11" style="stroke:#000000;stroke-width:1.0;"/><path d="M263.7688,590.5352 Q263.1906,590.832 262.55,590.9727 Q261.9094,591.1289 261.2063,591.1289 Q258.7063,591.1289 257.3781,589.4883 Q256.0656,587.832 256.0656,584.707 Q256.0656,581.582 257.3781,579.9258 Q258.7063,578.2695 261.2063,578.2695 Q261.9094,578.2695 262.55,578.4258 Q263.2063,578.582 263.7688,578.8789 L263.7688,581.5977 Q263.1438,581.0195 262.55,580.7539 Q261.9563,580.4727 261.3313,580.4727 Q259.9875,580.4727 259.3,581.5508 Q258.6125,582.6133 258.6125,584.707 Q258.6125,586.8008 259.3,587.8789 Q259.9875,588.9414 261.3313,588.9414 Q261.9563,588.9414 262.55,588.6758 Q263.1438,588.3945 263.7688,587.8164 L263.7688,590.5352 Z " fill="#000000"/><text fill="#FFE797" font-family="Helvetica" font-size="17" lengthAdjust="spacing" textLength="48" x="284.2" y="590.7798">quota</text><line style="stroke:#000000;stroke-width:1.5;" x1="227" x2="359" y1="604.7891" y2="604.7891"/><text fill="#FFE797" font-family="sans-serif" font-size="11" font-weight="bold" lengthAdjust="spacing" textLength="37" x="237" y="623.9995">quota</text><text fill="#FFE797" font-family="sans-serif" font-size="11" lengthAdjust="spacing" textLength="46" x="274" y="623.9995">: double</text><text fill="#FFE797" font-family="sans-serif" font-size="11" font-weight="bold" lengthAdjust="spacing" textLength="39" x="237" y="646.8042">usage</text><text fill="#FFE797" font-family="sans-serif" font-size="11" lengthAdjust="spacing" textLength="46" x="276" y="646.8042">: double</text><text fill="#FFE797" font-family="sans-serif" font-size="11" font-weight="bold" lengthAdjust="spacing" textLength="71" x="237" y="669.6089">quota_type</text><text fill="#FFE797" font-family="sans-serif" font-size="11" lengthAdjust="spacing" textLength="41" x="308" y="669.6089">: string</text><!--MD5=[74634683f39a5ca82dd1e604ce342c83]
class aws_ec2_instance_type--><rect codeLine="50" fill="#194875" height="39.7891" id="aws_ec2_instance_type" rx="2.5" ry="2.5" style="stroke:#000000;stroke-width:1.5;" width="238" x="7" y="1246"/><ellipse cx="22" cy="1265.8945" fill="#1A83AF" rx="11" ry="11" style="stroke:#000000;stroke-width:1.0;"/><path d="M24.9688,1271.5352 Q24.3906,1271.832 23.75,1271.9727 Q23.1094,1272.1289 22.4063,1272.1289 Q19.9063,1272.1289 18.5781,1270.4883 Q17.2656,1268.832 17.2656,1265.707 Q17.2656,1262.582 18.5781,1260.9258 Q19.9063,1259.2695 22.4063,1259.2695 Q23.1094,1259.2695 23.75,1259.4258 Q24.4063,1259.582 24.9688,1259.8789 L24.9688,1262.5977 Q24.3438,1262.0195 23.75,1261.7539 Q23.1563,1261.4727 22.5313,1261.4727 Q21.1875,1261.4727 20.5,1262.5508 Q19.8125,1263.6133 19.8125,1265.707 Q19.8125,1267.8008 20.5,1268.8789 Q21.1875,1269.9414 22.5313,1269.9414 Q23.1563,1269.9414 23.75,1269.6758 Q24.3438,1269.3945 24.9688,1268.8164 L24.9688,1271.5352 Z " fill="#000000"/><text fill="#FFE797" font-family="Helvetica" font-size="17" lengthAdjust="spacing" textLength="196" x="41" y="1271.7798">aws_ec2_instance_type</text><!--MD5=[e134558fd6f7e839ecb28ecbda576c0a]
reverse link resource to phantom_resource--><path codeLine="53" d="M293,303.48 C293,343.73 293,381.81 293,403.75 " fill="none" id="resource-backto-phantom_resource" style="stroke:#FFAF37;stroke-width:2.0;"/><polygon fill="none" points="286,303.28,293,283.28,300,303.28,286,303.28" style="stroke:#FFAF37;stroke-width:2.0;"/><!--MD5=[7a87f7234cfb9411de5223c7712455cd]
reverse link type to instance_type--><path codeLine="54" d="M293,862.38 C293,890.28 293,928.68 293,962.9 " fill="none" id="type-backto-instance_type" style="stroke:#FFAF37;stroke-width:2.0;"/><polygon fill="none" points="286,862.14,293,842.14,300,862.14,286,862.14" style="stroke:#FFAF37;stroke-width:2.0;"/><!--MD5=[63e5c77e033f786e30b084e57dcd0955]
reverse link quota to type--><path codeLine="55" d="M293,701.27 C293,737.8 293,778.42 293,801.71 " fill="none" id="quota-backto-type" style="stroke:#FFAF37;stroke-width:2.0;"/><polygon fill="none" points="286,701.25,293,681.25,300,701.25,286,701.25" style="stroke:#FFAF37;stroke-width:2.0;"/><!--MD5=[8c556d10106c40540c768b31155cb09d]
reverse link phantom_resource to quota--><path codeLine="56" d="M293,464.28 C293,493.07 293,532.58 293,564.86 " fill="none" id="phantom_resource-backto-quota" style="stroke:#FFAF37;stroke-width:2.0;"/><polygon fill="none" points="286,464.25,293,444.25,300,464.25,286,464.25" style="stroke:#FFAF37;stroke-width:2.0;"/><!--MD5=[0e0472fa43197d825a16ca381a191ca5]
reverse link aws_resource to aws_ec2_instance_type--><path codeLine="57" d="M99.69,1099.62 C107.27,1147.28 117.84,1213.72 122.97,1245.95 " fill="none" id="aws_resource-backto-aws_ec2_instance_type" style="stroke:#FFAF37;stroke-width:2.0;"/><polygon fill="none" points="92.78,1100.71,96.55,1079.86,106.6,1098.51,92.78,1100.71" style="stroke:#FFAF37;stroke-width:2.0;"/><!--MD5=[fb4efaee94f4b55287687ecf73c4a481]
reverse link instance_type to aws_ec2_instance_type--><path codeLine="58" d="M220.06,1141.09 C190.24,1180.37 158.6,1222.05 140.67,1245.67 " fill="none" id="instance_type-backto-aws_ec2_instance_type" style="stroke:#FFAF37;stroke-width:2.0;"/><polygon fill="none" points="214.57,1136.75,232.24,1125.05,225.72,1145.21,214.57,1136.75" style="stroke:#FFAF37;stroke-width:2.0;"/><!--MD5=[2add4e11c00f91979059a8175ec7a0cf]
@startuml
hide empty members
skinparam ArrowColor #ffaf37
skinparam ArrowThickness 2
skinparam BackgroundColor transparent
skinparam ClassAttributeFontColor #ffe797
skinparam ClassBackgroundColor #194875
skinparam ClassBorderColor Black
skinparam ClassFontColor #ffe797
skinparam ClassFontName Helvetica
skinparam ClassFontSize 17
skinparam Padding 5
skinparam RoundCorner 5
skinparam Shadowing false
skinparam stereotypeCBackgroundColor #1a83af
skinparam stereotypeIBackgroundColor #1a83af

class phantom_resource {

}
class resource {
**id**: string
**tags**: dictionary[string, string]
**name**: string
**ctime**: datetime
**age**: trafo.duration_to_datetime
**mtime**: datetime
**last_update**: trafo.duration_to_datetime
**atime**: datetime
**last_access**: trafo.duration_to_datetime
**kind**: string
}
class aws_resource {
**arn**: string
}
class instance_type {
**instance_type**: string
**instance_cores**: double
**instance_memory**: double
**ondemand_cost**: double
**reservations**: int64
}
class type {

}
class quota {
**quota**: double
**usage**: double
**quota_type**: string
}
class aws_ec2_instance_type {

}
resource <|- - - phantom_resource
type <|- - - instance_type
quota <|- - - type
phantom_resource <|- - - quota
aws_resource <|- - - aws_ec2_instance_type
instance_type <|- - - aws_ec2_instance_type
@enduml

PlantUML version 1.2021.16(Wed Dec 08 17:25:22 UTC 2021)
(GPL source distribution)
Java Runtime: OpenJDK Runtime Environment
JVM: OpenJDK 64-Bit Server VM
Default Encoding: UTF-8
Language: en
Country: null
--></g></svg>