<svg xmlns="http://www.w3.org/2000/svg" xmlns:xlink="http://www.w3.org/1999/xlink" width="416" height="1039" contentScriptType="application/ecmascript" contentStyleType="text/css" style="width:416px;height:1039px;background:#00000000" preserveAspectRatio="none" version="1.1" viewBox="0 0 416 1039" zoomAndPan="magnify"><g><rect id="phantom_resource" width="198" height="39.789" x="182.5" y="404" fill="#194875" codeLine="17" rx="2.5" ry="2.5" style="stroke:#000;stroke-width:1.5"/><ellipse cx="197.5" cy="423.894" fill="#1A83AF" rx="11" ry="11" style="stroke:#000;stroke-width:1"/><path fill="#000" d="M200.4688,429.5352 Q199.8906,429.832 199.25,429.9727 Q198.6094,430.1289 197.9063,430.1289 Q195.4063,430.1289 194.0781,428.4883 Q192.7656,426.832 192.7656,423.707 Q192.7656,420.582 194.0781,418.9258 Q195.4063,417.2695 197.9063,417.2695 Q198.6094,417.2695 199.25,417.4258 Q199.9063,417.582 200.4688,417.8789 L200.4688,420.5977 Q199.8438,420.0195 199.25,419.7539 Q198.6563,419.4727 198.0313,419.4727 Q196.6875,419.4727 196,420.5508 Q195.3125,421.6133 195.3125,423.707 Q195.3125,425.8008 196,426.8789 Q196.6875,427.9414 198.0313,427.9414 Q198.6563,427.9414 199.25,427.6758 Q199.8438,427.3945 200.4688,426.8164 L200.4688,429.5352 Z"/><text x="216.5" y="429.78" fill="#FFE797" font-family="Helvetica" font-size="17" lengthAdjust="spacing" textLength="156">phantom_resource</text><rect id="resource" width="256" height="275.836" x="153.5" y="7" fill="#194875" codeLine="20" rx="2.5" ry="2.5" style="stroke:#000;stroke-width:1.5"/><ellipse cx="236.75" cy="26.895" fill="#1A83AF" rx="11" ry="11" style="stroke:#000;stroke-width:1"/><path fill="#000" d="M239.7188,32.5352 Q239.1406,32.832 238.5,32.9727 Q237.8594,33.1289 237.1563,33.1289 Q234.6563,33.1289 233.3281,31.4883 Q232.0156,29.832 232.0156,26.707 Q232.0156,23.582 233.3281,21.9258 Q234.6563,20.2695 237.1563,20.2695 Q237.8594,20.2695 238.5,20.4258 Q239.1563,20.582 239.7188,20.8789 L239.7188,23.5977 Q239.0938,23.0195 238.5,22.7539 Q237.9063,22.4727 237.2813,22.4727 Q235.9375,22.4727 235.25,23.5508 Q234.5625,24.6133 234.5625,26.707 Q234.5625,28.8008 235.25,29.8789 Q235.9375,30.9414 237.2813,30.9414 Q237.9063,30.9414 238.5,30.6758 Q239.0938,30.3945 239.7188,29.8164 L239.7188,32.5352 Z"/><text x="262.25" y="32.78" fill="#FFE797" font-family="Helvetica" font-size="17" lengthAdjust="spacing" textLength="71">resource</text><line style="stroke:#000;stroke-width:1.5" x1="154.5" x2="408.5" y1="46.789" y2="46.789"/><text x="164.5" y="65.999" fill="#FFE797" font-family="sans-serif" font-size="11" font-weight="bold" lengthAdjust="spacing" textLength="12">id</text><text x="176.5" y="65.999" fill="#FFE797" font-family="sans-serif" font-size="11" lengthAdjust="spacing" textLength="41">: string</text><text x="164.5" y="88.804" fill="#FFE797" font-family="sans-serif" font-size="11" font-weight="bold" lengthAdjust="spacing" textLength="28">tags</text><text x="192.5" y="88.804" fill="#FFE797" font-family="sans-serif" font-size="11" lengthAdjust="spacing" textLength="145">: dictionary[string, string]</text><text x="164.5" y="111.609" fill="#FFE797" font-family="sans-serif" font-size="11" font-weight="bold" lengthAdjust="spacing" textLength="35">name</text><text x="199.5" y="111.609" fill="#FFE797" font-family="sans-serif" font-size="11" lengthAdjust="spacing" textLength="41">: string</text><text x="164.5" y="134.414" fill="#FFE797" font-family="sans-serif" font-size="11" font-weight="bold" lengthAdjust="spacing" textLength="35">ctime</text><text x="199.5" y="134.414" fill="#FFE797" font-family="sans-serif" font-size="11" lengthAdjust="spacing" textLength="58">: datetime</text><text x="164.5" y="157.218" fill="#FFE797" font-family="sans-serif" font-size="11" font-weight="bold" lengthAdjust="spacing" textLength="24">age</text><text x="188.5" y="157.218" fill="#FFE797" font-family="sans-serif" font-size="11" lengthAdjust="spacing" textLength="159">: trafo.duration_to_datetime</text><text x="164.5" y="180.023" fill="#FFE797" font-family="sans-serif" font-size="11" font-weight="bold" lengthAdjust="spacing" textLength="39">mtime</text><text x="203.5" y="180.023" fill="#FFE797" font-family="sans-serif" font-size="11" lengthAdjust="spacing" textLength="58">: datetime</text><text x="164.5" y="202.828" fill="#FFE797" font-family="sans-serif" font-size="11" font-weight="bold" lengthAdjust="spacing" textLength="75">last_update</text><text x="239.5" y="202.828" fill="#FFE797" font-family="sans-serif" font-size="11" lengthAdjust="spacing" textLength="159">: trafo.duration_to_datetime</text><text x="164.5" y="225.632" fill="#FFE797" font-family="sans-serif" font-size="11" font-weight="bold" lengthAdjust="spacing" textLength="36">atime</text><text x="200.5" y="225.632" fill="#FFE797" font-family="sans-serif" font-size="11" lengthAdjust="spacing" textLength="58">: datetime</text><text x="164.5" y="248.437" fill="#FFE797" font-family="sans-serif" font-size="11" font-weight="bold" lengthAdjust="spacing" textLength="74">last_access</text><text x="238.5" y="248.437" fill="#FFE797" font-family="sans-serif" font-size="11" lengthAdjust="spacing" textLength="159">: trafo.duration_to_datetime</text><text x="164.5" y="271.242" fill="#FFE797" font-family="sans-serif" font-size="11" font-weight="bold" lengthAdjust="spacing" textLength="27">kind</text><text x="191.5" y="271.242" fill="#FFE797" font-family="sans-serif" font-size="11" lengthAdjust="spacing" textLength="41">: string</text><rect id="aws_resource" width="155" height="70.594" x="7" y="802" fill="#194875" codeLine="32" rx="2.5" ry="2.5" style="stroke:#000;stroke-width:1.5"/><ellipse cx="22" cy="821.894" fill="#1A83AF" rx="11" ry="11" style="stroke:#000;stroke-width:1"/><path fill="#000" d="M24.9688,827.5352 Q24.3906,827.832 23.75,827.9727 Q23.1094,828.1289 22.4063,828.1289 Q19.9063,828.1289 18.5781,826.4883 Q17.2656,824.832 17.2656,821.707 Q17.2656,818.582 18.5781,816.9258 Q19.9063,815.2695 22.4063,815.2695 Q23.1094,815.2695 23.75,815.4258 Q24.4063,815.582 24.9688,815.8789 L24.9688,818.5977 Q24.3438,818.0195 23.75,817.7539 Q23.1563,817.4727 22.5313,817.4727 Q21.1875,817.4727 20.5,818.5508 Q19.8125,819.6133 19.8125,821.707 Q19.8125,823.8008 20.5,824.8789 Q21.1875,825.9414 22.5313,825.9414 Q23.1563,825.9414 23.75,825.6758 Q24.3438,825.3945 24.9688,824.8164 L24.9688,827.5352 Z"/><text x="41" y="827.78" fill="#FFE797" font-family="Helvetica" font-size="17" lengthAdjust="spacing" textLength="113">aws_resource</text><line style="stroke:#000;stroke-width:1.5" x1="8" x2="161" y1="841.789" y2="841.789"/><text x="18" y="861" fill="#FFE797" font-family="sans-serif" font-size="11" font-weight="bold" lengthAdjust="spacing" textLength="21">arn</text><text x="39" y="861" fill="#FFE797" font-family="sans-serif" font-size="11" lengthAdjust="spacing" textLength="41">: string</text><rect id="quota" width="134" height="116.203" x="214.5" y="565" fill="#194875" codeLine="35" rx="2.5" ry="2.5" style="stroke:#000;stroke-width:1.5"/><ellipse cx="249.3" cy="584.894" fill="#1A83AF" rx="11" ry="11" style="stroke:#000;stroke-width:1"/><path fill="#000" d="M252.2688,590.5352 Q251.6906,590.832 251.05,590.9727 Q250.4094,591.1289 249.7063,591.1289 Q247.2063,591.1289 245.8781,589.4883 Q244.5656,587.832 244.5656,584.707 Q244.5656,581.582 245.8781,579.9258 Q247.2063,578.2695 249.7063,578.2695 Q250.4094,578.2695 251.05,578.4258 Q251.7063,578.582 252.2688,578.8789 L252.2688,581.5977 Q251.6438,581.0195 251.05,580.7539 Q250.4563,580.4727 249.8313,580.4727 Q248.4875,580.4727 247.8,581.5508 Q247.1125,582.6133 247.1125,584.707 Q247.1125,586.8008 247.8,587.8789 Q248.4875,588.9414 249.8313,588.9414 Q250.4563,588.9414 251.05,588.6758 Q251.6438,588.3945 252.2688,587.8164 L252.2688,590.5352 Z"/><text x="272.7" y="590.78" fill="#FFE797" font-family="Helvetica" font-size="17" lengthAdjust="spacing" textLength="48">quota</text><line style="stroke:#000;stroke-width:1.5" x1="215.5" x2="347.5" y1="604.789" y2="604.789"/><text x="225.5" y="624" fill="#FFE797" font-family="sans-serif" font-size="11" font-weight="bold" lengthAdjust="spacing" textLength="37">quota</text><text x="262.5" y="624" fill="#FFE797" font-family="sans-serif" font-size="11" lengthAdjust="spacing" textLength="46">: double</text><text x="225.5" y="646.804" fill="#FFE797" font-family="sans-serif" font-size="11" font-weight="bold" lengthAdjust="spacing" textLength="39">usage</text><text x="264.5" y="646.804" fill="#FFE797" font-family="sans-serif" font-size="11" lengthAdjust="spacing" textLength="46">: double</text><text x="225.5" y="669.609" fill="#FFE797" font-family="sans-serif" font-size="11" font-weight="bold" lengthAdjust="spacing" textLength="71">quota_type</text><text x="296.5" y="669.609" fill="#FFE797" font-family="sans-serif" font-size="11" lengthAdjust="spacing" textLength="41">: string</text><rect id="network_quota" width="169" height="39.789" x="197" y="817.5" fill="#194875" codeLine="40" rx="2.5" ry="2.5" style="stroke:#000;stroke-width:1.5"/><ellipse cx="212" cy="837.394" fill="#1A83AF" rx="11" ry="11" style="stroke:#000;stroke-width:1"/><path fill="#000" d="M214.9688,843.0352 Q214.3906,843.332 213.75,843.4727 Q213.1094,843.6289 212.4063,843.6289 Q209.9063,843.6289 208.5781,841.9883 Q207.2656,840.332 207.2656,837.207 Q207.2656,834.082 208.5781,832.4258 Q209.9063,830.7695 212.4063,830.7695 Q213.1094,830.7695 213.75,830.9258 Q214.4063,831.082 214.9688,831.3789 L214.9688,834.0977 Q214.3438,833.5195 213.75,833.2539 Q213.1563,832.9727 212.5313,832.9727 Q211.1875,832.9727 210.5,834.0508 Q209.8125,835.1133 209.8125,837.207 Q209.8125,839.3008 210.5,840.3789 Q211.1875,841.4414 212.5313,841.4414 Q213.1563,841.4414 213.75,841.1758 Q214.3438,840.8945 214.9688,840.3164 L214.9688,843.0352 Z"/><text x="231" y="843.28" fill="#FFE797" font-family="Helvetica" font-size="17" lengthAdjust="spacing" textLength="127">network_quota</text><rect id="aws_vpc_quota" width="169" height="39.789" x="35" y="994" fill="#194875" codeLine="43" rx="2.5" ry="2.5" style="stroke:#000;stroke-width:1.5"/><ellipse cx="50" cy="1013.894" fill="#1A83AF" rx="11" ry="11" style="stroke:#000;stroke-width:1"/><path fill="#000" d="M52.9688,1019.5352 Q52.3906,1019.832 51.75,1019.9727 Q51.1094,1020.1289 50.4063,1020.1289 Q47.9063,1020.1289 46.5781,1018.4883 Q45.2656,1016.832 45.2656,1013.707 Q45.2656,1010.582 46.5781,1008.9258 Q47.9063,1007.2695 50.4063,1007.2695 Q51.1094,1007.2695 51.75,1007.4258 Q52.4063,1007.582 52.9688,1007.8789 L52.9688,1010.5977 Q52.3438,1010.0195 51.75,1009.7539 Q51.1563,1009.4727 50.5313,1009.4727 Q49.1875,1009.4727 48.5,1010.5508 Q47.8125,1011.6133 47.8125,1013.707 Q47.8125,1015.8008 48.5,1016.8789 Q49.1875,1017.9414 50.5313,1017.9414 Q51.1563,1017.9414 51.75,1017.6758 Q52.3438,1017.3945 52.9688,1016.8164 L52.9688,1019.5352 Z"/><text x="69" y="1019.78" fill="#FFE797" font-family="Helvetica" font-size="17" lengthAdjust="spacing" textLength="127">aws_vpc_quota</text><path id="resource-backto-phantom_resource" fill="none" d="M281.5,303.48 C281.5,343.73 281.5,381.81 281.5,403.75" codeLine="46" style="stroke:#ffaf37;stroke-width:2"/><polygon fill="none" points="274.5 303.28 281.5 283.28 288.5 303.28 274.5 303.28" style="stroke:#ffaf37;stroke-width:2"/><path id="phantom_resource-backto-quota" fill="none" d="M281.5,464.28 C281.5,493.07 281.5,532.58 281.5,564.86" codeLine="47" style="stroke:#ffaf37;stroke-width:2"/><polygon fill="none" points="274.5 464.25 281.5 444.25 288.5 464.25 274.5 464.25" style="stroke:#ffaf37;stroke-width:2"/><path id="quota-backto-network_quota" fill="none" d="M281.5,701.37 C281.5,743.08 281.5,791.22 281.5,817.3" codeLine="48" style="stroke:#ffaf37;stroke-width:2"/><polygon fill="none" points="274.5 701.23 281.5 681.23 288.5 701.23 274.5 701.23" style="stroke:#ffaf37;stroke-width:2"/><path id="aws_resource-backto-aws_vpc_quota" fill="none" d="M95.44,893.04 C102.34,927.43 110.82,969.75 115.65,993.82" codeLine="49" style="stroke:#ffaf37;stroke-width:2"/><polygon fill="none" points="88.57 894.38 91.5 873.39 102.3 891.63 88.57 894.38" style="stroke:#ffaf37;stroke-width:2"/><path id="network_quota-backto-aws_vpc_quota" fill="none" d="M249.88,872.57 C216.31,908.72 164.46,964.57 137.37,993.75" codeLine="50" style="stroke:#ffaf37;stroke-width:2"/><polygon fill="none" points="245.12 867.4 263.85 857.51 255.38 876.93 245.12 867.4" style="stroke:#ffaf37;stroke-width:2"/></g></svg>