<svg xmlns="http://www.w3.org/2000/svg" xmlns:xlink="http://www.w3.org/1999/xlink" width="409" height="1039" contentScriptType="application/ecmascript" contentStyleType="text/css" style="width:409px;height:1039px;background:#00000000" preserveAspectRatio="none" version="1.1" viewBox="0 0 409 1039" zoomAndPan="magnify"><g><rect id="phantom_resource" width="198" height="39.789" x="175.5" y="404" fill="#194875" codeLine="17" rx="2.5" ry="2.5" style="stroke:#000;stroke-width:1.5"/><ellipse cx="190.5" cy="423.894" fill="#1A83AF" rx="11" ry="11" style="stroke:#000;stroke-width:1"/><path fill="#000" d="M193.4688,429.5352 Q192.8906,429.832 192.25,429.9727 Q191.6094,430.1289 190.9063,430.1289 Q188.4063,430.1289 187.0781,428.4883 Q185.7656,426.832 185.7656,423.707 Q185.7656,420.582 187.0781,418.9258 Q188.4063,417.2695 190.9063,417.2695 Q191.6094,417.2695 192.25,417.4258 Q192.9063,417.582 193.4688,417.8789 L193.4688,420.5977 Q192.8438,420.0195 192.25,419.7539 Q191.6563,419.4727 191.0313,419.4727 Q189.6875,419.4727 189,420.5508 Q188.3125,421.6133 188.3125,423.707 Q188.3125,425.8008 189,426.8789 Q189.6875,427.9414 191.0313,427.9414 Q191.6563,427.9414 192.25,427.6758 Q192.8438,427.3945 193.4688,426.8164 L193.4688,429.5352 Z"/><text x="209.5" y="429.78" fill="#FFE797" font-family="Helvetica" font-size="17" lengthAdjust="spacing" textLength="156">phantom_resource</text><rect id="resource" width="256" height="275.836" x="146.5" y="7" fill="#194875" codeLine="20" rx="2.5" ry="2.5" style="stroke:#000;stroke-width:1.5"/><ellipse cx="229.75" cy="26.895" fill="#1A83AF" rx="11" ry="11" style="stroke:#000;stroke-width:1"/><path fill="#000" d="M232.7188,32.5352 Q232.1406,32.832 231.5,32.9727 Q230.8594,33.1289 230.1563,33.1289 Q227.6563,33.1289 226.3281,31.4883 Q225.0156,29.832 225.0156,26.707 Q225.0156,23.582 226.3281,21.9258 Q227.6563,20.2695 230.1563,20.2695 Q230.8594,20.2695 231.5,20.4258 Q232.1563,20.582 232.7188,20.8789 L232.7188,23.5977 Q232.0938,23.0195 231.5,22.7539 Q230.9063,22.4727 230.2813,22.4727 Q228.9375,22.4727 228.25,23.5508 Q227.5625,24.6133 227.5625,26.707 Q227.5625,28.8008 228.25,29.8789 Q228.9375,30.9414 230.2813,30.9414 Q230.9063,30.9414 231.5,30.6758 Q232.0938,30.3945 232.7188,29.8164 L232.7188,32.5352 Z"/><text x="255.25" y="32.78" fill="#FFE797" font-family="Helvetica" font-size="17" lengthAdjust="spacing" textLength="71">resource</text><line style="stroke:#000;stroke-width:1.5" x1="147.5" x2="401.5" y1="46.789" y2="46.789"/><text x="157.5" y="65.999" fill="#FFE797" font-family="sans-serif" font-size="11" font-weight="bold" lengthAdjust="spacing" textLength="12">id</text><text x="169.5" y="65.999" fill="#FFE797" font-family="sans-serif" font-size="11" lengthAdjust="spacing" textLength="41">: string</text><text x="157.5" y="88.804" fill="#FFE797" font-family="sans-serif" font-size="11" font-weight="bold" lengthAdjust="spacing" textLength="28">tags</text><text x="185.5" y="88.804" fill="#FFE797" font-family="sans-serif" font-size="11" lengthAdjust="spacing" textLength="145">: dictionary[string, string]</text><text x="157.5" y="111.609" fill="#FFE797" font-family="sans-serif" font-size="11" font-weight="bold" lengthAdjust="spacing" textLength="35">name</text><text x="192.5" y="111.609" fill="#FFE797" font-family="sans-serif" font-size="11" lengthAdjust="spacing" textLength="41">: string</text><text x="157.5" y="134.414" fill="#FFE797" font-family="sans-serif" font-size="11" font-weight="bold" lengthAdjust="spacing" textLength="35">ctime</text><text x="192.5" y="134.414" fill="#FFE797" font-family="sans-serif" font-size="11" lengthAdjust="spacing" textLength="58">: datetime</text><text x="157.5" y="157.218" fill="#FFE797" font-family="sans-serif" font-size="11" font-weight="bold" lengthAdjust="spacing" textLength="24">age</text><text x="181.5" y="157.218" fill="#FFE797" font-family="sans-serif" font-size="11" lengthAdjust="spacing" textLength="159">: trafo.duration_to_datetime</text><text x="157.5" y="180.023" fill="#FFE797" font-family="sans-serif" font-size="11" font-weight="bold" lengthAdjust="spacing" textLength="39">mtime</text><text x="196.5" y="180.023" fill="#FFE797" font-family="sans-serif" font-size="11" lengthAdjust="spacing" textLength="58">: datetime</text><text x="157.5" y="202.828" fill="#FFE797" font-family="sans-serif" font-size="11" font-weight="bold" lengthAdjust="spacing" textLength="75">last_update</text><text x="232.5" y="202.828" fill="#FFE797" font-family="sans-serif" font-size="11" lengthAdjust="spacing" textLength="159">: trafo.duration_to_datetime</text><text x="157.5" y="225.632" fill="#FFE797" font-family="sans-serif" font-size="11" font-weight="bold" lengthAdjust="spacing" textLength="36">atime</text><text x="193.5" y="225.632" fill="#FFE797" font-family="sans-serif" font-size="11" lengthAdjust="spacing" textLength="58">: datetime</text><text x="157.5" y="248.437" fill="#FFE797" font-family="sans-serif" font-size="11" font-weight="bold" lengthAdjust="spacing" textLength="74">last_access</text><text x="231.5" y="248.437" fill="#FFE797" font-family="sans-serif" font-size="11" lengthAdjust="spacing" textLength="159">: trafo.duration_to_datetime</text><text x="157.5" y="271.242" fill="#FFE797" font-family="sans-serif" font-size="11" font-weight="bold" lengthAdjust="spacing" textLength="27">kind</text><text x="184.5" y="271.242" fill="#FFE797" font-family="sans-serif" font-size="11" lengthAdjust="spacing" textLength="41">: string</text><rect id="aws_resource" width="155" height="70.594" x="7" y="802" fill="#194875" codeLine="32" rx="2.5" ry="2.5" style="stroke:#000;stroke-width:1.5"/><ellipse cx="22" cy="821.894" fill="#1A83AF" rx="11" ry="11" style="stroke:#000;stroke-width:1"/><path fill="#000" d="M24.9688,827.5352 Q24.3906,827.832 23.75,827.9727 Q23.1094,828.1289 22.4063,828.1289 Q19.9063,828.1289 18.5781,826.4883 Q17.2656,824.832 17.2656,821.707 Q17.2656,818.582 18.5781,816.9258 Q19.9063,815.2695 22.4063,815.2695 Q23.1094,815.2695 23.75,815.4258 Q24.4063,815.582 24.9688,815.8789 L24.9688,818.5977 Q24.3438,818.0195 23.75,817.7539 Q23.1563,817.4727 22.5313,817.4727 Q21.1875,817.4727 20.5,818.5508 Q19.8125,819.6133 19.8125,821.707 Q19.8125,823.8008 20.5,824.8789 Q21.1875,825.9414 22.5313,825.9414 Q23.1563,825.9414 23.75,825.6758 Q24.3438,825.3945 24.9688,824.8164 L24.9688,827.5352 Z"/><text x="41" y="827.78" fill="#FFE797" font-family="Helvetica" font-size="17" lengthAdjust="spacing" textLength="113">aws_resource</text><line style="stroke:#000;stroke-width:1.5" x1="8" x2="161" y1="841.789" y2="841.789"/><text x="18" y="861" fill="#FFE797" font-family="sans-serif" font-size="11" font-weight="bold" lengthAdjust="spacing" textLength="21">arn</text><text x="39" y="861" fill="#FFE797" font-family="sans-serif" font-size="11" lengthAdjust="spacing" textLength="41">: string</text><rect id="quota" width="134" height="116.203" x="207.5" y="565" fill="#194875" codeLine="35" rx="2.5" ry="2.5" style="stroke:#000;stroke-width:1.5"/><ellipse cx="242.3" cy="584.894" fill="#1A83AF" rx="11" ry="11" style="stroke:#000;stroke-width:1"/><path fill="#000" d="M245.2688,590.5352 Q244.6906,590.832 244.05,590.9727 Q243.4094,591.1289 242.7063,591.1289 Q240.2063,591.1289 238.8781,589.4883 Q237.5656,587.832 237.5656,584.707 Q237.5656,581.582 238.8781,579.9258 Q240.2063,578.2695 242.7063,578.2695 Q243.4094,578.2695 244.05,578.4258 Q244.7063,578.582 245.2688,578.8789 L245.2688,581.5977 Q244.6438,581.0195 244.05,580.7539 Q243.4563,580.4727 242.8313,580.4727 Q241.4875,580.4727 240.8,581.5508 Q240.1125,582.6133 240.1125,584.707 Q240.1125,586.8008 240.8,587.8789 Q241.4875,588.9414 242.8313,588.9414 Q243.4563,588.9414 244.05,588.6758 Q244.6438,588.3945 245.2688,587.8164 L245.2688,590.5352 Z"/><text x="265.7" y="590.78" fill="#FFE797" font-family="Helvetica" font-size="17" lengthAdjust="spacing" textLength="48">quota</text><line style="stroke:#000;stroke-width:1.5" x1="208.5" x2="340.5" y1="604.789" y2="604.789"/><text x="218.5" y="624" fill="#FFE797" font-family="sans-serif" font-size="11" font-weight="bold" lengthAdjust="spacing" textLength="37">quota</text><text x="255.5" y="624" fill="#FFE797" font-family="sans-serif" font-size="11" lengthAdjust="spacing" textLength="46">: double</text><text x="218.5" y="646.804" fill="#FFE797" font-family="sans-serif" font-size="11" font-weight="bold" lengthAdjust="spacing" textLength="39">usage</text><text x="257.5" y="646.804" fill="#FFE797" font-family="sans-serif" font-size="11" lengthAdjust="spacing" textLength="46">: double</text><text x="218.5" y="669.609" fill="#FFE797" font-family="sans-serif" font-size="11" font-weight="bold" lengthAdjust="spacing" textLength="71">quota_type</text><text x="289.5" y="669.609" fill="#FFE797" font-family="sans-serif" font-size="11" lengthAdjust="spacing" textLength="41">: string</text><rect id="aws_s3_bucket_quota" width="225" height="39.789" x="7" y="994" fill="#194875" codeLine="40" rx="2.5" ry="2.5" style="stroke:#000;stroke-width:1.5"/><ellipse cx="22" cy="1013.894" fill="#1A83AF" rx="11" ry="11" style="stroke:#000;stroke-width:1"/><path fill="#000" d="M24.9688,1019.5352 Q24.3906,1019.832 23.75,1019.9727 Q23.1094,1020.1289 22.4063,1020.1289 Q19.9063,1020.1289 18.5781,1018.4883 Q17.2656,1016.832 17.2656,1013.707 Q17.2656,1010.582 18.5781,1008.9258 Q19.9063,1007.2695 22.4063,1007.2695 Q23.1094,1007.2695 23.75,1007.4258 Q24.4063,1007.582 24.9688,1007.8789 L24.9688,1010.5977 Q24.3438,1010.0195 23.75,1009.7539 Q23.1563,1009.4727 22.5313,1009.4727 Q21.1875,1009.4727 20.5,1010.5508 Q19.8125,1011.6133 19.8125,1013.707 Q19.8125,1015.8008 20.5,1016.8789 Q21.1875,1017.9414 22.5313,1017.9414 Q23.1563,1017.9414 23.75,1017.6758 Q24.3438,1017.3945 24.9688,1016.8164 L24.9688,1019.5352 Z"/><text x="41" y="1019.78" fill="#FFE797" font-family="Helvetica" font-size="17" lengthAdjust="spacing" textLength="183">aws_s3_bucket_quota</text><rect id="bucket_quota" width="155" height="39.789" x="197" y="817.5" fill="#194875" codeLine="43" rx="2.5" ry="2.5" style="stroke:#000;stroke-width:1.5"/><ellipse cx="212" cy="837.394" fill="#1A83AF" rx="11" ry="11" style="stroke:#000;stroke-width:1"/><path fill="#000" d="M214.9688,843.0352 Q214.3906,843.332 213.75,843.4727 Q213.1094,843.6289 212.4063,843.6289 Q209.9063,843.6289 208.5781,841.9883 Q207.2656,840.332 207.2656,837.207 Q207.2656,834.082 208.5781,832.4258 Q209.9063,830.7695 212.4063,830.7695 Q213.1094,830.7695 213.75,830.9258 Q214.4063,831.082 214.9688,831.3789 L214.9688,834.0977 Q214.3438,833.5195 213.75,833.2539 Q213.1563,832.9727 212.5313,832.9727 Q211.1875,832.9727 210.5,834.0508 Q209.8125,835.1133 209.8125,837.207 Q209.8125,839.3008 210.5,840.3789 Q211.1875,841.4414 212.5313,841.4414 Q213.1563,841.4414 213.75,841.1758 Q214.3438,840.8945 214.9688,840.3164 L214.9688,843.0352 Z"/><text x="231" y="843.28" fill="#FFE797" font-family="Helvetica" font-size="17" lengthAdjust="spacing" textLength="113">bucket_quota</text><path id="resource-backto-phantom_resource" fill="none" d="M274.5,303.48 C274.5,343.73 274.5,381.81 274.5,403.75" codeLine="46" style="stroke:#ffaf37;stroke-width:2"/><polygon fill="none" points="267.5 303.28 274.5 283.28 281.5 303.28 267.5 303.28" style="stroke:#ffaf37;stroke-width:2"/><path id="phantom_resource-backto-quota" fill="none" d="M274.5,464.28 C274.5,493.07 274.5,532.58 274.5,564.86" codeLine="47" style="stroke:#ffaf37;stroke-width:2"/><polygon fill="none" points="267.5 464.25 274.5 444.25 281.5 464.25 267.5 464.25" style="stroke:#ffaf37;stroke-width:2"/><path id="aws_resource-backto-aws_s3_bucket_quota" fill="none" d="M95.44,893.04 C102.34,927.43 110.82,969.75 115.65,993.82" codeLine="48" style="stroke:#ffaf37;stroke-width:2"/><polygon fill="none" points="88.57 894.38 91.5 873.39 102.3 891.63 88.57 894.38" style="stroke:#ffaf37;stroke-width:2"/><path id="bucket_quota-backto-aws_s3_bucket_quota" fill="none" d="M244.24,872.57 C212.13,908.72 162.52,964.57 136.6,993.75" codeLine="49" style="stroke:#ffaf37;stroke-width:2"/><polygon fill="none" points="239.1 867.81 257.62 857.51 249.57 877.11 239.1 867.81" style="stroke:#ffaf37;stroke-width:2"/><path id="quota-backto-bucket_quota" fill="none" d="M274.5,701.37 C274.5,743.08 274.5,791.22 274.5,817.3" codeLine="50" style="stroke:#ffaf37;stroke-width:2"/><polygon fill="none" points="267.5 701.23 274.5 681.23 281.5 701.23 267.5 701.23" style="stroke:#ffaf37;stroke-width:2"/></g></svg>