<?xml version="1.0" encoding="UTF-8" standalone="no"?><svg xmlns="http://www.w3.org/2000/svg" xmlns:xlink="http://www.w3.org/1999/xlink" contentScriptType="application/ecmascript" contentStyleType="text/css" height="642px" preserveAspectRatio="none" style="width:270px;height:642px;background:#00000000;" version="1.1" viewBox="0 0 270 642" width="270px" zoomAndPan="magnify"><defs/><g><!--MD5=[9816fef65c55bd144cddd7de1655a168]
class region--><rect codeLine="17" fill="#194875" height="39.7891" id="region" rx="2.5" ry="2.5" style="stroke:#000000;stroke-width:1.5;" width="95" x="87.5" y="404"/><ellipse cx="102.5" cy="423.8945" fill="#1A83AF" rx="11" ry="11" style="stroke:#000000;stroke-width:1.0;"/><path d="M105.4688,429.5352 Q104.8906,429.832 104.25,429.9727 Q103.6094,430.1289 102.9063,430.1289 Q100.4063,430.1289 99.0781,428.4883 Q97.7656,426.832 97.7656,423.707 Q97.7656,420.582 99.0781,418.9258 Q100.4063,417.2695 102.9063,417.2695 Q103.6094,417.2695 104.25,417.4258 Q104.9063,417.582 105.4688,417.8789 L105.4688,420.5977 Q104.8438,420.0195 104.25,419.7539 Q103.6563,419.4727 103.0313,419.4727 Q101.6875,419.4727 101,420.5508 Q100.3125,421.6133 100.3125,423.707 Q100.3125,425.8008 101,426.8789 Q101.6875,427.9414 103.0313,427.9414 Q103.6563,427.9414 104.25,427.6758 Q104.8438,427.3945 105.4688,426.8164 L105.4688,429.5352 Z " fill="#000000"/><text fill="#FFE797" font-family="Helvetica" font-size="17" lengthAdjust="spacing" textLength="53" x="121.5" y="429.7798">region</text><!--MD5=[7f0ecf5f554433d3f2e1213379ac821c]
class resource--><rect codeLine="20" fill="#194875" height="275.8359" id="resource" rx="2.5" ry="2.5" style="stroke:#000000;stroke-width:1.5;" width="256" x="7" y="7"/><ellipse cx="90.25" cy="26.8945" fill="#1A83AF" rx="11" ry="11" style="stroke:#000000;stroke-width:1.0;"/><path d="M93.2188,32.5352 Q92.6406,32.832 92,32.9727 Q91.3594,33.1289 90.6563,33.1289 Q88.1563,33.1289 86.8281,31.4883 Q85.5156,29.832 85.5156,26.707 Q85.5156,23.582 86.8281,21.9258 Q88.1563,20.2695 90.6563,20.2695 Q91.3594,20.2695 92,20.4258 Q92.6563,20.582 93.2188,20.8789 L93.2188,23.5977 Q92.5938,23.0195 92,22.7539 Q91.4063,22.4727 90.7813,22.4727 Q89.4375,22.4727 88.75,23.5508 Q88.0625,24.6133 88.0625,26.707 Q88.0625,28.8008 88.75,29.8789 Q89.4375,30.9414 90.7813,30.9414 Q91.4063,30.9414 92,30.6758 Q92.5938,30.3945 93.2188,29.8164 L93.2188,32.5352 Z " fill="#000000"/><text fill="#FFE797" font-family="Helvetica" font-size="17" lengthAdjust="spacing" textLength="71" x="115.75" y="32.7798">resource</text><line style="stroke:#000000;stroke-width:1.5;" x1="8" x2="262" y1="46.7891" y2="46.7891"/><text fill="#FFE797" font-family="sans-serif" font-size="11" font-weight="bold" lengthAdjust="spacing" textLength="12" x="18" y="65.9995">id</text><text fill="#FFE797" font-family="sans-serif" font-size="11" lengthAdjust="spacing" textLength="41" x="30" y="65.9995">: string</text><text fill="#FFE797" font-family="sans-serif" font-size="11" font-weight="bold" lengthAdjust="spacing" textLength="28" x="18" y="88.8042">tags</text><text fill="#FFE797" font-family="sans-serif" font-size="11" lengthAdjust="spacing" textLength="145" x="46" y="88.8042">: dictionary[string, string]</text><text fill="#FFE797" font-family="sans-serif" font-size="11" font-weight="bold" lengthAdjust="spacing" textLength="35" x="18" y="111.6089">name</text><text fill="#FFE797" font-family="sans-serif" font-size="11" lengthAdjust="spacing" textLength="41" x="53" y="111.6089">: string</text><text fill="#FFE797" font-family="sans-serif" font-size="11" font-weight="bold" lengthAdjust="spacing" textLength="35" x="18" y="134.4136">ctime</text><text fill="#FFE797" font-family="sans-serif" font-size="11" lengthAdjust="spacing" textLength="58" x="53" y="134.4136">: datetime</text><text fill="#FFE797" font-family="sans-serif" font-size="11" font-weight="bold" lengthAdjust="spacing" textLength="24" x="18" y="157.2183">age</text><text fill="#FFE797" font-family="sans-serif" font-size="11" lengthAdjust="spacing" textLength="159" x="42" y="157.2183">: trafo.duration_to_datetime</text><text fill="#FFE797" font-family="sans-serif" font-size="11" font-weight="bold" lengthAdjust="spacing" textLength="39" x="18" y="180.0229">mtime</text><text fill="#FFE797" font-family="sans-serif" font-size="11" lengthAdjust="spacing" textLength="58" x="57" y="180.0229">: datetime</text><text fill="#FFE797" font-family="sans-serif" font-size="11" font-weight="bold" lengthAdjust="spacing" textLength="75" x="18" y="202.8276">last_update</text><text fill="#FFE797" font-family="sans-serif" font-size="11" lengthAdjust="spacing" textLength="159" x="93" y="202.8276">: trafo.duration_to_datetime</text><text fill="#FFE797" font-family="sans-serif" font-size="11" font-weight="bold" lengthAdjust="spacing" textLength="36" x="18" y="225.6323">atime</text><text fill="#FFE797" font-family="sans-serif" font-size="11" lengthAdjust="spacing" textLength="58" x="54" y="225.6323">: datetime</text><text fill="#FFE797" font-family="sans-serif" font-size="11" font-weight="bold" lengthAdjust="spacing" textLength="74" x="18" y="248.437">last_access</text><text fill="#FFE797" font-family="sans-serif" font-size="11" lengthAdjust="spacing" textLength="159" x="92" y="248.437">: trafo.duration_to_datetime</text><text fill="#FFE797" font-family="sans-serif" font-size="11" font-weight="bold" lengthAdjust="spacing" textLength="27" x="18" y="271.2417">kind</text><text fill="#FFE797" font-family="sans-serif" font-size="11" lengthAdjust="spacing" textLength="41" x="45" y="271.2417">: string</text><!--MD5=[ab1eae8f76718f629e325f873a4fb1f8]
class aws_region--><rect codeLine="32" fill="#194875" height="70.5938" id="aws_region" rx="2.5" ry="2.5" style="stroke:#000000;stroke-width:1.5;" width="137" x="66.5" y="565"/><ellipse cx="81.5" cy="584.8945" fill="#1A83AF" rx="11" ry="11" style="stroke:#000000;stroke-width:1.0;"/><path d="M84.4688,590.5352 Q83.8906,590.832 83.25,590.9727 Q82.6094,591.1289 81.9063,591.1289 Q79.4063,591.1289 78.0781,589.4883 Q76.7656,587.832 76.7656,584.707 Q76.7656,581.582 78.0781,579.9258 Q79.4063,578.2695 81.9063,578.2695 Q82.6094,578.2695 83.25,578.4258 Q83.9063,578.582 84.4688,578.8789 L84.4688,581.5977 Q83.8438,581.0195 83.25,580.7539 Q82.6563,580.4727 82.0313,580.4727 Q80.6875,580.4727 80,581.5508 Q79.3125,582.6133 79.3125,584.707 Q79.3125,586.8008 80,587.8789 Q80.6875,588.9414 82.0313,588.9414 Q82.6563,588.9414 83.25,588.6758 Q83.8438,588.3945 84.4688,587.8164 L84.4688,590.5352 Z " fill="#000000"/><text fill="#FFE797" font-family="Helvetica" font-size="17" lengthAdjust="spacing" textLength="95" x="100.5" y="590.7798">aws_region</text><line style="stroke:#000000;stroke-width:1.5;" x1="67.5" x2="202.5" y1="604.7891" y2="604.7891"/><text fill="#FFE797" font-family="sans-serif" font-size="11" font-weight="bold" lengthAdjust="spacing" textLength="35" x="77.5" y="623.9995">ctime</text><text fill="#FFE797" font-family="sans-serif" font-size="11" lengthAdjust="spacing" textLength="58" x="112.5" y="623.9995">: datetime</text><!--MD5=[d58696f1e4bc9d0c039b8d6296c69bfb]
reverse link resource to region--><path codeLine="35" d="M135,303.48 C135,343.73 135,381.81 135,403.75 " fill="none" id="resource-backto-region" style="stroke:#FFAF37;stroke-width:2.0;"/><polygon fill="none" points="128,303.28,135,283.28,142,303.28,128,303.28" style="stroke:#FFAF37;stroke-width:2.0;"/><!--MD5=[74a2c40a56fa3a45c83352f4a753fdb5]
reverse link region to aws_region--><path codeLine="36" d="M135,464.14 C135,494.39 135,535.87 135,564.91 " fill="none" id="region-backto-aws_region" style="stroke:#FFAF37;stroke-width:2.0;"/><polygon fill="none" points="128,464.01,135,444.01,142,464.01,128,464.01" style="stroke:#FFAF37;stroke-width:2.0;"/><!--MD5=[d5000d65c82ec8ad122af311c7e1b5d1]
@startuml
hide empty members
skinparam ArrowColor #ffaf37
skinparam ArrowThickness 2
skinparam BackgroundColor transparent
skinparam ClassAttributeFontColor #ffe797
skinparam ClassBackgroundColor #194875
skinparam ClassBorderColor Black
skinparam ClassFontColor #ffe797
skinparam ClassFontName Helvetica
skinparam ClassFontSize 17
skinparam Padding 5
skinparam RoundCorner 5
skinparam Shadowing false
skinparam stereotypeCBackgroundColor #1a83af
skinparam stereotypeIBackgroundColor #1a83af

class region {

}
class resource {
**id**: string
**tags**: dictionary[string, string]
**name**: string
**ctime**: datetime
**age**: trafo.duration_to_datetime
**mtime**: datetime
**last_update**: trafo.duration_to_datetime
**atime**: datetime
**last_access**: trafo.duration_to_datetime
**kind**: string
}
class aws_region {
**ctime**: datetime
}
resource <|- - - region
region <|- - - aws_region
@enduml

PlantUML version 1.2021.16(Wed Dec 08 17:25:22 UTC 2021)
(GPL source distribution)
Java Runtime: OpenJDK Runtime Environment
JVM: OpenJDK 64-Bit Server VM
Default Encoding: UTF-8
Language: en
Country: null
--></g></svg>