<?xml version="1.0" encoding="UTF-8" standalone="no"?><svg xmlns="http://www.w3.org/2000/svg" xmlns:xlink="http://www.w3.org/1999/xlink" contentScriptType="application/ecmascript" contentStyleType="text/css" height="561px" preserveAspectRatio="none" style="width:365px;height:561px;background:#00000000;" version="1.1" viewBox="0 0 365 561" width="365px" zoomAndPan="magnify"><defs><filter height="300%" id="fe4a871s9luwo" width="300%" x="-1" y="-1"><feGaussianBlur result="blurOut" stdDeviation="2.0"/><feColorMatrix in="blurOut" result="blurOut2" type="matrix" values="0 0 0 0 0 0 0 0 0 0 0 0 0 0 0 0 0 0 .4 0"/><feOffset dx="4.0" dy="4.0" in="blurOut2" result="blurOut3"/><feBlend in="SourceGraphic" in2="blurOut3" mode="normal"/></filter></defs><g><!--MD5=[7f0ecf5f554433d3f2e1213379ac821c]
class resource--><rect codeLine="2" fill="#FEFECE" filter="url(#fe4a871s9luwo)" height="176.0469" id="resource" style="stroke:#A80036;stroke-width:1.5;" width="252" x="7" y="7"/><ellipse cx="100.75" cy="23" fill="#ADD1B2" rx="11" ry="11" style="stroke:#A80036;stroke-width:1.0;"/><path d="M103.7188,28.6406 Q103.1406,28.9375 102.5,29.0781 Q101.8594,29.2344 101.1563,29.2344 Q98.6563,29.2344 97.3281,27.5938 Q96.0156,25.9375 96.0156,22.8125 Q96.0156,19.6875 97.3281,18.0313 Q98.6563,16.375 101.1563,16.375 Q101.8594,16.375 102.5,16.5313 Q103.1563,16.6875 103.7188,16.9844 L103.7188,19.7031 Q103.0938,19.125 102.5,18.8594 Q101.9063,18.5781 101.2813,18.5781 Q99.9375,18.5781 99.25,19.6563 Q98.5625,20.7188 98.5625,22.8125 Q98.5625,24.9063 99.25,25.9844 Q99.9375,27.0469 101.2813,27.0469 Q101.9063,27.0469 102.5,26.7813 Q103.0938,26.5 103.7188,25.9219 L103.7188,28.6406 Z " fill="#000000"/><text fill="#000000" font-family="sans-serif" font-size="12" lengthAdjust="spacing" textLength="56" x="121.25" y="27.1543">resource</text><line style="stroke:#A80036;stroke-width:1.5;" x1="8" x2="258" y1="39" y2="39"/><ellipse cx="18" cy="50" rx="3" ry="3" style="stroke:#038048;stroke-width:1.0;fill:none;"/><text fill="#000000" font-family="sans-serif" font-size="11" lengthAdjust="spacing" textLength="51" x="27" y="53.2104">id: string</text><ellipse cx="18" cy="62.8047" rx="3" ry="3" style="stroke:#038048;stroke-width:1.0;fill:none;"/><text fill="#000000" font-family="sans-serif" font-size="11" lengthAdjust="spacing" textLength="170" x="27" y="66.0151">tags: dictionary[string, string]</text><ellipse cx="18" cy="75.6094" rx="3" ry="3" style="stroke:#038048;stroke-width:1.0;fill:none;"/><text fill="#000000" font-family="sans-serif" font-size="11" lengthAdjust="spacing" textLength="73" x="27" y="78.8198">name: string</text><ellipse cx="18" cy="88.4141" rx="3" ry="3" style="stroke:#038048;stroke-width:1.0;fill:none;"/><text fill="#000000" font-family="sans-serif" font-size="11" lengthAdjust="spacing" textLength="89" x="27" y="91.6245">ctime: datetime</text><ellipse cx="18" cy="101.2188" rx="3" ry="3" style="stroke:#038048;stroke-width:1.0;fill:none;"/><text fill="#000000" font-family="sans-serif" font-size="11" lengthAdjust="spacing" textLength="180" x="27" y="104.4292">age: trafo.duration_to_datetime</text><ellipse cx="18" cy="114.0234" rx="3" ry="3" style="stroke:#038048;stroke-width:1.0;fill:none;"/><text fill="#000000" font-family="sans-serif" font-size="11" lengthAdjust="spacing" textLength="94" x="27" y="117.2339">mtime: datetime</text><ellipse cx="18" cy="126.8281" rx="3" ry="3" style="stroke:#038048;stroke-width:1.0;fill:none;"/><text fill="#000000" font-family="sans-serif" font-size="11" lengthAdjust="spacing" textLength="225" x="27" y="130.0386">last_update: trafo.duration_to_datetime</text><ellipse cx="18" cy="139.6328" rx="3" ry="3" style="stroke:#038048;stroke-width:1.0;fill:none;"/><text fill="#000000" font-family="sans-serif" font-size="11" lengthAdjust="spacing" textLength="90" x="27" y="142.8433">atime: datetime</text><ellipse cx="18" cy="152.4375" rx="3" ry="3" style="stroke:#038048;stroke-width:1.0;fill:none;"/><text fill="#000000" font-family="sans-serif" font-size="11" lengthAdjust="spacing" textLength="226" x="27" y="155.6479">last_access: trafo.duration_to_datetime</text><ellipse cx="18" cy="165.2422" rx="3" ry="3" style="stroke:#038048;stroke-width:1.0;fill:none;"/><text fill="#000000" font-family="sans-serif" font-size="11" lengthAdjust="spacing" textLength="64" x="27" y="168.4526">kind: string</text><line style="stroke:#A80036;stroke-width:1.5;" x1="8" x2="258" y1="175.0469" y2="175.0469"/><!--MD5=[c069b88079f3e36515859a1683f3923c]
class aws_resource--><rect codeLine="14" fill="#FEFECE" filter="url(#fe4a871s9luwo)" height="60.8047" id="aws_resource" style="stroke:#A80036;stroke-width:1.5;" width="118" x="233" y="310.5"/><ellipse cx="248" cy="326.5" fill="#ADD1B2" rx="11" ry="11" style="stroke:#A80036;stroke-width:1.0;"/><path d="M250.9688,332.1406 Q250.3906,332.4375 249.75,332.5781 Q249.1094,332.7344 248.4063,332.7344 Q245.9063,332.7344 244.5781,331.0938 Q243.2656,329.4375 243.2656,326.3125 Q243.2656,323.1875 244.5781,321.5313 Q245.9063,319.875 248.4063,319.875 Q249.1094,319.875 249.75,320.0313 Q250.4063,320.1875 250.9688,320.4844 L250.9688,323.2031 Q250.3438,322.625 249.75,322.3594 Q249.1563,322.0781 248.5313,322.0781 Q247.1875,322.0781 246.5,323.1563 Q245.8125,324.2188 245.8125,326.3125 Q245.8125,328.4063 246.5,329.4844 Q247.1875,330.5469 248.5313,330.5469 Q249.1563,330.5469 249.75,330.2813 Q250.3438,330 250.9688,329.4219 L250.9688,332.1406 Z " fill="#000000"/><text fill="#000000" font-family="sans-serif" font-size="12" lengthAdjust="spacing" textLength="86" x="262" y="330.6543">aws_resource</text><line style="stroke:#A80036;stroke-width:1.5;" x1="234" x2="350" y1="342.5" y2="342.5"/><ellipse cx="244" cy="353.5" rx="3" ry="3" style="stroke:#038048;stroke-width:1.0;fill:none;"/><text fill="#000000" font-family="sans-serif" font-size="11" lengthAdjust="spacing" textLength="60" x="253" y="356.7104">arn: string</text><line style="stroke:#A80036;stroke-width:1.5;" x1="234" x2="350" y1="363.3047" y2="363.3047"/><!--MD5=[61564e47c5395d8392ea8ab706bb3a91]
class aws_elb--><rect codeLine="17" fill="#FEFECE" filter="url(#fe4a871s9luwo)" height="48" id="aws_elb" style="stroke:#A80036;stroke-width:1.5;" width="81" x="171.5" y="499"/><ellipse cx="186.5" cy="515" fill="#ADD1B2" rx="11" ry="11" style="stroke:#A80036;stroke-width:1.0;"/><path d="M189.4688,520.6406 Q188.8906,520.9375 188.25,521.0781 Q187.6094,521.2344 186.9063,521.2344 Q184.4063,521.2344 183.0781,519.5938 Q181.7656,517.9375 181.7656,514.8125 Q181.7656,511.6875 183.0781,510.0313 Q184.4063,508.375 186.9063,508.375 Q187.6094,508.375 188.25,508.5313 Q188.9063,508.6875 189.4688,508.9844 L189.4688,511.7031 Q188.8438,511.125 188.25,510.8594 Q187.6563,510.5781 187.0313,510.5781 Q185.6875,510.5781 185,511.6563 Q184.3125,512.7188 184.3125,514.8125 Q184.3125,516.9063 185,517.9844 Q185.6875,519.0469 187.0313,519.0469 Q187.6563,519.0469 188.25,518.7813 Q188.8438,518.5 189.4688,517.9219 L189.4688,520.6406 Z " fill="#000000"/><text fill="#000000" font-family="sans-serif" font-size="12" lengthAdjust="spacing" textLength="49" x="200.5" y="519.1543">aws_elb</text><line style="stroke:#A80036;stroke-width:1.5;" x1="172.5" x2="251.5" y1="531" y2="531"/><line style="stroke:#A80036;stroke-width:1.5;" x1="172.5" x2="251.5" y1="539" y2="539"/><!--MD5=[86833b7771fd646511791fafeadda016]
class load_balancer--><rect codeLine="20" fill="#FEFECE" filter="url(#fe4a871s9luwo)" height="73.6094" id="load_balancer" style="stroke:#A80036;stroke-width:1.5;" width="129" x="68.5" y="304"/><ellipse cx="87.55" cy="320" fill="#ADD1B2" rx="11" ry="11" style="stroke:#A80036;stroke-width:1.0;"/><path d="M90.5188,325.6406 Q89.9406,325.9375 89.3,326.0781 Q88.6594,326.2344 87.9563,326.2344 Q85.4563,326.2344 84.1281,324.5938 Q82.8156,322.9375 82.8156,319.8125 Q82.8156,316.6875 84.1281,315.0313 Q85.4563,313.375 87.9563,313.375 Q88.6594,313.375 89.3,313.5313 Q89.9563,313.6875 90.5188,313.9844 L90.5188,316.7031 Q89.8938,316.125 89.3,315.8594 Q88.7063,315.5781 88.0813,315.5781 Q86.7375,315.5781 86.05,316.6563 Q85.3625,317.7188 85.3625,319.8125 Q85.3625,321.9063 86.05,322.9844 Q86.7375,324.0469 88.0813,324.0469 Q88.7063,324.0469 89.3,323.7813 Q89.8938,323.5 90.5188,322.9219 L90.5188,325.6406 Z " fill="#000000"/><text fill="#000000" font-family="sans-serif" font-size="12" lengthAdjust="spacing" textLength="88" x="102.45" y="324.1543">load_balancer</text><line style="stroke:#A80036;stroke-width:1.5;" x1="69.5" x2="196.5" y1="336" y2="336"/><ellipse cx="79.5" cy="347" rx="3" ry="3" style="stroke:#038048;stroke-width:1.0;fill:none;"/><text fill="#000000" font-family="sans-serif" font-size="11" lengthAdjust="spacing" textLength="81" x="88.5" y="350.2104">lb_type: string</text><ellipse cx="79.5" cy="359.8047" rx="3" ry="3" style="stroke:#038048;stroke-width:1.0;fill:none;"/><text fill="#000000" font-family="sans-serif" font-size="11" lengthAdjust="spacing" textLength="103" x="88.5" y="363.0151">backends: string[]</text><line style="stroke:#A80036;stroke-width:1.5;" x1="69.5" x2="196.5" y1="369.6094" y2="369.6094"/><!--MD5=[f69ca839bdef8bdca5db16c31cc3b48d]
reverse link aws_resource to aws_elb--><path codeLine="24" d="M270.47,390.44 C254.85,425.59 234.42,471.57 222.3,498.82 " fill="none" id="aws_resource-backto-aws_elb" style="stroke:#A80036;stroke-width:1.0;"/><polygon fill="none" points="264.27,387.16,278.79,371.72,277.06,392.84,264.27,387.16" style="stroke:#A80036;stroke-width:1.0;"/><!--MD5=[37c159f9d5afa7ce6cbc81b089abe504]
reverse link load_balancer to aws_elb--><path codeLine="25" d="M157.1,396.91 C172.08,431.04 190.56,473.16 201.81,498.77 " fill="none" id="load_balancer-backto-aws_elb" style="stroke:#A80036;stroke-width:1.0;"/><polygon fill="none" points="150.61,399.55,148.99,378.43,163.43,393.93,150.61,399.55" style="stroke:#A80036;stroke-width:1.0;"/><!--MD5=[0344b77bad72b42f01cb7db15a535890]
reverse link resource to load_balancer--><path codeLine="26" d="M133,203.16 C133,239.31 133,277.21 133,303.94 " fill="none" id="resource-backto-load_balancer" style="stroke:#A80036;stroke-width:1.0;"/><polygon fill="none" points="126,203.06,133,183.06,140,203.06,126,203.06" style="stroke:#A80036;stroke-width:1.0;"/><!--MD5=[c292b82d8256689a92176908d6464074]
@startuml
skinparam backgroundcolor transparent
class resource {
+ id: string
+ tags: dictionary[string, string]
+ name: string
+ ctime: datetime
+ age: trafo.duration_to_datetime
+ mtime: datetime
+ last_update: trafo.duration_to_datetime
+ atime: datetime
+ last_access: trafo.duration_to_datetime
+ kind: string
}
class aws_resource {
+ arn: string
}
class aws_elb {

}
class load_balancer {
+ lb_type: string
+ backends: string[]
}
aws_resource <|- - - aws_elb
load_balancer <|- - - aws_elb
resource <|- - - load_balancer
@enduml

PlantUML version 1.2021.16(Wed Dec 08 17:25:22 UTC 2021)
(GPL source distribution)
Java Runtime: OpenJDK Runtime Environment
JVM: OpenJDK 64-Bit Server VM
Default Encoding: UTF-8
Language: en
Country: null
--></g></svg>