<?xml version="1.0" encoding="UTF-8" standalone="no"?><svg xmlns="http://www.w3.org/2000/svg" xmlns:xlink="http://www.w3.org/1999/xlink" contentScriptType="application/ecmascript" contentStyleType="text/css" height="924px" preserveAspectRatio="none" style="width:363px;height:924px;background:#00000000;" version="1.1" viewBox="0 0 363 924" width="363px" zoomAndPan="magnify"><defs><filter height="300%" id="f14xdjhyd5dlku" width="300%" x="-1" y="-1"><feGaussianBlur result="blurOut" stdDeviation="2.0"/><feColorMatrix in="blurOut" result="blurOut2" type="matrix" values="0 0 0 0 0 0 0 0 0 0 0 0 0 0 0 0 0 0 .4 0"/><feOffset dx="4.0" dy="4.0" in="blurOut2" result="blurOut3"/><feBlend in="SourceGraphic" in2="blurOut3" mode="normal"/></filter></defs><g><!--MD5=[156df1ec125634b672185ad659f2920c]
class phantom_resource--><rect codeLine="2" fill="#FEFECE" filter="url(#f14xdjhyd5dlku)" height="48" id="phantom_resource" style="stroke:#A80036;stroke-width:1.5;" width="150" x="148" y="304"/><ellipse cx="163" cy="320" fill="#ADD1B2" rx="11" ry="11" style="stroke:#A80036;stroke-width:1.0;"/><path d="M165.9688,325.6406 Q165.3906,325.9375 164.75,326.0781 Q164.1094,326.2344 163.4063,326.2344 Q160.9063,326.2344 159.5781,324.5938 Q158.2656,322.9375 158.2656,319.8125 Q158.2656,316.6875 159.5781,315.0313 Q160.9063,313.375 163.4063,313.375 Q164.1094,313.375 164.75,313.5313 Q165.4063,313.6875 165.9688,313.9844 L165.9688,316.7031 Q165.3438,316.125 164.75,315.8594 Q164.1563,315.5781 163.5313,315.5781 Q162.1875,315.5781 161.5,316.6563 Q160.8125,317.7188 160.8125,319.8125 Q160.8125,321.9063 161.5,322.9844 Q162.1875,324.0469 163.5313,324.0469 Q164.1563,324.0469 164.75,323.7813 Q165.3438,323.5 165.9688,322.9219 L165.9688,325.6406 Z " fill="#000000"/><text fill="#000000" font-family="sans-serif" font-size="12" lengthAdjust="spacing" textLength="118" x="177" y="324.1543">phantom_resource</text><line style="stroke:#A80036;stroke-width:1.5;" x1="149" x2="297" y1="336" y2="336"/><line style="stroke:#A80036;stroke-width:1.5;" x1="149" x2="297" y1="344" y2="344"/><!--MD5=[7f0ecf5f554433d3f2e1213379ac821c]
class resource--><rect codeLine="5" fill="#FEFECE" filter="url(#f14xdjhyd5dlku)" height="176.0469" id="resource" style="stroke:#A80036;stroke-width:1.5;" width="252" x="97" y="7"/><ellipse cx="190.75" cy="23" fill="#ADD1B2" rx="11" ry="11" style="stroke:#A80036;stroke-width:1.0;"/><path d="M193.7188,28.6406 Q193.1406,28.9375 192.5,29.0781 Q191.8594,29.2344 191.1563,29.2344 Q188.6563,29.2344 187.3281,27.5938 Q186.0156,25.9375 186.0156,22.8125 Q186.0156,19.6875 187.3281,18.0313 Q188.6563,16.375 191.1563,16.375 Q191.8594,16.375 192.5,16.5313 Q193.1563,16.6875 193.7188,16.9844 L193.7188,19.7031 Q193.0938,19.125 192.5,18.8594 Q191.9063,18.5781 191.2813,18.5781 Q189.9375,18.5781 189.25,19.6563 Q188.5625,20.7188 188.5625,22.8125 Q188.5625,24.9063 189.25,25.9844 Q189.9375,27.0469 191.2813,27.0469 Q191.9063,27.0469 192.5,26.7813 Q193.0938,26.5 193.7188,25.9219 L193.7188,28.6406 Z " fill="#000000"/><text fill="#000000" font-family="sans-serif" font-size="12" lengthAdjust="spacing" textLength="56" x="211.25" y="27.1543">resource</text><line style="stroke:#A80036;stroke-width:1.5;" x1="98" x2="348" y1="39" y2="39"/><ellipse cx="108" cy="50" rx="3" ry="3" style="stroke:#038048;stroke-width:1.0;fill:none;"/><text fill="#000000" font-family="sans-serif" font-size="11" lengthAdjust="spacing" textLength="51" x="117" y="53.2104">id: string</text><ellipse cx="108" cy="62.8047" rx="3" ry="3" style="stroke:#038048;stroke-width:1.0;fill:none;"/><text fill="#000000" font-family="sans-serif" font-size="11" lengthAdjust="spacing" textLength="170" x="117" y="66.0151">tags: dictionary[string, string]</text><ellipse cx="108" cy="75.6094" rx="3" ry="3" style="stroke:#038048;stroke-width:1.0;fill:none;"/><text fill="#000000" font-family="sans-serif" font-size="11" lengthAdjust="spacing" textLength="73" x="117" y="78.8198">name: string</text><ellipse cx="108" cy="88.4141" rx="3" ry="3" style="stroke:#038048;stroke-width:1.0;fill:none;"/><text fill="#000000" font-family="sans-serif" font-size="11" lengthAdjust="spacing" textLength="89" x="117" y="91.6245">ctime: datetime</text><ellipse cx="108" cy="101.2188" rx="3" ry="3" style="stroke:#038048;stroke-width:1.0;fill:none;"/><text fill="#000000" font-family="sans-serif" font-size="11" lengthAdjust="spacing" textLength="180" x="117" y="104.4292">age: trafo.duration_to_datetime</text><ellipse cx="108" cy="114.0234" rx="3" ry="3" style="stroke:#038048;stroke-width:1.0;fill:none;"/><text fill="#000000" font-family="sans-serif" font-size="11" lengthAdjust="spacing" textLength="94" x="117" y="117.2339">mtime: datetime</text><ellipse cx="108" cy="126.8281" rx="3" ry="3" style="stroke:#038048;stroke-width:1.0;fill:none;"/><text fill="#000000" font-family="sans-serif" font-size="11" lengthAdjust="spacing" textLength="225" x="117" y="130.0386">last_update: trafo.duration_to_datetime</text><ellipse cx="108" cy="139.6328" rx="3" ry="3" style="stroke:#038048;stroke-width:1.0;fill:none;"/><text fill="#000000" font-family="sans-serif" font-size="11" lengthAdjust="spacing" textLength="90" x="117" y="142.8433">atime: datetime</text><ellipse cx="108" cy="152.4375" rx="3" ry="3" style="stroke:#038048;stroke-width:1.0;fill:none;"/><text fill="#000000" font-family="sans-serif" font-size="11" lengthAdjust="spacing" textLength="226" x="117" y="155.6479">last_access: trafo.duration_to_datetime</text><ellipse cx="108" cy="165.2422" rx="3" ry="3" style="stroke:#038048;stroke-width:1.0;fill:none;"/><text fill="#000000" font-family="sans-serif" font-size="11" lengthAdjust="spacing" textLength="64" x="117" y="168.4526">kind: string</text><line style="stroke:#A80036;stroke-width:1.5;" x1="98" x2="348" y1="175.0469" y2="175.0469"/><!--MD5=[c069b88079f3e36515859a1683f3923c]
class aws_resource--><rect codeLine="17" fill="#FEFECE" filter="url(#f14xdjhyd5dlku)" height="60.8047" id="aws_resource" style="stroke:#A80036;stroke-width:1.5;" width="118" x="7" y="680"/><ellipse cx="22" cy="696" fill="#ADD1B2" rx="11" ry="11" style="stroke:#A80036;stroke-width:1.0;"/><path d="M24.9688,701.6406 Q24.3906,701.9375 23.75,702.0781 Q23.1094,702.2344 22.4063,702.2344 Q19.9063,702.2344 18.5781,700.5938 Q17.2656,698.9375 17.2656,695.8125 Q17.2656,692.6875 18.5781,691.0313 Q19.9063,689.375 22.4063,689.375 Q23.1094,689.375 23.75,689.5313 Q24.4063,689.6875 24.9688,689.9844 L24.9688,692.7031 Q24.3438,692.125 23.75,691.8594 Q23.1563,691.5781 22.5313,691.5781 Q21.1875,691.5781 20.5,692.6563 Q19.8125,693.7188 19.8125,695.8125 Q19.8125,697.9063 20.5,698.9844 Q21.1875,700.0469 22.5313,700.0469 Q23.1563,700.0469 23.75,699.7813 Q24.3438,699.5 24.9688,698.9219 L24.9688,701.6406 Z " fill="#000000"/><text fill="#000000" font-family="sans-serif" font-size="12" lengthAdjust="spacing" textLength="86" x="36" y="700.1543">aws_resource</text><line style="stroke:#A80036;stroke-width:1.5;" x1="8" x2="124" y1="712" y2="712"/><ellipse cx="18" cy="723" rx="3" ry="3" style="stroke:#038048;stroke-width:1.0;fill:none;"/><text fill="#000000" font-family="sans-serif" font-size="11" lengthAdjust="spacing" textLength="60" x="27" y="726.2104">arn: string</text><line style="stroke:#A80036;stroke-width:1.5;" x1="8" x2="124" y1="732.8047" y2="732.8047"/><!--MD5=[205bc3e74ea7d385e2b6aa1bb29a5024]
class quota--><rect codeLine="20" fill="#FEFECE" filter="url(#f14xdjhyd5dlku)" height="86.4141" id="quota" style="stroke:#A80036;stroke-width:1.5;" width="129" x="158.5" y="473"/><ellipse cx="200.5" cy="489" fill="#ADD1B2" rx="11" ry="11" style="stroke:#A80036;stroke-width:1.0;"/><path d="M203.4688,494.6406 Q202.8906,494.9375 202.25,495.0781 Q201.6094,495.2344 200.9063,495.2344 Q198.4063,495.2344 197.0781,493.5938 Q195.7656,491.9375 195.7656,488.8125 Q195.7656,485.6875 197.0781,484.0313 Q198.4063,482.375 200.9063,482.375 Q201.6094,482.375 202.25,482.5313 Q202.9063,482.6875 203.4688,482.9844 L203.4688,485.7031 Q202.8438,485.125 202.25,484.8594 Q201.6563,484.5781 201.0313,484.5781 Q199.6875,484.5781 199,485.6563 Q198.3125,486.7188 198.3125,488.8125 Q198.3125,490.9063 199,491.9844 Q199.6875,493.0469 201.0313,493.0469 Q201.6563,493.0469 202.25,492.7813 Q202.8438,492.5 203.4688,491.9219 L203.4688,494.6406 Z " fill="#000000"/><text fill="#000000" font-family="sans-serif" font-size="12" lengthAdjust="spacing" textLength="37" x="220.5" y="493.1543">quota</text><line style="stroke:#A80036;stroke-width:1.5;" x1="159.5" x2="286.5" y1="505" y2="505"/><ellipse cx="169.5" cy="516" rx="3" ry="3" style="stroke:#038048;stroke-width:1.0;fill:none;"/><text fill="#000000" font-family="sans-serif" font-size="11" lengthAdjust="spacing" textLength="78" x="178.5" y="519.2104">quota: double</text><ellipse cx="169.5" cy="528.8047" rx="3" ry="3" style="stroke:#038048;stroke-width:1.0;fill:none;"/><text fill="#000000" font-family="sans-serif" font-size="11" lengthAdjust="spacing" textLength="81" x="178.5" y="532.0151">usage: double</text><ellipse cx="169.5" cy="541.6094" rx="3" ry="3" style="stroke:#038048;stroke-width:1.0;fill:none;"/><text fill="#000000" font-family="sans-serif" font-size="11" lengthAdjust="spacing" textLength="103" x="178.5" y="544.8198">quota_type: string</text><line style="stroke:#A80036;stroke-width:1.5;" x1="159.5" x2="286.5" y1="551.4141" y2="551.4141"/><!--MD5=[beec3825e7b206af0ba19cec51cba8e7]
class network_quota--><rect codeLine="25" fill="#FEFECE" filter="url(#f14xdjhyd5dlku)" height="48" id="network_quota" style="stroke:#A80036;stroke-width:1.5;" width="125" x="160.5" y="686.5"/><ellipse cx="175.5" cy="702.5" fill="#ADD1B2" rx="11" ry="11" style="stroke:#A80036;stroke-width:1.0;"/><path d="M178.4688,708.1406 Q177.8906,708.4375 177.25,708.5781 Q176.6094,708.7344 175.9063,708.7344 Q173.4063,708.7344 172.0781,707.0938 Q170.7656,705.4375 170.7656,702.3125 Q170.7656,699.1875 172.0781,697.5313 Q173.4063,695.875 175.9063,695.875 Q176.6094,695.875 177.25,696.0313 Q177.9063,696.1875 178.4688,696.4844 L178.4688,699.2031 Q177.8438,698.625 177.25,698.3594 Q176.6563,698.0781 176.0313,698.0781 Q174.6875,698.0781 174,699.1563 Q173.3125,700.2188 173.3125,702.3125 Q173.3125,704.4063 174,705.4844 Q174.6875,706.5469 176.0313,706.5469 Q176.6563,706.5469 177.25,706.2813 Q177.8438,706 178.4688,705.4219 L178.4688,708.1406 Z " fill="#000000"/><text fill="#000000" font-family="sans-serif" font-size="12" lengthAdjust="spacing" textLength="93" x="189.5" y="706.6543">network_quota</text><line style="stroke:#A80036;stroke-width:1.5;" x1="161.5" x2="284.5" y1="718.5" y2="718.5"/><line style="stroke:#A80036;stroke-width:1.5;" x1="161.5" x2="284.5" y1="726.5" y2="726.5"/><!--MD5=[b259578e80616db49acc0f2121e1dded]
class aws_vpc_quota--><rect codeLine="28" fill="#FEFECE" filter="url(#f14xdjhyd5dlku)" height="48" id="aws_vpc_quota" style="stroke:#A80036;stroke-width:1.5;" width="126" x="38" y="862"/><ellipse cx="53" cy="878" fill="#ADD1B2" rx="11" ry="11" style="stroke:#A80036;stroke-width:1.0;"/><path d="M55.9688,883.6406 Q55.3906,883.9375 54.75,884.0781 Q54.1094,884.2344 53.4063,884.2344 Q50.9063,884.2344 49.5781,882.5938 Q48.2656,880.9375 48.2656,877.8125 Q48.2656,874.6875 49.5781,873.0313 Q50.9063,871.375 53.4063,871.375 Q54.1094,871.375 54.75,871.5313 Q55.4063,871.6875 55.9688,871.9844 L55.9688,874.7031 Q55.3438,874.125 54.75,873.8594 Q54.1563,873.5781 53.5313,873.5781 Q52.1875,873.5781 51.5,874.6563 Q50.8125,875.7188 50.8125,877.8125 Q50.8125,879.9063 51.5,880.9844 Q52.1875,882.0469 53.5313,882.0469 Q54.1563,882.0469 54.75,881.7813 Q55.3438,881.5 55.9688,880.9219 L55.9688,883.6406 Z " fill="#000000"/><text fill="#000000" font-family="sans-serif" font-size="12" lengthAdjust="spacing" textLength="94" x="67" y="882.1543">aws_vpc_quota</text><line style="stroke:#A80036;stroke-width:1.5;" x1="39" x2="163" y1="894" y2="894"/><line style="stroke:#A80036;stroke-width:1.5;" x1="39" x2="163" y1="902" y2="902"/><!--MD5=[e134558fd6f7e839ecb28ecbda576c0a]
reverse link resource to phantom_resource--><path codeLine="31" d="M223,203.18 C223,241 223,280.01 223,303.89 " fill="none" id="resource-backto-phantom_resource" style="stroke:#A80036;stroke-width:1.0;"/><polygon fill="none" points="216,203,223,183,230,203,216,203" style="stroke:#A80036;stroke-width:1.0;"/><!--MD5=[8c556d10106c40540c768b31155cb09d]
reverse link phantom_resource to quota--><path codeLine="32" d="M223,372.6 C223,402.8 223,442.79 223,472.7 " fill="none" id="phantom_resource-backto-quota" style="stroke:#A80036;stroke-width:1.0;"/><polygon fill="none" points="216,372.18,223,352.18,230,372.18,216,372.18" style="stroke:#A80036;stroke-width:1.0;"/><!--MD5=[e199d032c95ae8e5d3048ab53d3d1728]
reverse link quota to network_quota--><path codeLine="33" d="M223,579.45 C223,616.01 223,660.02 223,686.33 " fill="none" id="quota-backto-network_quota" style="stroke:#A80036;stroke-width:1.0;"/><polygon fill="none" points="216,579.24,223,559.24,230,579.24,216,579.24" style="stroke:#A80036;stroke-width:1.0;"/><!--MD5=[6c5c23a45b098804f58d56a6ba2eb90e]
reverse link aws_resource to aws_vpc_quota--><path codeLine="34" d="M76,761.07 C82.69,794.23 91.18,836.32 96.35,861.93 " fill="none" id="aws_resource-backto-aws_vpc_quota" style="stroke:#A80036;stroke-width:1.0;"/><polygon fill="none" points="69.11,762.32,72.02,741.33,82.83,759.55,69.11,762.32" style="stroke:#A80036;stroke-width:1.0;"/><!--MD5=[bd2b9dcb513f9ff662a6c38d39b17012]
reverse link network_quota to aws_vpc_quota--><path codeLine="35" d="M195.25,750.97 C171.18,785.2 137.17,833.56 117.27,861.87 " fill="none" id="network_quota-backto-aws_vpc_quota" style="stroke:#A80036;stroke-width:1.0;"/><polygon fill="none" points="189.57,746.87,206.8,734.54,201.02,754.93,189.57,746.87" style="stroke:#A80036;stroke-width:1.0;"/><!--MD5=[b5af5744844c2bb967e5cb841e24e2b5]
@startuml
skinparam backgroundcolor transparent
class phantom_resource {

}
class resource {
+ id: string
+ tags: dictionary[string, string]
+ name: string
+ ctime: datetime
+ age: trafo.duration_to_datetime
+ mtime: datetime
+ last_update: trafo.duration_to_datetime
+ atime: datetime
+ last_access: trafo.duration_to_datetime
+ kind: string
}
class aws_resource {
+ arn: string
}
class quota {
+ quota: double
+ usage: double
+ quota_type: string
}
class network_quota {

}
class aws_vpc_quota {

}
resource <|- - - phantom_resource
phantom_resource <|- - - quota
quota <|- - - network_quota
aws_resource <|- - - aws_vpc_quota
network_quota <|- - - aws_vpc_quota
@enduml

PlantUML version 1.2021.16(Wed Dec 08 17:25:22 UTC 2021)
(GPL source distribution)
Java Runtime: OpenJDK Runtime Environment
JVM: OpenJDK 64-Bit Server VM
Default Encoding: UTF-8
Language: en
Country: null
--></g></svg>