<svg xmlns="http://www.w3.org/2000/svg" xmlns:xlink="http://www.w3.org/1999/xlink" width="353" height="560" contentScriptType="application/ecmascript" contentStyleType="text/css" style="width:353px;height:560px;background:#00000000" preserveAspectRatio="none" version="1.1" viewBox="0 0 353 560" zoomAndPan="magnify"><defs><filter id="f1p952g5hx2d9z" width="300%" height="300%" x="-1" y="-1"><feGaussianBlur result="blurOut" stdDeviation="2"/><feColorMatrix in="blurOut" result="blurOut2" type="matrix" values="0 0 0 0 0 0 0 0 0 0 0 0 0 0 0 0 0 0 .4 0"/><feOffset dx="4" dy="4" in="blurOut2" result="blurOut3"/><feBlend in="SourceGraphic" in2="blurOut3" mode="normal"/></filter></defs><g><rect id="resource" width="252" height="176.047" x="7" y="7" fill="#FEFECE" codeLine="2" filter="url(#f1p952g5hx2d9z)" style="stroke:#a80036;stroke-width:1.5"/><ellipse cx="100.75" cy="23" fill="#ADD1B2" rx="11" ry="11" style="stroke:#a80036;stroke-width:1"/><path fill="#000" d="M103.7188,28.6406 Q103.1406,28.9375 102.5,29.0781 Q101.8594,29.2344 101.1563,29.2344 Q98.6563,29.2344 97.3281,27.5938 Q96.0156,25.9375 96.0156,22.8125 Q96.0156,19.6875 97.3281,18.0313 Q98.6563,16.375 101.1563,16.375 Q101.8594,16.375 102.5,16.5313 Q103.1563,16.6875 103.7188,16.9844 L103.7188,19.7031 Q103.0938,19.125 102.5,18.8594 Q101.9063,18.5781 101.2813,18.5781 Q99.9375,18.5781 99.25,19.6563 Q98.5625,20.7188 98.5625,22.8125 Q98.5625,24.9063 99.25,25.9844 Q99.9375,27.0469 101.2813,27.0469 Q101.9063,27.0469 102.5,26.7813 Q103.0938,26.5 103.7188,25.9219 L103.7188,28.6406 Z"/><text x="121.25" y="27.154" fill="#000" font-family="sans-serif" font-size="12" lengthAdjust="spacing" textLength="56">resource</text><line style="stroke:#a80036;stroke-width:1.5" x1="8" x2="258" y1="39" y2="39"/><ellipse cx="18" cy="50" rx="3" ry="3" style="stroke:#038048;stroke-width:1;fill:none"/><text x="27" y="53.21" fill="#000" font-family="sans-serif" font-size="11" lengthAdjust="spacing" textLength="51">id: string</text><ellipse cx="18" cy="62.805" rx="3" ry="3" style="stroke:#038048;stroke-width:1;fill:none"/><text x="27" y="66.015" fill="#000" font-family="sans-serif" font-size="11" lengthAdjust="spacing" textLength="170">tags: dictionary[string, string]</text><ellipse cx="18" cy="75.609" rx="3" ry="3" style="stroke:#038048;stroke-width:1;fill:none"/><text x="27" y="78.82" fill="#000" font-family="sans-serif" font-size="11" lengthAdjust="spacing" textLength="73">name: string</text><ellipse cx="18" cy="88.414" rx="3" ry="3" style="stroke:#038048;stroke-width:1;fill:none"/><text x="27" y="91.624" fill="#000" font-family="sans-serif" font-size="11" lengthAdjust="spacing" textLength="89">ctime: datetime</text><ellipse cx="18" cy="101.219" rx="3" ry="3" style="stroke:#038048;stroke-width:1;fill:none"/><text x="27" y="104.429" fill="#000" font-family="sans-serif" font-size="11" lengthAdjust="spacing" textLength="180">age: trafo.duration_to_datetime</text><ellipse cx="18" cy="114.023" rx="3" ry="3" style="stroke:#038048;stroke-width:1;fill:none"/><text x="27" y="117.234" fill="#000" font-family="sans-serif" font-size="11" lengthAdjust="spacing" textLength="94">mtime: datetime</text><ellipse cx="18" cy="126.828" rx="3" ry="3" style="stroke:#038048;stroke-width:1;fill:none"/><text x="27" y="130.039" fill="#000" font-family="sans-serif" font-size="11" lengthAdjust="spacing" textLength="225">last_update: trafo.duration_to_datetime</text><ellipse cx="18" cy="139.633" rx="3" ry="3" style="stroke:#038048;stroke-width:1;fill:none"/><text x="27" y="142.843" fill="#000" font-family="sans-serif" font-size="11" lengthAdjust="spacing" textLength="90">atime: datetime</text><ellipse cx="18" cy="152.438" rx="3" ry="3" style="stroke:#038048;stroke-width:1;fill:none"/><text x="27" y="155.648" fill="#000" font-family="sans-serif" font-size="11" lengthAdjust="spacing" textLength="226">last_access: trafo.duration_to_datetime</text><ellipse cx="18" cy="165.242" rx="3" ry="3" style="stroke:#038048;stroke-width:1;fill:none"/><text x="27" y="168.453" fill="#000" font-family="sans-serif" font-size="11" lengthAdjust="spacing" textLength="64">kind: string</text><line style="stroke:#a80036;stroke-width:1.5" x1="8" x2="258" y1="175.047" y2="175.047"/><rect id="aws_resource" width="118" height="60.805" x="221" y="304" fill="#FEFECE" codeLine="14" filter="url(#f1p952g5hx2d9z)" style="stroke:#a80036;stroke-width:1.5"/><ellipse cx="236" cy="320" fill="#ADD1B2" rx="11" ry="11" style="stroke:#a80036;stroke-width:1"/><path fill="#000" d="M238.9688,325.6406 Q238.3906,325.9375 237.75,326.0781 Q237.1094,326.2344 236.4063,326.2344 Q233.9063,326.2344 232.5781,324.5938 Q231.2656,322.9375 231.2656,319.8125 Q231.2656,316.6875 232.5781,315.0313 Q233.9063,313.375 236.4063,313.375 Q237.1094,313.375 237.75,313.5313 Q238.4063,313.6875 238.9688,313.9844 L238.9688,316.7031 Q238.3438,316.125 237.75,315.8594 Q237.1563,315.5781 236.5313,315.5781 Q235.1875,315.5781 234.5,316.6563 Q233.8125,317.7188 233.8125,319.8125 Q233.8125,321.9063 234.5,322.9844 Q235.1875,324.0469 236.5313,324.0469 Q237.1563,324.0469 237.75,323.7813 Q238.3438,323.5 238.9688,322.9219 L238.9688,325.6406 Z"/><text x="250" y="324.154" fill="#000" font-family="sans-serif" font-size="12" lengthAdjust="spacing" textLength="86">aws_resource</text><line style="stroke:#a80036;stroke-width:1.5" x1="222" x2="338" y1="336" y2="336"/><ellipse cx="232" cy="347" rx="3" ry="3" style="stroke:#038048;stroke-width:1;fill:none"/><text x="241" y="350.21" fill="#000" font-family="sans-serif" font-size="11" lengthAdjust="spacing" textLength="60">arn: string</text><line style="stroke:#a80036;stroke-width:1.5" x1="222" x2="338" y1="356.805" y2="356.805"/><rect id="aws_ec2_network_acl" width="165" height="60.805" x="142.5" y="486" fill="#FEFECE" codeLine="17" filter="url(#f1p952g5hx2d9z)" style="stroke:#a80036;stroke-width:1.5"/><ellipse cx="157.5" cy="502" fill="#ADD1B2" rx="11" ry="11" style="stroke:#a80036;stroke-width:1"/><path fill="#000" d="M160.4688,507.6406 Q159.8906,507.9375 159.25,508.0781 Q158.6094,508.2344 157.9063,508.2344 Q155.4063,508.2344 154.0781,506.5938 Q152.7656,504.9375 152.7656,501.8125 Q152.7656,498.6875 154.0781,497.0313 Q155.4063,495.375 157.9063,495.375 Q158.6094,495.375 159.25,495.5313 Q159.9063,495.6875 160.4688,495.9844 L160.4688,498.7031 Q159.8438,498.125 159.25,497.8594 Q158.6563,497.5781 158.0313,497.5781 Q156.6875,497.5781 156,498.6563 Q155.3125,499.7188 155.3125,501.8125 Q155.3125,503.9063 156,504.9844 Q156.6875,506.0469 158.0313,506.0469 Q158.6563,506.0469 159.25,505.7813 Q159.8438,505.5 160.4688,504.9219 L160.4688,507.6406 Z"/><text x="171.5" y="506.154" fill="#000" font-family="sans-serif" font-size="12" lengthAdjust="spacing" textLength="133">aws_ec2_network_acl</text><line style="stroke:#a80036;stroke-width:1.5" x1="143.5" x2="306.5" y1="518" y2="518"/><ellipse cx="153.5" cy="529" rx="3" ry="3" style="stroke:#038048;stroke-width:1;fill:none"/><text x="162.5" y="532.21" fill="#000" font-family="sans-serif" font-size="11" lengthAdjust="spacing" textLength="108">is_default: boolean</text><line style="stroke:#a80036;stroke-width:1.5" x1="143.5" x2="306.5" y1="538.805" y2="538.805"/><rect id="network_acl" width="106" height="48" x="80" y="310.5" fill="#FEFECE" codeLine="20" filter="url(#f1p952g5hx2d9z)" style="stroke:#a80036;stroke-width:1.5"/><ellipse cx="95" cy="326.5" fill="#ADD1B2" rx="11" ry="11" style="stroke:#a80036;stroke-width:1"/><path fill="#000" d="M97.9688,332.1406 Q97.3906,332.4375 96.75,332.5781 Q96.1094,332.7344 95.4063,332.7344 Q92.9063,332.7344 91.5781,331.0938 Q90.2656,329.4375 90.2656,326.3125 Q90.2656,323.1875 91.5781,321.5313 Q92.9063,319.875 95.4063,319.875 Q96.1094,319.875 96.75,320.0313 Q97.4063,320.1875 97.9688,320.4844 L97.9688,323.2031 Q97.3438,322.625 96.75,322.3594 Q96.1563,322.0781 95.5313,322.0781 Q94.1875,322.0781 93.5,323.1563 Q92.8125,324.2188 92.8125,326.3125 Q92.8125,328.4063 93.5,329.4844 Q94.1875,330.5469 95.5313,330.5469 Q96.1563,330.5469 96.75,330.2813 Q97.3438,330 97.9688,329.4219 L97.9688,332.1406 Z"/><text x="109" y="330.654" fill="#000" font-family="sans-serif" font-size="12" lengthAdjust="spacing" textLength="74">network_acl</text><line style="stroke:#a80036;stroke-width:1.5" x1="81" x2="185" y1="342.5" y2="342.5"/><line style="stroke:#a80036;stroke-width:1.5" x1="81" x2="185" y1="350.5" y2="350.5"/><path id="aws_resource-backto-aws_ec2_network_acl" fill="none" d="M265.03,384.48 C255.14,416.85 242.5,458.23 234.1,485.73" codeLine="23" style="stroke:#a80036;stroke-width:1"/><polygon fill="none" points="258.38 382.3 270.92 365.22 271.77 386.4 258.38 382.3" style="stroke:#a80036;stroke-width:1"/><path id="network_acl-backto-aws_ec2_network_acl" fill="none" d="M153.99,376.57 C171.02,409.89 194.62,456.05 209.85,485.85" codeLine="24" style="stroke:#a80036;stroke-width:1"/><polygon fill="none" points="147.71 379.66 144.84 358.66 160.17 373.29 147.71 379.66" style="stroke:#a80036;stroke-width:1"/><path id="resource-backto-network_acl" fill="none" d="M133,203.16 C133,243.25 133,285.12 133,310.25" codeLine="25" style="stroke:#a80036;stroke-width:1"/><polygon fill="none" points="126 203.09 133 183.09 140 203.09 126 203.09" style="stroke:#a80036;stroke-width:1"/></g></svg>