<?xml version="1.0" encoding="UTF-8" standalone="no"?><svg xmlns="http://www.w3.org/2000/svg" xmlns:xlink="http://www.w3.org/1999/xlink" contentScriptType="application/ecmascript" contentStyleType="text/css" height="924px" preserveAspectRatio="none" style="width:359px;height:924px;background:#00000000;" version="1.1" viewBox="0 0 359 924" width="359px" zoomAndPan="magnify"><defs><filter height="300%" id="fwyeb7f5ktpue" width="300%" x="-1" y="-1"><feGaussianBlur result="blurOut" stdDeviation="2.0"/><feColorMatrix in="blurOut" result="blurOut2" type="matrix" values="0 0 0 0 0 0 0 0 0 0 0 0 0 0 0 0 0 0 .4 0"/><feOffset dx="4.0" dy="4.0" in="blurOut2" result="blurOut3"/><feBlend in="SourceGraphic" in2="blurOut3" mode="normal"/></filter></defs><g><!--MD5=[156df1ec125634b672185ad659f2920c]
class phantom_resource--><rect codeLine="2" fill="#FEFECE" filter="url(#fwyeb7f5ktpue)" height="48" id="phantom_resource" style="stroke:#A80036;stroke-width:1.5;" width="150" x="144" y="304"/><ellipse cx="159" cy="320" fill="#ADD1B2" rx="11" ry="11" style="stroke:#A80036;stroke-width:1.0;"/><path d="M161.9688,325.6406 Q161.3906,325.9375 160.75,326.0781 Q160.1094,326.2344 159.4063,326.2344 Q156.9063,326.2344 155.5781,324.5938 Q154.2656,322.9375 154.2656,319.8125 Q154.2656,316.6875 155.5781,315.0313 Q156.9063,313.375 159.4063,313.375 Q160.1094,313.375 160.75,313.5313 Q161.4063,313.6875 161.9688,313.9844 L161.9688,316.7031 Q161.3438,316.125 160.75,315.8594 Q160.1563,315.5781 159.5313,315.5781 Q158.1875,315.5781 157.5,316.6563 Q156.8125,317.7188 156.8125,319.8125 Q156.8125,321.9063 157.5,322.9844 Q158.1875,324.0469 159.5313,324.0469 Q160.1563,324.0469 160.75,323.7813 Q161.3438,323.5 161.9688,322.9219 L161.9688,325.6406 Z " fill="#000000"/><text fill="#000000" font-family="sans-serif" font-size="12" lengthAdjust="spacing" textLength="118" x="173" y="324.1543">phantom_resource</text><line style="stroke:#A80036;stroke-width:1.5;" x1="145" x2="293" y1="336" y2="336"/><line style="stroke:#A80036;stroke-width:1.5;" x1="145" x2="293" y1="344" y2="344"/><!--MD5=[7f0ecf5f554433d3f2e1213379ac821c]
class resource--><rect codeLine="5" fill="#FEFECE" filter="url(#fwyeb7f5ktpue)" height="176.0469" id="resource" style="stroke:#A80036;stroke-width:1.5;" width="252" x="93" y="7"/><ellipse cx="186.75" cy="23" fill="#ADD1B2" rx="11" ry="11" style="stroke:#A80036;stroke-width:1.0;"/><path d="M189.7188,28.6406 Q189.1406,28.9375 188.5,29.0781 Q187.8594,29.2344 187.1563,29.2344 Q184.6563,29.2344 183.3281,27.5938 Q182.0156,25.9375 182.0156,22.8125 Q182.0156,19.6875 183.3281,18.0313 Q184.6563,16.375 187.1563,16.375 Q187.8594,16.375 188.5,16.5313 Q189.1563,16.6875 189.7188,16.9844 L189.7188,19.7031 Q189.0938,19.125 188.5,18.8594 Q187.9063,18.5781 187.2813,18.5781 Q185.9375,18.5781 185.25,19.6563 Q184.5625,20.7188 184.5625,22.8125 Q184.5625,24.9063 185.25,25.9844 Q185.9375,27.0469 187.2813,27.0469 Q187.9063,27.0469 188.5,26.7813 Q189.0938,26.5 189.7188,25.9219 L189.7188,28.6406 Z " fill="#000000"/><text fill="#000000" font-family="sans-serif" font-size="12" lengthAdjust="spacing" textLength="56" x="207.25" y="27.1543">resource</text><line style="stroke:#A80036;stroke-width:1.5;" x1="94" x2="344" y1="39" y2="39"/><ellipse cx="104" cy="50" rx="3" ry="3" style="stroke:#038048;stroke-width:1.0;fill:none;"/><text fill="#000000" font-family="sans-serif" font-size="11" lengthAdjust="spacing" textLength="51" x="113" y="53.2104">id: string</text><ellipse cx="104" cy="62.8047" rx="3" ry="3" style="stroke:#038048;stroke-width:1.0;fill:none;"/><text fill="#000000" font-family="sans-serif" font-size="11" lengthAdjust="spacing" textLength="170" x="113" y="66.0151">tags: dictionary[string, string]</text><ellipse cx="104" cy="75.6094" rx="3" ry="3" style="stroke:#038048;stroke-width:1.0;fill:none;"/><text fill="#000000" font-family="sans-serif" font-size="11" lengthAdjust="spacing" textLength="73" x="113" y="78.8198">name: string</text><ellipse cx="104" cy="88.4141" rx="3" ry="3" style="stroke:#038048;stroke-width:1.0;fill:none;"/><text fill="#000000" font-family="sans-serif" font-size="11" lengthAdjust="spacing" textLength="89" x="113" y="91.6245">ctime: datetime</text><ellipse cx="104" cy="101.2188" rx="3" ry="3" style="stroke:#038048;stroke-width:1.0;fill:none;"/><text fill="#000000" font-family="sans-serif" font-size="11" lengthAdjust="spacing" textLength="180" x="113" y="104.4292">age: trafo.duration_to_datetime</text><ellipse cx="104" cy="114.0234" rx="3" ry="3" style="stroke:#038048;stroke-width:1.0;fill:none;"/><text fill="#000000" font-family="sans-serif" font-size="11" lengthAdjust="spacing" textLength="94" x="113" y="117.2339">mtime: datetime</text><ellipse cx="104" cy="126.8281" rx="3" ry="3" style="stroke:#038048;stroke-width:1.0;fill:none;"/><text fill="#000000" font-family="sans-serif" font-size="11" lengthAdjust="spacing" textLength="225" x="113" y="130.0386">last_update: trafo.duration_to_datetime</text><ellipse cx="104" cy="139.6328" rx="3" ry="3" style="stroke:#038048;stroke-width:1.0;fill:none;"/><text fill="#000000" font-family="sans-serif" font-size="11" lengthAdjust="spacing" textLength="90" x="113" y="142.8433">atime: datetime</text><ellipse cx="104" cy="152.4375" rx="3" ry="3" style="stroke:#038048;stroke-width:1.0;fill:none;"/><text fill="#000000" font-family="sans-serif" font-size="11" lengthAdjust="spacing" textLength="226" x="113" y="155.6479">last_access: trafo.duration_to_datetime</text><ellipse cx="104" cy="165.2422" rx="3" ry="3" style="stroke:#038048;stroke-width:1.0;fill:none;"/><text fill="#000000" font-family="sans-serif" font-size="11" lengthAdjust="spacing" textLength="64" x="113" y="168.4526">kind: string</text><line style="stroke:#A80036;stroke-width:1.5;" x1="94" x2="344" y1="175.0469" y2="175.0469"/><!--MD5=[c069b88079f3e36515859a1683f3923c]
class aws_resource--><rect codeLine="17" fill="#FEFECE" filter="url(#fwyeb7f5ktpue)" height="60.8047" id="aws_resource" style="stroke:#A80036;stroke-width:1.5;" width="118" x="7" y="680"/><ellipse cx="22" cy="696" fill="#ADD1B2" rx="11" ry="11" style="stroke:#A80036;stroke-width:1.0;"/><path d="M24.9688,701.6406 Q24.3906,701.9375 23.75,702.0781 Q23.1094,702.2344 22.4063,702.2344 Q19.9063,702.2344 18.5781,700.5938 Q17.2656,698.9375 17.2656,695.8125 Q17.2656,692.6875 18.5781,691.0313 Q19.9063,689.375 22.4063,689.375 Q23.1094,689.375 23.75,689.5313 Q24.4063,689.6875 24.9688,689.9844 L24.9688,692.7031 Q24.3438,692.125 23.75,691.8594 Q23.1563,691.5781 22.5313,691.5781 Q21.1875,691.5781 20.5,692.6563 Q19.8125,693.7188 19.8125,695.8125 Q19.8125,697.9063 20.5,698.9844 Q21.1875,700.0469 22.5313,700.0469 Q23.1563,700.0469 23.75,699.7813 Q24.3438,699.5 24.9688,698.9219 L24.9688,701.6406 Z " fill="#000000"/><text fill="#000000" font-family="sans-serif" font-size="12" lengthAdjust="spacing" textLength="86" x="36" y="700.1543">aws_resource</text><line style="stroke:#A80036;stroke-width:1.5;" x1="8" x2="124" y1="712" y2="712"/><ellipse cx="18" cy="723" rx="3" ry="3" style="stroke:#038048;stroke-width:1.0;fill:none;"/><text fill="#000000" font-family="sans-serif" font-size="11" lengthAdjust="spacing" textLength="60" x="27" y="726.2104">arn: string</text><line style="stroke:#A80036;stroke-width:1.5;" x1="8" x2="124" y1="732.8047" y2="732.8047"/><!--MD5=[205bc3e74ea7d385e2b6aa1bb29a5024]
class quota--><rect codeLine="20" fill="#FEFECE" filter="url(#fwyeb7f5ktpue)" height="86.4141" id="quota" style="stroke:#A80036;stroke-width:1.5;" width="129" x="154.5" y="473"/><ellipse cx="196.5" cy="489" fill="#ADD1B2" rx="11" ry="11" style="stroke:#A80036;stroke-width:1.0;"/><path d="M199.4688,494.6406 Q198.8906,494.9375 198.25,495.0781 Q197.6094,495.2344 196.9063,495.2344 Q194.4063,495.2344 193.0781,493.5938 Q191.7656,491.9375 191.7656,488.8125 Q191.7656,485.6875 193.0781,484.0313 Q194.4063,482.375 196.9063,482.375 Q197.6094,482.375 198.25,482.5313 Q198.9063,482.6875 199.4688,482.9844 L199.4688,485.7031 Q198.8438,485.125 198.25,484.8594 Q197.6563,484.5781 197.0313,484.5781 Q195.6875,484.5781 195,485.6563 Q194.3125,486.7188 194.3125,488.8125 Q194.3125,490.9063 195,491.9844 Q195.6875,493.0469 197.0313,493.0469 Q197.6563,493.0469 198.25,492.7813 Q198.8438,492.5 199.4688,491.9219 L199.4688,494.6406 Z " fill="#000000"/><text fill="#000000" font-family="sans-serif" font-size="12" lengthAdjust="spacing" textLength="37" x="216.5" y="493.1543">quota</text><line style="stroke:#A80036;stroke-width:1.5;" x1="155.5" x2="282.5" y1="505" y2="505"/><ellipse cx="165.5" cy="516" rx="3" ry="3" style="stroke:#038048;stroke-width:1.0;fill:none;"/><text fill="#000000" font-family="sans-serif" font-size="11" lengthAdjust="spacing" textLength="78" x="174.5" y="519.2104">quota: double</text><ellipse cx="165.5" cy="528.8047" rx="3" ry="3" style="stroke:#038048;stroke-width:1.0;fill:none;"/><text fill="#000000" font-family="sans-serif" font-size="11" lengthAdjust="spacing" textLength="81" x="174.5" y="532.0151">usage: double</text><ellipse cx="165.5" cy="541.6094" rx="3" ry="3" style="stroke:#038048;stroke-width:1.0;fill:none;"/><text fill="#000000" font-family="sans-serif" font-size="11" lengthAdjust="spacing" textLength="103" x="174.5" y="544.8198">quota_type: string</text><line style="stroke:#A80036;stroke-width:1.5;" x1="155.5" x2="282.5" y1="551.4141" y2="551.4141"/><!--MD5=[6b9a354f0f3f26eae4b466b6cf4500fc]
class aws_s3_bucket_quota--><rect codeLine="25" fill="#FEFECE" filter="url(#fwyeb7f5ktpue)" height="48" id="aws_s3_bucket_quota" style="stroke:#A80036;stroke-width:1.5;" width="169" x="16.5" y="862"/><ellipse cx="31.5" cy="878" fill="#ADD1B2" rx="11" ry="11" style="stroke:#A80036;stroke-width:1.0;"/><path d="M34.4688,883.6406 Q33.8906,883.9375 33.25,884.0781 Q32.6094,884.2344 31.9063,884.2344 Q29.4063,884.2344 28.0781,882.5938 Q26.7656,880.9375 26.7656,877.8125 Q26.7656,874.6875 28.0781,873.0313 Q29.4063,871.375 31.9063,871.375 Q32.6094,871.375 33.25,871.5313 Q33.9063,871.6875 34.4688,871.9844 L34.4688,874.7031 Q33.8438,874.125 33.25,873.8594 Q32.6563,873.5781 32.0313,873.5781 Q30.6875,873.5781 30,874.6563 Q29.3125,875.7188 29.3125,877.8125 Q29.3125,879.9063 30,880.9844 Q30.6875,882.0469 32.0313,882.0469 Q32.6563,882.0469 33.25,881.7813 Q33.8438,881.5 34.4688,880.9219 L34.4688,883.6406 Z " fill="#000000"/><text fill="#000000" font-family="sans-serif" font-size="12" lengthAdjust="spacing" textLength="137" x="45.5" y="882.1543">aws_s3_bucket_quota</text><line style="stroke:#A80036;stroke-width:1.5;" x1="17.5" x2="184.5" y1="894" y2="894"/><line style="stroke:#A80036;stroke-width:1.5;" x1="17.5" x2="184.5" y1="902" y2="902"/><!--MD5=[a0290bcb624fa3fb04b44d3ffcdb591b]
class bucket_quota--><rect codeLine="28" fill="#FEFECE" filter="url(#fwyeb7f5ktpue)" height="48" id="bucket_quota" style="stroke:#A80036;stroke-width:1.5;" width="118" x="160" y="686.5"/><ellipse cx="175" cy="702.5" fill="#ADD1B2" rx="11" ry="11" style="stroke:#A80036;stroke-width:1.0;"/><path d="M177.9688,708.1406 Q177.3906,708.4375 176.75,708.5781 Q176.1094,708.7344 175.4063,708.7344 Q172.9063,708.7344 171.5781,707.0938 Q170.2656,705.4375 170.2656,702.3125 Q170.2656,699.1875 171.5781,697.5313 Q172.9063,695.875 175.4063,695.875 Q176.1094,695.875 176.75,696.0313 Q177.4063,696.1875 177.9688,696.4844 L177.9688,699.2031 Q177.3438,698.625 176.75,698.3594 Q176.1563,698.0781 175.5313,698.0781 Q174.1875,698.0781 173.5,699.1563 Q172.8125,700.2188 172.8125,702.3125 Q172.8125,704.4063 173.5,705.4844 Q174.1875,706.5469 175.5313,706.5469 Q176.1563,706.5469 176.75,706.2813 Q177.3438,706 177.9688,705.4219 L177.9688,708.1406 Z " fill="#000000"/><text fill="#000000" font-family="sans-serif" font-size="12" lengthAdjust="spacing" textLength="86" x="189" y="706.6543">bucket_quota</text><line style="stroke:#A80036;stroke-width:1.5;" x1="161" x2="277" y1="718.5" y2="718.5"/><line style="stroke:#A80036;stroke-width:1.5;" x1="161" x2="277" y1="726.5" y2="726.5"/><!--MD5=[e134558fd6f7e839ecb28ecbda576c0a]
reverse link resource to phantom_resource--><path codeLine="31" d="M219,203.18 C219,241 219,280.01 219,303.89 " fill="none" id="resource-backto-phantom_resource" style="stroke:#A80036;stroke-width:1.0;"/><polygon fill="none" points="212,203,219,183,226,203,212,203" style="stroke:#A80036;stroke-width:1.0;"/><!--MD5=[8c556d10106c40540c768b31155cb09d]
reverse link phantom_resource to quota--><path codeLine="32" d="M219,372.6 C219,402.8 219,442.79 219,472.7 " fill="none" id="phantom_resource-backto-quota" style="stroke:#A80036;stroke-width:1.0;"/><polygon fill="none" points="212,372.18,219,352.18,226,372.18,212,372.18" style="stroke:#A80036;stroke-width:1.0;"/><!--MD5=[bd4906ceeb75c7246e7891a9aa7c5636]
reverse link aws_resource to aws_s3_bucket_quota--><path codeLine="33" d="M76,761.07 C82.69,794.23 91.18,836.32 96.35,861.93 " fill="none" id="aws_resource-backto-aws_s3_bucket_quota" style="stroke:#A80036;stroke-width:1.0;"/><polygon fill="none" points="69.11,762.32,72.02,741.33,82.83,759.55,69.11,762.32" style="stroke:#A80036;stroke-width:1.0;"/><!--MD5=[d9df0e0098f2f5444e70fe158567e71e]
reverse link bucket_quota to aws_s3_bucket_quota--><path codeLine="34" d="M191.84,751.44 C168.58,785.64 135.9,833.69 116.73,861.87 " fill="none" id="bucket_quota-backto-aws_s3_bucket_quota" style="stroke:#A80036;stroke-width:1.0;"/><polygon fill="none" points="186.29,747.14,203.33,734.54,197.87,755.01,186.29,747.14" style="stroke:#A80036;stroke-width:1.0;"/><!--MD5=[cf574de317f5a9ea06db09e387602f3f]
reverse link quota to bucket_quota--><path codeLine="35" d="M219,579.45 C219,616.01 219,660.02 219,686.33 " fill="none" id="quota-backto-bucket_quota" style="stroke:#A80036;stroke-width:1.0;"/><polygon fill="none" points="212,579.24,219,559.24,226,579.24,212,579.24" style="stroke:#A80036;stroke-width:1.0;"/><!--MD5=[d51c506afd67c6db646da0e46176e7ce]
@startuml
skinparam backgroundcolor transparent
class phantom_resource {

}
class resource {
+ id: string
+ tags: dictionary[string, string]
+ name: string
+ ctime: datetime
+ age: trafo.duration_to_datetime
+ mtime: datetime
+ last_update: trafo.duration_to_datetime
+ atime: datetime
+ last_access: trafo.duration_to_datetime
+ kind: string
}
class aws_resource {
+ arn: string
}
class quota {
+ quota: double
+ usage: double
+ quota_type: string
}
class aws_s3_bucket_quota {

}
class bucket_quota {

}
resource <|- - - phantom_resource
phantom_resource <|- - - quota
aws_resource <|- - - aws_s3_bucket_quota
bucket_quota <|- - - aws_s3_bucket_quota
quota <|- - - bucket_quota
@enduml

PlantUML version 1.2021.16(Wed Dec 08 17:25:22 UTC 2021)
(GPL source distribution)
Java Runtime: OpenJDK Runtime Environment
JVM: OpenJDK 64-Bit Server VM
Default Encoding: UTF-8
Language: en
Country: null
--></g></svg>