<svg xmlns="http://www.w3.org/2000/svg" xmlns:xlink="http://www.w3.org/1999/xlink" width="390" height="696" contentScriptType="application/ecmascript" contentStyleType="text/css" style="width:390px;height:696px;background:#00000000" preserveAspectRatio="none" version="1.1" viewBox="0 0 390 696" zoomAndPan="magnify"><g><rect id="resource" width="256" height="275.836" x="7" y="7" fill="#194875" codeLine="17" rx="2.5" ry="2.5" style="stroke:#000;stroke-width:1.5"/><ellipse cx="90.25" cy="26.895" fill="#1A83AF" rx="11" ry="11" style="stroke:#000;stroke-width:1"/><path fill="#000" d="M93.2188,32.5352 Q92.6406,32.832 92,32.9727 Q91.3594,33.1289 90.6563,33.1289 Q88.1563,33.1289 86.8281,31.4883 Q85.5156,29.832 85.5156,26.707 Q85.5156,23.582 86.8281,21.9258 Q88.1563,20.2695 90.6563,20.2695 Q91.3594,20.2695 92,20.4258 Q92.6563,20.582 93.2188,20.8789 L93.2188,23.5977 Q92.5938,23.0195 92,22.7539 Q91.4063,22.4727 90.7813,22.4727 Q89.4375,22.4727 88.75,23.5508 Q88.0625,24.6133 88.0625,26.707 Q88.0625,28.8008 88.75,29.8789 Q89.4375,30.9414 90.7813,30.9414 Q91.4063,30.9414 92,30.6758 Q92.5938,30.3945 93.2188,29.8164 L93.2188,32.5352 Z"/><text x="115.75" y="32.78" fill="#FFE797" font-family="Helvetica" font-size="17" lengthAdjust="spacing" textLength="71">resource</text><line style="stroke:#000;stroke-width:1.5" x1="8" x2="262" y1="46.789" y2="46.789"/><text x="18" y="65.999" fill="#FFE797" font-family="sans-serif" font-size="11" font-weight="bold" lengthAdjust="spacing" textLength="12">id</text><text x="30" y="65.999" fill="#FFE797" font-family="sans-serif" font-size="11" lengthAdjust="spacing" textLength="41">: string</text><text x="18" y="88.804" fill="#FFE797" font-family="sans-serif" font-size="11" font-weight="bold" lengthAdjust="spacing" textLength="28">tags</text><text x="46" y="88.804" fill="#FFE797" font-family="sans-serif" font-size="11" lengthAdjust="spacing" textLength="145">: dictionary[string, string]</text><text x="18" y="111.609" fill="#FFE797" font-family="sans-serif" font-size="11" font-weight="bold" lengthAdjust="spacing" textLength="35">name</text><text x="53" y="111.609" fill="#FFE797" font-family="sans-serif" font-size="11" lengthAdjust="spacing" textLength="41">: string</text><text x="18" y="134.414" fill="#FFE797" font-family="sans-serif" font-size="11" font-weight="bold" lengthAdjust="spacing" textLength="35">ctime</text><text x="53" y="134.414" fill="#FFE797" font-family="sans-serif" font-size="11" lengthAdjust="spacing" textLength="58">: datetime</text><text x="18" y="157.218" fill="#FFE797" font-family="sans-serif" font-size="11" font-weight="bold" lengthAdjust="spacing" textLength="24">age</text><text x="42" y="157.218" fill="#FFE797" font-family="sans-serif" font-size="11" lengthAdjust="spacing" textLength="159">: trafo.duration_to_datetime</text><text x="18" y="180.023" fill="#FFE797" font-family="sans-serif" font-size="11" font-weight="bold" lengthAdjust="spacing" textLength="39">mtime</text><text x="57" y="180.023" fill="#FFE797" font-family="sans-serif" font-size="11" lengthAdjust="spacing" textLength="58">: datetime</text><text x="18" y="202.828" fill="#FFE797" font-family="sans-serif" font-size="11" font-weight="bold" lengthAdjust="spacing" textLength="75">last_update</text><text x="93" y="202.828" fill="#FFE797" font-family="sans-serif" font-size="11" lengthAdjust="spacing" textLength="159">: trafo.duration_to_datetime</text><text x="18" y="225.632" fill="#FFE797" font-family="sans-serif" font-size="11" font-weight="bold" lengthAdjust="spacing" textLength="36">atime</text><text x="54" y="225.632" fill="#FFE797" font-family="sans-serif" font-size="11" lengthAdjust="spacing" textLength="58">: datetime</text><text x="18" y="248.437" fill="#FFE797" font-family="sans-serif" font-size="11" font-weight="bold" lengthAdjust="spacing" textLength="74">last_access</text><text x="92" y="248.437" fill="#FFE797" font-family="sans-serif" font-size="11" lengthAdjust="spacing" textLength="159">: trafo.duration_to_datetime</text><text x="18" y="271.242" fill="#FFE797" font-family="sans-serif" font-size="11" font-weight="bold" lengthAdjust="spacing" textLength="27">kind</text><text x="45" y="271.242" fill="#FFE797" font-family="sans-serif" font-size="11" lengthAdjust="spacing" textLength="41">: string</text><rect id="aws_resource" width="155" height="70.594" x="228.5" y="404" fill="#194875" codeLine="29" rx="2.5" ry="2.5" style="stroke:#000;stroke-width:1.5"/><ellipse cx="243.5" cy="423.894" fill="#1A83AF" rx="11" ry="11" style="stroke:#000;stroke-width:1"/><path fill="#000" d="M246.4688,429.5352 Q245.8906,429.832 245.25,429.9727 Q244.6094,430.1289 243.9063,430.1289 Q241.4063,430.1289 240.0781,428.4883 Q238.7656,426.832 238.7656,423.707 Q238.7656,420.582 240.0781,418.9258 Q241.4063,417.2695 243.9063,417.2695 Q244.6094,417.2695 245.25,417.4258 Q245.9063,417.582 246.4688,417.8789 L246.4688,420.5977 Q245.8438,420.0195 245.25,419.7539 Q244.6563,419.4727 244.0313,419.4727 Q242.6875,419.4727 242,420.5508 Q241.3125,421.6133 241.3125,423.707 Q241.3125,425.8008 242,426.8789 Q242.6875,427.9414 244.0313,427.9414 Q244.6563,427.9414 245.25,427.6758 Q245.8438,427.3945 246.4688,426.8164 L246.4688,429.5352 Z"/><text x="262.5" y="429.78" fill="#FFE797" font-family="Helvetica" font-size="17" lengthAdjust="spacing" textLength="113">aws_resource</text><line style="stroke:#000;stroke-width:1.5" x1="229.5" x2="382.5" y1="443.789" y2="443.789"/><text x="239.5" y="463" fill="#FFE797" font-family="sans-serif" font-size="11" font-weight="bold" lengthAdjust="spacing" textLength="21">arn</text><text x="260.5" y="463" fill="#FFE797" font-family="sans-serif" font-size="11" lengthAdjust="spacing" textLength="41">: string</text><rect id="aws_vpc_endpoint" width="195" height="93.398" x="122.5" y="596" fill="#194875" codeLine="32" rx="2.5" ry="2.5" style="stroke:#000;stroke-width:1.5"/><ellipse cx="137.5" cy="615.894" fill="#1A83AF" rx="11" ry="11" style="stroke:#000;stroke-width:1"/><path fill="#000" d="M140.4688,621.5352 Q139.8906,621.832 139.25,621.9727 Q138.6094,622.1289 137.9063,622.1289 Q135.4063,622.1289 134.0781,620.4883 Q132.7656,618.832 132.7656,615.707 Q132.7656,612.582 134.0781,610.9258 Q135.4063,609.2695 137.9063,609.2695 Q138.6094,609.2695 139.25,609.4258 Q139.9063,609.582 140.4688,609.8789 L140.4688,612.5977 Q139.8438,612.0195 139.25,611.7539 Q138.6563,611.4727 138.0313,611.4727 Q136.6875,611.4727 136,612.5508 Q135.3125,613.6133 135.3125,615.707 Q135.3125,617.8008 136,618.8789 Q136.6875,619.9414 138.0313,619.9414 Q138.6563,619.9414 139.25,619.6758 Q139.8438,619.3945 140.4688,618.8164 L140.4688,621.5352 Z"/><text x="156.5" y="621.78" fill="#FFE797" font-family="Helvetica" font-size="17" lengthAdjust="spacing" textLength="153">aws_vpc_endpoint</text><line style="stroke:#000;stroke-width:1.5" x1="123.5" x2="316.5" y1="635.789" y2="635.789"/><text x="133.5" y="655" fill="#FFE797" font-family="sans-serif" font-size="11" font-weight="bold" lengthAdjust="spacing" textLength="119">vpc_endpoint_type</text><text x="252.5" y="655" fill="#FFE797" font-family="sans-serif" font-size="11" lengthAdjust="spacing" textLength="41">: string</text><text x="133.5" y="677.804" fill="#FFE797" font-family="sans-serif" font-size="11" font-weight="bold" lengthAdjust="spacing" textLength="131">vpc_endpoint_status</text><text x="264.5" y="677.804" fill="#FFE797" font-family="sans-serif" font-size="11" lengthAdjust="spacing" textLength="41">: string</text><rect id="endpoint" width="116" height="39.789" x="77" y="419.5" fill="#194875" codeLine="36" rx="2.5" ry="2.5" style="stroke:#000;stroke-width:1.5"/><ellipse cx="92" cy="439.394" fill="#1A83AF" rx="11" ry="11" style="stroke:#000;stroke-width:1"/><path fill="#000" d="M94.9688,445.0352 Q94.3906,445.332 93.75,445.4727 Q93.1094,445.6289 92.4063,445.6289 Q89.9063,445.6289 88.5781,443.9883 Q87.2656,442.332 87.2656,439.207 Q87.2656,436.082 88.5781,434.4258 Q89.9063,432.7695 92.4063,432.7695 Q93.1094,432.7695 93.75,432.9258 Q94.4063,433.082 94.9688,433.3789 L94.9688,436.0977 Q94.3438,435.5195 93.75,435.2539 Q93.1563,434.9727 92.5313,434.9727 Q91.1875,434.9727 90.5,436.0508 Q89.8125,437.1133 89.8125,439.207 Q89.8125,441.3008 90.5,442.3789 Q91.1875,443.4414 92.5313,443.4414 Q93.1563,443.4414 93.75,443.1758 Q94.3438,442.8945 94.9688,442.3164 L94.9688,445.0352 Z"/><text x="111" y="445.28" fill="#FFE797" font-family="Helvetica" font-size="17" lengthAdjust="spacing" textLength="74">endpoint</text><path id="aws_resource-backto-aws_vpc_endpoint" fill="none" d="M283.27,493.62 C269.68,525.39 252.58,565.36 239.58,595.73" codeLine="39" style="stroke:#ffaf37;stroke-width:2"/><polygon fill="none" points="276.91 490.69 291.22 475.05 289.78 496.19 276.91 490.69" style="stroke:#ffaf37;stroke-width:2"/><path id="endpoint-backto-aws_vpc_endpoint" fill="none" d="M150.97,478.27 C165.05,511.55 185.59,560.14 200.61,595.65" codeLine="40" style="stroke:#ffaf37;stroke-width:2"/><polygon fill="none" points="144.49 480.92 143.15 459.77 157.39 475.47 144.49 480.92" style="stroke:#ffaf37;stroke-width:2"/><path id="resource-backto-endpoint" fill="none" d="M135,303.51 C135,349.86 135,394.69 135,419.24" codeLine="41" style="stroke:#ffaf37;stroke-width:2"/><polygon fill="none" points="128 303.26 135 283.26 142 303.26 128 303.26" style="stroke:#ffaf37;stroke-width:2"/></g></svg>