<svg xmlns="http://www.w3.org/2000/svg" xmlns:xlink="http://www.w3.org/1999/xlink" width="366" height="548" contentScriptType="application/ecmascript" contentStyleType="text/css" style="width:366px;height:548px;background:#00000000" preserveAspectRatio="none" version="1.1" viewBox="0 0 366 548" zoomAndPan="magnify"><defs><filter id="f1hnknwtv2nj6r" width="300%" height="300%" x="-1" y="-1"><feGaussianBlur result="blurOut" stdDeviation="2"/><feColorMatrix in="blurOut" result="blurOut2" type="matrix" values="0 0 0 0 0 0 0 0 0 0 0 0 0 0 0 0 0 0 .4 0"/><feOffset dx="4" dy="4" in="blurOut2" result="blurOut3"/><feBlend in="SourceGraphic" in2="blurOut3" mode="normal"/></filter></defs><g><rect id="resource" width="252" height="176.047" x="7" y="7" fill="#FEFECE" codeLine="2" filter="url(#f1hnknwtv2nj6r)" style="stroke:#a80036;stroke-width:1.5"/><ellipse cx="100.75" cy="23" fill="#ADD1B2" rx="11" ry="11" style="stroke:#a80036;stroke-width:1"/><path fill="#000" d="M103.7188,28.6406 Q103.1406,28.9375 102.5,29.0781 Q101.8594,29.2344 101.1563,29.2344 Q98.6563,29.2344 97.3281,27.5938 Q96.0156,25.9375 96.0156,22.8125 Q96.0156,19.6875 97.3281,18.0313 Q98.6563,16.375 101.1563,16.375 Q101.8594,16.375 102.5,16.5313 Q103.1563,16.6875 103.7188,16.9844 L103.7188,19.7031 Q103.0938,19.125 102.5,18.8594 Q101.9063,18.5781 101.2813,18.5781 Q99.9375,18.5781 99.25,19.6563 Q98.5625,20.7188 98.5625,22.8125 Q98.5625,24.9063 99.25,25.9844 Q99.9375,27.0469 101.2813,27.0469 Q101.9063,27.0469 102.5,26.7813 Q103.0938,26.5 103.7188,25.9219 L103.7188,28.6406 Z"/><text x="121.25" y="27.154" fill="#000" font-family="sans-serif" font-size="12" lengthAdjust="spacing" textLength="56">resource</text><line style="stroke:#a80036;stroke-width:1.5" x1="8" x2="258" y1="39" y2="39"/><ellipse cx="18" cy="50" rx="3" ry="3" style="stroke:#038048;stroke-width:1;fill:none"/><text x="27" y="53.21" fill="#000" font-family="sans-serif" font-size="11" lengthAdjust="spacing" textLength="51">id: string</text><ellipse cx="18" cy="62.805" rx="3" ry="3" style="stroke:#038048;stroke-width:1;fill:none"/><text x="27" y="66.015" fill="#000" font-family="sans-serif" font-size="11" lengthAdjust="spacing" textLength="170">tags: dictionary[string, string]</text><ellipse cx="18" cy="75.609" rx="3" ry="3" style="stroke:#038048;stroke-width:1;fill:none"/><text x="27" y="78.82" fill="#000" font-family="sans-serif" font-size="11" lengthAdjust="spacing" textLength="73">name: string</text><ellipse cx="18" cy="88.414" rx="3" ry="3" style="stroke:#038048;stroke-width:1;fill:none"/><text x="27" y="91.624" fill="#000" font-family="sans-serif" font-size="11" lengthAdjust="spacing" textLength="89">ctime: datetime</text><ellipse cx="18" cy="101.219" rx="3" ry="3" style="stroke:#038048;stroke-width:1;fill:none"/><text x="27" y="104.429" fill="#000" font-family="sans-serif" font-size="11" lengthAdjust="spacing" textLength="180">age: trafo.duration_to_datetime</text><ellipse cx="18" cy="114.023" rx="3" ry="3" style="stroke:#038048;stroke-width:1;fill:none"/><text x="27" y="117.234" fill="#000" font-family="sans-serif" font-size="11" lengthAdjust="spacing" textLength="94">mtime: datetime</text><ellipse cx="18" cy="126.828" rx="3" ry="3" style="stroke:#038048;stroke-width:1;fill:none"/><text x="27" y="130.039" fill="#000" font-family="sans-serif" font-size="11" lengthAdjust="spacing" textLength="225">last_update: trafo.duration_to_datetime</text><ellipse cx="18" cy="139.633" rx="3" ry="3" style="stroke:#038048;stroke-width:1;fill:none"/><text x="27" y="142.843" fill="#000" font-family="sans-serif" font-size="11" lengthAdjust="spacing" textLength="90">atime: datetime</text><ellipse cx="18" cy="152.438" rx="3" ry="3" style="stroke:#038048;stroke-width:1;fill:none"/><text x="27" y="155.648" fill="#000" font-family="sans-serif" font-size="11" lengthAdjust="spacing" textLength="226">last_access: trafo.duration_to_datetime</text><ellipse cx="18" cy="165.242" rx="3" ry="3" style="stroke:#038048;stroke-width:1;fill:none"/><text x="27" y="168.453" fill="#000" font-family="sans-serif" font-size="11" lengthAdjust="spacing" textLength="64">kind: string</text><line style="stroke:#a80036;stroke-width:1.5" x1="8" x2="258" y1="175.047" y2="175.047"/><rect id="aws_resource" width="118" height="60.805" x="234" y="304" fill="#FEFECE" codeLine="14" filter="url(#f1hnknwtv2nj6r)" style="stroke:#a80036;stroke-width:1.5"/><ellipse cx="249" cy="320" fill="#ADD1B2" rx="11" ry="11" style="stroke:#a80036;stroke-width:1"/><path fill="#000" d="M251.9688,325.6406 Q251.3906,325.9375 250.75,326.0781 Q250.1094,326.2344 249.4063,326.2344 Q246.9063,326.2344 245.5781,324.5938 Q244.2656,322.9375 244.2656,319.8125 Q244.2656,316.6875 245.5781,315.0313 Q246.9063,313.375 249.4063,313.375 Q250.1094,313.375 250.75,313.5313 Q251.4063,313.6875 251.9688,313.9844 L251.9688,316.7031 Q251.3438,316.125 250.75,315.8594 Q250.1563,315.5781 249.5313,315.5781 Q248.1875,315.5781 247.5,316.6563 Q246.8125,317.7188 246.8125,319.8125 Q246.8125,321.9063 247.5,322.9844 Q248.1875,324.0469 249.5313,324.0469 Q250.1563,324.0469 250.75,323.7813 Q251.3438,323.5 251.9688,322.9219 L251.9688,325.6406 Z"/><text x="263" y="324.154" fill="#000" font-family="sans-serif" font-size="12" lengthAdjust="spacing" textLength="86">aws_resource</text><line style="stroke:#a80036;stroke-width:1.5" x1="235" x2="351" y1="336" y2="336"/><ellipse cx="245" cy="347" rx="3" ry="3" style="stroke:#038048;stroke-width:1;fill:none"/><text x="254" y="350.21" fill="#000" font-family="sans-serif" font-size="11" lengthAdjust="spacing" textLength="60">arn: string</text><line style="stroke:#a80036;stroke-width:1.5" x1="235" x2="351" y1="356.805" y2="356.805"/><rect id="aws_iam_instance_profile" width="189" height="48" x="118.5" y="486" fill="#FEFECE" codeLine="17" filter="url(#f1hnknwtv2nj6r)" style="stroke:#a80036;stroke-width:1.5"/><ellipse cx="133.5" cy="502" fill="#ADD1B2" rx="11" ry="11" style="stroke:#a80036;stroke-width:1"/><path fill="#000" d="M136.4688,507.6406 Q135.8906,507.9375 135.25,508.0781 Q134.6094,508.2344 133.9063,508.2344 Q131.4063,508.2344 130.0781,506.5938 Q128.7656,504.9375 128.7656,501.8125 Q128.7656,498.6875 130.0781,497.0313 Q131.4063,495.375 133.9063,495.375 Q134.6094,495.375 135.25,495.5313 Q135.9063,495.6875 136.4688,495.9844 L136.4688,498.7031 Q135.8438,498.125 135.25,497.8594 Q134.6563,497.5781 134.0313,497.5781 Q132.6875,497.5781 132,498.6563 Q131.3125,499.7188 131.3125,501.8125 Q131.3125,503.9063 132,504.9844 Q132.6875,506.0469 134.0313,506.0469 Q134.6563,506.0469 135.25,505.7813 Q135.8438,505.5 136.4688,504.9219 L136.4688,507.6406 Z"/><text x="147.5" y="506.154" fill="#000" font-family="sans-serif" font-size="12" lengthAdjust="spacing" textLength="157">aws_iam_instance_profile</text><line style="stroke:#a80036;stroke-width:1.5" x1="119.5" x2="306.5" y1="518" y2="518"/><line style="stroke:#a80036;stroke-width:1.5" x1="119.5" x2="306.5" y1="526" y2="526"/><rect id="instance_profile" width="131" height="48" x="67.5" y="310.5" fill="#FEFECE" codeLine="20" filter="url(#f1hnknwtv2nj6r)" style="stroke:#a80036;stroke-width:1.5"/><ellipse cx="82.5" cy="326.5" fill="#ADD1B2" rx="11" ry="11" style="stroke:#a80036;stroke-width:1"/><path fill="#000" d="M85.4688,332.1406 Q84.8906,332.4375 84.25,332.5781 Q83.6094,332.7344 82.9063,332.7344 Q80.4063,332.7344 79.0781,331.0938 Q77.7656,329.4375 77.7656,326.3125 Q77.7656,323.1875 79.0781,321.5313 Q80.4063,319.875 82.9063,319.875 Q83.6094,319.875 84.25,320.0313 Q84.9063,320.1875 85.4688,320.4844 L85.4688,323.2031 Q84.8438,322.625 84.25,322.3594 Q83.6563,322.0781 83.0313,322.0781 Q81.6875,322.0781 81,323.1563 Q80.3125,324.2188 80.3125,326.3125 Q80.3125,328.4063 81,329.4844 Q81.6875,330.5469 83.0313,330.5469 Q83.6563,330.5469 84.25,330.2813 Q84.8438,330 85.4688,329.4219 L85.4688,332.1406 Z"/><text x="96.5" y="330.654" fill="#000" font-family="sans-serif" font-size="12" lengthAdjust="spacing" textLength="99">instance_profile</text><line style="stroke:#a80036;stroke-width:1.5" x1="68.5" x2="197.5" y1="342.5" y2="342.5"/><line style="stroke:#a80036;stroke-width:1.5" x1="68.5" x2="197.5" y1="350.5" y2="350.5"/><path id="aws_resource-backto-aws_iam_instance_profile" fill="none" d="M270.79,383.67 C255.41,417.03 235.61,459.96 223.64,485.93" codeLine="23" style="stroke:#a80036;stroke-width:1"/><polygon fill="none" points="264.52 380.56 279.25 365.33 277.23 386.42 264.52 380.56" style="stroke:#a80036;stroke-width:1"/><path id="instance_profile-backto-aws_iam_instance_profile" fill="none" d="M152.07,376.87 C167.8,410.96 189.52,458.08 202.33,485.87" codeLine="24" style="stroke:#a80036;stroke-width:1"/><polygon fill="none" points="145.64 379.63 143.62 358.54 158.35 373.77 145.64 379.63" style="stroke:#a80036;stroke-width:1"/><path id="resource-backto-instance_profile" fill="none" d="M133,203.16 C133,243.25 133,285.12 133,310.25" codeLine="25" style="stroke:#a80036;stroke-width:1"/><polygon fill="none" points="126 203.09 133 183.09 140 203.09 126 203.09" style="stroke:#a80036;stroke-width:1"/></g></svg>