<svg xmlns="http://www.w3.org/2000/svg" xmlns:xlink="http://www.w3.org/1999/xlink" width="426" height="391" contentScriptType="application/ecmascript" contentStyleType="text/css" style="width:426px;height:391px;background:#00000000" preserveAspectRatio="none" version="1.1" viewBox="0 0 426 391" zoomAndPan="magnify"><defs><filter id="fn2os5u54u1dm" width="300%" height="300%" x="-1" y="-1"><feGaussianBlur result="blurOut" stdDeviation="2"/><feColorMatrix in="blurOut" result="blurOut2" type="matrix" values="0 0 0 0 0 0 0 0 0 0 0 0 0 0 0 0 0 0 .4 0"/><feOffset dx="4" dy="4" in="blurOut2" result="blurOut3"/><feBlend in="SourceGraphic" in2="blurOut3" mode="normal"/></filter></defs><g><rect id="resource" width="252" height="176.047" x="7" y="7" fill="#FEFECE" codeLine="2" filter="url(#fn2os5u54u1dm)" style="stroke:#a80036;stroke-width:1.5"/><ellipse cx="100.75" cy="23" fill="#ADD1B2" rx="11" ry="11" style="stroke:#a80036;stroke-width:1"/><path fill="#000" d="M103.7188,28.6406 Q103.1406,28.9375 102.5,29.0781 Q101.8594,29.2344 101.1563,29.2344 Q98.6563,29.2344 97.3281,27.5938 Q96.0156,25.9375 96.0156,22.8125 Q96.0156,19.6875 97.3281,18.0313 Q98.6563,16.375 101.1563,16.375 Q101.8594,16.375 102.5,16.5313 Q103.1563,16.6875 103.7188,16.9844 L103.7188,19.7031 Q103.0938,19.125 102.5,18.8594 Q101.9063,18.5781 101.2813,18.5781 Q99.9375,18.5781 99.25,19.6563 Q98.5625,20.7188 98.5625,22.8125 Q98.5625,24.9063 99.25,25.9844 Q99.9375,27.0469 101.2813,27.0469 Q101.9063,27.0469 102.5,26.7813 Q103.0938,26.5 103.7188,25.9219 L103.7188,28.6406 Z"/><text x="121.25" y="27.154" fill="#000" font-family="sans-serif" font-size="12" lengthAdjust="spacing" textLength="56">resource</text><line style="stroke:#a80036;stroke-width:1.5" x1="8" x2="258" y1="39" y2="39"/><ellipse cx="18" cy="50" rx="3" ry="3" style="stroke:#038048;stroke-width:1;fill:none"/><text x="27" y="53.21" fill="#000" font-family="sans-serif" font-size="11" lengthAdjust="spacing" textLength="51">id: string</text><ellipse cx="18" cy="62.805" rx="3" ry="3" style="stroke:#038048;stroke-width:1;fill:none"/><text x="27" y="66.015" fill="#000" font-family="sans-serif" font-size="11" lengthAdjust="spacing" textLength="170">tags: dictionary[string, string]</text><ellipse cx="18" cy="75.609" rx="3" ry="3" style="stroke:#038048;stroke-width:1;fill:none"/><text x="27" y="78.82" fill="#000" font-family="sans-serif" font-size="11" lengthAdjust="spacing" textLength="73">name: string</text><ellipse cx="18" cy="88.414" rx="3" ry="3" style="stroke:#038048;stroke-width:1;fill:none"/><text x="27" y="91.624" fill="#000" font-family="sans-serif" font-size="11" lengthAdjust="spacing" textLength="89">ctime: datetime</text><ellipse cx="18" cy="101.219" rx="3" ry="3" style="stroke:#038048;stroke-width:1;fill:none"/><text x="27" y="104.429" fill="#000" font-family="sans-serif" font-size="11" lengthAdjust="spacing" textLength="180">age: trafo.duration_to_datetime</text><ellipse cx="18" cy="114.023" rx="3" ry="3" style="stroke:#038048;stroke-width:1;fill:none"/><text x="27" y="117.234" fill="#000" font-family="sans-serif" font-size="11" lengthAdjust="spacing" textLength="94">mtime: datetime</text><ellipse cx="18" cy="126.828" rx="3" ry="3" style="stroke:#038048;stroke-width:1;fill:none"/><text x="27" y="130.039" fill="#000" font-family="sans-serif" font-size="11" lengthAdjust="spacing" textLength="225">last_update: trafo.duration_to_datetime</text><ellipse cx="18" cy="139.633" rx="3" ry="3" style="stroke:#038048;stroke-width:1;fill:none"/><text x="27" y="142.843" fill="#000" font-family="sans-serif" font-size="11" lengthAdjust="spacing" textLength="90">atime: datetime</text><ellipse cx="18" cy="152.438" rx="3" ry="3" style="stroke:#038048;stroke-width:1;fill:none"/><text x="27" y="155.648" fill="#000" font-family="sans-serif" font-size="11" lengthAdjust="spacing" textLength="226">last_access: trafo.duration_to_datetime</text><ellipse cx="18" cy="165.242" rx="3" ry="3" style="stroke:#038048;stroke-width:1;fill:none"/><text x="27" y="168.453" fill="#000" font-family="sans-serif" font-size="11" lengthAdjust="spacing" textLength="64">kind: string</text><line style="stroke:#a80036;stroke-width:1.5" x1="8" x2="258" y1="175.047" y2="175.047"/><rect id="aws_resource" width="118" height="60.805" x="294" y="64.5" fill="#FEFECE" codeLine="14" filter="url(#fn2os5u54u1dm)" style="stroke:#a80036;stroke-width:1.5"/><ellipse cx="309" cy="80.5" fill="#ADD1B2" rx="11" ry="11" style="stroke:#a80036;stroke-width:1"/><path fill="#000" d="M311.9688,86.1406 Q311.3906,86.4375 310.75,86.5781 Q310.1094,86.7344 309.4063,86.7344 Q306.9063,86.7344 305.5781,85.0938 Q304.2656,83.4375 304.2656,80.3125 Q304.2656,77.1875 305.5781,75.5313 Q306.9063,73.875 309.4063,73.875 Q310.1094,73.875 310.75,74.0313 Q311.4063,74.1875 311.9688,74.4844 L311.9688,77.2031 Q311.3438,76.625 310.75,76.3594 Q310.1563,76.0781 309.5313,76.0781 Q308.1875,76.0781 307.5,77.1563 Q306.8125,78.2188 306.8125,80.3125 Q306.8125,82.4063 307.5,83.4844 Q308.1875,84.5469 309.5313,84.5469 Q310.1563,84.5469 310.75,84.2813 Q311.3438,84 311.9688,83.4219 L311.9688,86.1406 Z"/><text x="323" y="84.654" fill="#000" font-family="sans-serif" font-size="12" lengthAdjust="spacing" textLength="86">aws_resource</text><line style="stroke:#a80036;stroke-width:1.5" x1="295" x2="411" y1="96.5" y2="96.5"/><ellipse cx="305" cy="107.5" rx="3" ry="3" style="stroke:#038048;stroke-width:1;fill:none"/><text x="314" y="110.71" fill="#000" font-family="sans-serif" font-size="11" lengthAdjust="spacing" textLength="60">arn: string</text><line style="stroke:#a80036;stroke-width:1.5" x1="295" x2="411" y1="117.305" y2="117.305"/><rect id="aws_eks_cluster" width="161" height="73.609" x="162.5" y="304" fill="#FEFECE" codeLine="17" filter="url(#fn2os5u54u1dm)" style="stroke:#a80036;stroke-width:1.5"/><ellipse cx="190.1" cy="320" fill="#ADD1B2" rx="11" ry="11" style="stroke:#a80036;stroke-width:1"/><path fill="#000" d="M193.0688,325.6406 Q192.4906,325.9375 191.85,326.0781 Q191.2094,326.2344 190.5063,326.2344 Q188.0063,326.2344 186.6781,324.5938 Q185.3656,322.9375 185.3656,319.8125 Q185.3656,316.6875 186.6781,315.0313 Q188.0063,313.375 190.5063,313.375 Q191.2094,313.375 191.85,313.5313 Q192.5063,313.6875 193.0688,313.9844 L193.0688,316.7031 Q192.4438,316.125 191.85,315.8594 Q191.2563,315.5781 190.6313,315.5781 Q189.2875,315.5781 188.6,316.6563 Q187.9125,317.7188 187.9125,319.8125 Q187.9125,321.9063 188.6,322.9844 Q189.2875,324.0469 190.6313,324.0469 Q191.2563,324.0469 191.85,323.7813 Q192.4438,323.5 193.0688,322.9219 L193.0688,325.6406 Z"/><text x="206.9" y="324.154" fill="#000" font-family="sans-serif" font-size="12" lengthAdjust="spacing" textLength="101">aws_eks_cluster</text><line style="stroke:#a80036;stroke-width:1.5" x1="163.5" x2="322.5" y1="336" y2="336"/><ellipse cx="173.5" cy="347" rx="3" ry="3" style="stroke:#038048;stroke-width:1;fill:none"/><text x="182.5" y="350.21" fill="#000" font-family="sans-serif" font-size="11" lengthAdjust="spacing" textLength="122">cluster_status: string</text><ellipse cx="173.5" cy="359.805" rx="3" ry="3" style="stroke:#038048;stroke-width:1;fill:none"/><text x="182.5" y="363.015" fill="#000" font-family="sans-serif" font-size="11" lengthAdjust="spacing" textLength="135">cluster_endpoint: string</text><line style="stroke:#a80036;stroke-width:1.5" x1="163.5" x2="322.5" y1="369.609" y2="369.609"/><path id="aws_resource-backto-aws_eks_cluster" fill="none" d="M331.28,144.17 C310.11,191.14 278.38,261.53 259.28,303.88" codeLine="21" style="stroke:#a80036;stroke-width:1"/><polygon fill="none" points="324.91 141.28 339.51 125.92 337.67 147.03 324.91 141.28" style="stroke:#a80036;stroke-width:1"/><path id="resource-backto-aws_eks_cluster" fill="none" d="M180.52,201.4 C197.05,238.07 214.5,276.78 226.74,303.94" codeLine="22" style="stroke:#a80036;stroke-width:1"/><polygon fill="none" points="174.08 204.17 172.25 183.06 186.85 198.41 174.08 204.17" style="stroke:#a80036;stroke-width:1"/></g></svg>