<?xml version="1.0" encoding="UTF-8" standalone="no"?><svg xmlns="http://www.w3.org/2000/svg" xmlns:xlink="http://www.w3.org/1999/xlink" contentScriptType="application/ecmascript" contentStyleType="text/css" height="1106px" preserveAspectRatio="none" style="width:381px;height:1106px;background:#00000000;" version="1.1" viewBox="0 0 381 1106" width="381px" zoomAndPan="magnify"><defs><filter height="300%" id="f19htgsqtmysdf" width="300%" x="-1" y="-1"><feGaussianBlur result="blurOut" stdDeviation="2.0"/><feColorMatrix in="blurOut" result="blurOut2" type="matrix" values="0 0 0 0 0 0 0 0 0 0 0 0 0 0 0 0 0 0 .4 0"/><feOffset dx="4.0" dy="4.0" in="blurOut2" result="blurOut3"/><feBlend in="SourceGraphic" in2="blurOut3" mode="normal"/></filter></defs><g><!--MD5=[156df1ec125634b672185ad659f2920c]
class phantom_resource--><rect codeLine="2" fill="#FEFECE" filter="url(#f19htgsqtmysdf)" height="48" id="phantom_resource" style="stroke:#A80036;stroke-width:1.5;" width="150" x="166" y="304"/><ellipse cx="181" cy="320" fill="#ADD1B2" rx="11" ry="11" style="stroke:#A80036;stroke-width:1.0;"/><path d="M183.9688,325.6406 Q183.3906,325.9375 182.75,326.0781 Q182.1094,326.2344 181.4063,326.2344 Q178.9063,326.2344 177.5781,324.5938 Q176.2656,322.9375 176.2656,319.8125 Q176.2656,316.6875 177.5781,315.0313 Q178.9063,313.375 181.4063,313.375 Q182.1094,313.375 182.75,313.5313 Q183.4063,313.6875 183.9688,313.9844 L183.9688,316.7031 Q183.3438,316.125 182.75,315.8594 Q182.1563,315.5781 181.5313,315.5781 Q180.1875,315.5781 179.5,316.6563 Q178.8125,317.7188 178.8125,319.8125 Q178.8125,321.9063 179.5,322.9844 Q180.1875,324.0469 181.5313,324.0469 Q182.1563,324.0469 182.75,323.7813 Q183.3438,323.5 183.9688,322.9219 L183.9688,325.6406 Z " fill="#000000"/><text fill="#000000" font-family="sans-serif" font-size="12" lengthAdjust="spacing" textLength="118" x="195" y="324.1543">phantom_resource</text><line style="stroke:#A80036;stroke-width:1.5;" x1="167" x2="315" y1="336" y2="336"/><line style="stroke:#A80036;stroke-width:1.5;" x1="167" x2="315" y1="344" y2="344"/><!--MD5=[7f0ecf5f554433d3f2e1213379ac821c]
class resource--><rect codeLine="5" fill="#FEFECE" filter="url(#f19htgsqtmysdf)" height="176.0469" id="resource" style="stroke:#A80036;stroke-width:1.5;" width="252" x="115" y="7"/><ellipse cx="208.75" cy="23" fill="#ADD1B2" rx="11" ry="11" style="stroke:#A80036;stroke-width:1.0;"/><path d="M211.7188,28.6406 Q211.1406,28.9375 210.5,29.0781 Q209.8594,29.2344 209.1563,29.2344 Q206.6563,29.2344 205.3281,27.5938 Q204.0156,25.9375 204.0156,22.8125 Q204.0156,19.6875 205.3281,18.0313 Q206.6563,16.375 209.1563,16.375 Q209.8594,16.375 210.5,16.5313 Q211.1563,16.6875 211.7188,16.9844 L211.7188,19.7031 Q211.0938,19.125 210.5,18.8594 Q209.9063,18.5781 209.2813,18.5781 Q207.9375,18.5781 207.25,19.6563 Q206.5625,20.7188 206.5625,22.8125 Q206.5625,24.9063 207.25,25.9844 Q207.9375,27.0469 209.2813,27.0469 Q209.9063,27.0469 210.5,26.7813 Q211.0938,26.5 211.7188,25.9219 L211.7188,28.6406 Z " fill="#000000"/><text fill="#000000" font-family="sans-serif" font-size="12" lengthAdjust="spacing" textLength="56" x="229.25" y="27.1543">resource</text><line style="stroke:#A80036;stroke-width:1.5;" x1="116" x2="366" y1="39" y2="39"/><ellipse cx="126" cy="50" rx="3" ry="3" style="stroke:#038048;stroke-width:1.0;fill:none;"/><text fill="#000000" font-family="sans-serif" font-size="11" lengthAdjust="spacing" textLength="51" x="135" y="53.2104">id: string</text><ellipse cx="126" cy="62.8047" rx="3" ry="3" style="stroke:#038048;stroke-width:1.0;fill:none;"/><text fill="#000000" font-family="sans-serif" font-size="11" lengthAdjust="spacing" textLength="170" x="135" y="66.0151">tags: dictionary[string, string]</text><ellipse cx="126" cy="75.6094" rx="3" ry="3" style="stroke:#038048;stroke-width:1.0;fill:none;"/><text fill="#000000" font-family="sans-serif" font-size="11" lengthAdjust="spacing" textLength="73" x="135" y="78.8198">name: string</text><ellipse cx="126" cy="88.4141" rx="3" ry="3" style="stroke:#038048;stroke-width:1.0;fill:none;"/><text fill="#000000" font-family="sans-serif" font-size="11" lengthAdjust="spacing" textLength="89" x="135" y="91.6245">ctime: datetime</text><ellipse cx="126" cy="101.2188" rx="3" ry="3" style="stroke:#038048;stroke-width:1.0;fill:none;"/><text fill="#000000" font-family="sans-serif" font-size="11" lengthAdjust="spacing" textLength="180" x="135" y="104.4292">age: trafo.duration_to_datetime</text><ellipse cx="126" cy="114.0234" rx="3" ry="3" style="stroke:#038048;stroke-width:1.0;fill:none;"/><text fill="#000000" font-family="sans-serif" font-size="11" lengthAdjust="spacing" textLength="94" x="135" y="117.2339">mtime: datetime</text><ellipse cx="126" cy="126.8281" rx="3" ry="3" style="stroke:#038048;stroke-width:1.0;fill:none;"/><text fill="#000000" font-family="sans-serif" font-size="11" lengthAdjust="spacing" textLength="225" x="135" y="130.0386">last_update: trafo.duration_to_datetime</text><ellipse cx="126" cy="139.6328" rx="3" ry="3" style="stroke:#038048;stroke-width:1.0;fill:none;"/><text fill="#000000" font-family="sans-serif" font-size="11" lengthAdjust="spacing" textLength="90" x="135" y="142.8433">atime: datetime</text><ellipse cx="126" cy="152.4375" rx="3" ry="3" style="stroke:#038048;stroke-width:1.0;fill:none;"/><text fill="#000000" font-family="sans-serif" font-size="11" lengthAdjust="spacing" textLength="226" x="135" y="155.6479">last_access: trafo.duration_to_datetime</text><ellipse cx="126" cy="165.2422" rx="3" ry="3" style="stroke:#038048;stroke-width:1.0;fill:none;"/><text fill="#000000" font-family="sans-serif" font-size="11" lengthAdjust="spacing" textLength="64" x="135" y="168.4526">kind: string</text><line style="stroke:#A80036;stroke-width:1.5;" x1="116" x2="366" y1="175.0469" y2="175.0469"/><!--MD5=[c069b88079f3e36515859a1683f3923c]
class aws_resource--><rect codeLine="17" fill="#FEFECE" filter="url(#f19htgsqtmysdf)" height="60.8047" id="aws_resource" style="stroke:#A80036;stroke-width:1.5;" width="118" x="7" y="855.5"/><ellipse cx="22" cy="871.5" fill="#ADD1B2" rx="11" ry="11" style="stroke:#A80036;stroke-width:1.0;"/><path d="M24.9688,877.1406 Q24.3906,877.4375 23.75,877.5781 Q23.1094,877.7344 22.4063,877.7344 Q19.9063,877.7344 18.5781,876.0938 Q17.2656,874.4375 17.2656,871.3125 Q17.2656,868.1875 18.5781,866.5313 Q19.9063,864.875 22.4063,864.875 Q23.1094,864.875 23.75,865.0313 Q24.4063,865.1875 24.9688,865.4844 L24.9688,868.2031 Q24.3438,867.625 23.75,867.3594 Q23.1563,867.0781 22.5313,867.0781 Q21.1875,867.0781 20.5,868.1563 Q19.8125,869.2188 19.8125,871.3125 Q19.8125,873.4063 20.5,874.4844 Q21.1875,875.5469 22.5313,875.5469 Q23.1563,875.5469 23.75,875.2813 Q24.3438,875 24.9688,874.4219 L24.9688,877.1406 Z " fill="#000000"/><text fill="#000000" font-family="sans-serif" font-size="12" lengthAdjust="spacing" textLength="86" x="36" y="875.6543">aws_resource</text><line style="stroke:#A80036;stroke-width:1.5;" x1="8" x2="124" y1="887.5" y2="887.5"/><ellipse cx="18" cy="898.5" rx="3" ry="3" style="stroke:#038048;stroke-width:1.0;fill:none;"/><text fill="#000000" font-family="sans-serif" font-size="11" lengthAdjust="spacing" textLength="60" x="27" y="901.7104">arn: string</text><line style="stroke:#A80036;stroke-width:1.5;" x1="8" x2="124" y1="908.3047" y2="908.3047"/><!--MD5=[857a356b9e77f83de603e0318f36b735]
class type--><rect codeLine="20" fill="#FEFECE" filter="url(#f19htgsqtmysdf)" height="48" id="type" style="stroke:#A80036;stroke-width:1.5;" width="59" x="211.5" y="680"/><ellipse cx="226.5" cy="696" fill="#ADD1B2" rx="11" ry="11" style="stroke:#A80036;stroke-width:1.0;"/><path d="M229.4688,701.6406 Q228.8906,701.9375 228.25,702.0781 Q227.6094,702.2344 226.9063,702.2344 Q224.4063,702.2344 223.0781,700.5938 Q221.7656,698.9375 221.7656,695.8125 Q221.7656,692.6875 223.0781,691.0313 Q224.4063,689.375 226.9063,689.375 Q227.6094,689.375 228.25,689.5313 Q228.9063,689.6875 229.4688,689.9844 L229.4688,692.7031 Q228.8438,692.125 228.25,691.8594 Q227.6563,691.5781 227.0313,691.5781 Q225.6875,691.5781 225,692.6563 Q224.3125,693.7188 224.3125,695.8125 Q224.3125,697.9063 225,698.9844 Q225.6875,700.0469 227.0313,700.0469 Q227.6563,700.0469 228.25,699.7813 Q228.8438,699.5 229.4688,698.9219 L229.4688,701.6406 Z " fill="#000000"/><text fill="#000000" font-family="sans-serif" font-size="12" lengthAdjust="spacing" textLength="27" x="240.5" y="700.1543">type</text><line style="stroke:#A80036;stroke-width:1.5;" x1="212.5" x2="269.5" y1="712" y2="712"/><line style="stroke:#A80036;stroke-width:1.5;" x1="212.5" x2="269.5" y1="720" y2="720"/><!--MD5=[205bc3e74ea7d385e2b6aa1bb29a5024]
class quota--><rect codeLine="23" fill="#FEFECE" filter="url(#f19htgsqtmysdf)" height="86.4141" id="quota" style="stroke:#A80036;stroke-width:1.5;" width="129" x="176.5" y="473"/><ellipse cx="218.5" cy="489" fill="#ADD1B2" rx="11" ry="11" style="stroke:#A80036;stroke-width:1.0;"/><path d="M221.4688,494.6406 Q220.8906,494.9375 220.25,495.0781 Q219.6094,495.2344 218.9063,495.2344 Q216.4063,495.2344 215.0781,493.5938 Q213.7656,491.9375 213.7656,488.8125 Q213.7656,485.6875 215.0781,484.0313 Q216.4063,482.375 218.9063,482.375 Q219.6094,482.375 220.25,482.5313 Q220.9063,482.6875 221.4688,482.9844 L221.4688,485.7031 Q220.8438,485.125 220.25,484.8594 Q219.6563,484.5781 219.0313,484.5781 Q217.6875,484.5781 217,485.6563 Q216.3125,486.7188 216.3125,488.8125 Q216.3125,490.9063 217,491.9844 Q217.6875,493.0469 219.0313,493.0469 Q219.6563,493.0469 220.25,492.7813 Q220.8438,492.5 221.4688,491.9219 L221.4688,494.6406 Z " fill="#000000"/><text fill="#000000" font-family="sans-serif" font-size="12" lengthAdjust="spacing" textLength="37" x="238.5" y="493.1543">quota</text><line style="stroke:#A80036;stroke-width:1.5;" x1="177.5" x2="304.5" y1="505" y2="505"/><ellipse cx="187.5" cy="516" rx="3" ry="3" style="stroke:#038048;stroke-width:1.0;fill:none;"/><text fill="#000000" font-family="sans-serif" font-size="11" lengthAdjust="spacing" textLength="78" x="196.5" y="519.2104">quota: double</text><ellipse cx="187.5" cy="528.8047" rx="3" ry="3" style="stroke:#038048;stroke-width:1.0;fill:none;"/><text fill="#000000" font-family="sans-serif" font-size="11" lengthAdjust="spacing" textLength="81" x="196.5" y="532.0151">usage: double</text><ellipse cx="187.5" cy="541.6094" rx="3" ry="3" style="stroke:#038048;stroke-width:1.0;fill:none;"/><text fill="#000000" font-family="sans-serif" font-size="11" lengthAdjust="spacing" textLength="103" x="196.5" y="544.8198">quota_type: string</text><line style="stroke:#A80036;stroke-width:1.5;" x1="177.5" x2="304.5" y1="551.4141" y2="551.4141"/><!--MD5=[664939c0fb98180378d6d3f2b00b1a66]
class volume_type--><rect codeLine="28" fill="#FEFECE" filter="url(#f19htgsqtmysdf)" height="73.6094" id="volume_type" style="stroke:#A80036;stroke-width:1.5;" width="162" x="160" y="849"/><ellipse cx="198.85" cy="865" fill="#ADD1B2" rx="11" ry="11" style="stroke:#A80036;stroke-width:1.0;"/><path d="M201.8188,870.6406 Q201.2406,870.9375 200.6,871.0781 Q199.9594,871.2344 199.2563,871.2344 Q196.7563,871.2344 195.4281,869.5938 Q194.1156,867.9375 194.1156,864.8125 Q194.1156,861.6875 195.4281,860.0313 Q196.7563,858.375 199.2563,858.375 Q199.9594,858.375 200.6,858.5313 Q201.2563,858.6875 201.8188,858.9844 L201.8188,861.7031 Q201.1938,861.125 200.6,860.8594 Q200.0063,860.5781 199.3813,860.5781 Q198.0375,860.5781 197.35,861.6563 Q196.6625,862.7188 196.6625,864.8125 Q196.6625,866.9063 197.35,867.9844 Q198.0375,869.0469 199.3813,869.0469 Q200.0063,869.0469 200.6,868.7813 Q201.1938,868.5 201.8188,867.9219 L201.8188,870.6406 Z " fill="#000000"/><text fill="#000000" font-family="sans-serif" font-size="12" lengthAdjust="spacing" textLength="77" x="218.15" y="869.1543">volume_type</text><line style="stroke:#A80036;stroke-width:1.5;" x1="161" x2="321" y1="881" y2="881"/><ellipse cx="171" cy="892" rx="3" ry="3" style="stroke:#038048;stroke-width:1.0;fill:none;"/><text fill="#000000" font-family="sans-serif" font-size="11" lengthAdjust="spacing" textLength="112" x="180" y="895.2104">volume_type: string</text><ellipse cx="171" cy="904.8047" rx="3" ry="3" style="stroke:#038048;stroke-width:1.0;fill:none;"/><text fill="#000000" font-family="sans-serif" font-size="11" lengthAdjust="spacing" textLength="136" x="180" y="908.0151">ondemand_cost: double</text><line style="stroke:#A80036;stroke-width:1.5;" x1="161" x2="321" y1="914.6094" y2="914.6094"/><!--MD5=[519c36309e9b7d89b8d0db49119fa3d1]
class aws_ec2_volume_type--><rect codeLine="32" fill="#FEFECE" filter="url(#f19htgsqtmysdf)" height="48" id="aws_ec2_volume_type" style="stroke:#A80036;stroke-width:1.5;" width="168" x="17" y="1044"/><ellipse cx="32" cy="1060" fill="#ADD1B2" rx="11" ry="11" style="stroke:#A80036;stroke-width:1.0;"/><path d="M34.9688,1065.6406 Q34.3906,1065.9375 33.75,1066.0781 Q33.1094,1066.2344 32.4063,1066.2344 Q29.9063,1066.2344 28.5781,1064.5938 Q27.2656,1062.9375 27.2656,1059.8125 Q27.2656,1056.6875 28.5781,1055.0313 Q29.9063,1053.375 32.4063,1053.375 Q33.1094,1053.375 33.75,1053.5313 Q34.4063,1053.6875 34.9688,1053.9844 L34.9688,1056.7031 Q34.3438,1056.125 33.75,1055.8594 Q33.1563,1055.5781 32.5313,1055.5781 Q31.1875,1055.5781 30.5,1056.6563 Q29.8125,1057.7188 29.8125,1059.8125 Q29.8125,1061.9063 30.5,1062.9844 Q31.1875,1064.0469 32.5313,1064.0469 Q33.1563,1064.0469 33.75,1063.7813 Q34.3438,1063.5 34.9688,1062.9219 L34.9688,1065.6406 Z " fill="#000000"/><text fill="#000000" font-family="sans-serif" font-size="12" lengthAdjust="spacing" textLength="136" x="46" y="1064.1543">aws_ec2_volume_type</text><line style="stroke:#A80036;stroke-width:1.5;" x1="18" x2="184" y1="1076" y2="1076"/><line style="stroke:#A80036;stroke-width:1.5;" x1="18" x2="184" y1="1084" y2="1084"/><!--MD5=[e134558fd6f7e839ecb28ecbda576c0a]
reverse link resource to phantom_resource--><path codeLine="35" d="M241,203.18 C241,241 241,280.01 241,303.89 " fill="none" id="resource-backto-phantom_resource" style="stroke:#A80036;stroke-width:1.0;"/><polygon fill="none" points="234,203,241,183,248,203,234,203" style="stroke:#A80036;stroke-width:1.0;"/><!--MD5=[63e5c77e033f786e30b084e57dcd0955]
reverse link quota to type--><path codeLine="36" d="M241,579.21 C241,613.84 241,654.89 241,679.93 " fill="none" id="quota-backto-type" style="stroke:#A80036;stroke-width:1.0;"/><polygon fill="none" points="234,579.21,241,559.21,248,579.21,234,579.21" style="stroke:#A80036;stroke-width:1.0;"/><!--MD5=[8c556d10106c40540c768b31155cb09d]
reverse link phantom_resource to quota--><path codeLine="37" d="M241,372.6 C241,402.8 241,442.79 241,472.7 " fill="none" id="phantom_resource-backto-quota" style="stroke:#A80036;stroke-width:1.0;"/><polygon fill="none" points="234,372.18,241,352.18,248,372.18,234,372.18" style="stroke:#A80036;stroke-width:1.0;"/><!--MD5=[fef1d57d88716120bb8ab8d4a324733b]
reverse link type to volume_type--><path codeLine="38" d="M241,748.47 C241,779.2 241,819.91 241,848.87 " fill="none" id="type-backto-volume_type" style="stroke:#A80036;stroke-width:1.0;"/><polygon fill="none" points="234,748.16,241,728.16,248,748.16,234,748.16" style="stroke:#A80036;stroke-width:1.0;"/><!--MD5=[b1fb33b30e5d2b64673906d762123e1f]
reverse link aws_resource to aws_ec2_volume_type--><path codeLine="39" d="M75.61,936.43 C82.42,971.44 91.24,1016.82 96.49,1043.82 " fill="none" id="aws_resource-backto-aws_ec2_volume_type" style="stroke:#A80036;stroke-width:1.0;"/><polygon fill="none" points="68.73,937.69,71.78,916.72,82.47,935.02,68.73,937.69" style="stroke:#A80036;stroke-width:1.0;"/><!--MD5=[d8154c89c254d1e4ac6d257911859931]
reverse link volume_type to aws_ec2_volume_type--><path codeLine="40" d="M200.13,939.54 C173.28,974.07 139.45,1017.56 119.07,1043.77 " fill="none" id="volume_type-backto-aws_ec2_volume_type" style="stroke:#A80036;stroke-width:1.0;"/><polygon fill="none" points="194.86,934.92,212.67,923.43,205.92,943.51,194.86,934.92" style="stroke:#A80036;stroke-width:1.0;"/><!--MD5=[e9344e2ea2c3ab08a96a36215bc1d584]
@startuml
skinparam backgroundcolor transparent
class phantom_resource {

}
class resource {
+ id: string
+ tags: dictionary[string, string]
+ name: string
+ ctime: datetime
+ age: trafo.duration_to_datetime
+ mtime: datetime
+ last_update: trafo.duration_to_datetime
+ atime: datetime
+ last_access: trafo.duration_to_datetime
+ kind: string
}
class aws_resource {
+ arn: string
}
class type {

}
class quota {
+ quota: double
+ usage: double
+ quota_type: string
}
class volume_type {
+ volume_type: string
+ ondemand_cost: double
}
class aws_ec2_volume_type {

}
resource <|- - - phantom_resource
quota <|- - - type
phantom_resource <|- - - quota
type <|- - - volume_type
aws_resource <|- - - aws_ec2_volume_type
volume_type <|- - - aws_ec2_volume_type
@enduml

PlantUML version 1.2021.16(Wed Dec 08 17:25:22 UTC 2021)
(GPL source distribution)
Java Runtime: OpenJDK Runtime Environment
JVM: OpenJDK 64-Bit Server VM
Default Encoding: UTF-8
Language: en
Country: null
--></g></svg>