<svg xmlns="http://www.w3.org/2000/svg" xmlns:xlink="http://www.w3.org/1999/xlink" width="446" height="878" contentScriptType="application/ecmascript" contentStyleType="text/css" style="width:446px;height:878px;background:#00000000" preserveAspectRatio="none" version="1.1" viewBox="0 0 446 878" zoomAndPan="magnify"><g><rect id="resource" width="256" height="275.836" x="7" y="7" fill="#194875" codeLine="17" rx="2.5" ry="2.5" style="stroke:#000;stroke-width:1.5"/><ellipse cx="90.25" cy="26.895" fill="#1A83AF" rx="11" ry="11" style="stroke:#000;stroke-width:1"/><path fill="#000" d="M93.2188,32.5352 Q92.6406,32.832 92,32.9727 Q91.3594,33.1289 90.6563,33.1289 Q88.1563,33.1289 86.8281,31.4883 Q85.5156,29.832 85.5156,26.707 Q85.5156,23.582 86.8281,21.9258 Q88.1563,20.2695 90.6563,20.2695 Q91.3594,20.2695 92,20.4258 Q92.6563,20.582 93.2188,20.8789 L93.2188,23.5977 Q92.5938,23.0195 92,22.7539 Q91.4063,22.4727 90.7813,22.4727 Q89.4375,22.4727 88.75,23.5508 Q88.0625,24.6133 88.0625,26.707 Q88.0625,28.8008 88.75,29.8789 Q89.4375,30.9414 90.7813,30.9414 Q91.4063,30.9414 92,30.6758 Q92.5938,30.3945 93.2188,29.8164 L93.2188,32.5352 Z"/><text x="115.75" y="32.78" fill="#FFE797" font-family="Helvetica" font-size="17" lengthAdjust="spacing" textLength="71">resource</text><line style="stroke:#000;stroke-width:1.5" x1="8" x2="262" y1="46.789" y2="46.789"/><text x="18" y="65.999" fill="#FFE797" font-family="sans-serif" font-size="11" font-weight="bold" lengthAdjust="spacing" textLength="12">id</text><text x="30" y="65.999" fill="#FFE797" font-family="sans-serif" font-size="11" lengthAdjust="spacing" textLength="41">: string</text><text x="18" y="88.804" fill="#FFE797" font-family="sans-serif" font-size="11" font-weight="bold" lengthAdjust="spacing" textLength="28">tags</text><text x="46" y="88.804" fill="#FFE797" font-family="sans-serif" font-size="11" lengthAdjust="spacing" textLength="145">: dictionary[string, string]</text><text x="18" y="111.609" fill="#FFE797" font-family="sans-serif" font-size="11" font-weight="bold" lengthAdjust="spacing" textLength="35">name</text><text x="53" y="111.609" fill="#FFE797" font-family="sans-serif" font-size="11" lengthAdjust="spacing" textLength="41">: string</text><text x="18" y="134.414" fill="#FFE797" font-family="sans-serif" font-size="11" font-weight="bold" lengthAdjust="spacing" textLength="35">ctime</text><text x="53" y="134.414" fill="#FFE797" font-family="sans-serif" font-size="11" lengthAdjust="spacing" textLength="58">: datetime</text><text x="18" y="157.218" fill="#FFE797" font-family="sans-serif" font-size="11" font-weight="bold" lengthAdjust="spacing" textLength="24">age</text><text x="42" y="157.218" fill="#FFE797" font-family="sans-serif" font-size="11" lengthAdjust="spacing" textLength="159">: trafo.duration_to_datetime</text><text x="18" y="180.023" fill="#FFE797" font-family="sans-serif" font-size="11" font-weight="bold" lengthAdjust="spacing" textLength="39">mtime</text><text x="57" y="180.023" fill="#FFE797" font-family="sans-serif" font-size="11" lengthAdjust="spacing" textLength="58">: datetime</text><text x="18" y="202.828" fill="#FFE797" font-family="sans-serif" font-size="11" font-weight="bold" lengthAdjust="spacing" textLength="75">last_update</text><text x="93" y="202.828" fill="#FFE797" font-family="sans-serif" font-size="11" lengthAdjust="spacing" textLength="159">: trafo.duration_to_datetime</text><text x="18" y="225.632" fill="#FFE797" font-family="sans-serif" font-size="11" font-weight="bold" lengthAdjust="spacing" textLength="36">atime</text><text x="54" y="225.632" fill="#FFE797" font-family="sans-serif" font-size="11" lengthAdjust="spacing" textLength="58">: datetime</text><text x="18" y="248.437" fill="#FFE797" font-family="sans-serif" font-size="11" font-weight="bold" lengthAdjust="spacing" textLength="74">last_access</text><text x="92" y="248.437" fill="#FFE797" font-family="sans-serif" font-size="11" lengthAdjust="spacing" textLength="159">: trafo.duration_to_datetime</text><text x="18" y="271.242" fill="#FFE797" font-family="sans-serif" font-size="11" font-weight="bold" lengthAdjust="spacing" textLength="27">kind</text><text x="45" y="271.242" fill="#FFE797" font-family="sans-serif" font-size="11" lengthAdjust="spacing" textLength="41">: string</text><rect id="aws_resource" width="155" height="70.594" x="284.5" y="472" fill="#194875" codeLine="29" rx="2.5" ry="2.5" style="stroke:#000;stroke-width:1.5"/><ellipse cx="299.5" cy="491.894" fill="#1A83AF" rx="11" ry="11" style="stroke:#000;stroke-width:1"/><path fill="#000" d="M302.4688,497.5352 Q301.8906,497.832 301.25,497.9727 Q300.6094,498.1289 299.9063,498.1289 Q297.4063,498.1289 296.0781,496.4883 Q294.7656,494.832 294.7656,491.707 Q294.7656,488.582 296.0781,486.9258 Q297.4063,485.2695 299.9063,485.2695 Q300.6094,485.2695 301.25,485.4258 Q301.9063,485.582 302.4688,485.8789 L302.4688,488.5977 Q301.8438,488.0195 301.25,487.7539 Q300.6563,487.4727 300.0313,487.4727 Q298.6875,487.4727 298,488.5508 Q297.3125,489.6133 297.3125,491.707 Q297.3125,493.8008 298,494.8789 Q298.6875,495.9414 300.0313,495.9414 Q300.6563,495.9414 301.25,495.6758 Q301.8438,495.3945 302.4688,494.8164 L302.4688,497.5352 Z"/><text x="318.5" y="497.78" fill="#FFE797" font-family="Helvetica" font-size="17" lengthAdjust="spacing" textLength="113">aws_resource</text><line style="stroke:#000;stroke-width:1.5" x1="285.5" x2="438.5" y1="511.789" y2="511.789"/><text x="295.5" y="531" fill="#FFE797" font-family="sans-serif" font-size="11" font-weight="bold" lengthAdjust="spacing" textLength="21">arn</text><text x="316.5" y="531" fill="#FFE797" font-family="sans-serif" font-size="11" lengthAdjust="spacing" textLength="41">: string</text><rect id="volume" width="229" height="207.422" x="20.5" y="404" fill="#194875" codeLine="32" rx="2.5" ry="2.5" style="stroke:#000;stroke-width:1.5"/><ellipse cx="94.25" cy="423.894" fill="#1A83AF" rx="11" ry="11" style="stroke:#000;stroke-width:1"/><path fill="#000" d="M97.2188,429.5352 Q96.6406,429.832 96,429.9727 Q95.3594,430.1289 94.6563,430.1289 Q92.1563,430.1289 90.8281,428.4883 Q89.5156,426.832 89.5156,423.707 Q89.5156,420.582 90.8281,418.9258 Q92.1563,417.2695 94.6563,417.2695 Q95.3594,417.2695 96,417.4258 Q96.6563,417.582 97.2188,417.8789 L97.2188,420.5977 Q96.5938,420.0195 96,419.7539 Q95.4063,419.4727 94.7813,419.4727 Q93.4375,419.4727 92.75,420.5508 Q92.0625,421.6133 92.0625,423.707 Q92.0625,425.8008 92.75,426.8789 Q93.4375,427.9414 94.7813,427.9414 Q95.4063,427.9414 96,427.6758 Q96.5938,427.3945 97.2188,426.8164 L97.2188,429.5352 Z"/><text x="119.75" y="429.78" fill="#FFE797" font-family="Helvetica" font-size="17" lengthAdjust="spacing" textLength="63">volume</text><line style="stroke:#000;stroke-width:1.5" x1="21.5" x2="248.5" y1="443.789" y2="443.789"/><text x="31.5" y="463" fill="#FFE797" font-family="sans-serif" font-size="11" font-weight="bold" lengthAdjust="spacing" textLength="78">volume_size</text><text x="109.5" y="463" fill="#FFE797" font-family="sans-serif" font-size="11" lengthAdjust="spacing" textLength="36">: int64</text><text x="31.5" y="485.804" fill="#FFE797" font-family="sans-serif" font-size="11" font-weight="bold" lengthAdjust="spacing" textLength="80">volume_type</text><text x="111.5" y="485.804" fill="#FFE797" font-family="sans-serif" font-size="11" lengthAdjust="spacing" textLength="41">: string</text><text x="31.5" y="508.609" fill="#FFE797" font-family="sans-serif" font-size="11" font-weight="bold" lengthAdjust="spacing" textLength="92">volume_status</text><text x="123.5" y="508.609" fill="#FFE797" font-family="sans-serif" font-size="11" lengthAdjust="spacing" textLength="41">: string</text><text x="31.5" y="531.414" fill="#FFE797" font-family="sans-serif" font-size="11" font-weight="bold" lengthAdjust="spacing" textLength="79">volume_iops</text><text x="110.5" y="531.414" fill="#FFE797" font-family="sans-serif" font-size="11" lengthAdjust="spacing" textLength="36">: int64</text><text x="31.5" y="554.218" fill="#FFE797" font-family="sans-serif" font-size="11" font-weight="bold" lengthAdjust="spacing" textLength="123">volume_throughput</text><text x="154.5" y="554.218" fill="#FFE797" font-family="sans-serif" font-size="11" lengthAdjust="spacing" textLength="36">: int64</text><text x="31.5" y="577.023" fill="#FFE797" font-family="sans-serif" font-size="11" font-weight="bold" lengthAdjust="spacing" textLength="116">volume_encrypted</text><text x="147.5" y="577.023" fill="#FFE797" font-family="sans-serif" font-size="11" lengthAdjust="spacing" textLength="53">: boolean</text><text x="31.5" y="599.828" fill="#FFE797" font-family="sans-serif" font-size="11" font-weight="bold" lengthAdjust="spacing" textLength="154">snapshot_before_delete</text><text x="185.5" y="599.828" fill="#FFE797" font-family="sans-serif" font-size="11" lengthAdjust="spacing" textLength="53">: boolean</text><rect id="aws_ec2_volume" width="264" height="139.008" x="155" y="732" fill="#194875" codeLine="41" rx="2.5" ry="2.5" style="stroke:#000;stroke-width:1.5"/><ellipse cx="206.25" cy="751.894" fill="#1A83AF" rx="11" ry="11" style="stroke:#000;stroke-width:1"/><path fill="#000" d="M209.2188,757.5352 Q208.6406,757.832 208,757.9727 Q207.3594,758.1289 206.6563,758.1289 Q204.1563,758.1289 202.8281,756.4883 Q201.5156,754.832 201.5156,751.707 Q201.5156,748.582 202.8281,746.9258 Q204.1563,745.2695 206.6563,745.2695 Q207.3594,745.2695 208,745.4258 Q208.6563,745.582 209.2188,745.8789 L209.2188,748.5977 Q208.5938,748.0195 208,747.7539 Q207.4063,747.4727 206.7813,747.4727 Q205.4375,747.4727 204.75,748.5508 Q204.0625,749.6133 204.0625,751.707 Q204.0625,753.8008 204.75,754.8789 Q205.4375,755.9414 206.7813,755.9414 Q207.4063,755.9414 208,755.6758 Q208.5938,755.3945 209.2188,754.8164 L209.2188,757.5352 Z"/><text x="231.75" y="757.78" fill="#FFE797" font-family="Helvetica" font-size="17" lengthAdjust="spacing" textLength="143">aws_ec2_volume</text><line style="stroke:#000;stroke-width:1.5" x1="156" x2="418" y1="771.789" y2="771.789"/><text x="166" y="791" fill="#FFE797" font-family="sans-serif" font-size="11" font-weight="bold" lengthAdjust="spacing" textLength="123">volume_kms_key_id</text><text x="289" y="791" fill="#FFE797" font-family="sans-serif" font-size="11" lengthAdjust="spacing" textLength="41">: string</text><text x="166" y="813.804" fill="#FFE797" font-family="sans-serif" font-size="11" font-weight="bold" lengthAdjust="spacing" textLength="189">volume_multi_attach_enabled</text><text x="355" y="813.804" fill="#FFE797" font-family="sans-serif" font-size="11" lengthAdjust="spacing" textLength="53">: boolean</text><text x="166" y="836.609" fill="#FFE797" font-family="sans-serif" font-size="11" font-weight="bold" lengthAdjust="spacing" textLength="128">volume_outpost_arn</text><text x="294" y="836.609" fill="#FFE797" font-family="sans-serif" font-size="11" lengthAdjust="spacing" textLength="41">: string</text><text x="166" y="859.414" fill="#FFE797" font-family="sans-serif" font-size="11" font-weight="bold" lengthAdjust="spacing" textLength="129">volume_snapshot_id</text><text x="295" y="859.414" fill="#FFE797" font-family="sans-serif" font-size="11" lengthAdjust="spacing" textLength="41">: string</text><path id="resource-backto-volume" fill="none" d="M135,303.49 C135,337.51 135,372.64 135,403.9" codeLine="47" style="stroke:#ffaf37;stroke-width:2"/><polygon fill="none" points="128 303.06 135 283.06 142 303.06 128 303.06" style="stroke:#ffaf37;stroke-width:2"/><path id="aws_resource-backto-aws_ec2_volume" fill="none" d="M348.07,562.75 C335.81,610.47 317.91,680.18 304.65,731.78" codeLine="48" style="stroke:#ffaf37;stroke-width:2"/><polygon fill="none" points="341.35 560.77 353.1 543.14 354.91 564.26 341.35 560.77" style="stroke:#ffaf37;stroke-width:2"/><path id="volume-backto-aws_ec2_volume" fill="none" d="M197.77,629.09 C215.97,664.05 235.21,701.01 251.15,731.63" codeLine="49" style="stroke:#ffaf37;stroke-width:2"/><polygon fill="none" points="191.4 632.01 188.38 611.04 203.82 625.55 191.4 632.01" style="stroke:#ffaf37;stroke-width:2"/></g></svg>