<?xml version="1.0" encoding="UTF-8" standalone="no"?><svg xmlns="http://www.w3.org/2000/svg" xmlns:xlink="http://www.w3.org/1999/xlink" contentScriptType="application/ecmascript" contentStyleType="text/css" height="673px" preserveAspectRatio="none" style="width:404px;height:673px;background:#00000000;" version="1.1" viewBox="0 0 404 673" width="404px" zoomAndPan="magnify"><defs/><g><!--MD5=[7f0ecf5f554433d3f2e1213379ac821c]
class resource--><rect codeLine="17" fill="#194875" height="275.8359" id="resource" rx="2.5" ry="2.5" style="stroke:#000000;stroke-width:1.5;" width="256" x="7" y="7"/><ellipse cx="90.25" cy="26.8945" fill="#1A83AF" rx="11" ry="11" style="stroke:#000000;stroke-width:1.0;"/><path d="M93.2188,32.5352 Q92.6406,32.832 92,32.9727 Q91.3594,33.1289 90.6563,33.1289 Q88.1563,33.1289 86.8281,31.4883 Q85.5156,29.832 85.5156,26.707 Q85.5156,23.582 86.8281,21.9258 Q88.1563,20.2695 90.6563,20.2695 Q91.3594,20.2695 92,20.4258 Q92.6563,20.582 93.2188,20.8789 L93.2188,23.5977 Q92.5938,23.0195 92,22.7539 Q91.4063,22.4727 90.7813,22.4727 Q89.4375,22.4727 88.75,23.5508 Q88.0625,24.6133 88.0625,26.707 Q88.0625,28.8008 88.75,29.8789 Q89.4375,30.9414 90.7813,30.9414 Q91.4063,30.9414 92,30.6758 Q92.5938,30.3945 93.2188,29.8164 L93.2188,32.5352 Z " fill="#000000"/><text fill="#FFE797" font-family="Helvetica" font-size="17" lengthAdjust="spacing" textLength="71" x="115.75" y="32.7798">resource</text><line style="stroke:#000000;stroke-width:1.5;" x1="8" x2="262" y1="46.7891" y2="46.7891"/><text fill="#FFE797" font-family="sans-serif" font-size="11" font-weight="bold" lengthAdjust="spacing" textLength="12" x="18" y="65.9995">id</text><text fill="#FFE797" font-family="sans-serif" font-size="11" lengthAdjust="spacing" textLength="41" x="30" y="65.9995">: string</text><text fill="#FFE797" font-family="sans-serif" font-size="11" font-weight="bold" lengthAdjust="spacing" textLength="28" x="18" y="88.8042">tags</text><text fill="#FFE797" font-family="sans-serif" font-size="11" lengthAdjust="spacing" textLength="145" x="46" y="88.8042">: dictionary[string, string]</text><text fill="#FFE797" font-family="sans-serif" font-size="11" font-weight="bold" lengthAdjust="spacing" textLength="35" x="18" y="111.6089">name</text><text fill="#FFE797" font-family="sans-serif" font-size="11" lengthAdjust="spacing" textLength="41" x="53" y="111.6089">: string</text><text fill="#FFE797" font-family="sans-serif" font-size="11" font-weight="bold" lengthAdjust="spacing" textLength="35" x="18" y="134.4136">ctime</text><text fill="#FFE797" font-family="sans-serif" font-size="11" lengthAdjust="spacing" textLength="58" x="53" y="134.4136">: datetime</text><text fill="#FFE797" font-family="sans-serif" font-size="11" font-weight="bold" lengthAdjust="spacing" textLength="24" x="18" y="157.2183">age</text><text fill="#FFE797" font-family="sans-serif" font-size="11" lengthAdjust="spacing" textLength="159" x="42" y="157.2183">: trafo.duration_to_datetime</text><text fill="#FFE797" font-family="sans-serif" font-size="11" font-weight="bold" lengthAdjust="spacing" textLength="39" x="18" y="180.0229">mtime</text><text fill="#FFE797" font-family="sans-serif" font-size="11" lengthAdjust="spacing" textLength="58" x="57" y="180.0229">: datetime</text><text fill="#FFE797" font-family="sans-serif" font-size="11" font-weight="bold" lengthAdjust="spacing" textLength="75" x="18" y="202.8276">last_update</text><text fill="#FFE797" font-family="sans-serif" font-size="11" lengthAdjust="spacing" textLength="159" x="93" y="202.8276">: trafo.duration_to_datetime</text><text fill="#FFE797" font-family="sans-serif" font-size="11" font-weight="bold" lengthAdjust="spacing" textLength="36" x="18" y="225.6323">atime</text><text fill="#FFE797" font-family="sans-serif" font-size="11" lengthAdjust="spacing" textLength="58" x="54" y="225.6323">: datetime</text><text fill="#FFE797" font-family="sans-serif" font-size="11" font-weight="bold" lengthAdjust="spacing" textLength="74" x="18" y="248.437">last_access</text><text fill="#FFE797" font-family="sans-serif" font-size="11" lengthAdjust="spacing" textLength="159" x="92" y="248.437">: trafo.duration_to_datetime</text><text fill="#FFE797" font-family="sans-serif" font-size="11" font-weight="bold" lengthAdjust="spacing" textLength="27" x="18" y="271.2417">kind</text><text fill="#FFE797" font-family="sans-serif" font-size="11" lengthAdjust="spacing" textLength="41" x="45" y="271.2417">: string</text><!--MD5=[c069b88079f3e36515859a1683f3923c]
class aws_resource--><rect codeLine="29" fill="#194875" height="70.5938" id="aws_resource" rx="2.5" ry="2.5" style="stroke:#000000;stroke-width:1.5;" width="155" x="242.5" y="404"/><ellipse cx="257.5" cy="423.8945" fill="#1A83AF" rx="11" ry="11" style="stroke:#000000;stroke-width:1.0;"/><path d="M260.4688,429.5352 Q259.8906,429.832 259.25,429.9727 Q258.6094,430.1289 257.9063,430.1289 Q255.4063,430.1289 254.0781,428.4883 Q252.7656,426.832 252.7656,423.707 Q252.7656,420.582 254.0781,418.9258 Q255.4063,417.2695 257.9063,417.2695 Q258.6094,417.2695 259.25,417.4258 Q259.9063,417.582 260.4688,417.8789 L260.4688,420.5977 Q259.8438,420.0195 259.25,419.7539 Q258.6563,419.4727 258.0313,419.4727 Q256.6875,419.4727 256,420.5508 Q255.3125,421.6133 255.3125,423.707 Q255.3125,425.8008 256,426.8789 Q256.6875,427.9414 258.0313,427.9414 Q258.6563,427.9414 259.25,427.6758 Q259.8438,427.3945 260.4688,426.8164 L260.4688,429.5352 Z " fill="#000000"/><text fill="#FFE797" font-family="Helvetica" font-size="17" lengthAdjust="spacing" textLength="113" x="276.5" y="429.7798">aws_resource</text><line style="stroke:#000000;stroke-width:1.5;" x1="243.5" x2="396.5" y1="443.7891" y2="443.7891"/><text fill="#FFE797" font-family="sans-serif" font-size="11" font-weight="bold" lengthAdjust="spacing" textLength="21" x="253.5" y="462.9995">arn</text><text fill="#FFE797" font-family="sans-serif" font-size="11" lengthAdjust="spacing" textLength="41" x="274.5" y="462.9995">: string</text><!--MD5=[b725878654cede6ed9a9513be8a36f5e]
class aws_ec2_network_acl--><rect codeLine="32" fill="#194875" height="70.5938" id="aws_ec2_network_acl" rx="2.5" ry="2.5" style="stroke:#000000;stroke-width:1.5;" width="224" x="115" y="596"/><ellipse cx="130" cy="615.8945" fill="#1A83AF" rx="11" ry="11" style="stroke:#000000;stroke-width:1.0;"/><path d="M132.9688,621.5352 Q132.3906,621.832 131.75,621.9727 Q131.1094,622.1289 130.4063,622.1289 Q127.9063,622.1289 126.5781,620.4883 Q125.2656,618.832 125.2656,615.707 Q125.2656,612.582 126.5781,610.9258 Q127.9063,609.2695 130.4063,609.2695 Q131.1094,609.2695 131.75,609.4258 Q132.4063,609.582 132.9688,609.8789 L132.9688,612.5977 Q132.3438,612.0195 131.75,611.7539 Q131.1563,611.4727 130.5313,611.4727 Q129.1875,611.4727 128.5,612.5508 Q127.8125,613.6133 127.8125,615.707 Q127.8125,617.8008 128.5,618.8789 Q129.1875,619.9414 130.5313,619.9414 Q131.1563,619.9414 131.75,619.6758 Q132.3438,619.3945 132.9688,618.8164 L132.9688,621.5352 Z " fill="#000000"/><text fill="#FFE797" font-family="Helvetica" font-size="17" lengthAdjust="spacing" textLength="182" x="149" y="621.7798">aws_ec2_network_acl</text><line style="stroke:#000000;stroke-width:1.5;" x1="116" x2="338" y1="635.7891" y2="635.7891"/><text fill="#FFE797" font-family="sans-serif" font-size="11" font-weight="bold" lengthAdjust="spacing" textLength="63" x="126" y="654.9995">is_default</text><text fill="#FFE797" font-family="sans-serif" font-size="11" lengthAdjust="spacing" textLength="53" x="189" y="654.9995">: boolean</text><!--MD5=[b44ade1c6eb44930033e80e5bbe65cb4]
class network_acl--><rect codeLine="35" fill="#194875" height="39.7891" id="network_acl" rx="2.5" ry="2.5" style="stroke:#000000;stroke-width:1.5;" width="144" x="63" y="419.5"/><ellipse cx="78" cy="439.3945" fill="#1A83AF" rx="11" ry="11" style="stroke:#000000;stroke-width:1.0;"/><path d="M80.9688,445.0352 Q80.3906,445.332 79.75,445.4727 Q79.1094,445.6289 78.4063,445.6289 Q75.9063,445.6289 74.5781,443.9883 Q73.2656,442.332 73.2656,439.207 Q73.2656,436.082 74.5781,434.4258 Q75.9063,432.7695 78.4063,432.7695 Q79.1094,432.7695 79.75,432.9258 Q80.4063,433.082 80.9688,433.3789 L80.9688,436.0977 Q80.3438,435.5195 79.75,435.2539 Q79.1563,434.9727 78.5313,434.9727 Q77.1875,434.9727 76.5,436.0508 Q75.8125,437.1133 75.8125,439.207 Q75.8125,441.3008 76.5,442.3789 Q77.1875,443.4414 78.5313,443.4414 Q79.1563,443.4414 79.75,443.1758 Q80.3438,442.8945 80.9688,442.3164 L80.9688,445.0352 Z " fill="#000000"/><text fill="#FFE797" font-family="Helvetica" font-size="17" lengthAdjust="spacing" textLength="102" x="97" y="445.2798">network_acl</text><!--MD5=[db508b09928ec0ee59e9a53350865e95]
reverse link aws_resource to aws_ec2_network_acl--><path codeLine="38" d="M294.06,493.5 C278.04,526.23 257.95,567.28 243.95,595.87 " fill="none" id="aws_resource-backto-aws_ec2_network_acl" style="stroke:#FFAF37;stroke-width:2.0;"/><polygon fill="none" points="287.86,490.24,302.94,475.35,300.44,496.39,287.86,490.24" style="stroke:#FFAF37;stroke-width:2.0;"/><!--MD5=[99ee1f3c7ee6cded9f8e635f7d1e7f88]
reverse link network_acl to aws_ec2_network_acl--><path codeLine="39" d="M153.07,477.82 C169.65,512.06 194.03,562.4 210.2,595.79 " fill="none" id="network_acl-backto-aws_ec2_network_acl" style="stroke:#FFAF37;stroke-width:2.0;"/><polygon fill="none" points="146.74,480.82,144.33,459.76,159.34,474.71,146.74,480.82" style="stroke:#FFAF37;stroke-width:2.0;"/><!--MD5=[2f33a9efd9c3052a0152fff2f4010554]
reverse link resource to network_acl--><path codeLine="40" d="M135,303.51 C135,349.86 135,394.69 135,419.24 " fill="none" id="resource-backto-network_acl" style="stroke:#FFAF37;stroke-width:2.0;"/><polygon fill="none" points="128,303.26,135,283.26,142,303.26,128,303.26" style="stroke:#FFAF37;stroke-width:2.0;"/><!--MD5=[53ac67ab1f34554b73f2cd9ff65a86be]
@startuml
hide empty members
skinparam ArrowColor #ffaf37
skinparam ArrowThickness 2
skinparam BackgroundColor transparent
skinparam ClassAttributeFontColor #ffe797
skinparam ClassBackgroundColor #194875
skinparam ClassBorderColor Black
skinparam ClassFontColor #ffe797
skinparam ClassFontName Helvetica
skinparam ClassFontSize 17
skinparam Padding 5
skinparam RoundCorner 5
skinparam Shadowing false
skinparam stereotypeCBackgroundColor #1a83af
skinparam stereotypeIBackgroundColor #1a83af

class resource {
**id**: string
**tags**: dictionary[string, string]
**name**: string
**ctime**: datetime
**age**: trafo.duration_to_datetime
**mtime**: datetime
**last_update**: trafo.duration_to_datetime
**atime**: datetime
**last_access**: trafo.duration_to_datetime
**kind**: string
}
class aws_resource {
**arn**: string
}
class aws_ec2_network_acl {
**is_default**: boolean
}
class network_acl {

}
aws_resource <|- - - aws_ec2_network_acl
network_acl <|- - - aws_ec2_network_acl
resource <|- - - network_acl
@enduml

PlantUML version 1.2021.16(Wed Dec 08 17:25:22 UTC 2021)
(GPL source distribution)
Java Runtime: OpenJDK Runtime Environment
JVM: OpenJDK 64-Bit Server VM
Default Encoding: UTF-8
Language: en
Country: null
--></g></svg>