<?xml version="1.0" encoding="UTF-8" standalone="no"?><svg xmlns="http://www.w3.org/2000/svg" xmlns:xlink="http://www.w3.org/1999/xlink" contentScriptType="application/ecmascript" contentStyleType="text/css" height="663px" preserveAspectRatio="none" style="width:410px;height:663px;background:#00000000;" version="1.1" viewBox="0 0 410 663" width="410px" zoomAndPan="magnify"><defs/><g><!--MD5=[7f0ecf5f554433d3f2e1213379ac821c]
class resource--><rect codeLine="17" fill="#194875" height="275.8359" id="resource" rx="2.5" ry="2.5" style="stroke:#000000;stroke-width:1.5;" width="256" x="7" y="7"/><ellipse cx="90.25" cy="26.8945" fill="#1A83AF" rx="11" ry="11" style="stroke:#000000;stroke-width:1.0;"/><path d="M93.2188,32.5352 Q92.6406,32.832 92,32.9727 Q91.3594,33.1289 90.6563,33.1289 Q88.1563,33.1289 86.8281,31.4883 Q85.5156,29.832 85.5156,26.707 Q85.5156,23.582 86.8281,21.9258 Q88.1563,20.2695 90.6563,20.2695 Q91.3594,20.2695 92,20.4258 Q92.6563,20.582 93.2188,20.8789 L93.2188,23.5977 Q92.5938,23.0195 92,22.7539 Q91.4063,22.4727 90.7813,22.4727 Q89.4375,22.4727 88.75,23.5508 Q88.0625,24.6133 88.0625,26.707 Q88.0625,28.8008 88.75,29.8789 Q89.4375,30.9414 90.7813,30.9414 Q91.4063,30.9414 92,30.6758 Q92.5938,30.3945 93.2188,29.8164 L93.2188,32.5352 Z " fill="#000000"/><text fill="#FFE797" font-family="Helvetica" font-size="17" lengthAdjust="spacing" textLength="71" x="115.75" y="32.7798">resource</text><line style="stroke:#000000;stroke-width:1.5;" x1="8" x2="262" y1="46.7891" y2="46.7891"/><text fill="#FFE797" font-family="sans-serif" font-size="11" font-weight="bold" lengthAdjust="spacing" textLength="12" x="18" y="65.9995">id</text><text fill="#FFE797" font-family="sans-serif" font-size="11" lengthAdjust="spacing" textLength="41" x="30" y="65.9995">: string</text><text fill="#FFE797" font-family="sans-serif" font-size="11" font-weight="bold" lengthAdjust="spacing" textLength="28" x="18" y="88.8042">tags</text><text fill="#FFE797" font-family="sans-serif" font-size="11" lengthAdjust="spacing" textLength="145" x="46" y="88.8042">: dictionary[string, string]</text><text fill="#FFE797" font-family="sans-serif" font-size="11" font-weight="bold" lengthAdjust="spacing" textLength="35" x="18" y="111.6089">name</text><text fill="#FFE797" font-family="sans-serif" font-size="11" lengthAdjust="spacing" textLength="41" x="53" y="111.6089">: string</text><text fill="#FFE797" font-family="sans-serif" font-size="11" font-weight="bold" lengthAdjust="spacing" textLength="35" x="18" y="134.4136">ctime</text><text fill="#FFE797" font-family="sans-serif" font-size="11" lengthAdjust="spacing" textLength="58" x="53" y="134.4136">: datetime</text><text fill="#FFE797" font-family="sans-serif" font-size="11" font-weight="bold" lengthAdjust="spacing" textLength="24" x="18" y="157.2183">age</text><text fill="#FFE797" font-family="sans-serif" font-size="11" lengthAdjust="spacing" textLength="159" x="42" y="157.2183">: trafo.duration_to_datetime</text><text fill="#FFE797" font-family="sans-serif" font-size="11" font-weight="bold" lengthAdjust="spacing" textLength="39" x="18" y="180.0229">mtime</text><text fill="#FFE797" font-family="sans-serif" font-size="11" lengthAdjust="spacing" textLength="58" x="57" y="180.0229">: datetime</text><text fill="#FFE797" font-family="sans-serif" font-size="11" font-weight="bold" lengthAdjust="spacing" textLength="75" x="18" y="202.8276">last_update</text><text fill="#FFE797" font-family="sans-serif" font-size="11" lengthAdjust="spacing" textLength="159" x="93" y="202.8276">: trafo.duration_to_datetime</text><text fill="#FFE797" font-family="sans-serif" font-size="11" font-weight="bold" lengthAdjust="spacing" textLength="36" x="18" y="225.6323">atime</text><text fill="#FFE797" font-family="sans-serif" font-size="11" lengthAdjust="spacing" textLength="58" x="54" y="225.6323">: datetime</text><text fill="#FFE797" font-family="sans-serif" font-size="11" font-weight="bold" lengthAdjust="spacing" textLength="74" x="18" y="248.437">last_access</text><text fill="#FFE797" font-family="sans-serif" font-size="11" lengthAdjust="spacing" textLength="159" x="92" y="248.437">: trafo.duration_to_datetime</text><text fill="#FFE797" font-family="sans-serif" font-size="11" font-weight="bold" lengthAdjust="spacing" textLength="27" x="18" y="271.2417">kind</text><text fill="#FFE797" font-family="sans-serif" font-size="11" lengthAdjust="spacing" textLength="41" x="45" y="271.2417">: string</text><!--MD5=[c069b88079f3e36515859a1683f3923c]
class aws_resource--><rect codeLine="29" fill="#194875" height="70.5938" id="aws_resource" rx="2.5" ry="2.5" style="stroke:#000000;stroke-width:1.5;" width="155" x="248.5" y="415"/><ellipse cx="263.5" cy="434.8945" fill="#1A83AF" rx="11" ry="11" style="stroke:#000000;stroke-width:1.0;"/><path d="M266.4688,440.5352 Q265.8906,440.832 265.25,440.9727 Q264.6094,441.1289 263.9063,441.1289 Q261.4063,441.1289 260.0781,439.4883 Q258.7656,437.832 258.7656,434.707 Q258.7656,431.582 260.0781,429.9258 Q261.4063,428.2695 263.9063,428.2695 Q264.6094,428.2695 265.25,428.4258 Q265.9063,428.582 266.4688,428.8789 L266.4688,431.5977 Q265.8438,431.0195 265.25,430.7539 Q264.6563,430.4727 264.0313,430.4727 Q262.6875,430.4727 262,431.5508 Q261.3125,432.6133 261.3125,434.707 Q261.3125,436.8008 262,437.8789 Q262.6875,438.9414 264.0313,438.9414 Q264.6563,438.9414 265.25,438.6758 Q265.8438,438.3945 266.4688,437.8164 L266.4688,440.5352 Z " fill="#000000"/><text fill="#FFE797" font-family="Helvetica" font-size="17" lengthAdjust="spacing" textLength="113" x="282.5" y="440.7798">aws_resource</text><line style="stroke:#000000;stroke-width:1.5;" x1="249.5" x2="402.5" y1="454.7891" y2="454.7891"/><text fill="#FFE797" font-family="sans-serif" font-size="11" font-weight="bold" lengthAdjust="spacing" textLength="21" x="259.5" y="473.9995">arn</text><text fill="#FFE797" font-family="sans-serif" font-size="11" lengthAdjust="spacing" textLength="41" x="280.5" y="473.9995">: string</text><!--MD5=[86833b7771fd646511791fafeadda016]
class load_balancer--><rect codeLine="32" fill="#194875" height="93.3984" id="load_balancer" rx="2.5" ry="2.5" style="stroke:#000000;stroke-width:1.5;" width="157" x="56.5" y="404"/><ellipse cx="71.5" cy="423.8945" fill="#1A83AF" rx="11" ry="11" style="stroke:#000000;stroke-width:1.0;"/><path d="M74.4688,429.5352 Q73.8906,429.832 73.25,429.9727 Q72.6094,430.1289 71.9063,430.1289 Q69.4063,430.1289 68.0781,428.4883 Q66.7656,426.832 66.7656,423.707 Q66.7656,420.582 68.0781,418.9258 Q69.4063,417.2695 71.9063,417.2695 Q72.6094,417.2695 73.25,417.4258 Q73.9063,417.582 74.4688,417.8789 L74.4688,420.5977 Q73.8438,420.0195 73.25,419.7539 Q72.6563,419.4727 72.0313,419.4727 Q70.6875,419.4727 70,420.5508 Q69.3125,421.6133 69.3125,423.707 Q69.3125,425.8008 70,426.8789 Q70.6875,427.9414 72.0313,427.9414 Q72.6563,427.9414 73.25,427.6758 Q73.8438,427.3945 74.4688,426.8164 L74.4688,429.5352 Z " fill="#000000"/><text fill="#FFE797" font-family="Helvetica" font-size="17" lengthAdjust="spacing" textLength="115" x="90.5" y="429.7798">load_balancer</text><line style="stroke:#000000;stroke-width:1.5;" x1="57.5" x2="212.5" y1="443.7891" y2="443.7891"/><text fill="#FFE797" font-family="sans-serif" font-size="11" font-weight="bold" lengthAdjust="spacing" textLength="46" x="67.5" y="462.9995">lb_type</text><text fill="#FFE797" font-family="sans-serif" font-size="11" lengthAdjust="spacing" textLength="41" x="113.5" y="462.9995">: string</text><text fill="#FFE797" font-family="sans-serif" font-size="11" font-weight="bold" lengthAdjust="spacing" textLength="61" x="67.5" y="485.8042">backends</text><text fill="#FFE797" font-family="sans-serif" font-size="11" lengthAdjust="spacing" textLength="49" x="128.5" y="485.8042">: string[]</text><!--MD5=[62feba95c454080ece180dc52d22d73f]
class aws_alb--><rect codeLine="36" fill="#194875" height="39.7891" id="aws_alb" rx="2.5" ry="2.5" style="stroke:#000000;stroke-width:1.5;" width="109" x="205.5" y="618"/><ellipse cx="220.5" cy="637.8945" fill="#1A83AF" rx="11" ry="11" style="stroke:#000000;stroke-width:1.0;"/><path d="M223.4688,643.5352 Q222.8906,643.832 222.25,643.9727 Q221.6094,644.1289 220.9063,644.1289 Q218.4063,644.1289 217.0781,642.4883 Q215.7656,640.832 215.7656,637.707 Q215.7656,634.582 217.0781,632.9258 Q218.4063,631.2695 220.9063,631.2695 Q221.6094,631.2695 222.25,631.4258 Q222.9063,631.582 223.4688,631.8789 L223.4688,634.5977 Q222.8438,634.0195 222.25,633.7539 Q221.6563,633.4727 221.0313,633.4727 Q219.6875,633.4727 219,634.5508 Q218.3125,635.6133 218.3125,637.707 Q218.3125,639.8008 219,640.8789 Q219.6875,641.9414 221.0313,641.9414 Q221.6563,641.9414 222.25,641.6758 Q222.8438,641.3945 223.4688,640.8164 L223.4688,643.5352 Z " fill="#000000"/><text fill="#FFE797" font-family="Helvetica" font-size="17" lengthAdjust="spacing" textLength="67" x="239.5" y="643.7798">aws_alb</text><!--MD5=[0344b77bad72b42f01cb7db15a535890]
reverse link resource to load_balancer--><path codeLine="39" d="M135,303.23 C135,340.03 135,376.4 135,403.66 " fill="none" id="resource-backto-load_balancer" style="stroke:#FFAF37;stroke-width:2.0;"/><polygon fill="none" points="128,303.1,135,283.1,142,303.1,128,303.1" style="stroke:#FFAF37;stroke-width:2.0;"/><!--MD5=[48c8e2b6efcad423fbdf5354eae57739]
reverse link aws_resource to aws_alb--><path codeLine="40" d="M306.85,505.31 C293.39,543.16 276.16,591.57 266.8,617.88 " fill="none" id="aws_resource-backto-aws_alb" style="stroke:#FFAF37;stroke-width:2.0;"/><polygon fill="none" points="300.29,502.89,313.59,486.39,313.48,507.58,300.29,502.89" style="stroke:#FFAF37;stroke-width:2.0;"/><!--MD5=[7ae4202cf6425dd1e68e0fcc5f98176b]
reverse link load_balancer to aws_alb--><path codeLine="41" d="M177.39,514.41 C201.7,550.49 230.55,593.3 246.93,617.6 " fill="none" id="load_balancer-backto-aws_alb" style="stroke:#FFAF37;stroke-width:2.0;"/><polygon fill="none" points="171.27,517.85,165.9,497.35,182.88,510.03,171.27,517.85" style="stroke:#FFAF37;stroke-width:2.0;"/><!--MD5=[53100a479222cce395c48bea1d7185ce]
@startuml
hide empty members
skinparam ArrowColor #ffaf37
skinparam ArrowThickness 2
skinparam BackgroundColor transparent
skinparam ClassAttributeFontColor #ffe797
skinparam ClassBackgroundColor #194875
skinparam ClassBorderColor Black
skinparam ClassFontColor #ffe797
skinparam ClassFontName Helvetica
skinparam ClassFontSize 17
skinparam Padding 5
skinparam RoundCorner 5
skinparam Shadowing false
skinparam stereotypeCBackgroundColor #1a83af
skinparam stereotypeIBackgroundColor #1a83af

class resource {
**id**: string
**tags**: dictionary[string, string]
**name**: string
**ctime**: datetime
**age**: trafo.duration_to_datetime
**mtime**: datetime
**last_update**: trafo.duration_to_datetime
**atime**: datetime
**last_access**: trafo.duration_to_datetime
**kind**: string
}
class aws_resource {
**arn**: string
}
class load_balancer {
**lb_type**: string
**backends**: string[]
}
class aws_alb {

}
resource <|- - - load_balancer
aws_resource <|- - - aws_alb
load_balancer <|- - - aws_alb
@enduml

PlantUML version 1.2021.16(Wed Dec 08 17:25:22 UTC 2021)
(GPL source distribution)
Java Runtime: OpenJDK Runtime Environment
JVM: OpenJDK 64-Bit Server VM
Default Encoding: UTF-8
Language: en
Country: null
--></g></svg>