<svg xmlns="http://www.w3.org/2000/svg" xmlns:xlink="http://www.w3.org/1999/xlink" width="338" height="548" contentScriptType="application/ecmascript" contentStyleType="text/css" style="width:338px;height:548px;background:#00000000" preserveAspectRatio="none" version="1.1" viewBox="0 0 338 548" zoomAndPan="magnify"><defs><filter id="fli62iqii6sra" width="300%" height="300%" x="-1" y="-1"><feGaussianBlur result="blurOut" stdDeviation="2"/><feColorMatrix in="blurOut" result="blurOut2" type="matrix" values="0 0 0 0 0 0 0 0 0 0 0 0 0 0 0 0 0 0 .4 0"/><feOffset dx="4" dy="4" in="blurOut2" result="blurOut3"/><feBlend in="SourceGraphic" in2="blurOut3" mode="normal"/></filter></defs><g><rect id="resource" width="252" height="176.047" x="7" y="7" fill="#FEFECE" codeLine="2" filter="url(#fli62iqii6sra)" style="stroke:#a80036;stroke-width:1.5"/><ellipse cx="100.75" cy="23" fill="#ADD1B2" rx="11" ry="11" style="stroke:#a80036;stroke-width:1"/><path fill="#000" d="M103.7188,28.6406 Q103.1406,28.9375 102.5,29.0781 Q101.8594,29.2344 101.1563,29.2344 Q98.6563,29.2344 97.3281,27.5938 Q96.0156,25.9375 96.0156,22.8125 Q96.0156,19.6875 97.3281,18.0313 Q98.6563,16.375 101.1563,16.375 Q101.8594,16.375 102.5,16.5313 Q103.1563,16.6875 103.7188,16.9844 L103.7188,19.7031 Q103.0938,19.125 102.5,18.8594 Q101.9063,18.5781 101.2813,18.5781 Q99.9375,18.5781 99.25,19.6563 Q98.5625,20.7188 98.5625,22.8125 Q98.5625,24.9063 99.25,25.9844 Q99.9375,27.0469 101.2813,27.0469 Q101.9063,27.0469 102.5,26.7813 Q103.0938,26.5 103.7188,25.9219 L103.7188,28.6406 Z"/><text x="121.25" y="27.154" fill="#000" font-family="sans-serif" font-size="12" lengthAdjust="spacing" textLength="56">resource</text><line style="stroke:#a80036;stroke-width:1.5" x1="8" x2="258" y1="39" y2="39"/><ellipse cx="18" cy="50" rx="3" ry="3" style="stroke:#038048;stroke-width:1;fill:none"/><text x="27" y="53.21" fill="#000" font-family="sans-serif" font-size="11" lengthAdjust="spacing" textLength="51">id: string</text><ellipse cx="18" cy="62.805" rx="3" ry="3" style="stroke:#038048;stroke-width:1;fill:none"/><text x="27" y="66.015" fill="#000" font-family="sans-serif" font-size="11" lengthAdjust="spacing" textLength="170">tags: dictionary[string, string]</text><ellipse cx="18" cy="75.609" rx="3" ry="3" style="stroke:#038048;stroke-width:1;fill:none"/><text x="27" y="78.82" fill="#000" font-family="sans-serif" font-size="11" lengthAdjust="spacing" textLength="73">name: string</text><ellipse cx="18" cy="88.414" rx="3" ry="3" style="stroke:#038048;stroke-width:1;fill:none"/><text x="27" y="91.624" fill="#000" font-family="sans-serif" font-size="11" lengthAdjust="spacing" textLength="89">ctime: datetime</text><ellipse cx="18" cy="101.219" rx="3" ry="3" style="stroke:#038048;stroke-width:1;fill:none"/><text x="27" y="104.429" fill="#000" font-family="sans-serif" font-size="11" lengthAdjust="spacing" textLength="180">age: trafo.duration_to_datetime</text><ellipse cx="18" cy="114.023" rx="3" ry="3" style="stroke:#038048;stroke-width:1;fill:none"/><text x="27" y="117.234" fill="#000" font-family="sans-serif" font-size="11" lengthAdjust="spacing" textLength="94">mtime: datetime</text><ellipse cx="18" cy="126.828" rx="3" ry="3" style="stroke:#038048;stroke-width:1;fill:none"/><text x="27" y="130.039" fill="#000" font-family="sans-serif" font-size="11" lengthAdjust="spacing" textLength="225">last_update: trafo.duration_to_datetime</text><ellipse cx="18" cy="139.633" rx="3" ry="3" style="stroke:#038048;stroke-width:1;fill:none"/><text x="27" y="142.843" fill="#000" font-family="sans-serif" font-size="11" lengthAdjust="spacing" textLength="90">atime: datetime</text><ellipse cx="18" cy="152.438" rx="3" ry="3" style="stroke:#038048;stroke-width:1;fill:none"/><text x="27" y="155.648" fill="#000" font-family="sans-serif" font-size="11" lengthAdjust="spacing" textLength="226">last_access: trafo.duration_to_datetime</text><ellipse cx="18" cy="165.242" rx="3" ry="3" style="stroke:#038048;stroke-width:1;fill:none"/><text x="27" y="168.453" fill="#000" font-family="sans-serif" font-size="11" lengthAdjust="spacing" textLength="64">kind: string</text><line style="stroke:#a80036;stroke-width:1.5" x1="8" x2="258" y1="175.047" y2="175.047"/><rect id="aws_resource" width="118" height="60.805" x="206" y="304" fill="#FEFECE" codeLine="14" filter="url(#fli62iqii6sra)" style="stroke:#a80036;stroke-width:1.5"/><ellipse cx="221" cy="320" fill="#ADD1B2" rx="11" ry="11" style="stroke:#a80036;stroke-width:1"/><path fill="#000" d="M223.9688,325.6406 Q223.3906,325.9375 222.75,326.0781 Q222.1094,326.2344 221.4063,326.2344 Q218.9063,326.2344 217.5781,324.5938 Q216.2656,322.9375 216.2656,319.8125 Q216.2656,316.6875 217.5781,315.0313 Q218.9063,313.375 221.4063,313.375 Q222.1094,313.375 222.75,313.5313 Q223.4063,313.6875 223.9688,313.9844 L223.9688,316.7031 Q223.3438,316.125 222.75,315.8594 Q222.1563,315.5781 221.5313,315.5781 Q220.1875,315.5781 219.5,316.6563 Q218.8125,317.7188 218.8125,319.8125 Q218.8125,321.9063 219.5,322.9844 Q220.1875,324.0469 221.5313,324.0469 Q222.1563,324.0469 222.75,323.7813 Q223.3438,323.5 223.9688,322.9219 L223.9688,325.6406 Z"/><text x="235" y="324.154" fill="#000" font-family="sans-serif" font-size="12" lengthAdjust="spacing" textLength="86">aws_resource</text><line style="stroke:#a80036;stroke-width:1.5" x1="207" x2="323" y1="336" y2="336"/><ellipse cx="217" cy="347" rx="3" ry="3" style="stroke:#038048;stroke-width:1;fill:none"/><text x="226" y="350.21" fill="#000" font-family="sans-serif" font-size="11" lengthAdjust="spacing" textLength="60">arn: string</text><line style="stroke:#a80036;stroke-width:1.5" x1="207" x2="323" y1="356.805" y2="356.805"/><rect id="bucket" width="75" height="48" x="95.5" y="310.5" fill="#FEFECE" codeLine="17" filter="url(#fli62iqii6sra)" style="stroke:#a80036;stroke-width:1.5"/><ellipse cx="110.5" cy="326.5" fill="#ADD1B2" rx="11" ry="11" style="stroke:#a80036;stroke-width:1"/><path fill="#000" d="M113.4688,332.1406 Q112.8906,332.4375 112.25,332.5781 Q111.6094,332.7344 110.9063,332.7344 Q108.4063,332.7344 107.0781,331.0938 Q105.7656,329.4375 105.7656,326.3125 Q105.7656,323.1875 107.0781,321.5313 Q108.4063,319.875 110.9063,319.875 Q111.6094,319.875 112.25,320.0313 Q112.9063,320.1875 113.4688,320.4844 L113.4688,323.2031 Q112.8438,322.625 112.25,322.3594 Q111.6563,322.0781 111.0313,322.0781 Q109.6875,322.0781 109,323.1563 Q108.3125,324.2188 108.3125,326.3125 Q108.3125,328.4063 109,329.4844 Q109.6875,330.5469 111.0313,330.5469 Q111.6563,330.5469 112.25,330.2813 Q112.8438,330 113.4688,329.4219 L113.4688,332.1406 Z"/><text x="124.5" y="330.654" fill="#000" font-family="sans-serif" font-size="12" lengthAdjust="spacing" textLength="43">bucket</text><line style="stroke:#a80036;stroke-width:1.5" x1="96.5" x2="169.5" y1="342.5" y2="342.5"/><line style="stroke:#a80036;stroke-width:1.5" x1="96.5" x2="169.5" y1="350.5" y2="350.5"/><rect id="aws_s3_bucket" width="126" height="48" x="136" y="486" fill="#FEFECE" codeLine="20" filter="url(#fli62iqii6sra)" style="stroke:#a80036;stroke-width:1.5"/><ellipse cx="151" cy="502" fill="#ADD1B2" rx="11" ry="11" style="stroke:#a80036;stroke-width:1"/><path fill="#000" d="M153.9688,507.6406 Q153.3906,507.9375 152.75,508.0781 Q152.1094,508.2344 151.4063,508.2344 Q148.9063,508.2344 147.5781,506.5938 Q146.2656,504.9375 146.2656,501.8125 Q146.2656,498.6875 147.5781,497.0313 Q148.9063,495.375 151.4063,495.375 Q152.1094,495.375 152.75,495.5313 Q153.4063,495.6875 153.9688,495.9844 L153.9688,498.7031 Q153.3438,498.125 152.75,497.8594 Q152.1563,497.5781 151.5313,497.5781 Q150.1875,497.5781 149.5,498.6563 Q148.8125,499.7188 148.8125,501.8125 Q148.8125,503.9063 149.5,504.9844 Q150.1875,506.0469 151.5313,506.0469 Q152.1563,506.0469 152.75,505.7813 Q153.3438,505.5 153.9688,504.9219 L153.9688,507.6406 Z"/><text x="165" y="506.154" fill="#000" font-family="sans-serif" font-size="12" lengthAdjust="spacing" textLength="94">aws_s3_bucket</text><line style="stroke:#a80036;stroke-width:1.5" x1="137" x2="261" y1="518" y2="518"/><line style="stroke:#a80036;stroke-width:1.5" x1="137" x2="261" y1="526" y2="526"/><path id="resource-backto-bucket" fill="none" d="M133,203.16 C133,243.25 133,285.12 133,310.25" codeLine="23" style="stroke:#a80036;stroke-width:1"/><polygon fill="none" points="126 203.09 133 183.09 140 203.09 126 203.09" style="stroke:#a80036;stroke-width:1"/><path id="aws_resource-backto-aws_s3_bucket" fill="none" d="M246.5,384.13 C233.83,417.43 217.61,460.08 207.77,485.93" codeLine="24" style="stroke:#a80036;stroke-width:1"/><polygon fill="none" points="240 381.53 253.65 365.33 253.09 386.51 240 381.53" style="stroke:#a80036;stroke-width:1"/><path id="bucket-backto-aws_s3_bucket" fill="none" d="M148.92,377.34 C161.87,411.4 179.68,458.21 190.2,485.87" codeLine="25" style="stroke:#a80036;stroke-width:1"/><polygon fill="none" points="142.33 379.72 141.76 358.54 155.42 374.74 142.33 379.72" style="stroke:#a80036;stroke-width:1"/></g></svg>