<?xml version="1.0" encoding="UTF-8" standalone="no"?><svg xmlns="http://www.w3.org/2000/svg" xmlns:xlink="http://www.w3.org/1999/xlink" contentScriptType="application/ecmascript" contentStyleType="text/css" height="1144px" preserveAspectRatio="none" style="width:387px;height:1144px;background:#00000000;" version="1.1" viewBox="0 0 387 1144" width="387px" zoomAndPan="magnify"><defs><filter height="300%" id="f1gcxtwhe50ucb" width="300%" x="-1" y="-1"><feGaussianBlur result="blurOut" stdDeviation="2.0"/><feColorMatrix in="blurOut" result="blurOut2" type="matrix" values="0 0 0 0 0 0 0 0 0 0 0 0 0 0 0 0 0 0 .4 0"/><feOffset dx="4.0" dy="4.0" in="blurOut2" result="blurOut3"/><feBlend in="SourceGraphic" in2="blurOut3" mode="normal"/></filter></defs><g><!--MD5=[156df1ec125634b672185ad659f2920c]
class phantom_resource--><rect codeLine="2" fill="#FEFECE" filter="url(#f1gcxtwhe50ucb)" height="48" id="phantom_resource" style="stroke:#A80036;stroke-width:1.5;" width="150" x="172" y="304"/><ellipse cx="187" cy="320" fill="#ADD1B2" rx="11" ry="11" style="stroke:#A80036;stroke-width:1.0;"/><path d="M189.9688,325.6406 Q189.3906,325.9375 188.75,326.0781 Q188.1094,326.2344 187.4063,326.2344 Q184.9063,326.2344 183.5781,324.5938 Q182.2656,322.9375 182.2656,319.8125 Q182.2656,316.6875 183.5781,315.0313 Q184.9063,313.375 187.4063,313.375 Q188.1094,313.375 188.75,313.5313 Q189.4063,313.6875 189.9688,313.9844 L189.9688,316.7031 Q189.3438,316.125 188.75,315.8594 Q188.1563,315.5781 187.5313,315.5781 Q186.1875,315.5781 185.5,316.6563 Q184.8125,317.7188 184.8125,319.8125 Q184.8125,321.9063 185.5,322.9844 Q186.1875,324.0469 187.5313,324.0469 Q188.1563,324.0469 188.75,323.7813 Q189.3438,323.5 189.9688,322.9219 L189.9688,325.6406 Z " fill="#000000"/><text fill="#000000" font-family="sans-serif" font-size="12" lengthAdjust="spacing" textLength="118" x="201" y="324.1543">phantom_resource</text><line style="stroke:#A80036;stroke-width:1.5;" x1="173" x2="321" y1="336" y2="336"/><line style="stroke:#A80036;stroke-width:1.5;" x1="173" x2="321" y1="344" y2="344"/><!--MD5=[7f0ecf5f554433d3f2e1213379ac821c]
class resource--><rect codeLine="5" fill="#FEFECE" filter="url(#f1gcxtwhe50ucb)" height="176.0469" id="resource" style="stroke:#A80036;stroke-width:1.5;" width="252" x="121" y="7"/><ellipse cx="214.75" cy="23" fill="#ADD1B2" rx="11" ry="11" style="stroke:#A80036;stroke-width:1.0;"/><path d="M217.7188,28.6406 Q217.1406,28.9375 216.5,29.0781 Q215.8594,29.2344 215.1563,29.2344 Q212.6563,29.2344 211.3281,27.5938 Q210.0156,25.9375 210.0156,22.8125 Q210.0156,19.6875 211.3281,18.0313 Q212.6563,16.375 215.1563,16.375 Q215.8594,16.375 216.5,16.5313 Q217.1563,16.6875 217.7188,16.9844 L217.7188,19.7031 Q217.0938,19.125 216.5,18.8594 Q215.9063,18.5781 215.2813,18.5781 Q213.9375,18.5781 213.25,19.6563 Q212.5625,20.7188 212.5625,22.8125 Q212.5625,24.9063 213.25,25.9844 Q213.9375,27.0469 215.2813,27.0469 Q215.9063,27.0469 216.5,26.7813 Q217.0938,26.5 217.7188,25.9219 L217.7188,28.6406 Z " fill="#000000"/><text fill="#000000" font-family="sans-serif" font-size="12" lengthAdjust="spacing" textLength="56" x="235.25" y="27.1543">resource</text><line style="stroke:#A80036;stroke-width:1.5;" x1="122" x2="372" y1="39" y2="39"/><ellipse cx="132" cy="50" rx="3" ry="3" style="stroke:#038048;stroke-width:1.0;fill:none;"/><text fill="#000000" font-family="sans-serif" font-size="11" lengthAdjust="spacing" textLength="51" x="141" y="53.2104">id: string</text><ellipse cx="132" cy="62.8047" rx="3" ry="3" style="stroke:#038048;stroke-width:1.0;fill:none;"/><text fill="#000000" font-family="sans-serif" font-size="11" lengthAdjust="spacing" textLength="170" x="141" y="66.0151">tags: dictionary[string, string]</text><ellipse cx="132" cy="75.6094" rx="3" ry="3" style="stroke:#038048;stroke-width:1.0;fill:none;"/><text fill="#000000" font-family="sans-serif" font-size="11" lengthAdjust="spacing" textLength="73" x="141" y="78.8198">name: string</text><ellipse cx="132" cy="88.4141" rx="3" ry="3" style="stroke:#038048;stroke-width:1.0;fill:none;"/><text fill="#000000" font-family="sans-serif" font-size="11" lengthAdjust="spacing" textLength="89" x="141" y="91.6245">ctime: datetime</text><ellipse cx="132" cy="101.2188" rx="3" ry="3" style="stroke:#038048;stroke-width:1.0;fill:none;"/><text fill="#000000" font-family="sans-serif" font-size="11" lengthAdjust="spacing" textLength="180" x="141" y="104.4292">age: trafo.duration_to_datetime</text><ellipse cx="132" cy="114.0234" rx="3" ry="3" style="stroke:#038048;stroke-width:1.0;fill:none;"/><text fill="#000000" font-family="sans-serif" font-size="11" lengthAdjust="spacing" textLength="94" x="141" y="117.2339">mtime: datetime</text><ellipse cx="132" cy="126.8281" rx="3" ry="3" style="stroke:#038048;stroke-width:1.0;fill:none;"/><text fill="#000000" font-family="sans-serif" font-size="11" lengthAdjust="spacing" textLength="225" x="141" y="130.0386">last_update: trafo.duration_to_datetime</text><ellipse cx="132" cy="139.6328" rx="3" ry="3" style="stroke:#038048;stroke-width:1.0;fill:none;"/><text fill="#000000" font-family="sans-serif" font-size="11" lengthAdjust="spacing" textLength="90" x="141" y="142.8433">atime: datetime</text><ellipse cx="132" cy="152.4375" rx="3" ry="3" style="stroke:#038048;stroke-width:1.0;fill:none;"/><text fill="#000000" font-family="sans-serif" font-size="11" lengthAdjust="spacing" textLength="226" x="141" y="155.6479">last_access: trafo.duration_to_datetime</text><ellipse cx="132" cy="165.2422" rx="3" ry="3" style="stroke:#038048;stroke-width:1.0;fill:none;"/><text fill="#000000" font-family="sans-serif" font-size="11" lengthAdjust="spacing" textLength="64" x="141" y="168.4526">kind: string</text><line style="stroke:#A80036;stroke-width:1.5;" x1="122" x2="372" y1="175.0469" y2="175.0469"/><!--MD5=[c069b88079f3e36515859a1683f3923c]
class aws_resource--><rect codeLine="17" fill="#FEFECE" filter="url(#f1gcxtwhe50ucb)" height="60.8047" id="aws_resource" style="stroke:#A80036;stroke-width:1.5;" width="118" x="7" y="874.5"/><ellipse cx="22" cy="890.5" fill="#ADD1B2" rx="11" ry="11" style="stroke:#A80036;stroke-width:1.0;"/><path d="M24.9688,896.1406 Q24.3906,896.4375 23.75,896.5781 Q23.1094,896.7344 22.4063,896.7344 Q19.9063,896.7344 18.5781,895.0938 Q17.2656,893.4375 17.2656,890.3125 Q17.2656,887.1875 18.5781,885.5313 Q19.9063,883.875 22.4063,883.875 Q23.1094,883.875 23.75,884.0313 Q24.4063,884.1875 24.9688,884.4844 L24.9688,887.2031 Q24.3438,886.625 23.75,886.3594 Q23.1563,886.0781 22.5313,886.0781 Q21.1875,886.0781 20.5,887.1563 Q19.8125,888.2188 19.8125,890.3125 Q19.8125,892.4063 20.5,893.4844 Q21.1875,894.5469 22.5313,894.5469 Q23.1563,894.5469 23.75,894.2813 Q24.3438,894 24.9688,893.4219 L24.9688,896.1406 Z " fill="#000000"/><text fill="#000000" font-family="sans-serif" font-size="12" lengthAdjust="spacing" textLength="86" x="36" y="894.6543">aws_resource</text><line style="stroke:#A80036;stroke-width:1.5;" x1="8" x2="124" y1="906.5" y2="906.5"/><ellipse cx="18" cy="917.5" rx="3" ry="3" style="stroke:#038048;stroke-width:1.0;fill:none;"/><text fill="#000000" font-family="sans-serif" font-size="11" lengthAdjust="spacing" textLength="60" x="27" y="920.7104">arn: string</text><line style="stroke:#A80036;stroke-width:1.5;" x1="8" x2="124" y1="927.3047" y2="927.3047"/><!--MD5=[22174b9730fcba0c4a11f474626e54a0]
class instance_type--><rect codeLine="20" fill="#FEFECE" filter="url(#f1gcxtwhe50ucb)" height="112.0234" id="instance_type" style="stroke:#A80036;stroke-width:1.5;" width="173" x="160.5" y="849"/><ellipse cx="199.8" cy="865" fill="#ADD1B2" rx="11" ry="11" style="stroke:#A80036;stroke-width:1.0;"/><path d="M202.7688,870.6406 Q202.1906,870.9375 201.55,871.0781 Q200.9094,871.2344 200.2063,871.2344 Q197.7063,871.2344 196.3781,869.5938 Q195.0656,867.9375 195.0656,864.8125 Q195.0656,861.6875 196.3781,860.0313 Q197.7063,858.375 200.2063,858.375 Q200.9094,858.375 201.55,858.5313 Q202.2063,858.6875 202.7688,858.9844 L202.7688,861.7031 Q202.1438,861.125 201.55,860.8594 Q200.9563,860.5781 200.3313,860.5781 Q198.9875,860.5781 198.3,861.6563 Q197.6125,862.7188 197.6125,864.8125 Q197.6125,866.9063 198.3,867.9844 Q198.9875,869.0469 200.3313,869.0469 Q200.9563,869.0469 201.55,868.7813 Q202.1438,868.5 202.7688,867.9219 L202.7688,870.6406 Z " fill="#000000"/><text fill="#000000" font-family="sans-serif" font-size="12" lengthAdjust="spacing" textLength="87" x="219.2" y="869.1543">instance_type</text><line style="stroke:#A80036;stroke-width:1.5;" x1="161.5" x2="332.5" y1="881" y2="881"/><ellipse cx="171.5" cy="892" rx="3" ry="3" style="stroke:#038048;stroke-width:1.0;fill:none;"/><text fill="#000000" font-family="sans-serif" font-size="11" lengthAdjust="spacing" textLength="119" x="180.5" y="895.2104">instance_type: string</text><ellipse cx="171.5" cy="904.8047" rx="3" ry="3" style="stroke:#038048;stroke-width:1.0;fill:none;"/><text fill="#000000" font-family="sans-serif" font-size="11" lengthAdjust="spacing" textLength="132" x="180.5" y="908.0151">instance_cores: double</text><ellipse cx="171.5" cy="917.6094" rx="3" ry="3" style="stroke:#038048;stroke-width:1.0;fill:none;"/><text fill="#000000" font-family="sans-serif" font-size="11" lengthAdjust="spacing" textLength="147" x="180.5" y="920.8198">instance_memory: double</text><ellipse cx="171.5" cy="930.4141" rx="3" ry="3" style="stroke:#038048;stroke-width:1.0;fill:none;"/><text fill="#000000" font-family="sans-serif" font-size="11" lengthAdjust="spacing" textLength="136" x="180.5" y="933.6245">ondemand_cost: double</text><ellipse cx="171.5" cy="943.2188" rx="3" ry="3" style="stroke:#038048;stroke-width:1.0;fill:none;"/><text fill="#000000" font-family="sans-serif" font-size="11" lengthAdjust="spacing" textLength="108" x="180.5" y="946.4292">reservations: int64</text><line style="stroke:#A80036;stroke-width:1.5;" x1="161.5" x2="332.5" y1="953.0234" y2="953.0234"/><!--MD5=[857a356b9e77f83de603e0318f36b735]
class type--><rect codeLine="27" fill="#FEFECE" filter="url(#f1gcxtwhe50ucb)" height="48" id="type" style="stroke:#A80036;stroke-width:1.5;" width="59" x="217.5" y="680"/><ellipse cx="232.5" cy="696" fill="#ADD1B2" rx="11" ry="11" style="stroke:#A80036;stroke-width:1.0;"/><path d="M235.4688,701.6406 Q234.8906,701.9375 234.25,702.0781 Q233.6094,702.2344 232.9063,702.2344 Q230.4063,702.2344 229.0781,700.5938 Q227.7656,698.9375 227.7656,695.8125 Q227.7656,692.6875 229.0781,691.0313 Q230.4063,689.375 232.9063,689.375 Q233.6094,689.375 234.25,689.5313 Q234.9063,689.6875 235.4688,689.9844 L235.4688,692.7031 Q234.8438,692.125 234.25,691.8594 Q233.6563,691.5781 233.0313,691.5781 Q231.6875,691.5781 231,692.6563 Q230.3125,693.7188 230.3125,695.8125 Q230.3125,697.9063 231,698.9844 Q231.6875,700.0469 233.0313,700.0469 Q233.6563,700.0469 234.25,699.7813 Q234.8438,699.5 235.4688,698.9219 L235.4688,701.6406 Z " fill="#000000"/><text fill="#000000" font-family="sans-serif" font-size="12" lengthAdjust="spacing" textLength="27" x="246.5" y="700.1543">type</text><line style="stroke:#A80036;stroke-width:1.5;" x1="218.5" x2="275.5" y1="712" y2="712"/><line style="stroke:#A80036;stroke-width:1.5;" x1="218.5" x2="275.5" y1="720" y2="720"/><!--MD5=[205bc3e74ea7d385e2b6aa1bb29a5024]
class quota--><rect codeLine="30" fill="#FEFECE" filter="url(#f1gcxtwhe50ucb)" height="86.4141" id="quota" style="stroke:#A80036;stroke-width:1.5;" width="129" x="182.5" y="473"/><ellipse cx="224.5" cy="489" fill="#ADD1B2" rx="11" ry="11" style="stroke:#A80036;stroke-width:1.0;"/><path d="M227.4688,494.6406 Q226.8906,494.9375 226.25,495.0781 Q225.6094,495.2344 224.9063,495.2344 Q222.4063,495.2344 221.0781,493.5938 Q219.7656,491.9375 219.7656,488.8125 Q219.7656,485.6875 221.0781,484.0313 Q222.4063,482.375 224.9063,482.375 Q225.6094,482.375 226.25,482.5313 Q226.9063,482.6875 227.4688,482.9844 L227.4688,485.7031 Q226.8438,485.125 226.25,484.8594 Q225.6563,484.5781 225.0313,484.5781 Q223.6875,484.5781 223,485.6563 Q222.3125,486.7188 222.3125,488.8125 Q222.3125,490.9063 223,491.9844 Q223.6875,493.0469 225.0313,493.0469 Q225.6563,493.0469 226.25,492.7813 Q226.8438,492.5 227.4688,491.9219 L227.4688,494.6406 Z " fill="#000000"/><text fill="#000000" font-family="sans-serif" font-size="12" lengthAdjust="spacing" textLength="37" x="244.5" y="493.1543">quota</text><line style="stroke:#A80036;stroke-width:1.5;" x1="183.5" x2="310.5" y1="505" y2="505"/><ellipse cx="193.5" cy="516" rx="3" ry="3" style="stroke:#038048;stroke-width:1.0;fill:none;"/><text fill="#000000" font-family="sans-serif" font-size="11" lengthAdjust="spacing" textLength="78" x="202.5" y="519.2104">quota: double</text><ellipse cx="193.5" cy="528.8047" rx="3" ry="3" style="stroke:#038048;stroke-width:1.0;fill:none;"/><text fill="#000000" font-family="sans-serif" font-size="11" lengthAdjust="spacing" textLength="81" x="202.5" y="532.0151">usage: double</text><ellipse cx="193.5" cy="541.6094" rx="3" ry="3" style="stroke:#038048;stroke-width:1.0;fill:none;"/><text fill="#000000" font-family="sans-serif" font-size="11" lengthAdjust="spacing" textLength="103" x="202.5" y="544.8198">quota_type: string</text><line style="stroke:#A80036;stroke-width:1.5;" x1="183.5" x2="310.5" y1="551.4141" y2="551.4141"/><!--MD5=[74634683f39a5ca82dd1e604ce342c83]
class aws_ec2_instance_type--><rect codeLine="35" fill="#FEFECE" filter="url(#f1gcxtwhe50ucb)" height="48" id="aws_ec2_instance_type" style="stroke:#A80036;stroke-width:1.5;" width="178" x="12" y="1082"/><ellipse cx="27" cy="1098" fill="#ADD1B2" rx="11" ry="11" style="stroke:#A80036;stroke-width:1.0;"/><path d="M29.9688,1103.6406 Q29.3906,1103.9375 28.75,1104.0781 Q28.1094,1104.2344 27.4063,1104.2344 Q24.9063,1104.2344 23.5781,1102.5938 Q22.2656,1100.9375 22.2656,1097.8125 Q22.2656,1094.6875 23.5781,1093.0313 Q24.9063,1091.375 27.4063,1091.375 Q28.1094,1091.375 28.75,1091.5313 Q29.4063,1091.6875 29.9688,1091.9844 L29.9688,1094.7031 Q29.3438,1094.125 28.75,1093.8594 Q28.1563,1093.5781 27.5313,1093.5781 Q26.1875,1093.5781 25.5,1094.6563 Q24.8125,1095.7188 24.8125,1097.8125 Q24.8125,1099.9063 25.5,1100.9844 Q26.1875,1102.0469 27.5313,1102.0469 Q28.1563,1102.0469 28.75,1101.7813 Q29.3438,1101.5 29.9688,1100.9219 L29.9688,1103.6406 Z " fill="#000000"/><text fill="#000000" font-family="sans-serif" font-size="12" lengthAdjust="spacing" textLength="146" x="41" y="1102.1543">aws_ec2_instance_type</text><line style="stroke:#A80036;stroke-width:1.5;" x1="13" x2="189" y1="1114" y2="1114"/><line style="stroke:#A80036;stroke-width:1.5;" x1="13" x2="189" y1="1122" y2="1122"/><!--MD5=[e134558fd6f7e839ecb28ecbda576c0a]
reverse link resource to phantom_resource--><path codeLine="38" d="M247,203.18 C247,241 247,280.01 247,303.89 " fill="none" id="resource-backto-phantom_resource" style="stroke:#A80036;stroke-width:1.0;"/><polygon fill="none" points="240,203,247,183,254,203,240,203" style="stroke:#A80036;stroke-width:1.0;"/><!--MD5=[7a87f7234cfb9411de5223c7712455cd]
reverse link type to instance_type--><path codeLine="39" d="M247,748.54 C247,777.94 247,817.01 247,848.63 " fill="none" id="type-backto-instance_type" style="stroke:#A80036;stroke-width:1.0;"/><polygon fill="none" points="240,748.22,247,728.22,254,748.22,240,748.22" style="stroke:#A80036;stroke-width:1.0;"/><!--MD5=[63e5c77e033f786e30b084e57dcd0955]
reverse link quota to type--><path codeLine="40" d="M247,579.21 C247,613.84 247,654.89 247,679.93 " fill="none" id="quota-backto-type" style="stroke:#A80036;stroke-width:1.0;"/><polygon fill="none" points="240,579.21,247,559.21,254,579.21,240,579.21" style="stroke:#A80036;stroke-width:1.0;"/><!--MD5=[8c556d10106c40540c768b31155cb09d]
reverse link phantom_resource to quota--><path codeLine="41" d="M247,372.6 C247,402.8 247,442.79 247,472.7 " fill="none" id="phantom_resource-backto-quota" style="stroke:#A80036;stroke-width:1.0;"/><polygon fill="none" points="240,372.18,247,352.18,254,372.18,240,372.18" style="stroke:#A80036;stroke-width:1.0;"/><!--MD5=[0e0472fa43197d825a16ca381a191ca5]
reverse link aws_resource to aws_ec2_instance_type--><path codeLine="42" d="M74.73,955.62 C81.82,995.97 91.52,1051.09 96.93,1081.84 " fill="none" id="aws_resource-backto-aws_ec2_instance_type" style="stroke:#A80036;stroke-width:1.0;"/><polygon fill="none" points="67.81,956.7,71.24,935.79,81.6,954.28,67.81,956.7" style="stroke:#A80036;stroke-width:1.0;"/><!--MD5=[fb4efaee94f4b55287687ecf73c4a481]
reverse link instance_type to aws_ec2_instance_type--><path codeLine="43" d="M194.49,977.57 C167.54,1014.3 136.54,1056.56 117.88,1082 " fill="none" id="instance_type-backto-aws_ec2_instance_type" style="stroke:#A80036;stroke-width:1.0;"/><polygon fill="none" points="189.05,973.15,206.52,961.17,200.34,981.43,189.05,973.15" style="stroke:#A80036;stroke-width:1.0;"/><!--MD5=[d6250deb9c9874fb26db8e3471ed42be]
@startuml
skinparam backgroundcolor transparent
class phantom_resource {

}
class resource {
+ id: string
+ tags: dictionary[string, string]
+ name: string
+ ctime: datetime
+ age: trafo.duration_to_datetime
+ mtime: datetime
+ last_update: trafo.duration_to_datetime
+ atime: datetime
+ last_access: trafo.duration_to_datetime
+ kind: string
}
class aws_resource {
+ arn: string
}
class instance_type {
+ instance_type: string
+ instance_cores: double
+ instance_memory: double
+ ondemand_cost: double
+ reservations: int64
}
class type {

}
class quota {
+ quota: double
+ usage: double
+ quota_type: string
}
class aws_ec2_instance_type {

}
resource <|- - - phantom_resource
type <|- - - instance_type
quota <|- - - type
phantom_resource <|- - - quota
aws_resource <|- - - aws_ec2_instance_type
instance_type <|- - - aws_ec2_instance_type
@enduml

PlantUML version 1.2021.16(Wed Dec 08 17:25:22 UTC 2021)
(GPL source distribution)
Java Runtime: OpenJDK Runtime Environment
JVM: OpenJDK 64-Bit Server VM
Default Encoding: UTF-8
Language: en
Country: null
--></g></svg>