<svg xmlns="http://www.w3.org/2000/svg" xmlns:xlink="http://www.w3.org/1999/xlink" width="426" height="545" contentScriptType="application/ecmascript" contentStyleType="text/css" style="width:426px;height:545px;background:#00000000" preserveAspectRatio="none" version="1.1" viewBox="0 0 426 545" zoomAndPan="magnify"><defs><filter id="f56grw7zi7c6u" width="300%" height="300%" x="-1" y="-1"><feGaussianBlur result="blurOut" stdDeviation="2"/><feColorMatrix in="blurOut" result="blurOut2" type="matrix" values="0 0 0 0 0 0 0 0 0 0 0 0 0 0 0 0 0 0 .4 0"/><feOffset dx="4" dy="4" in="blurOut2" result="blurOut3"/><feBlend in="SourceGraphic" in2="blurOut3" mode="normal"/></filter></defs><g><rect id="resource" width="252" height="176.047" x="7" y="7" fill="#FEFECE" codeLine="2" filter="url(#f56grw7zi7c6u)" style="stroke:#a80036;stroke-width:1.5"/><ellipse cx="100.75" cy="23" fill="#ADD1B2" rx="11" ry="11" style="stroke:#a80036;stroke-width:1"/><path fill="#000" d="M103.7188,28.6406 Q103.1406,28.9375 102.5,29.0781 Q101.8594,29.2344 101.1563,29.2344 Q98.6563,29.2344 97.3281,27.5938 Q96.0156,25.9375 96.0156,22.8125 Q96.0156,19.6875 97.3281,18.0313 Q98.6563,16.375 101.1563,16.375 Q101.8594,16.375 102.5,16.5313 Q103.1563,16.6875 103.7188,16.9844 L103.7188,19.7031 Q103.0938,19.125 102.5,18.8594 Q101.9063,18.5781 101.2813,18.5781 Q99.9375,18.5781 99.25,19.6563 Q98.5625,20.7188 98.5625,22.8125 Q98.5625,24.9063 99.25,25.9844 Q99.9375,27.0469 101.2813,27.0469 Q101.9063,27.0469 102.5,26.7813 Q103.0938,26.5 103.7188,25.9219 L103.7188,28.6406 Z"/><text x="121.25" y="27.154" fill="#000" font-family="sans-serif" font-size="12" lengthAdjust="spacing" textLength="56">resource</text><line style="stroke:#a80036;stroke-width:1.5" x1="8" x2="258" y1="39" y2="39"/><ellipse cx="18" cy="50" rx="3" ry="3" style="stroke:#038048;stroke-width:1;fill:none"/><text x="27" y="53.21" fill="#000" font-family="sans-serif" font-size="11" lengthAdjust="spacing" textLength="51">id: string</text><ellipse cx="18" cy="62.805" rx="3" ry="3" style="stroke:#038048;stroke-width:1;fill:none"/><text x="27" y="66.015" fill="#000" font-family="sans-serif" font-size="11" lengthAdjust="spacing" textLength="170">tags: dictionary[string, string]</text><ellipse cx="18" cy="75.609" rx="3" ry="3" style="stroke:#038048;stroke-width:1;fill:none"/><text x="27" y="78.82" fill="#000" font-family="sans-serif" font-size="11" lengthAdjust="spacing" textLength="73">name: string</text><ellipse cx="18" cy="88.414" rx="3" ry="3" style="stroke:#038048;stroke-width:1;fill:none"/><text x="27" y="91.624" fill="#000" font-family="sans-serif" font-size="11" lengthAdjust="spacing" textLength="89">ctime: datetime</text><ellipse cx="18" cy="101.219" rx="3" ry="3" style="stroke:#038048;stroke-width:1;fill:none"/><text x="27" y="104.429" fill="#000" font-family="sans-serif" font-size="11" lengthAdjust="spacing" textLength="180">age: trafo.duration_to_datetime</text><ellipse cx="18" cy="114.023" rx="3" ry="3" style="stroke:#038048;stroke-width:1;fill:none"/><text x="27" y="117.234" fill="#000" font-family="sans-serif" font-size="11" lengthAdjust="spacing" textLength="94">mtime: datetime</text><ellipse cx="18" cy="126.828" rx="3" ry="3" style="stroke:#038048;stroke-width:1;fill:none"/><text x="27" y="130.039" fill="#000" font-family="sans-serif" font-size="11" lengthAdjust="spacing" textLength="225">last_update: trafo.duration_to_datetime</text><ellipse cx="18" cy="139.633" rx="3" ry="3" style="stroke:#038048;stroke-width:1;fill:none"/><text x="27" y="142.843" fill="#000" font-family="sans-serif" font-size="11" lengthAdjust="spacing" textLength="90">atime: datetime</text><ellipse cx="18" cy="152.438" rx="3" ry="3" style="stroke:#038048;stroke-width:1;fill:none"/><text x="27" y="155.648" fill="#000" font-family="sans-serif" font-size="11" lengthAdjust="spacing" textLength="226">last_access: trafo.duration_to_datetime</text><ellipse cx="18" cy="165.242" rx="3" ry="3" style="stroke:#038048;stroke-width:1;fill:none"/><text x="27" y="168.453" fill="#000" font-family="sans-serif" font-size="11" lengthAdjust="spacing" textLength="64">kind: string</text><line style="stroke:#a80036;stroke-width:1.5" x1="8" x2="258" y1="175.047" y2="175.047"/><rect id="aws_resource" width="118" height="60.805" x="294" y="64.5" fill="#FEFECE" codeLine="14" filter="url(#f56grw7zi7c6u)" style="stroke:#a80036;stroke-width:1.5"/><ellipse cx="309" cy="80.5" fill="#ADD1B2" rx="11" ry="11" style="stroke:#a80036;stroke-width:1"/><path fill="#000" d="M311.9688,86.1406 Q311.3906,86.4375 310.75,86.5781 Q310.1094,86.7344 309.4063,86.7344 Q306.9063,86.7344 305.5781,85.0938 Q304.2656,83.4375 304.2656,80.3125 Q304.2656,77.1875 305.5781,75.5313 Q306.9063,73.875 309.4063,73.875 Q310.1094,73.875 310.75,74.0313 Q311.4063,74.1875 311.9688,74.4844 L311.9688,77.2031 Q311.3438,76.625 310.75,76.3594 Q310.1563,76.0781 309.5313,76.0781 Q308.1875,76.0781 307.5,77.1563 Q306.8125,78.2188 306.8125,80.3125 Q306.8125,82.4063 307.5,83.4844 Q308.1875,84.5469 309.5313,84.5469 Q310.1563,84.5469 310.75,84.2813 Q311.3438,84 311.9688,83.4219 L311.9688,86.1406 Z"/><text x="323" y="84.654" fill="#000" font-family="sans-serif" font-size="12" lengthAdjust="spacing" textLength="86">aws_resource</text><line style="stroke:#a80036;stroke-width:1.5" x1="295" x2="411" y1="96.5" y2="96.5"/><ellipse cx="305" cy="107.5" rx="3" ry="3" style="stroke:#038048;stroke-width:1;fill:none"/><text x="314" y="110.71" fill="#000" font-family="sans-serif" font-size="11" lengthAdjust="spacing" textLength="60">arn: string</text><line style="stroke:#a80036;stroke-width:1.5" x1="295" x2="411" y1="117.305" y2="117.305"/><rect id="aws_cloudwatch_alarm" width="202" height="227.266" x="142" y="304" fill="#FEFECE" codeLine="17" filter="url(#f56grw7zi7c6u)" style="stroke:#a80036;stroke-width:1.5"/><ellipse cx="169.6" cy="320" fill="#ADD1B2" rx="11" ry="11" style="stroke:#a80036;stroke-width:1"/><path fill="#000" d="M172.5688,325.6406 Q171.9906,325.9375 171.35,326.0781 Q170.7094,326.2344 170.0063,326.2344 Q167.5063,326.2344 166.1781,324.5938 Q164.8656,322.9375 164.8656,319.8125 Q164.8656,316.6875 166.1781,315.0313 Q167.5063,313.375 170.0063,313.375 Q170.7094,313.375 171.35,313.5313 Q172.0063,313.6875 172.5688,313.9844 L172.5688,316.7031 Q171.9438,316.125 171.35,315.8594 Q170.7563,315.5781 170.1313,315.5781 Q168.7875,315.5781 168.1,316.6563 Q167.4125,317.7188 167.4125,319.8125 Q167.4125,321.9063 168.1,322.9844 Q168.7875,324.0469 170.1313,324.0469 Q170.7563,324.0469 171.35,323.7813 Q171.9438,323.5 172.5688,322.9219 L172.5688,325.6406 Z"/><text x="186.4" y="324.154" fill="#000" font-family="sans-serif" font-size="12" lengthAdjust="spacing" textLength="142">aws_cloudwatch_alarm</text><line style="stroke:#a80036;stroke-width:1.5" x1="143" x2="343" y1="336" y2="336"/><ellipse cx="153" cy="347" rx="3" ry="3" style="stroke:#038048;stroke-width:1;fill:none"/><text x="162" y="350.21" fill="#000" font-family="sans-serif" font-size="11" lengthAdjust="spacing" textLength="145">actions_enabled: boolean</text><ellipse cx="153" cy="359.805" rx="3" ry="3" style="stroke:#038048;stroke-width:1;fill:none"/><text x="162" y="363.015" fill="#000" font-family="sans-serif" font-size="11" lengthAdjust="spacing" textLength="143">alarm_description: string</text><ellipse cx="153" cy="372.609" rx="3" ry="3" style="stroke:#038048;stroke-width:1;fill:none"/><text x="162" y="375.82" fill="#000" font-family="sans-serif" font-size="11" lengthAdjust="spacing" textLength="116">alarm_actions: any[]</text><ellipse cx="153" cy="385.414" rx="3" ry="3" style="stroke:#038048;stroke-width:1;fill:none"/><text x="162" y="388.625" fill="#000" font-family="sans-serif" font-size="11" lengthAdjust="spacing" textLength="163">comparison_operator: string</text><ellipse cx="153" cy="398.219" rx="3" ry="3" style="stroke:#038048;stroke-width:1;fill:none"/><text x="162" y="401.429" fill="#000" font-family="sans-serif" font-size="11" lengthAdjust="spacing" textLength="102">dimensions: any[]</text><ellipse cx="153" cy="411.023" rx="3" ry="3" style="stroke:#038048;stroke-width:1;fill:none"/><text x="162" y="414.234" fill="#000" font-family="sans-serif" font-size="11" lengthAdjust="spacing" textLength="143">evaluation_periods: int64</text><ellipse cx="153" cy="423.828" rx="3" ry="3" style="stroke:#038048;stroke-width:1;fill:none"/><text x="162" y="427.039" fill="#000" font-family="sans-serif" font-size="11" lengthAdjust="spacing" textLength="176">insufficient_data_actions: any[]</text><ellipse cx="153" cy="436.633" rx="3" ry="3" style="stroke:#038048;stroke-width:1;fill:none"/><text x="162" y="439.843" fill="#000" font-family="sans-serif" font-size="11" lengthAdjust="spacing" textLength="115">metric_name: string</text><ellipse cx="153" cy="449.438" rx="3" ry="3" style="stroke:#038048;stroke-width:1;fill:none"/><text x="162" y="452.648" fill="#000" font-family="sans-serif" font-size="11" lengthAdjust="spacing" textLength="107">namespace: string</text><ellipse cx="153" cy="462.242" rx="3" ry="3" style="stroke:#038048;stroke-width:1;fill:none"/><text x="162" y="465.453" fill="#000" font-family="sans-serif" font-size="11" lengthAdjust="spacing" textLength="96">ok_actions: any[]</text><ellipse cx="153" cy="475.047" rx="3" ry="3" style="stroke:#038048;stroke-width:1;fill:none"/><text x="162" y="478.257" fill="#000" font-family="sans-serif" font-size="11" lengthAdjust="spacing" textLength="72">period: int64</text><ellipse cx="153" cy="487.852" rx="3" ry="3" style="stroke:#038048;stroke-width:1;fill:none"/><text x="162" y="491.062" fill="#000" font-family="sans-serif" font-size="11" lengthAdjust="spacing" textLength="106">state_value: string</text><ellipse cx="153" cy="500.656" rx="3" ry="3" style="stroke:#038048;stroke-width:1;fill:none"/><text x="162" y="503.867" fill="#000" font-family="sans-serif" font-size="11" lengthAdjust="spacing" textLength="86">statistic: string</text><ellipse cx="153" cy="513.461" rx="3" ry="3" style="stroke:#038048;stroke-width:1;fill:none"/><text x="162" y="516.671" fill="#000" font-family="sans-serif" font-size="11" lengthAdjust="spacing" textLength="100">threshold: double</text><line style="stroke:#a80036;stroke-width:1.5" x1="143" x2="343" y1="523.266" y2="523.266"/><path id="aws_resource-backto-aws_cloudwatch_alarm" fill="none" d="M336.26,144.76 C321.82,186.86 300.38,249.31 281.7,303.73" codeLine="33" style="stroke:#a80036;stroke-width:1"/><polygon fill="none" points="329.74 142.22 342.85 125.58 342.98 146.77 329.74 142.22" style="stroke:#a80036;stroke-width:1"/><path id="resource-backto-aws_cloudwatch_alarm" fill="none" d="M169.52,202.4 C180.68,234.93 193,270.81 204.3,303.75" codeLine="34" style="stroke:#a80036;stroke-width:1"/><polygon fill="none" points="162.78 204.34 162.91 183.15 176.03 199.8 162.78 204.34" style="stroke:#a80036;stroke-width:1"/></g></svg>