<svg xmlns="http://www.w3.org/2000/svg" xmlns:xlink="http://www.w3.org/1999/xlink" width="423" height="719" contentScriptType="application/ecmascript" contentStyleType="text/css" style="width:423px;height:719px;background:#00000000" preserveAspectRatio="none" version="1.1" viewBox="0 0 423 719" zoomAndPan="magnify"><g><rect id="resource" width="256" height="275.836" x="7" y="7" fill="#194875" codeLine="17" rx="2.5" ry="2.5" style="stroke:#000;stroke-width:1.5"/><ellipse cx="90.25" cy="26.895" fill="#1A83AF" rx="11" ry="11" style="stroke:#000;stroke-width:1"/><path fill="#000" d="M93.2188,32.5352 Q92.6406,32.832 92,32.9727 Q91.3594,33.1289 90.6563,33.1289 Q88.1563,33.1289 86.8281,31.4883 Q85.5156,29.832 85.5156,26.707 Q85.5156,23.582 86.8281,21.9258 Q88.1563,20.2695 90.6563,20.2695 Q91.3594,20.2695 92,20.4258 Q92.6563,20.582 93.2188,20.8789 L93.2188,23.5977 Q92.5938,23.0195 92,22.7539 Q91.4063,22.4727 90.7813,22.4727 Q89.4375,22.4727 88.75,23.5508 Q88.0625,24.6133 88.0625,26.707 Q88.0625,28.8008 88.75,29.8789 Q89.4375,30.9414 90.7813,30.9414 Q91.4063,30.9414 92,30.6758 Q92.5938,30.3945 93.2188,29.8164 L93.2188,32.5352 Z"/><text x="115.75" y="32.78" fill="#FFE797" font-family="Helvetica" font-size="17" lengthAdjust="spacing" textLength="71">resource</text><line style="stroke:#000;stroke-width:1.5" x1="8" x2="262" y1="46.789" y2="46.789"/><text x="18" y="65.999" fill="#FFE797" font-family="sans-serif" font-size="11" font-weight="bold" lengthAdjust="spacing" textLength="12">id</text><text x="30" y="65.999" fill="#FFE797" font-family="sans-serif" font-size="11" lengthAdjust="spacing" textLength="41">: string</text><text x="18" y="88.804" fill="#FFE797" font-family="sans-serif" font-size="11" font-weight="bold" lengthAdjust="spacing" textLength="28">tags</text><text x="46" y="88.804" fill="#FFE797" font-family="sans-serif" font-size="11" lengthAdjust="spacing" textLength="145">: dictionary[string, string]</text><text x="18" y="111.609" fill="#FFE797" font-family="sans-serif" font-size="11" font-weight="bold" lengthAdjust="spacing" textLength="35">name</text><text x="53" y="111.609" fill="#FFE797" font-family="sans-serif" font-size="11" lengthAdjust="spacing" textLength="41">: string</text><text x="18" y="134.414" fill="#FFE797" font-family="sans-serif" font-size="11" font-weight="bold" lengthAdjust="spacing" textLength="35">ctime</text><text x="53" y="134.414" fill="#FFE797" font-family="sans-serif" font-size="11" lengthAdjust="spacing" textLength="58">: datetime</text><text x="18" y="157.218" fill="#FFE797" font-family="sans-serif" font-size="11" font-weight="bold" lengthAdjust="spacing" textLength="24">age</text><text x="42" y="157.218" fill="#FFE797" font-family="sans-serif" font-size="11" lengthAdjust="spacing" textLength="159">: trafo.duration_to_datetime</text><text x="18" y="180.023" fill="#FFE797" font-family="sans-serif" font-size="11" font-weight="bold" lengthAdjust="spacing" textLength="39">mtime</text><text x="57" y="180.023" fill="#FFE797" font-family="sans-serif" font-size="11" lengthAdjust="spacing" textLength="58">: datetime</text><text x="18" y="202.828" fill="#FFE797" font-family="sans-serif" font-size="11" font-weight="bold" lengthAdjust="spacing" textLength="75">last_update</text><text x="93" y="202.828" fill="#FFE797" font-family="sans-serif" font-size="11" lengthAdjust="spacing" textLength="159">: trafo.duration_to_datetime</text><text x="18" y="225.632" fill="#FFE797" font-family="sans-serif" font-size="11" font-weight="bold" lengthAdjust="spacing" textLength="36">atime</text><text x="54" y="225.632" fill="#FFE797" font-family="sans-serif" font-size="11" lengthAdjust="spacing" textLength="58">: datetime</text><text x="18" y="248.437" fill="#FFE797" font-family="sans-serif" font-size="11" font-weight="bold" lengthAdjust="spacing" textLength="74">last_access</text><text x="92" y="248.437" fill="#FFE797" font-family="sans-serif" font-size="11" lengthAdjust="spacing" textLength="159">: trafo.duration_to_datetime</text><text x="18" y="271.242" fill="#FFE797" font-family="sans-serif" font-size="11" font-weight="bold" lengthAdjust="spacing" textLength="27">kind</text><text x="45" y="271.242" fill="#FFE797" font-family="sans-serif" font-size="11" lengthAdjust="spacing" textLength="41">: string</text><rect id="aws_resource" width="155" height="70.594" x="260.5" y="404" fill="#194875" codeLine="29" rx="2.5" ry="2.5" style="stroke:#000;stroke-width:1.5"/><ellipse cx="275.5" cy="423.894" fill="#1A83AF" rx="11" ry="11" style="stroke:#000;stroke-width:1"/><path fill="#000" d="M278.4688,429.5352 Q277.8906,429.832 277.25,429.9727 Q276.6094,430.1289 275.9063,430.1289 Q273.4063,430.1289 272.0781,428.4883 Q270.7656,426.832 270.7656,423.707 Q270.7656,420.582 272.0781,418.9258 Q273.4063,417.2695 275.9063,417.2695 Q276.6094,417.2695 277.25,417.4258 Q277.9063,417.582 278.4688,417.8789 L278.4688,420.5977 Q277.8438,420.0195 277.25,419.7539 Q276.6563,419.4727 276.0313,419.4727 Q274.6875,419.4727 274,420.5508 Q273.3125,421.6133 273.3125,423.707 Q273.3125,425.8008 274,426.8789 Q274.6875,427.9414 276.0313,427.9414 Q276.6563,427.9414 277.25,427.6758 Q277.8438,427.3945 278.4688,426.8164 L278.4688,429.5352 Z"/><text x="294.5" y="429.78" fill="#FFE797" font-family="Helvetica" font-size="17" lengthAdjust="spacing" textLength="113">aws_resource</text><line style="stroke:#000;stroke-width:1.5" x1="261.5" x2="414.5" y1="443.789" y2="443.789"/><text x="271.5" y="463" fill="#FFE797" font-family="sans-serif" font-size="11" font-weight="bold" lengthAdjust="spacing" textLength="21">arn</text><text x="292.5" y="463" fill="#FFE797" font-family="sans-serif" font-size="11" lengthAdjust="spacing" textLength="41">: string</text><rect id="access_key" width="181" height="70.594" x="44.5" y="404" fill="#194875" codeLine="32" rx="2.5" ry="2.5" style="stroke:#000;stroke-width:1.5"/><ellipse cx="81.1" cy="423.894" fill="#1A83AF" rx="11" ry="11" style="stroke:#000;stroke-width:1"/><path fill="#000" d="M84.0688,429.5352 Q83.4906,429.832 82.85,429.9727 Q82.2094,430.1289 81.5063,430.1289 Q79.0063,430.1289 77.6781,428.4883 Q76.3656,426.832 76.3656,423.707 Q76.3656,420.582 77.6781,418.9258 Q79.0063,417.2695 81.5063,417.2695 Q82.2094,417.2695 82.85,417.4258 Q83.5063,417.582 84.0688,417.8789 L84.0688,420.5977 Q83.4438,420.0195 82.85,419.7539 Q82.2563,419.4727 81.6313,419.4727 Q80.2875,419.4727 79.6,420.5508 Q78.9125,421.6133 78.9125,423.707 Q78.9125,425.8008 79.6,426.8789 Q80.2875,427.9414 81.6313,427.9414 Q82.2563,427.9414 82.85,427.6758 Q83.4438,427.3945 84.0688,426.8164 L84.0688,429.5352 Z"/><text x="104.9" y="429.78" fill="#FFE797" font-family="Helvetica" font-size="17" lengthAdjust="spacing" textLength="91">access_key</text><line style="stroke:#000;stroke-width:1.5" x1="45.5" x2="224.5" y1="443.789" y2="443.789"/><text x="55.5" y="463" fill="#FFE797" font-family="sans-serif" font-size="11" font-weight="bold" lengthAdjust="spacing" textLength="118">access_key_status</text><text x="173.5" y="463" fill="#FFE797" font-family="sans-serif" font-size="11" lengthAdjust="spacing" textLength="41">: string</text><rect id="aws_iam_access_key" width="295" height="116.203" x="121.5" y="596" fill="#194875" codeLine="35" rx="2.5" ry="2.5" style="stroke:#000;stroke-width:1.5"/><ellipse cx="172.75" cy="615.894" fill="#1A83AF" rx="11" ry="11" style="stroke:#000;stroke-width:1"/><path fill="#000" d="M175.7188,621.5352 Q175.1406,621.832 174.5,621.9727 Q173.8594,622.1289 173.1563,622.1289 Q170.6563,622.1289 169.3281,620.4883 Q168.0156,618.832 168.0156,615.707 Q168.0156,612.582 169.3281,610.9258 Q170.6563,609.2695 173.1563,609.2695 Q173.8594,609.2695 174.5,609.4258 Q175.1563,609.582 175.7188,609.8789 L175.7188,612.5977 Q175.0938,612.0195 174.5,611.7539 Q173.9063,611.4727 173.2813,611.4727 Q171.9375,611.4727 171.25,612.5508 Q170.5625,613.6133 170.5625,615.707 Q170.5625,617.8008 171.25,618.8789 Q171.9375,619.9414 173.2813,619.9414 Q173.9063,619.9414 174.5,619.6758 Q175.0938,619.3945 175.7188,618.8164 L175.7188,621.5352 Z"/><text x="198.25" y="621.78" fill="#FFE797" font-family="Helvetica" font-size="17" lengthAdjust="spacing" textLength="174">aws_iam_access_key</text><line style="stroke:#000;stroke-width:1.5" x1="122.5" x2="415.5" y1="635.789" y2="635.789"/><text x="132.5" y="655" fill="#FFE797" font-family="sans-serif" font-size="11" font-weight="bold" lengthAdjust="spacing" textLength="69">user_name</text><text x="201.5" y="655" fill="#FFE797" font-family="sans-serif" font-size="11" lengthAdjust="spacing" textLength="41">: string</text><text x="132.5" y="677.804" fill="#FFE797" font-family="sans-serif" font-size="11" font-weight="bold" lengthAdjust="spacing" textLength="186">access_key_last_used_region</text><text x="318.5" y="677.804" fill="#FFE797" font-family="sans-serif" font-size="11" lengthAdjust="spacing" textLength="41">: string</text><text x="132.5" y="700.609" fill="#FFE797" font-family="sans-serif" font-size="11" font-weight="bold" lengthAdjust="spacing" textLength="232">access_key_last_used_service_name</text><text x="364.5" y="700.609" fill="#FFE797" font-family="sans-serif" font-size="11" lengthAdjust="spacing" textLength="41">: string</text><path id="resource-backto-access_key" fill="none" d="M135,303.43 C135,341.36 135,378.27 135,403.9" codeLine="40" style="stroke:#ffaf37;stroke-width:2"/><polygon fill="none" points="128 303.26 135 283.26 142 303.26 128 303.26" style="stroke:#ffaf37;stroke-width:2"/><path id="aws_resource-backto-aws_iam_access_key" fill="none" d="M320.56,494.22 C310.47,525.29 297.78,564.37 287.51,595.98" codeLine="41" style="stroke:#ffaf37;stroke-width:2"/><polygon fill="none" points="313.93 491.98 326.76 475.11 327.24 496.3 313.93 491.98" style="stroke:#ffaf37;stroke-width:2"/><path id="access_key-backto-aws_iam_access_key" fill="none" d="M167.76,492.45 C187.53,523.8 212.73,563.77 233.05,595.98" codeLine="42" style="stroke:#ffaf37;stroke-width:2"/><polygon fill="none" points="161.57 495.77 156.83 475.11 173.42 488.3 161.57 495.77" style="stroke:#ffaf37;stroke-width:2"/></g></svg>