<?xml version="1.0" encoding="UTF-8" standalone="no"?><svg xmlns="http://www.w3.org/2000/svg" xmlns:xlink="http://www.w3.org/1999/xlink" contentScriptType="application/ecmascript" contentStyleType="text/css" height="560px" preserveAspectRatio="none" style="width:328px;height:560px;background:#00000000;" version="1.1" viewBox="0 0 328 560" width="328px" zoomAndPan="magnify"><defs><filter height="300%" id="frud2wc99j8g5" width="300%" x="-1" y="-1"><feGaussianBlur result="blurOut" stdDeviation="2.0"/><feColorMatrix in="blurOut" result="blurOut2" type="matrix" values="0 0 0 0 0 0 0 0 0 0 0 0 0 0 0 0 0 0 .4 0"/><feOffset dx="4.0" dy="4.0" in="blurOut2" result="blurOut3"/><feBlend in="SourceGraphic" in2="blurOut3" mode="normal"/></filter></defs><g><!--MD5=[7f0ecf5f554433d3f2e1213379ac821c]
class resource--><rect codeLine="2" fill="#FEFECE" filter="url(#frud2wc99j8g5)" height="176.0469" id="resource" style="stroke:#A80036;stroke-width:1.5;" width="252" x="7" y="7"/><ellipse cx="100.75" cy="23" fill="#ADD1B2" rx="11" ry="11" style="stroke:#A80036;stroke-width:1.0;"/><path d="M103.7188,28.6406 Q103.1406,28.9375 102.5,29.0781 Q101.8594,29.2344 101.1563,29.2344 Q98.6563,29.2344 97.3281,27.5938 Q96.0156,25.9375 96.0156,22.8125 Q96.0156,19.6875 97.3281,18.0313 Q98.6563,16.375 101.1563,16.375 Q101.8594,16.375 102.5,16.5313 Q103.1563,16.6875 103.7188,16.9844 L103.7188,19.7031 Q103.0938,19.125 102.5,18.8594 Q101.9063,18.5781 101.2813,18.5781 Q99.9375,18.5781 99.25,19.6563 Q98.5625,20.7188 98.5625,22.8125 Q98.5625,24.9063 99.25,25.9844 Q99.9375,27.0469 101.2813,27.0469 Q101.9063,27.0469 102.5,26.7813 Q103.0938,26.5 103.7188,25.9219 L103.7188,28.6406 Z " fill="#000000"/><text fill="#000000" font-family="sans-serif" font-size="12" lengthAdjust="spacing" textLength="56" x="121.25" y="27.1543">resource</text><line style="stroke:#A80036;stroke-width:1.5;" x1="8" x2="258" y1="39" y2="39"/><ellipse cx="18" cy="50" rx="3" ry="3" style="stroke:#038048;stroke-width:1.0;fill:none;"/><text fill="#000000" font-family="sans-serif" font-size="11" lengthAdjust="spacing" textLength="51" x="27" y="53.2104">id: string</text><ellipse cx="18" cy="62.8047" rx="3" ry="3" style="stroke:#038048;stroke-width:1.0;fill:none;"/><text fill="#000000" font-family="sans-serif" font-size="11" lengthAdjust="spacing" textLength="170" x="27" y="66.0151">tags: dictionary[string, string]</text><ellipse cx="18" cy="75.6094" rx="3" ry="3" style="stroke:#038048;stroke-width:1.0;fill:none;"/><text fill="#000000" font-family="sans-serif" font-size="11" lengthAdjust="spacing" textLength="73" x="27" y="78.8198">name: string</text><ellipse cx="18" cy="88.4141" rx="3" ry="3" style="stroke:#038048;stroke-width:1.0;fill:none;"/><text fill="#000000" font-family="sans-serif" font-size="11" lengthAdjust="spacing" textLength="89" x="27" y="91.6245">ctime: datetime</text><ellipse cx="18" cy="101.2188" rx="3" ry="3" style="stroke:#038048;stroke-width:1.0;fill:none;"/><text fill="#000000" font-family="sans-serif" font-size="11" lengthAdjust="spacing" textLength="180" x="27" y="104.4292">age: trafo.duration_to_datetime</text><ellipse cx="18" cy="114.0234" rx="3" ry="3" style="stroke:#038048;stroke-width:1.0;fill:none;"/><text fill="#000000" font-family="sans-serif" font-size="11" lengthAdjust="spacing" textLength="94" x="27" y="117.2339">mtime: datetime</text><ellipse cx="18" cy="126.8281" rx="3" ry="3" style="stroke:#038048;stroke-width:1.0;fill:none;"/><text fill="#000000" font-family="sans-serif" font-size="11" lengthAdjust="spacing" textLength="225" x="27" y="130.0386">last_update: trafo.duration_to_datetime</text><ellipse cx="18" cy="139.6328" rx="3" ry="3" style="stroke:#038048;stroke-width:1.0;fill:none;"/><text fill="#000000" font-family="sans-serif" font-size="11" lengthAdjust="spacing" textLength="90" x="27" y="142.8433">atime: datetime</text><ellipse cx="18" cy="152.4375" rx="3" ry="3" style="stroke:#038048;stroke-width:1.0;fill:none;"/><text fill="#000000" font-family="sans-serif" font-size="11" lengthAdjust="spacing" textLength="226" x="27" y="155.6479">last_access: trafo.duration_to_datetime</text><ellipse cx="18" cy="165.2422" rx="3" ry="3" style="stroke:#038048;stroke-width:1.0;fill:none;"/><text fill="#000000" font-family="sans-serif" font-size="11" lengthAdjust="spacing" textLength="64" x="27" y="168.4526">kind: string</text><line style="stroke:#A80036;stroke-width:1.5;" x1="8" x2="258" y1="175.0469" y2="175.0469"/><!--MD5=[c069b88079f3e36515859a1683f3923c]
class aws_resource--><rect codeLine="14" fill="#FEFECE" filter="url(#frud2wc99j8g5)" height="60.8047" id="aws_resource" style="stroke:#A80036;stroke-width:1.5;" width="118" x="196" y="304"/><ellipse cx="211" cy="320" fill="#ADD1B2" rx="11" ry="11" style="stroke:#A80036;stroke-width:1.0;"/><path d="M213.9688,325.6406 Q213.3906,325.9375 212.75,326.0781 Q212.1094,326.2344 211.4063,326.2344 Q208.9063,326.2344 207.5781,324.5938 Q206.2656,322.9375 206.2656,319.8125 Q206.2656,316.6875 207.5781,315.0313 Q208.9063,313.375 211.4063,313.375 Q212.1094,313.375 212.75,313.5313 Q213.4063,313.6875 213.9688,313.9844 L213.9688,316.7031 Q213.3438,316.125 212.75,315.8594 Q212.1563,315.5781 211.5313,315.5781 Q210.1875,315.5781 209.5,316.6563 Q208.8125,317.7188 208.8125,319.8125 Q208.8125,321.9063 209.5,322.9844 Q210.1875,324.0469 211.5313,324.0469 Q212.1563,324.0469 212.75,323.7813 Q213.3438,323.5 213.9688,322.9219 L213.9688,325.6406 Z " fill="#000000"/><text fill="#000000" font-family="sans-serif" font-size="12" lengthAdjust="spacing" textLength="86" x="225" y="324.1543">aws_resource</text><line style="stroke:#A80036;stroke-width:1.5;" x1="197" x2="313" y1="336" y2="336"/><ellipse cx="207" cy="347" rx="3" ry="3" style="stroke:#038048;stroke-width:1.0;fill:none;"/><text fill="#000000" font-family="sans-serif" font-size="11" lengthAdjust="spacing" textLength="60" x="216" y="350.2104">arn: string</text><line style="stroke:#A80036;stroke-width:1.5;" x1="197" x2="313" y1="356.8047" y2="356.8047"/><!--MD5=[230c8b93044a8b32754c79e4598c3632]
class role--><rect codeLine="17" fill="#FEFECE" filter="url(#frud2wc99j8g5)" height="48" id="role" style="stroke:#A80036;stroke-width:1.5;" width="56" x="105" y="310.5"/><ellipse cx="120" cy="326.5" fill="#ADD1B2" rx="11" ry="11" style="stroke:#A80036;stroke-width:1.0;"/><path d="M122.9688,332.1406 Q122.3906,332.4375 121.75,332.5781 Q121.1094,332.7344 120.4063,332.7344 Q117.9063,332.7344 116.5781,331.0938 Q115.2656,329.4375 115.2656,326.3125 Q115.2656,323.1875 116.5781,321.5313 Q117.9063,319.875 120.4063,319.875 Q121.1094,319.875 121.75,320.0313 Q122.4063,320.1875 122.9688,320.4844 L122.9688,323.2031 Q122.3438,322.625 121.75,322.3594 Q121.1563,322.0781 120.5313,322.0781 Q119.1875,322.0781 118.5,323.1563 Q117.8125,324.2188 117.8125,326.3125 Q117.8125,328.4063 118.5,329.4844 Q119.1875,330.5469 120.5313,330.5469 Q121.1563,330.5469 121.75,330.2813 Q122.3438,330 122.9688,329.4219 L122.9688,332.1406 Z " fill="#000000"/><text fill="#000000" font-family="sans-serif" font-size="12" lengthAdjust="spacing" textLength="24" x="134" y="330.6543">role</text><line style="stroke:#A80036;stroke-width:1.5;" x1="106" x2="160" y1="342.5" y2="342.5"/><line style="stroke:#A80036;stroke-width:1.5;" x1="106" x2="160" y1="350.5" y2="350.5"/><!--MD5=[dd6f315a6e7ddad885d23d64bcb1b317]
class aws_iam_role--><rect codeLine="20" fill="#FEFECE" filter="url(#frud2wc99j8g5)" height="60.8047" id="aws_iam_role" style="stroke:#A80036;stroke-width:1.5;" width="133" x="139.5" y="486"/><ellipse cx="163.05" cy="502" fill="#ADD1B2" rx="11" ry="11" style="stroke:#A80036;stroke-width:1.0;"/><path d="M166.0188,507.6406 Q165.4406,507.9375 164.8,508.0781 Q164.1594,508.2344 163.4563,508.2344 Q160.9563,508.2344 159.6281,506.5938 Q158.3156,504.9375 158.3156,501.8125 Q158.3156,498.6875 159.6281,497.0313 Q160.9563,495.375 163.4563,495.375 Q164.1594,495.375 164.8,495.5313 Q165.4563,495.6875 166.0188,495.9844 L166.0188,498.7031 Q165.3938,498.125 164.8,497.8594 Q164.2063,497.5781 163.5813,497.5781 Q162.2375,497.5781 161.55,498.6563 Q160.8625,499.7188 160.8625,501.8125 Q160.8625,503.9063 161.55,504.9844 Q162.2375,506.0469 163.5813,506.0469 Q164.2063,506.0469 164.8,505.7813 Q165.3938,505.5 166.0188,504.9219 L166.0188,507.6406 Z " fill="#000000"/><text fill="#000000" font-family="sans-serif" font-size="12" lengthAdjust="spacing" textLength="82" x="178.95" y="506.1543">aws_iam_role</text><line style="stroke:#A80036;stroke-width:1.5;" x1="140.5" x2="271.5" y1="518" y2="518"/><ellipse cx="150.5" cy="529" rx="3" ry="3" style="stroke:#038048;stroke-width:1.0;fill:none;"/><text fill="#000000" font-family="sans-serif" font-size="11" lengthAdjust="spacing" textLength="107" x="159.5" y="532.2104">role_policies: any[]</text><line style="stroke:#A80036;stroke-width:1.5;" x1="140.5" x2="271.5" y1="538.8047" y2="538.8047"/><!--MD5=[5be87921e8b17efea75a6403fe8251f3]
reverse link resource to role--><path codeLine="23" d="M133,203.16 C133,243.25 133,285.12 133,310.25 " fill="none" id="resource-backto-role" style="stroke:#A80036;stroke-width:1.0;"/><polygon fill="none" points="126,203.09,133,183.09,140,203.09,126,203.09" style="stroke:#A80036;stroke-width:1.0;"/><!--MD5=[569879256c1f080f88db824741cc5a87]
reverse link aws_resource to aws_iam_role--><path codeLine="24" d="M241.54,384.94 C232.75,417.25 221.55,458.36 214.1,485.73 " fill="none" id="aws_resource-backto-aws_iam_role" style="stroke:#A80036;stroke-width:1.0;"/><polygon fill="none" points="234.9,382.68,246.91,365.22,248.41,386.36,234.9,382.68" style="stroke:#A80036;stroke-width:1.0;"/><!--MD5=[4bebcd16a81f37fd3fd944c610a4ced3]
reverse link role to aws_iam_role--><path codeLine="25" d="M150.04,377.51 C163.52,410.75 182,456.33 193.98,485.85 " fill="none" id="role-backto-aws_iam_role" style="stroke:#A80036;stroke-width:1.0;"/><polygon fill="none" points="143.42,379.83,142.39,358.66,156.4,374.57,143.42,379.83" style="stroke:#A80036;stroke-width:1.0;"/><!--MD5=[347209d47e8fb8316d246b4ebae60c81]
@startuml
skinparam backgroundcolor transparent
class resource {
+ id: string
+ tags: dictionary[string, string]
+ name: string
+ ctime: datetime
+ age: trafo.duration_to_datetime
+ mtime: datetime
+ last_update: trafo.duration_to_datetime
+ atime: datetime
+ last_access: trafo.duration_to_datetime
+ kind: string
}
class aws_resource {
+ arn: string
}
class role {

}
class aws_iam_role {
+ role_policies: any[]
}
resource <|- - - role
aws_resource <|- - - aws_iam_role
role <|- - - aws_iam_role
@enduml

PlantUML version 1.2021.16(Wed Dec 08 17:25:22 UTC 2021)
(GPL source distribution)
Java Runtime: OpenJDK Runtime Environment
JVM: OpenJDK 64-Bit Server VM
Default Encoding: UTF-8
Language: en
Country: null
--></g></svg>