<?xml version="1.0" encoding="UTF-8" standalone="no"?><svg xmlns="http://www.w3.org/2000/svg" xmlns:xlink="http://www.w3.org/1999/xlink" contentScriptType="application/ecmascript" contentStyleType="text/css" height="641px" preserveAspectRatio="none" style="width:409px;height:641px;background:#00000000;" version="1.1" viewBox="0 0 409 641" width="409px" zoomAndPan="magnify"><defs/><g><!--MD5=[7f0ecf5f554433d3f2e1213379ac821c]
class resource--><rect codeLine="17" fill="#194875" height="275.8359" id="resource" rx="2.5" ry="2.5" style="stroke:#000000;stroke-width:1.5;" width="256" x="7" y="7"/><ellipse cx="90.25" cy="26.8945" fill="#1A83AF" rx="11" ry="11" style="stroke:#000000;stroke-width:1.0;"/><path d="M93.2188,32.5352 Q92.6406,32.832 92,32.9727 Q91.3594,33.1289 90.6563,33.1289 Q88.1563,33.1289 86.8281,31.4883 Q85.5156,29.832 85.5156,26.707 Q85.5156,23.582 86.8281,21.9258 Q88.1563,20.2695 90.6563,20.2695 Q91.3594,20.2695 92,20.4258 Q92.6563,20.582 93.2188,20.8789 L93.2188,23.5977 Q92.5938,23.0195 92,22.7539 Q91.4063,22.4727 90.7813,22.4727 Q89.4375,22.4727 88.75,23.5508 Q88.0625,24.6133 88.0625,26.707 Q88.0625,28.8008 88.75,29.8789 Q89.4375,30.9414 90.7813,30.9414 Q91.4063,30.9414 92,30.6758 Q92.5938,30.3945 93.2188,29.8164 L93.2188,32.5352 Z " fill="#000000"/><text fill="#FFE797" font-family="Helvetica" font-size="17" lengthAdjust="spacing" textLength="71" x="115.75" y="32.7798">resource</text><line style="stroke:#000000;stroke-width:1.5;" x1="8" x2="262" y1="46.7891" y2="46.7891"/><text fill="#FFE797" font-family="sans-serif" font-size="11" font-weight="bold" lengthAdjust="spacing" textLength="12" x="18" y="65.9995">id</text><text fill="#FFE797" font-family="sans-serif" font-size="11" lengthAdjust="spacing" textLength="41" x="30" y="65.9995">: string</text><text fill="#FFE797" font-family="sans-serif" font-size="11" font-weight="bold" lengthAdjust="spacing" textLength="28" x="18" y="88.8042">tags</text><text fill="#FFE797" font-family="sans-serif" font-size="11" lengthAdjust="spacing" textLength="145" x="46" y="88.8042">: dictionary[string, string]</text><text fill="#FFE797" font-family="sans-serif" font-size="11" font-weight="bold" lengthAdjust="spacing" textLength="35" x="18" y="111.6089">name</text><text fill="#FFE797" font-family="sans-serif" font-size="11" lengthAdjust="spacing" textLength="41" x="53" y="111.6089">: string</text><text fill="#FFE797" font-family="sans-serif" font-size="11" font-weight="bold" lengthAdjust="spacing" textLength="35" x="18" y="134.4136">ctime</text><text fill="#FFE797" font-family="sans-serif" font-size="11" lengthAdjust="spacing" textLength="58" x="53" y="134.4136">: datetime</text><text fill="#FFE797" font-family="sans-serif" font-size="11" font-weight="bold" lengthAdjust="spacing" textLength="24" x="18" y="157.2183">age</text><text fill="#FFE797" font-family="sans-serif" font-size="11" lengthAdjust="spacing" textLength="159" x="42" y="157.2183">: trafo.duration_to_datetime</text><text fill="#FFE797" font-family="sans-serif" font-size="11" font-weight="bold" lengthAdjust="spacing" textLength="39" x="18" y="180.0229">mtime</text><text fill="#FFE797" font-family="sans-serif" font-size="11" lengthAdjust="spacing" textLength="58" x="57" y="180.0229">: datetime</text><text fill="#FFE797" font-family="sans-serif" font-size="11" font-weight="bold" lengthAdjust="spacing" textLength="75" x="18" y="202.8276">last_update</text><text fill="#FFE797" font-family="sans-serif" font-size="11" lengthAdjust="spacing" textLength="159" x="93" y="202.8276">: trafo.duration_to_datetime</text><text fill="#FFE797" font-family="sans-serif" font-size="11" font-weight="bold" lengthAdjust="spacing" textLength="36" x="18" y="225.6323">atime</text><text fill="#FFE797" font-family="sans-serif" font-size="11" lengthAdjust="spacing" textLength="58" x="54" y="225.6323">: datetime</text><text fill="#FFE797" font-family="sans-serif" font-size="11" font-weight="bold" lengthAdjust="spacing" textLength="74" x="18" y="248.437">last_access</text><text fill="#FFE797" font-family="sans-serif" font-size="11" lengthAdjust="spacing" textLength="159" x="92" y="248.437">: trafo.duration_to_datetime</text><text fill="#FFE797" font-family="sans-serif" font-size="11" font-weight="bold" lengthAdjust="spacing" textLength="27" x="18" y="271.2417">kind</text><text fill="#FFE797" font-family="sans-serif" font-size="11" lengthAdjust="spacing" textLength="41" x="45" y="271.2417">: string</text><!--MD5=[c069b88079f3e36515859a1683f3923c]
class aws_resource--><rect codeLine="29" fill="#194875" height="70.5938" id="aws_resource" rx="2.5" ry="2.5" style="stroke:#000000;stroke-width:1.5;" width="155" x="247.5" y="404"/><ellipse cx="262.5" cy="423.8945" fill="#1A83AF" rx="11" ry="11" style="stroke:#000000;stroke-width:1.0;"/><path d="M265.4688,429.5352 Q264.8906,429.832 264.25,429.9727 Q263.6094,430.1289 262.9063,430.1289 Q260.4063,430.1289 259.0781,428.4883 Q257.7656,426.832 257.7656,423.707 Q257.7656,420.582 259.0781,418.9258 Q260.4063,417.2695 262.9063,417.2695 Q263.6094,417.2695 264.25,417.4258 Q264.9063,417.582 265.4688,417.8789 L265.4688,420.5977 Q264.8438,420.0195 264.25,419.7539 Q263.6563,419.4727 263.0313,419.4727 Q261.6875,419.4727 261,420.5508 Q260.3125,421.6133 260.3125,423.707 Q260.3125,425.8008 261,426.8789 Q261.6875,427.9414 263.0313,427.9414 Q263.6563,427.9414 264.25,427.6758 Q264.8438,427.3945 265.4688,426.8164 L265.4688,429.5352 Z " fill="#000000"/><text fill="#FFE797" font-family="Helvetica" font-size="17" lengthAdjust="spacing" textLength="113" x="281.5" y="429.7798">aws_resource</text><line style="stroke:#000000;stroke-width:1.5;" x1="248.5" x2="401.5" y1="443.7891" y2="443.7891"/><text fill="#FFE797" font-family="sans-serif" font-size="11" font-weight="bold" lengthAdjust="spacing" textLength="21" x="258.5" y="462.9995">arn</text><text fill="#FFE797" font-family="sans-serif" font-size="11" lengthAdjust="spacing" textLength="41" x="279.5" y="462.9995">: string</text><!--MD5=[0ca4c0c08df495157b5146adab33575e]
class aws_ec2_route_table--><rect codeLine="32" fill="#194875" height="39.7891" id="aws_ec2_route_table" rx="2.5" ry="2.5" style="stroke:#000000;stroke-width:1.5;" width="218" x="121" y="596"/><ellipse cx="136" cy="615.8945" fill="#1A83AF" rx="11" ry="11" style="stroke:#000000;stroke-width:1.0;"/><path d="M138.9688,621.5352 Q138.3906,621.832 137.75,621.9727 Q137.1094,622.1289 136.4063,622.1289 Q133.9063,622.1289 132.5781,620.4883 Q131.2656,618.832 131.2656,615.707 Q131.2656,612.582 132.5781,610.9258 Q133.9063,609.2695 136.4063,609.2695 Q137.1094,609.2695 137.75,609.4258 Q138.4063,609.582 138.9688,609.8789 L138.9688,612.5977 Q138.3438,612.0195 137.75,611.7539 Q137.1563,611.4727 136.5313,611.4727 Q135.1875,611.4727 134.5,612.5508 Q133.8125,613.6133 133.8125,615.707 Q133.8125,617.8008 134.5,618.8789 Q135.1875,619.9414 136.5313,619.9414 Q137.1563,619.9414 137.75,619.6758 Q138.3438,619.3945 138.9688,618.8164 L138.9688,621.5352 Z " fill="#000000"/><text fill="#FFE797" font-family="Helvetica" font-size="17" lengthAdjust="spacing" textLength="176" x="155" y="621.7798">aws_ec2_route_table</text><!--MD5=[e1fcb9ef0bcdacf26bb409b7cd3fa329]
class routing_table--><rect codeLine="35" fill="#194875" height="39.7891" id="routing_table" rx="2.5" ry="2.5" style="stroke:#000000;stroke-width:1.5;" width="154" x="58" y="419.5"/><ellipse cx="73" cy="439.3945" fill="#1A83AF" rx="11" ry="11" style="stroke:#000000;stroke-width:1.0;"/><path d="M75.9688,445.0352 Q75.3906,445.332 74.75,445.4727 Q74.1094,445.6289 73.4063,445.6289 Q70.9063,445.6289 69.5781,443.9883 Q68.2656,442.332 68.2656,439.207 Q68.2656,436.082 69.5781,434.4258 Q70.9063,432.7695 73.4063,432.7695 Q74.1094,432.7695 74.75,432.9258 Q75.4063,433.082 75.9688,433.3789 L75.9688,436.0977 Q75.3438,435.5195 74.75,435.2539 Q74.1563,434.9727 73.5313,434.9727 Q72.1875,434.9727 71.5,436.0508 Q70.8125,437.1133 70.8125,439.207 Q70.8125,441.3008 71.5,442.3789 Q72.1875,443.4414 73.5313,443.4414 Q74.1563,443.4414 74.75,443.1758 Q75.3438,442.8945 75.9688,442.3164 L75.9688,445.0352 Z " fill="#000000"/><text fill="#FFE797" font-family="Helvetica" font-size="17" lengthAdjust="spacing" textLength="112" x="92" y="445.2798">routing_table</text><!--MD5=[70924e74142d087ede5ffb386f58e79a]
reverse link aws_resource to aws_ec2_route_table--><path codeLine="38" d="M296.36,493.11 C277.46,527.83 253.79,571.29 240.44,595.82 " fill="none" id="aws_resource-backto-aws_ec2_route_table" style="stroke:#FFAF37;stroke-width:2.0;"/><polygon fill="none" points="290.29,489.61,306,475.39,302.59,496.31,290.29,489.61" style="stroke:#FFAF37;stroke-width:2.0;"/><!--MD5=[749d5c5c52494301b8e4a1e5a0789711]
reverse link routing_table to aws_ec2_route_table--><path codeLine="39" d="M155.16,477.54 C174.86,513.72 204.06,567.36 219.52,595.75 " fill="none" id="routing_table-backto-aws_ec2_route_table" style="stroke:#FFAF37;stroke-width:2.0;"/><polygon fill="none" points="148.76,480.42,145.35,459.51,161.06,473.73,148.76,480.42" style="stroke:#FFAF37;stroke-width:2.0;"/><!--MD5=[1c66a84217d20960a8e0598d4767e0bd]
reverse link resource to routing_table--><path codeLine="40" d="M135,303.51 C135,349.86 135,394.69 135,419.24 " fill="none" id="resource-backto-routing_table" style="stroke:#FFAF37;stroke-width:2.0;"/><polygon fill="none" points="128,303.26,135,283.26,142,303.26,128,303.26" style="stroke:#FFAF37;stroke-width:2.0;"/><!--MD5=[e03bb23937b127e5b7004ff6b8d81a68]
@startuml
hide empty members
skinparam ArrowColor #ffaf37
skinparam ArrowThickness 2
skinparam BackgroundColor transparent
skinparam ClassAttributeFontColor #ffe797
skinparam ClassBackgroundColor #194875
skinparam ClassBorderColor Black
skinparam ClassFontColor #ffe797
skinparam ClassFontName Helvetica
skinparam ClassFontSize 17
skinparam Padding 5
skinparam RoundCorner 5
skinparam Shadowing false
skinparam stereotypeCBackgroundColor #1a83af
skinparam stereotypeIBackgroundColor #1a83af

class resource {
**id**: string
**tags**: dictionary[string, string]
**name**: string
**ctime**: datetime
**age**: trafo.duration_to_datetime
**mtime**: datetime
**last_update**: trafo.duration_to_datetime
**atime**: datetime
**last_access**: trafo.duration_to_datetime
**kind**: string
}
class aws_resource {
**arn**: string
}
class aws_ec2_route_table {

}
class routing_table {

}
aws_resource <|- - - aws_ec2_route_table
routing_table <|- - - aws_ec2_route_table
resource <|- - - routing_table
@enduml

PlantUML version 1.2021.16(Wed Dec 08 17:25:22 UTC 2021)
(GPL source distribution)
Java Runtime: OpenJDK Runtime Environment
JVM: OpenJDK 64-Bit Server VM
Default Encoding: UTF-8
Language: en
Country: null
--></g></svg>