<svg xmlns="http://www.w3.org/2000/svg" xmlns:xlink="http://www.w3.org/1999/xlink" width="469" height="1039" contentScriptType="application/ecmascript" contentStyleType="text/css" style="width:469px;height:1039px;background:#00000000" preserveAspectRatio="none" version="1.1" viewBox="0 0 469 1039" zoomAndPan="magnify"><g><rect id="phantom_resource" width="198" height="39.789" x="235" y="404" fill="#194875" codeLine="17" rx="2.5" ry="2.5" style="stroke:#000;stroke-width:1.5"/><ellipse cx="250" cy="423.894" fill="#1A83AF" rx="11" ry="11" style="stroke:#000;stroke-width:1"/><path fill="#000" d="M252.9688,429.5352 Q252.3906,429.832 251.75,429.9727 Q251.1094,430.1289 250.4063,430.1289 Q247.9063,430.1289 246.5781,428.4883 Q245.2656,426.832 245.2656,423.707 Q245.2656,420.582 246.5781,418.9258 Q247.9063,417.2695 250.4063,417.2695 Q251.1094,417.2695 251.75,417.4258 Q252.4063,417.582 252.9688,417.8789 L252.9688,420.5977 Q252.3438,420.0195 251.75,419.7539 Q251.1563,419.4727 250.5313,419.4727 Q249.1875,419.4727 248.5,420.5508 Q247.8125,421.6133 247.8125,423.707 Q247.8125,425.8008 248.5,426.8789 Q249.1875,427.9414 250.5313,427.9414 Q251.1563,427.9414 251.75,427.6758 Q252.3438,427.3945 252.9688,426.8164 L252.9688,429.5352 Z"/><text x="269" y="429.78" fill="#FFE797" font-family="Helvetica" font-size="17" lengthAdjust="spacing" textLength="156">phantom_resource</text><rect id="resource" width="256" height="275.836" x="206" y="7" fill="#194875" codeLine="20" rx="2.5" ry="2.5" style="stroke:#000;stroke-width:1.5"/><ellipse cx="289.25" cy="26.895" fill="#1A83AF" rx="11" ry="11" style="stroke:#000;stroke-width:1"/><path fill="#000" d="M292.2188,32.5352 Q291.6406,32.832 291,32.9727 Q290.3594,33.1289 289.6563,33.1289 Q287.1563,33.1289 285.8281,31.4883 Q284.5156,29.832 284.5156,26.707 Q284.5156,23.582 285.8281,21.9258 Q287.1563,20.2695 289.6563,20.2695 Q290.3594,20.2695 291,20.4258 Q291.6563,20.582 292.2188,20.8789 L292.2188,23.5977 Q291.5938,23.0195 291,22.7539 Q290.4063,22.4727 289.7813,22.4727 Q288.4375,22.4727 287.75,23.5508 Q287.0625,24.6133 287.0625,26.707 Q287.0625,28.8008 287.75,29.8789 Q288.4375,30.9414 289.7813,30.9414 Q290.4063,30.9414 291,30.6758 Q291.5938,30.3945 292.2188,29.8164 L292.2188,32.5352 Z"/><text x="314.75" y="32.78" fill="#FFE797" font-family="Helvetica" font-size="17" lengthAdjust="spacing" textLength="71">resource</text><line style="stroke:#000;stroke-width:1.5" x1="207" x2="461" y1="46.789" y2="46.789"/><text x="217" y="65.999" fill="#FFE797" font-family="sans-serif" font-size="11" font-weight="bold" lengthAdjust="spacing" textLength="12">id</text><text x="229" y="65.999" fill="#FFE797" font-family="sans-serif" font-size="11" lengthAdjust="spacing" textLength="41">: string</text><text x="217" y="88.804" fill="#FFE797" font-family="sans-serif" font-size="11" font-weight="bold" lengthAdjust="spacing" textLength="28">tags</text><text x="245" y="88.804" fill="#FFE797" font-family="sans-serif" font-size="11" lengthAdjust="spacing" textLength="145">: dictionary[string, string]</text><text x="217" y="111.609" fill="#FFE797" font-family="sans-serif" font-size="11" font-weight="bold" lengthAdjust="spacing" textLength="35">name</text><text x="252" y="111.609" fill="#FFE797" font-family="sans-serif" font-size="11" lengthAdjust="spacing" textLength="41">: string</text><text x="217" y="134.414" fill="#FFE797" font-family="sans-serif" font-size="11" font-weight="bold" lengthAdjust="spacing" textLength="35">ctime</text><text x="252" y="134.414" fill="#FFE797" font-family="sans-serif" font-size="11" lengthAdjust="spacing" textLength="58">: datetime</text><text x="217" y="157.218" fill="#FFE797" font-family="sans-serif" font-size="11" font-weight="bold" lengthAdjust="spacing" textLength="24">age</text><text x="241" y="157.218" fill="#FFE797" font-family="sans-serif" font-size="11" lengthAdjust="spacing" textLength="159">: trafo.duration_to_datetime</text><text x="217" y="180.023" fill="#FFE797" font-family="sans-serif" font-size="11" font-weight="bold" lengthAdjust="spacing" textLength="39">mtime</text><text x="256" y="180.023" fill="#FFE797" font-family="sans-serif" font-size="11" lengthAdjust="spacing" textLength="58">: datetime</text><text x="217" y="202.828" fill="#FFE797" font-family="sans-serif" font-size="11" font-weight="bold" lengthAdjust="spacing" textLength="75">last_update</text><text x="292" y="202.828" fill="#FFE797" font-family="sans-serif" font-size="11" lengthAdjust="spacing" textLength="159">: trafo.duration_to_datetime</text><text x="217" y="225.632" fill="#FFE797" font-family="sans-serif" font-size="11" font-weight="bold" lengthAdjust="spacing" textLength="36">atime</text><text x="253" y="225.632" fill="#FFE797" font-family="sans-serif" font-size="11" lengthAdjust="spacing" textLength="58">: datetime</text><text x="217" y="248.437" fill="#FFE797" font-family="sans-serif" font-size="11" font-weight="bold" lengthAdjust="spacing" textLength="74">last_access</text><text x="291" y="248.437" fill="#FFE797" font-family="sans-serif" font-size="11" lengthAdjust="spacing" textLength="159">: trafo.duration_to_datetime</text><text x="217" y="271.242" fill="#FFE797" font-family="sans-serif" font-size="11" font-weight="bold" lengthAdjust="spacing" textLength="27">kind</text><text x="244" y="271.242" fill="#FFE797" font-family="sans-serif" font-size="11" lengthAdjust="spacing" textLength="41">: string</text><rect id="aws_resource" width="155" height="70.594" x="58.5" y="802" fill="#194875" codeLine="32" rx="2.5" ry="2.5" style="stroke:#000;stroke-width:1.5"/><ellipse cx="73.5" cy="821.894" fill="#1A83AF" rx="11" ry="11" style="stroke:#000;stroke-width:1"/><path fill="#000" d="M76.4688,827.5352 Q75.8906,827.832 75.25,827.9727 Q74.6094,828.1289 73.9063,828.1289 Q71.4063,828.1289 70.0781,826.4883 Q68.7656,824.832 68.7656,821.707 Q68.7656,818.582 70.0781,816.9258 Q71.4063,815.2695 73.9063,815.2695 Q74.6094,815.2695 75.25,815.4258 Q75.9063,815.582 76.4688,815.8789 L76.4688,818.5977 Q75.8438,818.0195 75.25,817.7539 Q74.6563,817.4727 74.0313,817.4727 Q72.6875,817.4727 72,818.5508 Q71.3125,819.6133 71.3125,821.707 Q71.3125,823.8008 72,824.8789 Q72.6875,825.9414 74.0313,825.9414 Q74.6563,825.9414 75.25,825.6758 Q75.8438,825.3945 76.4688,824.8164 L76.4688,827.5352 Z"/><text x="92.5" y="827.78" fill="#FFE797" font-family="Helvetica" font-size="17" lengthAdjust="spacing" textLength="113">aws_resource</text><line style="stroke:#000;stroke-width:1.5" x1="59.5" x2="212.5" y1="841.789" y2="841.789"/><text x="69.5" y="861" fill="#FFE797" font-family="sans-serif" font-size="11" font-weight="bold" lengthAdjust="spacing" textLength="21">arn</text><text x="90.5" y="861" fill="#FFE797" font-family="sans-serif" font-size="11" lengthAdjust="spacing" textLength="41">: string</text><rect id="quota" width="134" height="116.203" x="267" y="565" fill="#194875" codeLine="35" rx="2.5" ry="2.5" style="stroke:#000;stroke-width:1.5"/><ellipse cx="301.8" cy="584.894" fill="#1A83AF" rx="11" ry="11" style="stroke:#000;stroke-width:1"/><path fill="#000" d="M304.7688,590.5352 Q304.1906,590.832 303.55,590.9727 Q302.9094,591.1289 302.2063,591.1289 Q299.7063,591.1289 298.3781,589.4883 Q297.0656,587.832 297.0656,584.707 Q297.0656,581.582 298.3781,579.9258 Q299.7063,578.2695 302.2063,578.2695 Q302.9094,578.2695 303.55,578.4258 Q304.2063,578.582 304.7688,578.8789 L304.7688,581.5977 Q304.1438,581.0195 303.55,580.7539 Q302.9563,580.4727 302.3313,580.4727 Q300.9875,580.4727 300.3,581.5508 Q299.6125,582.6133 299.6125,584.707 Q299.6125,586.8008 300.3,587.8789 Q300.9875,588.9414 302.3313,588.9414 Q302.9563,588.9414 303.55,588.6758 Q304.1438,588.3945 304.7688,587.8164 L304.7688,590.5352 Z"/><text x="325.2" y="590.78" fill="#FFE797" font-family="Helvetica" font-size="17" lengthAdjust="spacing" textLength="48">quota</text><line style="stroke:#000;stroke-width:1.5" x1="268" x2="400" y1="604.789" y2="604.789"/><text x="278" y="624" fill="#FFE797" font-family="sans-serif" font-size="11" font-weight="bold" lengthAdjust="spacing" textLength="37">quota</text><text x="315" y="624" fill="#FFE797" font-family="sans-serif" font-size="11" lengthAdjust="spacing" textLength="46">: double</text><text x="278" y="646.804" fill="#FFE797" font-family="sans-serif" font-size="11" font-weight="bold" lengthAdjust="spacing" textLength="39">usage</text><text x="317" y="646.804" fill="#FFE797" font-family="sans-serif" font-size="11" lengthAdjust="spacing" textLength="46">: double</text><text x="278" y="669.609" fill="#FFE797" font-family="sans-serif" font-size="11" font-weight="bold" lengthAdjust="spacing" textLength="71">quota_type</text><text x="349" y="669.609" fill="#FFE797" font-family="sans-serif" font-size="11" lengthAdjust="spacing" textLength="41">: string</text><rect id="aws_ec2_internet_gateway_quota" width="328" height="39.789" x="7" y="994" fill="#194875" codeLine="40" rx="2.5" ry="2.5" style="stroke:#000;stroke-width:1.5"/><ellipse cx="22" cy="1013.894" fill="#1A83AF" rx="11" ry="11" style="stroke:#000;stroke-width:1"/><path fill="#000" d="M24.9688,1019.5352 Q24.3906,1019.832 23.75,1019.9727 Q23.1094,1020.1289 22.4063,1020.1289 Q19.9063,1020.1289 18.5781,1018.4883 Q17.2656,1016.832 17.2656,1013.707 Q17.2656,1010.582 18.5781,1008.9258 Q19.9063,1007.2695 22.4063,1007.2695 Q23.1094,1007.2695 23.75,1007.4258 Q24.4063,1007.582 24.9688,1007.8789 L24.9688,1010.5977 Q24.3438,1010.0195 23.75,1009.7539 Q23.1563,1009.4727 22.5313,1009.4727 Q21.1875,1009.4727 20.5,1010.5508 Q19.8125,1011.6133 19.8125,1013.707 Q19.8125,1015.8008 20.5,1016.8789 Q21.1875,1017.9414 22.5313,1017.9414 Q23.1563,1017.9414 23.75,1017.6758 Q24.3438,1017.3945 24.9688,1016.8164 L24.9688,1019.5352 Z"/><text x="41" y="1019.78" fill="#FFE797" font-family="Helvetica" font-size="17" lengthAdjust="spacing" textLength="286">aws_ec2_internet_gateway_quota</text><rect id="gateway_quota" width="171" height="39.789" x="248.5" y="817.5" fill="#194875" codeLine="43" rx="2.5" ry="2.5" style="stroke:#000;stroke-width:1.5"/><ellipse cx="263.5" cy="837.394" fill="#1A83AF" rx="11" ry="11" style="stroke:#000;stroke-width:1"/><path fill="#000" d="M266.4688,843.0352 Q265.8906,843.332 265.25,843.4727 Q264.6094,843.6289 263.9063,843.6289 Q261.4063,843.6289 260.0781,841.9883 Q258.7656,840.332 258.7656,837.207 Q258.7656,834.082 260.0781,832.4258 Q261.4063,830.7695 263.9063,830.7695 Q264.6094,830.7695 265.25,830.9258 Q265.9063,831.082 266.4688,831.3789 L266.4688,834.0977 Q265.8438,833.5195 265.25,833.2539 Q264.6563,832.9727 264.0313,832.9727 Q262.6875,832.9727 262,834.0508 Q261.3125,835.1133 261.3125,837.207 Q261.3125,839.3008 262,840.3789 Q262.6875,841.4414 264.0313,841.4414 Q264.6563,841.4414 265.25,841.1758 Q265.8438,840.8945 266.4688,840.3164 L266.4688,843.0352 Z"/><text x="282.5" y="843.28" fill="#FFE797" font-family="Helvetica" font-size="17" lengthAdjust="spacing" textLength="129">gateway_quota</text><path id="resource-backto-phantom_resource" fill="none" d="M334,303.48 C334,343.73 334,381.81 334,403.75" codeLine="46" style="stroke:#ffaf37;stroke-width:2"/><polygon fill="none" points="327 303.28 334 283.28 341 303.28 327 303.28" style="stroke:#ffaf37;stroke-width:2"/><path id="phantom_resource-backto-quota" fill="none" d="M334,464.28 C334,493.07 334,532.58 334,564.86" codeLine="47" style="stroke:#ffaf37;stroke-width:2"/><polygon fill="none" points="327 464.25 334 444.25 341 464.25 327 464.25" style="stroke:#ffaf37;stroke-width:2"/><path id="aws_resource-backto-aws_ec2_internet_gateway_quota" fill="none" d="M146.94,893.04 C153.84,927.43 162.32,969.75 167.15,993.82" codeLine="48" style="stroke:#ffaf37;stroke-width:2"/><polygon fill="none" points="140.07 894.38 143 873.39 153.8 891.63 140.07 894.38" style="stroke:#ffaf37;stroke-width:2"/><path id="gateway_quota-backto-aws_ec2_internet_gateway_quota" fill="none" d="M302.18,872.57 C268.41,908.72 216.24,964.57 188.98,993.75" codeLine="49" style="stroke:#ffaf37;stroke-width:2"/><polygon fill="none" points="297.48 867.34 316.25 857.51 307.71 876.9 297.48 867.34" style="stroke:#ffaf37;stroke-width:2"/><path id="quota-backto-gateway_quota" fill="none" d="M334,701.37 C334,743.08 334,791.22 334,817.3" codeLine="50" style="stroke:#ffaf37;stroke-width:2"/><polygon fill="none" points="327 701.23 334 681.23 341 701.23 327 701.23" style="stroke:#ffaf37;stroke-width:2"/></g></svg>