<svg xmlns="http://www.w3.org/2000/svg" xmlns:xlink="http://www.w3.org/1999/xlink" width="385" height="663" contentScriptType="application/ecmascript" contentStyleType="text/css" style="width:385px;height:663px;background:#00000000" preserveAspectRatio="none" version="1.1" viewBox="0 0 385 663" zoomAndPan="magnify"><defs><filter id="f4xq9734njpyv" width="300%" height="300%" x="-1" y="-1"><feGaussianBlur result="blurOut" stdDeviation="2"/><feColorMatrix in="blurOut" result="blurOut2" type="matrix" values="0 0 0 0 0 0 0 0 0 0 0 0 0 0 0 0 0 0 .4 0"/><feOffset dx="4" dy="4" in="blurOut2" result="blurOut3"/><feBlend in="SourceGraphic" in2="blurOut3" mode="normal"/></filter></defs><g><rect id="resource" width="252" height="176.047" x="7" y="7" fill="#FEFECE" codeLine="2" filter="url(#f4xq9734njpyv)" style="stroke:#a80036;stroke-width:1.5"/><ellipse cx="100.75" cy="23" fill="#ADD1B2" rx="11" ry="11" style="stroke:#a80036;stroke-width:1"/><path fill="#000" d="M103.7188,28.6406 Q103.1406,28.9375 102.5,29.0781 Q101.8594,29.2344 101.1563,29.2344 Q98.6563,29.2344 97.3281,27.5938 Q96.0156,25.9375 96.0156,22.8125 Q96.0156,19.6875 97.3281,18.0313 Q98.6563,16.375 101.1563,16.375 Q101.8594,16.375 102.5,16.5313 Q103.1563,16.6875 103.7188,16.9844 L103.7188,19.7031 Q103.0938,19.125 102.5,18.8594 Q101.9063,18.5781 101.2813,18.5781 Q99.9375,18.5781 99.25,19.6563 Q98.5625,20.7188 98.5625,22.8125 Q98.5625,24.9063 99.25,25.9844 Q99.9375,27.0469 101.2813,27.0469 Q101.9063,27.0469 102.5,26.7813 Q103.0938,26.5 103.7188,25.9219 L103.7188,28.6406 Z"/><text x="121.25" y="27.154" fill="#000" font-family="sans-serif" font-size="12" lengthAdjust="spacing" textLength="56">resource</text><line style="stroke:#a80036;stroke-width:1.5" x1="8" x2="258" y1="39" y2="39"/><ellipse cx="18" cy="50" rx="3" ry="3" style="stroke:#038048;stroke-width:1;fill:none"/><text x="27" y="53.21" fill="#000" font-family="sans-serif" font-size="11" lengthAdjust="spacing" textLength="51">id: string</text><ellipse cx="18" cy="62.805" rx="3" ry="3" style="stroke:#038048;stroke-width:1;fill:none"/><text x="27" y="66.015" fill="#000" font-family="sans-serif" font-size="11" lengthAdjust="spacing" textLength="170">tags: dictionary[string, string]</text><ellipse cx="18" cy="75.609" rx="3" ry="3" style="stroke:#038048;stroke-width:1;fill:none"/><text x="27" y="78.82" fill="#000" font-family="sans-serif" font-size="11" lengthAdjust="spacing" textLength="73">name: string</text><ellipse cx="18" cy="88.414" rx="3" ry="3" style="stroke:#038048;stroke-width:1;fill:none"/><text x="27" y="91.624" fill="#000" font-family="sans-serif" font-size="11" lengthAdjust="spacing" textLength="89">ctime: datetime</text><ellipse cx="18" cy="101.219" rx="3" ry="3" style="stroke:#038048;stroke-width:1;fill:none"/><text x="27" y="104.429" fill="#000" font-family="sans-serif" font-size="11" lengthAdjust="spacing" textLength="180">age: trafo.duration_to_datetime</text><ellipse cx="18" cy="114.023" rx="3" ry="3" style="stroke:#038048;stroke-width:1;fill:none"/><text x="27" y="117.234" fill="#000" font-family="sans-serif" font-size="11" lengthAdjust="spacing" textLength="94">mtime: datetime</text><ellipse cx="18" cy="126.828" rx="3" ry="3" style="stroke:#038048;stroke-width:1;fill:none"/><text x="27" y="130.039" fill="#000" font-family="sans-serif" font-size="11" lengthAdjust="spacing" textLength="225">last_update: trafo.duration_to_datetime</text><ellipse cx="18" cy="139.633" rx="3" ry="3" style="stroke:#038048;stroke-width:1;fill:none"/><text x="27" y="142.843" fill="#000" font-family="sans-serif" font-size="11" lengthAdjust="spacing" textLength="90">atime: datetime</text><ellipse cx="18" cy="152.438" rx="3" ry="3" style="stroke:#038048;stroke-width:1;fill:none"/><text x="27" y="155.648" fill="#000" font-family="sans-serif" font-size="11" lengthAdjust="spacing" textLength="226">last_access: trafo.duration_to_datetime</text><ellipse cx="18" cy="165.242" rx="3" ry="3" style="stroke:#038048;stroke-width:1;fill:none"/><text x="27" y="168.453" fill="#000" font-family="sans-serif" font-size="11" lengthAdjust="spacing" textLength="64">kind: string</text><line style="stroke:#a80036;stroke-width:1.5" x1="8" x2="258" y1="175.047" y2="175.047"/><rect id="aws_resource" width="118" height="60.805" x="253" y="310.5" fill="#FEFECE" codeLine="14" filter="url(#f4xq9734njpyv)" style="stroke:#a80036;stroke-width:1.5"/><ellipse cx="268" cy="326.5" fill="#ADD1B2" rx="11" ry="11" style="stroke:#a80036;stroke-width:1"/><path fill="#000" d="M270.9688,332.1406 Q270.3906,332.4375 269.75,332.5781 Q269.1094,332.7344 268.4063,332.7344 Q265.9063,332.7344 264.5781,331.0938 Q263.2656,329.4375 263.2656,326.3125 Q263.2656,323.1875 264.5781,321.5313 Q265.9063,319.875 268.4063,319.875 Q269.1094,319.875 269.75,320.0313 Q270.4063,320.1875 270.9688,320.4844 L270.9688,323.2031 Q270.3438,322.625 269.75,322.3594 Q269.1563,322.0781 268.5313,322.0781 Q267.1875,322.0781 266.5,323.1563 Q265.8125,324.2188 265.8125,326.3125 Q265.8125,328.4063 266.5,329.4844 Q267.1875,330.5469 268.5313,330.5469 Q269.1563,330.5469 269.75,330.2813 Q270.3438,330 270.9688,329.4219 L270.9688,332.1406 Z"/><text x="282" y="330.654" fill="#000" font-family="sans-serif" font-size="12" lengthAdjust="spacing" textLength="86">aws_resource</text><line style="stroke:#a80036;stroke-width:1.5" x1="254" x2="370" y1="342.5" y2="342.5"/><ellipse cx="264" cy="353.5" rx="3" ry="3" style="stroke:#038048;stroke-width:1;fill:none"/><text x="273" y="356.71" fill="#000" font-family="sans-serif" font-size="11" lengthAdjust="spacing" textLength="60">arn: string</text><line style="stroke:#a80036;stroke-width:1.5" x1="254" x2="370" y1="363.305" y2="363.305"/><rect id="aws_ec2_elastic_ip" width="225" height="150.438" x="136.5" y="499" fill="#FEFECE" codeLine="17" filter="url(#f4xq9734njpyv)" style="stroke:#a80036;stroke-width:1.5"/><ellipse cx="186.25" cy="515" fill="#ADD1B2" rx="11" ry="11" style="stroke:#a80036;stroke-width:1"/><path fill="#000" d="M189.2188,520.6406 Q188.6406,520.9375 188,521.0781 Q187.3594,521.2344 186.6563,521.2344 Q184.1563,521.2344 182.8281,519.5938 Q181.5156,517.9375 181.5156,514.8125 Q181.5156,511.6875 182.8281,510.0313 Q184.1563,508.375 186.6563,508.375 Q187.3594,508.375 188,508.5313 Q188.6563,508.6875 189.2188,508.9844 L189.2188,511.7031 Q188.5938,511.125 188,510.8594 Q187.4063,510.5781 186.7813,510.5781 Q185.4375,510.5781 184.75,511.6563 Q184.0625,512.7188 184.0625,514.8125 Q184.0625,516.9063 184.75,517.9844 Q185.4375,519.0469 186.7813,519.0469 Q187.4063,519.0469 188,518.7813 Q188.5938,518.5 189.2188,517.9219 L189.2188,520.6406 Z"/><text x="206.75" y="519.154" fill="#000" font-family="sans-serif" font-size="12" lengthAdjust="spacing" textLength="117">aws_ec2_elastic_ip</text><line style="stroke:#a80036;stroke-width:1.5" x1="137.5" x2="360.5" y1="531" y2="531"/><ellipse cx="147.5" cy="542" rx="3" ry="3" style="stroke:#038048;stroke-width:1;fill:none"/><text x="156.5" y="545.21" fill="#000" font-family="sans-serif" font-size="11" lengthAdjust="spacing" textLength="105">instance_id: string</text><ellipse cx="147.5" cy="554.805" rx="3" ry="3" style="stroke:#038048;stroke-width:1;fill:none"/><text x="156.5" y="558.015" fill="#000" font-family="sans-serif" font-size="11" lengthAdjust="spacing" textLength="90">public_ip: string</text><ellipse cx="147.5" cy="567.609" rx="3" ry="3" style="stroke:#038048;stroke-width:1;fill:none"/><text x="156.5" y="570.82" fill="#000" font-family="sans-serif" font-size="11" lengthAdjust="spacing" textLength="111">allocation_id: string</text><ellipse cx="147.5" cy="580.414" rx="3" ry="3" style="stroke:#038048;stroke-width:1;fill:none"/><text x="156.5" y="583.625" fill="#000" font-family="sans-serif" font-size="11" lengthAdjust="spacing" textLength="122">association_id: string</text><ellipse cx="147.5" cy="593.219" rx="3" ry="3" style="stroke:#038048;stroke-width:1;fill:none"/><text x="156.5" y="596.429" fill="#000" font-family="sans-serif" font-size="11" lengthAdjust="spacing" textLength="83">domain: string</text><ellipse cx="147.5" cy="606.023" rx="3" ry="3" style="stroke:#038048;stroke-width:1;fill:none"/><text x="156.5" y="609.234" fill="#000" font-family="sans-serif" font-size="11" lengthAdjust="spacing" textLength="158">network_interface_id: string</text><ellipse cx="147.5" cy="618.828" rx="3" ry="3" style="stroke:#038048;stroke-width:1;fill:none"/><text x="156.5" y="622.039" fill="#000" font-family="sans-serif" font-size="11" lengthAdjust="spacing" textLength="199">network_interface_owner_id: string</text><ellipse cx="147.5" cy="631.633" rx="3" ry="3" style="stroke:#038048;stroke-width:1;fill:none"/><text x="156.5" y="634.843" fill="#000" font-family="sans-serif" font-size="11" lengthAdjust="spacing" textLength="149">private_ip_address: string</text><line style="stroke:#a80036;stroke-width:1.5" x1="137.5" x2="360.5" y1="641.438" y2="641.438"/><rect id="ip_address" width="170" height="73.609" x="48" y="304" fill="#FEFECE" codeLine="27" filter="url(#f4xq9734njpyv)" style="stroke:#a80036;stroke-width:1.5"/><ellipse cx="94.75" cy="320" fill="#ADD1B2" rx="11" ry="11" style="stroke:#a80036;stroke-width:1"/><path fill="#000" d="M97.7188,325.6406 Q97.1406,325.9375 96.5,326.0781 Q95.8594,326.2344 95.1563,326.2344 Q92.6563,326.2344 91.3281,324.5938 Q90.0156,322.9375 90.0156,319.8125 Q90.0156,316.6875 91.3281,315.0313 Q92.6563,313.375 95.1563,313.375 Q95.8594,313.375 96.5,313.5313 Q97.1563,313.6875 97.7188,313.9844 L97.7188,316.7031 Q97.0938,316.125 96.5,315.8594 Q95.9063,315.5781 95.2813,315.5781 Q93.9375,315.5781 93.25,316.6563 Q92.5625,317.7188 92.5625,319.8125 Q92.5625,321.9063 93.25,322.9844 Q93.9375,324.0469 95.2813,324.0469 Q95.9063,324.0469 96.5,323.7813 Q97.0938,323.5 97.7188,322.9219 L97.7188,325.6406 Z"/><text x="115.25" y="324.154" fill="#000" font-family="sans-serif" font-size="12" lengthAdjust="spacing" textLength="68">ip_address</text><line style="stroke:#a80036;stroke-width:1.5" x1="49" x2="217" y1="336" y2="336"/><ellipse cx="59" cy="347" rx="3" ry="3" style="stroke:#038048;stroke-width:1;fill:none"/><text x="68" y="350.21" fill="#000" font-family="sans-serif" font-size="11" lengthAdjust="spacing" textLength="104">ip_address: string</text><ellipse cx="59" cy="359.805" rx="3" ry="3" style="stroke:#038048;stroke-width:1;fill:none"/><text x="68" y="363.015" fill="#000" font-family="sans-serif" font-size="11" lengthAdjust="spacing" textLength="144">ip_address_family: string</text><line style="stroke:#a80036;stroke-width:1.5" x1="49" x2="217" y1="369.609" y2="369.609"/><path id="aws_resource-backto-aws_ec2_elastic_ip" fill="none" d="M298.59,391.16 C290.06,422.43 278.86,463.53 269.25,498.74" codeLine="31" style="stroke:#a80036;stroke-width:1"/><polygon fill="none" points="291.88 389.18 303.89 371.73 305.38 392.86 291.88 389.18" style="stroke:#a80036;stroke-width:1"/><path id="ip_address-backto-aws_ec2_elastic_ip" fill="none" d="M160.12,396.01 C175.52,426.67 195.01,465.49 211.82,498.96" codeLine="32" style="stroke:#a80036;stroke-width:1"/><polygon fill="none" points="153.84 399.11 151.12 378.09 166.36 392.83 153.84 399.11" style="stroke:#a80036;stroke-width:1"/><path id="resource-backto-ip_address" fill="none" d="M133,203.16 C133,239.31 133,277.21 133,303.94" codeLine="33" style="stroke:#a80036;stroke-width:1"/><polygon fill="none" points="126 203.06 133 183.06 140 203.06 126 203.06" style="stroke:#a80036;stroke-width:1"/></g></svg>