<?xml version="1.0" encoding="UTF-8" standalone="no"?><svg xmlns="http://www.w3.org/2000/svg" xmlns:xlink="http://www.w3.org/1999/xlink" contentScriptType="application/ecmascript" contentStyleType="text/css" height="855px" preserveAspectRatio="none" style="width:442px;height:855px;background:#00000000;" version="1.1" viewBox="0 0 442 855" width="442px" zoomAndPan="magnify"><defs/><g><!--MD5=[7f0ecf5f554433d3f2e1213379ac821c]
class resource--><rect codeLine="17" fill="#194875" height="275.8359" id="resource" rx="2.5" ry="2.5" style="stroke:#000000;stroke-width:1.5;" width="256" x="7" y="7"/><ellipse cx="90.25" cy="26.8945" fill="#1A83AF" rx="11" ry="11" style="stroke:#000000;stroke-width:1.0;"/><path d="M93.2188,32.5352 Q92.6406,32.832 92,32.9727 Q91.3594,33.1289 90.6563,33.1289 Q88.1563,33.1289 86.8281,31.4883 Q85.5156,29.832 85.5156,26.707 Q85.5156,23.582 86.8281,21.9258 Q88.1563,20.2695 90.6563,20.2695 Q91.3594,20.2695 92,20.4258 Q92.6563,20.582 93.2188,20.8789 L93.2188,23.5977 Q92.5938,23.0195 92,22.7539 Q91.4063,22.4727 90.7813,22.4727 Q89.4375,22.4727 88.75,23.5508 Q88.0625,24.6133 88.0625,26.707 Q88.0625,28.8008 88.75,29.8789 Q89.4375,30.9414 90.7813,30.9414 Q91.4063,30.9414 92,30.6758 Q92.5938,30.3945 93.2188,29.8164 L93.2188,32.5352 Z " fill="#000000"/><text fill="#FFE797" font-family="Helvetica" font-size="17" lengthAdjust="spacing" textLength="71" x="115.75" y="32.7798">resource</text><line style="stroke:#000000;stroke-width:1.5;" x1="8" x2="262" y1="46.7891" y2="46.7891"/><text fill="#FFE797" font-family="sans-serif" font-size="11" font-weight="bold" lengthAdjust="spacing" textLength="12" x="18" y="65.9995">id</text><text fill="#FFE797" font-family="sans-serif" font-size="11" lengthAdjust="spacing" textLength="41" x="30" y="65.9995">: string</text><text fill="#FFE797" font-family="sans-serif" font-size="11" font-weight="bold" lengthAdjust="spacing" textLength="28" x="18" y="88.8042">tags</text><text fill="#FFE797" font-family="sans-serif" font-size="11" lengthAdjust="spacing" textLength="145" x="46" y="88.8042">: dictionary[string, string]</text><text fill="#FFE797" font-family="sans-serif" font-size="11" font-weight="bold" lengthAdjust="spacing" textLength="35" x="18" y="111.6089">name</text><text fill="#FFE797" font-family="sans-serif" font-size="11" lengthAdjust="spacing" textLength="41" x="53" y="111.6089">: string</text><text fill="#FFE797" font-family="sans-serif" font-size="11" font-weight="bold" lengthAdjust="spacing" textLength="35" x="18" y="134.4136">ctime</text><text fill="#FFE797" font-family="sans-serif" font-size="11" lengthAdjust="spacing" textLength="58" x="53" y="134.4136">: datetime</text><text fill="#FFE797" font-family="sans-serif" font-size="11" font-weight="bold" lengthAdjust="spacing" textLength="24" x="18" y="157.2183">age</text><text fill="#FFE797" font-family="sans-serif" font-size="11" lengthAdjust="spacing" textLength="159" x="42" y="157.2183">: trafo.duration_to_datetime</text><text fill="#FFE797" font-family="sans-serif" font-size="11" font-weight="bold" lengthAdjust="spacing" textLength="39" x="18" y="180.0229">mtime</text><text fill="#FFE797" font-family="sans-serif" font-size="11" lengthAdjust="spacing" textLength="58" x="57" y="180.0229">: datetime</text><text fill="#FFE797" font-family="sans-serif" font-size="11" font-weight="bold" lengthAdjust="spacing" textLength="75" x="18" y="202.8276">last_update</text><text fill="#FFE797" font-family="sans-serif" font-size="11" lengthAdjust="spacing" textLength="159" x="93" y="202.8276">: trafo.duration_to_datetime</text><text fill="#FFE797" font-family="sans-serif" font-size="11" font-weight="bold" lengthAdjust="spacing" textLength="36" x="18" y="225.6323">atime</text><text fill="#FFE797" font-family="sans-serif" font-size="11" lengthAdjust="spacing" textLength="58" x="54" y="225.6323">: datetime</text><text fill="#FFE797" font-family="sans-serif" font-size="11" font-weight="bold" lengthAdjust="spacing" textLength="74" x="18" y="248.437">last_access</text><text fill="#FFE797" font-family="sans-serif" font-size="11" lengthAdjust="spacing" textLength="159" x="92" y="248.437">: trafo.duration_to_datetime</text><text fill="#FFE797" font-family="sans-serif" font-size="11" font-weight="bold" lengthAdjust="spacing" textLength="27" x="18" y="271.2417">kind</text><text fill="#FFE797" font-family="sans-serif" font-size="11" lengthAdjust="spacing" textLength="41" x="45" y="271.2417">: string</text><!--MD5=[c069b88079f3e36515859a1683f3923c]
class aws_resource--><rect codeLine="29" fill="#194875" height="70.5938" id="aws_resource" rx="2.5" ry="2.5" style="stroke:#000000;stroke-width:1.5;" width="155" x="280.5" y="495"/><ellipse cx="295.5" cy="514.8945" fill="#1A83AF" rx="11" ry="11" style="stroke:#000000;stroke-width:1.0;"/><path d="M298.4688,520.5352 Q297.8906,520.832 297.25,520.9727 Q296.6094,521.1289 295.9063,521.1289 Q293.4063,521.1289 292.0781,519.4883 Q290.7656,517.832 290.7656,514.707 Q290.7656,511.582 292.0781,509.9258 Q293.4063,508.2695 295.9063,508.2695 Q296.6094,508.2695 297.25,508.4258 Q297.9063,508.582 298.4688,508.8789 L298.4688,511.5977 Q297.8438,511.0195 297.25,510.7539 Q296.6563,510.4727 296.0313,510.4727 Q294.6875,510.4727 294,511.5508 Q293.3125,512.6133 293.3125,514.707 Q293.3125,516.8008 294,517.8789 Q294.6875,518.9414 296.0313,518.9414 Q296.6563,518.9414 297.25,518.6758 Q297.8438,518.3945 298.4688,517.8164 L298.4688,520.5352 Z " fill="#000000"/><text fill="#FFE797" font-family="Helvetica" font-size="17" lengthAdjust="spacing" textLength="113" x="314.5" y="520.7798">aws_resource</text><line style="stroke:#000000;stroke-width:1.5;" x1="281.5" x2="434.5" y1="534.7891" y2="534.7891"/><text fill="#FFE797" font-family="sans-serif" font-size="11" font-weight="bold" lengthAdjust="spacing" textLength="21" x="291.5" y="553.9995">arn</text><text fill="#FFE797" font-family="sans-serif" font-size="11" lengthAdjust="spacing" textLength="41" x="312.5" y="553.9995">: string</text><!--MD5=[6dd357750fb0136eccb22bd541e74502]
class database--><rect codeLine="32" fill="#194875" height="253.0313" id="database" rx="2.5" ry="2.5" style="stroke:#000000;stroke-width:1.5;" width="221" x="24.5" y="404"/><ellipse cx="88.25" cy="423.8945" fill="#1A83AF" rx="11" ry="11" style="stroke:#000000;stroke-width:1.0;"/><path d="M91.2188,429.5352 Q90.6406,429.832 90,429.9727 Q89.3594,430.1289 88.6563,430.1289 Q86.1563,430.1289 84.8281,428.4883 Q83.5156,426.832 83.5156,423.707 Q83.5156,420.582 84.8281,418.9258 Q86.1563,417.2695 88.6563,417.2695 Q89.3594,417.2695 90,417.4258 Q90.6563,417.582 91.2188,417.8789 L91.2188,420.5977 Q90.5938,420.0195 90,419.7539 Q89.4063,419.4727 88.7813,419.4727 Q87.4375,419.4727 86.75,420.5508 Q86.0625,421.6133 86.0625,423.707 Q86.0625,425.8008 86.75,426.8789 Q87.4375,427.9414 88.7813,427.9414 Q89.4063,427.9414 90,427.6758 Q90.5938,427.3945 91.2188,426.8164 L91.2188,429.5352 Z " fill="#000000"/><text fill="#FFE797" font-family="Helvetica" font-size="17" lengthAdjust="spacing" textLength="75" x="113.75" y="429.7798">database</text><line style="stroke:#000000;stroke-width:1.5;" x1="25.5" x2="244.5" y1="443.7891" y2="443.7891"/><text fill="#FFE797" font-family="sans-serif" font-size="11" font-weight="bold" lengthAdjust="spacing" textLength="50" x="35.5" y="462.9995">db_type</text><text fill="#FFE797" font-family="sans-serif" font-size="11" lengthAdjust="spacing" textLength="41" x="85.5" y="462.9995">: string</text><text fill="#FFE797" font-family="sans-serif" font-size="11" font-weight="bold" lengthAdjust="spacing" textLength="62" x="35.5" y="485.8042">db_status</text><text fill="#FFE797" font-family="sans-serif" font-size="11" lengthAdjust="spacing" textLength="41" x="97.5" y="485.8042">: string</text><text fill="#FFE797" font-family="sans-serif" font-size="11" font-weight="bold" lengthAdjust="spacing" textLength="79" x="35.5" y="508.6089">db_endpoint</text><text fill="#FFE797" font-family="sans-serif" font-size="11" lengthAdjust="spacing" textLength="41" x="114.5" y="508.6089">: string</text><text fill="#FFE797" font-family="sans-serif" font-size="11" font-weight="bold" lengthAdjust="spacing" textLength="69" x="35.5" y="531.4136">db_version</text><text fill="#FFE797" font-family="sans-serif" font-size="11" lengthAdjust="spacing" textLength="41" x="104.5" y="531.4136">: string</text><text fill="#FFE797" font-family="sans-serif" font-size="11" font-weight="bold" lengthAdjust="spacing" textLength="146" x="35.5" y="554.2183">db_publicly_accessible</text><text fill="#FFE797" font-family="sans-serif" font-size="11" lengthAdjust="spacing" textLength="53" x="181.5" y="554.2183">: boolean</text><text fill="#FFE797" font-family="sans-serif" font-size="11" font-weight="bold" lengthAdjust="spacing" textLength="89" x="35.5" y="577.0229">instance_type</text><text fill="#FFE797" font-family="sans-serif" font-size="11" lengthAdjust="spacing" textLength="41" x="124.5" y="577.0229">: string</text><text fill="#FFE797" font-family="sans-serif" font-size="11" font-weight="bold" lengthAdjust="spacing" textLength="78" x="35.5" y="599.8276">volume_size</text><text fill="#FFE797" font-family="sans-serif" font-size="11" lengthAdjust="spacing" textLength="36" x="113.5" y="599.8276">: int64</text><text fill="#FFE797" font-family="sans-serif" font-size="11" font-weight="bold" lengthAdjust="spacing" textLength="79" x="35.5" y="622.6323">volume_iops</text><text fill="#FFE797" font-family="sans-serif" font-size="11" lengthAdjust="spacing" textLength="36" x="114.5" y="622.6323">: int64</text><text fill="#FFE797" font-family="sans-serif" font-size="11" font-weight="bold" lengthAdjust="spacing" textLength="116" x="35.5" y="645.437">volume_encrypted</text><text fill="#FFE797" font-family="sans-serif" font-size="11" lengthAdjust="spacing" textLength="53" x="151.5" y="645.437">: boolean</text><!--MD5=[f3ba0b819851420cd825c172c4544ffa]
class aws_rds_instance--><rect codeLine="43" fill="#194875" height="70.5938" id="aws_rds_instance" rx="2.5" ry="2.5" style="stroke:#000000;stroke-width:1.5;" width="188" x="190" y="778"/><ellipse cx="205" cy="797.8945" fill="#1A83AF" rx="11" ry="11" style="stroke:#000000;stroke-width:1.0;"/><path d="M207.9688,803.5352 Q207.3906,803.832 206.75,803.9727 Q206.1094,804.1289 205.4063,804.1289 Q202.9063,804.1289 201.5781,802.4883 Q200.2656,800.832 200.2656,797.707 Q200.2656,794.582 201.5781,792.9258 Q202.9063,791.2695 205.4063,791.2695 Q206.1094,791.2695 206.75,791.4258 Q207.4063,791.582 207.9688,791.8789 L207.9688,794.5977 Q207.3438,794.0195 206.75,793.7539 Q206.1563,793.4727 205.5313,793.4727 Q204.1875,793.4727 203.5,794.5508 Q202.8125,795.6133 202.8125,797.707 Q202.8125,799.8008 203.5,800.8789 Q204.1875,801.9414 205.5313,801.9414 Q206.1563,801.9414 206.75,801.6758 Q207.3438,801.3945 207.9688,800.8164 L207.9688,803.5352 Z " fill="#000000"/><text fill="#FFE797" font-family="Helvetica" font-size="17" lengthAdjust="spacing" textLength="146" x="224" y="803.7798">aws_rds_instance</text><line style="stroke:#000000;stroke-width:1.5;" x1="191" x2="377" y1="817.7891" y2="817.7891"/><text fill="#FFE797" font-family="sans-serif" font-size="11" font-weight="bold" lengthAdjust="spacing" textLength="123" x="201" y="836.9995">volume_kms_key_id</text><text fill="#FFE797" font-family="sans-serif" font-size="11" lengthAdjust="spacing" textLength="41" x="324" y="836.9995">: string</text><!--MD5=[fceed0354bfe0df8659e8e95b5b412ed]
reverse link resource to database--><path codeLine="46" d="M135,303.17 C135,336.68 135,371.63 135,403.77 " fill="none" id="resource-backto-database" style="stroke:#FFAF37;stroke-width:2.0;"/><polygon fill="none" points="128,303.1,135,283.1,142,303.1,128,303.1" style="stroke:#FFAF37;stroke-width:2.0;"/><!--MD5=[1ca13a637e1355338ee6adcd58477d65]
reverse link aws_resource to aws_rds_instance--><path codeLine="47" d="M343.75,585.62 C328.81,642.34 305.79,729.76 293.13,777.84 " fill="none" id="aws_resource-backto-aws_rds_instance" style="stroke:#FFAF37;stroke-width:2.0;"/><polygon fill="none" points="336.99,583.8,348.85,566.24,350.53,587.36,336.99,583.8" style="stroke:#FFAF37;stroke-width:2.0;"/><!--MD5=[3a2d74a52afc88cdd89aa99443f1049e]
reverse link database to aws_rds_instance--><path codeLine="48" d="M211.15,675.11 C231.49,713.48 251.67,751.53 265.62,777.83 " fill="none" id="database-backto-aws_rds_instance" style="stroke:#FFAF37;stroke-width:2.0;"/><polygon fill="none" points="204.84,678.15,201.66,657.21,217.21,671.6,204.84,678.15" style="stroke:#FFAF37;stroke-width:2.0;"/><!--MD5=[42d5dcda55668df65a3b30e3d2087967]
@startuml
hide empty members
skinparam ArrowColor #ffaf37
skinparam ArrowThickness 2
skinparam BackgroundColor transparent
skinparam ClassAttributeFontColor #ffe797
skinparam ClassBackgroundColor #194875
skinparam ClassBorderColor Black
skinparam ClassFontColor #ffe797
skinparam ClassFontName Helvetica
skinparam ClassFontSize 17
skinparam Padding 5
skinparam RoundCorner 5
skinparam Shadowing false
skinparam stereotypeCBackgroundColor #1a83af
skinparam stereotypeIBackgroundColor #1a83af

class resource {
**id**: string
**tags**: dictionary[string, string]
**name**: string
**ctime**: datetime
**age**: trafo.duration_to_datetime
**mtime**: datetime
**last_update**: trafo.duration_to_datetime
**atime**: datetime
**last_access**: trafo.duration_to_datetime
**kind**: string
}
class aws_resource {
**arn**: string
}
class database {
**db_type**: string
**db_status**: string
**db_endpoint**: string
**db_version**: string
**db_publicly_accessible**: boolean
**instance_type**: string
**volume_size**: int64
**volume_iops**: int64
**volume_encrypted**: boolean
}
class aws_rds_instance {
**volume_kms_key_id**: string
}
resource <|- - - database
aws_resource <|- - - aws_rds_instance
database <|- - - aws_rds_instance
@enduml

PlantUML version 1.2021.16(Wed Dec 08 17:25:22 UTC 2021)
(GPL source distribution)
Java Runtime: OpenJDK Runtime Environment
JVM: OpenJDK 64-Bit Server VM
Default Encoding: UTF-8
Language: en
Country: null
--></g></svg>