<?xml version="1.0" encoding="UTF-8" standalone="no"?><svg xmlns="http://www.w3.org/2000/svg" xmlns:xlink="http://www.w3.org/1999/xlink" contentScriptType="application/ecmascript" contentStyleType="text/css" height="391px" preserveAspectRatio="none" style="width:426px;height:391px;background:#00000000;" version="1.1" viewBox="0 0 426 391" width="426px" zoomAndPan="magnify"><defs><filter height="300%" id="fzpsby2yimopi" width="300%" x="-1" y="-1"><feGaussianBlur result="blurOut" stdDeviation="2.0"/><feColorMatrix in="blurOut" result="blurOut2" type="matrix" values="0 0 0 0 0 0 0 0 0 0 0 0 0 0 0 0 0 0 .4 0"/><feOffset dx="4.0" dy="4.0" in="blurOut2" result="blurOut3"/><feBlend in="SourceGraphic" in2="blurOut3" mode="normal"/></filter></defs><g><!--MD5=[7f0ecf5f554433d3f2e1213379ac821c]
class resource--><rect codeLine="2" fill="#FEFECE" filter="url(#fzpsby2yimopi)" height="176.0469" id="resource" style="stroke:#A80036;stroke-width:1.5;" width="252" x="7" y="7"/><ellipse cx="100.75" cy="23" fill="#ADD1B2" rx="11" ry="11" style="stroke:#A80036;stroke-width:1.0;"/><path d="M103.7188,28.6406 Q103.1406,28.9375 102.5,29.0781 Q101.8594,29.2344 101.1563,29.2344 Q98.6563,29.2344 97.3281,27.5938 Q96.0156,25.9375 96.0156,22.8125 Q96.0156,19.6875 97.3281,18.0313 Q98.6563,16.375 101.1563,16.375 Q101.8594,16.375 102.5,16.5313 Q103.1563,16.6875 103.7188,16.9844 L103.7188,19.7031 Q103.0938,19.125 102.5,18.8594 Q101.9063,18.5781 101.2813,18.5781 Q99.9375,18.5781 99.25,19.6563 Q98.5625,20.7188 98.5625,22.8125 Q98.5625,24.9063 99.25,25.9844 Q99.9375,27.0469 101.2813,27.0469 Q101.9063,27.0469 102.5,26.7813 Q103.0938,26.5 103.7188,25.9219 L103.7188,28.6406 Z " fill="#000000"/><text fill="#000000" font-family="sans-serif" font-size="12" lengthAdjust="spacing" textLength="56" x="121.25" y="27.1543">resource</text><line style="stroke:#A80036;stroke-width:1.5;" x1="8" x2="258" y1="39" y2="39"/><ellipse cx="18" cy="50" rx="3" ry="3" style="stroke:#038048;stroke-width:1.0;fill:none;"/><text fill="#000000" font-family="sans-serif" font-size="11" lengthAdjust="spacing" textLength="51" x="27" y="53.2104">id: string</text><ellipse cx="18" cy="62.8047" rx="3" ry="3" style="stroke:#038048;stroke-width:1.0;fill:none;"/><text fill="#000000" font-family="sans-serif" font-size="11" lengthAdjust="spacing" textLength="170" x="27" y="66.0151">tags: dictionary[string, string]</text><ellipse cx="18" cy="75.6094" rx="3" ry="3" style="stroke:#038048;stroke-width:1.0;fill:none;"/><text fill="#000000" font-family="sans-serif" font-size="11" lengthAdjust="spacing" textLength="73" x="27" y="78.8198">name: string</text><ellipse cx="18" cy="88.4141" rx="3" ry="3" style="stroke:#038048;stroke-width:1.0;fill:none;"/><text fill="#000000" font-family="sans-serif" font-size="11" lengthAdjust="spacing" textLength="89" x="27" y="91.6245">ctime: datetime</text><ellipse cx="18" cy="101.2188" rx="3" ry="3" style="stroke:#038048;stroke-width:1.0;fill:none;"/><text fill="#000000" font-family="sans-serif" font-size="11" lengthAdjust="spacing" textLength="180" x="27" y="104.4292">age: trafo.duration_to_datetime</text><ellipse cx="18" cy="114.0234" rx="3" ry="3" style="stroke:#038048;stroke-width:1.0;fill:none;"/><text fill="#000000" font-family="sans-serif" font-size="11" lengthAdjust="spacing" textLength="94" x="27" y="117.2339">mtime: datetime</text><ellipse cx="18" cy="126.8281" rx="3" ry="3" style="stroke:#038048;stroke-width:1.0;fill:none;"/><text fill="#000000" font-family="sans-serif" font-size="11" lengthAdjust="spacing" textLength="225" x="27" y="130.0386">last_update: trafo.duration_to_datetime</text><ellipse cx="18" cy="139.6328" rx="3" ry="3" style="stroke:#038048;stroke-width:1.0;fill:none;"/><text fill="#000000" font-family="sans-serif" font-size="11" lengthAdjust="spacing" textLength="90" x="27" y="142.8433">atime: datetime</text><ellipse cx="18" cy="152.4375" rx="3" ry="3" style="stroke:#038048;stroke-width:1.0;fill:none;"/><text fill="#000000" font-family="sans-serif" font-size="11" lengthAdjust="spacing" textLength="226" x="27" y="155.6479">last_access: trafo.duration_to_datetime</text><ellipse cx="18" cy="165.2422" rx="3" ry="3" style="stroke:#038048;stroke-width:1.0;fill:none;"/><text fill="#000000" font-family="sans-serif" font-size="11" lengthAdjust="spacing" textLength="64" x="27" y="168.4526">kind: string</text><line style="stroke:#A80036;stroke-width:1.5;" x1="8" x2="258" y1="175.0469" y2="175.0469"/><!--MD5=[c069b88079f3e36515859a1683f3923c]
class aws_resource--><rect codeLine="14" fill="#FEFECE" filter="url(#fzpsby2yimopi)" height="60.8047" id="aws_resource" style="stroke:#A80036;stroke-width:1.5;" width="118" x="294" y="64.5"/><ellipse cx="309" cy="80.5" fill="#ADD1B2" rx="11" ry="11" style="stroke:#A80036;stroke-width:1.0;"/><path d="M311.9688,86.1406 Q311.3906,86.4375 310.75,86.5781 Q310.1094,86.7344 309.4063,86.7344 Q306.9063,86.7344 305.5781,85.0938 Q304.2656,83.4375 304.2656,80.3125 Q304.2656,77.1875 305.5781,75.5313 Q306.9063,73.875 309.4063,73.875 Q310.1094,73.875 310.75,74.0313 Q311.4063,74.1875 311.9688,74.4844 L311.9688,77.2031 Q311.3438,76.625 310.75,76.3594 Q310.1563,76.0781 309.5313,76.0781 Q308.1875,76.0781 307.5,77.1563 Q306.8125,78.2188 306.8125,80.3125 Q306.8125,82.4063 307.5,83.4844 Q308.1875,84.5469 309.5313,84.5469 Q310.1563,84.5469 310.75,84.2813 Q311.3438,84 311.9688,83.4219 L311.9688,86.1406 Z " fill="#000000"/><text fill="#000000" font-family="sans-serif" font-size="12" lengthAdjust="spacing" textLength="86" x="323" y="84.6543">aws_resource</text><line style="stroke:#A80036;stroke-width:1.5;" x1="295" x2="411" y1="96.5" y2="96.5"/><ellipse cx="305" cy="107.5" rx="3" ry="3" style="stroke:#038048;stroke-width:1.0;fill:none;"/><text fill="#000000" font-family="sans-serif" font-size="11" lengthAdjust="spacing" textLength="60" x="314" y="110.7104">arn: string</text><line style="stroke:#A80036;stroke-width:1.5;" x1="295" x2="411" y1="117.3047" y2="117.3047"/><!--MD5=[8f8f8c7b24cd8b2c5c3032dd72cc6edd]
class aws_eks_nodegroup--><rect codeLine="17" fill="#FEFECE" filter="url(#fzpsby2yimopi)" height="73.6094" id="aws_eks_nodegroup" style="stroke:#A80036;stroke-width:1.5;" width="170" x="158" y="304"/><ellipse cx="177.95" cy="320" fill="#ADD1B2" rx="11" ry="11" style="stroke:#A80036;stroke-width:1.0;"/><path d="M180.9188,325.6406 Q180.3406,325.9375 179.7,326.0781 Q179.0594,326.2344 178.3563,326.2344 Q175.8563,326.2344 174.5281,324.5938 Q173.2156,322.9375 173.2156,319.8125 Q173.2156,316.6875 174.5281,315.0313 Q175.8563,313.375 178.3563,313.375 Q179.0594,313.375 179.7,313.5313 Q180.3563,313.6875 180.9188,313.9844 L180.9188,316.7031 Q180.2938,316.125 179.7,315.8594 Q179.1063,315.5781 178.4813,315.5781 Q177.1375,315.5781 176.45,316.6563 Q175.7625,317.7188 175.7625,319.8125 Q175.7625,321.9063 176.45,322.9844 Q177.1375,324.0469 178.4813,324.0469 Q179.1063,324.0469 179.7,323.7813 Q180.2938,323.5 180.9188,322.9219 L180.9188,325.6406 Z " fill="#000000"/><text fill="#000000" font-family="sans-serif" font-size="12" lengthAdjust="spacing" textLength="127" x="193.05" y="324.1543">aws_eks_nodegroup</text><line style="stroke:#A80036;stroke-width:1.5;" x1="159" x2="327" y1="336" y2="336"/><ellipse cx="169" cy="347" rx="3" ry="3" style="stroke:#038048;stroke-width:1.0;fill:none;"/><text fill="#000000" font-family="sans-serif" font-size="11" lengthAdjust="spacing" textLength="118" x="178" y="350.2104">cluster_name: string</text><ellipse cx="169" cy="359.8047" rx="3" ry="3" style="stroke:#038048;stroke-width:1.0;fill:none;"/><text fill="#000000" font-family="sans-serif" font-size="11" lengthAdjust="spacing" textLength="144" x="178" y="363.0151">nodegroup_status: string</text><line style="stroke:#A80036;stroke-width:1.5;" x1="159" x2="327" y1="369.6094" y2="369.6094"/><!--MD5=[f9d629399dc822488878c1a60db0872c]
reverse link aws_resource to aws_eks_nodegroup--><path codeLine="21" d="M331.28,144.17 C310.11,191.14 278.38,261.53 259.28,303.88 " fill="none" id="aws_resource-backto-aws_eks_nodegroup" style="stroke:#A80036;stroke-width:1.0;"/><polygon fill="none" points="324.91,141.28,339.51,125.92,337.67,147.03,324.91,141.28" style="stroke:#A80036;stroke-width:1.0;"/><!--MD5=[4f6d8ee6060245e48a7d4928862ee478]
reverse link resource to aws_eks_nodegroup--><path codeLine="22" d="M180.52,201.4 C197.05,238.07 214.5,276.78 226.74,303.94 " fill="none" id="resource-backto-aws_eks_nodegroup" style="stroke:#A80036;stroke-width:1.0;"/><polygon fill="none" points="174.08,204.17,172.25,183.06,186.85,198.41,174.08,204.17" style="stroke:#A80036;stroke-width:1.0;"/><!--MD5=[cc54501fc6c582b954e6ae54b535dde8]
@startuml
skinparam backgroundcolor transparent
class resource {
+ id: string
+ tags: dictionary[string, string]
+ name: string
+ ctime: datetime
+ age: trafo.duration_to_datetime
+ mtime: datetime
+ last_update: trafo.duration_to_datetime
+ atime: datetime
+ last_access: trafo.duration_to_datetime
+ kind: string
}
class aws_resource {
+ arn: string
}
class aws_eks_nodegroup {
+ cluster_name: string
+ nodegroup_status: string
}
aws_resource <|- - - aws_eks_nodegroup
resource <|- - - aws_eks_nodegroup
@enduml

PlantUML version 1.2021.16(Wed Dec 08 17:25:22 UTC 2021)
(GPL source distribution)
Java Runtime: OpenJDK Runtime Environment
JVM: OpenJDK 64-Bit Server VM
Default Encoding: UTF-8
Language: en
Country: null
--></g></svg>