<?xml version="1.0" encoding="UTF-8" standalone="no"?><svg xmlns="http://www.w3.org/2000/svg" xmlns:xlink="http://www.w3.org/1999/xlink" contentScriptType="application/ecmascript" contentStyleType="text/css" height="1144px" preserveAspectRatio="none" style="width:310px;height:1144px;background:#00000000;" version="1.1" viewBox="0 0 310 1144" width="310px" zoomAndPan="magnify"><defs/><g><!--MD5=[7f0ecf5f554433d3f2e1213379ac821c]
class resource--><rect codeLine="17" fill="#194875" height="275.8359" id="resource" rx="2.5" ry="2.5" style="stroke:#000000;stroke-width:1.5;" width="256" x="27" y="7"/><ellipse cx="110.25" cy="26.8945" fill="#1A83AF" rx="11" ry="11" style="stroke:#000000;stroke-width:1.0;"/><path d="M113.2188,32.5352 Q112.6406,32.832 112,32.9727 Q111.3594,33.1289 110.6563,33.1289 Q108.1563,33.1289 106.8281,31.4883 Q105.5156,29.832 105.5156,26.707 Q105.5156,23.582 106.8281,21.9258 Q108.1563,20.2695 110.6563,20.2695 Q111.3594,20.2695 112,20.4258 Q112.6563,20.582 113.2188,20.8789 L113.2188,23.5977 Q112.5938,23.0195 112,22.7539 Q111.4063,22.4727 110.7813,22.4727 Q109.4375,22.4727 108.75,23.5508 Q108.0625,24.6133 108.0625,26.707 Q108.0625,28.8008 108.75,29.8789 Q109.4375,30.9414 110.7813,30.9414 Q111.4063,30.9414 112,30.6758 Q112.5938,30.3945 113.2188,29.8164 L113.2188,32.5352 Z " fill="#000000"/><text fill="#FFE797" font-family="Helvetica" font-size="17" lengthAdjust="spacing" textLength="71" x="135.75" y="32.7798">resource</text><line style="stroke:#000000;stroke-width:1.5;" x1="28" x2="282" y1="46.7891" y2="46.7891"/><text fill="#FFE797" font-family="sans-serif" font-size="11" font-weight="bold" lengthAdjust="spacing" textLength="12" x="38" y="65.9995">id</text><text fill="#FFE797" font-family="sans-serif" font-size="11" lengthAdjust="spacing" textLength="41" x="50" y="65.9995">: string</text><text fill="#FFE797" font-family="sans-serif" font-size="11" font-weight="bold" lengthAdjust="spacing" textLength="28" x="38" y="88.8042">tags</text><text fill="#FFE797" font-family="sans-serif" font-size="11" lengthAdjust="spacing" textLength="145" x="66" y="88.8042">: dictionary[string, string]</text><text fill="#FFE797" font-family="sans-serif" font-size="11" font-weight="bold" lengthAdjust="spacing" textLength="35" x="38" y="111.6089">name</text><text fill="#FFE797" font-family="sans-serif" font-size="11" lengthAdjust="spacing" textLength="41" x="73" y="111.6089">: string</text><text fill="#FFE797" font-family="sans-serif" font-size="11" font-weight="bold" lengthAdjust="spacing" textLength="35" x="38" y="134.4136">ctime</text><text fill="#FFE797" font-family="sans-serif" font-size="11" lengthAdjust="spacing" textLength="58" x="73" y="134.4136">: datetime</text><text fill="#FFE797" font-family="sans-serif" font-size="11" font-weight="bold" lengthAdjust="spacing" textLength="24" x="38" y="157.2183">age</text><text fill="#FFE797" font-family="sans-serif" font-size="11" lengthAdjust="spacing" textLength="159" x="62" y="157.2183">: trafo.duration_to_datetime</text><text fill="#FFE797" font-family="sans-serif" font-size="11" font-weight="bold" lengthAdjust="spacing" textLength="39" x="38" y="180.0229">mtime</text><text fill="#FFE797" font-family="sans-serif" font-size="11" lengthAdjust="spacing" textLength="58" x="77" y="180.0229">: datetime</text><text fill="#FFE797" font-family="sans-serif" font-size="11" font-weight="bold" lengthAdjust="spacing" textLength="75" x="38" y="202.8276">last_update</text><text fill="#FFE797" font-family="sans-serif" font-size="11" lengthAdjust="spacing" textLength="159" x="113" y="202.8276">: trafo.duration_to_datetime</text><text fill="#FFE797" font-family="sans-serif" font-size="11" font-weight="bold" lengthAdjust="spacing" textLength="36" x="38" y="225.6323">atime</text><text fill="#FFE797" font-family="sans-serif" font-size="11" lengthAdjust="spacing" textLength="58" x="74" y="225.6323">: datetime</text><text fill="#FFE797" font-family="sans-serif" font-size="11" font-weight="bold" lengthAdjust="spacing" textLength="74" x="38" y="248.437">last_access</text><text fill="#FFE797" font-family="sans-serif" font-size="11" lengthAdjust="spacing" textLength="159" x="112" y="248.437">: trafo.duration_to_datetime</text><text fill="#FFE797" font-family="sans-serif" font-size="11" font-weight="bold" lengthAdjust="spacing" textLength="27" x="38" y="271.2417">kind</text><text fill="#FFE797" font-family="sans-serif" font-size="11" lengthAdjust="spacing" textLength="41" x="65" y="271.2417">: string</text><!--MD5=[cd869b34d688661372d713ff53dbac1f]
class account--><rect codeLine="29" fill="#194875" height="39.7891" id="account" rx="2.5" ry="2.5" style="stroke:#000000;stroke-width:1.5;" width="107" x="101.5" y="404"/><ellipse cx="116.5" cy="423.8945" fill="#1A83AF" rx="11" ry="11" style="stroke:#000000;stroke-width:1.0;"/><path d="M119.4688,429.5352 Q118.8906,429.832 118.25,429.9727 Q117.6094,430.1289 116.9063,430.1289 Q114.4063,430.1289 113.0781,428.4883 Q111.7656,426.832 111.7656,423.707 Q111.7656,420.582 113.0781,418.9258 Q114.4063,417.2695 116.9063,417.2695 Q117.6094,417.2695 118.25,417.4258 Q118.9063,417.582 119.4688,417.8789 L119.4688,420.5977 Q118.8438,420.0195 118.25,419.7539 Q117.6563,419.4727 117.0313,419.4727 Q115.6875,419.4727 115,420.5508 Q114.3125,421.6133 114.3125,423.707 Q114.3125,425.8008 115,426.8789 Q115.6875,427.9414 117.0313,427.9414 Q117.6563,427.9414 118.25,427.6758 Q118.8438,427.3945 119.4688,426.8164 L119.4688,429.5352 Z " fill="#000000"/><text fill="#FFE797" font-family="Helvetica" font-size="17" lengthAdjust="spacing" textLength="65" x="135.5" y="429.7798">account</text><!--MD5=[4617c00eee5669b088370cf9241a91df]
class aws_account--><rect codeLine="32" fill="#194875" height="572.2969" id="aws_account" rx="2.5" ry="2.5" style="stroke:#000000;stroke-width:1.5;" width="296" x="7" y="565"/><ellipse cx="92.25" cy="584.8945" fill="#1A83AF" rx="11" ry="11" style="stroke:#000000;stroke-width:1.0;"/><path d="M95.2188,590.5352 Q94.6406,590.832 94,590.9727 Q93.3594,591.1289 92.6563,591.1289 Q90.1563,591.1289 88.8281,589.4883 Q87.5156,587.832 87.5156,584.707 Q87.5156,581.582 88.8281,579.9258 Q90.1563,578.2695 92.6563,578.2695 Q93.3594,578.2695 94,578.4258 Q94.6563,578.582 95.2188,578.8789 L95.2188,581.5977 Q94.5938,581.0195 94,580.7539 Q93.4063,580.4727 92.7813,580.4727 Q91.4375,580.4727 90.75,581.5508 Q90.0625,582.6133 90.0625,584.707 Q90.0625,586.8008 90.75,587.8789 Q91.4375,588.9414 92.7813,588.9414 Q93.4063,588.9414 94,588.6758 Q94.5938,588.3945 95.2188,587.8164 L95.2188,590.5352 Z " fill="#000000"/><text fill="#FFE797" font-family="Helvetica" font-size="17" lengthAdjust="spacing" textLength="107" x="117.75" y="590.7798">aws_account</text><line style="stroke:#000000;stroke-width:1.5;" x1="8" x2="302" y1="604.7891" y2="604.7891"/><text fill="#FFE797" font-family="sans-serif" font-size="11" font-weight="bold" lengthAdjust="spacing" textLength="88" x="18" y="623.9995">account_alias</text><text fill="#FFE797" font-family="sans-serif" font-size="11" lengthAdjust="spacing" textLength="41" x="106" y="623.9995">: string</text><text fill="#FFE797" font-family="sans-serif" font-size="11" font-weight="bold" lengthAdjust="spacing" textLength="25" x="18" y="646.8042">role</text><text fill="#FFE797" font-family="sans-serif" font-size="11" lengthAdjust="spacing" textLength="41" x="43" y="646.8042">: string</text><text fill="#FFE797" font-family="sans-serif" font-size="11" font-weight="bold" lengthAdjust="spacing" textLength="35" x="18" y="669.6089">users</text><text fill="#FFE797" font-family="sans-serif" font-size="11" lengthAdjust="spacing" textLength="36" x="53" y="669.6089">: int64</text><text fill="#FFE797" font-family="sans-serif" font-size="11" font-weight="bold" lengthAdjust="spacing" textLength="44" x="18" y="692.4136">groups</text><text fill="#FFE797" font-family="sans-serif" font-size="11" lengthAdjust="spacing" textLength="36" x="62" y="692.4136">: int64</text><text fill="#FFE797" font-family="sans-serif" font-size="11" font-weight="bold" lengthAdjust="spacing" textLength="139" x="18" y="715.2183">account_mfa_enabled</text><text fill="#FFE797" font-family="sans-serif" font-size="11" lengthAdjust="spacing" textLength="36" x="157" y="715.2183">: int64</text><text fill="#FFE797" font-family="sans-serif" font-size="11" font-weight="bold" lengthAdjust="spacing" textLength="191" x="18" y="738.0229">account_access_keys_present</text><text fill="#FFE797" font-family="sans-serif" font-size="11" lengthAdjust="spacing" textLength="36" x="209" y="738.0229">: int64</text><text fill="#FFE797" font-family="sans-serif" font-size="11" font-weight="bold" lengthAdjust="spacing" textLength="238" x="18" y="760.8276">account_signing_certificates_present</text><text fill="#FFE797" font-family="sans-serif" font-size="11" lengthAdjust="spacing" textLength="36" x="256" y="760.8276">: int64</text><text fill="#FFE797" font-family="sans-serif" font-size="11" font-weight="bold" lengthAdjust="spacing" textLength="79" x="18" y="783.6323">mfa_devices</text><text fill="#FFE797" font-family="sans-serif" font-size="11" lengthAdjust="spacing" textLength="36" x="97" y="783.6323">: int64</text><text fill="#FFE797" font-family="sans-serif" font-size="11" font-weight="bold" lengthAdjust="spacing" textLength="126" x="18" y="806.437">mfa_devices_in_use</text><text fill="#FFE797" font-family="sans-serif" font-size="11" lengthAdjust="spacing" textLength="36" x="144" y="806.437">: int64</text><text fill="#FFE797" font-family="sans-serif" font-size="11" font-weight="bold" lengthAdjust="spacing" textLength="50" x="18" y="829.2417">policies</text><text fill="#FFE797" font-family="sans-serif" font-size="11" lengthAdjust="spacing" textLength="36" x="68" y="829.2417">: int64</text><text fill="#FFE797" font-family="sans-serif" font-size="11" font-weight="bold" lengthAdjust="spacing" textLength="145" x="18" y="852.0464">policy_versions_in_use</text><text fill="#FFE797" font-family="sans-serif" font-size="11" lengthAdjust="spacing" textLength="36" x="163" y="852.0464">: int64</text><text fill="#FFE797" font-family="sans-serif" font-size="11" font-weight="bold" lengthAdjust="spacing" textLength="198" x="18" y="874.8511">global_endpoint_token_version</text><text fill="#FFE797" font-family="sans-serif" font-size="11" lengthAdjust="spacing" textLength="36" x="216" y="874.8511">: int64</text><text fill="#FFE797" font-family="sans-serif" font-size="11" font-weight="bold" lengthAdjust="spacing" textLength="119" x="18" y="897.6558">server_certificates</text><text fill="#FFE797" font-family="sans-serif" font-size="11" lengthAdjust="spacing" textLength="36" x="137" y="897.6558">: int64</text><text fill="#FFE797" font-family="sans-serif" font-size="11" font-weight="bold" lengthAdjust="spacing" textLength="172" x="18" y="920.4604">minimum_password_length</text><text fill="#FFE797" font-family="sans-serif" font-size="11" lengthAdjust="spacing" textLength="36" x="190" y="920.4604">: int64</text><text fill="#FFE797" font-family="sans-serif" font-size="11" font-weight="bold" lengthAdjust="spacing" textLength="104" x="18" y="943.2651">require_symbols</text><text fill="#FFE797" font-family="sans-serif" font-size="11" lengthAdjust="spacing" textLength="53" x="122" y="943.2651">: boolean</text><text fill="#FFE797" font-family="sans-serif" font-size="11" font-weight="bold" lengthAdjust="spacing" textLength="107" x="18" y="966.0698">require_numbers</text><text fill="#FFE797" font-family="sans-serif" font-size="11" lengthAdjust="spacing" textLength="53" x="125" y="966.0698">: boolean</text><text fill="#FFE797" font-family="sans-serif" font-size="11" font-weight="bold" lengthAdjust="spacing" textLength="193" x="18" y="988.8745">require_uppercase_characters</text><text fill="#FFE797" font-family="sans-serif" font-size="11" lengthAdjust="spacing" textLength="53" x="211" y="988.8745">: boolean</text><text fill="#FFE797" font-family="sans-serif" font-size="11" font-weight="bold" lengthAdjust="spacing" textLength="192" x="18" y="1011.6792">require_lowercase_characters</text><text fill="#FFE797" font-family="sans-serif" font-size="11" lengthAdjust="spacing" textLength="53" x="210" y="1011.6792">: boolean</text><text fill="#FFE797" font-family="sans-serif" font-size="11" font-weight="bold" lengthAdjust="spacing" textLength="216" x="18" y="1034.4839">allow_users_to_change_password</text><text fill="#FFE797" font-family="sans-serif" font-size="11" lengthAdjust="spacing" textLength="53" x="234" y="1034.4839">: boolean</text><text fill="#FFE797" font-family="sans-serif" font-size="11" font-weight="bold" lengthAdjust="spacing" textLength="115" x="18" y="1057.2886">expire_passwords</text><text fill="#FFE797" font-family="sans-serif" font-size="11" lengthAdjust="spacing" textLength="53" x="133" y="1057.2886">: boolean</text><text fill="#FFE797" font-family="sans-serif" font-size="11" font-weight="bold" lengthAdjust="spacing" textLength="124" x="18" y="1080.0933">max_password_age</text><text fill="#FFE797" font-family="sans-serif" font-size="11" lengthAdjust="spacing" textLength="36" x="142" y="1080.0933">: int64</text><text fill="#FFE797" font-family="sans-serif" font-size="11" font-weight="bold" lengthAdjust="spacing" textLength="179" x="18" y="1102.8979">password_reuse_prevention</text><text fill="#FFE797" font-family="sans-serif" font-size="11" lengthAdjust="spacing" textLength="36" x="197" y="1102.8979">: int64</text><text fill="#FFE797" font-family="sans-serif" font-size="11" font-weight="bold" lengthAdjust="spacing" textLength="74" x="18" y="1125.7026">hard_expiry</text><text fill="#FFE797" font-family="sans-serif" font-size="11" lengthAdjust="spacing" textLength="53" x="92" y="1125.7026">: boolean</text><!--MD5=[62607f6f3c82c72f08ad8473d4c0997b]
reverse link resource to account--><path codeLine="57" d="M155,303.48 C155,343.73 155,381.81 155,403.75 " fill="none" id="resource-backto-account" style="stroke:#FFAF37;stroke-width:2.0;"/><polygon fill="none" points="148,303.28,155,283.28,162,303.28,148,303.28" style="stroke:#FFAF37;stroke-width:2.0;"/><!--MD5=[548072170966c3402771b29dae4e9483]
reverse link account to aws_account--><path codeLine="58" d="M155,464.38 C155,489.8 155,525.39 155,564.78 " fill="none" id="account-backto-aws_account" style="stroke:#FFAF37;stroke-width:2.0;"/><polygon fill="none" points="148,464.09,155,444.09,162,464.09,148,464.09" style="stroke:#FFAF37;stroke-width:2.0;"/><!--MD5=[4260588144c54eb5491ecccdfe9bb6b1]
@startuml
hide empty members
skinparam ArrowColor #ffaf37
skinparam ArrowThickness 2
skinparam BackgroundColor transparent
skinparam ClassAttributeFontColor #ffe797
skinparam ClassBackgroundColor #194875
skinparam ClassBorderColor Black
skinparam ClassFontColor #ffe797
skinparam ClassFontName Helvetica
skinparam ClassFontSize 17
skinparam Padding 5
skinparam RoundCorner 5
skinparam Shadowing false
skinparam stereotypeCBackgroundColor #1a83af
skinparam stereotypeIBackgroundColor #1a83af

class resource {
**id**: string
**tags**: dictionary[string, string]
**name**: string
**ctime**: datetime
**age**: trafo.duration_to_datetime
**mtime**: datetime
**last_update**: trafo.duration_to_datetime
**atime**: datetime
**last_access**: trafo.duration_to_datetime
**kind**: string
}
class account {

}
class aws_account {
**account_alias**: string
**role**: string
**users**: int64
**groups**: int64
**account_mfa_enabled**: int64
**account_access_keys_present**: int64
**account_signing_certificates_present**: int64
**mfa_devices**: int64
**mfa_devices_in_use**: int64
**policies**: int64
**policy_versions_in_use**: int64
**global_endpoint_token_version**: int64
**server_certificates**: int64
**minimum_password_length**: int64
**require_symbols**: boolean
**require_numbers**: boolean
**require_uppercase_characters**: boolean
**require_lowercase_characters**: boolean
**allow_users_to_change_password**: boolean
**expire_passwords**: boolean
**max_password_age**: int64
**password_reuse_prevention**: int64
**hard_expiry**: boolean
}
resource <|- - - account
account <|- - - aws_account
@enduml

PlantUML version 1.2021.16(Wed Dec 08 17:25:22 UTC 2021)
(GPL source distribution)
Java Runtime: OpenJDK Runtime Environment
JVM: OpenJDK 64-Bit Server VM
Default Encoding: UTF-8
Language: en
Country: null
--></g></svg>