<svg xmlns="http://www.w3.org/2000/svg" xmlns:xlink="http://www.w3.org/1999/xlink" width="460" height="504" contentScriptType="application/ecmascript" contentStyleType="text/css" style="width:460px;height:504px;background:#00000000" preserveAspectRatio="none" version="1.1" viewBox="0 0 460 504" zoomAndPan="magnify"><g><rect id="resource" width="256" height="275.836" x="7" y="7" fill="#194875" codeLine="17" rx="2.5" ry="2.5" style="stroke:#000;stroke-width:1.5"/><ellipse cx="90.25" cy="26.895" fill="#1A83AF" rx="11" ry="11" style="stroke:#000;stroke-width:1"/><path fill="#000" d="M93.2188,32.5352 Q92.6406,32.832 92,32.9727 Q91.3594,33.1289 90.6563,33.1289 Q88.1563,33.1289 86.8281,31.4883 Q85.5156,29.832 85.5156,26.707 Q85.5156,23.582 86.8281,21.9258 Q88.1563,20.2695 90.6563,20.2695 Q91.3594,20.2695 92,20.4258 Q92.6563,20.582 93.2188,20.8789 L93.2188,23.5977 Q92.5938,23.0195 92,22.7539 Q91.4063,22.4727 90.7813,22.4727 Q89.4375,22.4727 88.75,23.5508 Q88.0625,24.6133 88.0625,26.707 Q88.0625,28.8008 88.75,29.8789 Q89.4375,30.9414 90.7813,30.9414 Q91.4063,30.9414 92,30.6758 Q92.5938,30.3945 93.2188,29.8164 L93.2188,32.5352 Z"/><text x="115.75" y="32.78" fill="#FFE797" font-family="Helvetica" font-size="17" lengthAdjust="spacing" textLength="71">resource</text><line style="stroke:#000;stroke-width:1.5" x1="8" x2="262" y1="46.789" y2="46.789"/><text x="18" y="65.999" fill="#FFE797" font-family="sans-serif" font-size="11" font-weight="bold" lengthAdjust="spacing" textLength="12">id</text><text x="30" y="65.999" fill="#FFE797" font-family="sans-serif" font-size="11" lengthAdjust="spacing" textLength="41">: string</text><text x="18" y="88.804" fill="#FFE797" font-family="sans-serif" font-size="11" font-weight="bold" lengthAdjust="spacing" textLength="28">tags</text><text x="46" y="88.804" fill="#FFE797" font-family="sans-serif" font-size="11" lengthAdjust="spacing" textLength="145">: dictionary[string, string]</text><text x="18" y="111.609" fill="#FFE797" font-family="sans-serif" font-size="11" font-weight="bold" lengthAdjust="spacing" textLength="35">name</text><text x="53" y="111.609" fill="#FFE797" font-family="sans-serif" font-size="11" lengthAdjust="spacing" textLength="41">: string</text><text x="18" y="134.414" fill="#FFE797" font-family="sans-serif" font-size="11" font-weight="bold" lengthAdjust="spacing" textLength="35">ctime</text><text x="53" y="134.414" fill="#FFE797" font-family="sans-serif" font-size="11" lengthAdjust="spacing" textLength="58">: datetime</text><text x="18" y="157.218" fill="#FFE797" font-family="sans-serif" font-size="11" font-weight="bold" lengthAdjust="spacing" textLength="24">age</text><text x="42" y="157.218" fill="#FFE797" font-family="sans-serif" font-size="11" lengthAdjust="spacing" textLength="159">: trafo.duration_to_datetime</text><text x="18" y="180.023" fill="#FFE797" font-family="sans-serif" font-size="11" font-weight="bold" lengthAdjust="spacing" textLength="39">mtime</text><text x="57" y="180.023" fill="#FFE797" font-family="sans-serif" font-size="11" lengthAdjust="spacing" textLength="58">: datetime</text><text x="18" y="202.828" fill="#FFE797" font-family="sans-serif" font-size="11" font-weight="bold" lengthAdjust="spacing" textLength="75">last_update</text><text x="93" y="202.828" fill="#FFE797" font-family="sans-serif" font-size="11" lengthAdjust="spacing" textLength="159">: trafo.duration_to_datetime</text><text x="18" y="225.632" fill="#FFE797" font-family="sans-serif" font-size="11" font-weight="bold" lengthAdjust="spacing" textLength="36">atime</text><text x="54" y="225.632" fill="#FFE797" font-family="sans-serif" font-size="11" lengthAdjust="spacing" textLength="58">: datetime</text><text x="18" y="248.437" fill="#FFE797" font-family="sans-serif" font-size="11" font-weight="bold" lengthAdjust="spacing" textLength="74">last_access</text><text x="92" y="248.437" fill="#FFE797" font-family="sans-serif" font-size="11" lengthAdjust="spacing" textLength="159">: trafo.duration_to_datetime</text><text x="18" y="271.242" fill="#FFE797" font-family="sans-serif" font-size="11" font-weight="bold" lengthAdjust="spacing" textLength="27">kind</text><text x="45" y="271.242" fill="#FFE797" font-family="sans-serif" font-size="11" lengthAdjust="spacing" textLength="41">: string</text><rect id="aws_resource" width="155" height="70.594" x="298.5" y="109.5" fill="#194875" codeLine="29" rx="2.5" ry="2.5" style="stroke:#000;stroke-width:1.5"/><ellipse cx="313.5" cy="129.394" fill="#1A83AF" rx="11" ry="11" style="stroke:#000;stroke-width:1"/><path fill="#000" d="M316.4688,135.0352 Q315.8906,135.332 315.25,135.4727 Q314.6094,135.6289 313.9063,135.6289 Q311.4063,135.6289 310.0781,133.9883 Q308.7656,132.332 308.7656,129.207 Q308.7656,126.082 310.0781,124.4258 Q311.4063,122.7695 313.9063,122.7695 Q314.6094,122.7695 315.25,122.9258 Q315.9063,123.082 316.4688,123.3789 L316.4688,126.0977 Q315.8438,125.5195 315.25,125.2539 Q314.6563,124.9727 314.0313,124.9727 Q312.6875,124.9727 312,126.0508 Q311.3125,127.1133 311.3125,129.207 Q311.3125,131.3008 312,132.3789 Q312.6875,133.4414 314.0313,133.4414 Q314.6563,133.4414 315.25,133.1758 Q315.8438,132.8945 316.4688,132.3164 L316.4688,135.0352 Z"/><text x="332.5" y="135.28" fill="#FFE797" font-family="Helvetica" font-size="17" lengthAdjust="spacing" textLength="113">aws_resource</text><line style="stroke:#000;stroke-width:1.5" x1="299.5" x2="452.5" y1="149.289" y2="149.289"/><text x="309.5" y="168.5" fill="#FFE797" font-family="sans-serif" font-size="11" font-weight="bold" lengthAdjust="spacing" textLength="21">arn</text><text x="330.5" y="168.5" fill="#FFE797" font-family="sans-serif" font-size="11" lengthAdjust="spacing" textLength="41">: string</text><rect id="aws_eks_nodegroup" width="210" height="93.398" x="150" y="404" fill="#194875" codeLine="32" rx="2.5" ry="2.5" style="stroke:#000;stroke-width:1.5"/><ellipse cx="165" cy="423.894" fill="#1A83AF" rx="11" ry="11" style="stroke:#000;stroke-width:1"/><path fill="#000" d="M167.9688,429.5352 Q167.3906,429.832 166.75,429.9727 Q166.1094,430.1289 165.4063,430.1289 Q162.9063,430.1289 161.5781,428.4883 Q160.2656,426.832 160.2656,423.707 Q160.2656,420.582 161.5781,418.9258 Q162.9063,417.2695 165.4063,417.2695 Q166.1094,417.2695 166.75,417.4258 Q167.4063,417.582 167.9688,417.8789 L167.9688,420.5977 Q167.3438,420.0195 166.75,419.7539 Q166.1563,419.4727 165.5313,419.4727 Q164.1875,419.4727 163.5,420.5508 Q162.8125,421.6133 162.8125,423.707 Q162.8125,425.8008 163.5,426.8789 Q164.1875,427.9414 165.5313,427.9414 Q166.1563,427.9414 166.75,427.6758 Q167.3438,427.3945 167.9688,426.8164 L167.9688,429.5352 Z"/><text x="184" y="429.78" fill="#FFE797" font-family="Helvetica" font-size="17" lengthAdjust="spacing" textLength="168">aws_eks_nodegroup</text><line style="stroke:#000;stroke-width:1.5" x1="151" x2="359" y1="443.789" y2="443.789"/><text x="161" y="463" fill="#FFE797" font-family="sans-serif" font-size="11" font-weight="bold" lengthAdjust="spacing" textLength="85">cluster_name</text><text x="246" y="463" fill="#FFE797" font-family="sans-serif" font-size="11" lengthAdjust="spacing" textLength="41">: string</text><text x="161" y="485.804" fill="#FFE797" font-family="sans-serif" font-size="11" font-weight="bold" lengthAdjust="spacing" textLength="115">nodegroup_status</text><text x="276" y="485.804" fill="#FFE797" font-family="sans-serif" font-size="11" lengthAdjust="spacing" textLength="41">: string</text><path id="aws_resource-backto-aws_eks_nodegroup" fill="none" d="M354.81,199.15 C331.68,257.16 295.04,349.08 273.17,403.92" codeLine="36" style="stroke:#ffaf37;stroke-width:2"/><polygon fill="none" points="348.33 196.51 362.24 180.52 361.33 201.69 348.33 196.51" style="stroke:#ffaf37;stroke-width:2"/><path id="resource-backto-aws_eks_nodegroup" fill="none" d="M196.56,301.7 C211.32,339.02 225.95,376.02 236.88,403.66" codeLine="37" style="stroke:#ffaf37;stroke-width:2"/><polygon fill="none" points="190.05 304.27 189.21 283.1 203.07 299.12 190.05 304.27" style="stroke:#ffaf37;stroke-width:2"/></g></svg>