<?xml version="1.0" encoding="UTF-8" standalone="no"?><svg xmlns="http://www.w3.org/2000/svg" xmlns:xlink="http://www.w3.org/1999/xlink" contentScriptType="application/ecmascript" contentStyleType="text/css" height="625px" preserveAspectRatio="none" style="width:405px;height:625px;background:#00000000;" version="1.1" viewBox="0 0 405 625" width="405px" zoomAndPan="magnify"><defs><filter height="300%" id="fdf1hvncp56ua" width="300%" x="-1" y="-1"><feGaussianBlur result="blurOut" stdDeviation="2.0"/><feColorMatrix in="blurOut" result="blurOut2" type="matrix" values="0 0 0 0 0 0 0 0 0 0 0 0 0 0 0 0 0 0 .4 0"/><feOffset dx="4.0" dy="4.0" in="blurOut2" result="blurOut3"/><feBlend in="SourceGraphic" in2="blurOut3" mode="normal"/></filter></defs><g><!--MD5=[7f0ecf5f554433d3f2e1213379ac821c]
class resource--><rect codeLine="2" fill="#FEFECE" filter="url(#fdf1hvncp56ua)" height="176.0469" id="resource" style="stroke:#A80036;stroke-width:1.5;" width="252" x="7" y="7"/><ellipse cx="100.75" cy="23" fill="#ADD1B2" rx="11" ry="11" style="stroke:#A80036;stroke-width:1.0;"/><path d="M103.7188,28.6406 Q103.1406,28.9375 102.5,29.0781 Q101.8594,29.2344 101.1563,29.2344 Q98.6563,29.2344 97.3281,27.5938 Q96.0156,25.9375 96.0156,22.8125 Q96.0156,19.6875 97.3281,18.0313 Q98.6563,16.375 101.1563,16.375 Q101.8594,16.375 102.5,16.5313 Q103.1563,16.6875 103.7188,16.9844 L103.7188,19.7031 Q103.0938,19.125 102.5,18.8594 Q101.9063,18.5781 101.2813,18.5781 Q99.9375,18.5781 99.25,19.6563 Q98.5625,20.7188 98.5625,22.8125 Q98.5625,24.9063 99.25,25.9844 Q99.9375,27.0469 101.2813,27.0469 Q101.9063,27.0469 102.5,26.7813 Q103.0938,26.5 103.7188,25.9219 L103.7188,28.6406 Z " fill="#000000"/><text fill="#000000" font-family="sans-serif" font-size="12" lengthAdjust="spacing" textLength="56" x="121.25" y="27.1543">resource</text><line style="stroke:#A80036;stroke-width:1.5;" x1="8" x2="258" y1="39" y2="39"/><ellipse cx="18" cy="50" rx="3" ry="3" style="stroke:#038048;stroke-width:1.0;fill:none;"/><text fill="#000000" font-family="sans-serif" font-size="11" lengthAdjust="spacing" textLength="51" x="27" y="53.2104">id: string</text><ellipse cx="18" cy="62.8047" rx="3" ry="3" style="stroke:#038048;stroke-width:1.0;fill:none;"/><text fill="#000000" font-family="sans-serif" font-size="11" lengthAdjust="spacing" textLength="170" x="27" y="66.0151">tags: dictionary[string, string]</text><ellipse cx="18" cy="75.6094" rx="3" ry="3" style="stroke:#038048;stroke-width:1.0;fill:none;"/><text fill="#000000" font-family="sans-serif" font-size="11" lengthAdjust="spacing" textLength="73" x="27" y="78.8198">name: string</text><ellipse cx="18" cy="88.4141" rx="3" ry="3" style="stroke:#038048;stroke-width:1.0;fill:none;"/><text fill="#000000" font-family="sans-serif" font-size="11" lengthAdjust="spacing" textLength="89" x="27" y="91.6245">ctime: datetime</text><ellipse cx="18" cy="101.2188" rx="3" ry="3" style="stroke:#038048;stroke-width:1.0;fill:none;"/><text fill="#000000" font-family="sans-serif" font-size="11" lengthAdjust="spacing" textLength="180" x="27" y="104.4292">age: trafo.duration_to_datetime</text><ellipse cx="18" cy="114.0234" rx="3" ry="3" style="stroke:#038048;stroke-width:1.0;fill:none;"/><text fill="#000000" font-family="sans-serif" font-size="11" lengthAdjust="spacing" textLength="94" x="27" y="117.2339">mtime: datetime</text><ellipse cx="18" cy="126.8281" rx="3" ry="3" style="stroke:#038048;stroke-width:1.0;fill:none;"/><text fill="#000000" font-family="sans-serif" font-size="11" lengthAdjust="spacing" textLength="225" x="27" y="130.0386">last_update: trafo.duration_to_datetime</text><ellipse cx="18" cy="139.6328" rx="3" ry="3" style="stroke:#038048;stroke-width:1.0;fill:none;"/><text fill="#000000" font-family="sans-serif" font-size="11" lengthAdjust="spacing" textLength="90" x="27" y="142.8433">atime: datetime</text><ellipse cx="18" cy="152.4375" rx="3" ry="3" style="stroke:#038048;stroke-width:1.0;fill:none;"/><text fill="#000000" font-family="sans-serif" font-size="11" lengthAdjust="spacing" textLength="226" x="27" y="155.6479">last_access: trafo.duration_to_datetime</text><ellipse cx="18" cy="165.2422" rx="3" ry="3" style="stroke:#038048;stroke-width:1.0;fill:none;"/><text fill="#000000" font-family="sans-serif" font-size="11" lengthAdjust="spacing" textLength="64" x="27" y="168.4526">kind: string</text><line style="stroke:#A80036;stroke-width:1.5;" x1="8" x2="258" y1="175.0469" y2="175.0469"/><!--MD5=[c069b88079f3e36515859a1683f3923c]
class aws_resource--><rect codeLine="14" fill="#FEFECE" filter="url(#fdf1hvncp56ua)" height="60.8047" id="aws_resource" style="stroke:#A80036;stroke-width:1.5;" width="118" x="273" y="342.5"/><ellipse cx="288" cy="358.5" fill="#ADD1B2" rx="11" ry="11" style="stroke:#A80036;stroke-width:1.0;"/><path d="M290.9688,364.1406 Q290.3906,364.4375 289.75,364.5781 Q289.1094,364.7344 288.4063,364.7344 Q285.9063,364.7344 284.5781,363.0938 Q283.2656,361.4375 283.2656,358.3125 Q283.2656,355.1875 284.5781,353.5313 Q285.9063,351.875 288.4063,351.875 Q289.1094,351.875 289.75,352.0313 Q290.4063,352.1875 290.9688,352.4844 L290.9688,355.2031 Q290.3438,354.625 289.75,354.3594 Q289.1563,354.0781 288.5313,354.0781 Q287.1875,354.0781 286.5,355.1563 Q285.8125,356.2188 285.8125,358.3125 Q285.8125,360.4063 286.5,361.4844 Q287.1875,362.5469 288.5313,362.5469 Q289.1563,362.5469 289.75,362.2813 Q290.3438,362 290.9688,361.4219 L290.9688,364.1406 Z " fill="#000000"/><text fill="#000000" font-family="sans-serif" font-size="12" lengthAdjust="spacing" textLength="86" x="302" y="362.6543">aws_resource</text><line style="stroke:#A80036;stroke-width:1.5;" x1="274" x2="390" y1="374.5" y2="374.5"/><ellipse cx="284" cy="385.5" rx="3" ry="3" style="stroke:#038048;stroke-width:1.0;fill:none;"/><text fill="#000000" font-family="sans-serif" font-size="11" lengthAdjust="spacing" textLength="60" x="293" y="388.7104">arn: string</text><line style="stroke:#A80036;stroke-width:1.5;" x1="274" x2="390" y1="395.3047" y2="395.3047"/><!--MD5=[33fca66cf3cebaf2a83668deec83d6d2]
class network_interface--><rect codeLine="17" fill="#FEFECE" filter="url(#fdf1hvncp56ua)" height="137.6328" id="network_interface" style="stroke:#A80036;stroke-width:1.5;" width="210" x="28" y="304"/><ellipse cx="72.75" cy="320" fill="#ADD1B2" rx="11" ry="11" style="stroke:#A80036;stroke-width:1.0;"/><path d="M75.7188,325.6406 Q75.1406,325.9375 74.5,326.0781 Q73.8594,326.2344 73.1563,326.2344 Q70.6563,326.2344 69.3281,324.5938 Q68.0156,322.9375 68.0156,319.8125 Q68.0156,316.6875 69.3281,315.0313 Q70.6563,313.375 73.1563,313.375 Q73.8594,313.375 74.5,313.5313 Q75.1563,313.6875 75.7188,313.9844 L75.7188,316.7031 Q75.0938,316.125 74.5,315.8594 Q73.9063,315.5781 73.2813,315.5781 Q71.9375,315.5781 71.25,316.6563 Q70.5625,317.7188 70.5625,319.8125 Q70.5625,321.9063 71.25,322.9844 Q71.9375,324.0469 73.2813,324.0469 Q73.9063,324.0469 74.5,323.7813 Q75.0938,323.5 75.7188,322.9219 L75.7188,325.6406 Z " fill="#000000"/><text fill="#000000" font-family="sans-serif" font-size="12" lengthAdjust="spacing" textLength="112" x="93.25" y="324.1543">network_interface</text><line style="stroke:#A80036;stroke-width:1.5;" x1="29" x2="237" y1="336" y2="336"/><ellipse cx="39" cy="347" rx="3" ry="3" style="stroke:#038048;stroke-width:1.0;fill:none;"/><text fill="#000000" font-family="sans-serif" font-size="11" lengthAdjust="spacing" textLength="184" x="48" y="350.2104">network_interface_status: string</text><ellipse cx="39" cy="359.8047" rx="3" ry="3" style="stroke:#038048;stroke-width:1.0;fill:none;"/><text fill="#000000" font-family="sans-serif" font-size="11" lengthAdjust="spacing" textLength="172" x="48" y="363.0151">network_interface_type: string</text><ellipse cx="39" cy="372.6094" rx="3" ry="3" style="stroke:#038048;stroke-width:1.0;fill:none;"/><text fill="#000000" font-family="sans-serif" font-size="11" lengthAdjust="spacing" textLength="65" x="48" y="375.8198">mac: string</text><ellipse cx="39" cy="385.4141" rx="3" ry="3" style="stroke:#038048;stroke-width:1.0;fill:none;"/><text fill="#000000" font-family="sans-serif" font-size="11" lengthAdjust="spacing" textLength="111" x="48" y="388.6245">private_ips: string[]</text><ellipse cx="39" cy="398.2188" rx="3" ry="3" style="stroke:#038048;stroke-width:1.0;fill:none;"/><text fill="#000000" font-family="sans-serif" font-size="11" lengthAdjust="spacing" textLength="105" x="48" y="401.4292">public_ips: string[]</text><ellipse cx="39" cy="411.0234" rx="3" ry="3" style="stroke:#038048;stroke-width:1.0;fill:none;"/><text fill="#000000" font-family="sans-serif" font-size="11" lengthAdjust="spacing" textLength="85" x="48" y="414.2339">v6_ips: string[]</text><ellipse cx="39" cy="423.8281" rx="3" ry="3" style="stroke:#038048;stroke-width:1.0;fill:none;"/><text fill="#000000" font-family="sans-serif" font-size="11" lengthAdjust="spacing" textLength="104" x="48" y="427.0386">description: string</text><line style="stroke:#A80036;stroke-width:1.5;" x1="29" x2="237" y1="433.6328" y2="433.6328"/><!--MD5=[d26bceef62e8dfaa86056b8af24063e1]
class aws_ec2_network_interface--><rect codeLine="26" fill="#FEFECE" filter="url(#fdf1hvncp56ua)" height="48" id="aws_ec2_network_interface" style="stroke:#A80036;stroke-width:1.5;" width="203" x="162.5" y="563"/><ellipse cx="177.5" cy="579" fill="#ADD1B2" rx="11" ry="11" style="stroke:#A80036;stroke-width:1.0;"/><path d="M180.4688,584.6406 Q179.8906,584.9375 179.25,585.0781 Q178.6094,585.2344 177.9063,585.2344 Q175.4063,585.2344 174.0781,583.5938 Q172.7656,581.9375 172.7656,578.8125 Q172.7656,575.6875 174.0781,574.0313 Q175.4063,572.375 177.9063,572.375 Q178.6094,572.375 179.25,572.5313 Q179.9063,572.6875 180.4688,572.9844 L180.4688,575.7031 Q179.8438,575.125 179.25,574.8594 Q178.6563,574.5781 178.0313,574.5781 Q176.6875,574.5781 176,575.6563 Q175.3125,576.7188 175.3125,578.8125 Q175.3125,580.9063 176,581.9844 Q176.6875,583.0469 178.0313,583.0469 Q178.6563,583.0469 179.25,582.7813 Q179.8438,582.5 180.4688,581.9219 L180.4688,584.6406 Z " fill="#000000"/><text fill="#000000" font-family="sans-serif" font-size="12" lengthAdjust="spacing" textLength="171" x="191.5" y="583.1543">aws_ec2_network_interface</text><line style="stroke:#A80036;stroke-width:1.5;" x1="163.5" x2="364.5" y1="595" y2="595"/><line style="stroke:#A80036;stroke-width:1.5;" x1="163.5" x2="364.5" y1="603" y2="603"/><!--MD5=[d8497eb0c5bb4f4c51500c018fb82605]
reverse link resource to network_interface--><path codeLine="29" d="M133,203.36 C133,237.07 133,273.36 133,303.6 " fill="none" id="resource-backto-network_interface" style="stroke:#A80036;stroke-width:1.0;"/><polygon fill="none" points="126,203.33,133,183.33,140,203.33,126,203.33" style="stroke:#A80036;stroke-width:1.0;"/><!--MD5=[d8d0ddd3f067a1f6fde528a054c9446c]
reverse link aws_resource to aws_ec2_network_interface--><path codeLine="30" d="M316.22,423.2 C302.15,467.07 282.16,529.37 271.46,562.75 " fill="none" id="aws_resource-backto-aws_ec2_network_interface" style="stroke:#A80036;stroke-width:1.0;"/><polygon fill="none" points="309.63,420.83,322.4,403.92,322.96,425.11,309.63,420.83" style="stroke:#A80036;stroke-width:1.0;"/><!--MD5=[dbc0a5e073c180b2f0f5199990b3d8f2]
reverse link network_interface to aws_ec2_network_interface--><path codeLine="31" d="M185.8,459.44 C208.98,496.96 234.37,538.04 249.74,562.92 " fill="none" id="network_interface-backto-aws_ec2_network_interface" style="stroke:#A80036;stroke-width:1.0;"/><polygon fill="none" points="179.73,462.94,175.17,442.25,191.64,455.58,179.73,462.94" style="stroke:#A80036;stroke-width:1.0;"/><!--MD5=[e7f1d5ae174586fe1316b58490a283b8]
@startuml
skinparam backgroundcolor transparent
class resource {
+ id: string
+ tags: dictionary[string, string]
+ name: string
+ ctime: datetime
+ age: trafo.duration_to_datetime
+ mtime: datetime
+ last_update: trafo.duration_to_datetime
+ atime: datetime
+ last_access: trafo.duration_to_datetime
+ kind: string
}
class aws_resource {
+ arn: string
}
class network_interface {
+ network_interface_status: string
+ network_interface_type: string
+ mac: string
+ private_ips: string[]
+ public_ips: string[]
+ v6_ips: string[]
+ description: string
}
class aws_ec2_network_interface {

}
resource <|- - - network_interface
aws_resource <|- - - aws_ec2_network_interface
network_interface <|- - - aws_ec2_network_interface
@enduml

PlantUML version 1.2021.16(Wed Dec 08 17:25:22 UTC 2021)
(GPL source distribution)
Java Runtime: OpenJDK Runtime Environment
JVM: OpenJDK 64-Bit Server VM
Default Encoding: UTF-8
Language: en
Country: null
--></g></svg>