<svg xmlns="http://www.w3.org/2000/svg" xmlns:xlink="http://www.w3.org/1999/xlink" width="395" height="673" contentScriptType="application/ecmascript" contentStyleType="text/css" style="width:395px;height:673px;background:#00000000" preserveAspectRatio="none" version="1.1" viewBox="0 0 395 673" zoomAndPan="magnify"><g><rect id="resource" width="256" height="275.836" x="7" y="7" fill="#194875" codeLine="17" rx="2.5" ry="2.5" style="stroke:#000;stroke-width:1.5"/><ellipse cx="90.25" cy="26.895" fill="#1A83AF" rx="11" ry="11" style="stroke:#000;stroke-width:1"/><path fill="#000" d="M93.2188,32.5352 Q92.6406,32.832 92,32.9727 Q91.3594,33.1289 90.6563,33.1289 Q88.1563,33.1289 86.8281,31.4883 Q85.5156,29.832 85.5156,26.707 Q85.5156,23.582 86.8281,21.9258 Q88.1563,20.2695 90.6563,20.2695 Q91.3594,20.2695 92,20.4258 Q92.6563,20.582 93.2188,20.8789 L93.2188,23.5977 Q92.5938,23.0195 92,22.7539 Q91.4063,22.4727 90.7813,22.4727 Q89.4375,22.4727 88.75,23.5508 Q88.0625,24.6133 88.0625,26.707 Q88.0625,28.8008 88.75,29.8789 Q89.4375,30.9414 90.7813,30.9414 Q91.4063,30.9414 92,30.6758 Q92.5938,30.3945 93.2188,29.8164 L93.2188,32.5352 Z"/><text x="115.75" y="32.78" fill="#FFE797" font-family="Helvetica" font-size="17" lengthAdjust="spacing" textLength="71">resource</text><line style="stroke:#000;stroke-width:1.5" x1="8" x2="262" y1="46.789" y2="46.789"/><text x="18" y="65.999" fill="#FFE797" font-family="sans-serif" font-size="11" font-weight="bold" lengthAdjust="spacing" textLength="12">id</text><text x="30" y="65.999" fill="#FFE797" font-family="sans-serif" font-size="11" lengthAdjust="spacing" textLength="41">: string</text><text x="18" y="88.804" fill="#FFE797" font-family="sans-serif" font-size="11" font-weight="bold" lengthAdjust="spacing" textLength="28">tags</text><text x="46" y="88.804" fill="#FFE797" font-family="sans-serif" font-size="11" lengthAdjust="spacing" textLength="145">: dictionary[string, string]</text><text x="18" y="111.609" fill="#FFE797" font-family="sans-serif" font-size="11" font-weight="bold" lengthAdjust="spacing" textLength="35">name</text><text x="53" y="111.609" fill="#FFE797" font-family="sans-serif" font-size="11" lengthAdjust="spacing" textLength="41">: string</text><text x="18" y="134.414" fill="#FFE797" font-family="sans-serif" font-size="11" font-weight="bold" lengthAdjust="spacing" textLength="35">ctime</text><text x="53" y="134.414" fill="#FFE797" font-family="sans-serif" font-size="11" lengthAdjust="spacing" textLength="58">: datetime</text><text x="18" y="157.218" fill="#FFE797" font-family="sans-serif" font-size="11" font-weight="bold" lengthAdjust="spacing" textLength="24">age</text><text x="42" y="157.218" fill="#FFE797" font-family="sans-serif" font-size="11" lengthAdjust="spacing" textLength="159">: trafo.duration_to_datetime</text><text x="18" y="180.023" fill="#FFE797" font-family="sans-serif" font-size="11" font-weight="bold" lengthAdjust="spacing" textLength="39">mtime</text><text x="57" y="180.023" fill="#FFE797" font-family="sans-serif" font-size="11" lengthAdjust="spacing" textLength="58">: datetime</text><text x="18" y="202.828" fill="#FFE797" font-family="sans-serif" font-size="11" font-weight="bold" lengthAdjust="spacing" textLength="75">last_update</text><text x="93" y="202.828" fill="#FFE797" font-family="sans-serif" font-size="11" lengthAdjust="spacing" textLength="159">: trafo.duration_to_datetime</text><text x="18" y="225.632" fill="#FFE797" font-family="sans-serif" font-size="11" font-weight="bold" lengthAdjust="spacing" textLength="36">atime</text><text x="54" y="225.632" fill="#FFE797" font-family="sans-serif" font-size="11" lengthAdjust="spacing" textLength="58">: datetime</text><text x="18" y="248.437" fill="#FFE797" font-family="sans-serif" font-size="11" font-weight="bold" lengthAdjust="spacing" textLength="74">last_access</text><text x="92" y="248.437" fill="#FFE797" font-family="sans-serif" font-size="11" lengthAdjust="spacing" textLength="159">: trafo.duration_to_datetime</text><text x="18" y="271.242" fill="#FFE797" font-family="sans-serif" font-size="11" font-weight="bold" lengthAdjust="spacing" textLength="27">kind</text><text x="45" y="271.242" fill="#FFE797" font-family="sans-serif" font-size="11" lengthAdjust="spacing" textLength="41">: string</text><rect id="aws_iam_server_certificate" width="269" height="70.594" x="114.5" y="596" fill="#194875" codeLine="29" rx="2.5" ry="2.5" style="stroke:#000;stroke-width:1.5"/><ellipse cx="129.5" cy="615.894" fill="#1A83AF" rx="11" ry="11" style="stroke:#000;stroke-width:1"/><path fill="#000" d="M132.4688,621.5352 Q131.8906,621.832 131.25,621.9727 Q130.6094,622.1289 129.9063,622.1289 Q127.4063,622.1289 126.0781,620.4883 Q124.7656,618.832 124.7656,615.707 Q124.7656,612.582 126.0781,610.9258 Q127.4063,609.2695 129.9063,609.2695 Q130.6094,609.2695 131.25,609.4258 Q131.9063,609.582 132.4688,609.8789 L132.4688,612.5977 Q131.8438,612.0195 131.25,611.7539 Q130.6563,611.4727 130.0313,611.4727 Q128.6875,611.4727 128,612.5508 Q127.3125,613.6133 127.3125,615.707 Q127.3125,617.8008 128,618.8789 Q128.6875,619.9414 130.0313,619.9414 Q130.6563,619.9414 131.25,619.6758 Q131.8438,619.3945 132.4688,618.8164 L132.4688,621.5352 Z"/><text x="148.5" y="621.78" fill="#FFE797" font-family="Helvetica" font-size="17" lengthAdjust="spacing" textLength="227">aws_iam_server_certificate</text><line style="stroke:#000;stroke-width:1.5" x1="115.5" x2="382.5" y1="635.789" y2="635.789"/><text x="125.5" y="655" fill="#FFE797" font-family="sans-serif" font-size="11" font-weight="bold" lengthAdjust="spacing" textLength="29">path</text><text x="154.5" y="655" fill="#FFE797" font-family="sans-serif" font-size="11" lengthAdjust="spacing" textLength="41">: string</text><rect id="aws_resource" width="155" height="70.594" x="233.5" y="404" fill="#194875" codeLine="32" rx="2.5" ry="2.5" style="stroke:#000;stroke-width:1.5"/><ellipse cx="248.5" cy="423.894" fill="#1A83AF" rx="11" ry="11" style="stroke:#000;stroke-width:1"/><path fill="#000" d="M251.4688,429.5352 Q250.8906,429.832 250.25,429.9727 Q249.6094,430.1289 248.9063,430.1289 Q246.4063,430.1289 245.0781,428.4883 Q243.7656,426.832 243.7656,423.707 Q243.7656,420.582 245.0781,418.9258 Q246.4063,417.2695 248.9063,417.2695 Q249.6094,417.2695 250.25,417.4258 Q250.9063,417.582 251.4688,417.8789 L251.4688,420.5977 Q250.8438,420.0195 250.25,419.7539 Q249.6563,419.4727 249.0313,419.4727 Q247.6875,419.4727 247,420.5508 Q246.3125,421.6133 246.3125,423.707 Q246.3125,425.8008 247,426.8789 Q247.6875,427.9414 249.0313,427.9414 Q249.6563,427.9414 250.25,427.6758 Q250.8438,427.3945 251.4688,426.8164 L251.4688,429.5352 Z"/><text x="267.5" y="429.78" fill="#FFE797" font-family="Helvetica" font-size="17" lengthAdjust="spacing" textLength="113">aws_resource</text><line style="stroke:#000;stroke-width:1.5" x1="234.5" x2="387.5" y1="443.789" y2="443.789"/><text x="244.5" y="463" fill="#FFE797" font-family="sans-serif" font-size="11" font-weight="bold" lengthAdjust="spacing" textLength="21">arn</text><text x="265.5" y="463" fill="#FFE797" font-family="sans-serif" font-size="11" lengthAdjust="spacing" textLength="41">: string</text><rect id="certificate" width="127" height="70.594" x="71.5" y="404" fill="#194875" codeLine="35" rx="2.5" ry="2.5" style="stroke:#000;stroke-width:1.5"/><ellipse cx="87.4" cy="423.894" fill="#1A83AF" rx="11" ry="11" style="stroke:#000;stroke-width:1"/><path fill="#000" d="M90.3688,429.5352 Q89.7906,429.832 89.15,429.9727 Q88.5094,430.1289 87.8063,430.1289 Q85.3063,430.1289 83.9781,428.4883 Q82.6656,426.832 82.6656,423.707 Q82.6656,420.582 83.9781,418.9258 Q85.3063,417.2695 87.8063,417.2695 Q88.5094,417.2695 89.15,417.4258 Q89.8063,417.582 90.3688,417.8789 L90.3688,420.5977 Q89.7438,420.0195 89.15,419.7539 Q88.5563,419.4727 87.9313,419.4727 Q86.5875,419.4727 85.9,420.5508 Q85.2125,421.6133 85.2125,423.707 Q85.2125,425.8008 85.9,426.8789 Q86.5875,427.9414 87.9313,427.9414 Q88.5563,427.9414 89.15,427.6758 Q89.7438,427.3945 90.3688,426.8164 L90.3688,429.5352 Z"/><text x="106.6" y="429.78" fill="#FFE797" font-family="Helvetica" font-size="17" lengthAdjust="spacing" textLength="83">certificate</text><line style="stroke:#000;stroke-width:1.5" x1="72.5" x2="197.5" y1="443.789" y2="443.789"/><text x="82.5" y="463" fill="#FFE797" font-family="sans-serif" font-size="11" font-weight="bold" lengthAdjust="spacing" textLength="47">expires</text><text x="129.5" y="463" fill="#FFE797" font-family="sans-serif" font-size="11" lengthAdjust="spacing" textLength="58">: datetime</text><path id="aws_resource-backto-aws_iam_server_certificate" fill="none" d="M293.41,494.42 C282.78,526.99 269.54,567.55 260.3,595.87" codeLine="38" style="stroke:#ffaf37;stroke-width:2"/><polygon fill="none" points="286.77 492.19 299.63 475.35 300.08 496.53 286.77 492.19" style="stroke:#ffaf37;stroke-width:2"/><path id="certificate-backto-aws_iam_server_certificate" fill="none" d="M166.25,492.58 C185.97,525.46 210.91,567.01 228.22,595.87" codeLine="39" style="stroke:#ffaf37;stroke-width:2"/><polygon fill="none" points="160.2 496.1 155.91 475.35 172.2 488.9 160.2 496.1" style="stroke:#ffaf37;stroke-width:2"/><path id="resource-backto-certificate" fill="none" d="M135,303.43 C135,341.36 135,378.27 135,403.9" codeLine="40" style="stroke:#ffaf37;stroke-width:2"/><polygon fill="none" points="128 303.26 135 283.26 142 303.26 128 303.26" style="stroke:#ffaf37;stroke-width:2"/></g></svg>