<svg xmlns="http://www.w3.org/2000/svg" xmlns:xlink="http://www.w3.org/1999/xlink" width="342" height="548" contentScriptType="application/ecmascript" contentStyleType="text/css" style="width:342px;height:548px;background:#00000000" preserveAspectRatio="none" version="1.1" viewBox="0 0 342 548" zoomAndPan="magnify"><defs><filter id="f1cvcaj1qolao" width="300%" height="300%" x="-1" y="-1"><feGaussianBlur result="blurOut" stdDeviation="2"/><feColorMatrix in="blurOut" result="blurOut2" type="matrix" values="0 0 0 0 0 0 0 0 0 0 0 0 0 0 0 0 0 0 .4 0"/><feOffset dx="4" dy="4" in="blurOut2" result="blurOut3"/><feBlend in="SourceGraphic" in2="blurOut3" mode="normal"/></filter></defs><g><rect id="resource" width="252" height="176.047" x="7" y="7" fill="#FEFECE" codeLine="2" filter="url(#f1cvcaj1qolao)" style="stroke:#a80036;stroke-width:1.5"/><ellipse cx="100.75" cy="23" fill="#ADD1B2" rx="11" ry="11" style="stroke:#a80036;stroke-width:1"/><path fill="#000" d="M103.7188,28.6406 Q103.1406,28.9375 102.5,29.0781 Q101.8594,29.2344 101.1563,29.2344 Q98.6563,29.2344 97.3281,27.5938 Q96.0156,25.9375 96.0156,22.8125 Q96.0156,19.6875 97.3281,18.0313 Q98.6563,16.375 101.1563,16.375 Q101.8594,16.375 102.5,16.5313 Q103.1563,16.6875 103.7188,16.9844 L103.7188,19.7031 Q103.0938,19.125 102.5,18.8594 Q101.9063,18.5781 101.2813,18.5781 Q99.9375,18.5781 99.25,19.6563 Q98.5625,20.7188 98.5625,22.8125 Q98.5625,24.9063 99.25,25.9844 Q99.9375,27.0469 101.2813,27.0469 Q101.9063,27.0469 102.5,26.7813 Q103.0938,26.5 103.7188,25.9219 L103.7188,28.6406 Z"/><text x="121.25" y="27.154" fill="#000" font-family="sans-serif" font-size="12" lengthAdjust="spacing" textLength="56">resource</text><line style="stroke:#a80036;stroke-width:1.5" x1="8" x2="258" y1="39" y2="39"/><ellipse cx="18" cy="50" rx="3" ry="3" style="stroke:#038048;stroke-width:1;fill:none"/><text x="27" y="53.21" fill="#000" font-family="sans-serif" font-size="11" lengthAdjust="spacing" textLength="51">id: string</text><ellipse cx="18" cy="62.805" rx="3" ry="3" style="stroke:#038048;stroke-width:1;fill:none"/><text x="27" y="66.015" fill="#000" font-family="sans-serif" font-size="11" lengthAdjust="spacing" textLength="170">tags: dictionary[string, string]</text><ellipse cx="18" cy="75.609" rx="3" ry="3" style="stroke:#038048;stroke-width:1;fill:none"/><text x="27" y="78.82" fill="#000" font-family="sans-serif" font-size="11" lengthAdjust="spacing" textLength="73">name: string</text><ellipse cx="18" cy="88.414" rx="3" ry="3" style="stroke:#038048;stroke-width:1;fill:none"/><text x="27" y="91.624" fill="#000" font-family="sans-serif" font-size="11" lengthAdjust="spacing" textLength="89">ctime: datetime</text><ellipse cx="18" cy="101.219" rx="3" ry="3" style="stroke:#038048;stroke-width:1;fill:none"/><text x="27" y="104.429" fill="#000" font-family="sans-serif" font-size="11" lengthAdjust="spacing" textLength="180">age: trafo.duration_to_datetime</text><ellipse cx="18" cy="114.023" rx="3" ry="3" style="stroke:#038048;stroke-width:1;fill:none"/><text x="27" y="117.234" fill="#000" font-family="sans-serif" font-size="11" lengthAdjust="spacing" textLength="94">mtime: datetime</text><ellipse cx="18" cy="126.828" rx="3" ry="3" style="stroke:#038048;stroke-width:1;fill:none"/><text x="27" y="130.039" fill="#000" font-family="sans-serif" font-size="11" lengthAdjust="spacing" textLength="225">last_update: trafo.duration_to_datetime</text><ellipse cx="18" cy="139.633" rx="3" ry="3" style="stroke:#038048;stroke-width:1;fill:none"/><text x="27" y="142.843" fill="#000" font-family="sans-serif" font-size="11" lengthAdjust="spacing" textLength="90">atime: datetime</text><ellipse cx="18" cy="152.438" rx="3" ry="3" style="stroke:#038048;stroke-width:1;fill:none"/><text x="27" y="155.648" fill="#000" font-family="sans-serif" font-size="11" lengthAdjust="spacing" textLength="226">last_access: trafo.duration_to_datetime</text><ellipse cx="18" cy="165.242" rx="3" ry="3" style="stroke:#038048;stroke-width:1;fill:none"/><text x="27" y="168.453" fill="#000" font-family="sans-serif" font-size="11" lengthAdjust="spacing" textLength="64">kind: string</text><line style="stroke:#a80036;stroke-width:1.5" x1="8" x2="258" y1="175.047" y2="175.047"/><rect id="aws_resource" width="118" height="60.805" x="210" y="304" fill="#FEFECE" codeLine="14" filter="url(#f1cvcaj1qolao)" style="stroke:#a80036;stroke-width:1.5"/><ellipse cx="225" cy="320" fill="#ADD1B2" rx="11" ry="11" style="stroke:#a80036;stroke-width:1"/><path fill="#000" d="M227.9688,325.6406 Q227.3906,325.9375 226.75,326.0781 Q226.1094,326.2344 225.4063,326.2344 Q222.9063,326.2344 221.5781,324.5938 Q220.2656,322.9375 220.2656,319.8125 Q220.2656,316.6875 221.5781,315.0313 Q222.9063,313.375 225.4063,313.375 Q226.1094,313.375 226.75,313.5313 Q227.4063,313.6875 227.9688,313.9844 L227.9688,316.7031 Q227.3438,316.125 226.75,315.8594 Q226.1563,315.5781 225.5313,315.5781 Q224.1875,315.5781 223.5,316.6563 Q222.8125,317.7188 222.8125,319.8125 Q222.8125,321.9063 223.5,322.9844 Q224.1875,324.0469 225.5313,324.0469 Q226.1563,324.0469 226.75,323.7813 Q227.3438,323.5 227.9688,322.9219 L227.9688,325.6406 Z"/><text x="239" y="324.154" fill="#000" font-family="sans-serif" font-size="12" lengthAdjust="spacing" textLength="86">aws_resource</text><line style="stroke:#a80036;stroke-width:1.5" x1="211" x2="327" y1="336" y2="336"/><ellipse cx="221" cy="347" rx="3" ry="3" style="stroke:#038048;stroke-width:1;fill:none"/><text x="230" y="350.21" fill="#000" font-family="sans-serif" font-size="11" lengthAdjust="spacing" textLength="60">arn: string</text><line style="stroke:#a80036;stroke-width:1.5" x1="211" x2="327" y1="356.805" y2="356.805"/><rect id="gateway" width="84" height="48" x="91" y="310.5" fill="#FEFECE" codeLine="17" filter="url(#f1cvcaj1qolao)" style="stroke:#a80036;stroke-width:1.5"/><ellipse cx="106" cy="326.5" fill="#ADD1B2" rx="11" ry="11" style="stroke:#a80036;stroke-width:1"/><path fill="#000" d="M108.9688,332.1406 Q108.3906,332.4375 107.75,332.5781 Q107.1094,332.7344 106.4063,332.7344 Q103.9063,332.7344 102.5781,331.0938 Q101.2656,329.4375 101.2656,326.3125 Q101.2656,323.1875 102.5781,321.5313 Q103.9063,319.875 106.4063,319.875 Q107.1094,319.875 107.75,320.0313 Q108.4063,320.1875 108.9688,320.4844 L108.9688,323.2031 Q108.3438,322.625 107.75,322.3594 Q107.1563,322.0781 106.5313,322.0781 Q105.1875,322.0781 104.5,323.1563 Q103.8125,324.2188 103.8125,326.3125 Q103.8125,328.4063 104.5,329.4844 Q105.1875,330.5469 106.5313,330.5469 Q107.1563,330.5469 107.75,330.2813 Q108.3438,330 108.9688,329.4219 L108.9688,332.1406 Z"/><text x="120" y="330.654" fill="#000" font-family="sans-serif" font-size="12" lengthAdjust="spacing" textLength="52">gateway</text><line style="stroke:#a80036;stroke-width:1.5" x1="92" x2="174" y1="342.5" y2="342.5"/><line style="stroke:#a80036;stroke-width:1.5" x1="92" x2="174" y1="350.5" y2="350.5"/><rect id="aws_ec2_internet_gateway" width="199" height="48" x="117.5" y="486" fill="#FEFECE" codeLine="20" filter="url(#f1cvcaj1qolao)" style="stroke:#a80036;stroke-width:1.5"/><ellipse cx="132.5" cy="502" fill="#ADD1B2" rx="11" ry="11" style="stroke:#a80036;stroke-width:1"/><path fill="#000" d="M135.4688,507.6406 Q134.8906,507.9375 134.25,508.0781 Q133.6094,508.2344 132.9063,508.2344 Q130.4063,508.2344 129.0781,506.5938 Q127.7656,504.9375 127.7656,501.8125 Q127.7656,498.6875 129.0781,497.0313 Q130.4063,495.375 132.9063,495.375 Q133.6094,495.375 134.25,495.5313 Q134.9063,495.6875 135.4688,495.9844 L135.4688,498.7031 Q134.8438,498.125 134.25,497.8594 Q133.6563,497.5781 133.0313,497.5781 Q131.6875,497.5781 131,498.6563 Q130.3125,499.7188 130.3125,501.8125 Q130.3125,503.9063 131,504.9844 Q131.6875,506.0469 133.0313,506.0469 Q133.6563,506.0469 134.25,505.7813 Q134.8438,505.5 135.4688,504.9219 L135.4688,507.6406 Z"/><text x="146.5" y="506.154" fill="#000" font-family="sans-serif" font-size="12" lengthAdjust="spacing" textLength="167">aws_ec2_internet_gateway</text><line style="stroke:#a80036;stroke-width:1.5" x1="118.5" x2="315.5" y1="518" y2="518"/><line style="stroke:#a80036;stroke-width:1.5" x1="118.5" x2="315.5" y1="526" y2="526"/><path id="resource-backto-gateway" fill="none" d="M133,203.16 C133,243.25 133,285.12 133,310.25" codeLine="23" style="stroke:#a80036;stroke-width:1"/><polygon fill="none" points="126 203.09 133 183.09 140 203.09 126 203.09" style="stroke:#a80036;stroke-width:1"/><path id="aws_resource-backto-aws_ec2_internet_gateway" fill="none" d="M254.28,384.6 C244.32,417.83 231.63,460.2 223.91,485.93" codeLine="24" style="stroke:#a80036;stroke-width:1"/><polygon fill="none" points="247.61 382.47 260.06 365.33 261.02 386.49 247.61 382.47" style="stroke:#a80036;stroke-width:1"/><path id="gateway-backto-aws_ec2_internet_gateway" fill="none" d="M153.03,376.87 C169.54,410.96 192.35,458.08 205.8,485.87" codeLine="25" style="stroke:#a80036;stroke-width:1"/><polygon fill="none" points="146.57 379.59 144.15 358.54 159.17 373.49 146.57 379.59" style="stroke:#a80036;stroke-width:1"/></g></svg>