<svg xmlns="http://www.w3.org/2000/svg" xmlns:xlink="http://www.w3.org/1999/xlink" width="460" height="778" contentScriptType="application/ecmascript" contentStyleType="text/css" style="width:460px;height:778px;background:#00000000" preserveAspectRatio="none" version="1.1" viewBox="0 0 460 778" zoomAndPan="magnify"><g><rect id="resource" width="256" height="275.836" x="7" y="7" fill="#194875" codeLine="17" rx="2.5" ry="2.5" style="stroke:#000;stroke-width:1.5"/><ellipse cx="90.25" cy="26.895" fill="#1A83AF" rx="11" ry="11" style="stroke:#000;stroke-width:1"/><path fill="#000" d="M93.2188,32.5352 Q92.6406,32.832 92,32.9727 Q91.3594,33.1289 90.6563,33.1289 Q88.1563,33.1289 86.8281,31.4883 Q85.5156,29.832 85.5156,26.707 Q85.5156,23.582 86.8281,21.9258 Q88.1563,20.2695 90.6563,20.2695 Q91.3594,20.2695 92,20.4258 Q92.6563,20.582 93.2188,20.8789 L93.2188,23.5977 Q92.5938,23.0195 92,22.7539 Q91.4063,22.4727 90.7813,22.4727 Q89.4375,22.4727 88.75,23.5508 Q88.0625,24.6133 88.0625,26.707 Q88.0625,28.8008 88.75,29.8789 Q89.4375,30.9414 90.7813,30.9414 Q91.4063,30.9414 92,30.6758 Q92.5938,30.3945 93.2188,29.8164 L93.2188,32.5352 Z"/><text x="115.75" y="32.78" fill="#FFE797" font-family="Helvetica" font-size="17" lengthAdjust="spacing" textLength="71">resource</text><line style="stroke:#000;stroke-width:1.5" x1="8" x2="262" y1="46.789" y2="46.789"/><text x="18" y="65.999" fill="#FFE797" font-family="sans-serif" font-size="11" font-weight="bold" lengthAdjust="spacing" textLength="12">id</text><text x="30" y="65.999" fill="#FFE797" font-family="sans-serif" font-size="11" lengthAdjust="spacing" textLength="41">: string</text><text x="18" y="88.804" fill="#FFE797" font-family="sans-serif" font-size="11" font-weight="bold" lengthAdjust="spacing" textLength="28">tags</text><text x="46" y="88.804" fill="#FFE797" font-family="sans-serif" font-size="11" lengthAdjust="spacing" textLength="145">: dictionary[string, string]</text><text x="18" y="111.609" fill="#FFE797" font-family="sans-serif" font-size="11" font-weight="bold" lengthAdjust="spacing" textLength="35">name</text><text x="53" y="111.609" fill="#FFE797" font-family="sans-serif" font-size="11" lengthAdjust="spacing" textLength="41">: string</text><text x="18" y="134.414" fill="#FFE797" font-family="sans-serif" font-size="11" font-weight="bold" lengthAdjust="spacing" textLength="35">ctime</text><text x="53" y="134.414" fill="#FFE797" font-family="sans-serif" font-size="11" lengthAdjust="spacing" textLength="58">: datetime</text><text x="18" y="157.218" fill="#FFE797" font-family="sans-serif" font-size="11" font-weight="bold" lengthAdjust="spacing" textLength="24">age</text><text x="42" y="157.218" fill="#FFE797" font-family="sans-serif" font-size="11" lengthAdjust="spacing" textLength="159">: trafo.duration_to_datetime</text><text x="18" y="180.023" fill="#FFE797" font-family="sans-serif" font-size="11" font-weight="bold" lengthAdjust="spacing" textLength="39">mtime</text><text x="57" y="180.023" fill="#FFE797" font-family="sans-serif" font-size="11" lengthAdjust="spacing" textLength="58">: datetime</text><text x="18" y="202.828" fill="#FFE797" font-family="sans-serif" font-size="11" font-weight="bold" lengthAdjust="spacing" textLength="75">last_update</text><text x="93" y="202.828" fill="#FFE797" font-family="sans-serif" font-size="11" lengthAdjust="spacing" textLength="159">: trafo.duration_to_datetime</text><text x="18" y="225.632" fill="#FFE797" font-family="sans-serif" font-size="11" font-weight="bold" lengthAdjust="spacing" textLength="36">atime</text><text x="54" y="225.632" fill="#FFE797" font-family="sans-serif" font-size="11" lengthAdjust="spacing" textLength="58">: datetime</text><text x="18" y="248.437" fill="#FFE797" font-family="sans-serif" font-size="11" font-weight="bold" lengthAdjust="spacing" textLength="74">last_access</text><text x="92" y="248.437" fill="#FFE797" font-family="sans-serif" font-size="11" lengthAdjust="spacing" textLength="159">: trafo.duration_to_datetime</text><text x="18" y="271.242" fill="#FFE797" font-family="sans-serif" font-size="11" font-weight="bold" lengthAdjust="spacing" textLength="27">kind</text><text x="45" y="271.242" fill="#FFE797" font-family="sans-serif" font-size="11" lengthAdjust="spacing" textLength="41">: string</text><rect id="aws_resource" width="155" height="70.594" x="298.5" y="109.5" fill="#194875" codeLine="29" rx="2.5" ry="2.5" style="stroke:#000;stroke-width:1.5"/><ellipse cx="313.5" cy="129.394" fill="#1A83AF" rx="11" ry="11" style="stroke:#000;stroke-width:1"/><path fill="#000" d="M316.4688,135.0352 Q315.8906,135.332 315.25,135.4727 Q314.6094,135.6289 313.9063,135.6289 Q311.4063,135.6289 310.0781,133.9883 Q308.7656,132.332 308.7656,129.207 Q308.7656,126.082 310.0781,124.4258 Q311.4063,122.7695 313.9063,122.7695 Q314.6094,122.7695 315.25,122.9258 Q315.9063,123.082 316.4688,123.3789 L316.4688,126.0977 Q315.8438,125.5195 315.25,125.2539 Q314.6563,124.9727 314.0313,124.9727 Q312.6875,124.9727 312,126.0508 Q311.3125,127.1133 311.3125,129.207 Q311.3125,131.3008 312,132.3789 Q312.6875,133.4414 314.0313,133.4414 Q314.6563,133.4414 315.25,133.1758 Q315.8438,132.8945 316.4688,132.3164 L316.4688,135.0352 Z"/><text x="332.5" y="135.28" fill="#FFE797" font-family="Helvetica" font-size="17" lengthAdjust="spacing" textLength="113">aws_resource</text><line style="stroke:#000;stroke-width:1.5" x1="299.5" x2="452.5" y1="149.289" y2="149.289"/><text x="309.5" y="168.5" fill="#FFE797" font-family="sans-serif" font-size="11" font-weight="bold" lengthAdjust="spacing" textLength="21">arn</text><text x="330.5" y="168.5" fill="#FFE797" font-family="sans-serif" font-size="11" lengthAdjust="spacing" textLength="41">: string</text><rect id="aws_cloudwatch_alarm" width="237" height="367.055" x="136.5" y="404" fill="#194875" codeLine="32" rx="2.5" ry="2.5" style="stroke:#000;stroke-width:1.5"/><ellipse cx="151.5" cy="423.894" fill="#1A83AF" rx="11" ry="11" style="stroke:#000;stroke-width:1"/><path fill="#000" d="M154.4688,429.5352 Q153.8906,429.832 153.25,429.9727 Q152.6094,430.1289 151.9063,430.1289 Q149.4063,430.1289 148.0781,428.4883 Q146.7656,426.832 146.7656,423.707 Q146.7656,420.582 148.0781,418.9258 Q149.4063,417.2695 151.9063,417.2695 Q152.6094,417.2695 153.25,417.4258 Q153.9063,417.582 154.4688,417.8789 L154.4688,420.5977 Q153.8438,420.0195 153.25,419.7539 Q152.6563,419.4727 152.0313,419.4727 Q150.6875,419.4727 150,420.5508 Q149.3125,421.6133 149.3125,423.707 Q149.3125,425.8008 150,426.8789 Q150.6875,427.9414 152.0313,427.9414 Q152.6563,427.9414 153.25,427.6758 Q153.8438,427.3945 154.4688,426.8164 L154.4688,429.5352 Z"/><text x="170.5" y="429.78" fill="#FFE797" font-family="Helvetica" font-size="17" lengthAdjust="spacing" textLength="195">aws_cloudwatch_alarm</text><line style="stroke:#000;stroke-width:1.5" x1="137.5" x2="372.5" y1="443.789" y2="443.789"/><text x="147.5" y="463" fill="#FFE797" font-family="sans-serif" font-size="11" font-weight="bold" lengthAdjust="spacing" textLength="105">actions_enabled</text><text x="252.5" y="463" fill="#FFE797" font-family="sans-serif" font-size="11" lengthAdjust="spacing" textLength="53">: boolean</text><text x="147.5" y="485.804" fill="#FFE797" font-family="sans-serif" font-size="11" font-weight="bold" lengthAdjust="spacing" textLength="114">alarm_description</text><text x="261.5" y="485.804" fill="#FFE797" font-family="sans-serif" font-size="11" lengthAdjust="spacing" textLength="41">: string</text><text x="147.5" y="508.609" fill="#FFE797" font-family="sans-serif" font-size="11" font-weight="bold" lengthAdjust="spacing" textLength="89">alarm_actions</text><text x="236.5" y="508.609" fill="#FFE797" font-family="sans-serif" font-size="11" lengthAdjust="spacing" textLength="36">: any[]</text><text x="147.5" y="531.414" fill="#FFE797" font-family="sans-serif" font-size="11" font-weight="bold" lengthAdjust="spacing" textLength="135">comparison_operator</text><text x="282.5" y="531.414" fill="#FFE797" font-family="sans-serif" font-size="11" lengthAdjust="spacing" textLength="41">: string</text><text x="147.5" y="554.218" fill="#FFE797" font-family="sans-serif" font-size="11" font-weight="bold" lengthAdjust="spacing" textLength="73">dimensions</text><text x="220.5" y="554.218" fill="#FFE797" font-family="sans-serif" font-size="11" lengthAdjust="spacing" textLength="36">: any[]</text><text x="147.5" y="577.023" fill="#FFE797" font-family="sans-serif" font-size="11" font-weight="bold" lengthAdjust="spacing" textLength="122">evaluation_periods</text><text x="269.5" y="577.023" fill="#FFE797" font-family="sans-serif" font-size="11" lengthAdjust="spacing" textLength="36">: int64</text><text x="147.5" y="599.828" fill="#FFE797" font-family="sans-serif" font-size="11" font-weight="bold" lengthAdjust="spacing" textLength="161">insufficient_data_actions</text><text x="308.5" y="599.828" fill="#FFE797" font-family="sans-serif" font-size="11" lengthAdjust="spacing" textLength="36">: any[]</text><text x="147.5" y="622.632" fill="#FFE797" font-family="sans-serif" font-size="11" font-weight="bold" lengthAdjust="spacing" textLength="81">metric_name</text><text x="228.5" y="622.632" fill="#FFE797" font-family="sans-serif" font-size="11" lengthAdjust="spacing" textLength="41">: string</text><text x="147.5" y="645.437" fill="#FFE797" font-family="sans-serif" font-size="11" font-weight="bold" lengthAdjust="spacing" textLength="73">namespace</text><text x="220.5" y="645.437" fill="#FFE797" font-family="sans-serif" font-size="11" lengthAdjust="spacing" textLength="41">: string</text><text x="147.5" y="668.242" fill="#FFE797" font-family="sans-serif" font-size="11" font-weight="bold" lengthAdjust="spacing" textLength="68">ok_actions</text><text x="215.5" y="668.242" fill="#FFE797" font-family="sans-serif" font-size="11" lengthAdjust="spacing" textLength="36">: any[]</text><text x="147.5" y="691.046" fill="#FFE797" font-family="sans-serif" font-size="11" font-weight="bold" lengthAdjust="spacing" textLength="41">period</text><text x="188.5" y="691.046" fill="#FFE797" font-family="sans-serif" font-size="11" lengthAdjust="spacing" textLength="36">: int64</text><text x="147.5" y="713.851" fill="#FFE797" font-family="sans-serif" font-size="11" font-weight="bold" lengthAdjust="spacing" textLength="74">state_value</text><text x="221.5" y="713.851" fill="#FFE797" font-family="sans-serif" font-size="11" lengthAdjust="spacing" textLength="41">: string</text><text x="147.5" y="736.656" fill="#FFE797" font-family="sans-serif" font-size="11" font-weight="bold" lengthAdjust="spacing" textLength="52">statistic</text><text x="199.5" y="736.656" fill="#FFE797" font-family="sans-serif" font-size="11" lengthAdjust="spacing" textLength="41">: string</text><text x="147.5" y="759.46" fill="#FFE797" font-family="sans-serif" font-size="11" font-weight="bold" lengthAdjust="spacing" textLength="61">threshold</text><text x="208.5" y="759.46" fill="#FFE797" font-family="sans-serif" font-size="11" lengthAdjust="spacing" textLength="46">: double</text><path id="aws_resource-backto-aws_cloudwatch_alarm" fill="none" d="M361.19,199.92 C347.19,250.88 325.38,330.28 305.16,403.9" codeLine="48" style="stroke:#ffaf37;stroke-width:2"/><polygon fill="none" points="354.46 198 366.51 180.57 367.96 201.71 354.46 198" style="stroke:#ffaf37;stroke-width:2"/><path id="resource-backto-aws_cloudwatch_alarm" fill="none" d="M177.71,302.78 C186.61,335.46 196.07,370.17 205.2,403.69" codeLine="49" style="stroke:#ffaf37;stroke-width:2"/><polygon fill="none" points="170.9 304.4 172.39 283.26 184.4 300.72 170.9 304.4" style="stroke:#ffaf37;stroke-width:2"/></g></svg>