<?xml version="1.0" encoding="UTF-8" standalone="no"?><svg xmlns="http://www.w3.org/2000/svg" xmlns:xlink="http://www.w3.org/1999/xlink" contentScriptType="application/ecmascript" contentStyleType="text/css" height="545px" preserveAspectRatio="none" style="width:426px;height:545px;background:#00000000;" version="1.1" viewBox="0 0 426 545" width="426px" zoomAndPan="magnify"><defs><filter height="300%" id="f56grw7zi7c6u" width="300%" x="-1" y="-1"><feGaussianBlur result="blurOut" stdDeviation="2.0"/><feColorMatrix in="blurOut" result="blurOut2" type="matrix" values="0 0 0 0 0 0 0 0 0 0 0 0 0 0 0 0 0 0 .4 0"/><feOffset dx="4.0" dy="4.0" in="blurOut2" result="blurOut3"/><feBlend in="SourceGraphic" in2="blurOut3" mode="normal"/></filter></defs><g><!--MD5=[7f0ecf5f554433d3f2e1213379ac821c]
class resource--><rect codeLine="2" fill="#FEFECE" filter="url(#f56grw7zi7c6u)" height="176.0469" id="resource" style="stroke:#A80036;stroke-width:1.5;" width="252" x="7" y="7"/><ellipse cx="100.75" cy="23" fill="#ADD1B2" rx="11" ry="11" style="stroke:#A80036;stroke-width:1.0;"/><path d="M103.7188,28.6406 Q103.1406,28.9375 102.5,29.0781 Q101.8594,29.2344 101.1563,29.2344 Q98.6563,29.2344 97.3281,27.5938 Q96.0156,25.9375 96.0156,22.8125 Q96.0156,19.6875 97.3281,18.0313 Q98.6563,16.375 101.1563,16.375 Q101.8594,16.375 102.5,16.5313 Q103.1563,16.6875 103.7188,16.9844 L103.7188,19.7031 Q103.0938,19.125 102.5,18.8594 Q101.9063,18.5781 101.2813,18.5781 Q99.9375,18.5781 99.25,19.6563 Q98.5625,20.7188 98.5625,22.8125 Q98.5625,24.9063 99.25,25.9844 Q99.9375,27.0469 101.2813,27.0469 Q101.9063,27.0469 102.5,26.7813 Q103.0938,26.5 103.7188,25.9219 L103.7188,28.6406 Z " fill="#000000"/><text fill="#000000" font-family="sans-serif" font-size="12" lengthAdjust="spacing" textLength="56" x="121.25" y="27.1543">resource</text><line style="stroke:#A80036;stroke-width:1.5;" x1="8" x2="258" y1="39" y2="39"/><ellipse cx="18" cy="50" rx="3" ry="3" style="stroke:#038048;stroke-width:1.0;fill:none;"/><text fill="#000000" font-family="sans-serif" font-size="11" lengthAdjust="spacing" textLength="51" x="27" y="53.2104">id: string</text><ellipse cx="18" cy="62.8047" rx="3" ry="3" style="stroke:#038048;stroke-width:1.0;fill:none;"/><text fill="#000000" font-family="sans-serif" font-size="11" lengthAdjust="spacing" textLength="170" x="27" y="66.0151">tags: dictionary[string, string]</text><ellipse cx="18" cy="75.6094" rx="3" ry="3" style="stroke:#038048;stroke-width:1.0;fill:none;"/><text fill="#000000" font-family="sans-serif" font-size="11" lengthAdjust="spacing" textLength="73" x="27" y="78.8198">name: string</text><ellipse cx="18" cy="88.4141" rx="3" ry="3" style="stroke:#038048;stroke-width:1.0;fill:none;"/><text fill="#000000" font-family="sans-serif" font-size="11" lengthAdjust="spacing" textLength="89" x="27" y="91.6245">ctime: datetime</text><ellipse cx="18" cy="101.2188" rx="3" ry="3" style="stroke:#038048;stroke-width:1.0;fill:none;"/><text fill="#000000" font-family="sans-serif" font-size="11" lengthAdjust="spacing" textLength="180" x="27" y="104.4292">age: trafo.duration_to_datetime</text><ellipse cx="18" cy="114.0234" rx="3" ry="3" style="stroke:#038048;stroke-width:1.0;fill:none;"/><text fill="#000000" font-family="sans-serif" font-size="11" lengthAdjust="spacing" textLength="94" x="27" y="117.2339">mtime: datetime</text><ellipse cx="18" cy="126.8281" rx="3" ry="3" style="stroke:#038048;stroke-width:1.0;fill:none;"/><text fill="#000000" font-family="sans-serif" font-size="11" lengthAdjust="spacing" textLength="225" x="27" y="130.0386">last_update: trafo.duration_to_datetime</text><ellipse cx="18" cy="139.6328" rx="3" ry="3" style="stroke:#038048;stroke-width:1.0;fill:none;"/><text fill="#000000" font-family="sans-serif" font-size="11" lengthAdjust="spacing" textLength="90" x="27" y="142.8433">atime: datetime</text><ellipse cx="18" cy="152.4375" rx="3" ry="3" style="stroke:#038048;stroke-width:1.0;fill:none;"/><text fill="#000000" font-family="sans-serif" font-size="11" lengthAdjust="spacing" textLength="226" x="27" y="155.6479">last_access: trafo.duration_to_datetime</text><ellipse cx="18" cy="165.2422" rx="3" ry="3" style="stroke:#038048;stroke-width:1.0;fill:none;"/><text fill="#000000" font-family="sans-serif" font-size="11" lengthAdjust="spacing" textLength="64" x="27" y="168.4526">kind: string</text><line style="stroke:#A80036;stroke-width:1.5;" x1="8" x2="258" y1="175.0469" y2="175.0469"/><!--MD5=[c069b88079f3e36515859a1683f3923c]
class aws_resource--><rect codeLine="14" fill="#FEFECE" filter="url(#f56grw7zi7c6u)" height="60.8047" id="aws_resource" style="stroke:#A80036;stroke-width:1.5;" width="118" x="294" y="64.5"/><ellipse cx="309" cy="80.5" fill="#ADD1B2" rx="11" ry="11" style="stroke:#A80036;stroke-width:1.0;"/><path d="M311.9688,86.1406 Q311.3906,86.4375 310.75,86.5781 Q310.1094,86.7344 309.4063,86.7344 Q306.9063,86.7344 305.5781,85.0938 Q304.2656,83.4375 304.2656,80.3125 Q304.2656,77.1875 305.5781,75.5313 Q306.9063,73.875 309.4063,73.875 Q310.1094,73.875 310.75,74.0313 Q311.4063,74.1875 311.9688,74.4844 L311.9688,77.2031 Q311.3438,76.625 310.75,76.3594 Q310.1563,76.0781 309.5313,76.0781 Q308.1875,76.0781 307.5,77.1563 Q306.8125,78.2188 306.8125,80.3125 Q306.8125,82.4063 307.5,83.4844 Q308.1875,84.5469 309.5313,84.5469 Q310.1563,84.5469 310.75,84.2813 Q311.3438,84 311.9688,83.4219 L311.9688,86.1406 Z " fill="#000000"/><text fill="#000000" font-family="sans-serif" font-size="12" lengthAdjust="spacing" textLength="86" x="323" y="84.6543">aws_resource</text><line style="stroke:#A80036;stroke-width:1.5;" x1="295" x2="411" y1="96.5" y2="96.5"/><ellipse cx="305" cy="107.5" rx="3" ry="3" style="stroke:#038048;stroke-width:1.0;fill:none;"/><text fill="#000000" font-family="sans-serif" font-size="11" lengthAdjust="spacing" textLength="60" x="314" y="110.7104">arn: string</text><line style="stroke:#A80036;stroke-width:1.5;" x1="295" x2="411" y1="117.3047" y2="117.3047"/><!--MD5=[4ab02de012f937c9a3cc0e6efad4b7f2]
class aws_cloudwatch_alarm--><rect codeLine="17" fill="#FEFECE" filter="url(#f56grw7zi7c6u)" height="227.2656" id="aws_cloudwatch_alarm" style="stroke:#A80036;stroke-width:1.5;" width="202" x="142" y="304"/><ellipse cx="169.6" cy="320" fill="#ADD1B2" rx="11" ry="11" style="stroke:#A80036;stroke-width:1.0;"/><path d="M172.5688,325.6406 Q171.9906,325.9375 171.35,326.0781 Q170.7094,326.2344 170.0063,326.2344 Q167.5063,326.2344 166.1781,324.5938 Q164.8656,322.9375 164.8656,319.8125 Q164.8656,316.6875 166.1781,315.0313 Q167.5063,313.375 170.0063,313.375 Q170.7094,313.375 171.35,313.5313 Q172.0063,313.6875 172.5688,313.9844 L172.5688,316.7031 Q171.9438,316.125 171.35,315.8594 Q170.7563,315.5781 170.1313,315.5781 Q168.7875,315.5781 168.1,316.6563 Q167.4125,317.7188 167.4125,319.8125 Q167.4125,321.9063 168.1,322.9844 Q168.7875,324.0469 170.1313,324.0469 Q170.7563,324.0469 171.35,323.7813 Q171.9438,323.5 172.5688,322.9219 L172.5688,325.6406 Z " fill="#000000"/><text fill="#000000" font-family="sans-serif" font-size="12" lengthAdjust="spacing" textLength="142" x="186.4" y="324.1543">aws_cloudwatch_alarm</text><line style="stroke:#A80036;stroke-width:1.5;" x1="143" x2="343" y1="336" y2="336"/><ellipse cx="153" cy="347" rx="3" ry="3" style="stroke:#038048;stroke-width:1.0;fill:none;"/><text fill="#000000" font-family="sans-serif" font-size="11" lengthAdjust="spacing" textLength="145" x="162" y="350.2104">actions_enabled: boolean</text><ellipse cx="153" cy="359.8047" rx="3" ry="3" style="stroke:#038048;stroke-width:1.0;fill:none;"/><text fill="#000000" font-family="sans-serif" font-size="11" lengthAdjust="spacing" textLength="143" x="162" y="363.0151">alarm_description: string</text><ellipse cx="153" cy="372.6094" rx="3" ry="3" style="stroke:#038048;stroke-width:1.0;fill:none;"/><text fill="#000000" font-family="sans-serif" font-size="11" lengthAdjust="spacing" textLength="116" x="162" y="375.8198">alarm_actions: any[]</text><ellipse cx="153" cy="385.4141" rx="3" ry="3" style="stroke:#038048;stroke-width:1.0;fill:none;"/><text fill="#000000" font-family="sans-serif" font-size="11" lengthAdjust="spacing" textLength="163" x="162" y="388.6245">comparison_operator: string</text><ellipse cx="153" cy="398.2188" rx="3" ry="3" style="stroke:#038048;stroke-width:1.0;fill:none;"/><text fill="#000000" font-family="sans-serif" font-size="11" lengthAdjust="spacing" textLength="102" x="162" y="401.4292">dimensions: any[]</text><ellipse cx="153" cy="411.0234" rx="3" ry="3" style="stroke:#038048;stroke-width:1.0;fill:none;"/><text fill="#000000" font-family="sans-serif" font-size="11" lengthAdjust="spacing" textLength="143" x="162" y="414.2339">evaluation_periods: int64</text><ellipse cx="153" cy="423.8281" rx="3" ry="3" style="stroke:#038048;stroke-width:1.0;fill:none;"/><text fill="#000000" font-family="sans-serif" font-size="11" lengthAdjust="spacing" textLength="176" x="162" y="427.0386">insufficient_data_actions: any[]</text><ellipse cx="153" cy="436.6328" rx="3" ry="3" style="stroke:#038048;stroke-width:1.0;fill:none;"/><text fill="#000000" font-family="sans-serif" font-size="11" lengthAdjust="spacing" textLength="115" x="162" y="439.8433">metric_name: string</text><ellipse cx="153" cy="449.4375" rx="3" ry="3" style="stroke:#038048;stroke-width:1.0;fill:none;"/><text fill="#000000" font-family="sans-serif" font-size="11" lengthAdjust="spacing" textLength="107" x="162" y="452.6479">namespace: string</text><ellipse cx="153" cy="462.2422" rx="3" ry="3" style="stroke:#038048;stroke-width:1.0;fill:none;"/><text fill="#000000" font-family="sans-serif" font-size="11" lengthAdjust="spacing" textLength="96" x="162" y="465.4526">ok_actions: any[]</text><ellipse cx="153" cy="475.0469" rx="3" ry="3" style="stroke:#038048;stroke-width:1.0;fill:none;"/><text fill="#000000" font-family="sans-serif" font-size="11" lengthAdjust="spacing" textLength="72" x="162" y="478.2573">period: int64</text><ellipse cx="153" cy="487.8516" rx="3" ry="3" style="stroke:#038048;stroke-width:1.0;fill:none;"/><text fill="#000000" font-family="sans-serif" font-size="11" lengthAdjust="spacing" textLength="106" x="162" y="491.062">state_value: string</text><ellipse cx="153" cy="500.6563" rx="3" ry="3" style="stroke:#038048;stroke-width:1.0;fill:none;"/><text fill="#000000" font-family="sans-serif" font-size="11" lengthAdjust="spacing" textLength="86" x="162" y="503.8667">statistic: string</text><ellipse cx="153" cy="513.4609" rx="3" ry="3" style="stroke:#038048;stroke-width:1.0;fill:none;"/><text fill="#000000" font-family="sans-serif" font-size="11" lengthAdjust="spacing" textLength="100" x="162" y="516.6714">threshold: double</text><line style="stroke:#A80036;stroke-width:1.5;" x1="143" x2="343" y1="523.2656" y2="523.2656"/><!--MD5=[06b37d981be75b35f2b2c65caf9b39c1]
reverse link aws_resource to aws_cloudwatch_alarm--><path codeLine="33" d="M336.26,144.76 C321.82,186.86 300.38,249.31 281.7,303.73 " fill="none" id="aws_resource-backto-aws_cloudwatch_alarm" style="stroke:#A80036;stroke-width:1.0;"/><polygon fill="none" points="329.74,142.22,342.85,125.58,342.98,146.77,329.74,142.22" style="stroke:#A80036;stroke-width:1.0;"/><!--MD5=[225a026b1a8d54f9899d40d67745ac98]
reverse link resource to aws_cloudwatch_alarm--><path codeLine="34" d="M169.52,202.4 C180.68,234.93 193,270.81 204.3,303.75 " fill="none" id="resource-backto-aws_cloudwatch_alarm" style="stroke:#A80036;stroke-width:1.0;"/><polygon fill="none" points="162.78,204.34,162.91,183.15,176.03,199.8,162.78,204.34" style="stroke:#A80036;stroke-width:1.0;"/><!--MD5=[e9cb8ccd4d88e6b8e6cfe35f225bbba2]
@startuml
skinparam backgroundcolor transparent
class resource {
+ id: string
+ tags: dictionary[string, string]
+ name: string
+ ctime: datetime
+ age: trafo.duration_to_datetime
+ mtime: datetime
+ last_update: trafo.duration_to_datetime
+ atime: datetime
+ last_access: trafo.duration_to_datetime
+ kind: string
}
class aws_resource {
+ arn: string
}
class aws_cloudwatch_alarm {
+ actions_enabled: boolean
+ alarm_description: string
+ alarm_actions: any[]
+ comparison_operator: string
+ dimensions: any[]
+ evaluation_periods: int64
+ insufficient_data_actions: any[]
+ metric_name: string
+ namespace: string
+ ok_actions: any[]
+ period: int64
+ state_value: string
+ statistic: string
+ threshold: double
}
aws_resource <|- - - aws_cloudwatch_alarm
resource <|- - - aws_cloudwatch_alarm
@enduml

PlantUML version 1.2021.16(Wed Dec 08 17:25:22 UTC 2021)
(GPL source distribution)
Java Runtime: OpenJDK Runtime Environment
JVM: OpenJDK 64-Bit Server VM
Default Encoding: UTF-8
Language: en
Country: null
--></g></svg>