<?xml version="1.0" encoding="UTF-8" standalone="no"?><svg xmlns="http://www.w3.org/2000/svg" xmlns:xlink="http://www.w3.org/1999/xlink" contentScriptType="application/ecmascript" contentStyleType="text/css" height="1039px" preserveAspectRatio="none" style="width:474px;height:1039px;background:#00000000;" version="1.1" viewBox="0 0 474 1039" width="474px" zoomAndPan="magnify"><defs/><g><!--MD5=[156df1ec125634b672185ad659f2920c]
class phantom_resource--><rect codeLine="17" fill="#194875" height="39.7891" id="phantom_resource" rx="2.5" ry="2.5" style="stroke:#000000;stroke-width:1.5;" width="198" x="240" y="404"/><ellipse cx="255" cy="423.8945" fill="#1A83AF" rx="11" ry="11" style="stroke:#000000;stroke-width:1.0;"/><path d="M257.9688,429.5352 Q257.3906,429.832 256.75,429.9727 Q256.1094,430.1289 255.4063,430.1289 Q252.9063,430.1289 251.5781,428.4883 Q250.2656,426.832 250.2656,423.707 Q250.2656,420.582 251.5781,418.9258 Q252.9063,417.2695 255.4063,417.2695 Q256.1094,417.2695 256.75,417.4258 Q257.4063,417.582 257.9688,417.8789 L257.9688,420.5977 Q257.3438,420.0195 256.75,419.7539 Q256.1563,419.4727 255.5313,419.4727 Q254.1875,419.4727 253.5,420.5508 Q252.8125,421.6133 252.8125,423.707 Q252.8125,425.8008 253.5,426.8789 Q254.1875,427.9414 255.5313,427.9414 Q256.1563,427.9414 256.75,427.6758 Q257.3438,427.3945 257.9688,426.8164 L257.9688,429.5352 Z " fill="#000000"/><text fill="#FFE797" font-family="Helvetica" font-size="17" lengthAdjust="spacing" textLength="156" x="274" y="429.7798">phantom_resource</text><!--MD5=[7f0ecf5f554433d3f2e1213379ac821c]
class resource--><rect codeLine="20" fill="#194875" height="275.8359" id="resource" rx="2.5" ry="2.5" style="stroke:#000000;stroke-width:1.5;" width="256" x="211" y="7"/><ellipse cx="294.25" cy="26.8945" fill="#1A83AF" rx="11" ry="11" style="stroke:#000000;stroke-width:1.0;"/><path d="M297.2188,32.5352 Q296.6406,32.832 296,32.9727 Q295.3594,33.1289 294.6563,33.1289 Q292.1563,33.1289 290.8281,31.4883 Q289.5156,29.832 289.5156,26.707 Q289.5156,23.582 290.8281,21.9258 Q292.1563,20.2695 294.6563,20.2695 Q295.3594,20.2695 296,20.4258 Q296.6563,20.582 297.2188,20.8789 L297.2188,23.5977 Q296.5938,23.0195 296,22.7539 Q295.4063,22.4727 294.7813,22.4727 Q293.4375,22.4727 292.75,23.5508 Q292.0625,24.6133 292.0625,26.707 Q292.0625,28.8008 292.75,29.8789 Q293.4375,30.9414 294.7813,30.9414 Q295.4063,30.9414 296,30.6758 Q296.5938,30.3945 297.2188,29.8164 L297.2188,32.5352 Z " fill="#000000"/><text fill="#FFE797" font-family="Helvetica" font-size="17" lengthAdjust="spacing" textLength="71" x="319.75" y="32.7798">resource</text><line style="stroke:#000000;stroke-width:1.5;" x1="212" x2="466" y1="46.7891" y2="46.7891"/><text fill="#FFE797" font-family="sans-serif" font-size="11" font-weight="bold" lengthAdjust="spacing" textLength="12" x="222" y="65.9995">id</text><text fill="#FFE797" font-family="sans-serif" font-size="11" lengthAdjust="spacing" textLength="41" x="234" y="65.9995">: string</text><text fill="#FFE797" font-family="sans-serif" font-size="11" font-weight="bold" lengthAdjust="spacing" textLength="28" x="222" y="88.8042">tags</text><text fill="#FFE797" font-family="sans-serif" font-size="11" lengthAdjust="spacing" textLength="145" x="250" y="88.8042">: dictionary[string, string]</text><text fill="#FFE797" font-family="sans-serif" font-size="11" font-weight="bold" lengthAdjust="spacing" textLength="35" x="222" y="111.6089">name</text><text fill="#FFE797" font-family="sans-serif" font-size="11" lengthAdjust="spacing" textLength="41" x="257" y="111.6089">: string</text><text fill="#FFE797" font-family="sans-serif" font-size="11" font-weight="bold" lengthAdjust="spacing" textLength="35" x="222" y="134.4136">ctime</text><text fill="#FFE797" font-family="sans-serif" font-size="11" lengthAdjust="spacing" textLength="58" x="257" y="134.4136">: datetime</text><text fill="#FFE797" font-family="sans-serif" font-size="11" font-weight="bold" lengthAdjust="spacing" textLength="24" x="222" y="157.2183">age</text><text fill="#FFE797" font-family="sans-serif" font-size="11" lengthAdjust="spacing" textLength="159" x="246" y="157.2183">: trafo.duration_to_datetime</text><text fill="#FFE797" font-family="sans-serif" font-size="11" font-weight="bold" lengthAdjust="spacing" textLength="39" x="222" y="180.0229">mtime</text><text fill="#FFE797" font-family="sans-serif" font-size="11" lengthAdjust="spacing" textLength="58" x="261" y="180.0229">: datetime</text><text fill="#FFE797" font-family="sans-serif" font-size="11" font-weight="bold" lengthAdjust="spacing" textLength="75" x="222" y="202.8276">last_update</text><text fill="#FFE797" font-family="sans-serif" font-size="11" lengthAdjust="spacing" textLength="159" x="297" y="202.8276">: trafo.duration_to_datetime</text><text fill="#FFE797" font-family="sans-serif" font-size="11" font-weight="bold" lengthAdjust="spacing" textLength="36" x="222" y="225.6323">atime</text><text fill="#FFE797" font-family="sans-serif" font-size="11" lengthAdjust="spacing" textLength="58" x="258" y="225.6323">: datetime</text><text fill="#FFE797" font-family="sans-serif" font-size="11" font-weight="bold" lengthAdjust="spacing" textLength="74" x="222" y="248.437">last_access</text><text fill="#FFE797" font-family="sans-serif" font-size="11" lengthAdjust="spacing" textLength="159" x="296" y="248.437">: trafo.duration_to_datetime</text><text fill="#FFE797" font-family="sans-serif" font-size="11" font-weight="bold" lengthAdjust="spacing" textLength="27" x="222" y="271.2417">kind</text><text fill="#FFE797" font-family="sans-serif" font-size="11" lengthAdjust="spacing" textLength="41" x="249" y="271.2417">: string</text><!--MD5=[c069b88079f3e36515859a1683f3923c]
class aws_resource--><rect codeLine="32" fill="#194875" height="70.5938" id="aws_resource" rx="2.5" ry="2.5" style="stroke:#000000;stroke-width:1.5;" width="155" x="57.5" y="802"/><ellipse cx="72.5" cy="821.8945" fill="#1A83AF" rx="11" ry="11" style="stroke:#000000;stroke-width:1.0;"/><path d="M75.4688,827.5352 Q74.8906,827.832 74.25,827.9727 Q73.6094,828.1289 72.9063,828.1289 Q70.4063,828.1289 69.0781,826.4883 Q67.7656,824.832 67.7656,821.707 Q67.7656,818.582 69.0781,816.9258 Q70.4063,815.2695 72.9063,815.2695 Q73.6094,815.2695 74.25,815.4258 Q74.9063,815.582 75.4688,815.8789 L75.4688,818.5977 Q74.8438,818.0195 74.25,817.7539 Q73.6563,817.4727 73.0313,817.4727 Q71.6875,817.4727 71,818.5508 Q70.3125,819.6133 70.3125,821.707 Q70.3125,823.8008 71,824.8789 Q71.6875,825.9414 73.0313,825.9414 Q73.6563,825.9414 74.25,825.6758 Q74.8438,825.3945 75.4688,824.8164 L75.4688,827.5352 Z " fill="#000000"/><text fill="#FFE797" font-family="Helvetica" font-size="17" lengthAdjust="spacing" textLength="113" x="91.5" y="827.7798">aws_resource</text><line style="stroke:#000000;stroke-width:1.5;" x1="58.5" x2="211.5" y1="841.7891" y2="841.7891"/><text fill="#FFE797" font-family="sans-serif" font-size="11" font-weight="bold" lengthAdjust="spacing" textLength="21" x="68.5" y="860.9995">arn</text><text fill="#FFE797" font-family="sans-serif" font-size="11" lengthAdjust="spacing" textLength="41" x="89.5" y="860.9995">: string</text><!--MD5=[205bc3e74ea7d385e2b6aa1bb29a5024]
class quota--><rect codeLine="35" fill="#194875" height="116.2031" id="quota" rx="2.5" ry="2.5" style="stroke:#000000;stroke-width:1.5;" width="134" x="272" y="565"/><ellipse cx="306.8" cy="584.8945" fill="#1A83AF" rx="11" ry="11" style="stroke:#000000;stroke-width:1.0;"/><path d="M309.7688,590.5352 Q309.1906,590.832 308.55,590.9727 Q307.9094,591.1289 307.2063,591.1289 Q304.7063,591.1289 303.3781,589.4883 Q302.0656,587.832 302.0656,584.707 Q302.0656,581.582 303.3781,579.9258 Q304.7063,578.2695 307.2063,578.2695 Q307.9094,578.2695 308.55,578.4258 Q309.2063,578.582 309.7688,578.8789 L309.7688,581.5977 Q309.1438,581.0195 308.55,580.7539 Q307.9563,580.4727 307.3313,580.4727 Q305.9875,580.4727 305.3,581.5508 Q304.6125,582.6133 304.6125,584.707 Q304.6125,586.8008 305.3,587.8789 Q305.9875,588.9414 307.3313,588.9414 Q307.9563,588.9414 308.55,588.6758 Q309.1438,588.3945 309.7688,587.8164 L309.7688,590.5352 Z " fill="#000000"/><text fill="#FFE797" font-family="Helvetica" font-size="17" lengthAdjust="spacing" textLength="48" x="330.2" y="590.7798">quota</text><line style="stroke:#000000;stroke-width:1.5;" x1="273" x2="405" y1="604.7891" y2="604.7891"/><text fill="#FFE797" font-family="sans-serif" font-size="11" font-weight="bold" lengthAdjust="spacing" textLength="37" x="283" y="623.9995">quota</text><text fill="#FFE797" font-family="sans-serif" font-size="11" lengthAdjust="spacing" textLength="46" x="320" y="623.9995">: double</text><text fill="#FFE797" font-family="sans-serif" font-size="11" font-weight="bold" lengthAdjust="spacing" textLength="39" x="283" y="646.8042">usage</text><text fill="#FFE797" font-family="sans-serif" font-size="11" lengthAdjust="spacing" textLength="46" x="322" y="646.8042">: double</text><text fill="#FFE797" font-family="sans-serif" font-size="11" font-weight="bold" lengthAdjust="spacing" textLength="71" x="283" y="669.6089">quota_type</text><text fill="#FFE797" font-family="sans-serif" font-size="11" lengthAdjust="spacing" textLength="41" x="354" y="669.6089">: string</text><!--MD5=[f2e159a96ac7000503ac17b81890b08b]
class certificate_quota--><rect codeLine="40" fill="#194875" height="39.7891" id="certificate_quota" rx="2.5" ry="2.5" style="stroke:#000000;stroke-width:1.5;" width="182" x="248" y="817.5"/><ellipse cx="263" cy="837.3945" fill="#1A83AF" rx="11" ry="11" style="stroke:#000000;stroke-width:1.0;"/><path d="M265.9688,843.0352 Q265.3906,843.332 264.75,843.4727 Q264.1094,843.6289 263.4063,843.6289 Q260.9063,843.6289 259.5781,841.9883 Q258.2656,840.332 258.2656,837.207 Q258.2656,834.082 259.5781,832.4258 Q260.9063,830.7695 263.4063,830.7695 Q264.1094,830.7695 264.75,830.9258 Q265.4063,831.082 265.9688,831.3789 L265.9688,834.0977 Q265.3438,833.5195 264.75,833.2539 Q264.1563,832.9727 263.5313,832.9727 Q262.1875,832.9727 261.5,834.0508 Q260.8125,835.1133 260.8125,837.207 Q260.8125,839.3008 261.5,840.3789 Q262.1875,841.4414 263.5313,841.4414 Q264.1563,841.4414 264.75,841.1758 Q265.3438,840.8945 265.9688,840.3164 L265.9688,843.0352 Z " fill="#000000"/><text fill="#FFE797" font-family="Helvetica" font-size="17" lengthAdjust="spacing" textLength="140" x="282" y="843.2798">certificate_quota</text><!--MD5=[552019ffe41fea5cb78274e58c2151ab]
class aws_iam_server_certificate_quota--><rect codeLine="43" fill="#194875" height="39.7891" id="aws_iam_server_certificate_quota" rx="2.5" ry="2.5" style="stroke:#000000;stroke-width:1.5;" width="326" x="7" y="994"/><ellipse cx="22" cy="1013.8945" fill="#1A83AF" rx="11" ry="11" style="stroke:#000000;stroke-width:1.0;"/><path d="M24.9688,1019.5352 Q24.3906,1019.832 23.75,1019.9727 Q23.1094,1020.1289 22.4063,1020.1289 Q19.9063,1020.1289 18.5781,1018.4883 Q17.2656,1016.832 17.2656,1013.707 Q17.2656,1010.582 18.5781,1008.9258 Q19.9063,1007.2695 22.4063,1007.2695 Q23.1094,1007.2695 23.75,1007.4258 Q24.4063,1007.582 24.9688,1007.8789 L24.9688,1010.5977 Q24.3438,1010.0195 23.75,1009.7539 Q23.1563,1009.4727 22.5313,1009.4727 Q21.1875,1009.4727 20.5,1010.5508 Q19.8125,1011.6133 19.8125,1013.707 Q19.8125,1015.8008 20.5,1016.8789 Q21.1875,1017.9414 22.5313,1017.9414 Q23.1563,1017.9414 23.75,1017.6758 Q24.3438,1017.3945 24.9688,1016.8164 L24.9688,1019.5352 Z " fill="#000000"/><text fill="#FFE797" font-family="Helvetica" font-size="17" lengthAdjust="spacing" textLength="284" x="41" y="1019.7798">aws_iam_server_certificate_quota</text><!--MD5=[e134558fd6f7e839ecb28ecbda576c0a]
reverse link resource to phantom_resource--><path codeLine="46" d="M339,303.48 C339,343.73 339,381.81 339,403.75 " fill="none" id="resource-backto-phantom_resource" style="stroke:#FFAF37;stroke-width:2.0;"/><polygon fill="none" points="332,303.28,339,283.28,346,303.28,332,303.28" style="stroke:#FFAF37;stroke-width:2.0;"/><!--MD5=[8c556d10106c40540c768b31155cb09d]
reverse link phantom_resource to quota--><path codeLine="47" d="M339,464.28 C339,493.07 339,532.58 339,564.86 " fill="none" id="phantom_resource-backto-quota" style="stroke:#FFAF37;stroke-width:2.0;"/><polygon fill="none" points="332,464.25,339,444.25,346,464.25,332,464.25" style="stroke:#FFAF37;stroke-width:2.0;"/><!--MD5=[b4c38ffdb109c0b2955a8b84d2960200]
reverse link quota to certificate_quota--><path codeLine="48" d="M339,701.37 C339,743.08 339,791.22 339,817.3 " fill="none" id="quota-backto-certificate_quota" style="stroke:#FFAF37;stroke-width:2.0;"/><polygon fill="none" points="332,701.23,339,681.23,346,701.23,332,701.23" style="stroke:#FFAF37;stroke-width:2.0;"/><!--MD5=[a8eb8f74a3a05da62bdb50eb2270347f]
reverse link aws_resource to aws_iam_server_certificate_quota--><path codeLine="49" d="M145.94,893.04 C152.84,927.43 161.32,969.75 166.15,993.82 " fill="none" id="aws_resource-backto-aws_iam_server_certificate_quota" style="stroke:#FFAF37;stroke-width:2.0;"/><polygon fill="none" points="139.07,894.38,142,873.39,152.8,891.63,139.07,894.38" style="stroke:#FFAF37;stroke-width:2.0;"/><!--MD5=[7cd4797e41d14cad12203326673729dd]
reverse link certificate_quota to aws_iam_server_certificate_quota--><path codeLine="50" d="M306.48,872.08 C271.48,908.21 217.03,964.44 188.64,993.75 " fill="none" id="certificate_quota-backto-aws_iam_server_certificate_quota" style="stroke:#FFAF37;stroke-width:2.0;"/><polygon fill="none" points="301.65,867,320.59,857.51,311.71,876.74,301.65,867" style="stroke:#FFAF37;stroke-width:2.0;"/><!--MD5=[fe15ba07ebaa5e2dad075f2e3462d16e]
@startuml
hide empty members
skinparam ArrowColor #ffaf37
skinparam ArrowThickness 2
skinparam BackgroundColor transparent
skinparam ClassAttributeFontColor #ffe797
skinparam ClassBackgroundColor #194875
skinparam ClassBorderColor Black
skinparam ClassFontColor #ffe797
skinparam ClassFontName Helvetica
skinparam ClassFontSize 17
skinparam Padding 5
skinparam RoundCorner 5
skinparam Shadowing false
skinparam stereotypeCBackgroundColor #1a83af
skinparam stereotypeIBackgroundColor #1a83af

class phantom_resource {

}
class resource {
**id**: string
**tags**: dictionary[string, string]
**name**: string
**ctime**: datetime
**age**: trafo.duration_to_datetime
**mtime**: datetime
**last_update**: trafo.duration_to_datetime
**atime**: datetime
**last_access**: trafo.duration_to_datetime
**kind**: string
}
class aws_resource {
**arn**: string
}
class quota {
**quota**: double
**usage**: double
**quota_type**: string
}
class certificate_quota {

}
class aws_iam_server_certificate_quota {

}
resource <|- - - phantom_resource
phantom_resource <|- - - quota
quota <|- - - certificate_quota
aws_resource <|- - - aws_iam_server_certificate_quota
certificate_quota <|- - - aws_iam_server_certificate_quota
@enduml

PlantUML version 1.2021.16(Wed Dec 08 17:25:22 UTC 2021)
(GPL source distribution)
Java Runtime: OpenJDK Runtime Environment
JVM: OpenJDK 64-Bit Server VM
Default Encoding: UTF-8
Language: en
Country: null
--></g></svg>