<svg xmlns="http://www.w3.org/2000/svg" xmlns:xlink="http://www.w3.org/1999/xlink" width="420" height="855" contentScriptType="application/ecmascript" contentStyleType="text/css" style="width:420px;height:855px;background:#00000000" preserveAspectRatio="none" version="1.1" viewBox="0 0 420 855" zoomAndPan="magnify"><g><rect id="resource" width="256" height="275.836" x="7" y="7" fill="#194875" codeLine="17" rx="2.5" ry="2.5" style="stroke:#000;stroke-width:1.5"/><ellipse cx="90.25" cy="26.895" fill="#1A83AF" rx="11" ry="11" style="stroke:#000;stroke-width:1"/><path fill="#000" d="M93.2188,32.5352 Q92.6406,32.832 92,32.9727 Q91.3594,33.1289 90.6563,33.1289 Q88.1563,33.1289 86.8281,31.4883 Q85.5156,29.832 85.5156,26.707 Q85.5156,23.582 86.8281,21.9258 Q88.1563,20.2695 90.6563,20.2695 Q91.3594,20.2695 92,20.4258 Q92.6563,20.582 93.2188,20.8789 L93.2188,23.5977 Q92.5938,23.0195 92,22.7539 Q91.4063,22.4727 90.7813,22.4727 Q89.4375,22.4727 88.75,23.5508 Q88.0625,24.6133 88.0625,26.707 Q88.0625,28.8008 88.75,29.8789 Q89.4375,30.9414 90.7813,30.9414 Q91.4063,30.9414 92,30.6758 Q92.5938,30.3945 93.2188,29.8164 L93.2188,32.5352 Z"/><text x="115.75" y="32.78" fill="#FFE797" font-family="Helvetica" font-size="17" lengthAdjust="spacing" textLength="71">resource</text><line style="stroke:#000;stroke-width:1.5" x1="8" x2="262" y1="46.789" y2="46.789"/><text x="18" y="65.999" fill="#FFE797" font-family="sans-serif" font-size="11" font-weight="bold" lengthAdjust="spacing" textLength="12">id</text><text x="30" y="65.999" fill="#FFE797" font-family="sans-serif" font-size="11" lengthAdjust="spacing" textLength="41">: string</text><text x="18" y="88.804" fill="#FFE797" font-family="sans-serif" font-size="11" font-weight="bold" lengthAdjust="spacing" textLength="28">tags</text><text x="46" y="88.804" fill="#FFE797" font-family="sans-serif" font-size="11" lengthAdjust="spacing" textLength="145">: dictionary[string, string]</text><text x="18" y="111.609" fill="#FFE797" font-family="sans-serif" font-size="11" font-weight="bold" lengthAdjust="spacing" textLength="35">name</text><text x="53" y="111.609" fill="#FFE797" font-family="sans-serif" font-size="11" lengthAdjust="spacing" textLength="41">: string</text><text x="18" y="134.414" fill="#FFE797" font-family="sans-serif" font-size="11" font-weight="bold" lengthAdjust="spacing" textLength="35">ctime</text><text x="53" y="134.414" fill="#FFE797" font-family="sans-serif" font-size="11" lengthAdjust="spacing" textLength="58">: datetime</text><text x="18" y="157.218" fill="#FFE797" font-family="sans-serif" font-size="11" font-weight="bold" lengthAdjust="spacing" textLength="24">age</text><text x="42" y="157.218" fill="#FFE797" font-family="sans-serif" font-size="11" lengthAdjust="spacing" textLength="159">: trafo.duration_to_datetime</text><text x="18" y="180.023" fill="#FFE797" font-family="sans-serif" font-size="11" font-weight="bold" lengthAdjust="spacing" textLength="39">mtime</text><text x="57" y="180.023" fill="#FFE797" font-family="sans-serif" font-size="11" lengthAdjust="spacing" textLength="58">: datetime</text><text x="18" y="202.828" fill="#FFE797" font-family="sans-serif" font-size="11" font-weight="bold" lengthAdjust="spacing" textLength="75">last_update</text><text x="93" y="202.828" fill="#FFE797" font-family="sans-serif" font-size="11" lengthAdjust="spacing" textLength="159">: trafo.duration_to_datetime</text><text x="18" y="225.632" fill="#FFE797" font-family="sans-serif" font-size="11" font-weight="bold" lengthAdjust="spacing" textLength="36">atime</text><text x="54" y="225.632" fill="#FFE797" font-family="sans-serif" font-size="11" lengthAdjust="spacing" textLength="58">: datetime</text><text x="18" y="248.437" fill="#FFE797" font-family="sans-serif" font-size="11" font-weight="bold" lengthAdjust="spacing" textLength="74">last_access</text><text x="92" y="248.437" fill="#FFE797" font-family="sans-serif" font-size="11" lengthAdjust="spacing" textLength="159">: trafo.duration_to_datetime</text><text x="18" y="271.242" fill="#FFE797" font-family="sans-serif" font-size="11" font-weight="bold" lengthAdjust="spacing" textLength="27">kind</text><text x="45" y="271.242" fill="#FFE797" font-family="sans-serif" font-size="11" lengthAdjust="spacing" textLength="41">: string</text><rect id="aws_resource" width="155" height="70.594" x="258.5" y="415" fill="#194875" codeLine="29" rx="2.5" ry="2.5" style="stroke:#000;stroke-width:1.5"/><ellipse cx="273.5" cy="434.894" fill="#1A83AF" rx="11" ry="11" style="stroke:#000;stroke-width:1"/><path fill="#000" d="M276.4688,440.5352 Q275.8906,440.832 275.25,440.9727 Q274.6094,441.1289 273.9063,441.1289 Q271.4063,441.1289 270.0781,439.4883 Q268.7656,437.832 268.7656,434.707 Q268.7656,431.582 270.0781,429.9258 Q271.4063,428.2695 273.9063,428.2695 Q274.6094,428.2695 275.25,428.4258 Q275.9063,428.582 276.4688,428.8789 L276.4688,431.5977 Q275.8438,431.0195 275.25,430.7539 Q274.6563,430.4727 274.0313,430.4727 Q272.6875,430.4727 272,431.5508 Q271.3125,432.6133 271.3125,434.707 Q271.3125,436.8008 272,437.8789 Q272.6875,438.9414 274.0313,438.9414 Q274.6563,438.9414 275.25,438.6758 Q275.8438,438.3945 276.4688,437.8164 L276.4688,440.5352 Z"/><text x="292.5" y="440.78" fill="#FFE797" font-family="Helvetica" font-size="17" lengthAdjust="spacing" textLength="113">aws_resource</text><line style="stroke:#000;stroke-width:1.5" x1="259.5" x2="412.5" y1="454.789" y2="454.789"/><text x="269.5" y="474" fill="#FFE797" font-family="sans-serif" font-size="11" font-weight="bold" lengthAdjust="spacing" textLength="21">arn</text><text x="290.5" y="474" fill="#FFE797" font-family="sans-serif" font-size="11" lengthAdjust="spacing" textLength="41">: string</text><rect id="aws_ec2_elastic_ip" width="243" height="230.227" x="146.5" y="618" fill="#194875" codeLine="32" rx="2.5" ry="2.5" style="stroke:#000;stroke-width:1.5"/><ellipse cx="181.3" cy="637.894" fill="#1A83AF" rx="11" ry="11" style="stroke:#000;stroke-width:1"/><path fill="#000" d="M184.2688,643.5352 Q183.6906,643.832 183.05,643.9727 Q182.4094,644.1289 181.7063,644.1289 Q179.2063,644.1289 177.8781,642.4883 Q176.5656,640.832 176.5656,637.707 Q176.5656,634.582 177.8781,632.9258 Q179.2063,631.2695 181.7063,631.2695 Q182.4094,631.2695 183.05,631.4258 Q183.7063,631.582 184.2688,631.8789 L184.2688,634.5977 Q183.6438,634.0195 183.05,633.7539 Q182.4563,633.4727 181.8313,633.4727 Q180.4875,633.4727 179.8,634.5508 Q179.1125,635.6133 179.1125,637.707 Q179.1125,639.8008 179.8,640.8789 Q180.4875,641.9414 181.8313,641.9414 Q182.4563,641.9414 183.05,641.6758 Q183.6438,641.3945 184.2688,640.8164 L184.2688,643.5352 Z"/><text x="204.7" y="643.78" fill="#FFE797" font-family="Helvetica" font-size="17" lengthAdjust="spacing" textLength="157">aws_ec2_elastic_ip</text><line style="stroke:#000;stroke-width:1.5" x1="147.5" x2="388.5" y1="657.789" y2="657.789"/><text x="157.5" y="677" fill="#FFE797" font-family="sans-serif" font-size="11" font-weight="bold" lengthAdjust="spacing" textLength="73">instance_id</text><text x="230.5" y="677" fill="#FFE797" font-family="sans-serif" font-size="11" lengthAdjust="spacing" textLength="41">: string</text><text x="157.5" y="699.804" fill="#FFE797" font-family="sans-serif" font-size="11" font-weight="bold" lengthAdjust="spacing" textLength="57">public_ip</text><text x="214.5" y="699.804" fill="#FFE797" font-family="sans-serif" font-size="11" lengthAdjust="spacing" textLength="41">: string</text><text x="157.5" y="722.609" fill="#FFE797" font-family="sans-serif" font-size="11" font-weight="bold" lengthAdjust="spacing" textLength="82">allocation_id</text><text x="239.5" y="722.609" fill="#FFE797" font-family="sans-serif" font-size="11" lengthAdjust="spacing" textLength="41">: string</text><text x="157.5" y="745.414" fill="#FFE797" font-family="sans-serif" font-size="11" font-weight="bold" lengthAdjust="spacing" textLength="92">association_id</text><text x="249.5" y="745.414" fill="#FFE797" font-family="sans-serif" font-size="11" lengthAdjust="spacing" textLength="41">: string</text><text x="157.5" y="768.218" fill="#FFE797" font-family="sans-serif" font-size="11" font-weight="bold" lengthAdjust="spacing" textLength="47">domain</text><text x="204.5" y="768.218" fill="#FFE797" font-family="sans-serif" font-size="11" lengthAdjust="spacing" textLength="41">: string</text><text x="157.5" y="791.023" fill="#FFE797" font-family="sans-serif" font-size="11" font-weight="bold" lengthAdjust="spacing" textLength="134">network_interface_id</text><text x="291.5" y="791.023" fill="#FFE797" font-family="sans-serif" font-size="11" lengthAdjust="spacing" textLength="41">: string</text><text x="157.5" y="813.828" fill="#FFE797" font-family="sans-serif" font-size="11" font-weight="bold" lengthAdjust="spacing" textLength="180">network_interface_owner_id</text><text x="337.5" y="813.828" fill="#FFE797" font-family="sans-serif" font-size="11" lengthAdjust="spacing" textLength="41">: string</text><text x="157.5" y="836.632" fill="#FFE797" font-family="sans-serif" font-size="11" font-weight="bold" lengthAdjust="spacing" textLength="120">private_ip_address</text><text x="277.5" y="836.632" fill="#FFE797" font-family="sans-serif" font-size="11" lengthAdjust="spacing" textLength="41">: string</text><rect id="ip_address" width="177" height="93.398" x="46.5" y="404" fill="#194875" codeLine="42" rx="2.5" ry="2.5" style="stroke:#000;stroke-width:1.5"/><ellipse cx="83.1" cy="423.894" fill="#1A83AF" rx="11" ry="11" style="stroke:#000;stroke-width:1"/><path fill="#000" d="M86.0688,429.5352 Q85.4906,429.832 84.85,429.9727 Q84.2094,430.1289 83.5063,430.1289 Q81.0063,430.1289 79.6781,428.4883 Q78.3656,426.832 78.3656,423.707 Q78.3656,420.582 79.6781,418.9258 Q81.0063,417.2695 83.5063,417.2695 Q84.2094,417.2695 84.85,417.4258 Q85.5063,417.582 86.0688,417.8789 L86.0688,420.5977 Q85.4438,420.0195 84.85,419.7539 Q84.2563,419.4727 83.6313,419.4727 Q82.2875,419.4727 81.6,420.5508 Q80.9125,421.6133 80.9125,423.707 Q80.9125,425.8008 81.6,426.8789 Q82.2875,427.9414 83.6313,427.9414 Q84.2563,427.9414 84.85,427.6758 Q85.4438,427.3945 86.0688,426.8164 L86.0688,429.5352 Z"/><text x="106.9" y="429.78" fill="#FFE797" font-family="Helvetica" font-size="17" lengthAdjust="spacing" textLength="87">ip_address</text><line style="stroke:#000;stroke-width:1.5" x1="47.5" x2="222.5" y1="443.789" y2="443.789"/><text x="57.5" y="463" fill="#FFE797" font-family="sans-serif" font-size="11" font-weight="bold" lengthAdjust="spacing" textLength="69">ip_address</text><text x="126.5" y="463" fill="#FFE797" font-family="sans-serif" font-size="11" lengthAdjust="spacing" textLength="41">: string</text><text x="57.5" y="485.804" fill="#FFE797" font-family="sans-serif" font-size="11" font-weight="bold" lengthAdjust="spacing" textLength="114">ip_address_family</text><text x="171.5" y="485.804" fill="#FFE797" font-family="sans-serif" font-size="11" lengthAdjust="spacing" textLength="41">: string</text><path id="aws_resource-backto-aws_ec2_elastic_ip" fill="none" d="M322.88,505.61 C315.15,537.52 305.06,579.13 295.65,617.96" codeLine="46" style="stroke:#ffaf37;stroke-width:2"/><polygon fill="none" points="316.08 503.96 327.59 486.18 329.68 507.26 316.08 503.96" style="stroke:#ffaf37;stroke-width:2"/><path id="ip_address-backto-aws_ec2_elastic_ip" fill="none" d="M165.38,515.57 C179.75,545.89 197.36,583.03 213.91,617.92" codeLine="47" style="stroke:#ffaf37;stroke-width:2"/><polygon fill="none" points="158.91 518.26 156.66 497.19 171.56 512.26 158.91 518.26" style="stroke:#ffaf37;stroke-width:2"/><path id="resource-backto-ip_address" fill="none" d="M135,303.23 C135,340.03 135,376.4 135,403.66" codeLine="48" style="stroke:#ffaf37;stroke-width:2"/><polygon fill="none" points="128 303.1 135 283.1 142 303.1 128 303.1" style="stroke:#ffaf37;stroke-width:2"/></g></svg>