<svg xmlns="http://www.w3.org/2000/svg" xmlns:xlink="http://www.w3.org/1999/xlink" width="310" height="1144" contentScriptType="application/ecmascript" contentStyleType="text/css" style="width:310px;height:1144px;background:#00000000" preserveAspectRatio="none" version="1.1" viewBox="0 0 310 1144" zoomAndPan="magnify"><g><rect id="resource" width="256" height="275.836" x="27" y="7" fill="#194875" codeLine="17" rx="2.5" ry="2.5" style="stroke:#000;stroke-width:1.5"/><ellipse cx="110.25" cy="26.895" fill="#1A83AF" rx="11" ry="11" style="stroke:#000;stroke-width:1"/><path fill="#000" d="M113.2188,32.5352 Q112.6406,32.832 112,32.9727 Q111.3594,33.1289 110.6563,33.1289 Q108.1563,33.1289 106.8281,31.4883 Q105.5156,29.832 105.5156,26.707 Q105.5156,23.582 106.8281,21.9258 Q108.1563,20.2695 110.6563,20.2695 Q111.3594,20.2695 112,20.4258 Q112.6563,20.582 113.2188,20.8789 L113.2188,23.5977 Q112.5938,23.0195 112,22.7539 Q111.4063,22.4727 110.7813,22.4727 Q109.4375,22.4727 108.75,23.5508 Q108.0625,24.6133 108.0625,26.707 Q108.0625,28.8008 108.75,29.8789 Q109.4375,30.9414 110.7813,30.9414 Q111.4063,30.9414 112,30.6758 Q112.5938,30.3945 113.2188,29.8164 L113.2188,32.5352 Z"/><text x="135.75" y="32.78" fill="#FFE797" font-family="Helvetica" font-size="17" lengthAdjust="spacing" textLength="71">resource</text><line style="stroke:#000;stroke-width:1.5" x1="28" x2="282" y1="46.789" y2="46.789"/><text x="38" y="65.999" fill="#FFE797" font-family="sans-serif" font-size="11" font-weight="bold" lengthAdjust="spacing" textLength="12">id</text><text x="50" y="65.999" fill="#FFE797" font-family="sans-serif" font-size="11" lengthAdjust="spacing" textLength="41">: string</text><text x="38" y="88.804" fill="#FFE797" font-family="sans-serif" font-size="11" font-weight="bold" lengthAdjust="spacing" textLength="28">tags</text><text x="66" y="88.804" fill="#FFE797" font-family="sans-serif" font-size="11" lengthAdjust="spacing" textLength="145">: dictionary[string, string]</text><text x="38" y="111.609" fill="#FFE797" font-family="sans-serif" font-size="11" font-weight="bold" lengthAdjust="spacing" textLength="35">name</text><text x="73" y="111.609" fill="#FFE797" font-family="sans-serif" font-size="11" lengthAdjust="spacing" textLength="41">: string</text><text x="38" y="134.414" fill="#FFE797" font-family="sans-serif" font-size="11" font-weight="bold" lengthAdjust="spacing" textLength="35">ctime</text><text x="73" y="134.414" fill="#FFE797" font-family="sans-serif" font-size="11" lengthAdjust="spacing" textLength="58">: datetime</text><text x="38" y="157.218" fill="#FFE797" font-family="sans-serif" font-size="11" font-weight="bold" lengthAdjust="spacing" textLength="24">age</text><text x="62" y="157.218" fill="#FFE797" font-family="sans-serif" font-size="11" lengthAdjust="spacing" textLength="159">: trafo.duration_to_datetime</text><text x="38" y="180.023" fill="#FFE797" font-family="sans-serif" font-size="11" font-weight="bold" lengthAdjust="spacing" textLength="39">mtime</text><text x="77" y="180.023" fill="#FFE797" font-family="sans-serif" font-size="11" lengthAdjust="spacing" textLength="58">: datetime</text><text x="38" y="202.828" fill="#FFE797" font-family="sans-serif" font-size="11" font-weight="bold" lengthAdjust="spacing" textLength="75">last_update</text><text x="113" y="202.828" fill="#FFE797" font-family="sans-serif" font-size="11" lengthAdjust="spacing" textLength="159">: trafo.duration_to_datetime</text><text x="38" y="225.632" fill="#FFE797" font-family="sans-serif" font-size="11" font-weight="bold" lengthAdjust="spacing" textLength="36">atime</text><text x="74" y="225.632" fill="#FFE797" font-family="sans-serif" font-size="11" lengthAdjust="spacing" textLength="58">: datetime</text><text x="38" y="248.437" fill="#FFE797" font-family="sans-serif" font-size="11" font-weight="bold" lengthAdjust="spacing" textLength="74">last_access</text><text x="112" y="248.437" fill="#FFE797" font-family="sans-serif" font-size="11" lengthAdjust="spacing" textLength="159">: trafo.duration_to_datetime</text><text x="38" y="271.242" fill="#FFE797" font-family="sans-serif" font-size="11" font-weight="bold" lengthAdjust="spacing" textLength="27">kind</text><text x="65" y="271.242" fill="#FFE797" font-family="sans-serif" font-size="11" lengthAdjust="spacing" textLength="41">: string</text><rect id="account" width="107" height="39.789" x="101.5" y="404" fill="#194875" codeLine="29" rx="2.5" ry="2.5" style="stroke:#000;stroke-width:1.5"/><ellipse cx="116.5" cy="423.894" fill="#1A83AF" rx="11" ry="11" style="stroke:#000;stroke-width:1"/><path fill="#000" d="M119.4688,429.5352 Q118.8906,429.832 118.25,429.9727 Q117.6094,430.1289 116.9063,430.1289 Q114.4063,430.1289 113.0781,428.4883 Q111.7656,426.832 111.7656,423.707 Q111.7656,420.582 113.0781,418.9258 Q114.4063,417.2695 116.9063,417.2695 Q117.6094,417.2695 118.25,417.4258 Q118.9063,417.582 119.4688,417.8789 L119.4688,420.5977 Q118.8438,420.0195 118.25,419.7539 Q117.6563,419.4727 117.0313,419.4727 Q115.6875,419.4727 115,420.5508 Q114.3125,421.6133 114.3125,423.707 Q114.3125,425.8008 115,426.8789 Q115.6875,427.9414 117.0313,427.9414 Q117.6563,427.9414 118.25,427.6758 Q118.8438,427.3945 119.4688,426.8164 L119.4688,429.5352 Z"/><text x="135.5" y="429.78" fill="#FFE797" font-family="Helvetica" font-size="17" lengthAdjust="spacing" textLength="65">account</text><rect id="aws_account" width="296" height="572.297" x="7" y="565" fill="#194875" codeLine="32" rx="2.5" ry="2.5" style="stroke:#000;stroke-width:1.5"/><ellipse cx="92.25" cy="584.894" fill="#1A83AF" rx="11" ry="11" style="stroke:#000;stroke-width:1"/><path fill="#000" d="M95.2188,590.5352 Q94.6406,590.832 94,590.9727 Q93.3594,591.1289 92.6563,591.1289 Q90.1563,591.1289 88.8281,589.4883 Q87.5156,587.832 87.5156,584.707 Q87.5156,581.582 88.8281,579.9258 Q90.1563,578.2695 92.6563,578.2695 Q93.3594,578.2695 94,578.4258 Q94.6563,578.582 95.2188,578.8789 L95.2188,581.5977 Q94.5938,581.0195 94,580.7539 Q93.4063,580.4727 92.7813,580.4727 Q91.4375,580.4727 90.75,581.5508 Q90.0625,582.6133 90.0625,584.707 Q90.0625,586.8008 90.75,587.8789 Q91.4375,588.9414 92.7813,588.9414 Q93.4063,588.9414 94,588.6758 Q94.5938,588.3945 95.2188,587.8164 L95.2188,590.5352 Z"/><text x="117.75" y="590.78" fill="#FFE797" font-family="Helvetica" font-size="17" lengthAdjust="spacing" textLength="107">aws_account</text><line style="stroke:#000;stroke-width:1.5" x1="8" x2="302" y1="604.789" y2="604.789"/><text x="18" y="624" fill="#FFE797" font-family="sans-serif" font-size="11" font-weight="bold" lengthAdjust="spacing" textLength="88">account_alias</text><text x="106" y="624" fill="#FFE797" font-family="sans-serif" font-size="11" lengthAdjust="spacing" textLength="41">: string</text><text x="18" y="646.804" fill="#FFE797" font-family="sans-serif" font-size="11" font-weight="bold" lengthAdjust="spacing" textLength="25">role</text><text x="43" y="646.804" fill="#FFE797" font-family="sans-serif" font-size="11" lengthAdjust="spacing" textLength="41">: string</text><text x="18" y="669.609" fill="#FFE797" font-family="sans-serif" font-size="11" font-weight="bold" lengthAdjust="spacing" textLength="35">users</text><text x="53" y="669.609" fill="#FFE797" font-family="sans-serif" font-size="11" lengthAdjust="spacing" textLength="36">: int64</text><text x="18" y="692.414" fill="#FFE797" font-family="sans-serif" font-size="11" font-weight="bold" lengthAdjust="spacing" textLength="44">groups</text><text x="62" y="692.414" fill="#FFE797" font-family="sans-serif" font-size="11" lengthAdjust="spacing" textLength="36">: int64</text><text x="18" y="715.218" fill="#FFE797" font-family="sans-serif" font-size="11" font-weight="bold" lengthAdjust="spacing" textLength="139">account_mfa_enabled</text><text x="157" y="715.218" fill="#FFE797" font-family="sans-serif" font-size="11" lengthAdjust="spacing" textLength="36">: int64</text><text x="18" y="738.023" fill="#FFE797" font-family="sans-serif" font-size="11" font-weight="bold" lengthAdjust="spacing" textLength="191">account_access_keys_present</text><text x="209" y="738.023" fill="#FFE797" font-family="sans-serif" font-size="11" lengthAdjust="spacing" textLength="36">: int64</text><text x="18" y="760.828" fill="#FFE797" font-family="sans-serif" font-size="11" font-weight="bold" lengthAdjust="spacing" textLength="238">account_signing_certificates_present</text><text x="256" y="760.828" fill="#FFE797" font-family="sans-serif" font-size="11" lengthAdjust="spacing" textLength="36">: int64</text><text x="18" y="783.632" fill="#FFE797" font-family="sans-serif" font-size="11" font-weight="bold" lengthAdjust="spacing" textLength="79">mfa_devices</text><text x="97" y="783.632" fill="#FFE797" font-family="sans-serif" font-size="11" lengthAdjust="spacing" textLength="36">: int64</text><text x="18" y="806.437" fill="#FFE797" font-family="sans-serif" font-size="11" font-weight="bold" lengthAdjust="spacing" textLength="126">mfa_devices_in_use</text><text x="144" y="806.437" fill="#FFE797" font-family="sans-serif" font-size="11" lengthAdjust="spacing" textLength="36">: int64</text><text x="18" y="829.242" fill="#FFE797" font-family="sans-serif" font-size="11" font-weight="bold" lengthAdjust="spacing" textLength="50">policies</text><text x="68" y="829.242" fill="#FFE797" font-family="sans-serif" font-size="11" lengthAdjust="spacing" textLength="36">: int64</text><text x="18" y="852.046" fill="#FFE797" font-family="sans-serif" font-size="11" font-weight="bold" lengthAdjust="spacing" textLength="145">policy_versions_in_use</text><text x="163" y="852.046" fill="#FFE797" font-family="sans-serif" font-size="11" lengthAdjust="spacing" textLength="36">: int64</text><text x="18" y="874.851" fill="#FFE797" font-family="sans-serif" font-size="11" font-weight="bold" lengthAdjust="spacing" textLength="198">global_endpoint_token_version</text><text x="216" y="874.851" fill="#FFE797" font-family="sans-serif" font-size="11" lengthAdjust="spacing" textLength="36">: int64</text><text x="18" y="897.656" fill="#FFE797" font-family="sans-serif" font-size="11" font-weight="bold" lengthAdjust="spacing" textLength="119">server_certificates</text><text x="137" y="897.656" fill="#FFE797" font-family="sans-serif" font-size="11" lengthAdjust="spacing" textLength="36">: int64</text><text x="18" y="920.46" fill="#FFE797" font-family="sans-serif" font-size="11" font-weight="bold" lengthAdjust="spacing" textLength="172">minimum_password_length</text><text x="190" y="920.46" fill="#FFE797" font-family="sans-serif" font-size="11" lengthAdjust="spacing" textLength="36">: int64</text><text x="18" y="943.265" fill="#FFE797" font-family="sans-serif" font-size="11" font-weight="bold" lengthAdjust="spacing" textLength="104">require_symbols</text><text x="122" y="943.265" fill="#FFE797" font-family="sans-serif" font-size="11" lengthAdjust="spacing" textLength="53">: boolean</text><text x="18" y="966.07" fill="#FFE797" font-family="sans-serif" font-size="11" font-weight="bold" lengthAdjust="spacing" textLength="107">require_numbers</text><text x="125" y="966.07" fill="#FFE797" font-family="sans-serif" font-size="11" lengthAdjust="spacing" textLength="53">: boolean</text><text x="18" y="988.875" fill="#FFE797" font-family="sans-serif" font-size="11" font-weight="bold" lengthAdjust="spacing" textLength="193">require_uppercase_characters</text><text x="211" y="988.875" fill="#FFE797" font-family="sans-serif" font-size="11" lengthAdjust="spacing" textLength="53">: boolean</text><text x="18" y="1011.679" fill="#FFE797" font-family="sans-serif" font-size="11" font-weight="bold" lengthAdjust="spacing" textLength="192">require_lowercase_characters</text><text x="210" y="1011.679" fill="#FFE797" font-family="sans-serif" font-size="11" lengthAdjust="spacing" textLength="53">: boolean</text><text x="18" y="1034.484" fill="#FFE797" font-family="sans-serif" font-size="11" font-weight="bold" lengthAdjust="spacing" textLength="216">allow_users_to_change_password</text><text x="234" y="1034.484" fill="#FFE797" font-family="sans-serif" font-size="11" lengthAdjust="spacing" textLength="53">: boolean</text><text x="18" y="1057.289" fill="#FFE797" font-family="sans-serif" font-size="11" font-weight="bold" lengthAdjust="spacing" textLength="115">expire_passwords</text><text x="133" y="1057.289" fill="#FFE797" font-family="sans-serif" font-size="11" lengthAdjust="spacing" textLength="53">: boolean</text><text x="18" y="1080.093" fill="#FFE797" font-family="sans-serif" font-size="11" font-weight="bold" lengthAdjust="spacing" textLength="124">max_password_age</text><text x="142" y="1080.093" fill="#FFE797" font-family="sans-serif" font-size="11" lengthAdjust="spacing" textLength="36">: int64</text><text x="18" y="1102.898" fill="#FFE797" font-family="sans-serif" font-size="11" font-weight="bold" lengthAdjust="spacing" textLength="179">password_reuse_prevention</text><text x="197" y="1102.898" fill="#FFE797" font-family="sans-serif" font-size="11" lengthAdjust="spacing" textLength="36">: int64</text><text x="18" y="1125.703" fill="#FFE797" font-family="sans-serif" font-size="11" font-weight="bold" lengthAdjust="spacing" textLength="74">hard_expiry</text><text x="92" y="1125.703" fill="#FFE797" font-family="sans-serif" font-size="11" lengthAdjust="spacing" textLength="53">: boolean</text><path id="resource-backto-account" fill="none" d="M155,303.48 C155,343.73 155,381.81 155,403.75" codeLine="57" style="stroke:#ffaf37;stroke-width:2"/><polygon fill="none" points="148 303.28 155 283.28 162 303.28 148 303.28" style="stroke:#ffaf37;stroke-width:2"/><path id="account-backto-aws_account" fill="none" d="M155,464.38 C155,489.8 155,525.39 155,564.78" codeLine="58" style="stroke:#ffaf37;stroke-width:2"/><polygon fill="none" points="148 464.09 155 444.09 162 464.09 148 464.09" style="stroke:#ffaf37;stroke-width:2"/></g></svg>