<?xml version="1.0" encoding="UTF-8" standalone="no"?><svg xmlns="http://www.w3.org/2000/svg" xmlns:xlink="http://www.w3.org/1999/xlink" contentScriptType="application/ecmascript" contentStyleType="text/css" height="548px" preserveAspectRatio="none" style="width:334px;height:548px;background:#00000000;" version="1.1" viewBox="0 0 334 548" width="334px" zoomAndPan="magnify"><defs><filter height="300%" id="fezmf7guj0i6b" width="300%" x="-1" y="-1"><feGaussianBlur result="blurOut" stdDeviation="2.0"/><feColorMatrix in="blurOut" result="blurOut2" type="matrix" values="0 0 0 0 0 0 0 0 0 0 0 0 0 0 0 0 0 0 .4 0"/><feOffset dx="4.0" dy="4.0" in="blurOut2" result="blurOut3"/><feBlend in="SourceGraphic" in2="blurOut3" mode="normal"/></filter></defs><g><!--MD5=[7f0ecf5f554433d3f2e1213379ac821c]
class resource--><rect codeLine="2" fill="#FEFECE" filter="url(#fezmf7guj0i6b)" height="176.0469" id="resource" style="stroke:#A80036;stroke-width:1.5;" width="252" x="7" y="7"/><ellipse cx="100.75" cy="23" fill="#ADD1B2" rx="11" ry="11" style="stroke:#A80036;stroke-width:1.0;"/><path d="M103.7188,28.6406 Q103.1406,28.9375 102.5,29.0781 Q101.8594,29.2344 101.1563,29.2344 Q98.6563,29.2344 97.3281,27.5938 Q96.0156,25.9375 96.0156,22.8125 Q96.0156,19.6875 97.3281,18.0313 Q98.6563,16.375 101.1563,16.375 Q101.8594,16.375 102.5,16.5313 Q103.1563,16.6875 103.7188,16.9844 L103.7188,19.7031 Q103.0938,19.125 102.5,18.8594 Q101.9063,18.5781 101.2813,18.5781 Q99.9375,18.5781 99.25,19.6563 Q98.5625,20.7188 98.5625,22.8125 Q98.5625,24.9063 99.25,25.9844 Q99.9375,27.0469 101.2813,27.0469 Q101.9063,27.0469 102.5,26.7813 Q103.0938,26.5 103.7188,25.9219 L103.7188,28.6406 Z " fill="#000000"/><text fill="#000000" font-family="sans-serif" font-size="12" lengthAdjust="spacing" textLength="56" x="121.25" y="27.1543">resource</text><line style="stroke:#A80036;stroke-width:1.5;" x1="8" x2="258" y1="39" y2="39"/><ellipse cx="18" cy="50" rx="3" ry="3" style="stroke:#038048;stroke-width:1.0;fill:none;"/><text fill="#000000" font-family="sans-serif" font-size="11" lengthAdjust="spacing" textLength="51" x="27" y="53.2104">id: string</text><ellipse cx="18" cy="62.8047" rx="3" ry="3" style="stroke:#038048;stroke-width:1.0;fill:none;"/><text fill="#000000" font-family="sans-serif" font-size="11" lengthAdjust="spacing" textLength="170" x="27" y="66.0151">tags: dictionary[string, string]</text><ellipse cx="18" cy="75.6094" rx="3" ry="3" style="stroke:#038048;stroke-width:1.0;fill:none;"/><text fill="#000000" font-family="sans-serif" font-size="11" lengthAdjust="spacing" textLength="73" x="27" y="78.8198">name: string</text><ellipse cx="18" cy="88.4141" rx="3" ry="3" style="stroke:#038048;stroke-width:1.0;fill:none;"/><text fill="#000000" font-family="sans-serif" font-size="11" lengthAdjust="spacing" textLength="89" x="27" y="91.6245">ctime: datetime</text><ellipse cx="18" cy="101.2188" rx="3" ry="3" style="stroke:#038048;stroke-width:1.0;fill:none;"/><text fill="#000000" font-family="sans-serif" font-size="11" lengthAdjust="spacing" textLength="180" x="27" y="104.4292">age: trafo.duration_to_datetime</text><ellipse cx="18" cy="114.0234" rx="3" ry="3" style="stroke:#038048;stroke-width:1.0;fill:none;"/><text fill="#000000" font-family="sans-serif" font-size="11" lengthAdjust="spacing" textLength="94" x="27" y="117.2339">mtime: datetime</text><ellipse cx="18" cy="126.8281" rx="3" ry="3" style="stroke:#038048;stroke-width:1.0;fill:none;"/><text fill="#000000" font-family="sans-serif" font-size="11" lengthAdjust="spacing" textLength="225" x="27" y="130.0386">last_update: trafo.duration_to_datetime</text><ellipse cx="18" cy="139.6328" rx="3" ry="3" style="stroke:#038048;stroke-width:1.0;fill:none;"/><text fill="#000000" font-family="sans-serif" font-size="11" lengthAdjust="spacing" textLength="90" x="27" y="142.8433">atime: datetime</text><ellipse cx="18" cy="152.4375" rx="3" ry="3" style="stroke:#038048;stroke-width:1.0;fill:none;"/><text fill="#000000" font-family="sans-serif" font-size="11" lengthAdjust="spacing" textLength="226" x="27" y="155.6479">last_access: trafo.duration_to_datetime</text><ellipse cx="18" cy="165.2422" rx="3" ry="3" style="stroke:#038048;stroke-width:1.0;fill:none;"/><text fill="#000000" font-family="sans-serif" font-size="11" lengthAdjust="spacing" textLength="64" x="27" y="168.4526">kind: string</text><line style="stroke:#A80036;stroke-width:1.5;" x1="8" x2="258" y1="175.0469" y2="175.0469"/><!--MD5=[c069b88079f3e36515859a1683f3923c]
class aws_resource--><rect codeLine="14" fill="#FEFECE" filter="url(#fezmf7guj0i6b)" height="60.8047" id="aws_resource" style="stroke:#A80036;stroke-width:1.5;" width="118" x="202" y="304"/><ellipse cx="217" cy="320" fill="#ADD1B2" rx="11" ry="11" style="stroke:#A80036;stroke-width:1.0;"/><path d="M219.9688,325.6406 Q219.3906,325.9375 218.75,326.0781 Q218.1094,326.2344 217.4063,326.2344 Q214.9063,326.2344 213.5781,324.5938 Q212.2656,322.9375 212.2656,319.8125 Q212.2656,316.6875 213.5781,315.0313 Q214.9063,313.375 217.4063,313.375 Q218.1094,313.375 218.75,313.5313 Q219.4063,313.6875 219.9688,313.9844 L219.9688,316.7031 Q219.3438,316.125 218.75,315.8594 Q218.1563,315.5781 217.5313,315.5781 Q216.1875,315.5781 215.5,316.6563 Q214.8125,317.7188 214.8125,319.8125 Q214.8125,321.9063 215.5,322.9844 Q216.1875,324.0469 217.5313,324.0469 Q218.1563,324.0469 218.75,323.7813 Q219.3438,323.5 219.9688,322.9219 L219.9688,325.6406 Z " fill="#000000"/><text fill="#000000" font-family="sans-serif" font-size="12" lengthAdjust="spacing" textLength="86" x="231" y="324.1543">aws_resource</text><line style="stroke:#A80036;stroke-width:1.5;" x1="203" x2="319" y1="336" y2="336"/><ellipse cx="213" cy="347" rx="3" ry="3" style="stroke:#038048;stroke-width:1.0;fill:none;"/><text fill="#000000" font-family="sans-serif" font-size="11" lengthAdjust="spacing" textLength="60" x="222" y="350.2104">arn: string</text><line style="stroke:#A80036;stroke-width:1.5;" x1="203" x2="319" y1="356.8047" y2="356.8047"/><!--MD5=[c846a1b22732cb9ec434b6e9da35f0ea]
class aws_iam_policy--><rect codeLine="17" fill="#FEFECE" filter="url(#fezmf7guj0i6b)" height="48" id="aws_iam_policy" style="stroke:#A80036;stroke-width:1.5;" width="125" x="134.5" y="486"/><ellipse cx="149.5" cy="502" fill="#ADD1B2" rx="11" ry="11" style="stroke:#A80036;stroke-width:1.0;"/><path d="M152.4688,507.6406 Q151.8906,507.9375 151.25,508.0781 Q150.6094,508.2344 149.9063,508.2344 Q147.4063,508.2344 146.0781,506.5938 Q144.7656,504.9375 144.7656,501.8125 Q144.7656,498.6875 146.0781,497.0313 Q147.4063,495.375 149.9063,495.375 Q150.6094,495.375 151.25,495.5313 Q151.9063,495.6875 152.4688,495.9844 L152.4688,498.7031 Q151.8438,498.125 151.25,497.8594 Q150.6563,497.5781 150.0313,497.5781 Q148.6875,497.5781 148,498.6563 Q147.3125,499.7188 147.3125,501.8125 Q147.3125,503.9063 148,504.9844 Q148.6875,506.0469 150.0313,506.0469 Q150.6563,506.0469 151.25,505.7813 Q151.8438,505.5 152.4688,504.9219 L152.4688,507.6406 Z " fill="#000000"/><text fill="#000000" font-family="sans-serif" font-size="12" lengthAdjust="spacing" textLength="93" x="163.5" y="506.1543">aws_iam_policy</text><line style="stroke:#A80036;stroke-width:1.5;" x1="135.5" x2="258.5" y1="518" y2="518"/><line style="stroke:#A80036;stroke-width:1.5;" x1="135.5" x2="258.5" y1="526" y2="526"/><!--MD5=[3105e977017215c62956ee5c147722ae]
class policy--><rect codeLine="20" fill="#FEFECE" filter="url(#fezmf7guj0i6b)" height="48" id="policy" style="stroke:#A80036;stroke-width:1.5;" width="67" x="99.5" y="310.5"/><ellipse cx="114.5" cy="326.5" fill="#ADD1B2" rx="11" ry="11" style="stroke:#A80036;stroke-width:1.0;"/><path d="M117.4688,332.1406 Q116.8906,332.4375 116.25,332.5781 Q115.6094,332.7344 114.9063,332.7344 Q112.4063,332.7344 111.0781,331.0938 Q109.7656,329.4375 109.7656,326.3125 Q109.7656,323.1875 111.0781,321.5313 Q112.4063,319.875 114.9063,319.875 Q115.6094,319.875 116.25,320.0313 Q116.9063,320.1875 117.4688,320.4844 L117.4688,323.2031 Q116.8438,322.625 116.25,322.3594 Q115.6563,322.0781 115.0313,322.0781 Q113.6875,322.0781 113,323.1563 Q112.3125,324.2188 112.3125,326.3125 Q112.3125,328.4063 113,329.4844 Q113.6875,330.5469 115.0313,330.5469 Q115.6563,330.5469 116.25,330.2813 Q116.8438,330 117.4688,329.4219 L117.4688,332.1406 Z " fill="#000000"/><text fill="#000000" font-family="sans-serif" font-size="12" lengthAdjust="spacing" textLength="35" x="128.5" y="330.6543">policy</text><line style="stroke:#A80036;stroke-width:1.5;" x1="100.5" x2="165.5" y1="342.5" y2="342.5"/><line style="stroke:#A80036;stroke-width:1.5;" x1="100.5" x2="165.5" y1="350.5" y2="350.5"/><!--MD5=[efab98c4bcdd9bdc4f836facb52c7700]
reverse link aws_resource to aws_iam_policy--><path codeLine="23" d="M243.06,384.13 C230.78,417.43 215.04,460.08 205.51,485.93 " fill="none" id="aws_resource-backto-aws_iam_policy" style="stroke:#A80036;stroke-width:1.0;"/><polygon fill="none" points="236.51,381.67,250,365.33,249.64,386.51,236.51,381.67" style="stroke:#A80036;stroke-width:1.0;"/><!--MD5=[770238b557c21b53728e7231e8267248]
reverse link policy to aws_iam_policy--><path codeLine="24" d="M148.44,377.34 C161,411.4 178.27,458.21 188.47,485.87 " fill="none" id="policy-backto-aws_iam_policy" style="stroke:#A80036;stroke-width:1.0;"/><polygon fill="none" points="141.85,379.73,141.5,358.54,154.99,374.88,141.85,379.73" style="stroke:#A80036;stroke-width:1.0;"/><!--MD5=[d1b768fa0f5e561a77e04c19a766a91c]
reverse link resource to policy--><path codeLine="25" d="M133,203.16 C133,243.25 133,285.12 133,310.25 " fill="none" id="resource-backto-policy" style="stroke:#A80036;stroke-width:1.0;"/><polygon fill="none" points="126,203.09,133,183.09,140,203.09,126,203.09" style="stroke:#A80036;stroke-width:1.0;"/><!--MD5=[39a3caaca5ab293282e7cda10636d19a]
@startuml
skinparam backgroundcolor transparent
class resource {
+ id: string
+ tags: dictionary[string, string]
+ name: string
+ ctime: datetime
+ age: trafo.duration_to_datetime
+ mtime: datetime
+ last_update: trafo.duration_to_datetime
+ atime: datetime
+ last_access: trafo.duration_to_datetime
+ kind: string
}
class aws_resource {
+ arn: string
}
class aws_iam_policy {

}
class policy {

}
aws_resource <|- - - aws_iam_policy
policy <|- - - aws_iam_policy
resource <|- - - policy
@enduml

PlantUML version 1.2021.16(Wed Dec 08 17:25:22 UTC 2021)
(GPL source distribution)
Java Runtime: OpenJDK Runtime Environment
JVM: OpenJDK 64-Bit Server VM
Default Encoding: UTF-8
Language: en
Country: null
--></g></svg>