<?xml version="1.0" encoding="UTF-8" standalone="no"?><svg xmlns="http://www.w3.org/2000/svg" xmlns:xlink="http://www.w3.org/1999/xlink" contentScriptType="application/ecmascript" contentStyleType="text/css" height="662px" preserveAspectRatio="none" style="width:404px;height:662px;background:#00000000;" version="1.1" viewBox="0 0 404 662" width="404px" zoomAndPan="magnify"><defs><filter height="300%" id="f15nhsbftm53qz" width="300%" x="-1" y="-1"><feGaussianBlur result="blurOut" stdDeviation="2.0"/><feColorMatrix in="blurOut" result="blurOut2" type="matrix" values="0 0 0 0 0 0 0 0 0 0 0 0 0 0 0 0 0 0 .4 0"/><feOffset dx="4.0" dy="4.0" in="blurOut2" result="blurOut3"/><feBlend in="SourceGraphic" in2="blurOut3" mode="normal"/></filter></defs><g><!--MD5=[7f0ecf5f554433d3f2e1213379ac821c]
class resource--><rect codeLine="2" fill="#FEFECE" filter="url(#f15nhsbftm53qz)" height="176.0469" id="resource" style="stroke:#A80036;stroke-width:1.5;" width="252" x="7" y="7"/><ellipse cx="100.75" cy="23" fill="#ADD1B2" rx="11" ry="11" style="stroke:#A80036;stroke-width:1.0;"/><path d="M103.7188,28.6406 Q103.1406,28.9375 102.5,29.0781 Q101.8594,29.2344 101.1563,29.2344 Q98.6563,29.2344 97.3281,27.5938 Q96.0156,25.9375 96.0156,22.8125 Q96.0156,19.6875 97.3281,18.0313 Q98.6563,16.375 101.1563,16.375 Q101.8594,16.375 102.5,16.5313 Q103.1563,16.6875 103.7188,16.9844 L103.7188,19.7031 Q103.0938,19.125 102.5,18.8594 Q101.9063,18.5781 101.2813,18.5781 Q99.9375,18.5781 99.25,19.6563 Q98.5625,20.7188 98.5625,22.8125 Q98.5625,24.9063 99.25,25.9844 Q99.9375,27.0469 101.2813,27.0469 Q101.9063,27.0469 102.5,26.7813 Q103.0938,26.5 103.7188,25.9219 L103.7188,28.6406 Z " fill="#000000"/><text fill="#000000" font-family="sans-serif" font-size="12" lengthAdjust="spacing" textLength="56" x="121.25" y="27.1543">resource</text><line style="stroke:#A80036;stroke-width:1.5;" x1="8" x2="258" y1="39" y2="39"/><ellipse cx="18" cy="50" rx="3" ry="3" style="stroke:#038048;stroke-width:1.0;fill:none;"/><text fill="#000000" font-family="sans-serif" font-size="11" lengthAdjust="spacing" textLength="51" x="27" y="53.2104">id: string</text><ellipse cx="18" cy="62.8047" rx="3" ry="3" style="stroke:#038048;stroke-width:1.0;fill:none;"/><text fill="#000000" font-family="sans-serif" font-size="11" lengthAdjust="spacing" textLength="170" x="27" y="66.0151">tags: dictionary[string, string]</text><ellipse cx="18" cy="75.6094" rx="3" ry="3" style="stroke:#038048;stroke-width:1.0;fill:none;"/><text fill="#000000" font-family="sans-serif" font-size="11" lengthAdjust="spacing" textLength="73" x="27" y="78.8198">name: string</text><ellipse cx="18" cy="88.4141" rx="3" ry="3" style="stroke:#038048;stroke-width:1.0;fill:none;"/><text fill="#000000" font-family="sans-serif" font-size="11" lengthAdjust="spacing" textLength="89" x="27" y="91.6245">ctime: datetime</text><ellipse cx="18" cy="101.2188" rx="3" ry="3" style="stroke:#038048;stroke-width:1.0;fill:none;"/><text fill="#000000" font-family="sans-serif" font-size="11" lengthAdjust="spacing" textLength="180" x="27" y="104.4292">age: trafo.duration_to_datetime</text><ellipse cx="18" cy="114.0234" rx="3" ry="3" style="stroke:#038048;stroke-width:1.0;fill:none;"/><text fill="#000000" font-family="sans-serif" font-size="11" lengthAdjust="spacing" textLength="94" x="27" y="117.2339">mtime: datetime</text><ellipse cx="18" cy="126.8281" rx="3" ry="3" style="stroke:#038048;stroke-width:1.0;fill:none;"/><text fill="#000000" font-family="sans-serif" font-size="11" lengthAdjust="spacing" textLength="225" x="27" y="130.0386">last_update: trafo.duration_to_datetime</text><ellipse cx="18" cy="139.6328" rx="3" ry="3" style="stroke:#038048;stroke-width:1.0;fill:none;"/><text fill="#000000" font-family="sans-serif" font-size="11" lengthAdjust="spacing" textLength="90" x="27" y="142.8433">atime: datetime</text><ellipse cx="18" cy="152.4375" rx="3" ry="3" style="stroke:#038048;stroke-width:1.0;fill:none;"/><text fill="#000000" font-family="sans-serif" font-size="11" lengthAdjust="spacing" textLength="226" x="27" y="155.6479">last_access: trafo.duration_to_datetime</text><ellipse cx="18" cy="165.2422" rx="3" ry="3" style="stroke:#038048;stroke-width:1.0;fill:none;"/><text fill="#000000" font-family="sans-serif" font-size="11" lengthAdjust="spacing" textLength="64" x="27" y="168.4526">kind: string</text><line style="stroke:#A80036;stroke-width:1.5;" x1="8" x2="258" y1="175.0469" y2="175.0469"/><!--MD5=[c069b88079f3e36515859a1683f3923c]
class aws_resource--><rect codeLine="14" fill="#FEFECE" filter="url(#f15nhsbftm53qz)" height="60.8047" id="aws_resource" style="stroke:#A80036;stroke-width:1.5;" width="118" x="272" y="355"/><ellipse cx="287" cy="371" fill="#ADD1B2" rx="11" ry="11" style="stroke:#A80036;stroke-width:1.0;"/><path d="M289.9688,376.6406 Q289.3906,376.9375 288.75,377.0781 Q288.1094,377.2344 287.4063,377.2344 Q284.9063,377.2344 283.5781,375.5938 Q282.2656,373.9375 282.2656,370.8125 Q282.2656,367.6875 283.5781,366.0313 Q284.9063,364.375 287.4063,364.375 Q288.1094,364.375 288.75,364.5313 Q289.4063,364.6875 289.9688,364.9844 L289.9688,367.7031 Q289.3438,367.125 288.75,366.8594 Q288.1563,366.5781 287.5313,366.5781 Q286.1875,366.5781 285.5,367.6563 Q284.8125,368.7188 284.8125,370.8125 Q284.8125,372.9063 285.5,373.9844 Q286.1875,375.0469 287.5313,375.0469 Q288.1563,375.0469 288.75,374.7813 Q289.3438,374.5 289.9688,373.9219 L289.9688,376.6406 Z " fill="#000000"/><text fill="#000000" font-family="sans-serif" font-size="12" lengthAdjust="spacing" textLength="86" x="301" y="375.1543">aws_resource</text><line style="stroke:#A80036;stroke-width:1.5;" x1="273" x2="389" y1="387" y2="387"/><ellipse cx="283" cy="398" rx="3" ry="3" style="stroke:#038048;stroke-width:1.0;fill:none;"/><text fill="#000000" font-family="sans-serif" font-size="11" lengthAdjust="spacing" textLength="60" x="292" y="401.2104">arn: string</text><line style="stroke:#A80036;stroke-width:1.5;" x1="273" x2="389" y1="407.8047" y2="407.8047"/><!--MD5=[6dd357750fb0136eccb22bd541e74502]
class database--><rect codeLine="17" fill="#FEFECE" filter="url(#f15nhsbftm53qz)" height="163.2422" id="database" style="stroke:#A80036;stroke-width:1.5;" width="207" x="29.5" y="304"/><ellipse cx="98.75" cy="320" fill="#ADD1B2" rx="11" ry="11" style="stroke:#A80036;stroke-width:1.0;"/><path d="M101.7188,325.6406 Q101.1406,325.9375 100.5,326.0781 Q99.8594,326.2344 99.1563,326.2344 Q96.6563,326.2344 95.3281,324.5938 Q94.0156,322.9375 94.0156,319.8125 Q94.0156,316.6875 95.3281,315.0313 Q96.6563,313.375 99.1563,313.375 Q99.8594,313.375 100.5,313.5313 Q101.1563,313.6875 101.7188,313.9844 L101.7188,316.7031 Q101.0938,316.125 100.5,315.8594 Q99.9063,315.5781 99.2813,315.5781 Q97.9375,315.5781 97.25,316.6563 Q96.5625,317.7188 96.5625,319.8125 Q96.5625,321.9063 97.25,322.9844 Q97.9375,324.0469 99.2813,324.0469 Q99.9063,324.0469 100.5,323.7813 Q101.0938,323.5 101.7188,322.9219 L101.7188,325.6406 Z " fill="#000000"/><text fill="#000000" font-family="sans-serif" font-size="12" lengthAdjust="spacing" textLength="60" x="119.25" y="324.1543">database</text><line style="stroke:#A80036;stroke-width:1.5;" x1="30.5" x2="235.5" y1="336" y2="336"/><ellipse cx="40.5" cy="347" rx="3" ry="3" style="stroke:#038048;stroke-width:1.0;fill:none;"/><text fill="#000000" font-family="sans-serif" font-size="11" lengthAdjust="spacing" textLength="85" x="49.5" y="350.2104">db_type: string</text><ellipse cx="40.5" cy="359.8047" rx="3" ry="3" style="stroke:#038048;stroke-width:1.0;fill:none;"/><text fill="#000000" font-family="sans-serif" font-size="11" lengthAdjust="spacing" textLength="97" x="49.5" y="363.0151">db_status: string</text><ellipse cx="40.5" cy="372.6094" rx="3" ry="3" style="stroke:#038048;stroke-width:1.0;fill:none;"/><text fill="#000000" font-family="sans-serif" font-size="11" lengthAdjust="spacing" textLength="110" x="49.5" y="375.8198">db_endpoint: string</text><ellipse cx="40.5" cy="385.4141" rx="3" ry="3" style="stroke:#038048;stroke-width:1.0;fill:none;"/><text fill="#000000" font-family="sans-serif" font-size="11" lengthAdjust="spacing" textLength="103" x="49.5" y="388.6245">db_version: string</text><ellipse cx="40.5" cy="398.2188" rx="3" ry="3" style="stroke:#038048;stroke-width:1.0;fill:none;"/><text fill="#000000" font-family="sans-serif" font-size="11" lengthAdjust="spacing" textLength="181" x="49.5" y="401.4292">db_publicly_accessible: boolean</text><ellipse cx="40.5" cy="411.0234" rx="3" ry="3" style="stroke:#038048;stroke-width:1.0;fill:none;"/><text fill="#000000" font-family="sans-serif" font-size="11" lengthAdjust="spacing" textLength="119" x="49.5" y="414.2339">instance_type: string</text><ellipse cx="40.5" cy="423.8281" rx="3" ry="3" style="stroke:#038048;stroke-width:1.0;fill:none;"/><text fill="#000000" font-family="sans-serif" font-size="11" lengthAdjust="spacing" textLength="105" x="49.5" y="427.0386">volume_size: int64</text><ellipse cx="40.5" cy="436.6328" rx="3" ry="3" style="stroke:#038048;stroke-width:1.0;fill:none;"/><text fill="#000000" font-family="sans-serif" font-size="11" lengthAdjust="spacing" textLength="107" x="49.5" y="439.8433">volume_iops: int64</text><ellipse cx="40.5" cy="449.4375" rx="3" ry="3" style="stroke:#038048;stroke-width:1.0;fill:none;"/><text fill="#000000" font-family="sans-serif" font-size="11" lengthAdjust="spacing" textLength="156" x="49.5" y="452.6479">volume_encrypted: boolean</text><line style="stroke:#A80036;stroke-width:1.5;" x1="30.5" x2="235.5" y1="459.2422" y2="459.2422"/><!--MD5=[f3ba0b819851420cd825c172c4544ffa]
class aws_rds_instance--><rect codeLine="28" fill="#FEFECE" filter="url(#f15nhsbftm53qz)" height="60.8047" id="aws_rds_instance" style="stroke:#A80036;stroke-width:1.5;" width="179" x="142.5" y="588"/><ellipse cx="174.15" cy="604" fill="#ADD1B2" rx="11" ry="11" style="stroke:#A80036;stroke-width:1.0;"/><path d="M177.1188,609.6406 Q176.5406,609.9375 175.9,610.0781 Q175.2594,610.2344 174.5563,610.2344 Q172.0563,610.2344 170.7281,608.5938 Q169.4156,606.9375 169.4156,603.8125 Q169.4156,600.6875 170.7281,599.0313 Q172.0563,597.375 174.5563,597.375 Q175.2594,597.375 175.9,597.5313 Q176.5563,597.6875 177.1188,597.9844 L177.1188,600.7031 Q176.4938,600.125 175.9,599.8594 Q175.3063,599.5781 174.6813,599.5781 Q173.3375,599.5781 172.65,600.6563 Q171.9625,601.7188 171.9625,603.8125 Q171.9625,605.9063 172.65,606.9844 Q173.3375,608.0469 174.6813,608.0469 Q175.3063,608.0469 175.9,607.7813 Q176.4938,607.5 177.1188,606.9219 L177.1188,609.6406 Z " fill="#000000"/><text fill="#000000" font-family="sans-serif" font-size="12" lengthAdjust="spacing" textLength="110" x="191.85" y="608.1543">aws_rds_instance</text><line style="stroke:#A80036;stroke-width:1.5;" x1="143.5" x2="320.5" y1="620" y2="620"/><ellipse cx="153.5" cy="631" rx="3" ry="3" style="stroke:#038048;stroke-width:1.0;fill:none;"/><text fill="#000000" font-family="sans-serif" font-size="11" lengthAdjust="spacing" textLength="153" x="162.5" y="634.2104">volume_kms_key_id: string</text><line style="stroke:#A80036;stroke-width:1.5;" x1="143.5" x2="320.5" y1="640.8047" y2="640.8047"/><!--MD5=[fceed0354bfe0df8659e8e95b5b412ed]
reverse link resource to database--><path codeLine="31" d="M133,203.59 C133,236.8 133,272.79 133,303.85 " fill="none" id="resource-backto-database" style="stroke:#A80036;stroke-width:1.0;"/><polygon fill="none" points="126,203.34,133,183.34,140,203.34,126,203.34" style="stroke:#A80036;stroke-width:1.0;"/><!--MD5=[1ca13a637e1355338ee6adcd58477d65]
reverse link aws_resource to aws_rds_instance--><path codeLine="32" d="M310.29,434.83 C290.48,481.04 261.26,549.22 244.69,587.89 " fill="none" id="aws_resource-backto-aws_rds_instance" style="stroke:#A80036;stroke-width:1.0;"/><polygon fill="none" points="303.95,431.85,318.26,416.23,316.82,437.37,303.95,431.85" style="stroke:#A80036;stroke-width:1.0;"/><!--MD5=[3a2d74a52afc88cdd89aa99443f1049e]
reverse link database to aws_rds_instance--><path codeLine="33" d="M175.53,485.74 C191.36,522.68 208.16,561.88 219.28,587.82 " fill="none" id="database-backto-aws_rds_instance" style="stroke:#A80036;stroke-width:1.0;"/><polygon fill="none" points="169.07,488.43,167.63,467.29,181.94,482.92,169.07,488.43" style="stroke:#A80036;stroke-width:1.0;"/><!--MD5=[4b0debc157047a3dd3e38029b3068d80]
@startuml
skinparam backgroundcolor transparent
class resource {
+ id: string
+ tags: dictionary[string, string]
+ name: string
+ ctime: datetime
+ age: trafo.duration_to_datetime
+ mtime: datetime
+ last_update: trafo.duration_to_datetime
+ atime: datetime
+ last_access: trafo.duration_to_datetime
+ kind: string
}
class aws_resource {
+ arn: string
}
class database {
+ db_type: string
+ db_status: string
+ db_endpoint: string
+ db_version: string
+ db_publicly_accessible: boolean
+ instance_type: string
+ volume_size: int64
+ volume_iops: int64
+ volume_encrypted: boolean
}
class aws_rds_instance {
+ volume_kms_key_id: string
}
resource <|- - - database
aws_resource <|- - - aws_rds_instance
database <|- - - aws_rds_instance
@enduml

PlantUML version 1.2021.16(Wed Dec 08 17:25:22 UTC 2021)
(GPL source distribution)
Java Runtime: OpenJDK Runtime Environment
JVM: OpenJDK 64-Bit Server VM
Default Encoding: UTF-8
Language: en
Country: null
--></g></svg>