<?xml version="1.0" encoding="UTF-8" standalone="no"?><svg xmlns="http://www.w3.org/2000/svg" xmlns:xlink="http://www.w3.org/1999/xlink" contentScriptType="application/ecmascript" contentStyleType="text/css" height="641px" preserveAspectRatio="none" style="width:397px;height:641px;background:#00000000;" version="1.1" viewBox="0 0 397 641" width="397px" zoomAndPan="magnify"><defs/><g><!--MD5=[7f0ecf5f554433d3f2e1213379ac821c]
class resource--><rect codeLine="17" fill="#194875" height="275.8359" id="resource" rx="2.5" ry="2.5" style="stroke:#000000;stroke-width:1.5;" width="256" x="7" y="7"/><ellipse cx="90.25" cy="26.8945" fill="#1A83AF" rx="11" ry="11" style="stroke:#000000;stroke-width:1.0;"/><path d="M93.2188,32.5352 Q92.6406,32.832 92,32.9727 Q91.3594,33.1289 90.6563,33.1289 Q88.1563,33.1289 86.8281,31.4883 Q85.5156,29.832 85.5156,26.707 Q85.5156,23.582 86.8281,21.9258 Q88.1563,20.2695 90.6563,20.2695 Q91.3594,20.2695 92,20.4258 Q92.6563,20.582 93.2188,20.8789 L93.2188,23.5977 Q92.5938,23.0195 92,22.7539 Q91.4063,22.4727 90.7813,22.4727 Q89.4375,22.4727 88.75,23.5508 Q88.0625,24.6133 88.0625,26.707 Q88.0625,28.8008 88.75,29.8789 Q89.4375,30.9414 90.7813,30.9414 Q91.4063,30.9414 92,30.6758 Q92.5938,30.3945 93.2188,29.8164 L93.2188,32.5352 Z " fill="#000000"/><text fill="#FFE797" font-family="Helvetica" font-size="17" lengthAdjust="spacing" textLength="71" x="115.75" y="32.7798">resource</text><line style="stroke:#000000;stroke-width:1.5;" x1="8" x2="262" y1="46.7891" y2="46.7891"/><text fill="#FFE797" font-family="sans-serif" font-size="11" font-weight="bold" lengthAdjust="spacing" textLength="12" x="18" y="65.9995">id</text><text fill="#FFE797" font-family="sans-serif" font-size="11" lengthAdjust="spacing" textLength="41" x="30" y="65.9995">: string</text><text fill="#FFE797" font-family="sans-serif" font-size="11" font-weight="bold" lengthAdjust="spacing" textLength="28" x="18" y="88.8042">tags</text><text fill="#FFE797" font-family="sans-serif" font-size="11" lengthAdjust="spacing" textLength="145" x="46" y="88.8042">: dictionary[string, string]</text><text fill="#FFE797" font-family="sans-serif" font-size="11" font-weight="bold" lengthAdjust="spacing" textLength="35" x="18" y="111.6089">name</text><text fill="#FFE797" font-family="sans-serif" font-size="11" lengthAdjust="spacing" textLength="41" x="53" y="111.6089">: string</text><text fill="#FFE797" font-family="sans-serif" font-size="11" font-weight="bold" lengthAdjust="spacing" textLength="35" x="18" y="134.4136">ctime</text><text fill="#FFE797" font-family="sans-serif" font-size="11" lengthAdjust="spacing" textLength="58" x="53" y="134.4136">: datetime</text><text fill="#FFE797" font-family="sans-serif" font-size="11" font-weight="bold" lengthAdjust="spacing" textLength="24" x="18" y="157.2183">age</text><text fill="#FFE797" font-family="sans-serif" font-size="11" lengthAdjust="spacing" textLength="159" x="42" y="157.2183">: trafo.duration_to_datetime</text><text fill="#FFE797" font-family="sans-serif" font-size="11" font-weight="bold" lengthAdjust="spacing" textLength="39" x="18" y="180.0229">mtime</text><text fill="#FFE797" font-family="sans-serif" font-size="11" lengthAdjust="spacing" textLength="58" x="57" y="180.0229">: datetime</text><text fill="#FFE797" font-family="sans-serif" font-size="11" font-weight="bold" lengthAdjust="spacing" textLength="75" x="18" y="202.8276">last_update</text><text fill="#FFE797" font-family="sans-serif" font-size="11" lengthAdjust="spacing" textLength="159" x="93" y="202.8276">: trafo.duration_to_datetime</text><text fill="#FFE797" font-family="sans-serif" font-size="11" font-weight="bold" lengthAdjust="spacing" textLength="36" x="18" y="225.6323">atime</text><text fill="#FFE797" font-family="sans-serif" font-size="11" lengthAdjust="spacing" textLength="58" x="54" y="225.6323">: datetime</text><text fill="#FFE797" font-family="sans-serif" font-size="11" font-weight="bold" lengthAdjust="spacing" textLength="74" x="18" y="248.437">last_access</text><text fill="#FFE797" font-family="sans-serif" font-size="11" lengthAdjust="spacing" textLength="159" x="92" y="248.437">: trafo.duration_to_datetime</text><text fill="#FFE797" font-family="sans-serif" font-size="11" font-weight="bold" lengthAdjust="spacing" textLength="27" x="18" y="271.2417">kind</text><text fill="#FFE797" font-family="sans-serif" font-size="11" lengthAdjust="spacing" textLength="41" x="45" y="271.2417">: string</text><!--MD5=[c069b88079f3e36515859a1683f3923c]
class aws_resource--><rect codeLine="29" fill="#194875" height="70.5938" id="aws_resource" rx="2.5" ry="2.5" style="stroke:#000000;stroke-width:1.5;" width="155" x="235.5" y="404"/><ellipse cx="250.5" cy="423.8945" fill="#1A83AF" rx="11" ry="11" style="stroke:#000000;stroke-width:1.0;"/><path d="M253.4688,429.5352 Q252.8906,429.832 252.25,429.9727 Q251.6094,430.1289 250.9063,430.1289 Q248.4063,430.1289 247.0781,428.4883 Q245.7656,426.832 245.7656,423.707 Q245.7656,420.582 247.0781,418.9258 Q248.4063,417.2695 250.9063,417.2695 Q251.6094,417.2695 252.25,417.4258 Q252.9063,417.582 253.4688,417.8789 L253.4688,420.5977 Q252.8438,420.0195 252.25,419.7539 Q251.6563,419.4727 251.0313,419.4727 Q249.6875,419.4727 249,420.5508 Q248.3125,421.6133 248.3125,423.707 Q248.3125,425.8008 249,426.8789 Q249.6875,427.9414 251.0313,427.9414 Q251.6563,427.9414 252.25,427.6758 Q252.8438,427.3945 253.4688,426.8164 L253.4688,429.5352 Z " fill="#000000"/><text fill="#FFE797" font-family="Helvetica" font-size="17" lengthAdjust="spacing" textLength="113" x="269.5" y="429.7798">aws_resource</text><line style="stroke:#000000;stroke-width:1.5;" x1="236.5" x2="389.5" y1="443.7891" y2="443.7891"/><text fill="#FFE797" font-family="sans-serif" font-size="11" font-weight="bold" lengthAdjust="spacing" textLength="21" x="246.5" y="462.9995">arn</text><text fill="#FFE797" font-family="sans-serif" font-size="11" lengthAdjust="spacing" textLength="41" x="267.5" y="462.9995">: string</text><!--MD5=[0dce51bb3cd66f7be5ecbafd740e77db]
class aws_ec2_keypair--><rect codeLine="32" fill="#194875" height="39.7891" id="aws_ec2_keypair" rx="2.5" ry="2.5" style="stroke:#000000;stroke-width:1.5;" width="184" x="158" y="596"/><ellipse cx="173" cy="615.8945" fill="#1A83AF" rx="11" ry="11" style="stroke:#000000;stroke-width:1.0;"/><path d="M175.9688,621.5352 Q175.3906,621.832 174.75,621.9727 Q174.1094,622.1289 173.4063,622.1289 Q170.9063,622.1289 169.5781,620.4883 Q168.2656,618.832 168.2656,615.707 Q168.2656,612.582 169.5781,610.9258 Q170.9063,609.2695 173.4063,609.2695 Q174.1094,609.2695 174.75,609.4258 Q175.4063,609.582 175.9688,609.8789 L175.9688,612.5977 Q175.3438,612.0195 174.75,611.7539 Q174.1563,611.4727 173.5313,611.4727 Q172.1875,611.4727 171.5,612.5508 Q170.8125,613.6133 170.8125,615.707 Q170.8125,617.8008 171.5,618.8789 Q172.1875,619.9414 173.5313,619.9414 Q174.1563,619.9414 174.75,619.6758 Q175.3438,619.3945 175.9688,618.8164 L175.9688,621.5352 Z " fill="#000000"/><text fill="#FFE797" font-family="Helvetica" font-size="17" lengthAdjust="spacing" textLength="142" x="192" y="621.7798">aws_ec2_keypair</text><!--MD5=[8a72132597df3e074ff8933da087a886]
class keypair--><rect codeLine="35" fill="#194875" height="70.5938" id="keypair" rx="2.5" ry="2.5" style="stroke:#000000;stroke-width:1.5;" width="131" x="69.5" y="404"/><ellipse cx="96.65" cy="423.8945" fill="#1A83AF" rx="11" ry="11" style="stroke:#000000;stroke-width:1.0;"/><path d="M99.6188,429.5352 Q99.0406,429.832 98.4,429.9727 Q97.7594,430.1289 97.0563,430.1289 Q94.5563,430.1289 93.2281,428.4883 Q91.9156,426.832 91.9156,423.707 Q91.9156,420.582 93.2281,418.9258 Q94.5563,417.2695 97.0563,417.2695 Q97.7594,417.2695 98.4,417.4258 Q99.0563,417.582 99.6188,417.8789 L99.6188,420.5977 Q98.9938,420.0195 98.4,419.7539 Q97.8063,419.4727 97.1813,419.4727 Q95.8375,419.4727 95.15,420.5508 Q94.4625,421.6133 94.4625,423.707 Q94.4625,425.8008 95.15,426.8789 Q95.8375,427.9414 97.1813,427.9414 Q97.8063,427.9414 98.4,427.6758 Q98.9938,427.3945 99.6188,426.8164 L99.6188,429.5352 Z " fill="#000000"/><text fill="#FFE797" font-family="Helvetica" font-size="17" lengthAdjust="spacing" textLength="62" x="118.35" y="429.7798">keypair</text><line style="stroke:#000000;stroke-width:1.5;" x1="70.5" x2="199.5" y1="443.7891" y2="443.7891"/><text fill="#FFE797" font-family="sans-serif" font-size="11" font-weight="bold" lengthAdjust="spacing" textLength="68" x="80.5" y="462.9995">fingerprint</text><text fill="#FFE797" font-family="sans-serif" font-size="11" lengthAdjust="spacing" textLength="41" x="148.5" y="462.9995">: string</text><!--MD5=[3a177025258d4e2bb4cd79d6b663c0cc]
reverse link aws_resource to aws_ec2_keypair--><path codeLine="38" d="M293.49,494.55 C281.04,529.03 265.66,571.63 256.92,595.82 " fill="none" id="aws_resource-backto-aws_ec2_keypair" style="stroke:#FFAF37;stroke-width:2.0;"/><polygon fill="none" points="287.03,491.83,300.4,475.39,300.19,496.58,287.03,491.83" style="stroke:#FFAF37;stroke-width:2.0;"/><!--MD5=[cc16a20967108d38274f2a9db3c86617]
reverse link keypair to aws_ec2_keypair--><path codeLine="39" d="M169.04,492.15 C192.02,527.03 221.05,571.07 237.36,595.82 " fill="none" id="keypair-backto-aws_ec2_keypair" style="stroke:#FFAF37;stroke-width:2.0;"/><polygon fill="none" points="163.16,495.94,158,475.39,174.85,488.24,163.16,495.94" style="stroke:#FFAF37;stroke-width:2.0;"/><!--MD5=[8488247532a2f49c90c386f28ee08b10]
reverse link resource to keypair--><path codeLine="40" d="M135,303.43 C135,341.36 135,378.27 135,403.9 " fill="none" id="resource-backto-keypair" style="stroke:#FFAF37;stroke-width:2.0;"/><polygon fill="none" points="128,303.26,135,283.26,142,303.26,128,303.26" style="stroke:#FFAF37;stroke-width:2.0;"/><!--MD5=[87a3958df9b1e6b6eb89fcc3d5fbd950]
@startuml
hide empty members
skinparam ArrowColor #ffaf37
skinparam ArrowThickness 2
skinparam BackgroundColor transparent
skinparam ClassAttributeFontColor #ffe797
skinparam ClassBackgroundColor #194875
skinparam ClassBorderColor Black
skinparam ClassFontColor #ffe797
skinparam ClassFontName Helvetica
skinparam ClassFontSize 17
skinparam Padding 5
skinparam RoundCorner 5
skinparam Shadowing false
skinparam stereotypeCBackgroundColor #1a83af
skinparam stereotypeIBackgroundColor #1a83af

class resource {
**id**: string
**tags**: dictionary[string, string]
**name**: string
**ctime**: datetime
**age**: trafo.duration_to_datetime
**mtime**: datetime
**last_update**: trafo.duration_to_datetime
**atime**: datetime
**last_access**: trafo.duration_to_datetime
**kind**: string
}
class aws_resource {
**arn**: string
}
class aws_ec2_keypair {

}
class keypair {
**fingerprint**: string
}
aws_resource <|- - - aws_ec2_keypair
keypair <|- - - aws_ec2_keypair
resource <|- - - keypair
@enduml

PlantUML version 1.2021.16(Wed Dec 08 17:25:22 UTC 2021)
(GPL source distribution)
Java Runtime: OpenJDK Runtime Environment
JVM: OpenJDK 64-Bit Server VM
Default Encoding: UTF-8
Language: en
Country: null
--></g></svg>