<svg xmlns="http://www.w3.org/2000/svg" xmlns:xlink="http://www.w3.org/1999/xlink" width="429" height="663" contentScriptType="application/ecmascript" contentStyleType="text/css" style="width:429px;height:663px;background:#00000000" preserveAspectRatio="none" version="1.1" viewBox="0 0 429 663" zoomAndPan="magnify"><g><rect id="resource" width="256" height="275.836" x="7" y="7" fill="#194875" codeLine="17" rx="2.5" ry="2.5" style="stroke:#000;stroke-width:1.5"/><ellipse cx="90.25" cy="26.895" fill="#1A83AF" rx="11" ry="11" style="stroke:#000;stroke-width:1"/><path fill="#000" d="M93.2188,32.5352 Q92.6406,32.832 92,32.9727 Q91.3594,33.1289 90.6563,33.1289 Q88.1563,33.1289 86.8281,31.4883 Q85.5156,29.832 85.5156,26.707 Q85.5156,23.582 86.8281,21.9258 Q88.1563,20.2695 90.6563,20.2695 Q91.3594,20.2695 92,20.4258 Q92.6563,20.582 93.2188,20.8789 L93.2188,23.5977 Q92.5938,23.0195 92,22.7539 Q91.4063,22.4727 90.7813,22.4727 Q89.4375,22.4727 88.75,23.5508 Q88.0625,24.6133 88.0625,26.707 Q88.0625,28.8008 88.75,29.8789 Q89.4375,30.9414 90.7813,30.9414 Q91.4063,30.9414 92,30.6758 Q92.5938,30.3945 93.2188,29.8164 L93.2188,32.5352 Z"/><text x="115.75" y="32.78" fill="#FFE797" font-family="Helvetica" font-size="17" lengthAdjust="spacing" textLength="71">resource</text><line style="stroke:#000;stroke-width:1.5" x1="8" x2="262" y1="46.789" y2="46.789"/><text x="18" y="65.999" fill="#FFE797" font-family="sans-serif" font-size="11" font-weight="bold" lengthAdjust="spacing" textLength="12">id</text><text x="30" y="65.999" fill="#FFE797" font-family="sans-serif" font-size="11" lengthAdjust="spacing" textLength="41">: string</text><text x="18" y="88.804" fill="#FFE797" font-family="sans-serif" font-size="11" font-weight="bold" lengthAdjust="spacing" textLength="28">tags</text><text x="46" y="88.804" fill="#FFE797" font-family="sans-serif" font-size="11" lengthAdjust="spacing" textLength="145">: dictionary[string, string]</text><text x="18" y="111.609" fill="#FFE797" font-family="sans-serif" font-size="11" font-weight="bold" lengthAdjust="spacing" textLength="35">name</text><text x="53" y="111.609" fill="#FFE797" font-family="sans-serif" font-size="11" lengthAdjust="spacing" textLength="41">: string</text><text x="18" y="134.414" fill="#FFE797" font-family="sans-serif" font-size="11" font-weight="bold" lengthAdjust="spacing" textLength="35">ctime</text><text x="53" y="134.414" fill="#FFE797" font-family="sans-serif" font-size="11" lengthAdjust="spacing" textLength="58">: datetime</text><text x="18" y="157.218" fill="#FFE797" font-family="sans-serif" font-size="11" font-weight="bold" lengthAdjust="spacing" textLength="24">age</text><text x="42" y="157.218" fill="#FFE797" font-family="sans-serif" font-size="11" lengthAdjust="spacing" textLength="159">: trafo.duration_to_datetime</text><text x="18" y="180.023" fill="#FFE797" font-family="sans-serif" font-size="11" font-weight="bold" lengthAdjust="spacing" textLength="39">mtime</text><text x="57" y="180.023" fill="#FFE797" font-family="sans-serif" font-size="11" lengthAdjust="spacing" textLength="58">: datetime</text><text x="18" y="202.828" fill="#FFE797" font-family="sans-serif" font-size="11" font-weight="bold" lengthAdjust="spacing" textLength="75">last_update</text><text x="93" y="202.828" fill="#FFE797" font-family="sans-serif" font-size="11" lengthAdjust="spacing" textLength="159">: trafo.duration_to_datetime</text><text x="18" y="225.632" fill="#FFE797" font-family="sans-serif" font-size="11" font-weight="bold" lengthAdjust="spacing" textLength="36">atime</text><text x="54" y="225.632" fill="#FFE797" font-family="sans-serif" font-size="11" lengthAdjust="spacing" textLength="58">: datetime</text><text x="18" y="248.437" fill="#FFE797" font-family="sans-serif" font-size="11" font-weight="bold" lengthAdjust="spacing" textLength="74">last_access</text><text x="92" y="248.437" fill="#FFE797" font-family="sans-serif" font-size="11" lengthAdjust="spacing" textLength="159">: trafo.duration_to_datetime</text><text x="18" y="271.242" fill="#FFE797" font-family="sans-serif" font-size="11" font-weight="bold" lengthAdjust="spacing" textLength="27">kind</text><text x="45" y="271.242" fill="#FFE797" font-family="sans-serif" font-size="11" lengthAdjust="spacing" textLength="41">: string</text><rect id="aws_resource" width="155" height="70.594" x="267.5" y="415" fill="#194875" codeLine="29" rx="2.5" ry="2.5" style="stroke:#000;stroke-width:1.5"/><ellipse cx="282.5" cy="434.894" fill="#1A83AF" rx="11" ry="11" style="stroke:#000;stroke-width:1"/><path fill="#000" d="M285.4688,440.5352 Q284.8906,440.832 284.25,440.9727 Q283.6094,441.1289 282.9063,441.1289 Q280.4063,441.1289 279.0781,439.4883 Q277.7656,437.832 277.7656,434.707 Q277.7656,431.582 279.0781,429.9258 Q280.4063,428.2695 282.9063,428.2695 Q283.6094,428.2695 284.25,428.4258 Q284.9063,428.582 285.4688,428.8789 L285.4688,431.5977 Q284.8438,431.0195 284.25,430.7539 Q283.6563,430.4727 283.0313,430.4727 Q281.6875,430.4727 281,431.5508 Q280.3125,432.6133 280.3125,434.707 Q280.3125,436.8008 281,437.8789 Q281.6875,438.9414 283.0313,438.9414 Q283.6563,438.9414 284.25,438.6758 Q284.8438,438.3945 285.4688,437.8164 L285.4688,440.5352 Z"/><text x="301.5" y="440.78" fill="#FFE797" font-family="Helvetica" font-size="17" lengthAdjust="spacing" textLength="113">aws_resource</text><line style="stroke:#000;stroke-width:1.5" x1="268.5" x2="421.5" y1="454.789" y2="454.789"/><text x="278.5" y="474" fill="#FFE797" font-family="sans-serif" font-size="11" font-weight="bold" lengthAdjust="spacing" textLength="21">arn</text><text x="299.5" y="474" fill="#FFE797" font-family="sans-serif" font-size="11" lengthAdjust="spacing" textLength="41">: string</text><rect id="aws_autoscaling_group" width="236" height="39.789" x="122" y="618" fill="#194875" codeLine="32" rx="2.5" ry="2.5" style="stroke:#000;stroke-width:1.5"/><ellipse cx="137" cy="637.894" fill="#1A83AF" rx="11" ry="11" style="stroke:#000;stroke-width:1"/><path fill="#000" d="M139.9688,643.5352 Q139.3906,643.832 138.75,643.9727 Q138.1094,644.1289 137.4063,644.1289 Q134.9063,644.1289 133.5781,642.4883 Q132.2656,640.832 132.2656,637.707 Q132.2656,634.582 133.5781,632.9258 Q134.9063,631.2695 137.4063,631.2695 Q138.1094,631.2695 138.75,631.4258 Q139.4063,631.582 139.9688,631.8789 L139.9688,634.5977 Q139.3438,634.0195 138.75,633.7539 Q138.1563,633.4727 137.5313,633.4727 Q136.1875,633.4727 135.5,634.5508 Q134.8125,635.6133 134.8125,637.707 Q134.8125,639.8008 135.5,640.8789 Q136.1875,641.9414 137.5313,641.9414 Q138.1563,641.9414 138.75,641.6758 Q139.3438,641.3945 139.9688,640.8164 L139.9688,643.5352 Z"/><text x="156" y="643.78" fill="#FFE797" font-family="Helvetica" font-size="17" lengthAdjust="spacing" textLength="194">aws_autoscaling_group</text><rect id="autoscaling_group" width="194" height="93.398" x="38" y="404" fill="#194875" codeLine="35" rx="2.5" ry="2.5" style="stroke:#000;stroke-width:1.5"/><ellipse cx="53" cy="423.894" fill="#1A83AF" rx="11" ry="11" style="stroke:#000;stroke-width:1"/><path fill="#000" d="M55.9688,429.5352 Q55.3906,429.832 54.75,429.9727 Q54.1094,430.1289 53.4063,430.1289 Q50.9063,430.1289 49.5781,428.4883 Q48.2656,426.832 48.2656,423.707 Q48.2656,420.582 49.5781,418.9258 Q50.9063,417.2695 53.4063,417.2695 Q54.1094,417.2695 54.75,417.4258 Q55.4063,417.582 55.9688,417.8789 L55.9688,420.5977 Q55.3438,420.0195 54.75,419.7539 Q54.1563,419.4727 53.5313,419.4727 Q52.1875,419.4727 51.5,420.5508 Q50.8125,421.6133 50.8125,423.707 Q50.8125,425.8008 51.5,426.8789 Q52.1875,427.9414 53.5313,427.9414 Q54.1563,427.9414 54.75,427.6758 Q55.3438,427.3945 55.9688,426.8164 L55.9688,429.5352 Z"/><text x="72" y="429.78" fill="#FFE797" font-family="Helvetica" font-size="17" lengthAdjust="spacing" textLength="152">autoscaling_group</text><line style="stroke:#000;stroke-width:1.5" x1="39" x2="231" y1="443.789" y2="443.789"/><text x="49" y="463" fill="#FFE797" font-family="sans-serif" font-size="11" font-weight="bold" lengthAdjust="spacing" textLength="55">min_size</text><text x="104" y="463" fill="#FFE797" font-family="sans-serif" font-size="11" lengthAdjust="spacing" textLength="36">: int64</text><text x="49" y="485.804" fill="#FFE797" font-family="sans-serif" font-size="11" font-weight="bold" lengthAdjust="spacing" textLength="58">max_size</text><text x="107" y="485.804" fill="#FFE797" font-family="sans-serif" font-size="11" lengthAdjust="spacing" textLength="36">: int64</text><path id="aws_resource-backto-aws_autoscaling_group" fill="none" d="M315.28,504.01 C293.75,542.04 265.88,591.27 250.82,617.88" codeLine="39" style="stroke:#ffaf37;stroke-width:2"/><polygon fill="none" points="309.31 500.35 325.25 486.39 321.49 507.24 309.31 500.35" style="stroke:#ffaf37;stroke-width:2"/><path id="autoscaling_group-backto-aws_autoscaling_group" fill="none" d="M170.89,514.9 C191.25,550.87 215.33,593.41 229.02,617.6" codeLine="40" style="stroke:#ffaf37;stroke-width:2"/><polygon fill="none" points="164.72 518.21 160.96 497.35 176.9 511.31 164.72 518.21" style="stroke:#ffaf37;stroke-width:2"/><path id="resource-backto-autoscaling_group" fill="none" d="M135,303.23 C135,340.03 135,376.4 135,403.66" codeLine="41" style="stroke:#ffaf37;stroke-width:2"/><polygon fill="none" points="128 303.1 135 283.1 142 303.1 128 303.1" style="stroke:#ffaf37;stroke-width:2"/></g></svg>