<svg xmlns="http://www.w3.org/2000/svg" xmlns:xlink="http://www.w3.org/1999/xlink" width="344" height="573" contentScriptType="application/ecmascript" contentStyleType="text/css" style="width:344px;height:573px;background:#00000000" preserveAspectRatio="none" version="1.1" viewBox="0 0 344 573" zoomAndPan="magnify"><defs><filter id="f1kl0342gl6tlu" width="300%" height="300%" x="-1" y="-1"><feGaussianBlur result="blurOut" stdDeviation="2"/><feColorMatrix in="blurOut" result="blurOut2" type="matrix" values="0 0 0 0 0 0 0 0 0 0 0 0 0 0 0 0 0 0 .4 0"/><feOffset dx="4" dy="4" in="blurOut2" result="blurOut3"/><feBlend in="SourceGraphic" in2="blurOut3" mode="normal"/></filter></defs><g><rect id="resource" width="252" height="176.047" x="7" y="7" fill="#FEFECE" codeLine="2" filter="url(#f1kl0342gl6tlu)" style="stroke:#a80036;stroke-width:1.5"/><ellipse cx="100.75" cy="23" fill="#ADD1B2" rx="11" ry="11" style="stroke:#a80036;stroke-width:1"/><path fill="#000" d="M103.7188,28.6406 Q103.1406,28.9375 102.5,29.0781 Q101.8594,29.2344 101.1563,29.2344 Q98.6563,29.2344 97.3281,27.5938 Q96.0156,25.9375 96.0156,22.8125 Q96.0156,19.6875 97.3281,18.0313 Q98.6563,16.375 101.1563,16.375 Q101.8594,16.375 102.5,16.5313 Q103.1563,16.6875 103.7188,16.9844 L103.7188,19.7031 Q103.0938,19.125 102.5,18.8594 Q101.9063,18.5781 101.2813,18.5781 Q99.9375,18.5781 99.25,19.6563 Q98.5625,20.7188 98.5625,22.8125 Q98.5625,24.9063 99.25,25.9844 Q99.9375,27.0469 101.2813,27.0469 Q101.9063,27.0469 102.5,26.7813 Q103.0938,26.5 103.7188,25.9219 L103.7188,28.6406 Z"/><text x="121.25" y="27.154" fill="#000" font-family="sans-serif" font-size="12" lengthAdjust="spacing" textLength="56">resource</text><line style="stroke:#a80036;stroke-width:1.5" x1="8" x2="258" y1="39" y2="39"/><ellipse cx="18" cy="50" rx="3" ry="3" style="stroke:#038048;stroke-width:1;fill:none"/><text x="27" y="53.21" fill="#000" font-family="sans-serif" font-size="11" lengthAdjust="spacing" textLength="51">id: string</text><ellipse cx="18" cy="62.805" rx="3" ry="3" style="stroke:#038048;stroke-width:1;fill:none"/><text x="27" y="66.015" fill="#000" font-family="sans-serif" font-size="11" lengthAdjust="spacing" textLength="170">tags: dictionary[string, string]</text><ellipse cx="18" cy="75.609" rx="3" ry="3" style="stroke:#038048;stroke-width:1;fill:none"/><text x="27" y="78.82" fill="#000" font-family="sans-serif" font-size="11" lengthAdjust="spacing" textLength="73">name: string</text><ellipse cx="18" cy="88.414" rx="3" ry="3" style="stroke:#038048;stroke-width:1;fill:none"/><text x="27" y="91.624" fill="#000" font-family="sans-serif" font-size="11" lengthAdjust="spacing" textLength="89">ctime: datetime</text><ellipse cx="18" cy="101.219" rx="3" ry="3" style="stroke:#038048;stroke-width:1;fill:none"/><text x="27" y="104.429" fill="#000" font-family="sans-serif" font-size="11" lengthAdjust="spacing" textLength="180">age: trafo.duration_to_datetime</text><ellipse cx="18" cy="114.023" rx="3" ry="3" style="stroke:#038048;stroke-width:1;fill:none"/><text x="27" y="117.234" fill="#000" font-family="sans-serif" font-size="11" lengthAdjust="spacing" textLength="94">mtime: datetime</text><ellipse cx="18" cy="126.828" rx="3" ry="3" style="stroke:#038048;stroke-width:1;fill:none"/><text x="27" y="130.039" fill="#000" font-family="sans-serif" font-size="11" lengthAdjust="spacing" textLength="225">last_update: trafo.duration_to_datetime</text><ellipse cx="18" cy="139.633" rx="3" ry="3" style="stroke:#038048;stroke-width:1;fill:none"/><text x="27" y="142.843" fill="#000" font-family="sans-serif" font-size="11" lengthAdjust="spacing" textLength="90">atime: datetime</text><ellipse cx="18" cy="152.438" rx="3" ry="3" style="stroke:#038048;stroke-width:1;fill:none"/><text x="27" y="155.648" fill="#000" font-family="sans-serif" font-size="11" lengthAdjust="spacing" textLength="226">last_access: trafo.duration_to_datetime</text><ellipse cx="18" cy="165.242" rx="3" ry="3" style="stroke:#038048;stroke-width:1;fill:none"/><text x="27" y="168.453" fill="#000" font-family="sans-serif" font-size="11" lengthAdjust="spacing" textLength="64">kind: string</text><line style="stroke:#a80036;stroke-width:1.5" x1="8" x2="258" y1="175.047" y2="175.047"/><rect id="aws_resource" width="118" height="60.805" x="212" y="304" fill="#FEFECE" codeLine="14" filter="url(#f1kl0342gl6tlu)" style="stroke:#a80036;stroke-width:1.5"/><ellipse cx="227" cy="320" fill="#ADD1B2" rx="11" ry="11" style="stroke:#a80036;stroke-width:1"/><path fill="#000" d="M229.9688,325.6406 Q229.3906,325.9375 228.75,326.0781 Q228.1094,326.2344 227.4063,326.2344 Q224.9063,326.2344 223.5781,324.5938 Q222.2656,322.9375 222.2656,319.8125 Q222.2656,316.6875 223.5781,315.0313 Q224.9063,313.375 227.4063,313.375 Q228.1094,313.375 228.75,313.5313 Q229.4063,313.6875 229.9688,313.9844 L229.9688,316.7031 Q229.3438,316.125 228.75,315.8594 Q228.1563,315.5781 227.5313,315.5781 Q226.1875,315.5781 225.5,316.6563 Q224.8125,317.7188 224.8125,319.8125 Q224.8125,321.9063 225.5,322.9844 Q226.1875,324.0469 227.5313,324.0469 Q228.1563,324.0469 228.75,323.7813 Q229.3438,323.5 229.9688,322.9219 L229.9688,325.6406 Z"/><text x="241" y="324.154" fill="#000" font-family="sans-serif" font-size="12" lengthAdjust="spacing" textLength="86">aws_resource</text><line style="stroke:#a80036;stroke-width:1.5" x1="213" x2="329" y1="336" y2="336"/><ellipse cx="223" cy="347" rx="3" ry="3" style="stroke:#038048;stroke-width:1;fill:none"/><text x="232" y="350.21" fill="#000" font-family="sans-serif" font-size="11" lengthAdjust="spacing" textLength="60">arn: string</text><line style="stroke:#a80036;stroke-width:1.5" x1="213" x2="329" y1="356.805" y2="356.805"/><rect id="aws_vpc_endpoint" width="183" height="73.609" x="126.5" y="486" fill="#FEFECE" codeLine="17" filter="url(#f1kl0342gl6tlu)" style="stroke:#a80036;stroke-width:1.5"/><ellipse cx="158.6" cy="502" fill="#ADD1B2" rx="11" ry="11" style="stroke:#a80036;stroke-width:1"/><path fill="#000" d="M161.5688,507.6406 Q160.9906,507.9375 160.35,508.0781 Q159.7094,508.2344 159.0063,508.2344 Q156.5063,508.2344 155.1781,506.5938 Q153.8656,504.9375 153.8656,501.8125 Q153.8656,498.6875 155.1781,497.0313 Q156.5063,495.375 159.0063,495.375 Q159.7094,495.375 160.35,495.5313 Q161.0063,495.6875 161.5688,495.9844 L161.5688,498.7031 Q160.9438,498.125 160.35,497.8594 Q159.7563,497.5781 159.1313,497.5781 Q157.7875,497.5781 157.1,498.6563 Q156.4125,499.7188 156.4125,501.8125 Q156.4125,503.9063 157.1,504.9844 Q157.7875,506.0469 159.1313,506.0469 Q159.7563,506.0469 160.35,505.7813 Q160.9438,505.5 161.5688,504.9219 L161.5688,507.6406 Z"/><text x="176.4" y="506.154" fill="#000" font-family="sans-serif" font-size="12" lengthAdjust="spacing" textLength="113">aws_vpc_endpoint</text><line style="stroke:#a80036;stroke-width:1.5" x1="127.5" x2="308.5" y1="518" y2="518"/><ellipse cx="137.5" cy="529" rx="3" ry="3" style="stroke:#038048;stroke-width:1;fill:none"/><text x="146.5" y="532.21" fill="#000" font-family="sans-serif" font-size="11" lengthAdjust="spacing" textLength="145">vpc_endpoint_type: string</text><ellipse cx="137.5" cy="541.805" rx="3" ry="3" style="stroke:#038048;stroke-width:1;fill:none"/><text x="146.5" y="545.015" fill="#000" font-family="sans-serif" font-size="11" lengthAdjust="spacing" textLength="157">vpc_endpoint_status: string</text><line style="stroke:#a80036;stroke-width:1.5" x1="127.5" x2="308.5" y1="551.609" y2="551.609"/><rect id="endpoint" width="88" height="48" x="89" y="310.5" fill="#FEFECE" codeLine="21" filter="url(#f1kl0342gl6tlu)" style="stroke:#a80036;stroke-width:1.5"/><ellipse cx="104" cy="326.5" fill="#ADD1B2" rx="11" ry="11" style="stroke:#a80036;stroke-width:1"/><path fill="#000" d="M106.9688,332.1406 Q106.3906,332.4375 105.75,332.5781 Q105.1094,332.7344 104.4063,332.7344 Q101.9063,332.7344 100.5781,331.0938 Q99.2656,329.4375 99.2656,326.3125 Q99.2656,323.1875 100.5781,321.5313 Q101.9063,319.875 104.4063,319.875 Q105.1094,319.875 105.75,320.0313 Q106.4063,320.1875 106.9688,320.4844 L106.9688,323.2031 Q106.3438,322.625 105.75,322.3594 Q105.1563,322.0781 104.5313,322.0781 Q103.1875,322.0781 102.5,323.1563 Q101.8125,324.2188 101.8125,326.3125 Q101.8125,328.4063 102.5,329.4844 Q103.1875,330.5469 104.5313,330.5469 Q105.1563,330.5469 105.75,330.2813 Q106.3438,330 106.9688,329.4219 L106.9688,332.1406 Z"/><text x="118" y="330.654" fill="#000" font-family="sans-serif" font-size="12" lengthAdjust="spacing" textLength="56">endpoint</text><line style="stroke:#a80036;stroke-width:1.5" x1="90" x2="176" y1="342.5" y2="342.5"/><line style="stroke:#a80036;stroke-width:1.5" x1="90" x2="176" y1="350.5" y2="350.5"/><path id="aws_resource-backto-aws_vpc_endpoint" fill="none" d="M257.09,384.44 C248.05,416.24 236.47,457 228.27,485.88" codeLine="24" style="stroke:#a80036;stroke-width:1"/><polygon fill="none" points="250.4 382.38 262.6 365.05 263.87 386.2 250.4 382.38" style="stroke:#a80036;stroke-width:1"/><path id="endpoint-backto-aws_vpc_endpoint" fill="none" d="M152.03,377.26 C166.92,409.92 187.4,454.87 201.58,485.97" codeLine="25" style="stroke:#a80036;stroke-width:1"/><polygon fill="none" points="145.52 379.85 143.59 358.74 158.26 374.04 145.52 379.85" style="stroke:#a80036;stroke-width:1"/><path id="resource-backto-endpoint" fill="none" d="M133,203.16 C133,243.25 133,285.12 133,310.25" codeLine="26" style="stroke:#a80036;stroke-width:1"/><polygon fill="none" points="126 203.09 133 183.09 140 203.09 126 203.09" style="stroke:#a80036;stroke-width:1"/></g></svg>