<svg xmlns="http://www.w3.org/2000/svg" xmlns:xlink="http://www.w3.org/1999/xlink" width="381" height="641" contentScriptType="application/ecmascript" contentStyleType="text/css" style="width:381px;height:641px;background:#00000000" preserveAspectRatio="none" version="1.1" viewBox="0 0 381 641" zoomAndPan="magnify"><g><rect id="resource" width="256" height="275.836" x="7" y="7" fill="#194875" codeLine="17" rx="2.5" ry="2.5" style="stroke:#000;stroke-width:1.5"/><ellipse cx="90.25" cy="26.895" fill="#1A83AF" rx="11" ry="11" style="stroke:#000;stroke-width:1"/><path fill="#000" d="M93.2188,32.5352 Q92.6406,32.832 92,32.9727 Q91.3594,33.1289 90.6563,33.1289 Q88.1563,33.1289 86.8281,31.4883 Q85.5156,29.832 85.5156,26.707 Q85.5156,23.582 86.8281,21.9258 Q88.1563,20.2695 90.6563,20.2695 Q91.3594,20.2695 92,20.4258 Q92.6563,20.582 93.2188,20.8789 L93.2188,23.5977 Q92.5938,23.0195 92,22.7539 Q91.4063,22.4727 90.7813,22.4727 Q89.4375,22.4727 88.75,23.5508 Q88.0625,24.6133 88.0625,26.707 Q88.0625,28.8008 88.75,29.8789 Q89.4375,30.9414 90.7813,30.9414 Q91.4063,30.9414 92,30.6758 Q92.5938,30.3945 93.2188,29.8164 L93.2188,32.5352 Z"/><text x="115.75" y="32.78" fill="#FFE797" font-family="Helvetica" font-size="17" lengthAdjust="spacing" textLength="71">resource</text><line style="stroke:#000;stroke-width:1.5" x1="8" x2="262" y1="46.789" y2="46.789"/><text x="18" y="65.999" fill="#FFE797" font-family="sans-serif" font-size="11" font-weight="bold" lengthAdjust="spacing" textLength="12">id</text><text x="30" y="65.999" fill="#FFE797" font-family="sans-serif" font-size="11" lengthAdjust="spacing" textLength="41">: string</text><text x="18" y="88.804" fill="#FFE797" font-family="sans-serif" font-size="11" font-weight="bold" lengthAdjust="spacing" textLength="28">tags</text><text x="46" y="88.804" fill="#FFE797" font-family="sans-serif" font-size="11" lengthAdjust="spacing" textLength="145">: dictionary[string, string]</text><text x="18" y="111.609" fill="#FFE797" font-family="sans-serif" font-size="11" font-weight="bold" lengthAdjust="spacing" textLength="35">name</text><text x="53" y="111.609" fill="#FFE797" font-family="sans-serif" font-size="11" lengthAdjust="spacing" textLength="41">: string</text><text x="18" y="134.414" fill="#FFE797" font-family="sans-serif" font-size="11" font-weight="bold" lengthAdjust="spacing" textLength="35">ctime</text><text x="53" y="134.414" fill="#FFE797" font-family="sans-serif" font-size="11" lengthAdjust="spacing" textLength="58">: datetime</text><text x="18" y="157.218" fill="#FFE797" font-family="sans-serif" font-size="11" font-weight="bold" lengthAdjust="spacing" textLength="24">age</text><text x="42" y="157.218" fill="#FFE797" font-family="sans-serif" font-size="11" lengthAdjust="spacing" textLength="159">: trafo.duration_to_datetime</text><text x="18" y="180.023" fill="#FFE797" font-family="sans-serif" font-size="11" font-weight="bold" lengthAdjust="spacing" textLength="39">mtime</text><text x="57" y="180.023" fill="#FFE797" font-family="sans-serif" font-size="11" lengthAdjust="spacing" textLength="58">: datetime</text><text x="18" y="202.828" fill="#FFE797" font-family="sans-serif" font-size="11" font-weight="bold" lengthAdjust="spacing" textLength="75">last_update</text><text x="93" y="202.828" fill="#FFE797" font-family="sans-serif" font-size="11" lengthAdjust="spacing" textLength="159">: trafo.duration_to_datetime</text><text x="18" y="225.632" fill="#FFE797" font-family="sans-serif" font-size="11" font-weight="bold" lengthAdjust="spacing" textLength="36">atime</text><text x="54" y="225.632" fill="#FFE797" font-family="sans-serif" font-size="11" lengthAdjust="spacing" textLength="58">: datetime</text><text x="18" y="248.437" fill="#FFE797" font-family="sans-serif" font-size="11" font-weight="bold" lengthAdjust="spacing" textLength="74">last_access</text><text x="92" y="248.437" fill="#FFE797" font-family="sans-serif" font-size="11" lengthAdjust="spacing" textLength="159">: trafo.duration_to_datetime</text><text x="18" y="271.242" fill="#FFE797" font-family="sans-serif" font-size="11" font-weight="bold" lengthAdjust="spacing" textLength="27">kind</text><text x="45" y="271.242" fill="#FFE797" font-family="sans-serif" font-size="11" lengthAdjust="spacing" textLength="41">: string</text><rect id="aws_resource" width="155" height="70.594" x="219.5" y="404" fill="#194875" codeLine="29" rx="2.5" ry="2.5" style="stroke:#000;stroke-width:1.5"/><ellipse cx="234.5" cy="423.894" fill="#1A83AF" rx="11" ry="11" style="stroke:#000;stroke-width:1"/><path fill="#000" d="M237.4688,429.5352 Q236.8906,429.832 236.25,429.9727 Q235.6094,430.1289 234.9063,430.1289 Q232.4063,430.1289 231.0781,428.4883 Q229.7656,426.832 229.7656,423.707 Q229.7656,420.582 231.0781,418.9258 Q232.4063,417.2695 234.9063,417.2695 Q235.6094,417.2695 236.25,417.4258 Q236.9063,417.582 237.4688,417.8789 L237.4688,420.5977 Q236.8438,420.0195 236.25,419.7539 Q235.6563,419.4727 235.0313,419.4727 Q233.6875,419.4727 233,420.5508 Q232.3125,421.6133 232.3125,423.707 Q232.3125,425.8008 233,426.8789 Q233.6875,427.9414 235.0313,427.9414 Q235.6563,427.9414 236.25,427.6758 Q236.8438,427.3945 237.4688,426.8164 L237.4688,429.5352 Z"/><text x="253.5" y="429.78" fill="#FFE797" font-family="Helvetica" font-size="17" lengthAdjust="spacing" textLength="113">aws_resource</text><line style="stroke:#000;stroke-width:1.5" x1="220.5" x2="373.5" y1="443.789" y2="443.789"/><text x="230.5" y="463" fill="#FFE797" font-family="sans-serif" font-size="11" font-weight="bold" lengthAdjust="spacing" textLength="21">arn</text><text x="251.5" y="463" fill="#FFE797" font-family="sans-serif" font-size="11" lengthAdjust="spacing" textLength="41">: string</text><rect id="subnet" width="99" height="39.789" x="85.5" y="419.5" fill="#194875" codeLine="32" rx="2.5" ry="2.5" style="stroke:#000;stroke-width:1.5"/><ellipse cx="100.5" cy="439.394" fill="#1A83AF" rx="11" ry="11" style="stroke:#000;stroke-width:1"/><path fill="#000" d="M103.4688,445.0352 Q102.8906,445.332 102.25,445.4727 Q101.6094,445.6289 100.9063,445.6289 Q98.4063,445.6289 97.0781,443.9883 Q95.7656,442.332 95.7656,439.207 Q95.7656,436.082 97.0781,434.4258 Q98.4063,432.7695 100.9063,432.7695 Q101.6094,432.7695 102.25,432.9258 Q102.9063,433.082 103.4688,433.3789 L103.4688,436.0977 Q102.8438,435.5195 102.25,435.2539 Q101.6563,434.9727 101.0313,434.9727 Q99.6875,434.9727 99,436.0508 Q98.3125,437.1133 98.3125,439.207 Q98.3125,441.3008 99,442.3789 Q99.6875,443.4414 101.0313,443.4414 Q101.6563,443.4414 102.25,443.1758 Q102.8438,442.8945 103.4688,442.3164 L103.4688,445.0352 Z"/><text x="119.5" y="445.28" fill="#FFE797" font-family="Helvetica" font-size="17" lengthAdjust="spacing" textLength="57">subnet</text><rect id="aws_ec2_subnet" width="179" height="39.789" x="148.5" y="596" fill="#194875" codeLine="35" rx="2.5" ry="2.5" style="stroke:#000;stroke-width:1.5"/><ellipse cx="163.5" cy="615.894" fill="#1A83AF" rx="11" ry="11" style="stroke:#000;stroke-width:1"/><path fill="#000" d="M166.4688,621.5352 Q165.8906,621.832 165.25,621.9727 Q164.6094,622.1289 163.9063,622.1289 Q161.4063,622.1289 160.0781,620.4883 Q158.7656,618.832 158.7656,615.707 Q158.7656,612.582 160.0781,610.9258 Q161.4063,609.2695 163.9063,609.2695 Q164.6094,609.2695 165.25,609.4258 Q165.9063,609.582 166.4688,609.8789 L166.4688,612.5977 Q165.8438,612.0195 165.25,611.7539 Q164.6563,611.4727 164.0313,611.4727 Q162.6875,611.4727 162,612.5508 Q161.3125,613.6133 161.3125,615.707 Q161.3125,617.8008 162,618.8789 Q162.6875,619.9414 164.0313,619.9414 Q164.6563,619.9414 165.25,619.6758 Q165.8438,619.3945 166.4688,618.8164 L166.4688,621.5352 Z"/><text x="182.5" y="621.78" fill="#FFE797" font-family="Helvetica" font-size="17" lengthAdjust="spacing" textLength="137">aws_ec2_subnet</text><path id="resource-backto-subnet" fill="none" d="M135,303.51 C135,349.86 135,394.69 135,419.24" codeLine="38" style="stroke:#ffaf37;stroke-width:2"/><polygon fill="none" points="128 303.26 135 283.26 142 303.26 128 303.26" style="stroke:#ffaf37;stroke-width:2"/><path id="aws_resource-backto-aws_ec2_subnet" fill="none" d="M278.72,494.55 C267.07,529.03 252.66,571.63 244.48,595.82" codeLine="39" style="stroke:#ffaf37;stroke-width:2"/><polygon fill="none" points="272.17 492.1 285.2 475.39 285.43 496.58 272.17 492.1" style="stroke:#ffaf37;stroke-width:2"/><path id="subnet-backto-aws_ec2_subnet" fill="none" d="M156.57,477.04 C177.92,513.22 209.8,567.23 226.64,595.75" codeLine="40" style="stroke:#ffaf37;stroke-width:2"/><polygon fill="none" points="150.36 480.29 146.22 459.51 162.41 473.17 150.36 480.29" style="stroke:#ffaf37;stroke-width:2"/></g></svg>