<svg xmlns="http://www.w3.org/2000/svg" xmlns:xlink="http://www.w3.org/1999/xlink" width="358" height="548" contentScriptType="application/ecmascript" contentStyleType="text/css" style="width:358px;height:548px;background:#00000000" preserveAspectRatio="none" version="1.1" viewBox="0 0 358 548" zoomAndPan="magnify"><defs><filter id="f1f59vvpc8ib0v" width="300%" height="300%" x="-1" y="-1"><feGaussianBlur result="blurOut" stdDeviation="2"/><feColorMatrix in="blurOut" result="blurOut2" type="matrix" values="0 0 0 0 0 0 0 0 0 0 0 0 0 0 0 0 0 0 .4 0"/><feOffset dx="4" dy="4" in="blurOut2" result="blurOut3"/><feBlend in="SourceGraphic" in2="blurOut3" mode="normal"/></filter></defs><g><rect id="resource" width="252" height="176.047" x="7" y="7" fill="#FEFECE" codeLine="2" filter="url(#f1f59vvpc8ib0v)" style="stroke:#a80036;stroke-width:1.5"/><ellipse cx="100.75" cy="23" fill="#ADD1B2" rx="11" ry="11" style="stroke:#a80036;stroke-width:1"/><path fill="#000" d="M103.7188,28.6406 Q103.1406,28.9375 102.5,29.0781 Q101.8594,29.2344 101.1563,29.2344 Q98.6563,29.2344 97.3281,27.5938 Q96.0156,25.9375 96.0156,22.8125 Q96.0156,19.6875 97.3281,18.0313 Q98.6563,16.375 101.1563,16.375 Q101.8594,16.375 102.5,16.5313 Q103.1563,16.6875 103.7188,16.9844 L103.7188,19.7031 Q103.0938,19.125 102.5,18.8594 Q101.9063,18.5781 101.2813,18.5781 Q99.9375,18.5781 99.25,19.6563 Q98.5625,20.7188 98.5625,22.8125 Q98.5625,24.9063 99.25,25.9844 Q99.9375,27.0469 101.2813,27.0469 Q101.9063,27.0469 102.5,26.7813 Q103.0938,26.5 103.7188,25.9219 L103.7188,28.6406 Z"/><text x="121.25" y="27.154" fill="#000" font-family="sans-serif" font-size="12" lengthAdjust="spacing" textLength="56">resource</text><line style="stroke:#a80036;stroke-width:1.5" x1="8" x2="258" y1="39" y2="39"/><ellipse cx="18" cy="50" rx="3" ry="3" style="stroke:#038048;stroke-width:1;fill:none"/><text x="27" y="53.21" fill="#000" font-family="sans-serif" font-size="11" lengthAdjust="spacing" textLength="51">id: string</text><ellipse cx="18" cy="62.805" rx="3" ry="3" style="stroke:#038048;stroke-width:1;fill:none"/><text x="27" y="66.015" fill="#000" font-family="sans-serif" font-size="11" lengthAdjust="spacing" textLength="170">tags: dictionary[string, string]</text><ellipse cx="18" cy="75.609" rx="3" ry="3" style="stroke:#038048;stroke-width:1;fill:none"/><text x="27" y="78.82" fill="#000" font-family="sans-serif" font-size="11" lengthAdjust="spacing" textLength="73">name: string</text><ellipse cx="18" cy="88.414" rx="3" ry="3" style="stroke:#038048;stroke-width:1;fill:none"/><text x="27" y="91.624" fill="#000" font-family="sans-serif" font-size="11" lengthAdjust="spacing" textLength="89">ctime: datetime</text><ellipse cx="18" cy="101.219" rx="3" ry="3" style="stroke:#038048;stroke-width:1;fill:none"/><text x="27" y="104.429" fill="#000" font-family="sans-serif" font-size="11" lengthAdjust="spacing" textLength="180">age: trafo.duration_to_datetime</text><ellipse cx="18" cy="114.023" rx="3" ry="3" style="stroke:#038048;stroke-width:1;fill:none"/><text x="27" y="117.234" fill="#000" font-family="sans-serif" font-size="11" lengthAdjust="spacing" textLength="94">mtime: datetime</text><ellipse cx="18" cy="126.828" rx="3" ry="3" style="stroke:#038048;stroke-width:1;fill:none"/><text x="27" y="130.039" fill="#000" font-family="sans-serif" font-size="11" lengthAdjust="spacing" textLength="225">last_update: trafo.duration_to_datetime</text><ellipse cx="18" cy="139.633" rx="3" ry="3" style="stroke:#038048;stroke-width:1;fill:none"/><text x="27" y="142.843" fill="#000" font-family="sans-serif" font-size="11" lengthAdjust="spacing" textLength="90">atime: datetime</text><ellipse cx="18" cy="152.438" rx="3" ry="3" style="stroke:#038048;stroke-width:1;fill:none"/><text x="27" y="155.648" fill="#000" font-family="sans-serif" font-size="11" lengthAdjust="spacing" textLength="226">last_access: trafo.duration_to_datetime</text><ellipse cx="18" cy="165.242" rx="3" ry="3" style="stroke:#038048;stroke-width:1;fill:none"/><text x="27" y="168.453" fill="#000" font-family="sans-serif" font-size="11" lengthAdjust="spacing" textLength="64">kind: string</text><line style="stroke:#a80036;stroke-width:1.5" x1="8" x2="258" y1="175.047" y2="175.047"/><rect id="aws_resource" width="118" height="60.805" x="226" y="304" fill="#FEFECE" codeLine="14" filter="url(#f1f59vvpc8ib0v)" style="stroke:#a80036;stroke-width:1.5"/><ellipse cx="241" cy="320" fill="#ADD1B2" rx="11" ry="11" style="stroke:#a80036;stroke-width:1"/><path fill="#000" d="M243.9688,325.6406 Q243.3906,325.9375 242.75,326.0781 Q242.1094,326.2344 241.4063,326.2344 Q238.9063,326.2344 237.5781,324.5938 Q236.2656,322.9375 236.2656,319.8125 Q236.2656,316.6875 237.5781,315.0313 Q238.9063,313.375 241.4063,313.375 Q242.1094,313.375 242.75,313.5313 Q243.4063,313.6875 243.9688,313.9844 L243.9688,316.7031 Q243.3438,316.125 242.75,315.8594 Q242.1563,315.5781 241.5313,315.5781 Q240.1875,315.5781 239.5,316.6563 Q238.8125,317.7188 238.8125,319.8125 Q238.8125,321.9063 239.5,322.9844 Q240.1875,324.0469 241.5313,324.0469 Q242.1563,324.0469 242.75,323.7813 Q243.3438,323.5 243.9688,322.9219 L243.9688,325.6406 Z"/><text x="255" y="324.154" fill="#000" font-family="sans-serif" font-size="12" lengthAdjust="spacing" textLength="86">aws_resource</text><line style="stroke:#a80036;stroke-width:1.5" x1="227" x2="343" y1="336" y2="336"/><ellipse cx="237" cy="347" rx="3" ry="3" style="stroke:#038048;stroke-width:1;fill:none"/><text x="246" y="350.21" fill="#000" font-family="sans-serif" font-size="11" lengthAdjust="spacing" textLength="60">arn: string</text><line style="stroke:#a80036;stroke-width:1.5" x1="227" x2="343" y1="356.805" y2="356.805"/><rect id="aws_ec2_route_table" width="163" height="48" x="127.5" y="486" fill="#FEFECE" codeLine="17" filter="url(#f1f59vvpc8ib0v)" style="stroke:#a80036;stroke-width:1.5"/><ellipse cx="142.5" cy="502" fill="#ADD1B2" rx="11" ry="11" style="stroke:#a80036;stroke-width:1"/><path fill="#000" d="M145.4688,507.6406 Q144.8906,507.9375 144.25,508.0781 Q143.6094,508.2344 142.9063,508.2344 Q140.4063,508.2344 139.0781,506.5938 Q137.7656,504.9375 137.7656,501.8125 Q137.7656,498.6875 139.0781,497.0313 Q140.4063,495.375 142.9063,495.375 Q143.6094,495.375 144.25,495.5313 Q144.9063,495.6875 145.4688,495.9844 L145.4688,498.7031 Q144.8438,498.125 144.25,497.8594 Q143.6563,497.5781 143.0313,497.5781 Q141.6875,497.5781 141,498.6563 Q140.3125,499.7188 140.3125,501.8125 Q140.3125,503.9063 141,504.9844 Q141.6875,506.0469 143.0313,506.0469 Q143.6563,506.0469 144.25,505.7813 Q144.8438,505.5 145.4688,504.9219 L145.4688,507.6406 Z"/><text x="156.5" y="506.154" fill="#000" font-family="sans-serif" font-size="12" lengthAdjust="spacing" textLength="131">aws_ec2_route_table</text><line style="stroke:#a80036;stroke-width:1.5" x1="128.5" x2="289.5" y1="518" y2="518"/><line style="stroke:#a80036;stroke-width:1.5" x1="128.5" x2="289.5" y1="526" y2="526"/><rect id="routing_table" width="115" height="48" x="75.5" y="310.5" fill="#FEFECE" codeLine="20" filter="url(#f1f59vvpc8ib0v)" style="stroke:#a80036;stroke-width:1.5"/><ellipse cx="90.5" cy="326.5" fill="#ADD1B2" rx="11" ry="11" style="stroke:#a80036;stroke-width:1"/><path fill="#000" d="M93.4688,332.1406 Q92.8906,332.4375 92.25,332.5781 Q91.6094,332.7344 90.9063,332.7344 Q88.4063,332.7344 87.0781,331.0938 Q85.7656,329.4375 85.7656,326.3125 Q85.7656,323.1875 87.0781,321.5313 Q88.4063,319.875 90.9063,319.875 Q91.6094,319.875 92.25,320.0313 Q92.9063,320.1875 93.4688,320.4844 L93.4688,323.2031 Q92.8438,322.625 92.25,322.3594 Q91.6563,322.0781 91.0313,322.0781 Q89.6875,322.0781 89,323.1563 Q88.3125,324.2188 88.3125,326.3125 Q88.3125,328.4063 89,329.4844 Q89.6875,330.5469 91.0313,330.5469 Q91.6563,330.5469 92.25,330.2813 Q92.8438,330 93.4688,329.4219 L93.4688,332.1406 Z"/><text x="104.5" y="330.654" fill="#000" font-family="sans-serif" font-size="12" lengthAdjust="spacing" textLength="83">routing_table</text><line style="stroke:#a80036;stroke-width:1.5" x1="76.5" x2="189.5" y1="342.5" y2="342.5"/><line style="stroke:#a80036;stroke-width:1.5" x1="76.5" x2="189.5" y1="350.5" y2="350.5"/><path id="aws_resource-backto-aws_ec2_route_table" fill="none" d="M263.9,383.67 C249.29,417.03 230.48,459.96 219.1,485.93" codeLine="23" style="stroke:#a80036;stroke-width:1"/><polygon fill="none" points="257.5 380.84 271.94 365.33 270.32 386.45 257.5 380.84" style="stroke:#a80036;stroke-width:1"/><path id="routing_table-backto-aws_ec2_route_table" fill="none" d="M151.12,376.87 C166.06,410.96 186.7,458.08 198.87,485.87" codeLine="24" style="stroke:#a80036;stroke-width:1"/><polygon fill="none" points="144.71 379.67 143.09 358.54 157.53 374.05 144.71 379.67" style="stroke:#a80036;stroke-width:1"/><path id="resource-backto-routing_table" fill="none" d="M133,203.16 C133,243.25 133,285.12 133,310.25" codeLine="25" style="stroke:#a80036;stroke-width:1"/><polygon fill="none" points="126 203.09 133 183.09 140 203.09 126 203.09" style="stroke:#a80036;stroke-width:1"/></g></svg>