<?xml version="1.0" encoding="UTF-8" standalone="no"?><svg xmlns="http://www.w3.org/2000/svg" xmlns:xlink="http://www.w3.org/1999/xlink" contentScriptType="application/ecmascript" contentStyleType="text/css" height="777px" preserveAspectRatio="none" style="width:444px;height:777px;background:#00000000;" version="1.1" viewBox="0 0 444 777" width="444px" zoomAndPan="magnify"><defs/><g><!--MD5=[7f0ecf5f554433d3f2e1213379ac821c]
class resource--><rect codeLine="17" fill="#194875" height="275.8359" id="resource" rx="2.5" ry="2.5" style="stroke:#000000;stroke-width:1.5;" width="256" x="7" y="7"/><ellipse cx="90.25" cy="26.8945" fill="#1A83AF" rx="11" ry="11" style="stroke:#000000;stroke-width:1.0;"/><path d="M93.2188,32.5352 Q92.6406,32.832 92,32.9727 Q91.3594,33.1289 90.6563,33.1289 Q88.1563,33.1289 86.8281,31.4883 Q85.5156,29.832 85.5156,26.707 Q85.5156,23.582 86.8281,21.9258 Q88.1563,20.2695 90.6563,20.2695 Q91.3594,20.2695 92,20.4258 Q92.6563,20.582 93.2188,20.8789 L93.2188,23.5977 Q92.5938,23.0195 92,22.7539 Q91.4063,22.4727 90.7813,22.4727 Q89.4375,22.4727 88.75,23.5508 Q88.0625,24.6133 88.0625,26.707 Q88.0625,28.8008 88.75,29.8789 Q89.4375,30.9414 90.7813,30.9414 Q91.4063,30.9414 92,30.6758 Q92.5938,30.3945 93.2188,29.8164 L93.2188,32.5352 Z " fill="#000000"/><text fill="#FFE797" font-family="Helvetica" font-size="17" lengthAdjust="spacing" textLength="71" x="115.75" y="32.7798">resource</text><line style="stroke:#000000;stroke-width:1.5;" x1="8" x2="262" y1="46.7891" y2="46.7891"/><text fill="#FFE797" font-family="sans-serif" font-size="11" font-weight="bold" lengthAdjust="spacing" textLength="12" x="18" y="65.9995">id</text><text fill="#FFE797" font-family="sans-serif" font-size="11" lengthAdjust="spacing" textLength="41" x="30" y="65.9995">: string</text><text fill="#FFE797" font-family="sans-serif" font-size="11" font-weight="bold" lengthAdjust="spacing" textLength="28" x="18" y="88.8042">tags</text><text fill="#FFE797" font-family="sans-serif" font-size="11" lengthAdjust="spacing" textLength="145" x="46" y="88.8042">: dictionary[string, string]</text><text fill="#FFE797" font-family="sans-serif" font-size="11" font-weight="bold" lengthAdjust="spacing" textLength="35" x="18" y="111.6089">name</text><text fill="#FFE797" font-family="sans-serif" font-size="11" lengthAdjust="spacing" textLength="41" x="53" y="111.6089">: string</text><text fill="#FFE797" font-family="sans-serif" font-size="11" font-weight="bold" lengthAdjust="spacing" textLength="35" x="18" y="134.4136">ctime</text><text fill="#FFE797" font-family="sans-serif" font-size="11" lengthAdjust="spacing" textLength="58" x="53" y="134.4136">: datetime</text><text fill="#FFE797" font-family="sans-serif" font-size="11" font-weight="bold" lengthAdjust="spacing" textLength="24" x="18" y="157.2183">age</text><text fill="#FFE797" font-family="sans-serif" font-size="11" lengthAdjust="spacing" textLength="159" x="42" y="157.2183">: trafo.duration_to_datetime</text><text fill="#FFE797" font-family="sans-serif" font-size="11" font-weight="bold" lengthAdjust="spacing" textLength="39" x="18" y="180.0229">mtime</text><text fill="#FFE797" font-family="sans-serif" font-size="11" lengthAdjust="spacing" textLength="58" x="57" y="180.0229">: datetime</text><text fill="#FFE797" font-family="sans-serif" font-size="11" font-weight="bold" lengthAdjust="spacing" textLength="75" x="18" y="202.8276">last_update</text><text fill="#FFE797" font-family="sans-serif" font-size="11" lengthAdjust="spacing" textLength="159" x="93" y="202.8276">: trafo.duration_to_datetime</text><text fill="#FFE797" font-family="sans-serif" font-size="11" font-weight="bold" lengthAdjust="spacing" textLength="36" x="18" y="225.6323">atime</text><text fill="#FFE797" font-family="sans-serif" font-size="11" lengthAdjust="spacing" textLength="58" x="54" y="225.6323">: datetime</text><text fill="#FFE797" font-family="sans-serif" font-size="11" font-weight="bold" lengthAdjust="spacing" textLength="74" x="18" y="248.437">last_access</text><text fill="#FFE797" font-family="sans-serif" font-size="11" lengthAdjust="spacing" textLength="159" x="92" y="248.437">: trafo.duration_to_datetime</text><text fill="#FFE797" font-family="sans-serif" font-size="11" font-weight="bold" lengthAdjust="spacing" textLength="27" x="18" y="271.2417">kind</text><text fill="#FFE797" font-family="sans-serif" font-size="11" lengthAdjust="spacing" textLength="41" x="45" y="271.2417">: string</text><!--MD5=[c069b88079f3e36515859a1683f3923c]
class aws_resource--><rect codeLine="29" fill="#194875" height="70.5938" id="aws_resource" rx="2.5" ry="2.5" style="stroke:#000000;stroke-width:1.5;" width="155" x="282.5" y="472"/><ellipse cx="297.5" cy="491.8945" fill="#1A83AF" rx="11" ry="11" style="stroke:#000000;stroke-width:1.0;"/><path d="M300.4688,497.5352 Q299.8906,497.832 299.25,497.9727 Q298.6094,498.1289 297.9063,498.1289 Q295.4063,498.1289 294.0781,496.4883 Q292.7656,494.832 292.7656,491.707 Q292.7656,488.582 294.0781,486.9258 Q295.4063,485.2695 297.9063,485.2695 Q298.6094,485.2695 299.25,485.4258 Q299.9063,485.582 300.4688,485.8789 L300.4688,488.5977 Q299.8438,488.0195 299.25,487.7539 Q298.6563,487.4727 298.0313,487.4727 Q296.6875,487.4727 296,488.5508 Q295.3125,489.6133 295.3125,491.707 Q295.3125,493.8008 296,494.8789 Q296.6875,495.9414 298.0313,495.9414 Q298.6563,495.9414 299.25,495.6758 Q299.8438,495.3945 300.4688,494.8164 L300.4688,497.5352 Z " fill="#000000"/><text fill="#FFE797" font-family="Helvetica" font-size="17" lengthAdjust="spacing" textLength="113" x="316.5" y="497.7798">aws_resource</text><line style="stroke:#000000;stroke-width:1.5;" x1="283.5" x2="436.5" y1="511.7891" y2="511.7891"/><text fill="#FFE797" font-family="sans-serif" font-size="11" font-weight="bold" lengthAdjust="spacing" textLength="21" x="293.5" y="530.9995">arn</text><text fill="#FFE797" font-family="sans-serif" font-size="11" lengthAdjust="spacing" textLength="41" x="314.5" y="530.9995">: string</text><!--MD5=[33fca66cf3cebaf2a83668deec83d6d2]
class network_interface--><rect codeLine="32" fill="#194875" height="207.4219" id="network_interface" rx="2.5" ry="2.5" style="stroke:#000000;stroke-width:1.5;" width="225" x="22.5" y="404"/><ellipse cx="51" cy="423.8945" fill="#1A83AF" rx="11" ry="11" style="stroke:#000000;stroke-width:1.0;"/><path d="M53.9688,429.5352 Q53.3906,429.832 52.75,429.9727 Q52.1094,430.1289 51.4063,430.1289 Q48.9063,430.1289 47.5781,428.4883 Q46.2656,426.832 46.2656,423.707 Q46.2656,420.582 47.5781,418.9258 Q48.9063,417.2695 51.4063,417.2695 Q52.1094,417.2695 52.75,417.4258 Q53.4063,417.582 53.9688,417.8789 L53.9688,420.5977 Q53.3438,420.0195 52.75,419.7539 Q52.1563,419.4727 51.5313,419.4727 Q50.1875,419.4727 49.5,420.5508 Q48.8125,421.6133 48.8125,423.707 Q48.8125,425.8008 49.5,426.8789 Q50.1875,427.9414 51.5313,427.9414 Q52.1563,427.9414 52.75,427.6758 Q53.3438,427.3945 53.9688,426.8164 L53.9688,429.5352 Z " fill="#000000"/><text fill="#FFE797" font-family="Helvetica" font-size="17" lengthAdjust="spacing" textLength="153" x="73" y="429.7798">network_interface</text><line style="stroke:#000000;stroke-width:1.5;" x1="23.5" x2="246.5" y1="443.7891" y2="443.7891"/><text fill="#FFE797" font-family="sans-serif" font-size="11" font-weight="bold" lengthAdjust="spacing" textLength="162" x="33.5" y="462.9995">network_interface_status</text><text fill="#FFE797" font-family="sans-serif" font-size="11" lengthAdjust="spacing" textLength="41" x="195.5" y="462.9995">: string</text><text fill="#FFE797" font-family="sans-serif" font-size="11" font-weight="bold" lengthAdjust="spacing" textLength="150" x="33.5" y="485.8042">network_interface_type</text><text fill="#FFE797" font-family="sans-serif" font-size="11" lengthAdjust="spacing" textLength="41" x="183.5" y="485.8042">: string</text><text fill="#FFE797" font-family="sans-serif" font-size="11" font-weight="bold" lengthAdjust="spacing" textLength="26" x="33.5" y="508.6089">mac</text><text fill="#FFE797" font-family="sans-serif" font-size="11" lengthAdjust="spacing" textLength="41" x="59.5" y="508.6089">: string</text><text fill="#FFE797" font-family="sans-serif" font-size="11" font-weight="bold" lengthAdjust="spacing" textLength="70" x="33.5" y="531.4136">private_ips</text><text fill="#FFE797" font-family="sans-serif" font-size="11" lengthAdjust="spacing" textLength="49" x="103.5" y="531.4136">: string[]</text><text fill="#FFE797" font-family="sans-serif" font-size="11" font-weight="bold" lengthAdjust="spacing" textLength="64" x="33.5" y="554.2183">public_ips</text><text fill="#FFE797" font-family="sans-serif" font-size="11" lengthAdjust="spacing" textLength="49" x="97.5" y="554.2183">: string[]</text><text fill="#FFE797" font-family="sans-serif" font-size="11" font-weight="bold" lengthAdjust="spacing" textLength="40" x="33.5" y="577.0229">v6_ips</text><text fill="#FFE797" font-family="sans-serif" font-size="11" lengthAdjust="spacing" textLength="49" x="73.5" y="577.0229">: string[]</text><text fill="#FFE797" font-family="sans-serif" font-size="11" font-weight="bold" lengthAdjust="spacing" textLength="72" x="33.5" y="599.8276">description</text><text fill="#FFE797" font-family="sans-serif" font-size="11" lengthAdjust="spacing" textLength="41" x="105.5" y="599.8276">: string</text><!--MD5=[d26bceef62e8dfaa86056b8af24063e1]
class aws_ec2_network_interface--><rect codeLine="41" fill="#194875" height="39.7891" id="aws_ec2_network_interface" rx="2.5" ry="2.5" style="stroke:#000000;stroke-width:1.5;" width="275" x="148.5" y="732"/><ellipse cx="163.5" cy="751.8945" fill="#1A83AF" rx="11" ry="11" style="stroke:#000000;stroke-width:1.0;"/><path d="M166.4688,757.5352 Q165.8906,757.832 165.25,757.9727 Q164.6094,758.1289 163.9063,758.1289 Q161.4063,758.1289 160.0781,756.4883 Q158.7656,754.832 158.7656,751.707 Q158.7656,748.582 160.0781,746.9258 Q161.4063,745.2695 163.9063,745.2695 Q164.6094,745.2695 165.25,745.4258 Q165.9063,745.582 166.4688,745.8789 L166.4688,748.5977 Q165.8438,748.0195 165.25,747.7539 Q164.6563,747.4727 164.0313,747.4727 Q162.6875,747.4727 162,748.5508 Q161.3125,749.6133 161.3125,751.707 Q161.3125,753.8008 162,754.8789 Q162.6875,755.9414 164.0313,755.9414 Q164.6563,755.9414 165.25,755.6758 Q165.8438,755.3945 166.4688,754.8164 L166.4688,757.5352 Z " fill="#000000"/><text fill="#FFE797" font-family="Helvetica" font-size="17" lengthAdjust="spacing" textLength="233" x="182.5" y="757.7798">aws_ec2_network_interface</text><!--MD5=[d8497eb0c5bb4f4c51500c018fb82605]
reverse link resource to network_interface--><path codeLine="44" d="M135,303.49 C135,337.51 135,372.64 135,403.9 " fill="none" id="resource-backto-network_interface" style="stroke:#FFAF37;stroke-width:2.0;"/><polygon fill="none" points="128,303.06,135,283.06,142,303.06,128,303.06" style="stroke:#FFAF37;stroke-width:2.0;"/><!--MD5=[d8d0ddd3f067a1f6fde528a054c9446c]
reverse link aws_resource to aws_ec2_network_interface--><path codeLine="45" d="M343.55,562.42 C327.16,616.13 302.89,695.65 291.85,731.83 " fill="none" id="aws_resource-backto-aws_ec2_network_interface" style="stroke:#FFAF37;stroke-width:2.0;"/><polygon fill="none" points="336.86,560.33,349.4,543.24,350.26,564.42,336.86,560.33" style="stroke:#FFAF37;stroke-width:2.0;"/><!--MD5=[dbc0a5e073c180b2f0f5199990b3d8f2]
reverse link network_interface to aws_ec2_network_interface--><path codeLine="46" d="M209.72,628.5 C234.73,668.67 259.86,709.02 274.12,731.92 " fill="none" id="network_interface-backto-aws_ec2_network_interface" style="stroke:#FFAF37;stroke-width:2.0;"/><polygon fill="none" points="203.67,632.02,199.04,611.34,215.55,624.62,203.67,632.02" style="stroke:#FFAF37;stroke-width:2.0;"/><!--MD5=[d6a7e1d7c944fcadc52a47540b2809f4]
@startuml
hide empty members
skinparam ArrowColor #ffaf37
skinparam ArrowThickness 2
skinparam BackgroundColor transparent
skinparam ClassAttributeFontColor #ffe797
skinparam ClassBackgroundColor #194875
skinparam ClassBorderColor Black
skinparam ClassFontColor #ffe797
skinparam ClassFontName Helvetica
skinparam ClassFontSize 17
skinparam Padding 5
skinparam RoundCorner 5
skinparam Shadowing false
skinparam stereotypeCBackgroundColor #1a83af
skinparam stereotypeIBackgroundColor #1a83af

class resource {
**id**: string
**tags**: dictionary[string, string]
**name**: string
**ctime**: datetime
**age**: trafo.duration_to_datetime
**mtime**: datetime
**last_update**: trafo.duration_to_datetime
**atime**: datetime
**last_access**: trafo.duration_to_datetime
**kind**: string
}
class aws_resource {
**arn**: string
}
class network_interface {
**network_interface_status**: string
**network_interface_type**: string
**mac**: string
**private_ips**: string[]
**public_ips**: string[]
**v6_ips**: string[]
**description**: string
}
class aws_ec2_network_interface {

}
resource <|- - - network_interface
aws_resource <|- - - aws_ec2_network_interface
network_interface <|- - - aws_ec2_network_interface
@enduml

PlantUML version 1.2021.16(Wed Dec 08 17:25:22 UTC 2021)
(GPL source distribution)
Java Runtime: OpenJDK Runtime Environment
JVM: OpenJDK 64-Bit Server VM
Default Encoding: UTF-8
Language: en
Country: null
--></g></svg>