<svg xmlns="http://www.w3.org/2000/svg" xmlns:xlink="http://www.w3.org/1999/xlink" width="424" height="573" contentScriptType="application/ecmascript" contentStyleType="text/css" style="width:424px;height:573px;background:#00000000" preserveAspectRatio="none" version="1.1" viewBox="0 0 424 573" zoomAndPan="magnify"><defs><filter id="f1rpha10qftny7" width="300%" height="300%" x="-1" y="-1"><feGaussianBlur result="blurOut" stdDeviation="2"/><feColorMatrix in="blurOut" result="blurOut2" type="matrix" values="0 0 0 0 0 0 0 0 0 0 0 0 0 0 0 0 0 0 .4 0"/><feOffset dx="4" dy="4" in="blurOut2" result="blurOut3"/><feBlend in="SourceGraphic" in2="blurOut3" mode="normal"/></filter></defs><g><rect id="resource" width="252" height="176.047" x="7" y="7" fill="#FEFECE" codeLine="2" filter="url(#f1rpha10qftny7)" style="stroke:#a80036;stroke-width:1.5"/><ellipse cx="100.75" cy="23" fill="#ADD1B2" rx="11" ry="11" style="stroke:#a80036;stroke-width:1"/><path fill="#000" d="M103.7188,28.6406 Q103.1406,28.9375 102.5,29.0781 Q101.8594,29.2344 101.1563,29.2344 Q98.6563,29.2344 97.3281,27.5938 Q96.0156,25.9375 96.0156,22.8125 Q96.0156,19.6875 97.3281,18.0313 Q98.6563,16.375 101.1563,16.375 Q101.8594,16.375 102.5,16.5313 Q103.1563,16.6875 103.7188,16.9844 L103.7188,19.7031 Q103.0938,19.125 102.5,18.8594 Q101.9063,18.5781 101.2813,18.5781 Q99.9375,18.5781 99.25,19.6563 Q98.5625,20.7188 98.5625,22.8125 Q98.5625,24.9063 99.25,25.9844 Q99.9375,27.0469 101.2813,27.0469 Q101.9063,27.0469 102.5,26.7813 Q103.0938,26.5 103.7188,25.9219 L103.7188,28.6406 Z"/><text x="121.25" y="27.154" fill="#000" font-family="sans-serif" font-size="12" lengthAdjust="spacing" textLength="56">resource</text><line style="stroke:#a80036;stroke-width:1.5" x1="8" x2="258" y1="39" y2="39"/><ellipse cx="18" cy="50" rx="3" ry="3" style="stroke:#038048;stroke-width:1;fill:none"/><text x="27" y="53.21" fill="#000" font-family="sans-serif" font-size="11" lengthAdjust="spacing" textLength="51">id: string</text><ellipse cx="18" cy="62.805" rx="3" ry="3" style="stroke:#038048;stroke-width:1;fill:none"/><text x="27" y="66.015" fill="#000" font-family="sans-serif" font-size="11" lengthAdjust="spacing" textLength="170">tags: dictionary[string, string]</text><ellipse cx="18" cy="75.609" rx="3" ry="3" style="stroke:#038048;stroke-width:1;fill:none"/><text x="27" y="78.82" fill="#000" font-family="sans-serif" font-size="11" lengthAdjust="spacing" textLength="73">name: string</text><ellipse cx="18" cy="88.414" rx="3" ry="3" style="stroke:#038048;stroke-width:1;fill:none"/><text x="27" y="91.624" fill="#000" font-family="sans-serif" font-size="11" lengthAdjust="spacing" textLength="89">ctime: datetime</text><ellipse cx="18" cy="101.219" rx="3" ry="3" style="stroke:#038048;stroke-width:1;fill:none"/><text x="27" y="104.429" fill="#000" font-family="sans-serif" font-size="11" lengthAdjust="spacing" textLength="180">age: trafo.duration_to_datetime</text><ellipse cx="18" cy="114.023" rx="3" ry="3" style="stroke:#038048;stroke-width:1;fill:none"/><text x="27" y="117.234" fill="#000" font-family="sans-serif" font-size="11" lengthAdjust="spacing" textLength="94">mtime: datetime</text><ellipse cx="18" cy="126.828" rx="3" ry="3" style="stroke:#038048;stroke-width:1;fill:none"/><text x="27" y="130.039" fill="#000" font-family="sans-serif" font-size="11" lengthAdjust="spacing" textLength="225">last_update: trafo.duration_to_datetime</text><ellipse cx="18" cy="139.633" rx="3" ry="3" style="stroke:#038048;stroke-width:1;fill:none"/><text x="27" y="142.843" fill="#000" font-family="sans-serif" font-size="11" lengthAdjust="spacing" textLength="90">atime: datetime</text><ellipse cx="18" cy="152.438" rx="3" ry="3" style="stroke:#038048;stroke-width:1;fill:none"/><text x="27" y="155.648" fill="#000" font-family="sans-serif" font-size="11" lengthAdjust="spacing" textLength="226">last_access: trafo.duration_to_datetime</text><ellipse cx="18" cy="165.242" rx="3" ry="3" style="stroke:#038048;stroke-width:1;fill:none"/><text x="27" y="168.453" fill="#000" font-family="sans-serif" font-size="11" lengthAdjust="spacing" textLength="64">kind: string</text><line style="stroke:#a80036;stroke-width:1.5" x1="8" x2="258" y1="175.047" y2="175.047"/><rect id="aws_resource" width="118" height="60.805" x="292" y="316.5" fill="#FEFECE" codeLine="14" filter="url(#f1rpha10qftny7)" style="stroke:#a80036;stroke-width:1.5"/><ellipse cx="307" cy="332.5" fill="#ADD1B2" rx="11" ry="11" style="stroke:#a80036;stroke-width:1"/><path fill="#000" d="M309.9688,338.1406 Q309.3906,338.4375 308.75,338.5781 Q308.1094,338.7344 307.4063,338.7344 Q304.9063,338.7344 303.5781,337.0938 Q302.2656,335.4375 302.2656,332.3125 Q302.2656,329.1875 303.5781,327.5313 Q304.9063,325.875 307.4063,325.875 Q308.1094,325.875 308.75,326.0313 Q309.4063,326.1875 309.9688,326.4844 L309.9688,329.2031 Q309.3438,328.625 308.75,328.3594 Q308.1563,328.0781 307.5313,328.0781 Q306.1875,328.0781 305.5,329.1563 Q304.8125,330.2188 304.8125,332.3125 Q304.8125,334.4063 305.5,335.4844 Q306.1875,336.5469 307.5313,336.5469 Q308.1563,336.5469 308.75,336.2813 Q309.3438,336 309.9688,335.4219 L309.9688,338.1406 Z"/><text x="321" y="336.654" fill="#000" font-family="sans-serif" font-size="12" lengthAdjust="spacing" textLength="86">aws_resource</text><line style="stroke:#a80036;stroke-width:1.5" x1="293" x2="409" y1="348.5" y2="348.5"/><ellipse cx="303" cy="359.5" rx="3" ry="3" style="stroke:#038048;stroke-width:1;fill:none"/><text x="312" y="362.71" fill="#000" font-family="sans-serif" font-size="11" lengthAdjust="spacing" textLength="60">arn: string</text><line style="stroke:#a80036;stroke-width:1.5" x1="293" x2="409" y1="369.305" y2="369.305"/><rect id="stack" width="248" height="86.414" x="9" y="304" fill="#FEFECE" codeLine="17" filter="url(#f1rpha10qftny7)" style="stroke:#a80036;stroke-width:1.5"/><ellipse cx="111.75" cy="320" fill="#ADD1B2" rx="11" ry="11" style="stroke:#a80036;stroke-width:1"/><path fill="#000" d="M114.7188,325.6406 Q114.1406,325.9375 113.5,326.0781 Q112.8594,326.2344 112.1563,326.2344 Q109.6563,326.2344 108.3281,324.5938 Q107.0156,322.9375 107.0156,319.8125 Q107.0156,316.6875 108.3281,315.0313 Q109.6563,313.375 112.1563,313.375 Q112.8594,313.375 113.5,313.5313 Q114.1563,313.6875 114.7188,313.9844 L114.7188,316.7031 Q114.0938,316.125 113.5,315.8594 Q112.9063,315.5781 112.2813,315.5781 Q110.9375,315.5781 110.25,316.6563 Q109.5625,317.7188 109.5625,319.8125 Q109.5625,321.9063 110.25,322.9844 Q110.9375,324.0469 112.2813,324.0469 Q112.9063,324.0469 113.5,323.7813 Q114.0938,323.5 114.7188,322.9219 L114.7188,325.6406 Z"/><text x="132.25" y="324.154" fill="#000" font-family="sans-serif" font-size="12" lengthAdjust="spacing" textLength="34">stack</text><line style="stroke:#a80036;stroke-width:1.5" x1="10" x2="256" y1="336" y2="336"/><ellipse cx="20" cy="347" rx="3" ry="3" style="stroke:#038048;stroke-width:1;fill:none"/><text x="29" y="350.21" fill="#000" font-family="sans-serif" font-size="11" lengthAdjust="spacing" textLength="113">stack_status: string</text><ellipse cx="20" cy="359.805" rx="3" ry="3" style="stroke:#038048;stroke-width:1;fill:none"/><text x="29" y="363.015" fill="#000" font-family="sans-serif" font-size="11" lengthAdjust="spacing" textLength="159">stack_status_reason: string</text><ellipse cx="20" cy="372.609" rx="3" ry="3" style="stroke:#038048;stroke-width:1;fill:none"/><text x="29" y="375.82" fill="#000" font-family="sans-serif" font-size="11" lengthAdjust="spacing" textLength="222">stack_parameters: dictionary[any, any]</text><line style="stroke:#a80036;stroke-width:1.5" x1="10" x2="256" y1="382.414" y2="382.414"/><rect id="aws_cloudformation_stack" width="196" height="48" x="180" y="511" fill="#FEFECE" codeLine="22" filter="url(#f1rpha10qftny7)" style="stroke:#a80036;stroke-width:1.5"/><ellipse cx="195" cy="527" fill="#ADD1B2" rx="11" ry="11" style="stroke:#a80036;stroke-width:1"/><path fill="#000" d="M197.9688,532.6406 Q197.3906,532.9375 196.75,533.0781 Q196.1094,533.2344 195.4063,533.2344 Q192.9063,533.2344 191.5781,531.5938 Q190.2656,529.9375 190.2656,526.8125 Q190.2656,523.6875 191.5781,522.0313 Q192.9063,520.375 195.4063,520.375 Q196.1094,520.375 196.75,520.5313 Q197.4063,520.6875 197.9688,520.9844 L197.9688,523.7031 Q197.3438,523.125 196.75,522.8594 Q196.1563,522.5781 195.5313,522.5781 Q194.1875,522.5781 193.5,523.6563 Q192.8125,524.7188 192.8125,526.8125 Q192.8125,528.9063 193.5,529.9844 Q194.1875,531.0469 195.5313,531.0469 Q196.1563,531.0469 196.75,530.7813 Q197.3438,530.5 197.9688,529.9219 L197.9688,532.6406 Z"/><text x="209" y="531.154" fill="#000" font-family="sans-serif" font-size="12" lengthAdjust="spacing" textLength="164">aws_cloudformation_stack</text><line style="stroke:#a80036;stroke-width:1.5" x1="181" x2="375" y1="543" y2="543"/><line style="stroke:#a80036;stroke-width:1.5" x1="181" x2="375" y1="551" y2="551"/><path id="resource-backto-stack" fill="none" d="M133,203.1 C133,238.6 133,276.07 133,303.72" codeLine="25" style="stroke:#a80036;stroke-width:1"/><polygon fill="none" points="126 203.09 133 183.09 140 203.09 126 203.09" style="stroke:#a80036;stroke-width:1"/><path id="aws_resource-backto-aws_cloudformation_stack" fill="none" d="M331.9,396.65 C317.43,433.53 298.2,482.54 287.05,510.95" codeLine="26" style="stroke:#a80036;stroke-width:1"/><polygon fill="none" points="325.45 393.94 339.27 377.88 338.48 399.06 325.45 393.94" style="stroke:#a80036;stroke-width:1"/><path id="stack-backto-aws_cloudformation_stack" fill="none" d="M178.48,406.34 C206.07,441.73 239.76,484.95 260.02,510.93" codeLine="27" style="stroke:#a80036;stroke-width:1"/><polygon fill="none" points="172.68 410.28 165.9 390.21 183.72 401.68 172.68 410.28" style="stroke:#a80036;stroke-width:1"/></g></svg>