<?xml version="1.0" encoding="UTF-8" standalone="no"?><svg xmlns="http://www.w3.org/2000/svg" xmlns:xlink="http://www.w3.org/1999/xlink" contentScriptType="application/ecmascript" contentStyleType="text/css" height="641px" preserveAspectRatio="none" style="width:419px;height:641px;background:#00000000;" version="1.1" viewBox="0 0 419 641" width="419px" zoomAndPan="magnify"><defs/><g><!--MD5=[7f0ecf5f554433d3f2e1213379ac821c]
class resource--><rect codeLine="17" fill="#194875" height="275.8359" id="resource" rx="2.5" ry="2.5" style="stroke:#000000;stroke-width:1.5;" width="256" x="7" y="7"/><ellipse cx="90.25" cy="26.8945" fill="#1A83AF" rx="11" ry="11" style="stroke:#000000;stroke-width:1.0;"/><path d="M93.2188,32.5352 Q92.6406,32.832 92,32.9727 Q91.3594,33.1289 90.6563,33.1289 Q88.1563,33.1289 86.8281,31.4883 Q85.5156,29.832 85.5156,26.707 Q85.5156,23.582 86.8281,21.9258 Q88.1563,20.2695 90.6563,20.2695 Q91.3594,20.2695 92,20.4258 Q92.6563,20.582 93.2188,20.8789 L93.2188,23.5977 Q92.5938,23.0195 92,22.7539 Q91.4063,22.4727 90.7813,22.4727 Q89.4375,22.4727 88.75,23.5508 Q88.0625,24.6133 88.0625,26.707 Q88.0625,28.8008 88.75,29.8789 Q89.4375,30.9414 90.7813,30.9414 Q91.4063,30.9414 92,30.6758 Q92.5938,30.3945 93.2188,29.8164 L93.2188,32.5352 Z " fill="#000000"/><text fill="#FFE797" font-family="Helvetica" font-size="17" lengthAdjust="spacing" textLength="71" x="115.75" y="32.7798">resource</text><line style="stroke:#000000;stroke-width:1.5;" x1="8" x2="262" y1="46.7891" y2="46.7891"/><text fill="#FFE797" font-family="sans-serif" font-size="11" font-weight="bold" lengthAdjust="spacing" textLength="12" x="18" y="65.9995">id</text><text fill="#FFE797" font-family="sans-serif" font-size="11" lengthAdjust="spacing" textLength="41" x="30" y="65.9995">: string</text><text fill="#FFE797" font-family="sans-serif" font-size="11" font-weight="bold" lengthAdjust="spacing" textLength="28" x="18" y="88.8042">tags</text><text fill="#FFE797" font-family="sans-serif" font-size="11" lengthAdjust="spacing" textLength="145" x="46" y="88.8042">: dictionary[string, string]</text><text fill="#FFE797" font-family="sans-serif" font-size="11" font-weight="bold" lengthAdjust="spacing" textLength="35" x="18" y="111.6089">name</text><text fill="#FFE797" font-family="sans-serif" font-size="11" lengthAdjust="spacing" textLength="41" x="53" y="111.6089">: string</text><text fill="#FFE797" font-family="sans-serif" font-size="11" font-weight="bold" lengthAdjust="spacing" textLength="35" x="18" y="134.4136">ctime</text><text fill="#FFE797" font-family="sans-serif" font-size="11" lengthAdjust="spacing" textLength="58" x="53" y="134.4136">: datetime</text><text fill="#FFE797" font-family="sans-serif" font-size="11" font-weight="bold" lengthAdjust="spacing" textLength="24" x="18" y="157.2183">age</text><text fill="#FFE797" font-family="sans-serif" font-size="11" lengthAdjust="spacing" textLength="159" x="42" y="157.2183">: trafo.duration_to_datetime</text><text fill="#FFE797" font-family="sans-serif" font-size="11" font-weight="bold" lengthAdjust="spacing" textLength="39" x="18" y="180.0229">mtime</text><text fill="#FFE797" font-family="sans-serif" font-size="11" lengthAdjust="spacing" textLength="58" x="57" y="180.0229">: datetime</text><text fill="#FFE797" font-family="sans-serif" font-size="11" font-weight="bold" lengthAdjust="spacing" textLength="75" x="18" y="202.8276">last_update</text><text fill="#FFE797" font-family="sans-serif" font-size="11" lengthAdjust="spacing" textLength="159" x="93" y="202.8276">: trafo.duration_to_datetime</text><text fill="#FFE797" font-family="sans-serif" font-size="11" font-weight="bold" lengthAdjust="spacing" textLength="36" x="18" y="225.6323">atime</text><text fill="#FFE797" font-family="sans-serif" font-size="11" lengthAdjust="spacing" textLength="58" x="54" y="225.6323">: datetime</text><text fill="#FFE797" font-family="sans-serif" font-size="11" font-weight="bold" lengthAdjust="spacing" textLength="74" x="18" y="248.437">last_access</text><text fill="#FFE797" font-family="sans-serif" font-size="11" lengthAdjust="spacing" textLength="159" x="92" y="248.437">: trafo.duration_to_datetime</text><text fill="#FFE797" font-family="sans-serif" font-size="11" font-weight="bold" lengthAdjust="spacing" textLength="27" x="18" y="271.2417">kind</text><text fill="#FFE797" font-family="sans-serif" font-size="11" lengthAdjust="spacing" textLength="41" x="45" y="271.2417">: string</text><!--MD5=[c069b88079f3e36515859a1683f3923c]
class aws_resource--><rect codeLine="29" fill="#194875" height="70.5938" id="aws_resource" rx="2.5" ry="2.5" style="stroke:#000000;stroke-width:1.5;" width="155" x="257.5" y="404"/><ellipse cx="272.5" cy="423.8945" fill="#1A83AF" rx="11" ry="11" style="stroke:#000000;stroke-width:1.0;"/><path d="M275.4688,429.5352 Q274.8906,429.832 274.25,429.9727 Q273.6094,430.1289 272.9063,430.1289 Q270.4063,430.1289 269.0781,428.4883 Q267.7656,426.832 267.7656,423.707 Q267.7656,420.582 269.0781,418.9258 Q270.4063,417.2695 272.9063,417.2695 Q273.6094,417.2695 274.25,417.4258 Q274.9063,417.582 275.4688,417.8789 L275.4688,420.5977 Q274.8438,420.0195 274.25,419.7539 Q273.6563,419.4727 273.0313,419.4727 Q271.6875,419.4727 271,420.5508 Q270.3125,421.6133 270.3125,423.707 Q270.3125,425.8008 271,426.8789 Q271.6875,427.9414 273.0313,427.9414 Q273.6563,427.9414 274.25,427.6758 Q274.8438,427.3945 275.4688,426.8164 L275.4688,429.5352 Z " fill="#000000"/><text fill="#FFE797" font-family="Helvetica" font-size="17" lengthAdjust="spacing" textLength="113" x="291.5" y="429.7798">aws_resource</text><line style="stroke:#000000;stroke-width:1.5;" x1="258.5" x2="411.5" y1="443.7891" y2="443.7891"/><text fill="#FFE797" font-family="sans-serif" font-size="11" font-weight="bold" lengthAdjust="spacing" textLength="21" x="268.5" y="462.9995">arn</text><text fill="#FFE797" font-family="sans-serif" font-size="11" lengthAdjust="spacing" textLength="41" x="289.5" y="462.9995">: string</text><!--MD5=[49e37c1973721d540297d8189dade450]
class aws_iam_instance_profile--><rect codeLine="32" fill="#194875" height="39.7891" id="aws_iam_instance_profile" rx="2.5" ry="2.5" style="stroke:#000000;stroke-width:1.5;" width="257" x="106.5" y="596"/><ellipse cx="121.5" cy="615.8945" fill="#1A83AF" rx="11" ry="11" style="stroke:#000000;stroke-width:1.0;"/><path d="M124.4688,621.5352 Q123.8906,621.832 123.25,621.9727 Q122.6094,622.1289 121.9063,622.1289 Q119.4063,622.1289 118.0781,620.4883 Q116.7656,618.832 116.7656,615.707 Q116.7656,612.582 118.0781,610.9258 Q119.4063,609.2695 121.9063,609.2695 Q122.6094,609.2695 123.25,609.4258 Q123.9063,609.582 124.4688,609.8789 L124.4688,612.5977 Q123.8438,612.0195 123.25,611.7539 Q122.6563,611.4727 122.0313,611.4727 Q120.6875,611.4727 120,612.5508 Q119.3125,613.6133 119.3125,615.707 Q119.3125,617.8008 120,618.8789 Q120.6875,619.9414 122.0313,619.9414 Q122.6563,619.9414 123.25,619.6758 Q123.8438,619.3945 124.4688,618.8164 L124.4688,621.5352 Z " fill="#000000"/><text fill="#FFE797" font-family="Helvetica" font-size="17" lengthAdjust="spacing" textLength="215" x="140.5" y="621.7798">aws_iam_instance_profile</text><!--MD5=[475850294eee9d3fab85328c9d4ddef3]
class instance_profile--><rect codeLine="35" fill="#194875" height="39.7891" id="instance_profile" rx="2.5" ry="2.5" style="stroke:#000000;stroke-width:1.5;" width="174" x="48" y="419.5"/><ellipse cx="63" cy="439.3945" fill="#1A83AF" rx="11" ry="11" style="stroke:#000000;stroke-width:1.0;"/><path d="M65.9688,445.0352 Q65.3906,445.332 64.75,445.4727 Q64.1094,445.6289 63.4063,445.6289 Q60.9063,445.6289 59.5781,443.9883 Q58.2656,442.332 58.2656,439.207 Q58.2656,436.082 59.5781,434.4258 Q60.9063,432.7695 63.4063,432.7695 Q64.1094,432.7695 64.75,432.9258 Q65.4063,433.082 65.9688,433.3789 L65.9688,436.0977 Q65.3438,435.5195 64.75,435.2539 Q64.1563,434.9727 63.5313,434.9727 Q62.1875,434.9727 61.5,436.0508 Q60.8125,437.1133 60.8125,439.207 Q60.8125,441.3008 61.5,442.3789 Q62.1875,443.4414 63.5313,443.4414 Q64.1563,443.4414 64.75,443.1758 Q65.3438,442.8945 65.9688,442.3164 L65.9688,445.0352 Z " fill="#000000"/><text fill="#FFE797" font-family="Helvetica" font-size="17" lengthAdjust="spacing" textLength="132" x="82" y="445.2798">instance_profile</text><!--MD5=[e1feaf9b11fe3d2d0ceb1518e9dbec5b]
reverse link aws_resource to aws_iam_instance_profile--><path codeLine="38" d="M304.85,493.11 C284.95,527.83 260.05,571.29 245.99,595.82 " fill="none" id="aws_resource-backto-aws_iam_instance_profile" style="stroke:#FFAF37;stroke-width:2.0;"/><polygon fill="none" points="298.99,489.27,315,475.39,311.13,496.23,298.99,489.27" style="stroke:#FFAF37;stroke-width:2.0;"/><!--MD5=[33b056d65ab8fe91fc9ea3dafd36de89]
reverse link instance_profile to aws_iam_instance_profile--><path codeLine="39" d="M155.94,477.04 C176.67,513.22 207.62,567.23 223.97,595.75 " fill="none" id="instance_profile-backto-aws_iam_instance_profile" style="stroke:#FFAF37;stroke-width:2.0;"/><polygon fill="none" points="149.76,480.34,145.89,459.51,161.91,473.38,149.76,480.34" style="stroke:#FFAF37;stroke-width:2.0;"/><!--MD5=[934b807f54b6ab080e25230afb5e90e3]
reverse link resource to instance_profile--><path codeLine="40" d="M135,303.51 C135,349.86 135,394.69 135,419.24 " fill="none" id="resource-backto-instance_profile" style="stroke:#FFAF37;stroke-width:2.0;"/><polygon fill="none" points="128,303.26,135,283.26,142,303.26,128,303.26" style="stroke:#FFAF37;stroke-width:2.0;"/><!--MD5=[b63007c0f463eb89caefe16cbf04eb1b]
@startuml
hide empty members
skinparam ArrowColor #ffaf37
skinparam ArrowThickness 2
skinparam BackgroundColor transparent
skinparam ClassAttributeFontColor #ffe797
skinparam ClassBackgroundColor #194875
skinparam ClassBorderColor Black
skinparam ClassFontColor #ffe797
skinparam ClassFontName Helvetica
skinparam ClassFontSize 17
skinparam Padding 5
skinparam RoundCorner 5
skinparam Shadowing false
skinparam stereotypeCBackgroundColor #1a83af
skinparam stereotypeIBackgroundColor #1a83af

class resource {
**id**: string
**tags**: dictionary[string, string]
**name**: string
**ctime**: datetime
**age**: trafo.duration_to_datetime
**mtime**: datetime
**last_update**: trafo.duration_to_datetime
**atime**: datetime
**last_access**: trafo.duration_to_datetime
**kind**: string
}
class aws_resource {
**arn**: string
}
class aws_iam_instance_profile {

}
class instance_profile {

}
aws_resource <|- - - aws_iam_instance_profile
instance_profile <|- - - aws_iam_instance_profile
resource <|- - - instance_profile
@enduml

PlantUML version 1.2021.16(Wed Dec 08 17:25:22 UTC 2021)
(GPL source distribution)
Java Runtime: OpenJDK Runtime Environment
JVM: OpenJDK 64-Bit Server VM
Default Encoding: UTF-8
Language: en
Country: null
--></g></svg>