<svg xmlns="http://www.w3.org/2000/svg" xmlns:xlink="http://www.w3.org/1999/xlink" width="404" height="586" contentScriptType="application/ecmascript" contentStyleType="text/css" style="width:404px;height:586px;background:#00000000" preserveAspectRatio="none" version="1.1" viewBox="0 0 404 586" zoomAndPan="magnify"><defs><filter id="f967opw0evb0u" width="300%" height="300%" x="-1" y="-1"><feGaussianBlur result="blurOut" stdDeviation="2"/><feColorMatrix in="blurOut" result="blurOut2" type="matrix" values="0 0 0 0 0 0 0 0 0 0 0 0 0 0 0 0 0 0 .4 0"/><feOffset dx="4" dy="4" in="blurOut2" result="blurOut3"/><feBlend in="SourceGraphic" in2="blurOut3" mode="normal"/></filter></defs><g><rect id="resource" width="252" height="176.047" x="7" y="7" fill="#FEFECE" codeLine="2" filter="url(#f967opw0evb0u)" style="stroke:#a80036;stroke-width:1.5"/><ellipse cx="100.75" cy="23" fill="#ADD1B2" rx="11" ry="11" style="stroke:#a80036;stroke-width:1"/><path fill="#000" d="M103.7188,28.6406 Q103.1406,28.9375 102.5,29.0781 Q101.8594,29.2344 101.1563,29.2344 Q98.6563,29.2344 97.3281,27.5938 Q96.0156,25.9375 96.0156,22.8125 Q96.0156,19.6875 97.3281,18.0313 Q98.6563,16.375 101.1563,16.375 Q101.8594,16.375 102.5,16.5313 Q103.1563,16.6875 103.7188,16.9844 L103.7188,19.7031 Q103.0938,19.125 102.5,18.8594 Q101.9063,18.5781 101.2813,18.5781 Q99.9375,18.5781 99.25,19.6563 Q98.5625,20.7188 98.5625,22.8125 Q98.5625,24.9063 99.25,25.9844 Q99.9375,27.0469 101.2813,27.0469 Q101.9063,27.0469 102.5,26.7813 Q103.0938,26.5 103.7188,25.9219 L103.7188,28.6406 Z"/><text x="121.25" y="27.154" fill="#000" font-family="sans-serif" font-size="12" lengthAdjust="spacing" textLength="56">resource</text><line style="stroke:#a80036;stroke-width:1.5" x1="8" x2="258" y1="39" y2="39"/><ellipse cx="18" cy="50" rx="3" ry="3" style="stroke:#038048;stroke-width:1;fill:none"/><text x="27" y="53.21" fill="#000" font-family="sans-serif" font-size="11" lengthAdjust="spacing" textLength="51">id: string</text><ellipse cx="18" cy="62.805" rx="3" ry="3" style="stroke:#038048;stroke-width:1;fill:none"/><text x="27" y="66.015" fill="#000" font-family="sans-serif" font-size="11" lengthAdjust="spacing" textLength="170">tags: dictionary[string, string]</text><ellipse cx="18" cy="75.609" rx="3" ry="3" style="stroke:#038048;stroke-width:1;fill:none"/><text x="27" y="78.82" fill="#000" font-family="sans-serif" font-size="11" lengthAdjust="spacing" textLength="73">name: string</text><ellipse cx="18" cy="88.414" rx="3" ry="3" style="stroke:#038048;stroke-width:1;fill:none"/><text x="27" y="91.624" fill="#000" font-family="sans-serif" font-size="11" lengthAdjust="spacing" textLength="89">ctime: datetime</text><ellipse cx="18" cy="101.219" rx="3" ry="3" style="stroke:#038048;stroke-width:1;fill:none"/><text x="27" y="104.429" fill="#000" font-family="sans-serif" font-size="11" lengthAdjust="spacing" textLength="180">age: trafo.duration_to_datetime</text><ellipse cx="18" cy="114.023" rx="3" ry="3" style="stroke:#038048;stroke-width:1;fill:none"/><text x="27" y="117.234" fill="#000" font-family="sans-serif" font-size="11" lengthAdjust="spacing" textLength="94">mtime: datetime</text><ellipse cx="18" cy="126.828" rx="3" ry="3" style="stroke:#038048;stroke-width:1;fill:none"/><text x="27" y="130.039" fill="#000" font-family="sans-serif" font-size="11" lengthAdjust="spacing" textLength="225">last_update: trafo.duration_to_datetime</text><ellipse cx="18" cy="139.633" rx="3" ry="3" style="stroke:#038048;stroke-width:1;fill:none"/><text x="27" y="142.843" fill="#000" font-family="sans-serif" font-size="11" lengthAdjust="spacing" textLength="90">atime: datetime</text><ellipse cx="18" cy="152.438" rx="3" ry="3" style="stroke:#038048;stroke-width:1;fill:none"/><text x="27" y="155.648" fill="#000" font-family="sans-serif" font-size="11" lengthAdjust="spacing" textLength="226">last_access: trafo.duration_to_datetime</text><ellipse cx="18" cy="165.242" rx="3" ry="3" style="stroke:#038048;stroke-width:1;fill:none"/><text x="27" y="168.453" fill="#000" font-family="sans-serif" font-size="11" lengthAdjust="spacing" textLength="64">kind: string</text><line style="stroke:#a80036;stroke-width:1.5" x1="8" x2="258" y1="175.047" y2="175.047"/><rect id="aws_resource" width="118" height="60.805" x="255" y="304" fill="#FEFECE" codeLine="14" filter="url(#f967opw0evb0u)" style="stroke:#a80036;stroke-width:1.5"/><ellipse cx="270" cy="320" fill="#ADD1B2" rx="11" ry="11" style="stroke:#a80036;stroke-width:1"/><path fill="#000" d="M272.9688,325.6406 Q272.3906,325.9375 271.75,326.0781 Q271.1094,326.2344 270.4063,326.2344 Q267.9063,326.2344 266.5781,324.5938 Q265.2656,322.9375 265.2656,319.8125 Q265.2656,316.6875 266.5781,315.0313 Q267.9063,313.375 270.4063,313.375 Q271.1094,313.375 271.75,313.5313 Q272.4063,313.6875 272.9688,313.9844 L272.9688,316.7031 Q272.3438,316.125 271.75,315.8594 Q271.1563,315.5781 270.5313,315.5781 Q269.1875,315.5781 268.5,316.6563 Q267.8125,317.7188 267.8125,319.8125 Q267.8125,321.9063 268.5,322.9844 Q269.1875,324.0469 270.5313,324.0469 Q271.1563,324.0469 271.75,323.7813 Q272.3438,323.5 272.9688,322.9219 L272.9688,325.6406 Z"/><text x="284" y="324.154" fill="#000" font-family="sans-serif" font-size="12" lengthAdjust="spacing" textLength="86">aws_resource</text><line style="stroke:#a80036;stroke-width:1.5" x1="256" x2="372" y1="336" y2="336"/><ellipse cx="266" cy="347" rx="3" ry="3" style="stroke:#038048;stroke-width:1;fill:none"/><text x="275" y="350.21" fill="#000" font-family="sans-serif" font-size="11" lengthAdjust="spacing" textLength="60">arn: string</text><line style="stroke:#a80036;stroke-width:1.5" x1="256" x2="372" y1="356.805" y2="356.805"/><rect id="access_key" width="174" height="60.805" x="46" y="304" fill="#FEFECE" codeLine="17" filter="url(#f967opw0evb0u)" style="stroke:#a80036;stroke-width:1.5"/><ellipse cx="93.25" cy="320" fill="#ADD1B2" rx="11" ry="11" style="stroke:#a80036;stroke-width:1"/><path fill="#000" d="M96.2188,325.6406 Q95.6406,325.9375 95,326.0781 Q94.3594,326.2344 93.6563,326.2344 Q91.1563,326.2344 89.8281,324.5938 Q88.5156,322.9375 88.5156,319.8125 Q88.5156,316.6875 89.8281,315.0313 Q91.1563,313.375 93.6563,313.375 Q94.3594,313.375 95,313.5313 Q95.6563,313.6875 96.2188,313.9844 L96.2188,316.7031 Q95.5938,316.125 95,315.8594 Q94.4063,315.5781 93.7813,315.5781 Q92.4375,315.5781 91.75,316.6563 Q91.0625,317.7188 91.0625,319.8125 Q91.0625,321.9063 91.75,322.9844 Q92.4375,324.0469 93.7813,324.0469 Q94.4063,324.0469 95,323.7813 Q95.5938,323.5 96.2188,322.9219 L96.2188,325.6406 Z"/><text x="113.75" y="324.154" fill="#000" font-family="sans-serif" font-size="12" lengthAdjust="spacing" textLength="71">access_key</text><line style="stroke:#a80036;stroke-width:1.5" x1="47" x2="219" y1="336" y2="336"/><ellipse cx="57" cy="347" rx="3" ry="3" style="stroke:#038048;stroke-width:1;fill:none"/><text x="66" y="350.21" fill="#000" font-family="sans-serif" font-size="11" lengthAdjust="spacing" textLength="148">access_key_status: string</text><line style="stroke:#a80036;stroke-width:1.5" x1="47" x2="219" y1="356.805" y2="356.805"/><rect id="aws_iam_access_key" width="278" height="86.414" x="112" y="486" fill="#FEFECE" codeLine="20" filter="url(#f967opw0evb0u)" style="stroke:#a80036;stroke-width:1.5"/><ellipse cx="182.25" cy="502" fill="#ADD1B2" rx="11" ry="11" style="stroke:#a80036;stroke-width:1"/><path fill="#000" d="M185.2188,507.6406 Q184.6406,507.9375 184,508.0781 Q183.3594,508.2344 182.6563,508.2344 Q180.1563,508.2344 178.8281,506.5938 Q177.5156,504.9375 177.5156,501.8125 Q177.5156,498.6875 178.8281,497.0313 Q180.1563,495.375 182.6563,495.375 Q183.3594,495.375 184,495.5313 Q184.6563,495.6875 185.2188,495.9844 L185.2188,498.7031 Q184.5938,498.125 184,497.8594 Q183.4063,497.5781 182.7813,497.5781 Q181.4375,497.5781 180.75,498.6563 Q180.0625,499.7188 180.0625,501.8125 Q180.0625,503.9063 180.75,504.9844 Q181.4375,506.0469 182.7813,506.0469 Q183.4063,506.0469 184,505.7813 Q184.5938,505.5 185.2188,504.9219 L185.2188,507.6406 Z"/><text x="202.75" y="506.154" fill="#000" font-family="sans-serif" font-size="12" lengthAdjust="spacing" textLength="129">aws_iam_access_key</text><line style="stroke:#a80036;stroke-width:1.5" x1="113" x2="389" y1="518" y2="518"/><ellipse cx="123" cy="529" rx="3" ry="3" style="stroke:#038048;stroke-width:1;fill:none"/><text x="132" y="532.21" fill="#000" font-family="sans-serif" font-size="11" lengthAdjust="spacing" textLength="105">user_name: string</text><ellipse cx="123" cy="541.805" rx="3" ry="3" style="stroke:#038048;stroke-width:1;fill:none"/><text x="132" y="545.015" fill="#000" font-family="sans-serif" font-size="11" lengthAdjust="spacing" textLength="209">access_key_last_used_region: string</text><ellipse cx="123" cy="554.609" rx="3" ry="3" style="stroke:#038048;stroke-width:1;fill:none"/><text x="132" y="557.82" fill="#000" font-family="sans-serif" font-size="11" lengthAdjust="spacing" textLength="252">access_key_last_used_service_name: string</text><line style="stroke:#a80036;stroke-width:1.5" x1="113" x2="389" y1="564.414" y2="564.414"/><path id="resource-backto-access_key" fill="none" d="M133,203.28 C133,240.06 133,278.33 133,303.78" codeLine="25" style="stroke:#a80036;stroke-width:1"/><polygon fill="none" points="126 203.09 133 183.09 140 203.09 126 203.09" style="stroke:#a80036;stroke-width:1"/><path id="aws_resource-backto-aws_iam_access_key" fill="none" d="M298.05,384.25 C287.79,415.57 274.61,455.85 264.81,485.8" codeLine="26" style="stroke:#a80036;stroke-width:1"/><polygon fill="none" points="291.42 381.99 304.29 365.16 304.73 386.34 291.42 381.99" style="stroke:#a80036;stroke-width:1"/><path id="access_key-backto-aws_iam_access_key" fill="none" d="M161.79,382.47 C181.14,414.03 206.42,455.28 225.13,485.8" codeLine="27" style="stroke:#a80036;stroke-width:1"/><polygon fill="none" points="155.66 385.87 151.18 365.16 167.6 378.55 155.66 385.87" style="stroke:#a80036;stroke-width:1"/></g></svg>