<?xml version="1.0" encoding="UTF-8" standalone="no"?><svg xmlns="http://www.w3.org/2000/svg" xmlns:xlink="http://www.w3.org/1999/xlink" contentScriptType="application/ecmascript" contentStyleType="text/css" height="924px" preserveAspectRatio="none" style="width:391px;height:924px;background:#00000000;" version="1.1" viewBox="0 0 391 924" width="391px" zoomAndPan="magnify"><defs><filter height="300%" id="f1s433pjuaozeg" width="300%" x="-1" y="-1"><feGaussianBlur result="blurOut" stdDeviation="2.0"/><feColorMatrix in="blurOut" result="blurOut2" type="matrix" values="0 0 0 0 0 0 0 0 0 0 0 0 0 0 0 0 0 0 .4 0"/><feOffset dx="4.0" dy="4.0" in="blurOut2" result="blurOut3"/><feBlend in="SourceGraphic" in2="blurOut3" mode="normal"/></filter></defs><g><!--MD5=[156df1ec125634b672185ad659f2920c]
class phantom_resource--><rect codeLine="2" fill="#FEFECE" filter="url(#f1s433pjuaozeg)" height="48" id="phantom_resource" style="stroke:#A80036;stroke-width:1.5;" width="150" x="176" y="304"/><ellipse cx="191" cy="320" fill="#ADD1B2" rx="11" ry="11" style="stroke:#A80036;stroke-width:1.0;"/><path d="M193.9688,325.6406 Q193.3906,325.9375 192.75,326.0781 Q192.1094,326.2344 191.4063,326.2344 Q188.9063,326.2344 187.5781,324.5938 Q186.2656,322.9375 186.2656,319.8125 Q186.2656,316.6875 187.5781,315.0313 Q188.9063,313.375 191.4063,313.375 Q192.1094,313.375 192.75,313.5313 Q193.4063,313.6875 193.9688,313.9844 L193.9688,316.7031 Q193.3438,316.125 192.75,315.8594 Q192.1563,315.5781 191.5313,315.5781 Q190.1875,315.5781 189.5,316.6563 Q188.8125,317.7188 188.8125,319.8125 Q188.8125,321.9063 189.5,322.9844 Q190.1875,324.0469 191.5313,324.0469 Q192.1563,324.0469 192.75,323.7813 Q193.3438,323.5 193.9688,322.9219 L193.9688,325.6406 Z " fill="#000000"/><text fill="#000000" font-family="sans-serif" font-size="12" lengthAdjust="spacing" textLength="118" x="205" y="324.1543">phantom_resource</text><line style="stroke:#A80036;stroke-width:1.5;" x1="177" x2="325" y1="336" y2="336"/><line style="stroke:#A80036;stroke-width:1.5;" x1="177" x2="325" y1="344" y2="344"/><!--MD5=[7f0ecf5f554433d3f2e1213379ac821c]
class resource--><rect codeLine="5" fill="#FEFECE" filter="url(#f1s433pjuaozeg)" height="176.0469" id="resource" style="stroke:#A80036;stroke-width:1.5;" width="252" x="125" y="7"/><ellipse cx="218.75" cy="23" fill="#ADD1B2" rx="11" ry="11" style="stroke:#A80036;stroke-width:1.0;"/><path d="M221.7188,28.6406 Q221.1406,28.9375 220.5,29.0781 Q219.8594,29.2344 219.1563,29.2344 Q216.6563,29.2344 215.3281,27.5938 Q214.0156,25.9375 214.0156,22.8125 Q214.0156,19.6875 215.3281,18.0313 Q216.6563,16.375 219.1563,16.375 Q219.8594,16.375 220.5,16.5313 Q221.1563,16.6875 221.7188,16.9844 L221.7188,19.7031 Q221.0938,19.125 220.5,18.8594 Q219.9063,18.5781 219.2813,18.5781 Q217.9375,18.5781 217.25,19.6563 Q216.5625,20.7188 216.5625,22.8125 Q216.5625,24.9063 217.25,25.9844 Q217.9375,27.0469 219.2813,27.0469 Q219.9063,27.0469 220.5,26.7813 Q221.0938,26.5 221.7188,25.9219 L221.7188,28.6406 Z " fill="#000000"/><text fill="#000000" font-family="sans-serif" font-size="12" lengthAdjust="spacing" textLength="56" x="239.25" y="27.1543">resource</text><line style="stroke:#A80036;stroke-width:1.5;" x1="126" x2="376" y1="39" y2="39"/><ellipse cx="136" cy="50" rx="3" ry="3" style="stroke:#038048;stroke-width:1.0;fill:none;"/><text fill="#000000" font-family="sans-serif" font-size="11" lengthAdjust="spacing" textLength="51" x="145" y="53.2104">id: string</text><ellipse cx="136" cy="62.8047" rx="3" ry="3" style="stroke:#038048;stroke-width:1.0;fill:none;"/><text fill="#000000" font-family="sans-serif" font-size="11" lengthAdjust="spacing" textLength="170" x="145" y="66.0151">tags: dictionary[string, string]</text><ellipse cx="136" cy="75.6094" rx="3" ry="3" style="stroke:#038048;stroke-width:1.0;fill:none;"/><text fill="#000000" font-family="sans-serif" font-size="11" lengthAdjust="spacing" textLength="73" x="145" y="78.8198">name: string</text><ellipse cx="136" cy="88.4141" rx="3" ry="3" style="stroke:#038048;stroke-width:1.0;fill:none;"/><text fill="#000000" font-family="sans-serif" font-size="11" lengthAdjust="spacing" textLength="89" x="145" y="91.6245">ctime: datetime</text><ellipse cx="136" cy="101.2188" rx="3" ry="3" style="stroke:#038048;stroke-width:1.0;fill:none;"/><text fill="#000000" font-family="sans-serif" font-size="11" lengthAdjust="spacing" textLength="180" x="145" y="104.4292">age: trafo.duration_to_datetime</text><ellipse cx="136" cy="114.0234" rx="3" ry="3" style="stroke:#038048;stroke-width:1.0;fill:none;"/><text fill="#000000" font-family="sans-serif" font-size="11" lengthAdjust="spacing" textLength="94" x="145" y="117.2339">mtime: datetime</text><ellipse cx="136" cy="126.8281" rx="3" ry="3" style="stroke:#038048;stroke-width:1.0;fill:none;"/><text fill="#000000" font-family="sans-serif" font-size="11" lengthAdjust="spacing" textLength="225" x="145" y="130.0386">last_update: trafo.duration_to_datetime</text><ellipse cx="136" cy="139.6328" rx="3" ry="3" style="stroke:#038048;stroke-width:1.0;fill:none;"/><text fill="#000000" font-family="sans-serif" font-size="11" lengthAdjust="spacing" textLength="90" x="145" y="142.8433">atime: datetime</text><ellipse cx="136" cy="152.4375" rx="3" ry="3" style="stroke:#038048;stroke-width:1.0;fill:none;"/><text fill="#000000" font-family="sans-serif" font-size="11" lengthAdjust="spacing" textLength="226" x="145" y="155.6479">last_access: trafo.duration_to_datetime</text><ellipse cx="136" cy="165.2422" rx="3" ry="3" style="stroke:#038048;stroke-width:1.0;fill:none;"/><text fill="#000000" font-family="sans-serif" font-size="11" lengthAdjust="spacing" textLength="64" x="145" y="168.4526">kind: string</text><line style="stroke:#A80036;stroke-width:1.5;" x1="126" x2="376" y1="175.0469" y2="175.0469"/><!--MD5=[c069b88079f3e36515859a1683f3923c]
class aws_resource--><rect codeLine="17" fill="#FEFECE" filter="url(#f1s433pjuaozeg)" height="60.8047" id="aws_resource" style="stroke:#A80036;stroke-width:1.5;" width="118" x="34" y="680"/><ellipse cx="49" cy="696" fill="#ADD1B2" rx="11" ry="11" style="stroke:#A80036;stroke-width:1.0;"/><path d="M51.9688,701.6406 Q51.3906,701.9375 50.75,702.0781 Q50.1094,702.2344 49.4063,702.2344 Q46.9063,702.2344 45.5781,700.5938 Q44.2656,698.9375 44.2656,695.8125 Q44.2656,692.6875 45.5781,691.0313 Q46.9063,689.375 49.4063,689.375 Q50.1094,689.375 50.75,689.5313 Q51.4063,689.6875 51.9688,689.9844 L51.9688,692.7031 Q51.3438,692.125 50.75,691.8594 Q50.1563,691.5781 49.5313,691.5781 Q48.1875,691.5781 47.5,692.6563 Q46.8125,693.7188 46.8125,695.8125 Q46.8125,697.9063 47.5,698.9844 Q48.1875,700.0469 49.5313,700.0469 Q50.1563,700.0469 50.75,699.7813 Q51.3438,699.5 51.9688,698.9219 L51.9688,701.6406 Z " fill="#000000"/><text fill="#000000" font-family="sans-serif" font-size="12" lengthAdjust="spacing" textLength="86" x="63" y="700.1543">aws_resource</text><line style="stroke:#A80036;stroke-width:1.5;" x1="35" x2="151" y1="712" y2="712"/><ellipse cx="45" cy="723" rx="3" ry="3" style="stroke:#038048;stroke-width:1.0;fill:none;"/><text fill="#000000" font-family="sans-serif" font-size="11" lengthAdjust="spacing" textLength="60" x="54" y="726.2104">arn: string</text><line style="stroke:#A80036;stroke-width:1.5;" x1="35" x2="151" y1="732.8047" y2="732.8047"/><!--MD5=[205bc3e74ea7d385e2b6aa1bb29a5024]
class quota--><rect codeLine="20" fill="#FEFECE" filter="url(#f1s433pjuaozeg)" height="86.4141" id="quota" style="stroke:#A80036;stroke-width:1.5;" width="129" x="186.5" y="473"/><ellipse cx="228.5" cy="489" fill="#ADD1B2" rx="11" ry="11" style="stroke:#A80036;stroke-width:1.0;"/><path d="M231.4688,494.6406 Q230.8906,494.9375 230.25,495.0781 Q229.6094,495.2344 228.9063,495.2344 Q226.4063,495.2344 225.0781,493.5938 Q223.7656,491.9375 223.7656,488.8125 Q223.7656,485.6875 225.0781,484.0313 Q226.4063,482.375 228.9063,482.375 Q229.6094,482.375 230.25,482.5313 Q230.9063,482.6875 231.4688,482.9844 L231.4688,485.7031 Q230.8438,485.125 230.25,484.8594 Q229.6563,484.5781 229.0313,484.5781 Q227.6875,484.5781 227,485.6563 Q226.3125,486.7188 226.3125,488.8125 Q226.3125,490.9063 227,491.9844 Q227.6875,493.0469 229.0313,493.0469 Q229.6563,493.0469 230.25,492.7813 Q230.8438,492.5 231.4688,491.9219 L231.4688,494.6406 Z " fill="#000000"/><text fill="#000000" font-family="sans-serif" font-size="12" lengthAdjust="spacing" textLength="37" x="248.5" y="493.1543">quota</text><line style="stroke:#A80036;stroke-width:1.5;" x1="187.5" x2="314.5" y1="505" y2="505"/><ellipse cx="197.5" cy="516" rx="3" ry="3" style="stroke:#038048;stroke-width:1.0;fill:none;"/><text fill="#000000" font-family="sans-serif" font-size="11" lengthAdjust="spacing" textLength="78" x="206.5" y="519.2104">quota: double</text><ellipse cx="197.5" cy="528.8047" rx="3" ry="3" style="stroke:#038048;stroke-width:1.0;fill:none;"/><text fill="#000000" font-family="sans-serif" font-size="11" lengthAdjust="spacing" textLength="81" x="206.5" y="532.0151">usage: double</text><ellipse cx="197.5" cy="541.6094" rx="3" ry="3" style="stroke:#038048;stroke-width:1.0;fill:none;"/><text fill="#000000" font-family="sans-serif" font-size="11" lengthAdjust="spacing" textLength="103" x="206.5" y="544.8198">quota_type: string</text><line style="stroke:#A80036;stroke-width:1.5;" x1="187.5" x2="314.5" y1="551.4141" y2="551.4141"/><!--MD5=[a48046ba9f2fe7bcd9d7d922a5b7e24b]
class aws_ec2_internet_gateway_quota--><rect codeLine="25" fill="#FEFECE" filter="url(#f1s433pjuaozeg)" height="48" id="aws_ec2_internet_gateway_quota" style="stroke:#A80036;stroke-width:1.5;" width="242" x="7" y="862"/><ellipse cx="22" cy="878" fill="#ADD1B2" rx="11" ry="11" style="stroke:#A80036;stroke-width:1.0;"/><path d="M24.9688,883.6406 Q24.3906,883.9375 23.75,884.0781 Q23.1094,884.2344 22.4063,884.2344 Q19.9063,884.2344 18.5781,882.5938 Q17.2656,880.9375 17.2656,877.8125 Q17.2656,874.6875 18.5781,873.0313 Q19.9063,871.375 22.4063,871.375 Q23.1094,871.375 23.75,871.5313 Q24.4063,871.6875 24.9688,871.9844 L24.9688,874.7031 Q24.3438,874.125 23.75,873.8594 Q23.1563,873.5781 22.5313,873.5781 Q21.1875,873.5781 20.5,874.6563 Q19.8125,875.7188 19.8125,877.8125 Q19.8125,879.9063 20.5,880.9844 Q21.1875,882.0469 22.5313,882.0469 Q23.1563,882.0469 23.75,881.7813 Q24.3438,881.5 24.9688,880.9219 L24.9688,883.6406 Z " fill="#000000"/><text fill="#000000" font-family="sans-serif" font-size="12" lengthAdjust="spacing" textLength="210" x="36" y="882.1543">aws_ec2_internet_gateway_quota</text><line style="stroke:#A80036;stroke-width:1.5;" x1="8" x2="248" y1="894" y2="894"/><line style="stroke:#A80036;stroke-width:1.5;" x1="8" x2="248" y1="902" y2="902"/><!--MD5=[3107a7fb4084887497fde5fae5a9255c]
class gateway_quota--><rect codeLine="28" fill="#FEFECE" filter="url(#f1s433pjuaozeg)" height="48" id="gateway_quota" style="stroke:#A80036;stroke-width:1.5;" width="127" x="187.5" y="686.5"/><ellipse cx="202.5" cy="702.5" fill="#ADD1B2" rx="11" ry="11" style="stroke:#A80036;stroke-width:1.0;"/><path d="M205.4688,708.1406 Q204.8906,708.4375 204.25,708.5781 Q203.6094,708.7344 202.9063,708.7344 Q200.4063,708.7344 199.0781,707.0938 Q197.7656,705.4375 197.7656,702.3125 Q197.7656,699.1875 199.0781,697.5313 Q200.4063,695.875 202.9063,695.875 Q203.6094,695.875 204.25,696.0313 Q204.9063,696.1875 205.4688,696.4844 L205.4688,699.2031 Q204.8438,698.625 204.25,698.3594 Q203.6563,698.0781 203.0313,698.0781 Q201.6875,698.0781 201,699.1563 Q200.3125,700.2188 200.3125,702.3125 Q200.3125,704.4063 201,705.4844 Q201.6875,706.5469 203.0313,706.5469 Q203.6563,706.5469 204.25,706.2813 Q204.8438,706 205.4688,705.4219 L205.4688,708.1406 Z " fill="#000000"/><text fill="#000000" font-family="sans-serif" font-size="12" lengthAdjust="spacing" textLength="95" x="216.5" y="706.6543">gateway_quota</text><line style="stroke:#A80036;stroke-width:1.5;" x1="188.5" x2="313.5" y1="718.5" y2="718.5"/><line style="stroke:#A80036;stroke-width:1.5;" x1="188.5" x2="313.5" y1="726.5" y2="726.5"/><!--MD5=[e134558fd6f7e839ecb28ecbda576c0a]
reverse link resource to phantom_resource--><path codeLine="31" d="M251,203.18 C251,241 251,280.01 251,303.89 " fill="none" id="resource-backto-phantom_resource" style="stroke:#A80036;stroke-width:1.0;"/><polygon fill="none" points="244,203,251,183,258,203,244,203" style="stroke:#A80036;stroke-width:1.0;"/><!--MD5=[8c556d10106c40540c768b31155cb09d]
reverse link phantom_resource to quota--><path codeLine="32" d="M251,372.6 C251,402.8 251,442.79 251,472.7 " fill="none" id="phantom_resource-backto-quota" style="stroke:#A80036;stroke-width:1.0;"/><polygon fill="none" points="244,372.18,251,352.18,258,372.18,244,372.18" style="stroke:#A80036;stroke-width:1.0;"/><!--MD5=[0fdb2eb05eb2bda254465a3a05e902f9]
reverse link aws_resource to aws_ec2_internet_gateway_quota--><path codeLine="33" d="M103,761.07 C109.69,794.23 118.18,836.32 123.35,861.93 " fill="none" id="aws_resource-backto-aws_ec2_internet_gateway_quota" style="stroke:#A80036;stroke-width:1.0;"/><polygon fill="none" points="96.11,762.32,99.02,741.33,109.83,759.55,96.11,762.32" style="stroke:#A80036;stroke-width:1.0;"/><!--MD5=[a3c4e220864bcd6da8fe68e71bfc5d54]
reverse link gateway_quota to aws_ec2_internet_gateway_quota--><path codeLine="34" d="M223.02,750.97 C198.76,785.2 164.47,833.56 144.4,861.87 " fill="none" id="gateway_quota-backto-aws_ec2_internet_gateway_quota" style="stroke:#A80036;stroke-width:1.0;"/><polygon fill="none" points="217.39,746.81,234.67,734.54,228.81,754.9,217.39,746.81" style="stroke:#A80036;stroke-width:1.0;"/><!--MD5=[e41fd0073bf4cfe315587136da3212b3]
reverse link quota to gateway_quota--><path codeLine="35" d="M251,579.45 C251,616.01 251,660.02 251,686.33 " fill="none" id="quota-backto-gateway_quota" style="stroke:#A80036;stroke-width:1.0;"/><polygon fill="none" points="244,579.24,251,559.24,258,579.24,244,579.24" style="stroke:#A80036;stroke-width:1.0;"/><!--MD5=[7096012d91361a482b07325c22b891b0]
@startuml
skinparam backgroundcolor transparent
class phantom_resource {

}
class resource {
+ id: string
+ tags: dictionary[string, string]
+ name: string
+ ctime: datetime
+ age: trafo.duration_to_datetime
+ mtime: datetime
+ last_update: trafo.duration_to_datetime
+ atime: datetime
+ last_access: trafo.duration_to_datetime
+ kind: string
}
class aws_resource {
+ arn: string
}
class quota {
+ quota: double
+ usage: double
+ quota_type: string
}
class aws_ec2_internet_gateway_quota {

}
class gateway_quota {

}
resource <|- - - phantom_resource
phantom_resource <|- - - quota
aws_resource <|- - - aws_ec2_internet_gateway_quota
gateway_quota <|- - - aws_ec2_internet_gateway_quota
quota <|- - - gateway_quota
@enduml

PlantUML version 1.2021.16(Wed Dec 08 17:25:22 UTC 2021)
(GPL source distribution)
Java Runtime: OpenJDK Runtime Environment
JVM: OpenJDK 64-Bit Server VM
Default Encoding: UTF-8
Language: en
Country: null
--></g></svg>