<svg xmlns="http://www.w3.org/2000/svg" xmlns:xlink="http://www.w3.org/1999/xlink" width="330" height="560" contentScriptType="application/ecmascript" contentStyleType="text/css" style="width:330px;height:560px;background:#00000000" preserveAspectRatio="none" version="1.1" viewBox="0 0 330 560" zoomAndPan="magnify"><defs><filter id="fat3sfg000kds" width="300%" height="300%" x="-1" y="-1"><feGaussianBlur result="blurOut" stdDeviation="2"/><feColorMatrix in="blurOut" result="blurOut2" type="matrix" values="0 0 0 0 0 0 0 0 0 0 0 0 0 0 0 0 0 0 .4 0"/><feOffset dx="4" dy="4" in="blurOut2" result="blurOut3"/><feBlend in="SourceGraphic" in2="blurOut3" mode="normal"/></filter></defs><g><rect id="resource" width="252" height="176.047" x="7" y="7" fill="#FEFECE" codeLine="2" filter="url(#fat3sfg000kds)" style="stroke:#a80036;stroke-width:1.5"/><ellipse cx="100.75" cy="23" fill="#ADD1B2" rx="11" ry="11" style="stroke:#a80036;stroke-width:1"/><path fill="#000" d="M103.7188,28.6406 Q103.1406,28.9375 102.5,29.0781 Q101.8594,29.2344 101.1563,29.2344 Q98.6563,29.2344 97.3281,27.5938 Q96.0156,25.9375 96.0156,22.8125 Q96.0156,19.6875 97.3281,18.0313 Q98.6563,16.375 101.1563,16.375 Q101.8594,16.375 102.5,16.5313 Q103.1563,16.6875 103.7188,16.9844 L103.7188,19.7031 Q103.0938,19.125 102.5,18.8594 Q101.9063,18.5781 101.2813,18.5781 Q99.9375,18.5781 99.25,19.6563 Q98.5625,20.7188 98.5625,22.8125 Q98.5625,24.9063 99.25,25.9844 Q99.9375,27.0469 101.2813,27.0469 Q101.9063,27.0469 102.5,26.7813 Q103.0938,26.5 103.7188,25.9219 L103.7188,28.6406 Z"/><text x="121.25" y="27.154" fill="#000" font-family="sans-serif" font-size="12" lengthAdjust="spacing" textLength="56">resource</text><line style="stroke:#a80036;stroke-width:1.5" x1="8" x2="258" y1="39" y2="39"/><ellipse cx="18" cy="50" rx="3" ry="3" style="stroke:#038048;stroke-width:1;fill:none"/><text x="27" y="53.21" fill="#000" font-family="sans-serif" font-size="11" lengthAdjust="spacing" textLength="51">id: string</text><ellipse cx="18" cy="62.805" rx="3" ry="3" style="stroke:#038048;stroke-width:1;fill:none"/><text x="27" y="66.015" fill="#000" font-family="sans-serif" font-size="11" lengthAdjust="spacing" textLength="170">tags: dictionary[string, string]</text><ellipse cx="18" cy="75.609" rx="3" ry="3" style="stroke:#038048;stroke-width:1;fill:none"/><text x="27" y="78.82" fill="#000" font-family="sans-serif" font-size="11" lengthAdjust="spacing" textLength="73">name: string</text><ellipse cx="18" cy="88.414" rx="3" ry="3" style="stroke:#038048;stroke-width:1;fill:none"/><text x="27" y="91.624" fill="#000" font-family="sans-serif" font-size="11" lengthAdjust="spacing" textLength="89">ctime: datetime</text><ellipse cx="18" cy="101.219" rx="3" ry="3" style="stroke:#038048;stroke-width:1;fill:none"/><text x="27" y="104.429" fill="#000" font-family="sans-serif" font-size="11" lengthAdjust="spacing" textLength="180">age: trafo.duration_to_datetime</text><ellipse cx="18" cy="114.023" rx="3" ry="3" style="stroke:#038048;stroke-width:1;fill:none"/><text x="27" y="117.234" fill="#000" font-family="sans-serif" font-size="11" lengthAdjust="spacing" textLength="94">mtime: datetime</text><ellipse cx="18" cy="126.828" rx="3" ry="3" style="stroke:#038048;stroke-width:1;fill:none"/><text x="27" y="130.039" fill="#000" font-family="sans-serif" font-size="11" lengthAdjust="spacing" textLength="225">last_update: trafo.duration_to_datetime</text><ellipse cx="18" cy="139.633" rx="3" ry="3" style="stroke:#038048;stroke-width:1;fill:none"/><text x="27" y="142.843" fill="#000" font-family="sans-serif" font-size="11" lengthAdjust="spacing" textLength="90">atime: datetime</text><ellipse cx="18" cy="152.438" rx="3" ry="3" style="stroke:#038048;stroke-width:1;fill:none"/><text x="27" y="155.648" fill="#000" font-family="sans-serif" font-size="11" lengthAdjust="spacing" textLength="226">last_access: trafo.duration_to_datetime</text><ellipse cx="18" cy="165.242" rx="3" ry="3" style="stroke:#038048;stroke-width:1;fill:none"/><text x="27" y="168.453" fill="#000" font-family="sans-serif" font-size="11" lengthAdjust="spacing" textLength="64">kind: string</text><line style="stroke:#a80036;stroke-width:1.5" x1="8" x2="258" y1="175.047" y2="175.047"/><rect id="aws_resource" width="118" height="60.805" x="198" y="304" fill="#FEFECE" codeLine="14" filter="url(#fat3sfg000kds)" style="stroke:#a80036;stroke-width:1.5"/><ellipse cx="213" cy="320" fill="#ADD1B2" rx="11" ry="11" style="stroke:#a80036;stroke-width:1"/><path fill="#000" d="M215.9688,325.6406 Q215.3906,325.9375 214.75,326.0781 Q214.1094,326.2344 213.4063,326.2344 Q210.9063,326.2344 209.5781,324.5938 Q208.2656,322.9375 208.2656,319.8125 Q208.2656,316.6875 209.5781,315.0313 Q210.9063,313.375 213.4063,313.375 Q214.1094,313.375 214.75,313.5313 Q215.4063,313.6875 215.9688,313.9844 L215.9688,316.7031 Q215.3438,316.125 214.75,315.8594 Q214.1563,315.5781 213.5313,315.5781 Q212.1875,315.5781 211.5,316.6563 Q210.8125,317.7188 210.8125,319.8125 Q210.8125,321.9063 211.5,322.9844 Q212.1875,324.0469 213.5313,324.0469 Q214.1563,324.0469 214.75,323.7813 Q215.3438,323.5 215.9688,322.9219 L215.9688,325.6406 Z"/><text x="227" y="324.154" fill="#000" font-family="sans-serif" font-size="12" lengthAdjust="spacing" textLength="86">aws_resource</text><line style="stroke:#a80036;stroke-width:1.5" x1="199" x2="315" y1="336" y2="336"/><ellipse cx="209" cy="347" rx="3" ry="3" style="stroke:#038048;stroke-width:1;fill:none"/><text x="218" y="350.21" fill="#000" font-family="sans-serif" font-size="11" lengthAdjust="spacing" textLength="60">arn: string</text><line style="stroke:#a80036;stroke-width:1.5" x1="199" x2="315" y1="356.805" y2="356.805"/><rect id="user" width="60" height="48" x="103" y="310.5" fill="#FEFECE" codeLine="17" filter="url(#fat3sfg000kds)" style="stroke:#a80036;stroke-width:1.5"/><ellipse cx="118" cy="326.5" fill="#ADD1B2" rx="11" ry="11" style="stroke:#a80036;stroke-width:1"/><path fill="#000" d="M120.9688,332.1406 Q120.3906,332.4375 119.75,332.5781 Q119.1094,332.7344 118.4063,332.7344 Q115.9063,332.7344 114.5781,331.0938 Q113.2656,329.4375 113.2656,326.3125 Q113.2656,323.1875 114.5781,321.5313 Q115.9063,319.875 118.4063,319.875 Q119.1094,319.875 119.75,320.0313 Q120.4063,320.1875 120.9688,320.4844 L120.9688,323.2031 Q120.3438,322.625 119.75,322.3594 Q119.1563,322.0781 118.5313,322.0781 Q117.1875,322.0781 116.5,323.1563 Q115.8125,324.2188 115.8125,326.3125 Q115.8125,328.4063 116.5,329.4844 Q117.1875,330.5469 118.5313,330.5469 Q119.1563,330.5469 119.75,330.2813 Q120.3438,330 120.9688,329.4219 L120.9688,332.1406 Z"/><text x="132" y="330.654" fill="#000" font-family="sans-serif" font-size="12" lengthAdjust="spacing" textLength="28">user</text><line style="stroke:#a80036;stroke-width:1.5" x1="104" x2="162" y1="342.5" y2="342.5"/><line style="stroke:#a80036;stroke-width:1.5" x1="104" x2="162" y1="350.5" y2="350.5"/><rect id="aws_iam_user" width="137" height="60.805" x="139.5" y="486" fill="#FEFECE" codeLine="20" filter="url(#fat3sfg000kds)" style="stroke:#a80036;stroke-width:1.5"/><ellipse cx="163.05" cy="502" fill="#ADD1B2" rx="11" ry="11" style="stroke:#a80036;stroke-width:1"/><path fill="#000" d="M166.0188,507.6406 Q165.4406,507.9375 164.8,508.0781 Q164.1594,508.2344 163.4563,508.2344 Q160.9563,508.2344 159.6281,506.5938 Q158.3156,504.9375 158.3156,501.8125 Q158.3156,498.6875 159.6281,497.0313 Q160.9563,495.375 163.4563,495.375 Q164.1594,495.375 164.8,495.5313 Q165.4563,495.6875 166.0188,495.9844 L166.0188,498.7031 Q165.3938,498.125 164.8,497.8594 Q164.2063,497.5781 163.5813,497.5781 Q162.2375,497.5781 161.55,498.6563 Q160.8625,499.7188 160.8625,501.8125 Q160.8625,503.9063 161.55,504.9844 Q162.2375,506.0469 163.5813,506.0469 Q164.2063,506.0469 164.8,505.7813 Q165.3938,505.5 166.0188,504.9219 L166.0188,507.6406 Z"/><text x="178.95" y="506.154" fill="#000" font-family="sans-serif" font-size="12" lengthAdjust="spacing" textLength="86">aws_iam_user</text><line style="stroke:#a80036;stroke-width:1.5" x1="140.5" x2="275.5" y1="518" y2="518"/><ellipse cx="150.5" cy="529" rx="3" ry="3" style="stroke:#038048;stroke-width:1;fill:none"/><text x="159.5" y="532.21" fill="#000" font-family="sans-serif" font-size="11" lengthAdjust="spacing" textLength="111">user_policies: any[]</text><line style="stroke:#a80036;stroke-width:1.5" x1="140.5" x2="275.5" y1="538.805" y2="538.805"/><path id="resource-backto-user" fill="none" d="M133,203.16 C133,243.25 133,285.12 133,310.25" codeLine="23" style="stroke:#a80036;stroke-width:1"/><polygon fill="none" points="126 203.09 133 183.09 140 203.09 126 203.09" style="stroke:#a80036;stroke-width:1"/><path id="aws_resource-backto-aws_iam_user" fill="none" d="M243.54,384.94 C234.75,417.25 223.55,458.36 216.1,485.73" codeLine="24" style="stroke:#a80036;stroke-width:1"/><polygon fill="none" points="236.9 382.68 248.91 365.22 250.41 386.36 236.9 382.68" style="stroke:#a80036;stroke-width:1"/><path id="user-backto-aws_iam_user" fill="none" d="M150.5,377.51 C164.35,410.75 183.35,456.33 195.65,485.85" codeLine="25" style="stroke:#a80036;stroke-width:1"/><polygon fill="none" points="143.88 379.82 142.65 358.66 156.81 374.43 143.88 379.82" style="stroke:#a80036;stroke-width:1"/></g></svg>