<svg xmlns="http://www.w3.org/2000/svg" xmlns:xlink="http://www.w3.org/1999/xlink" width="335" height="560" contentScriptType="application/ecmascript" contentStyleType="text/css" style="width:335px;height:560px;background:#00000000" preserveAspectRatio="none" version="1.1" viewBox="0 0 335 560" zoomAndPan="magnify"><defs><filter id="f1c4nhw86vwe4c" width="300%" height="300%" x="-1" y="-1"><feGaussianBlur result="blurOut" stdDeviation="2"/><feColorMatrix in="blurOut" result="blurOut2" type="matrix" values="0 0 0 0 0 0 0 0 0 0 0 0 0 0 0 0 0 0 .4 0"/><feOffset dx="4" dy="4" in="blurOut2" result="blurOut3"/><feBlend in="SourceGraphic" in2="blurOut3" mode="normal"/></filter></defs><g><rect id="resource" width="252" height="176.047" x="7" y="7" fill="#FEFECE" codeLine="2" filter="url(#f1c4nhw86vwe4c)" style="stroke:#a80036;stroke-width:1.5"/><ellipse cx="100.75" cy="23" fill="#ADD1B2" rx="11" ry="11" style="stroke:#a80036;stroke-width:1"/><path fill="#000" d="M103.7188,28.6406 Q103.1406,28.9375 102.5,29.0781 Q101.8594,29.2344 101.1563,29.2344 Q98.6563,29.2344 97.3281,27.5938 Q96.0156,25.9375 96.0156,22.8125 Q96.0156,19.6875 97.3281,18.0313 Q98.6563,16.375 101.1563,16.375 Q101.8594,16.375 102.5,16.5313 Q103.1563,16.6875 103.7188,16.9844 L103.7188,19.7031 Q103.0938,19.125 102.5,18.8594 Q101.9063,18.5781 101.2813,18.5781 Q99.9375,18.5781 99.25,19.6563 Q98.5625,20.7188 98.5625,22.8125 Q98.5625,24.9063 99.25,25.9844 Q99.9375,27.0469 101.2813,27.0469 Q101.9063,27.0469 102.5,26.7813 Q103.0938,26.5 103.7188,25.9219 L103.7188,28.6406 Z"/><text x="121.25" y="27.154" fill="#000" font-family="sans-serif" font-size="12" lengthAdjust="spacing" textLength="56">resource</text><line style="stroke:#a80036;stroke-width:1.5" x1="8" x2="258" y1="39" y2="39"/><ellipse cx="18" cy="50" rx="3" ry="3" style="stroke:#038048;stroke-width:1;fill:none"/><text x="27" y="53.21" fill="#000" font-family="sans-serif" font-size="11" lengthAdjust="spacing" textLength="51">id: string</text><ellipse cx="18" cy="62.805" rx="3" ry="3" style="stroke:#038048;stroke-width:1;fill:none"/><text x="27" y="66.015" fill="#000" font-family="sans-serif" font-size="11" lengthAdjust="spacing" textLength="170">tags: dictionary[string, string]</text><ellipse cx="18" cy="75.609" rx="3" ry="3" style="stroke:#038048;stroke-width:1;fill:none"/><text x="27" y="78.82" fill="#000" font-family="sans-serif" font-size="11" lengthAdjust="spacing" textLength="73">name: string</text><ellipse cx="18" cy="88.414" rx="3" ry="3" style="stroke:#038048;stroke-width:1;fill:none"/><text x="27" y="91.624" fill="#000" font-family="sans-serif" font-size="11" lengthAdjust="spacing" textLength="89">ctime: datetime</text><ellipse cx="18" cy="101.219" rx="3" ry="3" style="stroke:#038048;stroke-width:1;fill:none"/><text x="27" y="104.429" fill="#000" font-family="sans-serif" font-size="11" lengthAdjust="spacing" textLength="180">age: trafo.duration_to_datetime</text><ellipse cx="18" cy="114.023" rx="3" ry="3" style="stroke:#038048;stroke-width:1;fill:none"/><text x="27" y="117.234" fill="#000" font-family="sans-serif" font-size="11" lengthAdjust="spacing" textLength="94">mtime: datetime</text><ellipse cx="18" cy="126.828" rx="3" ry="3" style="stroke:#038048;stroke-width:1;fill:none"/><text x="27" y="130.039" fill="#000" font-family="sans-serif" font-size="11" lengthAdjust="spacing" textLength="225">last_update: trafo.duration_to_datetime</text><ellipse cx="18" cy="139.633" rx="3" ry="3" style="stroke:#038048;stroke-width:1;fill:none"/><text x="27" y="142.843" fill="#000" font-family="sans-serif" font-size="11" lengthAdjust="spacing" textLength="90">atime: datetime</text><ellipse cx="18" cy="152.438" rx="3" ry="3" style="stroke:#038048;stroke-width:1;fill:none"/><text x="27" y="155.648" fill="#000" font-family="sans-serif" font-size="11" lengthAdjust="spacing" textLength="226">last_access: trafo.duration_to_datetime</text><ellipse cx="18" cy="165.242" rx="3" ry="3" style="stroke:#038048;stroke-width:1;fill:none"/><text x="27" y="168.453" fill="#000" font-family="sans-serif" font-size="11" lengthAdjust="spacing" textLength="64">kind: string</text><line style="stroke:#a80036;stroke-width:1.5" x1="8" x2="258" y1="175.047" y2="175.047"/><rect id="aws_resource" width="118" height="60.805" x="203" y="304" fill="#FEFECE" codeLine="14" filter="url(#f1c4nhw86vwe4c)" style="stroke:#a80036;stroke-width:1.5"/><ellipse cx="218" cy="320" fill="#ADD1B2" rx="11" ry="11" style="stroke:#a80036;stroke-width:1"/><path fill="#000" d="M220.9688,325.6406 Q220.3906,325.9375 219.75,326.0781 Q219.1094,326.2344 218.4063,326.2344 Q215.9063,326.2344 214.5781,324.5938 Q213.2656,322.9375 213.2656,319.8125 Q213.2656,316.6875 214.5781,315.0313 Q215.9063,313.375 218.4063,313.375 Q219.1094,313.375 219.75,313.5313 Q220.4063,313.6875 220.9688,313.9844 L220.9688,316.7031 Q220.3438,316.125 219.75,315.8594 Q219.1563,315.5781 218.5313,315.5781 Q217.1875,315.5781 216.5,316.6563 Q215.8125,317.7188 215.8125,319.8125 Q215.8125,321.9063 216.5,322.9844 Q217.1875,324.0469 218.5313,324.0469 Q219.1563,324.0469 219.75,323.7813 Q220.3438,323.5 220.9688,322.9219 L220.9688,325.6406 Z"/><text x="232" y="324.154" fill="#000" font-family="sans-serif" font-size="12" lengthAdjust="spacing" textLength="86">aws_resource</text><line style="stroke:#a80036;stroke-width:1.5" x1="204" x2="320" y1="336" y2="336"/><ellipse cx="214" cy="347" rx="3" ry="3" style="stroke:#038048;stroke-width:1;fill:none"/><text x="223" y="350.21" fill="#000" font-family="sans-serif" font-size="11" lengthAdjust="spacing" textLength="60">arn: string</text><line style="stroke:#a80036;stroke-width:1.5" x1="204" x2="320" y1="356.805" y2="356.805"/><rect id="group" width="69" height="48" x="98.5" y="310.5" fill="#FEFECE" codeLine="17" filter="url(#f1c4nhw86vwe4c)" style="stroke:#a80036;stroke-width:1.5"/><ellipse cx="113.5" cy="326.5" fill="#ADD1B2" rx="11" ry="11" style="stroke:#a80036;stroke-width:1"/><path fill="#000" d="M116.4688,332.1406 Q115.8906,332.4375 115.25,332.5781 Q114.6094,332.7344 113.9063,332.7344 Q111.4063,332.7344 110.0781,331.0938 Q108.7656,329.4375 108.7656,326.3125 Q108.7656,323.1875 110.0781,321.5313 Q111.4063,319.875 113.9063,319.875 Q114.6094,319.875 115.25,320.0313 Q115.9063,320.1875 116.4688,320.4844 L116.4688,323.2031 Q115.8438,322.625 115.25,322.3594 Q114.6563,322.0781 114.0313,322.0781 Q112.6875,322.0781 112,323.1563 Q111.3125,324.2188 111.3125,326.3125 Q111.3125,328.4063 112,329.4844 Q112.6875,330.5469 114.0313,330.5469 Q114.6563,330.5469 115.25,330.2813 Q115.8438,330 116.4688,329.4219 L116.4688,332.1406 Z"/><text x="127.5" y="330.654" fill="#000" font-family="sans-serif" font-size="12" lengthAdjust="spacing" textLength="37">group</text><line style="stroke:#a80036;stroke-width:1.5" x1="99.5" x2="166.5" y1="342.5" y2="342.5"/><line style="stroke:#a80036;stroke-width:1.5" x1="99.5" x2="166.5" y1="350.5" y2="350.5"/><rect id="aws_iam_group" width="144" height="60.805" x="125" y="486" fill="#FEFECE" codeLine="20" filter="url(#f1c4nhw86vwe4c)" style="stroke:#a80036;stroke-width:1.5"/><ellipse cx="147.65" cy="502" fill="#ADD1B2" rx="11" ry="11" style="stroke:#a80036;stroke-width:1"/><path fill="#000" d="M150.6188,507.6406 Q150.0406,507.9375 149.4,508.0781 Q148.7594,508.2344 148.0563,508.2344 Q145.5563,508.2344 144.2281,506.5938 Q142.9156,504.9375 142.9156,501.8125 Q142.9156,498.6875 144.2281,497.0313 Q145.5563,495.375 148.0563,495.375 Q148.7594,495.375 149.4,495.5313 Q150.0563,495.6875 150.6188,495.9844 L150.6188,498.7031 Q149.9938,498.125 149.4,497.8594 Q148.8063,497.5781 148.1813,497.5781 Q146.8375,497.5781 146.15,498.6563 Q145.4625,499.7188 145.4625,501.8125 Q145.4625,503.9063 146.15,504.9844 Q146.8375,506.0469 148.1813,506.0469 Q148.8063,506.0469 149.4,505.7813 Q149.9938,505.5 150.6188,504.9219 L150.6188,507.6406 Z"/><text x="163.35" y="506.154" fill="#000" font-family="sans-serif" font-size="12" lengthAdjust="spacing" textLength="95">aws_iam_group</text><line style="stroke:#a80036;stroke-width:1.5" x1="126" x2="268" y1="518" y2="518"/><ellipse cx="136" cy="529" rx="3" ry="3" style="stroke:#038048;stroke-width:1;fill:none"/><text x="145" y="532.21" fill="#000" font-family="sans-serif" font-size="11" lengthAdjust="spacing" textLength="118">group_policies: any[]</text><line style="stroke:#a80036;stroke-width:1.5" x1="126" x2="268" y1="538.805" y2="538.805"/><path id="resource-backto-group" fill="none" d="M133,203.16 C133,243.25 133,285.12 133,310.25" codeLine="23" style="stroke:#a80036;stroke-width:1"/><polygon fill="none" points="126 203.09 133 183.09 140 203.09 126 203.09" style="stroke:#a80036;stroke-width:1"/><path id="aws_resource-backto-aws_iam_group" fill="none" d="M244.31,384.48 C232.62,416.85 217.68,458.23 207.75,485.73" codeLine="24" style="stroke:#a80036;stroke-width:1"/><polygon fill="none" points="237.89 381.66 251.27 365.22 251.06 386.41 237.89 381.66" style="stroke:#a80036;stroke-width:1"/><path id="group-backto-aws_iam_group" fill="none" d="M147.94,377.51 C159.76,410.75 175.96,456.33 186.46,485.85" codeLine="25" style="stroke:#a80036;stroke-width:1"/><polygon fill="none" points="141.34 379.85 141.24 358.66 154.53 375.16 141.34 379.85" style="stroke:#a80036;stroke-width:1"/></g></svg>