<svg xmlns="http://www.w3.org/2000/svg" xmlns:xlink="http://www.w3.org/1999/xlink" width="362" height="548" contentScriptType="application/ecmascript" contentStyleType="text/css" style="width:362px;height:548px;background:#00000000" preserveAspectRatio="none" version="1.1" viewBox="0 0 362 548" zoomAndPan="magnify"><defs><filter id="f13av45k75qszs" width="300%" height="300%" x="-1" y="-1"><feGaussianBlur result="blurOut" stdDeviation="2"/><feColorMatrix in="blurOut" result="blurOut2" type="matrix" values="0 0 0 0 0 0 0 0 0 0 0 0 0 0 0 0 0 0 .4 0"/><feOffset dx="4" dy="4" in="blurOut2" result="blurOut3"/><feBlend in="SourceGraphic" in2="blurOut3" mode="normal"/></filter></defs><g><rect id="resource" width="252" height="176.047" x="7" y="7" fill="#FEFECE" codeLine="2" filter="url(#f13av45k75qszs)" style="stroke:#a80036;stroke-width:1.5"/><ellipse cx="100.75" cy="23" fill="#ADD1B2" rx="11" ry="11" style="stroke:#a80036;stroke-width:1"/><path fill="#000" d="M103.7188,28.6406 Q103.1406,28.9375 102.5,29.0781 Q101.8594,29.2344 101.1563,29.2344 Q98.6563,29.2344 97.3281,27.5938 Q96.0156,25.9375 96.0156,22.8125 Q96.0156,19.6875 97.3281,18.0313 Q98.6563,16.375 101.1563,16.375 Q101.8594,16.375 102.5,16.5313 Q103.1563,16.6875 103.7188,16.9844 L103.7188,19.7031 Q103.0938,19.125 102.5,18.8594 Q101.9063,18.5781 101.2813,18.5781 Q99.9375,18.5781 99.25,19.6563 Q98.5625,20.7188 98.5625,22.8125 Q98.5625,24.9063 99.25,25.9844 Q99.9375,27.0469 101.2813,27.0469 Q101.9063,27.0469 102.5,26.7813 Q103.0938,26.5 103.7188,25.9219 L103.7188,28.6406 Z"/><text x="121.25" y="27.154" fill="#000" font-family="sans-serif" font-size="12" lengthAdjust="spacing" textLength="56">resource</text><line style="stroke:#a80036;stroke-width:1.5" x1="8" x2="258" y1="39" y2="39"/><ellipse cx="18" cy="50" rx="3" ry="3" style="stroke:#038048;stroke-width:1;fill:none"/><text x="27" y="53.21" fill="#000" font-family="sans-serif" font-size="11" lengthAdjust="spacing" textLength="51">id: string</text><ellipse cx="18" cy="62.805" rx="3" ry="3" style="stroke:#038048;stroke-width:1;fill:none"/><text x="27" y="66.015" fill="#000" font-family="sans-serif" font-size="11" lengthAdjust="spacing" textLength="170">tags: dictionary[string, string]</text><ellipse cx="18" cy="75.609" rx="3" ry="3" style="stroke:#038048;stroke-width:1;fill:none"/><text x="27" y="78.82" fill="#000" font-family="sans-serif" font-size="11" lengthAdjust="spacing" textLength="73">name: string</text><ellipse cx="18" cy="88.414" rx="3" ry="3" style="stroke:#038048;stroke-width:1;fill:none"/><text x="27" y="91.624" fill="#000" font-family="sans-serif" font-size="11" lengthAdjust="spacing" textLength="89">ctime: datetime</text><ellipse cx="18" cy="101.219" rx="3" ry="3" style="stroke:#038048;stroke-width:1;fill:none"/><text x="27" y="104.429" fill="#000" font-family="sans-serif" font-size="11" lengthAdjust="spacing" textLength="180">age: trafo.duration_to_datetime</text><ellipse cx="18" cy="114.023" rx="3" ry="3" style="stroke:#038048;stroke-width:1;fill:none"/><text x="27" y="117.234" fill="#000" font-family="sans-serif" font-size="11" lengthAdjust="spacing" textLength="94">mtime: datetime</text><ellipse cx="18" cy="126.828" rx="3" ry="3" style="stroke:#038048;stroke-width:1;fill:none"/><text x="27" y="130.039" fill="#000" font-family="sans-serif" font-size="11" lengthAdjust="spacing" textLength="225">last_update: trafo.duration_to_datetime</text><ellipse cx="18" cy="139.633" rx="3" ry="3" style="stroke:#038048;stroke-width:1;fill:none"/><text x="27" y="142.843" fill="#000" font-family="sans-serif" font-size="11" lengthAdjust="spacing" textLength="90">atime: datetime</text><ellipse cx="18" cy="152.438" rx="3" ry="3" style="stroke:#038048;stroke-width:1;fill:none"/><text x="27" y="155.648" fill="#000" font-family="sans-serif" font-size="11" lengthAdjust="spacing" textLength="226">last_access: trafo.duration_to_datetime</text><ellipse cx="18" cy="165.242" rx="3" ry="3" style="stroke:#038048;stroke-width:1;fill:none"/><text x="27" y="168.453" fill="#000" font-family="sans-serif" font-size="11" lengthAdjust="spacing" textLength="64">kind: string</text><line style="stroke:#a80036;stroke-width:1.5" x1="8" x2="258" y1="175.047" y2="175.047"/><rect id="aws_resource" width="118" height="60.805" x="230" y="304" fill="#FEFECE" codeLine="14" filter="url(#f13av45k75qszs)" style="stroke:#a80036;stroke-width:1.5"/><ellipse cx="245" cy="320" fill="#ADD1B2" rx="11" ry="11" style="stroke:#a80036;stroke-width:1"/><path fill="#000" d="M247.9688,325.6406 Q247.3906,325.9375 246.75,326.0781 Q246.1094,326.2344 245.4063,326.2344 Q242.9063,326.2344 241.5781,324.5938 Q240.2656,322.9375 240.2656,319.8125 Q240.2656,316.6875 241.5781,315.0313 Q242.9063,313.375 245.4063,313.375 Q246.1094,313.375 246.75,313.5313 Q247.4063,313.6875 247.9688,313.9844 L247.9688,316.7031 Q247.3438,316.125 246.75,315.8594 Q246.1563,315.5781 245.5313,315.5781 Q244.1875,315.5781 243.5,316.6563 Q242.8125,317.7188 242.8125,319.8125 Q242.8125,321.9063 243.5,322.9844 Q244.1875,324.0469 245.5313,324.0469 Q246.1563,324.0469 246.75,323.7813 Q247.3438,323.5 247.9688,322.9219 L247.9688,325.6406 Z"/><text x="259" y="324.154" fill="#000" font-family="sans-serif" font-size="12" lengthAdjust="spacing" textLength="86">aws_resource</text><line style="stroke:#a80036;stroke-width:1.5" x1="231" x2="347" y1="336" y2="336"/><ellipse cx="241" cy="347" rx="3" ry="3" style="stroke:#038048;stroke-width:1;fill:none"/><text x="250" y="350.21" fill="#000" font-family="sans-serif" font-size="11" lengthAdjust="spacing" textLength="60">arn: string</text><line style="stroke:#a80036;stroke-width:1.5" x1="231" x2="347" y1="356.805" y2="356.805"/><rect id="security_group" width="124" height="48" x="71" y="310.5" fill="#FEFECE" codeLine="17" filter="url(#f13av45k75qszs)" style="stroke:#a80036;stroke-width:1.5"/><ellipse cx="86" cy="326.5" fill="#ADD1B2" rx="11" ry="11" style="stroke:#a80036;stroke-width:1"/><path fill="#000" d="M88.9688,332.1406 Q88.3906,332.4375 87.75,332.5781 Q87.1094,332.7344 86.4063,332.7344 Q83.9063,332.7344 82.5781,331.0938 Q81.2656,329.4375 81.2656,326.3125 Q81.2656,323.1875 82.5781,321.5313 Q83.9063,319.875 86.4063,319.875 Q87.1094,319.875 87.75,320.0313 Q88.4063,320.1875 88.9688,320.4844 L88.9688,323.2031 Q88.3438,322.625 87.75,322.3594 Q87.1563,322.0781 86.5313,322.0781 Q85.1875,322.0781 84.5,323.1563 Q83.8125,324.2188 83.8125,326.3125 Q83.8125,328.4063 84.5,329.4844 Q85.1875,330.5469 86.5313,330.5469 Q87.1563,330.5469 87.75,330.2813 Q88.3438,330 88.9688,329.4219 L88.9688,332.1406 Z"/><text x="100" y="330.654" fill="#000" font-family="sans-serif" font-size="12" lengthAdjust="spacing" textLength="92">security_group</text><line style="stroke:#a80036;stroke-width:1.5" x1="72" x2="194" y1="342.5" y2="342.5"/><line style="stroke:#a80036;stroke-width:1.5" x1="72" x2="194" y1="350.5" y2="350.5"/><rect id="aws_ec2_security_group" width="183" height="48" x="140.5" y="486" fill="#FEFECE" codeLine="20" filter="url(#f13av45k75qszs)" style="stroke:#a80036;stroke-width:1.5"/><ellipse cx="155.5" cy="502" fill="#ADD1B2" rx="11" ry="11" style="stroke:#a80036;stroke-width:1"/><path fill="#000" d="M158.4688,507.6406 Q157.8906,507.9375 157.25,508.0781 Q156.6094,508.2344 155.9063,508.2344 Q153.4063,508.2344 152.0781,506.5938 Q150.7656,504.9375 150.7656,501.8125 Q150.7656,498.6875 152.0781,497.0313 Q153.4063,495.375 155.9063,495.375 Q156.6094,495.375 157.25,495.5313 Q157.9063,495.6875 158.4688,495.9844 L158.4688,498.7031 Q157.8438,498.125 157.25,497.8594 Q156.6563,497.5781 156.0313,497.5781 Q154.6875,497.5781 154,498.6563 Q153.3125,499.7188 153.3125,501.8125 Q153.3125,503.9063 154,504.9844 Q154.6875,506.0469 156.0313,506.0469 Q156.6563,506.0469 157.25,505.7813 Q157.8438,505.5 158.4688,504.9219 L158.4688,507.6406 Z"/><text x="169.5" y="506.154" fill="#000" font-family="sans-serif" font-size="12" lengthAdjust="spacing" textLength="151">aws_ec2_security_group</text><line style="stroke:#a80036;stroke-width:1.5" x1="141.5" x2="322.5" y1="518" y2="518"/><line style="stroke:#a80036;stroke-width:1.5" x1="141.5" x2="322.5" y1="526" y2="526"/><path id="resource-backto-security_group" fill="none" d="M133,203.16 C133,243.25 133,285.12 133,310.25" codeLine="23" style="stroke:#a80036;stroke-width:1"/><polygon fill="none" points="126 203.09 133 183.09 140 203.09 126 203.09" style="stroke:#a80036;stroke-width:1"/><path id="aws_resource-backto-aws_ec2_security_group" fill="none" d="M272.87,384.6 C261.95,417.83 248.03,460.2 239.58,485.93" codeLine="24" style="stroke:#a80036;stroke-width:1"/><polygon fill="none" points="266.31 382.14 279.2 365.33 279.61 386.51 266.31 382.14" style="stroke:#a80036;stroke-width:1"/><path id="security_group-backto-aws_ec2_security_group" fill="none" d="M156.06,375.91 C175.56,410.08 202.8,457.82 218.8,485.87" codeLine="25" style="stroke:#a80036;stroke-width:1"/><polygon fill="none" points="149.98 379.38 146.15 358.54 162.14 372.44 149.98 379.38" style="stroke:#a80036;stroke-width:1"/></g></svg>