<svg xmlns="http://www.w3.org/2000/svg" xmlns:xlink="http://www.w3.org/1999/xlink" width="405" height="742" contentScriptType="application/ecmascript" contentStyleType="text/css" style="width:405px;height:742px;background:#00000000" preserveAspectRatio="none" version="1.1" viewBox="0 0 405 742" zoomAndPan="magnify"><defs><filter id="fb01fmuo3smnw" width="300%" height="300%" x="-1" y="-1"><feGaussianBlur result="blurOut" stdDeviation="2"/><feColorMatrix in="blurOut" result="blurOut2" type="matrix" values="0 0 0 0 0 0 0 0 0 0 0 0 0 0 0 0 0 0 .4 0"/><feOffset dx="4" dy="4" in="blurOut2" result="blurOut3"/><feBlend in="SourceGraphic" in2="blurOut3" mode="normal"/></filter></defs><g><rect id="phantom_resource" width="150" height="48" x="190.5" y="304" fill="#FEFECE" codeLine="2" filter="url(#fb01fmuo3smnw)" style="stroke:#a80036;stroke-width:1.5"/><ellipse cx="205.5" cy="320" fill="#ADD1B2" rx="11" ry="11" style="stroke:#a80036;stroke-width:1"/><path fill="#000" d="M208.4688,325.6406 Q207.8906,325.9375 207.25,326.0781 Q206.6094,326.2344 205.9063,326.2344 Q203.4063,326.2344 202.0781,324.5938 Q200.7656,322.9375 200.7656,319.8125 Q200.7656,316.6875 202.0781,315.0313 Q203.4063,313.375 205.9063,313.375 Q206.6094,313.375 207.25,313.5313 Q207.9063,313.6875 208.4688,313.9844 L208.4688,316.7031 Q207.8438,316.125 207.25,315.8594 Q206.6563,315.5781 206.0313,315.5781 Q204.6875,315.5781 204,316.6563 Q203.3125,317.7188 203.3125,319.8125 Q203.3125,321.9063 204,322.9844 Q204.6875,324.0469 206.0313,324.0469 Q206.6563,324.0469 207.25,323.7813 Q207.8438,323.5 208.4688,322.9219 L208.4688,325.6406 Z"/><text x="219.5" y="324.154" fill="#000" font-family="sans-serif" font-size="12" lengthAdjust="spacing" textLength="118">phantom_resource</text><line style="stroke:#a80036;stroke-width:1.5" x1="191.5" x2="339.5" y1="336" y2="336"/><line style="stroke:#a80036;stroke-width:1.5" x1="191.5" x2="339.5" y1="344" y2="344"/><rect id="resource" width="252" height="176.047" x="139.5" y="7" fill="#FEFECE" codeLine="5" filter="url(#fb01fmuo3smnw)" style="stroke:#a80036;stroke-width:1.5"/><ellipse cx="233.25" cy="23" fill="#ADD1B2" rx="11" ry="11" style="stroke:#a80036;stroke-width:1"/><path fill="#000" d="M236.2188,28.6406 Q235.6406,28.9375 235,29.0781 Q234.3594,29.2344 233.6563,29.2344 Q231.1563,29.2344 229.8281,27.5938 Q228.5156,25.9375 228.5156,22.8125 Q228.5156,19.6875 229.8281,18.0313 Q231.1563,16.375 233.6563,16.375 Q234.3594,16.375 235,16.5313 Q235.6563,16.6875 236.2188,16.9844 L236.2188,19.7031 Q235.5938,19.125 235,18.8594 Q234.4063,18.5781 233.7813,18.5781 Q232.4375,18.5781 231.75,19.6563 Q231.0625,20.7188 231.0625,22.8125 Q231.0625,24.9063 231.75,25.9844 Q232.4375,27.0469 233.7813,27.0469 Q234.4063,27.0469 235,26.7813 Q235.5938,26.5 236.2188,25.9219 L236.2188,28.6406 Z"/><text x="253.75" y="27.154" fill="#000" font-family="sans-serif" font-size="12" lengthAdjust="spacing" textLength="56">resource</text><line style="stroke:#a80036;stroke-width:1.5" x1="140.5" x2="390.5" y1="39" y2="39"/><ellipse cx="150.5" cy="50" rx="3" ry="3" style="stroke:#038048;stroke-width:1;fill:none"/><text x="159.5" y="53.21" fill="#000" font-family="sans-serif" font-size="11" lengthAdjust="spacing" textLength="51">id: string</text><ellipse cx="150.5" cy="62.805" rx="3" ry="3" style="stroke:#038048;stroke-width:1;fill:none"/><text x="159.5" y="66.015" fill="#000" font-family="sans-serif" font-size="11" lengthAdjust="spacing" textLength="170">tags: dictionary[string, string]</text><ellipse cx="150.5" cy="75.609" rx="3" ry="3" style="stroke:#038048;stroke-width:1;fill:none"/><text x="159.5" y="78.82" fill="#000" font-family="sans-serif" font-size="11" lengthAdjust="spacing" textLength="73">name: string</text><ellipse cx="150.5" cy="88.414" rx="3" ry="3" style="stroke:#038048;stroke-width:1;fill:none"/><text x="159.5" y="91.624" fill="#000" font-family="sans-serif" font-size="11" lengthAdjust="spacing" textLength="89">ctime: datetime</text><ellipse cx="150.5" cy="101.219" rx="3" ry="3" style="stroke:#038048;stroke-width:1;fill:none"/><text x="159.5" y="104.429" fill="#000" font-family="sans-serif" font-size="11" lengthAdjust="spacing" textLength="180">age: trafo.duration_to_datetime</text><ellipse cx="150.5" cy="114.023" rx="3" ry="3" style="stroke:#038048;stroke-width:1;fill:none"/><text x="159.5" y="117.234" fill="#000" font-family="sans-serif" font-size="11" lengthAdjust="spacing" textLength="94">mtime: datetime</text><ellipse cx="150.5" cy="126.828" rx="3" ry="3" style="stroke:#038048;stroke-width:1;fill:none"/><text x="159.5" y="130.039" fill="#000" font-family="sans-serif" font-size="11" lengthAdjust="spacing" textLength="225">last_update: trafo.duration_to_datetime</text><ellipse cx="150.5" cy="139.633" rx="3" ry="3" style="stroke:#038048;stroke-width:1;fill:none"/><text x="159.5" y="142.843" fill="#000" font-family="sans-serif" font-size="11" lengthAdjust="spacing" textLength="90">atime: datetime</text><ellipse cx="150.5" cy="152.438" rx="3" ry="3" style="stroke:#038048;stroke-width:1;fill:none"/><text x="159.5" y="155.648" fill="#000" font-family="sans-serif" font-size="11" lengthAdjust="spacing" textLength="226">last_access: trafo.duration_to_datetime</text><ellipse cx="150.5" cy="165.242" rx="3" ry="3" style="stroke:#038048;stroke-width:1;fill:none"/><text x="159.5" y="168.453" fill="#000" font-family="sans-serif" font-size="11" lengthAdjust="spacing" textLength="64">kind: string</text><line style="stroke:#a80036;stroke-width:1.5" x1="140.5" x2="390.5" y1="175.047" y2="175.047"/><rect id="gcp_resource" width="159" height="73.609" x="7" y="479" fill="#FEFECE" codeLine="17" filter="url(#fb01fmuo3smnw)" style="stroke:#a80036;stroke-width:1.5"/><ellipse cx="40.9" cy="495" fill="#ADD1B2" rx="11" ry="11" style="stroke:#a80036;stroke-width:1"/><path fill="#000" d="M43.8688,500.6406 Q43.2906,500.9375 42.65,501.0781 Q42.0094,501.2344 41.3063,501.2344 Q38.8063,501.2344 37.4781,499.5938 Q36.1656,497.9375 36.1656,494.8125 Q36.1656,491.6875 37.4781,490.0313 Q38.8063,488.375 41.3063,488.375 Q42.0094,488.375 42.65,488.5313 Q43.3063,488.6875 43.8688,488.9844 L43.8688,491.7031 Q43.2438,491.125 42.65,490.8594 Q42.0563,490.5781 41.4313,490.5781 Q40.0875,490.5781 39.4,491.6563 Q38.7125,492.7188 38.7125,494.8125 Q38.7125,496.9063 39.4,497.9844 Q40.0875,499.0469 41.4313,499.0469 Q42.0563,499.0469 42.65,498.7813 Q43.2438,498.5 43.8688,497.9219 L43.8688,500.6406 Z"/><text x="59.1" y="499.154" fill="#000" font-family="sans-serif" font-size="12" lengthAdjust="spacing" textLength="85">gcp_resource</text><line style="stroke:#a80036;stroke-width:1.5" x1="8" x2="165" y1="511" y2="511"/><ellipse cx="18" cy="522" rx="3" ry="3" style="stroke:#038048;stroke-width:1;fill:none"/><text x="27" y="525.21" fill="#000" font-family="sans-serif" font-size="11" lengthAdjust="spacing" textLength="60">link: string</text><ellipse cx="18" cy="534.805" rx="3" ry="3" style="stroke:#038048;stroke-width:1;fill:none"/><text x="27" y="538.015" fill="#000" font-family="sans-serif" font-size="11" lengthAdjust="spacing" textLength="133">label_fingerprint: string</text><line style="stroke:#a80036;stroke-width:1.5" x1="8" x2="165" y1="544.609" y2="544.609"/><rect id="quota" width="129" height="86.414" x="201" y="473" fill="#FEFECE" codeLine="21" filter="url(#fb01fmuo3smnw)" style="stroke:#a80036;stroke-width:1.5"/><ellipse cx="243" cy="489" fill="#ADD1B2" rx="11" ry="11" style="stroke:#a80036;stroke-width:1"/><path fill="#000" d="M245.9688,494.6406 Q245.3906,494.9375 244.75,495.0781 Q244.1094,495.2344 243.4063,495.2344 Q240.9063,495.2344 239.5781,493.5938 Q238.2656,491.9375 238.2656,488.8125 Q238.2656,485.6875 239.5781,484.0313 Q240.9063,482.375 243.4063,482.375 Q244.1094,482.375 244.75,482.5313 Q245.4063,482.6875 245.9688,482.9844 L245.9688,485.7031 Q245.3438,485.125 244.75,484.8594 Q244.1563,484.5781 243.5313,484.5781 Q242.1875,484.5781 241.5,485.6563 Q240.8125,486.7188 240.8125,488.8125 Q240.8125,490.9063 241.5,491.9844 Q242.1875,493.0469 243.5313,493.0469 Q244.1563,493.0469 244.75,492.7813 Q245.3438,492.5 245.9688,491.9219 L245.9688,494.6406 Z"/><text x="263" y="493.154" fill="#000" font-family="sans-serif" font-size="12" lengthAdjust="spacing" textLength="37">quota</text><line style="stroke:#a80036;stroke-width:1.5" x1="202" x2="329" y1="505" y2="505"/><ellipse cx="212" cy="516" rx="3" ry="3" style="stroke:#038048;stroke-width:1;fill:none"/><text x="221" y="519.21" fill="#000" font-family="sans-serif" font-size="11" lengthAdjust="spacing" textLength="78">quota: double</text><ellipse cx="212" cy="528.805" rx="3" ry="3" style="stroke:#038048;stroke-width:1;fill:none"/><text x="221" y="532.015" fill="#000" font-family="sans-serif" font-size="11" lengthAdjust="spacing" textLength="81">usage: double</text><ellipse cx="212" cy="541.609" rx="3" ry="3" style="stroke:#038048;stroke-width:1;fill:none"/><text x="221" y="544.82" fill="#000" font-family="sans-serif" font-size="11" lengthAdjust="spacing" textLength="103">quota_type: string</text><line style="stroke:#a80036;stroke-width:1.5" x1="202" x2="329" y1="551.414" y2="551.414"/><rect id="gcp_quota" width="98" height="48" x="72.5" y="680" fill="#FEFECE" codeLine="26" filter="url(#fb01fmuo3smnw)" style="stroke:#a80036;stroke-width:1.5"/><ellipse cx="87.5" cy="696" fill="#ADD1B2" rx="11" ry="11" style="stroke:#a80036;stroke-width:1"/><path fill="#000" d="M90.4688,701.6406 Q89.8906,701.9375 89.25,702.0781 Q88.6094,702.2344 87.9063,702.2344 Q85.4063,702.2344 84.0781,700.5938 Q82.7656,698.9375 82.7656,695.8125 Q82.7656,692.6875 84.0781,691.0313 Q85.4063,689.375 87.9063,689.375 Q88.6094,689.375 89.25,689.5313 Q89.9063,689.6875 90.4688,689.9844 L90.4688,692.7031 Q89.8438,692.125 89.25,691.8594 Q88.6563,691.5781 88.0313,691.5781 Q86.6875,691.5781 86,692.6563 Q85.3125,693.7188 85.3125,695.8125 Q85.3125,697.9063 86,698.9844 Q86.6875,700.0469 88.0313,700.0469 Q88.6563,700.0469 89.25,699.7813 Q89.8438,699.5 90.4688,698.9219 L90.4688,701.6406 Z"/><text x="101.5" y="700.154" fill="#000" font-family="sans-serif" font-size="12" lengthAdjust="spacing" textLength="66">gcp_quota</text><line style="stroke:#a80036;stroke-width:1.5" x1="73.5" x2="169.5" y1="712" y2="712"/><line style="stroke:#a80036;stroke-width:1.5" x1="73.5" x2="169.5" y1="720" y2="720"/><path id="resource-backto-phantom_resource" fill="none" d="M265.5,203.18 C265.5,241 265.5,280.01 265.5,303.89" codeLine="29" style="stroke:#a80036;stroke-width:1"/><polygon fill="none" points="258.5 203 265.5 183 272.5 203 258.5 203" style="stroke:#a80036;stroke-width:1"/><path id="phantom_resource-backto-quota" fill="none" d="M265.5,372.6 C265.5,402.8 265.5,442.79 265.5,472.7" codeLine="30" style="stroke:#a80036;stroke-width:1"/><polygon fill="none" points="258.5 372.18 265.5 352.18 272.5 372.18 258.5 372.18" style="stroke:#a80036;stroke-width:1"/><path id="gcp_resource-backto-gcp_quota" fill="none" d="M97.07,573.18 C103.81,608.99 112.18,653.49 117.17,679.99" codeLine="31" style="stroke:#a80036;stroke-width:1"/><polygon fill="none" points="90.15 574.25 93.33 553.3 103.91 571.66 90.15 574.25" style="stroke:#a80036;stroke-width:1"/><path id="quota-backto-gcp_quota" fill="none" d="M220.34,575.34 C192.93,610.73 159.47,653.95 139.36,679.93" codeLine="32" style="stroke:#a80036;stroke-width:1"/><polygon fill="none" points="215.05 570.74 232.82 559.21 226.12 579.31 215.05 570.74" style="stroke:#a80036;stroke-width:1"/></g></svg>