<?xml version="1.0" encoding="UTF-8" standalone="no"?><svg xmlns="http://www.w3.org/2000/svg" xmlns:xlink="http://www.w3.org/1999/xlink" contentScriptType="application/ecmascript" contentStyleType="text/css" height="637px" preserveAspectRatio="none" style="width:422px;height:637px;background:#00000000;" version="1.1" viewBox="0 0 422 637" width="422px" zoomAndPan="magnify"><defs><filter height="300%" id="fgin4b55pcgql" width="300%" x="-1" y="-1"><feGaussianBlur result="blurOut" stdDeviation="2.0"/><feColorMatrix in="blurOut" result="blurOut2" type="matrix" values="0 0 0 0 0 0 0 0 0 0 0 0 0 0 0 0 0 0 .4 0"/><feOffset dx="4.0" dy="4.0" in="blurOut2" result="blurOut3"/><feBlend in="SourceGraphic" in2="blurOut3" mode="normal"/></filter></defs><g><!--MD5=[7f0ecf5f554433d3f2e1213379ac821c]
class resource--><rect codeLine="2" fill="#FEFECE" filter="url(#fgin4b55pcgql)" height="176.0469" id="resource" style="stroke:#A80036;stroke-width:1.5;" width="252" x="7" y="7"/><ellipse cx="100.75" cy="23" fill="#ADD1B2" rx="11" ry="11" style="stroke:#A80036;stroke-width:1.0;"/><path d="M103.7188,28.6406 Q103.1406,28.9375 102.5,29.0781 Q101.8594,29.2344 101.1563,29.2344 Q98.6563,29.2344 97.3281,27.5938 Q96.0156,25.9375 96.0156,22.8125 Q96.0156,19.6875 97.3281,18.0313 Q98.6563,16.375 101.1563,16.375 Q101.8594,16.375 102.5,16.5313 Q103.1563,16.6875 103.7188,16.9844 L103.7188,19.7031 Q103.0938,19.125 102.5,18.8594 Q101.9063,18.5781 101.2813,18.5781 Q99.9375,18.5781 99.25,19.6563 Q98.5625,20.7188 98.5625,22.8125 Q98.5625,24.9063 99.25,25.9844 Q99.9375,27.0469 101.2813,27.0469 Q101.9063,27.0469 102.5,26.7813 Q103.0938,26.5 103.7188,25.9219 L103.7188,28.6406 Z " fill="#000000"/><text fill="#000000" font-family="sans-serif" font-size="12" lengthAdjust="spacing" textLength="56" x="121.25" y="27.1543">resource</text><line style="stroke:#A80036;stroke-width:1.5;" x1="8" x2="258" y1="39" y2="39"/><ellipse cx="18" cy="50" rx="3" ry="3" style="stroke:#038048;stroke-width:1.0;fill:none;"/><text fill="#000000" font-family="sans-serif" font-size="11" lengthAdjust="spacing" textLength="51" x="27" y="53.2104">id: string</text><ellipse cx="18" cy="62.8047" rx="3" ry="3" style="stroke:#038048;stroke-width:1.0;fill:none;"/><text fill="#000000" font-family="sans-serif" font-size="11" lengthAdjust="spacing" textLength="170" x="27" y="66.0151">tags: dictionary[string, string]</text><ellipse cx="18" cy="75.6094" rx="3" ry="3" style="stroke:#038048;stroke-width:1.0;fill:none;"/><text fill="#000000" font-family="sans-serif" font-size="11" lengthAdjust="spacing" textLength="73" x="27" y="78.8198">name: string</text><ellipse cx="18" cy="88.4141" rx="3" ry="3" style="stroke:#038048;stroke-width:1.0;fill:none;"/><text fill="#000000" font-family="sans-serif" font-size="11" lengthAdjust="spacing" textLength="89" x="27" y="91.6245">ctime: datetime</text><ellipse cx="18" cy="101.2188" rx="3" ry="3" style="stroke:#038048;stroke-width:1.0;fill:none;"/><text fill="#000000" font-family="sans-serif" font-size="11" lengthAdjust="spacing" textLength="180" x="27" y="104.4292">age: trafo.duration_to_datetime</text><ellipse cx="18" cy="114.0234" rx="3" ry="3" style="stroke:#038048;stroke-width:1.0;fill:none;"/><text fill="#000000" font-family="sans-serif" font-size="11" lengthAdjust="spacing" textLength="94" x="27" y="117.2339">mtime: datetime</text><ellipse cx="18" cy="126.8281" rx="3" ry="3" style="stroke:#038048;stroke-width:1.0;fill:none;"/><text fill="#000000" font-family="sans-serif" font-size="11" lengthAdjust="spacing" textLength="225" x="27" y="130.0386">last_update: trafo.duration_to_datetime</text><ellipse cx="18" cy="139.6328" rx="3" ry="3" style="stroke:#038048;stroke-width:1.0;fill:none;"/><text fill="#000000" font-family="sans-serif" font-size="11" lengthAdjust="spacing" textLength="90" x="27" y="142.8433">atime: datetime</text><ellipse cx="18" cy="152.4375" rx="3" ry="3" style="stroke:#038048;stroke-width:1.0;fill:none;"/><text fill="#000000" font-family="sans-serif" font-size="11" lengthAdjust="spacing" textLength="226" x="27" y="155.6479">last_access: trafo.duration_to_datetime</text><ellipse cx="18" cy="165.2422" rx="3" ry="3" style="stroke:#038048;stroke-width:1.0;fill:none;"/><text fill="#000000" font-family="sans-serif" font-size="11" lengthAdjust="spacing" textLength="64" x="27" y="168.4526">kind: string</text><line style="stroke:#A80036;stroke-width:1.5;" x1="8" x2="258" y1="175.0469" y2="175.0469"/><!--MD5=[96a667c91f46910544c8a4dd691a5f67]
class gcp_resource--><rect codeLine="14" fill="#FEFECE" filter="url(#fgin4b55pcgql)" height="73.6094" id="gcp_resource" style="stroke:#A80036;stroke-width:1.5;" width="159" x="249.5" y="336"/><ellipse cx="283.4" cy="352" fill="#ADD1B2" rx="11" ry="11" style="stroke:#A80036;stroke-width:1.0;"/><path d="M286.3688,357.6406 Q285.7906,357.9375 285.15,358.0781 Q284.5094,358.2344 283.8063,358.2344 Q281.3063,358.2344 279.9781,356.5938 Q278.6656,354.9375 278.6656,351.8125 Q278.6656,348.6875 279.9781,347.0313 Q281.3063,345.375 283.8063,345.375 Q284.5094,345.375 285.15,345.5313 Q285.8063,345.6875 286.3688,345.9844 L286.3688,348.7031 Q285.7438,348.125 285.15,347.8594 Q284.5563,347.5781 283.9313,347.5781 Q282.5875,347.5781 281.9,348.6563 Q281.2125,349.7188 281.2125,351.8125 Q281.2125,353.9063 281.9,354.9844 Q282.5875,356.0469 283.9313,356.0469 Q284.5563,356.0469 285.15,355.7813 Q285.7438,355.5 286.3688,354.9219 L286.3688,357.6406 Z " fill="#000000"/><text fill="#000000" font-family="sans-serif" font-size="12" lengthAdjust="spacing" textLength="85" x="301.6" y="356.1543">gcp_resource</text><line style="stroke:#A80036;stroke-width:1.5;" x1="250.5" x2="407.5" y1="368" y2="368"/><ellipse cx="260.5" cy="379" rx="3" ry="3" style="stroke:#038048;stroke-width:1.0;fill:none;"/><text fill="#000000" font-family="sans-serif" font-size="11" lengthAdjust="spacing" textLength="60" x="269.5" y="382.2104">link: string</text><ellipse cx="260.5" cy="391.8047" rx="3" ry="3" style="stroke:#038048;stroke-width:1.0;fill:none;"/><text fill="#000000" font-family="sans-serif" font-size="11" lengthAdjust="spacing" textLength="133" x="269.5" y="395.0151">label_fingerprint: string</text><line style="stroke:#A80036;stroke-width:1.5;" x1="250.5" x2="407.5" y1="401.6094" y2="401.6094"/><!--MD5=[7a78d5e8c6114ec050518a6c47ea59e9]
class gcp_snapshot--><rect codeLine="18" fill="#FEFECE" filter="url(#fgin4b55pcgql)" height="60.8047" id="gcp_snapshot" style="stroke:#A80036;stroke-width:1.5;" width="143" x="159.5" y="563"/><ellipse cx="184.85" cy="579" fill="#ADD1B2" rx="11" ry="11" style="stroke:#A80036;stroke-width:1.0;"/><path d="M187.8188,584.6406 Q187.2406,584.9375 186.6,585.0781 Q185.9594,585.2344 185.2563,585.2344 Q182.7563,585.2344 181.4281,583.5938 Q180.1156,581.9375 180.1156,578.8125 Q180.1156,575.6875 181.4281,574.0313 Q182.7563,572.375 185.2563,572.375 Q185.9594,572.375 186.6,572.5313 Q187.2563,572.6875 187.8188,572.9844 L187.8188,575.7031 Q187.1938,575.125 186.6,574.8594 Q186.0063,574.5781 185.3813,574.5781 Q184.0375,574.5781 183.35,575.6563 Q182.6625,576.7188 182.6625,578.8125 Q182.6625,580.9063 183.35,581.9844 Q184.0375,583.0469 185.3813,583.0469 Q186.0063,583.0469 186.6,582.7813 Q187.1938,582.5 187.8188,581.9219 L187.8188,584.6406 Z " fill="#000000"/><text fill="#000000" font-family="sans-serif" font-size="12" lengthAdjust="spacing" textLength="88" x="201.15" y="583.1543">gcp_snapshot</text><line style="stroke:#A80036;stroke-width:1.5;" x1="160.5" x2="301.5" y1="595" y2="595"/><ellipse cx="170.5" cy="606" rx="3" ry="3" style="stroke:#038048;stroke-width:1.0;fill:none;"/><text fill="#000000" font-family="sans-serif" font-size="11" lengthAdjust="spacing" textLength="117" x="179.5" y="609.2104">storage_bytes: int64</text><line style="stroke:#A80036;stroke-width:1.5;" x1="160.5" x2="301.5" y1="615.8047" y2="615.8047"/><!--MD5=[6675a7857363d8a156b001ed375d6c81]
class snapshot--><rect codeLine="21" fill="#FEFECE" filter="url(#fgin4b55pcgql)" height="137.6328" id="snapshot" style="stroke:#A80036;stroke-width:1.5;" width="162" x="52" y="304"/><ellipse cx="99.25" cy="320" fill="#ADD1B2" rx="11" ry="11" style="stroke:#A80036;stroke-width:1.0;"/><path d="M102.2188,325.6406 Q101.6406,325.9375 101,326.0781 Q100.3594,326.2344 99.6563,326.2344 Q97.1563,326.2344 95.8281,324.5938 Q94.5156,322.9375 94.5156,319.8125 Q94.5156,316.6875 95.8281,315.0313 Q97.1563,313.375 99.6563,313.375 Q100.3594,313.375 101,313.5313 Q101.6563,313.6875 102.2188,313.9844 L102.2188,316.7031 Q101.5938,316.125 101,315.8594 Q100.4063,315.5781 99.7813,315.5781 Q98.4375,315.5781 97.75,316.6563 Q97.0625,317.7188 97.0625,319.8125 Q97.0625,321.9063 97.75,322.9844 Q98.4375,324.0469 99.7813,324.0469 Q100.4063,324.0469 101,323.7813 Q101.5938,323.5 102.2188,322.9219 L102.2188,325.6406 Z " fill="#000000"/><text fill="#000000" font-family="sans-serif" font-size="12" lengthAdjust="spacing" textLength="59" x="119.75" y="324.1543">snapshot</text><line style="stroke:#A80036;stroke-width:1.5;" x1="53" x2="213" y1="336" y2="336"/><ellipse cx="63" cy="347" rx="3" ry="3" style="stroke:#038048;stroke-width:1.0;fill:none;"/><text fill="#000000" font-family="sans-serif" font-size="11" lengthAdjust="spacing" textLength="136" x="72" y="350.2104">snapshot_status: string</text><ellipse cx="63" cy="359.8047" rx="3" ry="3" style="stroke:#038048;stroke-width:1.0;fill:none;"/><text fill="#000000" font-family="sans-serif" font-size="11" lengthAdjust="spacing" textLength="104" x="72" y="363.0151">description: string</text><ellipse cx="63" cy="372.6094" rx="3" ry="3" style="stroke:#038048;stroke-width:1.0;fill:none;"/><text fill="#000000" font-family="sans-serif" font-size="11" lengthAdjust="spacing" textLength="98" x="72" y="375.8198">volume_id: string</text><ellipse cx="63" cy="385.4141" rx="3" ry="3" style="stroke:#038048;stroke-width:1.0;fill:none;"/><text fill="#000000" font-family="sans-serif" font-size="11" lengthAdjust="spacing" textLength="105" x="72" y="388.6245">volume_size: int64</text><ellipse cx="63" cy="398.2188" rx="3" ry="3" style="stroke:#038048;stroke-width:1.0;fill:none;"/><text fill="#000000" font-family="sans-serif" font-size="11" lengthAdjust="spacing" textLength="109" x="72" y="401.4292">encrypted: boolean</text><ellipse cx="63" cy="411.0234" rx="3" ry="3" style="stroke:#038048;stroke-width:1.0;fill:none;"/><text fill="#000000" font-family="sans-serif" font-size="11" lengthAdjust="spacing" textLength="92" x="72" y="414.2339">owner_id: string</text><ellipse cx="63" cy="423.8281" rx="3" ry="3" style="stroke:#038048;stroke-width:1.0;fill:none;"/><text fill="#000000" font-family="sans-serif" font-size="11" lengthAdjust="spacing" textLength="109" x="72" y="427.0386">owner_alias: string</text><line style="stroke:#A80036;stroke-width:1.5;" x1="53" x2="213" y1="433.6328" y2="433.6328"/><!--MD5=[53fa05cd85be2a0c969cd3e88e365785]
reverse link gcp_resource to gcp_snapshot--><path codeLine="30" d="M304.6,428.4 C285.56,470.86 259.82,528.24 244.37,562.69 " fill="none" id="gcp_resource-backto-gcp_snapshot" style="stroke:#A80036;stroke-width:1.0;"/><polygon fill="none" points="298.25,425.46,312.82,410.08,311.02,431.19,298.25,425.46" style="stroke:#A80036;stroke-width:1.0;"/><!--MD5=[977d8143e0a32657243d5219d199f2bf]
reverse link snapshot to gcp_snapshot--><path codeLine="31" d="M171.9,460.74 C188.12,496.89 205.87,536.47 217.64,562.72 " fill="none" id="snapshot-backto-gcp_snapshot" style="stroke:#A80036;stroke-width:1.0;"/><polygon fill="none" points="165.4,463.35,163.6,442.24,178.18,457.62,165.4,463.35" style="stroke:#A80036;stroke-width:1.0;"/><!--MD5=[3665eefbf74fb60392a23d6584d4ce60]
reverse link resource to snapshot--><path codeLine="32" d="M133,203.36 C133,237.07 133,273.36 133,303.6 " fill="none" id="resource-backto-snapshot" style="stroke:#A80036;stroke-width:1.0;"/><polygon fill="none" points="126,203.33,133,183.33,140,203.33,126,203.33" style="stroke:#A80036;stroke-width:1.0;"/><!--MD5=[eee2661833ea1a16ffe679103141e2a2]
@startuml
skinparam backgroundcolor transparent
class resource {
+ id: string
+ tags: dictionary[string, string]
+ name: string
+ ctime: datetime
+ age: trafo.duration_to_datetime
+ mtime: datetime
+ last_update: trafo.duration_to_datetime
+ atime: datetime
+ last_access: trafo.duration_to_datetime
+ kind: string
}
class gcp_resource {
+ link: string
+ label_fingerprint: string
}
class gcp_snapshot {
+ storage_bytes: int64
}
class snapshot {
+ snapshot_status: string
+ description: string
+ volume_id: string
+ volume_size: int64
+ encrypted: boolean
+ owner_id: string
+ owner_alias: string
}
gcp_resource <|- - - gcp_snapshot
snapshot <|- - - gcp_snapshot
resource <|- - - snapshot
@enduml

PlantUML version 1.2021.16(Wed Dec 08 17:25:22 UTC 2021)
(GPL source distribution)
Java Runtime: OpenJDK Runtime Environment
JVM: OpenJDK 64-Bit Server VM
Default Encoding: UTF-8
Language: en
Country: null
--></g></svg>