<?xml version="1.0" encoding="UTF-8" standalone="no"?><svg xmlns="http://www.w3.org/2000/svg" xmlns:xlink="http://www.w3.org/1999/xlink" contentScriptType="application/ecmascript" contentStyleType="text/css" height="391px" preserveAspectRatio="none" style="width:467px;height:391px;background:#00000000;" version="1.1" viewBox="0 0 467 391" width="467px" zoomAndPan="magnify"><defs><filter height="300%" id="fu9s0kn7uzoj5" width="300%" x="-1" y="-1"><feGaussianBlur result="blurOut" stdDeviation="2.0"/><feColorMatrix in="blurOut" result="blurOut2" type="matrix" values="0 0 0 0 0 0 0 0 0 0 0 0 0 0 0 0 0 0 .4 0"/><feOffset dx="4.0" dy="4.0" in="blurOut2" result="blurOut3"/><feBlend in="SourceGraphic" in2="blurOut3" mode="normal"/></filter></defs><g><!--MD5=[7f0ecf5f554433d3f2e1213379ac821c]
class resource--><rect codeLine="2" fill="#FEFECE" filter="url(#fu9s0kn7uzoj5)" height="176.0469" id="resource" style="stroke:#A80036;stroke-width:1.5;" width="252" x="7" y="7"/><ellipse cx="100.75" cy="23" fill="#ADD1B2" rx="11" ry="11" style="stroke:#A80036;stroke-width:1.0;"/><path d="M103.7188,28.6406 Q103.1406,28.9375 102.5,29.0781 Q101.8594,29.2344 101.1563,29.2344 Q98.6563,29.2344 97.3281,27.5938 Q96.0156,25.9375 96.0156,22.8125 Q96.0156,19.6875 97.3281,18.0313 Q98.6563,16.375 101.1563,16.375 Q101.8594,16.375 102.5,16.5313 Q103.1563,16.6875 103.7188,16.9844 L103.7188,19.7031 Q103.0938,19.125 102.5,18.8594 Q101.9063,18.5781 101.2813,18.5781 Q99.9375,18.5781 99.25,19.6563 Q98.5625,20.7188 98.5625,22.8125 Q98.5625,24.9063 99.25,25.9844 Q99.9375,27.0469 101.2813,27.0469 Q101.9063,27.0469 102.5,26.7813 Q103.0938,26.5 103.7188,25.9219 L103.7188,28.6406 Z " fill="#000000"/><text fill="#000000" font-family="sans-serif" font-size="12" lengthAdjust="spacing" textLength="56" x="121.25" y="27.1543">resource</text><line style="stroke:#A80036;stroke-width:1.5;" x1="8" x2="258" y1="39" y2="39"/><ellipse cx="18" cy="50" rx="3" ry="3" style="stroke:#038048;stroke-width:1.0;fill:none;"/><text fill="#000000" font-family="sans-serif" font-size="11" lengthAdjust="spacing" textLength="51" x="27" y="53.2104">id: string</text><ellipse cx="18" cy="62.8047" rx="3" ry="3" style="stroke:#038048;stroke-width:1.0;fill:none;"/><text fill="#000000" font-family="sans-serif" font-size="11" lengthAdjust="spacing" textLength="170" x="27" y="66.0151">tags: dictionary[string, string]</text><ellipse cx="18" cy="75.6094" rx="3" ry="3" style="stroke:#038048;stroke-width:1.0;fill:none;"/><text fill="#000000" font-family="sans-serif" font-size="11" lengthAdjust="spacing" textLength="73" x="27" y="78.8198">name: string</text><ellipse cx="18" cy="88.4141" rx="3" ry="3" style="stroke:#038048;stroke-width:1.0;fill:none;"/><text fill="#000000" font-family="sans-serif" font-size="11" lengthAdjust="spacing" textLength="89" x="27" y="91.6245">ctime: datetime</text><ellipse cx="18" cy="101.2188" rx="3" ry="3" style="stroke:#038048;stroke-width:1.0;fill:none;"/><text fill="#000000" font-family="sans-serif" font-size="11" lengthAdjust="spacing" textLength="180" x="27" y="104.4292">age: trafo.duration_to_datetime</text><ellipse cx="18" cy="114.0234" rx="3" ry="3" style="stroke:#038048;stroke-width:1.0;fill:none;"/><text fill="#000000" font-family="sans-serif" font-size="11" lengthAdjust="spacing" textLength="94" x="27" y="117.2339">mtime: datetime</text><ellipse cx="18" cy="126.8281" rx="3" ry="3" style="stroke:#038048;stroke-width:1.0;fill:none;"/><text fill="#000000" font-family="sans-serif" font-size="11" lengthAdjust="spacing" textLength="225" x="27" y="130.0386">last_update: trafo.duration_to_datetime</text><ellipse cx="18" cy="139.6328" rx="3" ry="3" style="stroke:#038048;stroke-width:1.0;fill:none;"/><text fill="#000000" font-family="sans-serif" font-size="11" lengthAdjust="spacing" textLength="90" x="27" y="142.8433">atime: datetime</text><ellipse cx="18" cy="152.4375" rx="3" ry="3" style="stroke:#038048;stroke-width:1.0;fill:none;"/><text fill="#000000" font-family="sans-serif" font-size="11" lengthAdjust="spacing" textLength="226" x="27" y="155.6479">last_access: trafo.duration_to_datetime</text><ellipse cx="18" cy="165.2422" rx="3" ry="3" style="stroke:#038048;stroke-width:1.0;fill:none;"/><text fill="#000000" font-family="sans-serif" font-size="11" lengthAdjust="spacing" textLength="64" x="27" y="168.4526">kind: string</text><line style="stroke:#A80036;stroke-width:1.5;" x1="8" x2="258" y1="175.0469" y2="175.0469"/><!--MD5=[96a667c91f46910544c8a4dd691a5f67]
class gcp_resource--><rect codeLine="14" fill="#FEFECE" filter="url(#fu9s0kn7uzoj5)" height="73.6094" id="gcp_resource" style="stroke:#A80036;stroke-width:1.5;" width="159" x="294.5" y="58"/><ellipse cx="328.4" cy="74" fill="#ADD1B2" rx="11" ry="11" style="stroke:#A80036;stroke-width:1.0;"/><path d="M331.3688,79.6406 Q330.7906,79.9375 330.15,80.0781 Q329.5094,80.2344 328.8063,80.2344 Q326.3063,80.2344 324.9781,78.5938 Q323.6656,76.9375 323.6656,73.8125 Q323.6656,70.6875 324.9781,69.0313 Q326.3063,67.375 328.8063,67.375 Q329.5094,67.375 330.15,67.5313 Q330.8063,67.6875 331.3688,67.9844 L331.3688,70.7031 Q330.7438,70.125 330.15,69.8594 Q329.5563,69.5781 328.9313,69.5781 Q327.5875,69.5781 326.9,70.6563 Q326.2125,71.7188 326.2125,73.8125 Q326.2125,75.9063 326.9,76.9844 Q327.5875,78.0469 328.9313,78.0469 Q329.5563,78.0469 330.15,77.7813 Q330.7438,77.5 331.3688,76.9219 L331.3688,79.6406 Z " fill="#000000"/><text fill="#000000" font-family="sans-serif" font-size="12" lengthAdjust="spacing" textLength="85" x="346.6" y="78.1543">gcp_resource</text><line style="stroke:#A80036;stroke-width:1.5;" x1="295.5" x2="452.5" y1="90" y2="90"/><ellipse cx="305.5" cy="101" rx="3" ry="3" style="stroke:#038048;stroke-width:1.0;fill:none;"/><text fill="#000000" font-family="sans-serif" font-size="11" lengthAdjust="spacing" textLength="60" x="314.5" y="104.2104">link: string</text><ellipse cx="305.5" cy="113.8047" rx="3" ry="3" style="stroke:#038048;stroke-width:1.0;fill:none;"/><text fill="#000000" font-family="sans-serif" font-size="11" lengthAdjust="spacing" textLength="133" x="314.5" y="117.0151">label_fingerprint: string</text><line style="stroke:#A80036;stroke-width:1.5;" x1="295.5" x2="452.5" y1="123.6094" y2="123.6094"/><!--MD5=[f44ce5c6fd893d0b8b88a7fa15f4be2f]
class gcp_global_network_endpoint_group--><rect codeLine="18" fill="#FEFECE" filter="url(#fu9s0kn7uzoj5)" height="73.6094" id="gcp_global_network_endpoint_group" style="stroke:#A80036;stroke-width:1.5;" width="260" x="123" y="304"/><ellipse cx="138" cy="320" fill="#ADD1B2" rx="11" ry="11" style="stroke:#A80036;stroke-width:1.0;"/><path d="M140.9688,325.6406 Q140.3906,325.9375 139.75,326.0781 Q139.1094,326.2344 138.4063,326.2344 Q135.9063,326.2344 134.5781,324.5938 Q133.2656,322.9375 133.2656,319.8125 Q133.2656,316.6875 134.5781,315.0313 Q135.9063,313.375 138.4063,313.375 Q139.1094,313.375 139.75,313.5313 Q140.4063,313.6875 140.9688,313.9844 L140.9688,316.7031 Q140.3438,316.125 139.75,315.8594 Q139.1563,315.5781 138.5313,315.5781 Q137.1875,315.5781 136.5,316.6563 Q135.8125,317.7188 135.8125,319.8125 Q135.8125,321.9063 136.5,322.9844 Q137.1875,324.0469 138.5313,324.0469 Q139.1563,324.0469 139.75,323.7813 Q140.3438,323.5 140.9688,322.9219 L140.9688,325.6406 Z " fill="#000000"/><text fill="#000000" font-family="sans-serif" font-size="12" lengthAdjust="spacing" textLength="228" x="152" y="324.1543">gcp_global_network_endpoint_group</text><line style="stroke:#A80036;stroke-width:1.5;" x1="124" x2="382" y1="336" y2="336"/><ellipse cx="134" cy="347" rx="3" ry="3" style="stroke:#038048;stroke-width:1.0;fill:none;"/><text fill="#000000" font-family="sans-serif" font-size="11" lengthAdjust="spacing" textLength="104" x="143" y="350.2104">default_port: int64</text><ellipse cx="134" cy="359.8047" rx="3" ry="3" style="stroke:#038048;stroke-width:1.0;fill:none;"/><text fill="#000000" font-family="sans-serif" font-size="11" lengthAdjust="spacing" textLength="92" x="143" y="363.0151">neg_type: string</text><line style="stroke:#A80036;stroke-width:1.5;" x1="124" x2="382" y1="369.6094" y2="369.6094"/><!--MD5=[f12e44c6b6bc1d0939a2fd092cb5508a]
reverse link gcp_resource to gcp_global_network_endpoint_group--><path codeLine="22" d="M347.17,150.11 C323.96,196.9 291.06,263.24 270.93,303.85 " fill="none" id="gcp_resource-backto-gcp_global_network_endpoint_group" style="stroke:#A80036;stroke-width:1.0;"/><polygon fill="none" points="340.99,146.81,356.15,132,353.53,153.03,340.99,146.81" style="stroke:#A80036;stroke-width:1.0;"/><!--MD5=[a4fe1224748c30785c1532986bfa212e]
reverse link resource to gcp_global_network_endpoint_group--><path codeLine="23" d="M184.71,201.15 C202.78,237.89 221.88,276.72 235.27,303.94 " fill="none" id="resource-backto-gcp_global_network_endpoint_group" style="stroke:#A80036;stroke-width:1.0;"/><polygon fill="none" points="178.36,204.09,175.81,183.06,190.92,197.91,178.36,204.09" style="stroke:#A80036;stroke-width:1.0;"/><!--MD5=[933fe065aee14e1952f0ccd6cd844a8d]
@startuml
skinparam backgroundcolor transparent
class resource {
+ id: string
+ tags: dictionary[string, string]
+ name: string
+ ctime: datetime
+ age: trafo.duration_to_datetime
+ mtime: datetime
+ last_update: trafo.duration_to_datetime
+ atime: datetime
+ last_access: trafo.duration_to_datetime
+ kind: string
}
class gcp_resource {
+ link: string
+ label_fingerprint: string
}
class gcp_global_network_endpoint_group {
+ default_port: int64
+ neg_type: string
}
gcp_resource <|- - - gcp_global_network_endpoint_group
resource <|- - - gcp_global_network_endpoint_group
@enduml

PlantUML version 1.2021.16(Wed Dec 08 17:25:22 UTC 2021)
(GPL source distribution)
Java Runtime: OpenJDK Runtime Environment
JVM: OpenJDK 64-Bit Server VM
Default Encoding: UTF-8
Language: en
Country: null
--></g></svg>