<?xml version="1.0" encoding="UTF-8" standalone="no"?><svg xmlns="http://www.w3.org/2000/svg" xmlns:xlink="http://www.w3.org/1999/xlink" contentScriptType="application/ecmascript" contentStyleType="text/css" height="663px" preserveAspectRatio="none" style="width:443px;height:663px;background:#00000000;" version="1.1" viewBox="0 0 443 663" width="443px" zoomAndPan="magnify"><defs/><g><!--MD5=[7f0ecf5f554433d3f2e1213379ac821c]
class resource--><rect codeLine="17" fill="#194875" height="275.8359" id="resource" rx="2.5" ry="2.5" style="stroke:#000000;stroke-width:1.5;" width="256" x="7" y="7"/><ellipse cx="90.25" cy="26.8945" fill="#1A83AF" rx="11" ry="11" style="stroke:#000000;stroke-width:1.0;"/><path d="M93.2188,32.5352 Q92.6406,32.832 92,32.9727 Q91.3594,33.1289 90.6563,33.1289 Q88.1563,33.1289 86.8281,31.4883 Q85.5156,29.832 85.5156,26.707 Q85.5156,23.582 86.8281,21.9258 Q88.1563,20.2695 90.6563,20.2695 Q91.3594,20.2695 92,20.4258 Q92.6563,20.582 93.2188,20.8789 L93.2188,23.5977 Q92.5938,23.0195 92,22.7539 Q91.4063,22.4727 90.7813,22.4727 Q89.4375,22.4727 88.75,23.5508 Q88.0625,24.6133 88.0625,26.707 Q88.0625,28.8008 88.75,29.8789 Q89.4375,30.9414 90.7813,30.9414 Q91.4063,30.9414 92,30.6758 Q92.5938,30.3945 93.2188,29.8164 L93.2188,32.5352 Z " fill="#000000"/><text fill="#FFE797" font-family="Helvetica" font-size="17" lengthAdjust="spacing" textLength="71" x="115.75" y="32.7798">resource</text><line style="stroke:#000000;stroke-width:1.5;" x1="8" x2="262" y1="46.7891" y2="46.7891"/><text fill="#FFE797" font-family="sans-serif" font-size="11" font-weight="bold" lengthAdjust="spacing" textLength="12" x="18" y="65.9995">id</text><text fill="#FFE797" font-family="sans-serif" font-size="11" lengthAdjust="spacing" textLength="41" x="30" y="65.9995">: string</text><text fill="#FFE797" font-family="sans-serif" font-size="11" font-weight="bold" lengthAdjust="spacing" textLength="28" x="18" y="88.8042">tags</text><text fill="#FFE797" font-family="sans-serif" font-size="11" lengthAdjust="spacing" textLength="145" x="46" y="88.8042">: dictionary[string, string]</text><text fill="#FFE797" font-family="sans-serif" font-size="11" font-weight="bold" lengthAdjust="spacing" textLength="35" x="18" y="111.6089">name</text><text fill="#FFE797" font-family="sans-serif" font-size="11" lengthAdjust="spacing" textLength="41" x="53" y="111.6089">: string</text><text fill="#FFE797" font-family="sans-serif" font-size="11" font-weight="bold" lengthAdjust="spacing" textLength="35" x="18" y="134.4136">ctime</text><text fill="#FFE797" font-family="sans-serif" font-size="11" lengthAdjust="spacing" textLength="58" x="53" y="134.4136">: datetime</text><text fill="#FFE797" font-family="sans-serif" font-size="11" font-weight="bold" lengthAdjust="spacing" textLength="24" x="18" y="157.2183">age</text><text fill="#FFE797" font-family="sans-serif" font-size="11" lengthAdjust="spacing" textLength="159" x="42" y="157.2183">: trafo.duration_to_datetime</text><text fill="#FFE797" font-family="sans-serif" font-size="11" font-weight="bold" lengthAdjust="spacing" textLength="39" x="18" y="180.0229">mtime</text><text fill="#FFE797" font-family="sans-serif" font-size="11" lengthAdjust="spacing" textLength="58" x="57" y="180.0229">: datetime</text><text fill="#FFE797" font-family="sans-serif" font-size="11" font-weight="bold" lengthAdjust="spacing" textLength="75" x="18" y="202.8276">last_update</text><text fill="#FFE797" font-family="sans-serif" font-size="11" lengthAdjust="spacing" textLength="159" x="93" y="202.8276">: trafo.duration_to_datetime</text><text fill="#FFE797" font-family="sans-serif" font-size="11" font-weight="bold" lengthAdjust="spacing" textLength="36" x="18" y="225.6323">atime</text><text fill="#FFE797" font-family="sans-serif" font-size="11" lengthAdjust="spacing" textLength="58" x="54" y="225.6323">: datetime</text><text fill="#FFE797" font-family="sans-serif" font-size="11" font-weight="bold" lengthAdjust="spacing" textLength="74" x="18" y="248.437">last_access</text><text fill="#FFE797" font-family="sans-serif" font-size="11" lengthAdjust="spacing" textLength="159" x="92" y="248.437">: trafo.duration_to_datetime</text><text fill="#FFE797" font-family="sans-serif" font-size="11" font-weight="bold" lengthAdjust="spacing" textLength="27" x="18" y="271.2417">kind</text><text fill="#FFE797" font-family="sans-serif" font-size="11" lengthAdjust="spacing" textLength="41" x="45" y="271.2417">: string</text><!--MD5=[96a667c91f46910544c8a4dd691a5f67]
class gcp_resource--><rect codeLine="29" fill="#194875" height="93.3984" id="gcp_resource" rx="2.5" ry="2.5" style="stroke:#000000;stroke-width:1.5;" width="169" x="267.5" y="404"/><ellipse cx="291.05" cy="423.8945" fill="#1A83AF" rx="11" ry="11" style="stroke:#000000;stroke-width:1.0;"/><path d="M294.0188,429.5352 Q293.4406,429.832 292.8,429.9727 Q292.1594,430.1289 291.4563,430.1289 Q288.9563,430.1289 287.6281,428.4883 Q286.3156,426.832 286.3156,423.707 Q286.3156,420.582 287.6281,418.9258 Q288.9563,417.2695 291.4563,417.2695 Q292.1594,417.2695 292.8,417.4258 Q293.4563,417.582 294.0188,417.8789 L294.0188,420.5977 Q293.3938,420.0195 292.8,419.7539 Q292.2063,419.4727 291.5813,419.4727 Q290.2375,419.4727 289.55,420.5508 Q288.8625,421.6133 288.8625,423.707 Q288.8625,425.8008 289.55,426.8789 Q290.2375,427.9414 291.5813,427.9414 Q292.2063,427.9414 292.8,427.6758 Q293.3938,427.3945 294.0188,426.8164 L294.0188,429.5352 Z " fill="#000000"/><text fill="#FFE797" font-family="Helvetica" font-size="17" lengthAdjust="spacing" textLength="108" x="311.95" y="429.7798">gcp_resource</text><line style="stroke:#000000;stroke-width:1.5;" x1="268.5" x2="435.5" y1="443.7891" y2="443.7891"/><text fill="#FFE797" font-family="sans-serif" font-size="11" font-weight="bold" lengthAdjust="spacing" textLength="23" x="278.5" y="462.9995">link</text><text fill="#FFE797" font-family="sans-serif" font-size="11" lengthAdjust="spacing" textLength="41" x="301.5" y="462.9995">: string</text><text fill="#FFE797" font-family="sans-serif" font-size="11" font-weight="bold" lengthAdjust="spacing" textLength="106" x="278.5" y="485.8042">label_fingerprint</text><text fill="#FFE797" font-family="sans-serif" font-size="11" lengthAdjust="spacing" textLength="41" x="384.5" y="485.8042">: string</text><!--MD5=[524a0d867f3f91bd9f824d8a37d28e16]
class autoscaling_group--><rect codeLine="33" fill="#194875" height="93.3984" id="autoscaling_group" rx="2.5" ry="2.5" style="stroke:#000000;stroke-width:1.5;" width="194" x="38" y="404"/><ellipse cx="53" cy="423.8945" fill="#1A83AF" rx="11" ry="11" style="stroke:#000000;stroke-width:1.0;"/><path d="M55.9688,429.5352 Q55.3906,429.832 54.75,429.9727 Q54.1094,430.1289 53.4063,430.1289 Q50.9063,430.1289 49.5781,428.4883 Q48.2656,426.832 48.2656,423.707 Q48.2656,420.582 49.5781,418.9258 Q50.9063,417.2695 53.4063,417.2695 Q54.1094,417.2695 54.75,417.4258 Q55.4063,417.582 55.9688,417.8789 L55.9688,420.5977 Q55.3438,420.0195 54.75,419.7539 Q54.1563,419.4727 53.5313,419.4727 Q52.1875,419.4727 51.5,420.5508 Q50.8125,421.6133 50.8125,423.707 Q50.8125,425.8008 51.5,426.8789 Q52.1875,427.9414 53.5313,427.9414 Q54.1563,427.9414 54.75,427.6758 Q55.3438,427.3945 55.9688,426.8164 L55.9688,429.5352 Z " fill="#000000"/><text fill="#FFE797" font-family="Helvetica" font-size="17" lengthAdjust="spacing" textLength="152" x="72" y="429.7798">autoscaling_group</text><line style="stroke:#000000;stroke-width:1.5;" x1="39" x2="231" y1="443.7891" y2="443.7891"/><text fill="#FFE797" font-family="sans-serif" font-size="11" font-weight="bold" lengthAdjust="spacing" textLength="55" x="49" y="462.9995">min_size</text><text fill="#FFE797" font-family="sans-serif" font-size="11" lengthAdjust="spacing" textLength="36" x="104" y="462.9995">: int64</text><text fill="#FFE797" font-family="sans-serif" font-size="11" font-weight="bold" lengthAdjust="spacing" textLength="58" x="49" y="485.8042">max_size</text><text fill="#FFE797" font-family="sans-serif" font-size="11" lengthAdjust="spacing" textLength="36" x="107" y="485.8042">: int64</text><!--MD5=[4f095a0b2a596b2c69ecd53cefd1c1d0]
class gcp_autoscaler--><rect codeLine="37" fill="#194875" height="39.7891" id="gcp_autoscaler" rx="2.5" ry="2.5" style="stroke:#000000;stroke-width:1.5;" width="165" x="160.5" y="618"/><ellipse cx="175.5" cy="637.8945" fill="#1A83AF" rx="11" ry="11" style="stroke:#000000;stroke-width:1.0;"/><path d="M178.4688,643.5352 Q177.8906,643.832 177.25,643.9727 Q176.6094,644.1289 175.9063,644.1289 Q173.4063,644.1289 172.0781,642.4883 Q170.7656,640.832 170.7656,637.707 Q170.7656,634.582 172.0781,632.9258 Q173.4063,631.2695 175.9063,631.2695 Q176.6094,631.2695 177.25,631.4258 Q177.9063,631.582 178.4688,631.8789 L178.4688,634.5977 Q177.8438,634.0195 177.25,633.7539 Q176.6563,633.4727 176.0313,633.4727 Q174.6875,633.4727 174,634.5508 Q173.3125,635.6133 173.3125,637.707 Q173.3125,639.8008 174,640.8789 Q174.6875,641.9414 176.0313,641.9414 Q176.6563,641.9414 177.25,641.6758 Q177.8438,641.3945 178.4688,640.8164 L178.4688,643.5352 Z " fill="#000000"/><text fill="#FFE797" font-family="Helvetica" font-size="17" lengthAdjust="spacing" textLength="123" x="194.5" y="643.7798">gcp_autoscaler</text><!--MD5=[300d2197a1ec4ee7c85286d308478953]
reverse link resource to autoscaling_group--><path codeLine="40" d="M135,303.23 C135,340.03 135,376.4 135,403.66 " fill="none" id="resource-backto-autoscaling_group" style="stroke:#FFAF37;stroke-width:2.0;"/><polygon fill="none" points="128,303.1,135,283.1,142,303.1,128,303.1" style="stroke:#FFAF37;stroke-width:2.0;"/><!--MD5=[3e919385a5e2126037e5996729e2a9e1]
reverse link gcp_resource to gcp_autoscaler--><path codeLine="41" d="M314.74,514.9 C293.61,550.87 268.61,593.41 254.4,617.6 " fill="none" id="gcp_resource-backto-gcp_autoscaler" style="stroke:#FFAF37;stroke-width:2.0;"/><polygon fill="none" points="308.89,511.05,325.06,497.35,320.96,518.14,308.89,511.05" style="stroke:#FFAF37;stroke-width:2.0;"/><!--MD5=[bcf0534e34fa99c742337b202aaed196]
reverse link autoscaling_group to gcp_autoscaler--><path codeLine="42" d="M171.91,514.9 C192.86,550.87 217.62,593.41 231.7,617.6 " fill="none" id="autoscaling_group-backto-gcp_autoscaler" style="stroke:#FFAF37;stroke-width:2.0;"/><polygon fill="none" points="165.71,518.16,161.7,497.35,177.81,511.12,165.71,518.16" style="stroke:#FFAF37;stroke-width:2.0;"/><!--MD5=[d17c4f0a65e1e7cab986546795934b0b]
@startuml
hide empty members
skinparam ArrowColor #ffaf37
skinparam ArrowThickness 2
skinparam BackgroundColor transparent
skinparam ClassAttributeFontColor #ffe797
skinparam ClassBackgroundColor #194875
skinparam ClassBorderColor Black
skinparam ClassFontColor #ffe797
skinparam ClassFontName Helvetica
skinparam ClassFontSize 17
skinparam Padding 5
skinparam RoundCorner 5
skinparam Shadowing false
skinparam stereotypeCBackgroundColor #1a83af
skinparam stereotypeIBackgroundColor #1a83af

class resource {
**id**: string
**tags**: dictionary[string, string]
**name**: string
**ctime**: datetime
**age**: trafo.duration_to_datetime
**mtime**: datetime
**last_update**: trafo.duration_to_datetime
**atime**: datetime
**last_access**: trafo.duration_to_datetime
**kind**: string
}
class gcp_resource {
**link**: string
**label_fingerprint**: string
}
class autoscaling_group {
**min_size**: int64
**max_size**: int64
}
class gcp_autoscaler {

}
resource <|- - - autoscaling_group
gcp_resource <|- - - gcp_autoscaler
autoscaling_group <|- - - gcp_autoscaler
@enduml

PlantUML version 1.2021.16(Wed Dec 08 17:25:22 UTC 2021)
(GPL source distribution)
Java Runtime: OpenJDK Runtime Environment
JVM: OpenJDK 64-Bit Server VM
Default Encoding: UTF-8
Language: en
Country: null
--></g></svg>