<svg xmlns="http://www.w3.org/2000/svg" xmlns:xlink="http://www.w3.org/1999/xlink" width="409" height="786" contentScriptType="application/ecmascript" contentStyleType="text/css" style="width:409px;height:786px;background:#00000000" preserveAspectRatio="none" version="1.1" viewBox="0 0 409 786" zoomAndPan="magnify"><g><rect id="resource" width="256" height="275.836" x="7" y="7" fill="#194875" codeLine="17" rx="2.5" ry="2.5" style="stroke:#000;stroke-width:1.5"/><ellipse cx="90.25" cy="26.895" fill="#1A83AF" rx="11" ry="11" style="stroke:#000;stroke-width:1"/><path fill="#000" d="M93.2188,32.5352 Q92.6406,32.832 92,32.9727 Q91.3594,33.1289 90.6563,33.1289 Q88.1563,33.1289 86.8281,31.4883 Q85.5156,29.832 85.5156,26.707 Q85.5156,23.582 86.8281,21.9258 Q88.1563,20.2695 90.6563,20.2695 Q91.3594,20.2695 92,20.4258 Q92.6563,20.582 93.2188,20.8789 L93.2188,23.5977 Q92.5938,23.0195 92,22.7539 Q91.4063,22.4727 90.7813,22.4727 Q89.4375,22.4727 88.75,23.5508 Q88.0625,24.6133 88.0625,26.707 Q88.0625,28.8008 88.75,29.8789 Q89.4375,30.9414 90.7813,30.9414 Q91.4063,30.9414 92,30.6758 Q92.5938,30.3945 93.2188,29.8164 L93.2188,32.5352 Z"/><text x="115.75" y="32.78" fill="#FFE797" font-family="Helvetica" font-size="17" lengthAdjust="spacing" textLength="71">resource</text><line style="stroke:#000;stroke-width:1.5" x1="8" x2="262" y1="46.789" y2="46.789"/><text x="18" y="65.999" fill="#FFE797" font-family="sans-serif" font-size="11" font-weight="bold" lengthAdjust="spacing" textLength="12">id</text><text x="30" y="65.999" fill="#FFE797" font-family="sans-serif" font-size="11" lengthAdjust="spacing" textLength="41">: string</text><text x="18" y="88.804" fill="#FFE797" font-family="sans-serif" font-size="11" font-weight="bold" lengthAdjust="spacing" textLength="28">tags</text><text x="46" y="88.804" fill="#FFE797" font-family="sans-serif" font-size="11" lengthAdjust="spacing" textLength="145">: dictionary[string, string]</text><text x="18" y="111.609" fill="#FFE797" font-family="sans-serif" font-size="11" font-weight="bold" lengthAdjust="spacing" textLength="35">name</text><text x="53" y="111.609" fill="#FFE797" font-family="sans-serif" font-size="11" lengthAdjust="spacing" textLength="41">: string</text><text x="18" y="134.414" fill="#FFE797" font-family="sans-serif" font-size="11" font-weight="bold" lengthAdjust="spacing" textLength="35">ctime</text><text x="53" y="134.414" fill="#FFE797" font-family="sans-serif" font-size="11" lengthAdjust="spacing" textLength="58">: datetime</text><text x="18" y="157.218" fill="#FFE797" font-family="sans-serif" font-size="11" font-weight="bold" lengthAdjust="spacing" textLength="24">age</text><text x="42" y="157.218" fill="#FFE797" font-family="sans-serif" font-size="11" lengthAdjust="spacing" textLength="159">: trafo.duration_to_datetime</text><text x="18" y="180.023" fill="#FFE797" font-family="sans-serif" font-size="11" font-weight="bold" lengthAdjust="spacing" textLength="39">mtime</text><text x="57" y="180.023" fill="#FFE797" font-family="sans-serif" font-size="11" lengthAdjust="spacing" textLength="58">: datetime</text><text x="18" y="202.828" fill="#FFE797" font-family="sans-serif" font-size="11" font-weight="bold" lengthAdjust="spacing" textLength="75">last_update</text><text x="93" y="202.828" fill="#FFE797" font-family="sans-serif" font-size="11" lengthAdjust="spacing" textLength="159">: trafo.duration_to_datetime</text><text x="18" y="225.632" fill="#FFE797" font-family="sans-serif" font-size="11" font-weight="bold" lengthAdjust="spacing" textLength="36">atime</text><text x="54" y="225.632" fill="#FFE797" font-family="sans-serif" font-size="11" lengthAdjust="spacing" textLength="58">: datetime</text><text x="18" y="248.437" fill="#FFE797" font-family="sans-serif" font-size="11" font-weight="bold" lengthAdjust="spacing" textLength="74">last_access</text><text x="92" y="248.437" fill="#FFE797" font-family="sans-serif" font-size="11" lengthAdjust="spacing" textLength="159">: trafo.duration_to_datetime</text><text x="18" y="271.242" fill="#FFE797" font-family="sans-serif" font-size="11" font-weight="bold" lengthAdjust="spacing" textLength="27">kind</text><text x="45" y="271.242" fill="#FFE797" font-family="sans-serif" font-size="11" lengthAdjust="spacing" textLength="41">: string</text><rect id="certificate" width="127" height="70.594" x="71.5" y="415" fill="#194875" codeLine="29" rx="2.5" ry="2.5" style="stroke:#000;stroke-width:1.5"/><ellipse cx="87.4" cy="434.894" fill="#1A83AF" rx="11" ry="11" style="stroke:#000;stroke-width:1"/><path fill="#000" d="M90.3688,440.5352 Q89.7906,440.832 89.15,440.9727 Q88.5094,441.1289 87.8063,441.1289 Q85.3063,441.1289 83.9781,439.4883 Q82.6656,437.832 82.6656,434.707 Q82.6656,431.582 83.9781,429.9258 Q85.3063,428.2695 87.8063,428.2695 Q88.5094,428.2695 89.15,428.4258 Q89.8063,428.582 90.3688,428.8789 L90.3688,431.5977 Q89.7438,431.0195 89.15,430.7539 Q88.5563,430.4727 87.9313,430.4727 Q86.5875,430.4727 85.9,431.5508 Q85.2125,432.6133 85.2125,434.707 Q85.2125,436.8008 85.9,437.8789 Q86.5875,438.9414 87.9313,438.9414 Q88.5563,438.9414 89.15,438.6758 Q89.7438,438.3945 90.3688,437.8164 L90.3688,440.5352 Z"/><text x="106.6" y="440.78" fill="#FFE797" font-family="Helvetica" font-size="17" lengthAdjust="spacing" textLength="83">certificate</text><line style="stroke:#000;stroke-width:1.5" x1="72.5" x2="197.5" y1="454.789" y2="454.789"/><text x="82.5" y="474" fill="#FFE797" font-family="sans-serif" font-size="11" font-weight="bold" lengthAdjust="spacing" textLength="47">expires</text><text x="129.5" y="474" fill="#FFE797" font-family="sans-serif" font-size="11" lengthAdjust="spacing" textLength="58">: datetime</text><rect id="gcp_resource" width="169" height="93.398" x="233.5" y="404" fill="#194875" codeLine="32" rx="2.5" ry="2.5" style="stroke:#000;stroke-width:1.5"/><ellipse cx="257.05" cy="423.894" fill="#1A83AF" rx="11" ry="11" style="stroke:#000;stroke-width:1"/><path fill="#000" d="M260.0188,429.5352 Q259.4406,429.832 258.8,429.9727 Q258.1594,430.1289 257.4563,430.1289 Q254.9563,430.1289 253.6281,428.4883 Q252.3156,426.832 252.3156,423.707 Q252.3156,420.582 253.6281,418.9258 Q254.9563,417.2695 257.4563,417.2695 Q258.1594,417.2695 258.8,417.4258 Q259.4563,417.582 260.0188,417.8789 L260.0188,420.5977 Q259.3938,420.0195 258.8,419.7539 Q258.2063,419.4727 257.5813,419.4727 Q256.2375,419.4727 255.55,420.5508 Q254.8625,421.6133 254.8625,423.707 Q254.8625,425.8008 255.55,426.8789 Q256.2375,427.9414 257.5813,427.9414 Q258.2063,427.9414 258.8,427.6758 Q259.3938,427.3945 260.0188,426.8164 L260.0188,429.5352 Z"/><text x="277.95" y="429.78" fill="#FFE797" font-family="Helvetica" font-size="17" lengthAdjust="spacing" textLength="108">gcp_resource</text><line style="stroke:#000;stroke-width:1.5" x1="234.5" x2="401.5" y1="443.789" y2="443.789"/><text x="244.5" y="463" fill="#FFE797" font-family="sans-serif" font-size="11" font-weight="bold" lengthAdjust="spacing" textLength="23">link</text><text x="267.5" y="463" fill="#FFE797" font-family="sans-serif" font-size="11" lengthAdjust="spacing" textLength="41">: string</text><text x="244.5" y="485.804" fill="#FFE797" font-family="sans-serif" font-size="11" font-weight="bold" lengthAdjust="spacing" textLength="106">label_fingerprint</text><text x="350.5" y="485.804" fill="#FFE797" font-family="sans-serif" font-size="11" lengthAdjust="spacing" textLength="41">: string</text><rect id="gcp_ssl_certificate" width="272" height="161.813" x="118" y="618" fill="#194875" codeLine="36" rx="2.5" ry="2.5" style="stroke:#000;stroke-width:1.5"/><ellipse cx="169.75" cy="637.894" fill="#1A83AF" rx="11" ry="11" style="stroke:#000;stroke-width:1"/><path fill="#000" d="M172.7188,643.5352 Q172.1406,643.832 171.5,643.9727 Q170.8594,644.1289 170.1563,644.1289 Q167.6563,644.1289 166.3281,642.4883 Q165.0156,640.832 165.0156,637.707 Q165.0156,634.582 166.3281,632.9258 Q167.6563,631.2695 170.1563,631.2695 Q170.8594,631.2695 171.5,631.4258 Q172.1563,631.582 172.7188,631.8789 L172.7188,634.5977 Q172.0938,634.0195 171.5,633.7539 Q170.9063,633.4727 170.2813,633.4727 Q168.9375,633.4727 168.25,634.5508 Q167.5625,635.6133 167.5625,637.707 Q167.5625,639.8008 168.25,640.8789 Q168.9375,641.9414 170.2813,641.9414 Q170.9063,641.9414 171.5,641.6758 Q172.0938,641.3945 172.7188,640.8164 L172.7188,643.5352 Z"/><text x="195.25" y="643.78" fill="#FFE797" font-family="Helvetica" font-size="17" lengthAdjust="spacing" textLength="150">gcp_ssl_certificate</text><line style="stroke:#000;stroke-width:1.5" x1="119" x2="389" y1="657.789" y2="657.789"/><text x="129" y="677" fill="#FFE797" font-family="sans-serif" font-size="11" font-weight="bold" lengthAdjust="spacing" textLength="72">description</text><text x="201" y="677" fill="#FFE797" font-family="sans-serif" font-size="11" lengthAdjust="spacing" textLength="41">: string</text><text x="129" y="699.804" fill="#FFE797" font-family="sans-serif" font-size="11" font-weight="bold" lengthAdjust="spacing" textLength="66">certificate</text><text x="195" y="699.804" fill="#FFE797" font-family="sans-serif" font-size="11" lengthAdjust="spacing" textLength="41">: string</text><text x="129" y="722.609" fill="#FFE797" font-family="sans-serif" font-size="11" font-weight="bold" lengthAdjust="spacing" textLength="100">certificate_type</text><text x="229" y="722.609" fill="#FFE797" font-family="sans-serif" font-size="11" lengthAdjust="spacing" textLength="41">: string</text><text x="129" y="745.414" fill="#FFE797" font-family="sans-serif" font-size="11" font-weight="bold" lengthAdjust="spacing" textLength="131">certificate_managed</text><text x="260" y="745.414" fill="#FFE797" font-family="sans-serif" font-size="11" lengthAdjust="spacing" textLength="119">: dictionary[any, any]</text><text x="129" y="768.218" fill="#FFE797" font-family="sans-serif" font-size="11" font-weight="bold" lengthAdjust="spacing" textLength="171">subject_alternative_names</text><text x="300" y="768.218" fill="#FFE797" font-family="sans-serif" font-size="11" lengthAdjust="spacing" textLength="49">: string[]</text><path id="resource-backto-certificate" fill="none" d="M135,303.13 C135,345.33 135,386.96 135,414.97" codeLine="43" style="stroke:#ffaf37;stroke-width:2"/><polygon fill="none" points="128 303.1 135 283.1 142 303.1 128 303.1" style="stroke:#ffaf37;stroke-width:2"/><path id="gcp_resource-backto-gcp_ssl_certificate" fill="none" d="M300.98,517.04 C292.97,547.89 283.34,584.98 274.89,617.53" codeLine="44" style="stroke:#ffaf37;stroke-width:2"/><polygon fill="none" points="294.31 514.89 306.11 497.29 307.86 518.4 294.31 514.89" style="stroke:#ffaf37;stroke-width:2"/><path id="certificate-backto-gcp_ssl_certificate" fill="none" d="M160.45,504.22 C176.44,537.33 197.36,580.68 215.37,617.98" codeLine="45" style="stroke:#ffaf37;stroke-width:2"/><polygon fill="none" points="154.06 507.09 151.67 486.03 166.67 501 154.06 507.09" style="stroke:#ffaf37;stroke-width:2"/></g></svg>