<svg xmlns="http://www.w3.org/2000/svg" xmlns:xlink="http://www.w3.org/1999/xlink" width="435" height="1291" contentScriptType="application/ecmascript" contentStyleType="text/css" style="width:435px;height:1291px;background:#00000000" preserveAspectRatio="none" version="1.1" viewBox="0 0 435 1291" zoomAndPan="magnify"><g><rect id="phantom_resource" width="198" height="39.789" x="201.5" y="404" fill="#194875" codeLine="17" rx="2.5" ry="2.5" style="stroke:#000;stroke-width:1.5"/><ellipse cx="216.5" cy="423.894" fill="#1A83AF" rx="11" ry="11" style="stroke:#000;stroke-width:1"/><path fill="#000" d="M219.4688,429.5352 Q218.8906,429.832 218.25,429.9727 Q217.6094,430.1289 216.9063,430.1289 Q214.4063,430.1289 213.0781,428.4883 Q211.7656,426.832 211.7656,423.707 Q211.7656,420.582 213.0781,418.9258 Q214.4063,417.2695 216.9063,417.2695 Q217.6094,417.2695 218.25,417.4258 Q218.9063,417.582 219.4688,417.8789 L219.4688,420.5977 Q218.8438,420.0195 218.25,419.7539 Q217.6563,419.4727 217.0313,419.4727 Q215.6875,419.4727 215,420.5508 Q214.3125,421.6133 214.3125,423.707 Q214.3125,425.8008 215,426.8789 Q215.6875,427.9414 217.0313,427.9414 Q217.6563,427.9414 218.25,427.6758 Q218.8438,427.3945 219.4688,426.8164 L219.4688,429.5352 Z"/><text x="235.5" y="429.78" fill="#FFE797" font-family="Helvetica" font-size="17" lengthAdjust="spacing" textLength="156">phantom_resource</text><rect id="resource" width="256" height="275.836" x="172.5" y="7" fill="#194875" codeLine="20" rx="2.5" ry="2.5" style="stroke:#000;stroke-width:1.5"/><ellipse cx="255.75" cy="26.895" fill="#1A83AF" rx="11" ry="11" style="stroke:#000;stroke-width:1"/><path fill="#000" d="M258.7188,32.5352 Q258.1406,32.832 257.5,32.9727 Q256.8594,33.1289 256.1563,33.1289 Q253.6563,33.1289 252.3281,31.4883 Q251.0156,29.832 251.0156,26.707 Q251.0156,23.582 252.3281,21.9258 Q253.6563,20.2695 256.1563,20.2695 Q256.8594,20.2695 257.5,20.4258 Q258.1563,20.582 258.7188,20.8789 L258.7188,23.5977 Q258.0938,23.0195 257.5,22.7539 Q256.9063,22.4727 256.2813,22.4727 Q254.9375,22.4727 254.25,23.5508 Q253.5625,24.6133 253.5625,26.707 Q253.5625,28.8008 254.25,29.8789 Q254.9375,30.9414 256.2813,30.9414 Q256.9063,30.9414 257.5,30.6758 Q258.0938,30.3945 258.7188,29.8164 L258.7188,32.5352 Z"/><text x="281.25" y="32.78" fill="#FFE797" font-family="Helvetica" font-size="17" lengthAdjust="spacing" textLength="71">resource</text><line style="stroke:#000;stroke-width:1.5" x1="173.5" x2="427.5" y1="46.789" y2="46.789"/><text x="183.5" y="65.999" fill="#FFE797" font-family="sans-serif" font-size="11" font-weight="bold" lengthAdjust="spacing" textLength="12">id</text><text x="195.5" y="65.999" fill="#FFE797" font-family="sans-serif" font-size="11" lengthAdjust="spacing" textLength="41">: string</text><text x="183.5" y="88.804" fill="#FFE797" font-family="sans-serif" font-size="11" font-weight="bold" lengthAdjust="spacing" textLength="28">tags</text><text x="211.5" y="88.804" fill="#FFE797" font-family="sans-serif" font-size="11" lengthAdjust="spacing" textLength="145">: dictionary[string, string]</text><text x="183.5" y="111.609" fill="#FFE797" font-family="sans-serif" font-size="11" font-weight="bold" lengthAdjust="spacing" textLength="35">name</text><text x="218.5" y="111.609" fill="#FFE797" font-family="sans-serif" font-size="11" lengthAdjust="spacing" textLength="41">: string</text><text x="183.5" y="134.414" fill="#FFE797" font-family="sans-serif" font-size="11" font-weight="bold" lengthAdjust="spacing" textLength="35">ctime</text><text x="218.5" y="134.414" fill="#FFE797" font-family="sans-serif" font-size="11" lengthAdjust="spacing" textLength="58">: datetime</text><text x="183.5" y="157.218" fill="#FFE797" font-family="sans-serif" font-size="11" font-weight="bold" lengthAdjust="spacing" textLength="24">age</text><text x="207.5" y="157.218" fill="#FFE797" font-family="sans-serif" font-size="11" lengthAdjust="spacing" textLength="159">: trafo.duration_to_datetime</text><text x="183.5" y="180.023" fill="#FFE797" font-family="sans-serif" font-size="11" font-weight="bold" lengthAdjust="spacing" textLength="39">mtime</text><text x="222.5" y="180.023" fill="#FFE797" font-family="sans-serif" font-size="11" lengthAdjust="spacing" textLength="58">: datetime</text><text x="183.5" y="202.828" fill="#FFE797" font-family="sans-serif" font-size="11" font-weight="bold" lengthAdjust="spacing" textLength="75">last_update</text><text x="258.5" y="202.828" fill="#FFE797" font-family="sans-serif" font-size="11" lengthAdjust="spacing" textLength="159">: trafo.duration_to_datetime</text><text x="183.5" y="225.632" fill="#FFE797" font-family="sans-serif" font-size="11" font-weight="bold" lengthAdjust="spacing" textLength="36">atime</text><text x="219.5" y="225.632" fill="#FFE797" font-family="sans-serif" font-size="11" lengthAdjust="spacing" textLength="58">: datetime</text><text x="183.5" y="248.437" fill="#FFE797" font-family="sans-serif" font-size="11" font-weight="bold" lengthAdjust="spacing" textLength="74">last_access</text><text x="257.5" y="248.437" fill="#FFE797" font-family="sans-serif" font-size="11" lengthAdjust="spacing" textLength="159">: trafo.duration_to_datetime</text><text x="183.5" y="271.242" fill="#FFE797" font-family="sans-serif" font-size="11" font-weight="bold" lengthAdjust="spacing" textLength="27">kind</text><text x="210.5" y="271.242" fill="#FFE797" font-family="sans-serif" font-size="11" lengthAdjust="spacing" textLength="41">: string</text><rect id="gcp_resource" width="169" height="93.398" x="7" y="997.5" fill="#194875" codeLine="32" rx="2.5" ry="2.5" style="stroke:#000;stroke-width:1.5"/><ellipse cx="30.55" cy="1017.394" fill="#1A83AF" rx="11" ry="11" style="stroke:#000;stroke-width:1"/><path fill="#000" d="M33.5188,1023.0352 Q32.9406,1023.332 32.3,1023.4727 Q31.6594,1023.6289 30.9563,1023.6289 Q28.4563,1023.6289 27.1281,1021.9883 Q25.8156,1020.332 25.8156,1017.207 Q25.8156,1014.082 27.1281,1012.4258 Q28.4563,1010.7695 30.9563,1010.7695 Q31.6594,1010.7695 32.3,1010.9258 Q32.9563,1011.082 33.5188,1011.3789 L33.5188,1014.0977 Q32.8938,1013.5195 32.3,1013.2539 Q31.7063,1012.9727 31.0813,1012.9727 Q29.7375,1012.9727 29.05,1014.0508 Q28.3625,1015.1133 28.3625,1017.207 Q28.3625,1019.3008 29.05,1020.3789 Q29.7375,1021.4414 31.0813,1021.4414 Q31.7063,1021.4414 32.3,1021.1758 Q32.8938,1020.8945 33.5188,1020.3164 L33.5188,1023.0352 Z"/><text x="51.45" y="1023.28" fill="#FFE797" font-family="Helvetica" font-size="17" lengthAdjust="spacing" textLength="108">gcp_resource</text><line style="stroke:#000;stroke-width:1.5" x1="8" x2="175" y1="1037.289" y2="1037.289"/><text x="18" y="1056.499" fill="#FFE797" font-family="sans-serif" font-size="11" font-weight="bold" lengthAdjust="spacing" textLength="23">link</text><text x="41" y="1056.499" fill="#FFE797" font-family="sans-serif" font-size="11" lengthAdjust="spacing" textLength="41">: string</text><text x="18" y="1079.304" fill="#FFE797" font-family="sans-serif" font-size="11" font-weight="bold" lengthAdjust="spacing" textLength="106">label_fingerprint</text><text x="124" y="1079.304" fill="#FFE797" font-family="sans-serif" font-size="11" lengthAdjust="spacing" textLength="41">: string</text><rect id="instance_type" width="179" height="161.813" x="211" y="963" fill="#194875" codeLine="36" rx="2.5" ry="2.5" style="stroke:#000;stroke-width:1.5"/><ellipse cx="235.45" cy="982.894" fill="#1A83AF" rx="11" ry="11" style="stroke:#000;stroke-width:1"/><path fill="#000" d="M238.4188,988.5352 Q237.8406,988.832 237.2,988.9727 Q236.5594,989.1289 235.8563,989.1289 Q233.3563,989.1289 232.0281,987.4883 Q230.7156,985.832 230.7156,982.707 Q230.7156,979.582 232.0281,977.9258 Q233.3563,976.2695 235.8563,976.2695 Q236.5594,976.2695 237.2,976.4258 Q237.8563,976.582 238.4188,976.8789 L238.4188,979.5977 Q237.7938,979.0195 237.2,978.7539 Q236.6063,978.4727 235.9813,978.4727 Q234.6375,978.4727 233.95,979.5508 Q233.2625,980.6133 233.2625,982.707 Q233.2625,984.8008 233.95,985.8789 Q234.6375,986.9414 235.9813,986.9414 Q236.6063,986.9414 237.2,986.6758 Q237.7938,986.3945 238.4188,985.8164 L238.4188,988.5352 Z"/><text x="256.55" y="988.78" fill="#FFE797" font-family="Helvetica" font-size="17" lengthAdjust="spacing" textLength="116">instance_type</text><line style="stroke:#000;stroke-width:1.5" x1="212" x2="389" y1="1002.789" y2="1002.789"/><text x="222" y="1022" fill="#FFE797" font-family="sans-serif" font-size="11" font-weight="bold" lengthAdjust="spacing" textLength="89">instance_type</text><text x="311" y="1022" fill="#FFE797" font-family="sans-serif" font-size="11" lengthAdjust="spacing" textLength="41">: string</text><text x="222" y="1044.804" fill="#FFE797" font-family="sans-serif" font-size="11" font-weight="bold" lengthAdjust="spacing" textLength="96">instance_cores</text><text x="318" y="1044.804" fill="#FFE797" font-family="sans-serif" font-size="11" lengthAdjust="spacing" textLength="46">: double</text><text x="222" y="1067.609" fill="#FFE797" font-family="sans-serif" font-size="11" font-weight="bold" lengthAdjust="spacing" textLength="111">instance_memory</text><text x="333" y="1067.609" fill="#FFE797" font-family="sans-serif" font-size="11" lengthAdjust="spacing" textLength="46">: double</text><text x="222" y="1090.414" fill="#FFE797" font-family="sans-serif" font-size="11" font-weight="bold" lengthAdjust="spacing" textLength="100">ondemand_cost</text><text x="322" y="1090.414" fill="#FFE797" font-family="sans-serif" font-size="11" lengthAdjust="spacing" textLength="46">: double</text><text x="222" y="1113.218" fill="#FFE797" font-family="sans-serif" font-size="11" font-weight="bold" lengthAdjust="spacing" textLength="80">reservations</text><text x="302" y="1113.218" fill="#FFE797" font-family="sans-serif" font-size="11" lengthAdjust="spacing" textLength="36">: int64</text><rect id="type" width="79" height="39.789" x="261" y="802" fill="#194875" codeLine="43" rx="2.5" ry="2.5" style="stroke:#000;stroke-width:1.5"/><ellipse cx="276" cy="821.894" fill="#1A83AF" rx="11" ry="11" style="stroke:#000;stroke-width:1"/><path fill="#000" d="M278.9688,827.5352 Q278.3906,827.832 277.75,827.9727 Q277.1094,828.1289 276.4063,828.1289 Q273.9063,828.1289 272.5781,826.4883 Q271.2656,824.832 271.2656,821.707 Q271.2656,818.582 272.5781,816.9258 Q273.9063,815.2695 276.4063,815.2695 Q277.1094,815.2695 277.75,815.4258 Q278.4063,815.582 278.9688,815.8789 L278.9688,818.5977 Q278.3438,818.0195 277.75,817.7539 Q277.1563,817.4727 276.5313,817.4727 Q275.1875,817.4727 274.5,818.5508 Q273.8125,819.6133 273.8125,821.707 Q273.8125,823.8008 274.5,824.8789 Q275.1875,825.9414 276.5313,825.9414 Q277.1563,825.9414 277.75,825.6758 Q278.3438,825.3945 278.9688,824.8164 L278.9688,827.5352 Z"/><text x="295" y="827.78" fill="#FFE797" font-family="Helvetica" font-size="17" lengthAdjust="spacing" textLength="37">type</text><rect id="quota" width="134" height="116.203" x="233.5" y="565" fill="#194875" codeLine="46" rx="2.5" ry="2.5" style="stroke:#000;stroke-width:1.5"/><ellipse cx="268.3" cy="584.894" fill="#1A83AF" rx="11" ry="11" style="stroke:#000;stroke-width:1"/><path fill="#000" d="M271.2688,590.5352 Q270.6906,590.832 270.05,590.9727 Q269.4094,591.1289 268.7063,591.1289 Q266.2063,591.1289 264.8781,589.4883 Q263.5656,587.832 263.5656,584.707 Q263.5656,581.582 264.8781,579.9258 Q266.2063,578.2695 268.7063,578.2695 Q269.4094,578.2695 270.05,578.4258 Q270.7063,578.582 271.2688,578.8789 L271.2688,581.5977 Q270.6438,581.0195 270.05,580.7539 Q269.4563,580.4727 268.8313,580.4727 Q267.4875,580.4727 266.8,581.5508 Q266.1125,582.6133 266.1125,584.707 Q266.1125,586.8008 266.8,587.8789 Q267.4875,588.9414 268.8313,588.9414 Q269.4563,588.9414 270.05,588.6758 Q270.6438,588.3945 271.2688,587.8164 L271.2688,590.5352 Z"/><text x="291.7" y="590.78" fill="#FFE797" font-family="Helvetica" font-size="17" lengthAdjust="spacing" textLength="48">quota</text><line style="stroke:#000;stroke-width:1.5" x1="234.5" x2="366.5" y1="604.789" y2="604.789"/><text x="244.5" y="624" fill="#FFE797" font-family="sans-serif" font-size="11" font-weight="bold" lengthAdjust="spacing" textLength="37">quota</text><text x="281.5" y="624" fill="#FFE797" font-family="sans-serif" font-size="11" lengthAdjust="spacing" textLength="46">: double</text><text x="244.5" y="646.804" fill="#FFE797" font-family="sans-serif" font-size="11" font-weight="bold" lengthAdjust="spacing" textLength="39">usage</text><text x="283.5" y="646.804" fill="#FFE797" font-family="sans-serif" font-size="11" lengthAdjust="spacing" textLength="46">: double</text><text x="244.5" y="669.609" fill="#FFE797" font-family="sans-serif" font-size="11" font-weight="bold" lengthAdjust="spacing" textLength="71">quota_type</text><text x="315.5" y="669.609" fill="#FFE797" font-family="sans-serif" font-size="11" lengthAdjust="spacing" textLength="41">: string</text><rect id="gcp_machine_type" width="197" height="39.789" x="28" y="1246" fill="#194875" codeLine="51" rx="2.5" ry="2.5" style="stroke:#000;stroke-width:1.5"/><ellipse cx="43" cy="1265.895" fill="#1A83AF" rx="11" ry="11" style="stroke:#000;stroke-width:1"/><path fill="#000" d="M45.9688,1271.5352 Q45.3906,1271.832 44.75,1271.9727 Q44.1094,1272.1289 43.4063,1272.1289 Q40.9063,1272.1289 39.5781,1270.4883 Q38.2656,1268.832 38.2656,1265.707 Q38.2656,1262.582 39.5781,1260.9258 Q40.9063,1259.2695 43.4063,1259.2695 Q44.1094,1259.2695 44.75,1259.4258 Q45.4063,1259.582 45.9688,1259.8789 L45.9688,1262.5977 Q45.3438,1262.0195 44.75,1261.7539 Q44.1563,1261.4727 43.5313,1261.4727 Q42.1875,1261.4727 41.5,1262.5508 Q40.8125,1263.6133 40.8125,1265.707 Q40.8125,1267.8008 41.5,1268.8789 Q42.1875,1269.9414 43.5313,1269.9414 Q44.1563,1269.9414 44.75,1269.6758 Q45.3438,1269.3945 45.9688,1268.8164 L45.9688,1271.5352 Z"/><text x="62" y="1271.78" fill="#FFE797" font-family="Helvetica" font-size="17" lengthAdjust="spacing" textLength="155">gcp_machine_type</text><path id="resource-backto-phantom_resource" fill="none" d="M300.5,303.48 C300.5,343.73 300.5,381.81 300.5,403.75" codeLine="54" style="stroke:#ffaf37;stroke-width:2"/><polygon fill="none" points="293.5 303.28 300.5 283.28 307.5 303.28 293.5 303.28" style="stroke:#ffaf37;stroke-width:2"/><path id="type-backto-instance_type" fill="none" d="M300.5,862.38 C300.5,890.28 300.5,928.68 300.5,962.9" codeLine="55" style="stroke:#ffaf37;stroke-width:2"/><polygon fill="none" points="293.5 862.14 300.5 842.14 307.5 862.14 293.5 862.14" style="stroke:#ffaf37;stroke-width:2"/><path id="quota-backto-type" fill="none" d="M300.5,701.27 C300.5,737.8 300.5,778.42 300.5,801.71" codeLine="56" style="stroke:#ffaf37;stroke-width:2"/><polygon fill="none" points="293.5 701.25 300.5 681.25 307.5 701.25 293.5 701.25" style="stroke:#ffaf37;stroke-width:2"/><path id="phantom_resource-backto-quota" fill="none" d="M300.5,464.28 C300.5,493.07 300.5,532.58 300.5,564.86" codeLine="57" style="stroke:#ffaf37;stroke-width:2"/><polygon fill="none" points="293.5 464.25 300.5 444.25 307.5 464.25 293.5 464.25" style="stroke:#ffaf37;stroke-width:2"/><path id="gcp_resource-backto-gcp_machine_type" fill="none" d="M101.92,1110.51 C109.29,1156.83 118.68,1215.82 123.44,1245.74" codeLine="58" style="stroke:#ffaf37;stroke-width:2"/><polygon fill="none" points="94.98 1111.44 98.75 1090.58 108.81 1109.24 94.98 1111.44" style="stroke:#ffaf37;stroke-width:2"/><path id="instance_type-backto-gcp_machine_type" fill="none" d="M224.71,1140.83 C193.58,1180.18 160.51,1222 141.79,1245.67" codeLine="59" style="stroke:#ffaf37;stroke-width:2"/><polygon fill="none" points="219.29 1136.39 237.19 1125.05 230.27 1145.08 219.29 1136.39" style="stroke:#ffaf37;stroke-width:2"/></g></svg>