<?xml version="1.0" encoding="UTF-8" standalone="no"?><svg xmlns="http://www.w3.org/2000/svg" xmlns:xlink="http://www.w3.org/1999/xlink" contentScriptType="application/ecmascript" contentStyleType="text/css" height="107px" preserveAspectRatio="none" style="width:183px;height:107px;background:#00000000;" version="1.1" viewBox="0 0 183 107" width="183px" zoomAndPan="magnify"><defs/><g><!--MD5=[96a667c91f46910544c8a4dd691a5f67]
class gcp_resource--><rect codeLine="17" fill="#194875" height="93.3984" id="gcp_resource" rx="2.5" ry="2.5" style="stroke:#000000;stroke-width:1.5;" width="169" x="7" y="7"/><ellipse cx="30.55" cy="26.8945" fill="#1A83AF" rx="11" ry="11" style="stroke:#000000;stroke-width:1.0;"/><path d="M33.5188,32.5352 Q32.9406,32.832 32.3,32.9727 Q31.6594,33.1289 30.9563,33.1289 Q28.4563,33.1289 27.1281,31.4883 Q25.8156,29.832 25.8156,26.707 Q25.8156,23.582 27.1281,21.9258 Q28.4563,20.2695 30.9563,20.2695 Q31.6594,20.2695 32.3,20.4258 Q32.9563,20.582 33.5188,20.8789 L33.5188,23.5977 Q32.8938,23.0195 32.3,22.7539 Q31.7063,22.4727 31.0813,22.4727 Q29.7375,22.4727 29.05,23.5508 Q28.3625,24.6133 28.3625,26.707 Q28.3625,28.8008 29.05,29.8789 Q29.7375,30.9414 31.0813,30.9414 Q31.7063,30.9414 32.3,30.6758 Q32.8938,30.3945 33.5188,29.8164 L33.5188,32.5352 Z " fill="#000000"/><text fill="#FFE797" font-family="Helvetica" font-size="17" lengthAdjust="spacing" textLength="108" x="51.45" y="32.7798">gcp_resource</text><line style="stroke:#000000;stroke-width:1.5;" x1="8" x2="175" y1="46.7891" y2="46.7891"/><text fill="#FFE797" font-family="sans-serif" font-size="11" font-weight="bold" lengthAdjust="spacing" textLength="23" x="18" y="65.9995">link</text><text fill="#FFE797" font-family="sans-serif" font-size="11" lengthAdjust="spacing" textLength="41" x="41" y="65.9995">: string</text><text fill="#FFE797" font-family="sans-serif" font-size="11" font-weight="bold" lengthAdjust="spacing" textLength="106" x="18" y="88.8042">label_fingerprint</text><text fill="#FFE797" font-family="sans-serif" font-size="11" lengthAdjust="spacing" textLength="41" x="124" y="88.8042">: string</text><!--MD5=[15768e9e401ad99909c42dd7b65c5025]
@startuml
hide empty members
skinparam ArrowColor #ffaf37
skinparam ArrowThickness 2
skinparam BackgroundColor transparent
skinparam ClassAttributeFontColor #ffe797
skinparam ClassBackgroundColor #194875
skinparam ClassBorderColor Black
skinparam ClassFontColor #ffe797
skinparam ClassFontName Helvetica
skinparam ClassFontSize 17
skinparam Padding 5
skinparam RoundCorner 5
skinparam Shadowing false
skinparam stereotypeCBackgroundColor #1a83af
skinparam stereotypeIBackgroundColor #1a83af

class gcp_resource {
**link**: string
**label_fingerprint**: string
}
@enduml

PlantUML version 1.2021.16(Wed Dec 08 17:25:22 UTC 2021)
(GPL source distribution)
Java Runtime: OpenJDK Runtime Environment
JVM: OpenJDK 64-Bit Server VM
Default Encoding: UTF-8
Language: en
Country: null
--></g></svg>