<svg xmlns="http://www.w3.org/2000/svg" xmlns:xlink="http://www.w3.org/1999/xlink" width="424" height="786" contentScriptType="application/ecmascript" contentStyleType="text/css" style="width:424px;height:786px;background:#00000000" preserveAspectRatio="none" version="1.1" viewBox="0 0 424 786" zoomAndPan="magnify"><g><rect id="resource" width="256" height="275.836" x="7" y="7" fill="#194875" codeLine="17" rx="2.5" ry="2.5" style="stroke:#000;stroke-width:1.5"/><ellipse cx="90.25" cy="26.895" fill="#1A83AF" rx="11" ry="11" style="stroke:#000;stroke-width:1"/><path fill="#000" d="M93.2188,32.5352 Q92.6406,32.832 92,32.9727 Q91.3594,33.1289 90.6563,33.1289 Q88.1563,33.1289 86.8281,31.4883 Q85.5156,29.832 85.5156,26.707 Q85.5156,23.582 86.8281,21.9258 Q88.1563,20.2695 90.6563,20.2695 Q91.3594,20.2695 92,20.4258 Q92.6563,20.582 93.2188,20.8789 L93.2188,23.5977 Q92.5938,23.0195 92,22.7539 Q91.4063,22.4727 90.7813,22.4727 Q89.4375,22.4727 88.75,23.5508 Q88.0625,24.6133 88.0625,26.707 Q88.0625,28.8008 88.75,29.8789 Q89.4375,30.9414 90.7813,30.9414 Q91.4063,30.9414 92,30.6758 Q92.5938,30.3945 93.2188,29.8164 L93.2188,32.5352 Z"/><text x="115.75" y="32.78" fill="#FFE797" font-family="Helvetica" font-size="17" lengthAdjust="spacing" textLength="71">resource</text><line style="stroke:#000;stroke-width:1.5" x1="8" x2="262" y1="46.789" y2="46.789"/><text x="18" y="65.999" fill="#FFE797" font-family="sans-serif" font-size="11" font-weight="bold" lengthAdjust="spacing" textLength="12">id</text><text x="30" y="65.999" fill="#FFE797" font-family="sans-serif" font-size="11" lengthAdjust="spacing" textLength="41">: string</text><text x="18" y="88.804" fill="#FFE797" font-family="sans-serif" font-size="11" font-weight="bold" lengthAdjust="spacing" textLength="28">tags</text><text x="46" y="88.804" fill="#FFE797" font-family="sans-serif" font-size="11" lengthAdjust="spacing" textLength="145">: dictionary[string, string]</text><text x="18" y="111.609" fill="#FFE797" font-family="sans-serif" font-size="11" font-weight="bold" lengthAdjust="spacing" textLength="35">name</text><text x="53" y="111.609" fill="#FFE797" font-family="sans-serif" font-size="11" lengthAdjust="spacing" textLength="41">: string</text><text x="18" y="134.414" fill="#FFE797" font-family="sans-serif" font-size="11" font-weight="bold" lengthAdjust="spacing" textLength="35">ctime</text><text x="53" y="134.414" fill="#FFE797" font-family="sans-serif" font-size="11" lengthAdjust="spacing" textLength="58">: datetime</text><text x="18" y="157.218" fill="#FFE797" font-family="sans-serif" font-size="11" font-weight="bold" lengthAdjust="spacing" textLength="24">age</text><text x="42" y="157.218" fill="#FFE797" font-family="sans-serif" font-size="11" lengthAdjust="spacing" textLength="159">: trafo.duration_to_datetime</text><text x="18" y="180.023" fill="#FFE797" font-family="sans-serif" font-size="11" font-weight="bold" lengthAdjust="spacing" textLength="39">mtime</text><text x="57" y="180.023" fill="#FFE797" font-family="sans-serif" font-size="11" lengthAdjust="spacing" textLength="58">: datetime</text><text x="18" y="202.828" fill="#FFE797" font-family="sans-serif" font-size="11" font-weight="bold" lengthAdjust="spacing" textLength="75">last_update</text><text x="93" y="202.828" fill="#FFE797" font-family="sans-serif" font-size="11" lengthAdjust="spacing" textLength="159">: trafo.duration_to_datetime</text><text x="18" y="225.632" fill="#FFE797" font-family="sans-serif" font-size="11" font-weight="bold" lengthAdjust="spacing" textLength="36">atime</text><text x="54" y="225.632" fill="#FFE797" font-family="sans-serif" font-size="11" lengthAdjust="spacing" textLength="58">: datetime</text><text x="18" y="248.437" fill="#FFE797" font-family="sans-serif" font-size="11" font-weight="bold" lengthAdjust="spacing" textLength="74">last_access</text><text x="92" y="248.437" fill="#FFE797" font-family="sans-serif" font-size="11" lengthAdjust="spacing" textLength="159">: trafo.duration_to_datetime</text><text x="18" y="271.242" fill="#FFE797" font-family="sans-serif" font-size="11" font-weight="bold" lengthAdjust="spacing" textLength="27">kind</text><text x="45" y="271.242" fill="#FFE797" font-family="sans-serif" font-size="11" lengthAdjust="spacing" textLength="41">: string</text><rect id="gcp_resource" width="169" height="93.398" x="248.5" y="404" fill="#194875" codeLine="29" rx="2.5" ry="2.5" style="stroke:#000;stroke-width:1.5"/><ellipse cx="272.05" cy="423.894" fill="#1A83AF" rx="11" ry="11" style="stroke:#000;stroke-width:1"/><path fill="#000" d="M275.0188,429.5352 Q274.4406,429.832 273.8,429.9727 Q273.1594,430.1289 272.4563,430.1289 Q269.9563,430.1289 268.6281,428.4883 Q267.3156,426.832 267.3156,423.707 Q267.3156,420.582 268.6281,418.9258 Q269.9563,417.2695 272.4563,417.2695 Q273.1594,417.2695 273.8,417.4258 Q274.4563,417.582 275.0188,417.8789 L275.0188,420.5977 Q274.3938,420.0195 273.8,419.7539 Q273.2063,419.4727 272.5813,419.4727 Q271.2375,419.4727 270.55,420.5508 Q269.8625,421.6133 269.8625,423.707 Q269.8625,425.8008 270.55,426.8789 Q271.2375,427.9414 272.5813,427.9414 Q273.2063,427.9414 273.8,427.6758 Q274.3938,427.3945 275.0188,426.8164 L275.0188,429.5352 Z"/><text x="292.95" y="429.78" fill="#FFE797" font-family="Helvetica" font-size="17" lengthAdjust="spacing" textLength="108">gcp_resource</text><line style="stroke:#000;stroke-width:1.5" x1="249.5" x2="416.5" y1="443.789" y2="443.789"/><text x="259.5" y="463" fill="#FFE797" font-family="sans-serif" font-size="11" font-weight="bold" lengthAdjust="spacing" textLength="23">link</text><text x="282.5" y="463" fill="#FFE797" font-family="sans-serif" font-size="11" lengthAdjust="spacing" textLength="41">: string</text><text x="259.5" y="485.804" fill="#FFE797" font-family="sans-serif" font-size="11" font-weight="bold" lengthAdjust="spacing" textLength="106">label_fingerprint</text><text x="365.5" y="485.804" fill="#FFE797" font-family="sans-serif" font-size="11" lengthAdjust="spacing" textLength="41">: string</text><rect id="load_balancer" width="157" height="93.398" x="56.5" y="404" fill="#194875" codeLine="33" rx="2.5" ry="2.5" style="stroke:#000;stroke-width:1.5"/><ellipse cx="71.5" cy="423.894" fill="#1A83AF" rx="11" ry="11" style="stroke:#000;stroke-width:1"/><path fill="#000" d="M74.4688,429.5352 Q73.8906,429.832 73.25,429.9727 Q72.6094,430.1289 71.9063,430.1289 Q69.4063,430.1289 68.0781,428.4883 Q66.7656,426.832 66.7656,423.707 Q66.7656,420.582 68.0781,418.9258 Q69.4063,417.2695 71.9063,417.2695 Q72.6094,417.2695 73.25,417.4258 Q73.9063,417.582 74.4688,417.8789 L74.4688,420.5977 Q73.8438,420.0195 73.25,419.7539 Q72.6563,419.4727 72.0313,419.4727 Q70.6875,419.4727 70,420.5508 Q69.3125,421.6133 69.3125,423.707 Q69.3125,425.8008 70,426.8789 Q70.6875,427.9414 72.0313,427.9414 Q72.6563,427.9414 73.25,427.6758 Q73.8438,427.3945 74.4688,426.8164 L74.4688,429.5352 Z"/><text x="90.5" y="429.78" fill="#FFE797" font-family="Helvetica" font-size="17" lengthAdjust="spacing" textLength="115">load_balancer</text><line style="stroke:#000;stroke-width:1.5" x1="57.5" x2="212.5" y1="443.789" y2="443.789"/><text x="67.5" y="463" fill="#FFE797" font-family="sans-serif" font-size="11" font-weight="bold" lengthAdjust="spacing" textLength="46">lb_type</text><text x="113.5" y="463" fill="#FFE797" font-family="sans-serif" font-size="11" lengthAdjust="spacing" textLength="41">: string</text><text x="67.5" y="485.804" fill="#FFE797" font-family="sans-serif" font-size="11" font-weight="bold" lengthAdjust="spacing" textLength="61">backends</text><text x="128.5" y="485.804" fill="#FFE797" font-family="sans-serif" font-size="11" lengthAdjust="spacing" textLength="49">: string[]</text><rect id="gcp_forwarding_rule" width="215" height="161.813" x="157.5" y="618" fill="#194875" codeLine="37" rx="2.5" ry="2.5" style="stroke:#000;stroke-width:1.5"/><ellipse cx="173.85" cy="637.894" fill="#1A83AF" rx="11" ry="11" style="stroke:#000;stroke-width:1"/><path fill="#000" d="M176.8188,643.5352 Q176.2406,643.832 175.6,643.9727 Q174.9594,644.1289 174.2563,644.1289 Q171.7563,644.1289 170.4281,642.4883 Q169.1156,640.832 169.1156,637.707 Q169.1156,634.582 170.4281,632.9258 Q171.7563,631.2695 174.2563,631.2695 Q174.9594,631.2695 175.6,631.4258 Q176.2563,631.582 176.8188,631.8789 L176.8188,634.5977 Q176.1938,634.0195 175.6,633.7539 Q175.0063,633.4727 174.3813,633.4727 Q173.0375,633.4727 172.35,634.5508 Q171.6625,635.6133 171.6625,637.707 Q171.6625,639.8008 172.35,640.8789 Q173.0375,641.9414 174.3813,641.9414 Q175.0063,641.9414 175.6,641.6758 Q176.1938,641.3945 176.8188,640.8164 L176.8188,643.5352 Z"/><text x="193.15" y="643.78" fill="#FFE797" font-family="Helvetica" font-size="17" lengthAdjust="spacing" textLength="170">gcp_forwarding_rule</text><line style="stroke:#000;stroke-width:1.5" x1="158.5" x2="371.5" y1="657.789" y2="657.789"/><text x="168.5" y="677" fill="#FFE797" font-family="sans-serif" font-size="11" font-weight="bold" lengthAdjust="spacing" textLength="69">ip_address</text><text x="237.5" y="677" fill="#FFE797" font-family="sans-serif" font-size="11" lengthAdjust="spacing" textLength="41">: string</text><text x="168.5" y="699.804" fill="#FFE797" font-family="sans-serif" font-size="11" font-weight="bold" lengthAdjust="spacing" textLength="71">ip_protocol</text><text x="239.5" y="699.804" fill="#FFE797" font-family="sans-serif" font-size="11" lengthAdjust="spacing" textLength="41">: string</text><text x="168.5" y="722.609" fill="#FFE797" font-family="sans-serif" font-size="11" font-weight="bold" lengthAdjust="spacing" textLength="152">load_balancing_scheme</text><text x="320.5" y="722.609" fill="#FFE797" font-family="sans-serif" font-size="11" lengthAdjust="spacing" textLength="41">: string</text><text x="168.5" y="745.414" fill="#FFE797" font-family="sans-serif" font-size="11" font-weight="bold" lengthAdjust="spacing" textLength="80">network_tier</text><text x="248.5" y="745.414" fill="#FFE797" font-family="sans-serif" font-size="11" lengthAdjust="spacing" textLength="41">: string</text><text x="168.5" y="768.218" fill="#FFE797" font-family="sans-serif" font-size="11" font-weight="bold" lengthAdjust="spacing" textLength="69">port_range</text><text x="237.5" y="768.218" fill="#FFE797" font-family="sans-serif" font-size="11" lengthAdjust="spacing" textLength="41">: string</text><path id="resource-backto-load_balancer" fill="none" d="M135,303.23 C135,340.03 135,376.4 135,403.66" codeLine="44" style="stroke:#ffaf37;stroke-width:2"/><polygon fill="none" points="128 303.1 135 283.1 142 303.1 128 303.1" style="stroke:#ffaf37;stroke-width:2"/><path id="gcp_resource-backto-gcp_forwarding_rule" fill="none" d="M315.04,516.59 C306.51,547.54 296.22,584.83 287.2,617.53" codeLine="45" style="stroke:#ffaf37;stroke-width:2"/><polygon fill="none" points="308.3 514.71 320.37 497.29 321.8 518.43 308.3 514.71" style="stroke:#ffaf37;stroke-width:2"/><path id="load_balancer-backto-gcp_forwarding_rule" fill="none" d="M168.63,515.27 C185.09,546.47 205.07,584.36 222.56,617.53" codeLine="46" style="stroke:#ffaf37;stroke-width:2"/><polygon fill="none" points="162.29 518.24 159.15 497.29 174.67 511.71 162.29 518.24" style="stroke:#ffaf37;stroke-width:2"/></g></svg>