<svg xmlns="http://www.w3.org/2000/svg" xmlns:xlink="http://www.w3.org/1999/xlink" width="183" height="107" contentScriptType="application/ecmascript" contentStyleType="text/css" style="width:183px;height:107px;background:#00000000" preserveAspectRatio="none" version="1.1" viewBox="0 0 183 107" zoomAndPan="magnify"><g><rect id="gcp_resource" width="169" height="93.398" x="7" y="7" fill="#194875" codeLine="17" rx="2.5" ry="2.5" style="stroke:#000;stroke-width:1.5"/><ellipse cx="30.55" cy="26.895" fill="#1A83AF" rx="11" ry="11" style="stroke:#000;stroke-width:1"/><path fill="#000" d="M33.5188,32.5352 Q32.9406,32.832 32.3,32.9727 Q31.6594,33.1289 30.9563,33.1289 Q28.4563,33.1289 27.1281,31.4883 Q25.8156,29.832 25.8156,26.707 Q25.8156,23.582 27.1281,21.9258 Q28.4563,20.2695 30.9563,20.2695 Q31.6594,20.2695 32.3,20.4258 Q32.9563,20.582 33.5188,20.8789 L33.5188,23.5977 Q32.8938,23.0195 32.3,22.7539 Q31.7063,22.4727 31.0813,22.4727 Q29.7375,22.4727 29.05,23.5508 Q28.3625,24.6133 28.3625,26.707 Q28.3625,28.8008 29.05,29.8789 Q29.7375,30.9414 31.0813,30.9414 Q31.7063,30.9414 32.3,30.6758 Q32.8938,30.3945 33.5188,29.8164 L33.5188,32.5352 Z"/><text x="51.45" y="32.78" fill="#FFE797" font-family="Helvetica" font-size="17" lengthAdjust="spacing" textLength="108">gcp_resource</text><line style="stroke:#000;stroke-width:1.5" x1="8" x2="175" y1="46.789" y2="46.789"/><text x="18" y="65.999" fill="#FFE797" font-family="sans-serif" font-size="11" font-weight="bold" lengthAdjust="spacing" textLength="23">link</text><text x="41" y="65.999" fill="#FFE797" font-family="sans-serif" font-size="11" lengthAdjust="spacing" textLength="41">: string</text><text x="18" y="88.804" fill="#FFE797" font-family="sans-serif" font-size="11" font-weight="bold" lengthAdjust="spacing" textLength="106">label_fingerprint</text><text x="124" y="88.804" fill="#FFE797" font-family="sans-serif" font-size="11" lengthAdjust="spacing" textLength="41">: string</text></g></svg>