<svg xmlns="http://www.w3.org/2000/svg" xmlns:xlink="http://www.w3.org/1999/xlink" width="460" height="832" contentScriptType="application/ecmascript" contentStyleType="text/css" style="width:460px;height:832px;background:#00000000" preserveAspectRatio="none" version="1.1" viewBox="0 0 460 832" zoomAndPan="magnify"><g><rect id="resource" width="256" height="275.836" x="7" y="7" fill="#194875" codeLine="17" rx="2.5" ry="2.5" style="stroke:#000;stroke-width:1.5"/><ellipse cx="90.25" cy="26.895" fill="#1A83AF" rx="11" ry="11" style="stroke:#000;stroke-width:1"/><path fill="#000" d="M93.2188,32.5352 Q92.6406,32.832 92,32.9727 Q91.3594,33.1289 90.6563,33.1289 Q88.1563,33.1289 86.8281,31.4883 Q85.5156,29.832 85.5156,26.707 Q85.5156,23.582 86.8281,21.9258 Q88.1563,20.2695 90.6563,20.2695 Q91.3594,20.2695 92,20.4258 Q92.6563,20.582 93.2188,20.8789 L93.2188,23.5977 Q92.5938,23.0195 92,22.7539 Q91.4063,22.4727 90.7813,22.4727 Q89.4375,22.4727 88.75,23.5508 Q88.0625,24.6133 88.0625,26.707 Q88.0625,28.8008 88.75,29.8789 Q89.4375,30.9414 90.7813,30.9414 Q91.4063,30.9414 92,30.6758 Q92.5938,30.3945 93.2188,29.8164 L93.2188,32.5352 Z"/><text x="115.75" y="32.78" fill="#FFE797" font-family="Helvetica" font-size="17" lengthAdjust="spacing" textLength="71">resource</text><line style="stroke:#000;stroke-width:1.5" x1="8" x2="262" y1="46.789" y2="46.789"/><text x="18" y="65.999" fill="#FFE797" font-family="sans-serif" font-size="11" font-weight="bold" lengthAdjust="spacing" textLength="12">id</text><text x="30" y="65.999" fill="#FFE797" font-family="sans-serif" font-size="11" lengthAdjust="spacing" textLength="41">: string</text><text x="18" y="88.804" fill="#FFE797" font-family="sans-serif" font-size="11" font-weight="bold" lengthAdjust="spacing" textLength="28">tags</text><text x="46" y="88.804" fill="#FFE797" font-family="sans-serif" font-size="11" lengthAdjust="spacing" textLength="145">: dictionary[string, string]</text><text x="18" y="111.609" fill="#FFE797" font-family="sans-serif" font-size="11" font-weight="bold" lengthAdjust="spacing" textLength="35">name</text><text x="53" y="111.609" fill="#FFE797" font-family="sans-serif" font-size="11" lengthAdjust="spacing" textLength="41">: string</text><text x="18" y="134.414" fill="#FFE797" font-family="sans-serif" font-size="11" font-weight="bold" lengthAdjust="spacing" textLength="35">ctime</text><text x="53" y="134.414" fill="#FFE797" font-family="sans-serif" font-size="11" lengthAdjust="spacing" textLength="58">: datetime</text><text x="18" y="157.218" fill="#FFE797" font-family="sans-serif" font-size="11" font-weight="bold" lengthAdjust="spacing" textLength="24">age</text><text x="42" y="157.218" fill="#FFE797" font-family="sans-serif" font-size="11" lengthAdjust="spacing" textLength="159">: trafo.duration_to_datetime</text><text x="18" y="180.023" fill="#FFE797" font-family="sans-serif" font-size="11" font-weight="bold" lengthAdjust="spacing" textLength="39">mtime</text><text x="57" y="180.023" fill="#FFE797" font-family="sans-serif" font-size="11" lengthAdjust="spacing" textLength="58">: datetime</text><text x="18" y="202.828" fill="#FFE797" font-family="sans-serif" font-size="11" font-weight="bold" lengthAdjust="spacing" textLength="75">last_update</text><text x="93" y="202.828" fill="#FFE797" font-family="sans-serif" font-size="11" lengthAdjust="spacing" textLength="159">: trafo.duration_to_datetime</text><text x="18" y="225.632" fill="#FFE797" font-family="sans-serif" font-size="11" font-weight="bold" lengthAdjust="spacing" textLength="36">atime</text><text x="54" y="225.632" fill="#FFE797" font-family="sans-serif" font-size="11" lengthAdjust="spacing" textLength="58">: datetime</text><text x="18" y="248.437" fill="#FFE797" font-family="sans-serif" font-size="11" font-weight="bold" lengthAdjust="spacing" textLength="74">last_access</text><text x="92" y="248.437" fill="#FFE797" font-family="sans-serif" font-size="11" lengthAdjust="spacing" textLength="159">: trafo.duration_to_datetime</text><text x="18" y="271.242" fill="#FFE797" font-family="sans-serif" font-size="11" font-weight="bold" lengthAdjust="spacing" textLength="27">kind</text><text x="45" y="271.242" fill="#FFE797" font-family="sans-serif" font-size="11" lengthAdjust="spacing" textLength="41">: string</text><rect id="gcp_resource" width="169" height="93.398" x="284.5" y="461" fill="#194875" codeLine="29" rx="2.5" ry="2.5" style="stroke:#000;stroke-width:1.5"/><ellipse cx="308.05" cy="480.894" fill="#1A83AF" rx="11" ry="11" style="stroke:#000;stroke-width:1"/><path fill="#000" d="M311.0188,486.5352 Q310.4406,486.832 309.8,486.9727 Q309.1594,487.1289 308.4563,487.1289 Q305.9563,487.1289 304.6281,485.4883 Q303.3156,483.832 303.3156,480.707 Q303.3156,477.582 304.6281,475.9258 Q305.9563,474.2695 308.4563,474.2695 Q309.1594,474.2695 309.8,474.4258 Q310.4563,474.582 311.0188,474.8789 L311.0188,477.5977 Q310.3938,477.0195 309.8,476.7539 Q309.2063,476.4727 308.5813,476.4727 Q307.2375,476.4727 306.55,477.5508 Q305.8625,478.6133 305.8625,480.707 Q305.8625,482.8008 306.55,483.8789 Q307.2375,484.9414 308.5813,484.9414 Q309.2063,484.9414 309.8,484.6758 Q310.3938,484.3945 311.0188,483.8164 L311.0188,486.5352 Z"/><text x="328.95" y="486.78" fill="#FFE797" font-family="Helvetica" font-size="17" lengthAdjust="spacing" textLength="108">gcp_resource</text><line style="stroke:#000;stroke-width:1.5" x1="285.5" x2="452.5" y1="500.789" y2="500.789"/><text x="295.5" y="520" fill="#FFE797" font-family="sans-serif" font-size="11" font-weight="bold" lengthAdjust="spacing" textLength="23">link</text><text x="318.5" y="520" fill="#FFE797" font-family="sans-serif" font-size="11" lengthAdjust="spacing" textLength="41">: string</text><text x="295.5" y="542.804" fill="#FFE797" font-family="sans-serif" font-size="11" font-weight="bold" lengthAdjust="spacing" textLength="106">label_fingerprint</text><text x="401.5" y="542.804" fill="#FFE797" font-family="sans-serif" font-size="11" lengthAdjust="spacing" textLength="41">: string</text><rect id="volume" width="229" height="207.422" x="20.5" y="404" fill="#194875" codeLine="33" rx="2.5" ry="2.5" style="stroke:#000;stroke-width:1.5"/><ellipse cx="94.25" cy="423.894" fill="#1A83AF" rx="11" ry="11" style="stroke:#000;stroke-width:1"/><path fill="#000" d="M97.2188,429.5352 Q96.6406,429.832 96,429.9727 Q95.3594,430.1289 94.6563,430.1289 Q92.1563,430.1289 90.8281,428.4883 Q89.5156,426.832 89.5156,423.707 Q89.5156,420.582 90.8281,418.9258 Q92.1563,417.2695 94.6563,417.2695 Q95.3594,417.2695 96,417.4258 Q96.6563,417.582 97.2188,417.8789 L97.2188,420.5977 Q96.5938,420.0195 96,419.7539 Q95.4063,419.4727 94.7813,419.4727 Q93.4375,419.4727 92.75,420.5508 Q92.0625,421.6133 92.0625,423.707 Q92.0625,425.8008 92.75,426.8789 Q93.4375,427.9414 94.7813,427.9414 Q95.4063,427.9414 96,427.6758 Q96.5938,427.3945 97.2188,426.8164 L97.2188,429.5352 Z"/><text x="119.75" y="429.78" fill="#FFE797" font-family="Helvetica" font-size="17" lengthAdjust="spacing" textLength="63">volume</text><line style="stroke:#000;stroke-width:1.5" x1="21.5" x2="248.5" y1="443.789" y2="443.789"/><text x="31.5" y="463" fill="#FFE797" font-family="sans-serif" font-size="11" font-weight="bold" lengthAdjust="spacing" textLength="78">volume_size</text><text x="109.5" y="463" fill="#FFE797" font-family="sans-serif" font-size="11" lengthAdjust="spacing" textLength="36">: int64</text><text x="31.5" y="485.804" fill="#FFE797" font-family="sans-serif" font-size="11" font-weight="bold" lengthAdjust="spacing" textLength="80">volume_type</text><text x="111.5" y="485.804" fill="#FFE797" font-family="sans-serif" font-size="11" lengthAdjust="spacing" textLength="41">: string</text><text x="31.5" y="508.609" fill="#FFE797" font-family="sans-serif" font-size="11" font-weight="bold" lengthAdjust="spacing" textLength="92">volume_status</text><text x="123.5" y="508.609" fill="#FFE797" font-family="sans-serif" font-size="11" lengthAdjust="spacing" textLength="41">: string</text><text x="31.5" y="531.414" fill="#FFE797" font-family="sans-serif" font-size="11" font-weight="bold" lengthAdjust="spacing" textLength="79">volume_iops</text><text x="110.5" y="531.414" fill="#FFE797" font-family="sans-serif" font-size="11" lengthAdjust="spacing" textLength="36">: int64</text><text x="31.5" y="554.218" fill="#FFE797" font-family="sans-serif" font-size="11" font-weight="bold" lengthAdjust="spacing" textLength="123">volume_throughput</text><text x="154.5" y="554.218" fill="#FFE797" font-family="sans-serif" font-size="11" lengthAdjust="spacing" textLength="36">: int64</text><text x="31.5" y="577.023" fill="#FFE797" font-family="sans-serif" font-size="11" font-weight="bold" lengthAdjust="spacing" textLength="116">volume_encrypted</text><text x="147.5" y="577.023" fill="#FFE797" font-family="sans-serif" font-size="11" lengthAdjust="spacing" textLength="53">: boolean</text><text x="31.5" y="599.828" fill="#FFE797" font-family="sans-serif" font-size="11" font-weight="bold" lengthAdjust="spacing" textLength="154">snapshot_before_delete</text><text x="185.5" y="599.828" fill="#FFE797" font-family="sans-serif" font-size="11" lengthAdjust="spacing" textLength="53">: boolean</text><rect id="gcp_disk" width="227" height="93.398" x="178.5" y="732" fill="#194875" codeLine="42" rx="2.5" ry="2.5" style="stroke:#000;stroke-width:1.5"/><ellipse cx="247.75" cy="751.894" fill="#1A83AF" rx="11" ry="11" style="stroke:#000;stroke-width:1"/><path fill="#000" d="M250.7188,757.5352 Q250.1406,757.832 249.5,757.9727 Q248.8594,758.1289 248.1563,758.1289 Q245.6563,758.1289 244.3281,756.4883 Q243.0156,754.832 243.0156,751.707 Q243.0156,748.582 244.3281,746.9258 Q245.6563,745.2695 248.1563,745.2695 Q248.8594,745.2695 249.5,745.4258 Q250.1563,745.582 250.7188,745.8789 L250.7188,748.5977 Q250.0938,748.0195 249.5,747.7539 Q248.9063,747.4727 248.2813,747.4727 Q246.9375,747.4727 246.25,748.5508 Q245.5625,749.6133 245.5625,751.707 Q245.5625,753.8008 246.25,754.8789 Q246.9375,755.9414 248.2813,755.9414 Q248.9063,755.9414 249.5,755.6758 Q250.0938,755.3945 250.7188,754.8164 L250.7188,757.5352 Z"/><text x="273.25" y="757.78" fill="#FFE797" font-family="Helvetica" font-size="17" lengthAdjust="spacing" textLength="70">gcp_disk</text><line style="stroke:#000;stroke-width:1.5" x1="179.5" x2="404.5" y1="771.789" y2="771.789"/><text x="189.5" y="791" fill="#FFE797" font-family="sans-serif" font-size="11" font-weight="bold" lengthAdjust="spacing" textLength="144">last_attach_timestamp</text><text x="333.5" y="791" fill="#FFE797" font-family="sans-serif" font-size="11" lengthAdjust="spacing" textLength="58">: datetime</text><text x="189.5" y="813.804" fill="#FFE797" font-family="sans-serif" font-size="11" font-weight="bold" lengthAdjust="spacing" textLength="147">last_detach_timestamp</text><text x="336.5" y="813.804" fill="#FFE797" font-family="sans-serif" font-size="11" lengthAdjust="spacing" textLength="58">: datetime</text><path id="resource-backto-volume" fill="none" d="M135,303.49 C135,337.51 135,372.64 135,403.9" codeLine="46" style="stroke:#ffaf37;stroke-width:2"/><polygon fill="none" points="128 303.06 135 283.06 142 303.06 128 303.06" style="stroke:#ffaf37;stroke-width:2"/><path id="gcp_resource-backto-gcp_disk" fill="none" d="M350.36,573.6 C336.37,622.48 317.57,688.19 305.13,731.64" codeLine="47" style="stroke:#ffaf37;stroke-width:2"/><polygon fill="none" points="343.7 571.43 355.94 554.13 357.16 575.29 343.7 571.43" style="stroke:#ffaf37;stroke-width:2"/><path id="volume-backto-gcp_disk" fill="none" d="M205.37,629.07 C226.64,665.51 248.7,703.31 265.24,731.65" codeLine="48" style="stroke:#ffaf37;stroke-width:2"/><polygon fill="none" points="199.06 632.15 195.03 611.35 211.15 625.09 199.06 632.15" style="stroke:#ffaf37;stroke-width:2"/></g></svg>