<?xml version="1.0" encoding="UTF-8" standalone="no"?><svg xmlns="http://www.w3.org/2000/svg" xmlns:xlink="http://www.w3.org/1999/xlink" contentScriptType="application/ecmascript" contentStyleType="text/css" height="1144px" preserveAspectRatio="none" style="width:427px;height:1144px;background:#00000000;" version="1.1" viewBox="0 0 427 1144" width="427px" zoomAndPan="magnify"><defs><filter height="300%" id="fd4v4obdbjaju" width="300%" x="-1" y="-1"><feGaussianBlur result="blurOut" stdDeviation="2.0"/><feColorMatrix in="blurOut" result="blurOut2" type="matrix" values="0 0 0 0 0 0 0 0 0 0 0 0 0 0 0 0 0 0 .4 0"/><feOffset dx="4.0" dy="4.0" in="blurOut2" result="blurOut3"/><feBlend in="SourceGraphic" in2="blurOut3" mode="normal"/></filter></defs><g><!--MD5=[156df1ec125634b672185ad659f2920c]
class phantom_resource--><rect codeLine="2" fill="#FEFECE" filter="url(#fd4v4obdbjaju)" height="48" id="phantom_resource" style="stroke:#A80036;stroke-width:1.5;" width="150" x="212.5" y="304"/><ellipse cx="227.5" cy="320" fill="#ADD1B2" rx="11" ry="11" style="stroke:#A80036;stroke-width:1.0;"/><path d="M230.4688,325.6406 Q229.8906,325.9375 229.25,326.0781 Q228.6094,326.2344 227.9063,326.2344 Q225.4063,326.2344 224.0781,324.5938 Q222.7656,322.9375 222.7656,319.8125 Q222.7656,316.6875 224.0781,315.0313 Q225.4063,313.375 227.9063,313.375 Q228.6094,313.375 229.25,313.5313 Q229.9063,313.6875 230.4688,313.9844 L230.4688,316.7031 Q229.8438,316.125 229.25,315.8594 Q228.6563,315.5781 228.0313,315.5781 Q226.6875,315.5781 226,316.6563 Q225.3125,317.7188 225.3125,319.8125 Q225.3125,321.9063 226,322.9844 Q226.6875,324.0469 228.0313,324.0469 Q228.6563,324.0469 229.25,323.7813 Q229.8438,323.5 230.4688,322.9219 L230.4688,325.6406 Z " fill="#000000"/><text fill="#000000" font-family="sans-serif" font-size="12" lengthAdjust="spacing" textLength="118" x="241.5" y="324.1543">phantom_resource</text><line style="stroke:#A80036;stroke-width:1.5;" x1="213.5" x2="361.5" y1="336" y2="336"/><line style="stroke:#A80036;stroke-width:1.5;" x1="213.5" x2="361.5" y1="344" y2="344"/><!--MD5=[7f0ecf5f554433d3f2e1213379ac821c]
class resource--><rect codeLine="5" fill="#FEFECE" filter="url(#fd4v4obdbjaju)" height="176.0469" id="resource" style="stroke:#A80036;stroke-width:1.5;" width="252" x="161.5" y="7"/><ellipse cx="255.25" cy="23" fill="#ADD1B2" rx="11" ry="11" style="stroke:#A80036;stroke-width:1.0;"/><path d="M258.2188,28.6406 Q257.6406,28.9375 257,29.0781 Q256.3594,29.2344 255.6563,29.2344 Q253.1563,29.2344 251.8281,27.5938 Q250.5156,25.9375 250.5156,22.8125 Q250.5156,19.6875 251.8281,18.0313 Q253.1563,16.375 255.6563,16.375 Q256.3594,16.375 257,16.5313 Q257.6563,16.6875 258.2188,16.9844 L258.2188,19.7031 Q257.5938,19.125 257,18.8594 Q256.4063,18.5781 255.7813,18.5781 Q254.4375,18.5781 253.75,19.6563 Q253.0625,20.7188 253.0625,22.8125 Q253.0625,24.9063 253.75,25.9844 Q254.4375,27.0469 255.7813,27.0469 Q256.4063,27.0469 257,26.7813 Q257.5938,26.5 258.2188,25.9219 L258.2188,28.6406 Z " fill="#000000"/><text fill="#000000" font-family="sans-serif" font-size="12" lengthAdjust="spacing" textLength="56" x="275.75" y="27.1543">resource</text><line style="stroke:#A80036;stroke-width:1.5;" x1="162.5" x2="412.5" y1="39" y2="39"/><ellipse cx="172.5" cy="50" rx="3" ry="3" style="stroke:#038048;stroke-width:1.0;fill:none;"/><text fill="#000000" font-family="sans-serif" font-size="11" lengthAdjust="spacing" textLength="51" x="181.5" y="53.2104">id: string</text><ellipse cx="172.5" cy="62.8047" rx="3" ry="3" style="stroke:#038048;stroke-width:1.0;fill:none;"/><text fill="#000000" font-family="sans-serif" font-size="11" lengthAdjust="spacing" textLength="170" x="181.5" y="66.0151">tags: dictionary[string, string]</text><ellipse cx="172.5" cy="75.6094" rx="3" ry="3" style="stroke:#038048;stroke-width:1.0;fill:none;"/><text fill="#000000" font-family="sans-serif" font-size="11" lengthAdjust="spacing" textLength="73" x="181.5" y="78.8198">name: string</text><ellipse cx="172.5" cy="88.4141" rx="3" ry="3" style="stroke:#038048;stroke-width:1.0;fill:none;"/><text fill="#000000" font-family="sans-serif" font-size="11" lengthAdjust="spacing" textLength="89" x="181.5" y="91.6245">ctime: datetime</text><ellipse cx="172.5" cy="101.2188" rx="3" ry="3" style="stroke:#038048;stroke-width:1.0;fill:none;"/><text fill="#000000" font-family="sans-serif" font-size="11" lengthAdjust="spacing" textLength="180" x="181.5" y="104.4292">age: trafo.duration_to_datetime</text><ellipse cx="172.5" cy="114.0234" rx="3" ry="3" style="stroke:#038048;stroke-width:1.0;fill:none;"/><text fill="#000000" font-family="sans-serif" font-size="11" lengthAdjust="spacing" textLength="94" x="181.5" y="117.2339">mtime: datetime</text><ellipse cx="172.5" cy="126.8281" rx="3" ry="3" style="stroke:#038048;stroke-width:1.0;fill:none;"/><text fill="#000000" font-family="sans-serif" font-size="11" lengthAdjust="spacing" textLength="225" x="181.5" y="130.0386">last_update: trafo.duration_to_datetime</text><ellipse cx="172.5" cy="139.6328" rx="3" ry="3" style="stroke:#038048;stroke-width:1.0;fill:none;"/><text fill="#000000" font-family="sans-serif" font-size="11" lengthAdjust="spacing" textLength="90" x="181.5" y="142.8433">atime: datetime</text><ellipse cx="172.5" cy="152.4375" rx="3" ry="3" style="stroke:#038048;stroke-width:1.0;fill:none;"/><text fill="#000000" font-family="sans-serif" font-size="11" lengthAdjust="spacing" textLength="226" x="181.5" y="155.6479">last_access: trafo.duration_to_datetime</text><ellipse cx="172.5" cy="165.2422" rx="3" ry="3" style="stroke:#038048;stroke-width:1.0;fill:none;"/><text fill="#000000" font-family="sans-serif" font-size="11" lengthAdjust="spacing" textLength="64" x="181.5" y="168.4526">kind: string</text><line style="stroke:#A80036;stroke-width:1.5;" x1="162.5" x2="412.5" y1="175.0469" y2="175.0469"/><!--MD5=[96a667c91f46910544c8a4dd691a5f67]
class gcp_resource--><rect codeLine="17" fill="#FEFECE" filter="url(#fd4v4obdbjaju)" height="73.6094" id="gcp_resource" style="stroke:#A80036;stroke-width:1.5;" width="159" x="7" y="868"/><ellipse cx="40.9" cy="884" fill="#ADD1B2" rx="11" ry="11" style="stroke:#A80036;stroke-width:1.0;"/><path d="M43.8688,889.6406 Q43.2906,889.9375 42.65,890.0781 Q42.0094,890.2344 41.3063,890.2344 Q38.8063,890.2344 37.4781,888.5938 Q36.1656,886.9375 36.1656,883.8125 Q36.1656,880.6875 37.4781,879.0313 Q38.8063,877.375 41.3063,877.375 Q42.0094,877.375 42.65,877.5313 Q43.3063,877.6875 43.8688,877.9844 L43.8688,880.7031 Q43.2438,880.125 42.65,879.8594 Q42.0563,879.5781 41.4313,879.5781 Q40.0875,879.5781 39.4,880.6563 Q38.7125,881.7188 38.7125,883.8125 Q38.7125,885.9063 39.4,886.9844 Q40.0875,888.0469 41.4313,888.0469 Q42.0563,888.0469 42.65,887.7813 Q43.2438,887.5 43.8688,886.9219 L43.8688,889.6406 Z " fill="#000000"/><text fill="#000000" font-family="sans-serif" font-size="12" lengthAdjust="spacing" textLength="85" x="59.1" y="888.1543">gcp_resource</text><line style="stroke:#A80036;stroke-width:1.5;" x1="8" x2="165" y1="900" y2="900"/><ellipse cx="18" cy="911" rx="3" ry="3" style="stroke:#038048;stroke-width:1.0;fill:none;"/><text fill="#000000" font-family="sans-serif" font-size="11" lengthAdjust="spacing" textLength="60" x="27" y="914.2104">link: string</text><ellipse cx="18" cy="923.8047" rx="3" ry="3" style="stroke:#038048;stroke-width:1.0;fill:none;"/><text fill="#000000" font-family="sans-serif" font-size="11" lengthAdjust="spacing" textLength="133" x="27" y="927.0151">label_fingerprint: string</text><line style="stroke:#A80036;stroke-width:1.5;" x1="8" x2="165" y1="933.6094" y2="933.6094"/><!--MD5=[22174b9730fcba0c4a11f474626e54a0]
class instance_type--><rect codeLine="21" fill="#FEFECE" filter="url(#fd4v4obdbjaju)" height="112.0234" id="instance_type" style="stroke:#A80036;stroke-width:1.5;" width="173" x="201" y="849"/><ellipse cx="240.3" cy="865" fill="#ADD1B2" rx="11" ry="11" style="stroke:#A80036;stroke-width:1.0;"/><path d="M243.2688,870.6406 Q242.6906,870.9375 242.05,871.0781 Q241.4094,871.2344 240.7063,871.2344 Q238.2063,871.2344 236.8781,869.5938 Q235.5656,867.9375 235.5656,864.8125 Q235.5656,861.6875 236.8781,860.0313 Q238.2063,858.375 240.7063,858.375 Q241.4094,858.375 242.05,858.5313 Q242.7063,858.6875 243.2688,858.9844 L243.2688,861.7031 Q242.6438,861.125 242.05,860.8594 Q241.4563,860.5781 240.8313,860.5781 Q239.4875,860.5781 238.8,861.6563 Q238.1125,862.7188 238.1125,864.8125 Q238.1125,866.9063 238.8,867.9844 Q239.4875,869.0469 240.8313,869.0469 Q241.4563,869.0469 242.05,868.7813 Q242.6438,868.5 243.2688,867.9219 L243.2688,870.6406 Z " fill="#000000"/><text fill="#000000" font-family="sans-serif" font-size="12" lengthAdjust="spacing" textLength="87" x="259.7" y="869.1543">instance_type</text><line style="stroke:#A80036;stroke-width:1.5;" x1="202" x2="373" y1="881" y2="881"/><ellipse cx="212" cy="892" rx="3" ry="3" style="stroke:#038048;stroke-width:1.0;fill:none;"/><text fill="#000000" font-family="sans-serif" font-size="11" lengthAdjust="spacing" textLength="119" x="221" y="895.2104">instance_type: string</text><ellipse cx="212" cy="904.8047" rx="3" ry="3" style="stroke:#038048;stroke-width:1.0;fill:none;"/><text fill="#000000" font-family="sans-serif" font-size="11" lengthAdjust="spacing" textLength="132" x="221" y="908.0151">instance_cores: double</text><ellipse cx="212" cy="917.6094" rx="3" ry="3" style="stroke:#038048;stroke-width:1.0;fill:none;"/><text fill="#000000" font-family="sans-serif" font-size="11" lengthAdjust="spacing" textLength="147" x="221" y="920.8198">instance_memory: double</text><ellipse cx="212" cy="930.4141" rx="3" ry="3" style="stroke:#038048;stroke-width:1.0;fill:none;"/><text fill="#000000" font-family="sans-serif" font-size="11" lengthAdjust="spacing" textLength="136" x="221" y="933.6245">ondemand_cost: double</text><ellipse cx="212" cy="943.2188" rx="3" ry="3" style="stroke:#038048;stroke-width:1.0;fill:none;"/><text fill="#000000" font-family="sans-serif" font-size="11" lengthAdjust="spacing" textLength="108" x="221" y="946.4292">reservations: int64</text><line style="stroke:#A80036;stroke-width:1.5;" x1="202" x2="373" y1="953.0234" y2="953.0234"/><!--MD5=[857a356b9e77f83de603e0318f36b735]
class type--><rect codeLine="28" fill="#FEFECE" filter="url(#fd4v4obdbjaju)" height="48" id="type" style="stroke:#A80036;stroke-width:1.5;" width="59" x="258" y="680"/><ellipse cx="273" cy="696" fill="#ADD1B2" rx="11" ry="11" style="stroke:#A80036;stroke-width:1.0;"/><path d="M275.9688,701.6406 Q275.3906,701.9375 274.75,702.0781 Q274.1094,702.2344 273.4063,702.2344 Q270.9063,702.2344 269.5781,700.5938 Q268.2656,698.9375 268.2656,695.8125 Q268.2656,692.6875 269.5781,691.0313 Q270.9063,689.375 273.4063,689.375 Q274.1094,689.375 274.75,689.5313 Q275.4063,689.6875 275.9688,689.9844 L275.9688,692.7031 Q275.3438,692.125 274.75,691.8594 Q274.1563,691.5781 273.5313,691.5781 Q272.1875,691.5781 271.5,692.6563 Q270.8125,693.7188 270.8125,695.8125 Q270.8125,697.9063 271.5,698.9844 Q272.1875,700.0469 273.5313,700.0469 Q274.1563,700.0469 274.75,699.7813 Q275.3438,699.5 275.9688,698.9219 L275.9688,701.6406 Z " fill="#000000"/><text fill="#000000" font-family="sans-serif" font-size="12" lengthAdjust="spacing" textLength="27" x="287" y="700.1543">type</text><line style="stroke:#A80036;stroke-width:1.5;" x1="259" x2="316" y1="712" y2="712"/><line style="stroke:#A80036;stroke-width:1.5;" x1="259" x2="316" y1="720" y2="720"/><!--MD5=[205bc3e74ea7d385e2b6aa1bb29a5024]
class quota--><rect codeLine="31" fill="#FEFECE" filter="url(#fd4v4obdbjaju)" height="86.4141" id="quota" style="stroke:#A80036;stroke-width:1.5;" width="129" x="223" y="473"/><ellipse cx="265" cy="489" fill="#ADD1B2" rx="11" ry="11" style="stroke:#A80036;stroke-width:1.0;"/><path d="M267.9688,494.6406 Q267.3906,494.9375 266.75,495.0781 Q266.1094,495.2344 265.4063,495.2344 Q262.9063,495.2344 261.5781,493.5938 Q260.2656,491.9375 260.2656,488.8125 Q260.2656,485.6875 261.5781,484.0313 Q262.9063,482.375 265.4063,482.375 Q266.1094,482.375 266.75,482.5313 Q267.4063,482.6875 267.9688,482.9844 L267.9688,485.7031 Q267.3438,485.125 266.75,484.8594 Q266.1563,484.5781 265.5313,484.5781 Q264.1875,484.5781 263.5,485.6563 Q262.8125,486.7188 262.8125,488.8125 Q262.8125,490.9063 263.5,491.9844 Q264.1875,493.0469 265.5313,493.0469 Q266.1563,493.0469 266.75,492.7813 Q267.3438,492.5 267.9688,491.9219 L267.9688,494.6406 Z " fill="#000000"/><text fill="#000000" font-family="sans-serif" font-size="12" lengthAdjust="spacing" textLength="37" x="285" y="493.1543">quota</text><line style="stroke:#A80036;stroke-width:1.5;" x1="224" x2="351" y1="505" y2="505"/><ellipse cx="234" cy="516" rx="3" ry="3" style="stroke:#038048;stroke-width:1.0;fill:none;"/><text fill="#000000" font-family="sans-serif" font-size="11" lengthAdjust="spacing" textLength="78" x="243" y="519.2104">quota: double</text><ellipse cx="234" cy="528.8047" rx="3" ry="3" style="stroke:#038048;stroke-width:1.0;fill:none;"/><text fill="#000000" font-family="sans-serif" font-size="11" lengthAdjust="spacing" textLength="81" x="243" y="532.0151">usage: double</text><ellipse cx="234" cy="541.6094" rx="3" ry="3" style="stroke:#038048;stroke-width:1.0;fill:none;"/><text fill="#000000" font-family="sans-serif" font-size="11" lengthAdjust="spacing" textLength="103" x="243" y="544.8198">quota_type: string</text><line style="stroke:#A80036;stroke-width:1.5;" x1="224" x2="351" y1="551.4141" y2="551.4141"/><!--MD5=[c84aa20bd479666defd0acd9040c3b4f]
class gcp_machine_type--><rect codeLine="36" fill="#FEFECE" filter="url(#fd4v4obdbjaju)" height="48" id="gcp_machine_type" style="stroke:#A80036;stroke-width:1.5;" width="147" x="48" y="1082"/><ellipse cx="63" cy="1098" fill="#ADD1B2" rx="11" ry="11" style="stroke:#A80036;stroke-width:1.0;"/><path d="M65.9688,1103.6406 Q65.3906,1103.9375 64.75,1104.0781 Q64.1094,1104.2344 63.4063,1104.2344 Q60.9063,1104.2344 59.5781,1102.5938 Q58.2656,1100.9375 58.2656,1097.8125 Q58.2656,1094.6875 59.5781,1093.0313 Q60.9063,1091.375 63.4063,1091.375 Q64.1094,1091.375 64.75,1091.5313 Q65.4063,1091.6875 65.9688,1091.9844 L65.9688,1094.7031 Q65.3438,1094.125 64.75,1093.8594 Q64.1563,1093.5781 63.5313,1093.5781 Q62.1875,1093.5781 61.5,1094.6563 Q60.8125,1095.7188 60.8125,1097.8125 Q60.8125,1099.9063 61.5,1100.9844 Q62.1875,1102.0469 63.5313,1102.0469 Q64.1563,1102.0469 64.75,1101.7813 Q65.3438,1101.5 65.9688,1100.9219 L65.9688,1103.6406 Z " fill="#000000"/><text fill="#000000" font-family="sans-serif" font-size="12" lengthAdjust="spacing" textLength="115" x="77" y="1102.1543">gcp_machine_type</text><line style="stroke:#A80036;stroke-width:1.5;" x1="49" x2="194" y1="1114" y2="1114"/><line style="stroke:#A80036;stroke-width:1.5;" x1="49" x2="194" y1="1122" y2="1122"/><!--MD5=[e134558fd6f7e839ecb28ecbda576c0a]
reverse link resource to phantom_resource--><path codeLine="39" d="M287.5,203.18 C287.5,241 287.5,280.01 287.5,303.89 " fill="none" id="resource-backto-phantom_resource" style="stroke:#A80036;stroke-width:1.0;"/><polygon fill="none" points="280.5,203,287.5,183,294.5,203,280.5,203" style="stroke:#A80036;stroke-width:1.0;"/><!--MD5=[7a87f7234cfb9411de5223c7712455cd]
reverse link type to instance_type--><path codeLine="40" d="M287.5,748.54 C287.5,777.94 287.5,817.01 287.5,848.63 " fill="none" id="type-backto-instance_type" style="stroke:#A80036;stroke-width:1.0;"/><polygon fill="none" points="280.5,748.22,287.5,728.22,294.5,748.22,280.5,748.22" style="stroke:#A80036;stroke-width:1.0;"/><!--MD5=[63e5c77e033f786e30b084e57dcd0955]
reverse link quota to type--><path codeLine="41" d="M287.5,579.21 C287.5,613.84 287.5,654.89 287.5,679.93 " fill="none" id="quota-backto-type" style="stroke:#A80036;stroke-width:1.0;"/><polygon fill="none" points="280.5,579.21,287.5,559.21,294.5,579.21,280.5,579.21" style="stroke:#A80036;stroke-width:1.0;"/><!--MD5=[8c556d10106c40540c768b31155cb09d]
reverse link phantom_resource to quota--><path codeLine="42" d="M287.5,372.6 C287.5,402.8 287.5,442.79 287.5,472.7 " fill="none" id="phantom_resource-backto-quota" style="stroke:#A80036;stroke-width:1.0;"/><polygon fill="none" points="280.5,372.18,287.5,352.18,294.5,372.18,280.5,372.18" style="stroke:#A80036;stroke-width:1.0;"/><!--MD5=[ed0e464b529032ef54edfe9bb23e5a6f]
reverse link gcp_resource to gcp_machine_type--><path codeLine="43" d="M96.32,961.84 C103.3,1001.53 112.32,1052.78 117.45,1081.96 " fill="none" id="gcp_resource-backto-gcp_machine_type" style="stroke:#A80036;stroke-width:1.0;"/><polygon fill="none" points="89.41,962.95,92.84,942.04,103.2,960.52,89.41,962.95" style="stroke:#A80036;stroke-width:1.0;"/><!--MD5=[d64ffedab978368cbeb5d6b6946d5b7a]
reverse link instance_type to gcp_machine_type--><path codeLine="44" d="M228.62,976.58 C197.79,1013.54 162.1,1056.33 140.69,1082 " fill="none" id="instance_type-backto-gcp_machine_type" style="stroke:#A80036;stroke-width:1.0;"/><polygon fill="none" points="223.29,972.04,241.48,961.17,234.04,981.01,223.29,972.04" style="stroke:#A80036;stroke-width:1.0;"/><!--MD5=[2ef8d613dce5698fd6a6f69970084585]
@startuml
skinparam backgroundcolor transparent
class phantom_resource {

}
class resource {
+ id: string
+ tags: dictionary[string, string]
+ name: string
+ ctime: datetime
+ age: trafo.duration_to_datetime
+ mtime: datetime
+ last_update: trafo.duration_to_datetime
+ atime: datetime
+ last_access: trafo.duration_to_datetime
+ kind: string
}
class gcp_resource {
+ link: string
+ label_fingerprint: string
}
class instance_type {
+ instance_type: string
+ instance_cores: double
+ instance_memory: double
+ ondemand_cost: double
+ reservations: int64
}
class type {

}
class quota {
+ quota: double
+ usage: double
+ quota_type: string
}
class gcp_machine_type {

}
resource <|- - - phantom_resource
type <|- - - instance_type
quota <|- - - type
phantom_resource <|- - - quota
gcp_resource <|- - - gcp_machine_type
instance_type <|- - - gcp_machine_type
@enduml

PlantUML version 1.2021.16(Wed Dec 08 17:25:22 UTC 2021)
(GPL source distribution)
Java Runtime: OpenJDK Runtime Environment
JVM: OpenJDK 64-Bit Server VM
Default Encoding: UTF-8
Language: en
Country: null
--></g></svg>