<svg xmlns="http://www.w3.org/2000/svg" xmlns:xlink="http://www.w3.org/1999/xlink" width="394" height="663" contentScriptType="application/ecmascript" contentStyleType="text/css" style="width:394px;height:663px;background:#00000000" preserveAspectRatio="none" version="1.1" viewBox="0 0 394 663" zoomAndPan="magnify"><g><rect id="resource" width="256" height="275.836" x="7" y="7" fill="#194875" codeLine="17" rx="2.5" ry="2.5" style="stroke:#000;stroke-width:1.5"/><ellipse cx="90.25" cy="26.895" fill="#1A83AF" rx="11" ry="11" style="stroke:#000;stroke-width:1"/><path fill="#000" d="M93.2188,32.5352 Q92.6406,32.832 92,32.9727 Q91.3594,33.1289 90.6563,33.1289 Q88.1563,33.1289 86.8281,31.4883 Q85.5156,29.832 85.5156,26.707 Q85.5156,23.582 86.8281,21.9258 Q88.1563,20.2695 90.6563,20.2695 Q91.3594,20.2695 92,20.4258 Q92.6563,20.582 93.2188,20.8789 L93.2188,23.5977 Q92.5938,23.0195 92,22.7539 Q91.4063,22.4727 90.7813,22.4727 Q89.4375,22.4727 88.75,23.5508 Q88.0625,24.6133 88.0625,26.707 Q88.0625,28.8008 88.75,29.8789 Q89.4375,30.9414 90.7813,30.9414 Q91.4063,30.9414 92,30.6758 Q92.5938,30.3945 93.2188,29.8164 L93.2188,32.5352 Z"/><text x="115.75" y="32.78" fill="#FFE797" font-family="Helvetica" font-size="17" lengthAdjust="spacing" textLength="71">resource</text><line style="stroke:#000;stroke-width:1.5" x1="8" x2="262" y1="46.789" y2="46.789"/><text x="18" y="65.999" fill="#FFE797" font-family="sans-serif" font-size="11" font-weight="bold" lengthAdjust="spacing" textLength="12">id</text><text x="30" y="65.999" fill="#FFE797" font-family="sans-serif" font-size="11" lengthAdjust="spacing" textLength="41">: string</text><text x="18" y="88.804" fill="#FFE797" font-family="sans-serif" font-size="11" font-weight="bold" lengthAdjust="spacing" textLength="28">tags</text><text x="46" y="88.804" fill="#FFE797" font-family="sans-serif" font-size="11" lengthAdjust="spacing" textLength="145">: dictionary[string, string]</text><text x="18" y="111.609" fill="#FFE797" font-family="sans-serif" font-size="11" font-weight="bold" lengthAdjust="spacing" textLength="35">name</text><text x="53" y="111.609" fill="#FFE797" font-family="sans-serif" font-size="11" lengthAdjust="spacing" textLength="41">: string</text><text x="18" y="134.414" fill="#FFE797" font-family="sans-serif" font-size="11" font-weight="bold" lengthAdjust="spacing" textLength="35">ctime</text><text x="53" y="134.414" fill="#FFE797" font-family="sans-serif" font-size="11" lengthAdjust="spacing" textLength="58">: datetime</text><text x="18" y="157.218" fill="#FFE797" font-family="sans-serif" font-size="11" font-weight="bold" lengthAdjust="spacing" textLength="24">age</text><text x="42" y="157.218" fill="#FFE797" font-family="sans-serif" font-size="11" lengthAdjust="spacing" textLength="159">: trafo.duration_to_datetime</text><text x="18" y="180.023" fill="#FFE797" font-family="sans-serif" font-size="11" font-weight="bold" lengthAdjust="spacing" textLength="39">mtime</text><text x="57" y="180.023" fill="#FFE797" font-family="sans-serif" font-size="11" lengthAdjust="spacing" textLength="58">: datetime</text><text x="18" y="202.828" fill="#FFE797" font-family="sans-serif" font-size="11" font-weight="bold" lengthAdjust="spacing" textLength="75">last_update</text><text x="93" y="202.828" fill="#FFE797" font-family="sans-serif" font-size="11" lengthAdjust="spacing" textLength="159">: trafo.duration_to_datetime</text><text x="18" y="225.632" fill="#FFE797" font-family="sans-serif" font-size="11" font-weight="bold" lengthAdjust="spacing" textLength="36">atime</text><text x="54" y="225.632" fill="#FFE797" font-family="sans-serif" font-size="11" lengthAdjust="spacing" textLength="58">: datetime</text><text x="18" y="248.437" fill="#FFE797" font-family="sans-serif" font-size="11" font-weight="bold" lengthAdjust="spacing" textLength="74">last_access</text><text x="92" y="248.437" fill="#FFE797" font-family="sans-serif" font-size="11" lengthAdjust="spacing" textLength="159">: trafo.duration_to_datetime</text><text x="18" y="271.242" fill="#FFE797" font-family="sans-serif" font-size="11" font-weight="bold" lengthAdjust="spacing" textLength="27">kind</text><text x="45" y="271.242" fill="#FFE797" font-family="sans-serif" font-size="11" lengthAdjust="spacing" textLength="41">: string</text><rect id="gcp_resource" width="169" height="93.398" x="218.5" y="404" fill="#194875" codeLine="29" rx="2.5" ry="2.5" style="stroke:#000;stroke-width:1.5"/><ellipse cx="242.05" cy="423.894" fill="#1A83AF" rx="11" ry="11" style="stroke:#000;stroke-width:1"/><path fill="#000" d="M245.0188,429.5352 Q244.4406,429.832 243.8,429.9727 Q243.1594,430.1289 242.4563,430.1289 Q239.9563,430.1289 238.6281,428.4883 Q237.3156,426.832 237.3156,423.707 Q237.3156,420.582 238.6281,418.9258 Q239.9563,417.2695 242.4563,417.2695 Q243.1594,417.2695 243.8,417.4258 Q244.4563,417.582 245.0188,417.8789 L245.0188,420.5977 Q244.3938,420.0195 243.8,419.7539 Q243.2063,419.4727 242.5813,419.4727 Q241.2375,419.4727 240.55,420.5508 Q239.8625,421.6133 239.8625,423.707 Q239.8625,425.8008 240.55,426.8789 Q241.2375,427.9414 242.5813,427.9414 Q243.2063,427.9414 243.8,427.6758 Q244.3938,427.3945 245.0188,426.8164 L245.0188,429.5352 Z"/><text x="262.95" y="429.78" fill="#FFE797" font-family="Helvetica" font-size="17" lengthAdjust="spacing" textLength="108">gcp_resource</text><line style="stroke:#000;stroke-width:1.5" x1="219.5" x2="386.5" y1="443.789" y2="443.789"/><text x="229.5" y="463" fill="#FFE797" font-family="sans-serif" font-size="11" font-weight="bold" lengthAdjust="spacing" textLength="23">link</text><text x="252.5" y="463" fill="#FFE797" font-family="sans-serif" font-size="11" lengthAdjust="spacing" textLength="41">: string</text><text x="229.5" y="485.804" fill="#FFE797" font-family="sans-serif" font-size="11" font-weight="bold" lengthAdjust="spacing" textLength="106">label_fingerprint</text><text x="335.5" y="485.804" fill="#FFE797" font-family="sans-serif" font-size="11" lengthAdjust="spacing" textLength="41">: string</text><rect id="gcp_vpn_tunnel" width="174" height="39.789" x="156" y="618" fill="#194875" codeLine="33" rx="2.5" ry="2.5" style="stroke:#000;stroke-width:1.5"/><ellipse cx="171" cy="637.894" fill="#1A83AF" rx="11" ry="11" style="stroke:#000;stroke-width:1"/><path fill="#000" d="M173.9688,643.5352 Q173.3906,643.832 172.75,643.9727 Q172.1094,644.1289 171.4063,644.1289 Q168.9063,644.1289 167.5781,642.4883 Q166.2656,640.832 166.2656,637.707 Q166.2656,634.582 167.5781,632.9258 Q168.9063,631.2695 171.4063,631.2695 Q172.1094,631.2695 172.75,631.4258 Q173.4063,631.582 173.9688,631.8789 L173.9688,634.5977 Q173.3438,634.0195 172.75,633.7539 Q172.1563,633.4727 171.5313,633.4727 Q170.1875,633.4727 169.5,634.5508 Q168.8125,635.6133 168.8125,637.707 Q168.8125,639.8008 169.5,640.8789 Q170.1875,641.9414 171.5313,641.9414 Q172.1563,641.9414 172.75,641.6758 Q173.3438,641.3945 173.9688,640.8164 L173.9688,643.5352 Z"/><text x="190" y="643.78" fill="#FFE797" font-family="Helvetica" font-size="17" lengthAdjust="spacing" textLength="132">gcp_vpn_tunnel</text><rect id="tunnel" width="97" height="39.789" x="86.5" y="430.5" fill="#194875" codeLine="36" rx="2.5" ry="2.5" style="stroke:#000;stroke-width:1.5"/><ellipse cx="101.5" cy="450.394" fill="#1A83AF" rx="11" ry="11" style="stroke:#000;stroke-width:1"/><path fill="#000" d="M104.4688,456.0352 Q103.8906,456.332 103.25,456.4727 Q102.6094,456.6289 101.9063,456.6289 Q99.4063,456.6289 98.0781,454.9883 Q96.7656,453.332 96.7656,450.207 Q96.7656,447.082 98.0781,445.4258 Q99.4063,443.7695 101.9063,443.7695 Q102.6094,443.7695 103.25,443.9258 Q103.9063,444.082 104.4688,444.3789 L104.4688,447.0977 Q103.8438,446.5195 103.25,446.2539 Q102.6563,445.9727 102.0313,445.9727 Q100.6875,445.9727 100,447.0508 Q99.3125,448.1133 99.3125,450.207 Q99.3125,452.3008 100,453.3789 Q100.6875,454.4414 102.0313,454.4414 Q102.6563,454.4414 103.25,454.1758 Q103.8438,453.8945 104.4688,453.3164 L104.4688,456.0352 Z"/><text x="120.5" y="456.28" fill="#FFE797" font-family="Helvetica" font-size="17" lengthAdjust="spacing" textLength="55">tunnel</text><path id="gcp_resource-backto-gcp_vpn_tunnel" fill="none" d="M282.01,516.39 C270.48,552.04 256.99,593.74 249.28,617.6" codeLine="39" style="stroke:#ffaf37;stroke-width:2"/><polygon fill="none" points="275.35 514.23 288.17 497.35 288.67 518.54 275.35 514.23" style="stroke:#ffaf37;stroke-width:2"/><path id="tunnel-backto-gcp_vpn_tunnel" fill="none" d="M156.33,488.13 C179.05,527.17 214.16,587.46 231.91,617.95" codeLine="40" style="stroke:#ffaf37;stroke-width:2"/><polygon fill="none" points="150.16 491.46 146.15 470.65 162.26 484.42 150.16 491.46" style="stroke:#ffaf37;stroke-width:2"/><path id="resource-backto-tunnel" fill="none" d="M135,303.26 C135,353.92 135,403.76 135,430.16" codeLine="41" style="stroke:#ffaf37;stroke-width:2"/><polygon fill="none" points="128 303.1 135 283.1 142 303.1 128 303.1" style="stroke:#ffaf37;stroke-width:2"/></g></svg>