<?xml version="1.0" encoding="UTF-8" standalone="no"?><svg xmlns="http://www.w3.org/2000/svg" xmlns:xlink="http://www.w3.org/1999/xlink" contentScriptType="application/ecmascript" contentStyleType="text/css" height="809px" preserveAspectRatio="none" style="width:429px;height:809px;background:#00000000;" version="1.1" viewBox="0 0 429 809" width="429px" zoomAndPan="magnify"><defs/><g><!--MD5=[7f0ecf5f554433d3f2e1213379ac821c]
class resource--><rect codeLine="17" fill="#194875" height="275.8359" id="resource" rx="2.5" ry="2.5" style="stroke:#000000;stroke-width:1.5;" width="256" x="7" y="7"/><ellipse cx="90.25" cy="26.8945" fill="#1A83AF" rx="11" ry="11" style="stroke:#000000;stroke-width:1.0;"/><path d="M93.2188,32.5352 Q92.6406,32.832 92,32.9727 Q91.3594,33.1289 90.6563,33.1289 Q88.1563,33.1289 86.8281,31.4883 Q85.5156,29.832 85.5156,26.707 Q85.5156,23.582 86.8281,21.9258 Q88.1563,20.2695 90.6563,20.2695 Q91.3594,20.2695 92,20.4258 Q92.6563,20.582 93.2188,20.8789 L93.2188,23.5977 Q92.5938,23.0195 92,22.7539 Q91.4063,22.4727 90.7813,22.4727 Q89.4375,22.4727 88.75,23.5508 Q88.0625,24.6133 88.0625,26.707 Q88.0625,28.8008 88.75,29.8789 Q89.4375,30.9414 90.7813,30.9414 Q91.4063,30.9414 92,30.6758 Q92.5938,30.3945 93.2188,29.8164 L93.2188,32.5352 Z " fill="#000000"/><text fill="#FFE797" font-family="Helvetica" font-size="17" lengthAdjust="spacing" textLength="71" x="115.75" y="32.7798">resource</text><line style="stroke:#000000;stroke-width:1.5;" x1="8" x2="262" y1="46.7891" y2="46.7891"/><text fill="#FFE797" font-family="sans-serif" font-size="11" font-weight="bold" lengthAdjust="spacing" textLength="12" x="18" y="65.9995">id</text><text fill="#FFE797" font-family="sans-serif" font-size="11" lengthAdjust="spacing" textLength="41" x="30" y="65.9995">: string</text><text fill="#FFE797" font-family="sans-serif" font-size="11" font-weight="bold" lengthAdjust="spacing" textLength="28" x="18" y="88.8042">tags</text><text fill="#FFE797" font-family="sans-serif" font-size="11" lengthAdjust="spacing" textLength="145" x="46" y="88.8042">: dictionary[string, string]</text><text fill="#FFE797" font-family="sans-serif" font-size="11" font-weight="bold" lengthAdjust="spacing" textLength="35" x="18" y="111.6089">name</text><text fill="#FFE797" font-family="sans-serif" font-size="11" lengthAdjust="spacing" textLength="41" x="53" y="111.6089">: string</text><text fill="#FFE797" font-family="sans-serif" font-size="11" font-weight="bold" lengthAdjust="spacing" textLength="35" x="18" y="134.4136">ctime</text><text fill="#FFE797" font-family="sans-serif" font-size="11" lengthAdjust="spacing" textLength="58" x="53" y="134.4136">: datetime</text><text fill="#FFE797" font-family="sans-serif" font-size="11" font-weight="bold" lengthAdjust="spacing" textLength="24" x="18" y="157.2183">age</text><text fill="#FFE797" font-family="sans-serif" font-size="11" lengthAdjust="spacing" textLength="159" x="42" y="157.2183">: trafo.duration_to_datetime</text><text fill="#FFE797" font-family="sans-serif" font-size="11" font-weight="bold" lengthAdjust="spacing" textLength="39" x="18" y="180.0229">mtime</text><text fill="#FFE797" font-family="sans-serif" font-size="11" lengthAdjust="spacing" textLength="58" x="57" y="180.0229">: datetime</text><text fill="#FFE797" font-family="sans-serif" font-size="11" font-weight="bold" lengthAdjust="spacing" textLength="75" x="18" y="202.8276">last_update</text><text fill="#FFE797" font-family="sans-serif" font-size="11" lengthAdjust="spacing" textLength="159" x="93" y="202.8276">: trafo.duration_to_datetime</text><text fill="#FFE797" font-family="sans-serif" font-size="11" font-weight="bold" lengthAdjust="spacing" textLength="36" x="18" y="225.6323">atime</text><text fill="#FFE797" font-family="sans-serif" font-size="11" lengthAdjust="spacing" textLength="58" x="54" y="225.6323">: datetime</text><text fill="#FFE797" font-family="sans-serif" font-size="11" font-weight="bold" lengthAdjust="spacing" textLength="74" x="18" y="248.437">last_access</text><text fill="#FFE797" font-family="sans-serif" font-size="11" lengthAdjust="spacing" textLength="159" x="92" y="248.437">: trafo.duration_to_datetime</text><text fill="#FFE797" font-family="sans-serif" font-size="11" font-weight="bold" lengthAdjust="spacing" textLength="27" x="18" y="271.2417">kind</text><text fill="#FFE797" font-family="sans-serif" font-size="11" lengthAdjust="spacing" textLength="41" x="45" y="271.2417">: string</text><!--MD5=[96a667c91f46910544c8a4dd691a5f67]
class gcp_resource--><rect codeLine="29" fill="#194875" height="93.3984" id="gcp_resource" rx="2.5" ry="2.5" style="stroke:#000000;stroke-width:1.5;" width="169" x="253.5" y="461"/><ellipse cx="277.05" cy="480.8945" fill="#1A83AF" rx="11" ry="11" style="stroke:#000000;stroke-width:1.0;"/><path d="M280.0188,486.5352 Q279.4406,486.832 278.8,486.9727 Q278.1594,487.1289 277.4563,487.1289 Q274.9563,487.1289 273.6281,485.4883 Q272.3156,483.832 272.3156,480.707 Q272.3156,477.582 273.6281,475.9258 Q274.9563,474.2695 277.4563,474.2695 Q278.1594,474.2695 278.8,474.4258 Q279.4563,474.582 280.0188,474.8789 L280.0188,477.5977 Q279.3938,477.0195 278.8,476.7539 Q278.2063,476.4727 277.5813,476.4727 Q276.2375,476.4727 275.55,477.5508 Q274.8625,478.6133 274.8625,480.707 Q274.8625,482.8008 275.55,483.8789 Q276.2375,484.9414 277.5813,484.9414 Q278.2063,484.9414 278.8,484.6758 Q279.3938,484.3945 280.0188,483.8164 L280.0188,486.5352 Z " fill="#000000"/><text fill="#FFE797" font-family="Helvetica" font-size="17" lengthAdjust="spacing" textLength="108" x="297.95" y="486.7798">gcp_resource</text><line style="stroke:#000000;stroke-width:1.5;" x1="254.5" x2="421.5" y1="500.7891" y2="500.7891"/><text fill="#FFE797" font-family="sans-serif" font-size="11" font-weight="bold" lengthAdjust="spacing" textLength="23" x="264.5" y="519.9995">link</text><text fill="#FFE797" font-family="sans-serif" font-size="11" lengthAdjust="spacing" textLength="41" x="287.5" y="519.9995">: string</text><text fill="#FFE797" font-family="sans-serif" font-size="11" font-weight="bold" lengthAdjust="spacing" textLength="106" x="264.5" y="542.8042">label_fingerprint</text><text fill="#FFE797" font-family="sans-serif" font-size="11" lengthAdjust="spacing" textLength="41" x="370.5" y="542.8042">: string</text><!--MD5=[7a78d5e8c6114ec050518a6c47ea59e9]
class gcp_snapshot--><rect codeLine="33" fill="#194875" height="70.5938" id="gcp_snapshot" rx="2.5" ry="2.5" style="stroke:#000000;stroke-width:1.5;" width="154" x="192" y="732"/><ellipse cx="207" cy="751.8945" fill="#1A83AF" rx="11" ry="11" style="stroke:#000000;stroke-width:1.0;"/><path d="M209.9688,757.5352 Q209.3906,757.832 208.75,757.9727 Q208.1094,758.1289 207.4063,758.1289 Q204.9063,758.1289 203.5781,756.4883 Q202.2656,754.832 202.2656,751.707 Q202.2656,748.582 203.5781,746.9258 Q204.9063,745.2695 207.4063,745.2695 Q208.1094,745.2695 208.75,745.4258 Q209.4063,745.582 209.9688,745.8789 L209.9688,748.5977 Q209.3438,748.0195 208.75,747.7539 Q208.1563,747.4727 207.5313,747.4727 Q206.1875,747.4727 205.5,748.5508 Q204.8125,749.6133 204.8125,751.707 Q204.8125,753.8008 205.5,754.8789 Q206.1875,755.9414 207.5313,755.9414 Q208.1563,755.9414 208.75,755.6758 Q209.3438,755.3945 209.9688,754.8164 L209.9688,757.5352 Z " fill="#000000"/><text fill="#FFE797" font-family="Helvetica" font-size="17" lengthAdjust="spacing" textLength="112" x="226" y="757.7798">gcp_snapshot</text><line style="stroke:#000000;stroke-width:1.5;" x1="193" x2="345" y1="771.7891" y2="771.7891"/><text fill="#FFE797" font-family="sans-serif" font-size="11" font-weight="bold" lengthAdjust="spacing" textLength="90" x="203" y="790.9995">storage_bytes</text><text fill="#FFE797" font-family="sans-serif" font-size="11" lengthAdjust="spacing" textLength="36" x="293" y="790.9995">: int64</text><!--MD5=[6675a7857363d8a156b001ed375d6c81]
class snapshot--><rect codeLine="36" fill="#194875" height="207.4219" id="snapshot" rx="2.5" ry="2.5" style="stroke:#000000;stroke-width:1.5;" width="168" x="51" y="404"/><ellipse cx="88.95" cy="423.8945" fill="#1A83AF" rx="11" ry="11" style="stroke:#000000;stroke-width:1.0;"/><path d="M91.9188,429.5352 Q91.3406,429.832 90.7,429.9727 Q90.0594,430.1289 89.3563,430.1289 Q86.8563,430.1289 85.5281,428.4883 Q84.2156,426.832 84.2156,423.707 Q84.2156,420.582 85.5281,418.9258 Q86.8563,417.2695 89.3563,417.2695 Q90.0594,417.2695 90.7,417.4258 Q91.3563,417.582 91.9188,417.8789 L91.9188,420.5977 Q91.2938,420.0195 90.7,419.7539 Q90.1063,419.4727 89.4813,419.4727 Q88.1375,419.4727 87.45,420.5508 Q86.7625,421.6133 86.7625,423.707 Q86.7625,425.8008 87.45,426.8789 Q88.1375,427.9414 89.4813,427.9414 Q90.1063,427.9414 90.7,427.6758 Q91.2938,427.3945 91.9188,426.8164 L91.9188,429.5352 Z " fill="#000000"/><text fill="#FFE797" font-family="Helvetica" font-size="17" lengthAdjust="spacing" textLength="75" x="113.05" y="429.7798">snapshot</text><line style="stroke:#000000;stroke-width:1.5;" x1="52" x2="218" y1="443.7891" y2="443.7891"/><text fill="#FFE797" font-family="sans-serif" font-size="11" font-weight="bold" lengthAdjust="spacing" textLength="105" x="62" y="462.9995">snapshot_status</text><text fill="#FFE797" font-family="sans-serif" font-size="11" lengthAdjust="spacing" textLength="41" x="167" y="462.9995">: string</text><text fill="#FFE797" font-family="sans-serif" font-size="11" font-weight="bold" lengthAdjust="spacing" textLength="72" x="62" y="485.8042">description</text><text fill="#FFE797" font-family="sans-serif" font-size="11" lengthAdjust="spacing" textLength="41" x="134" y="485.8042">: string</text><text fill="#FFE797" font-family="sans-serif" font-size="11" font-weight="bold" lengthAdjust="spacing" textLength="64" x="62" y="508.6089">volume_id</text><text fill="#FFE797" font-family="sans-serif" font-size="11" lengthAdjust="spacing" textLength="41" x="126" y="508.6089">: string</text><text fill="#FFE797" font-family="sans-serif" font-size="11" font-weight="bold" lengthAdjust="spacing" textLength="78" x="62" y="531.4136">volume_size</text><text fill="#FFE797" font-family="sans-serif" font-size="11" lengthAdjust="spacing" textLength="36" x="140" y="531.4136">: int64</text><text fill="#FFE797" font-family="sans-serif" font-size="11" font-weight="bold" lengthAdjust="spacing" textLength="64" x="62" y="554.2183">encrypted</text><text fill="#FFE797" font-family="sans-serif" font-size="11" lengthAdjust="spacing" textLength="53" x="126" y="554.2183">: boolean</text><text fill="#FFE797" font-family="sans-serif" font-size="11" font-weight="bold" lengthAdjust="spacing" textLength="58" x="62" y="577.0229">owner_id</text><text fill="#FFE797" font-family="sans-serif" font-size="11" lengthAdjust="spacing" textLength="41" x="120" y="577.0229">: string</text><text fill="#FFE797" font-family="sans-serif" font-size="11" font-weight="bold" lengthAdjust="spacing" textLength="77" x="62" y="599.8276">owner_alias</text><text fill="#FFE797" font-family="sans-serif" font-size="11" lengthAdjust="spacing" textLength="41" x="139" y="599.8276">: string</text><!--MD5=[53fa05cd85be2a0c969cd3e88e365785]
reverse link gcp_resource to gcp_snapshot--><path codeLine="45" d="M320.65,573.36 C307.21,623.61 289.11,691.29 278.29,731.75 " fill="none" id="gcp_resource-backto-gcp_snapshot" style="stroke:#FFAF37;stroke-width:2.0;"/><polygon fill="none" points="313.89,571.54,325.82,554.03,327.42,575.16,313.89,571.54" style="stroke:#FFAF37;stroke-width:2.0;"/><!--MD5=[977d8143e0a32657243d5219d199f2bf]
reverse link snapshot to gcp_snapshot--><path codeLine="46" d="M197.57,628.96 C217.11,666.6 237.16,705.2 251.03,731.89 " fill="none" id="snapshot-backto-gcp_snapshot" style="stroke:#FFAF37;stroke-width:2.0;"/><polygon fill="none" points="191.35,632.19,188.35,611.21,203.78,625.73,191.35,632.19" style="stroke:#FFAF37;stroke-width:2.0;"/><!--MD5=[3665eefbf74fb60392a23d6584d4ce60]
reverse link resource to snapshot--><path codeLine="47" d="M135,303.49 C135,337.51 135,372.64 135,403.9 " fill="none" id="resource-backto-snapshot" style="stroke:#FFAF37;stroke-width:2.0;"/><polygon fill="none" points="128,303.06,135,283.06,142,303.06,128,303.06" style="stroke:#FFAF37;stroke-width:2.0;"/><!--MD5=[5ae9b29b638aca207ebea2d558144b01]
@startuml
hide empty members
skinparam ArrowColor #ffaf37
skinparam ArrowThickness 2
skinparam BackgroundColor transparent
skinparam ClassAttributeFontColor #ffe797
skinparam ClassBackgroundColor #194875
skinparam ClassBorderColor Black
skinparam ClassFontColor #ffe797
skinparam ClassFontName Helvetica
skinparam ClassFontSize 17
skinparam Padding 5
skinparam RoundCorner 5
skinparam Shadowing false
skinparam stereotypeCBackgroundColor #1a83af
skinparam stereotypeIBackgroundColor #1a83af

class resource {
**id**: string
**tags**: dictionary[string, string]
**name**: string
**ctime**: datetime
**age**: trafo.duration_to_datetime
**mtime**: datetime
**last_update**: trafo.duration_to_datetime
**atime**: datetime
**last_access**: trafo.duration_to_datetime
**kind**: string
}
class gcp_resource {
**link**: string
**label_fingerprint**: string
}
class gcp_snapshot {
**storage_bytes**: int64
}
class snapshot {
**snapshot_status**: string
**description**: string
**volume_id**: string
**volume_size**: int64
**encrypted**: boolean
**owner_id**: string
**owner_alias**: string
}
gcp_resource <|- - - gcp_snapshot
snapshot <|- - - gcp_snapshot
resource <|- - - snapshot
@enduml

PlantUML version 1.2021.16(Wed Dec 08 17:25:22 UTC 2021)
(GPL source distribution)
Java Runtime: OpenJDK Runtime Environment
JVM: OpenJDK 64-Bit Server VM
Default Encoding: UTF-8
Language: en
Country: null
--></g></svg>