<svg xmlns="http://www.w3.org/2000/svg" xmlns:xlink="http://www.w3.org/1999/xlink" width="180" height="94" contentScriptType="application/ecmascript" contentStyleType="text/css" style="width:180px;height:94px;background:#00000000" preserveAspectRatio="none" version="1.1" viewBox="0 0 180 94" zoomAndPan="magnify"><defs><filter id="f16loaoeml6y4y" width="300%" height="300%" x="-1" y="-1"><feGaussianBlur result="blurOut" stdDeviation="2"/><feColorMatrix in="blurOut" result="blurOut2" type="matrix" values="0 0 0 0 0 0 0 0 0 0 0 0 0 0 0 0 0 0 .4 0"/><feOffset dx="4" dy="4" in="blurOut2" result="blurOut3"/><feBlend in="SourceGraphic" in2="blurOut3" mode="normal"/></filter></defs><g><rect id="gcp_resource" width="159" height="73.609" x="7" y="7" fill="#FEFECE" codeLine="2" filter="url(#f16loaoeml6y4y)" style="stroke:#a80036;stroke-width:1.5"/><ellipse cx="40.9" cy="23" fill="#ADD1B2" rx="11" ry="11" style="stroke:#a80036;stroke-width:1"/><path fill="#000" d="M43.8688,28.6406 Q43.2906,28.9375 42.65,29.0781 Q42.0094,29.2344 41.3063,29.2344 Q38.8063,29.2344 37.4781,27.5938 Q36.1656,25.9375 36.1656,22.8125 Q36.1656,19.6875 37.4781,18.0313 Q38.8063,16.375 41.3063,16.375 Q42.0094,16.375 42.65,16.5313 Q43.3063,16.6875 43.8688,16.9844 L43.8688,19.7031 Q43.2438,19.125 42.65,18.8594 Q42.0563,18.5781 41.4313,18.5781 Q40.0875,18.5781 39.4,19.6563 Q38.7125,20.7188 38.7125,22.8125 Q38.7125,24.9063 39.4,25.9844 Q40.0875,27.0469 41.4313,27.0469 Q42.0563,27.0469 42.65,26.7813 Q43.2438,26.5 43.8688,25.9219 L43.8688,28.6406 Z"/><text x="59.1" y="27.154" fill="#000" font-family="sans-serif" font-size="12" lengthAdjust="spacing" textLength="85">gcp_resource</text><line style="stroke:#a80036;stroke-width:1.5" x1="8" x2="165" y1="39" y2="39"/><ellipse cx="18" cy="50" rx="3" ry="3" style="stroke:#038048;stroke-width:1;fill:none"/><text x="27" y="53.21" fill="#000" font-family="sans-serif" font-size="11" lengthAdjust="spacing" textLength="60">link: string</text><ellipse cx="18" cy="62.805" rx="3" ry="3" style="stroke:#038048;stroke-width:1;fill:none"/><text x="27" y="66.015" fill="#000" font-family="sans-serif" font-size="11" lengthAdjust="spacing" textLength="133">label_fingerprint: string</text><line style="stroke:#a80036;stroke-width:1.5" x1="8" x2="165" y1="72.609" y2="72.609"/></g></svg>