<?xml version="1.0" encoding="UTF-8" standalone="no"?><svg xmlns="http://www.w3.org/2000/svg" xmlns:xlink="http://www.w3.org/1999/xlink" contentScriptType="application/ecmascript" contentStyleType="text/css" height="561px" preserveAspectRatio="none" style="width:379px;height:561px;background:#00000000;" version="1.1" viewBox="0 0 379 561" width="379px" zoomAndPan="magnify"><defs><filter height="300%" id="f128saxrz6yk40" width="300%" x="-1" y="-1"><feGaussianBlur result="blurOut" stdDeviation="2.0"/><feColorMatrix in="blurOut" result="blurOut2" type="matrix" values="0 0 0 0 0 0 0 0 0 0 0 0 0 0 0 0 0 0 .4 0"/><feOffset dx="4.0" dy="4.0" in="blurOut2" result="blurOut3"/><feBlend in="SourceGraphic" in2="blurOut3" mode="normal"/></filter></defs><g><!--MD5=[7f0ecf5f554433d3f2e1213379ac821c]
class resource--><rect codeLine="2" fill="#FEFECE" filter="url(#f128saxrz6yk40)" height="176.0469" id="resource" style="stroke:#A80036;stroke-width:1.5;" width="252" x="7" y="7"/><ellipse cx="100.75" cy="23" fill="#ADD1B2" rx="11" ry="11" style="stroke:#A80036;stroke-width:1.0;"/><path d="M103.7188,28.6406 Q103.1406,28.9375 102.5,29.0781 Q101.8594,29.2344 101.1563,29.2344 Q98.6563,29.2344 97.3281,27.5938 Q96.0156,25.9375 96.0156,22.8125 Q96.0156,19.6875 97.3281,18.0313 Q98.6563,16.375 101.1563,16.375 Q101.8594,16.375 102.5,16.5313 Q103.1563,16.6875 103.7188,16.9844 L103.7188,19.7031 Q103.0938,19.125 102.5,18.8594 Q101.9063,18.5781 101.2813,18.5781 Q99.9375,18.5781 99.25,19.6563 Q98.5625,20.7188 98.5625,22.8125 Q98.5625,24.9063 99.25,25.9844 Q99.9375,27.0469 101.2813,27.0469 Q101.9063,27.0469 102.5,26.7813 Q103.0938,26.5 103.7188,25.9219 L103.7188,28.6406 Z " fill="#000000"/><text fill="#000000" font-family="sans-serif" font-size="12" lengthAdjust="spacing" textLength="56" x="121.25" y="27.1543">resource</text><line style="stroke:#A80036;stroke-width:1.5;" x1="8" x2="258" y1="39" y2="39"/><ellipse cx="18" cy="50" rx="3" ry="3" style="stroke:#038048;stroke-width:1.0;fill:none;"/><text fill="#000000" font-family="sans-serif" font-size="11" lengthAdjust="spacing" textLength="51" x="27" y="53.2104">id: string</text><ellipse cx="18" cy="62.8047" rx="3" ry="3" style="stroke:#038048;stroke-width:1.0;fill:none;"/><text fill="#000000" font-family="sans-serif" font-size="11" lengthAdjust="spacing" textLength="170" x="27" y="66.0151">tags: dictionary[string, string]</text><ellipse cx="18" cy="75.6094" rx="3" ry="3" style="stroke:#038048;stroke-width:1.0;fill:none;"/><text fill="#000000" font-family="sans-serif" font-size="11" lengthAdjust="spacing" textLength="73" x="27" y="78.8198">name: string</text><ellipse cx="18" cy="88.4141" rx="3" ry="3" style="stroke:#038048;stroke-width:1.0;fill:none;"/><text fill="#000000" font-family="sans-serif" font-size="11" lengthAdjust="spacing" textLength="89" x="27" y="91.6245">ctime: datetime</text><ellipse cx="18" cy="101.2188" rx="3" ry="3" style="stroke:#038048;stroke-width:1.0;fill:none;"/><text fill="#000000" font-family="sans-serif" font-size="11" lengthAdjust="spacing" textLength="180" x="27" y="104.4292">age: trafo.duration_to_datetime</text><ellipse cx="18" cy="114.0234" rx="3" ry="3" style="stroke:#038048;stroke-width:1.0;fill:none;"/><text fill="#000000" font-family="sans-serif" font-size="11" lengthAdjust="spacing" textLength="94" x="27" y="117.2339">mtime: datetime</text><ellipse cx="18" cy="126.8281" rx="3" ry="3" style="stroke:#038048;stroke-width:1.0;fill:none;"/><text fill="#000000" font-family="sans-serif" font-size="11" lengthAdjust="spacing" textLength="225" x="27" y="130.0386">last_update: trafo.duration_to_datetime</text><ellipse cx="18" cy="139.6328" rx="3" ry="3" style="stroke:#038048;stroke-width:1.0;fill:none;"/><text fill="#000000" font-family="sans-serif" font-size="11" lengthAdjust="spacing" textLength="90" x="27" y="142.8433">atime: datetime</text><ellipse cx="18" cy="152.4375" rx="3" ry="3" style="stroke:#038048;stroke-width:1.0;fill:none;"/><text fill="#000000" font-family="sans-serif" font-size="11" lengthAdjust="spacing" textLength="226" x="27" y="155.6479">last_access: trafo.duration_to_datetime</text><ellipse cx="18" cy="165.2422" rx="3" ry="3" style="stroke:#038048;stroke-width:1.0;fill:none;"/><text fill="#000000" font-family="sans-serif" font-size="11" lengthAdjust="spacing" textLength="64" x="27" y="168.4526">kind: string</text><line style="stroke:#A80036;stroke-width:1.5;" x1="8" x2="258" y1="175.0469" y2="175.0469"/><!--MD5=[96a667c91f46910544c8a4dd691a5f67]
class gcp_resource--><rect codeLine="14" fill="#FEFECE" filter="url(#f128saxrz6yk40)" height="73.6094" id="gcp_resource" style="stroke:#A80036;stroke-width:1.5;" width="159" x="206.5" y="304"/><ellipse cx="240.4" cy="320" fill="#ADD1B2" rx="11" ry="11" style="stroke:#A80036;stroke-width:1.0;"/><path d="M243.3688,325.6406 Q242.7906,325.9375 242.15,326.0781 Q241.5094,326.2344 240.8063,326.2344 Q238.3063,326.2344 236.9781,324.5938 Q235.6656,322.9375 235.6656,319.8125 Q235.6656,316.6875 236.9781,315.0313 Q238.3063,313.375 240.8063,313.375 Q241.5094,313.375 242.15,313.5313 Q242.8063,313.6875 243.3688,313.9844 L243.3688,316.7031 Q242.7438,316.125 242.15,315.8594 Q241.5563,315.5781 240.9313,315.5781 Q239.5875,315.5781 238.9,316.6563 Q238.2125,317.7188 238.2125,319.8125 Q238.2125,321.9063 238.9,322.9844 Q239.5875,324.0469 240.9313,324.0469 Q241.5563,324.0469 242.15,323.7813 Q242.7438,323.5 243.3688,322.9219 L243.3688,325.6406 Z " fill="#000000"/><text fill="#000000" font-family="sans-serif" font-size="12" lengthAdjust="spacing" textLength="85" x="258.6" y="324.1543">gcp_resource</text><line style="stroke:#A80036;stroke-width:1.5;" x1="207.5" x2="364.5" y1="336" y2="336"/><ellipse cx="217.5" cy="347" rx="3" ry="3" style="stroke:#038048;stroke-width:1.0;fill:none;"/><text fill="#000000" font-family="sans-serif" font-size="11" lengthAdjust="spacing" textLength="60" x="226.5" y="350.2104">link: string</text><ellipse cx="217.5" cy="359.8047" rx="3" ry="3" style="stroke:#038048;stroke-width:1.0;fill:none;"/><text fill="#000000" font-family="sans-serif" font-size="11" lengthAdjust="spacing" textLength="133" x="226.5" y="363.0151">label_fingerprint: string</text><line style="stroke:#A80036;stroke-width:1.5;" x1="207.5" x2="364.5" y1="369.6094" y2="369.6094"/><!--MD5=[c9b1461450344310a09eee878d70507a]
class gcp_subnetwork--><rect codeLine="18" fill="#FEFECE" filter="url(#f128saxrz6yk40)" height="48" id="gcp_subnetwork" style="stroke:#A80036;stroke-width:1.5;" width="134" x="142" y="499"/><ellipse cx="157" cy="515" fill="#ADD1B2" rx="11" ry="11" style="stroke:#A80036;stroke-width:1.0;"/><path d="M159.9688,520.6406 Q159.3906,520.9375 158.75,521.0781 Q158.1094,521.2344 157.4063,521.2344 Q154.9063,521.2344 153.5781,519.5938 Q152.2656,517.9375 152.2656,514.8125 Q152.2656,511.6875 153.5781,510.0313 Q154.9063,508.375 157.4063,508.375 Q158.1094,508.375 158.75,508.5313 Q159.4063,508.6875 159.9688,508.9844 L159.9688,511.7031 Q159.3438,511.125 158.75,510.8594 Q158.1563,510.5781 157.5313,510.5781 Q156.1875,510.5781 155.5,511.6563 Q154.8125,512.7188 154.8125,514.8125 Q154.8125,516.9063 155.5,517.9844 Q156.1875,519.0469 157.5313,519.0469 Q158.1563,519.0469 158.75,518.7813 Q159.3438,518.5 159.9688,517.9219 L159.9688,520.6406 Z " fill="#000000"/><text fill="#000000" font-family="sans-serif" font-size="12" lengthAdjust="spacing" textLength="102" x="171" y="519.1543">gcp_subnetwork</text><line style="stroke:#A80036;stroke-width:1.5;" x1="143" x2="275" y1="531" y2="531"/><line style="stroke:#A80036;stroke-width:1.5;" x1="143" x2="275" y1="539" y2="539"/><!--MD5=[ae7729082261e624b90b67805ad34df2]
class subnet--><rect codeLine="21" fill="#FEFECE" filter="url(#f128saxrz6yk40)" height="48" id="subnet" style="stroke:#A80036;stroke-width:1.5;" width="76" x="95" y="317"/><ellipse cx="110" cy="333" fill="#ADD1B2" rx="11" ry="11" style="stroke:#A80036;stroke-width:1.0;"/><path d="M112.9688,338.6406 Q112.3906,338.9375 111.75,339.0781 Q111.1094,339.2344 110.4063,339.2344 Q107.9063,339.2344 106.5781,337.5938 Q105.2656,335.9375 105.2656,332.8125 Q105.2656,329.6875 106.5781,328.0313 Q107.9063,326.375 110.4063,326.375 Q111.1094,326.375 111.75,326.5313 Q112.4063,326.6875 112.9688,326.9844 L112.9688,329.7031 Q112.3438,329.125 111.75,328.8594 Q111.1563,328.5781 110.5313,328.5781 Q109.1875,328.5781 108.5,329.6563 Q107.8125,330.7188 107.8125,332.8125 Q107.8125,334.9063 108.5,335.9844 Q109.1875,337.0469 110.5313,337.0469 Q111.1563,337.0469 111.75,336.7813 Q112.3438,336.5 112.9688,335.9219 L112.9688,338.6406 Z " fill="#000000"/><text fill="#000000" font-family="sans-serif" font-size="12" lengthAdjust="spacing" textLength="44" x="124" y="337.1543">subnet</text><line style="stroke:#A80036;stroke-width:1.5;" x1="96" x2="170" y1="349" y2="349"/><line style="stroke:#A80036;stroke-width:1.5;" x1="96" x2="170" y1="357" y2="357"/><!--MD5=[db9918491e556254146af21a629380f9]
reverse link gcp_resource to gcp_subnetwork--><path codeLine="24" d="M262.51,396.91 C247.91,431.04 229.89,473.16 218.94,498.77 " fill="none" id="gcp_resource-backto-gcp_subnetwork" style="stroke:#A80036;stroke-width:1.0;"/><polygon fill="none" points="256.12,394.06,270.42,378.43,268.99,399.57,256.12,394.06" style="stroke:#A80036;stroke-width:1.0;"/><!--MD5=[3018e7edc5663d4422b0b7b4fa09282d]
reverse link subnet to gcp_subnetwork--><path codeLine="25" d="M150.56,383.59 C165.7,419.44 186.99,469.87 199.26,498.93 " fill="none" id="subnet-backto-gcp_subnetwork" style="stroke:#A80036;stroke-width:1.0;"/><polygon fill="none" points="144.11,386.31,142.78,365.16,157.01,380.87,144.11,386.31" style="stroke:#A80036;stroke-width:1.0;"/><!--MD5=[97e9d3cc8eb6c906dc7f27aa9ecfad30]
reverse link resource to subnet--><path codeLine="26" d="M133,203.29 C133,245.75 133,290.63 133,316.93 " fill="none" id="resource-backto-subnet" style="stroke:#A80036;stroke-width:1.0;"/><polygon fill="none" points="126,203.06,133,183.06,140,203.06,126,203.06" style="stroke:#A80036;stroke-width:1.0;"/><!--MD5=[9c7590e40acde19071e66caf45ceb81b]
@startuml
skinparam backgroundcolor transparent
class resource {
+ id: string
+ tags: dictionary[string, string]
+ name: string
+ ctime: datetime
+ age: trafo.duration_to_datetime
+ mtime: datetime
+ last_update: trafo.duration_to_datetime
+ atime: datetime
+ last_access: trafo.duration_to_datetime
+ kind: string
}
class gcp_resource {
+ link: string
+ label_fingerprint: string
}
class gcp_subnetwork {

}
class subnet {

}
gcp_resource <|- - - gcp_subnetwork
subnet <|- - - gcp_subnetwork
resource <|- - - subnet
@enduml

PlantUML version 1.2021.16(Wed Dec 08 17:25:22 UTC 2021)
(GPL source distribution)
Java Runtime: OpenJDK Runtime Environment
JVM: OpenJDK 64-Bit Server VM
Default Encoding: UTF-8
Language: en
Country: null
--></g></svg>