<?xml version="1.0" encoding="UTF-8" standalone="no"?><svg xmlns="http://www.w3.org/2000/svg" xmlns:xlink="http://www.w3.org/1999/xlink" contentScriptType="application/ecmascript" contentStyleType="text/css" height="823px" preserveAspectRatio="none" style="width:456px;height:823px;background:#00000000;" version="1.1" viewBox="0 0 456 823" width="456px" zoomAndPan="magnify"><defs/><g><!--MD5=[7f0ecf5f554433d3f2e1213379ac821c]
class resource--><rect codeLine="17" fill="#194875" height="275.8359" id="resource" rx="2.5" ry="2.5" style="stroke:#000000;stroke-width:1.5;" width="256" x="7" y="7"/><ellipse cx="90.25" cy="26.8945" fill="#1A83AF" rx="11" ry="11" style="stroke:#000000;stroke-width:1.0;"/><path d="M93.2188,32.5352 Q92.6406,32.832 92,32.9727 Q91.3594,33.1289 90.6563,33.1289 Q88.1563,33.1289 86.8281,31.4883 Q85.5156,29.832 85.5156,26.707 Q85.5156,23.582 86.8281,21.9258 Q88.1563,20.2695 90.6563,20.2695 Q91.3594,20.2695 92,20.4258 Q92.6563,20.582 93.2188,20.8789 L93.2188,23.5977 Q92.5938,23.0195 92,22.7539 Q91.4063,22.4727 90.7813,22.4727 Q89.4375,22.4727 88.75,23.5508 Q88.0625,24.6133 88.0625,26.707 Q88.0625,28.8008 88.75,29.8789 Q89.4375,30.9414 90.7813,30.9414 Q91.4063,30.9414 92,30.6758 Q92.5938,30.3945 93.2188,29.8164 L93.2188,32.5352 Z " fill="#000000"/><text fill="#FFE797" font-family="Helvetica" font-size="17" lengthAdjust="spacing" textLength="71" x="115.75" y="32.7798">resource</text><line style="stroke:#000000;stroke-width:1.5;" x1="8" x2="262" y1="46.7891" y2="46.7891"/><text fill="#FFE797" font-family="sans-serif" font-size="11" font-weight="bold" lengthAdjust="spacing" textLength="12" x="18" y="65.9995">id</text><text fill="#FFE797" font-family="sans-serif" font-size="11" lengthAdjust="spacing" textLength="41" x="30" y="65.9995">: string</text><text fill="#FFE797" font-family="sans-serif" font-size="11" font-weight="bold" lengthAdjust="spacing" textLength="28" x="18" y="88.8042">tags</text><text fill="#FFE797" font-family="sans-serif" font-size="11" lengthAdjust="spacing" textLength="145" x="46" y="88.8042">: dictionary[string, string]</text><text fill="#FFE797" font-family="sans-serif" font-size="11" font-weight="bold" lengthAdjust="spacing" textLength="35" x="18" y="111.6089">name</text><text fill="#FFE797" font-family="sans-serif" font-size="11" lengthAdjust="spacing" textLength="41" x="53" y="111.6089">: string</text><text fill="#FFE797" font-family="sans-serif" font-size="11" font-weight="bold" lengthAdjust="spacing" textLength="35" x="18" y="134.4136">ctime</text><text fill="#FFE797" font-family="sans-serif" font-size="11" lengthAdjust="spacing" textLength="58" x="53" y="134.4136">: datetime</text><text fill="#FFE797" font-family="sans-serif" font-size="11" font-weight="bold" lengthAdjust="spacing" textLength="24" x="18" y="157.2183">age</text><text fill="#FFE797" font-family="sans-serif" font-size="11" lengthAdjust="spacing" textLength="159" x="42" y="157.2183">: trafo.duration_to_datetime</text><text fill="#FFE797" font-family="sans-serif" font-size="11" font-weight="bold" lengthAdjust="spacing" textLength="39" x="18" y="180.0229">mtime</text><text fill="#FFE797" font-family="sans-serif" font-size="11" lengthAdjust="spacing" textLength="58" x="57" y="180.0229">: datetime</text><text fill="#FFE797" font-family="sans-serif" font-size="11" font-weight="bold" lengthAdjust="spacing" textLength="75" x="18" y="202.8276">last_update</text><text fill="#FFE797" font-family="sans-serif" font-size="11" lengthAdjust="spacing" textLength="159" x="93" y="202.8276">: trafo.duration_to_datetime</text><text fill="#FFE797" font-family="sans-serif" font-size="11" font-weight="bold" lengthAdjust="spacing" textLength="36" x="18" y="225.6323">atime</text><text fill="#FFE797" font-family="sans-serif" font-size="11" lengthAdjust="spacing" textLength="58" x="54" y="225.6323">: datetime</text><text fill="#FFE797" font-family="sans-serif" font-size="11" font-weight="bold" lengthAdjust="spacing" textLength="74" x="18" y="248.437">last_access</text><text fill="#FFE797" font-family="sans-serif" font-size="11" lengthAdjust="spacing" textLength="159" x="92" y="248.437">: trafo.duration_to_datetime</text><text fill="#FFE797" font-family="sans-serif" font-size="11" font-weight="bold" lengthAdjust="spacing" textLength="27" x="18" y="271.2417">kind</text><text fill="#FFE797" font-family="sans-serif" font-size="11" lengthAdjust="spacing" textLength="41" x="45" y="271.2417">: string</text><!--MD5=[96a667c91f46910544c8a4dd691a5f67]
class gcp_resource--><rect codeLine="29" fill="#194875" height="93.3984" id="gcp_resource" rx="2.5" ry="2.5" style="stroke:#000000;stroke-width:1.5;" width="169" x="280.5" y="484"/><ellipse cx="304.05" cy="503.8945" fill="#1A83AF" rx="11" ry="11" style="stroke:#000000;stroke-width:1.0;"/><path d="M307.0188,509.5352 Q306.4406,509.832 305.8,509.9727 Q305.1594,510.1289 304.4563,510.1289 Q301.9563,510.1289 300.6281,508.4883 Q299.3156,506.832 299.3156,503.707 Q299.3156,500.582 300.6281,498.9258 Q301.9563,497.2695 304.4563,497.2695 Q305.1594,497.2695 305.8,497.4258 Q306.4563,497.582 307.0188,497.8789 L307.0188,500.5977 Q306.3938,500.0195 305.8,499.7539 Q305.2063,499.4727 304.5813,499.4727 Q303.2375,499.4727 302.55,500.5508 Q301.8625,501.6133 301.8625,503.707 Q301.8625,505.8008 302.55,506.8789 Q303.2375,507.9414 304.5813,507.9414 Q305.2063,507.9414 305.8,507.6758 Q306.3938,507.3945 307.0188,506.8164 L307.0188,509.5352 Z " fill="#000000"/><text fill="#FFE797" font-family="Helvetica" font-size="17" lengthAdjust="spacing" textLength="108" x="324.95" y="509.7798">gcp_resource</text><line style="stroke:#000000;stroke-width:1.5;" x1="281.5" x2="448.5" y1="523.7891" y2="523.7891"/><text fill="#FFE797" font-family="sans-serif" font-size="11" font-weight="bold" lengthAdjust="spacing" textLength="23" x="291.5" y="542.9995">link</text><text fill="#FFE797" font-family="sans-serif" font-size="11" lengthAdjust="spacing" textLength="41" x="314.5" y="542.9995">: string</text><text fill="#FFE797" font-family="sans-serif" font-size="11" font-weight="bold" lengthAdjust="spacing" textLength="106" x="291.5" y="565.8042">label_fingerprint</text><text fill="#FFE797" font-family="sans-serif" font-size="11" lengthAdjust="spacing" textLength="41" x="397.5" y="565.8042">: string</text><!--MD5=[6dd357750fb0136eccb22bd541e74502]
class database--><rect codeLine="33" fill="#194875" height="253.0313" id="database" rx="2.5" ry="2.5" style="stroke:#000000;stroke-width:1.5;" width="221" x="24.5" y="404"/><ellipse cx="88.25" cy="423.8945" fill="#1A83AF" rx="11" ry="11" style="stroke:#000000;stroke-width:1.0;"/><path d="M91.2188,429.5352 Q90.6406,429.832 90,429.9727 Q89.3594,430.1289 88.6563,430.1289 Q86.1563,430.1289 84.8281,428.4883 Q83.5156,426.832 83.5156,423.707 Q83.5156,420.582 84.8281,418.9258 Q86.1563,417.2695 88.6563,417.2695 Q89.3594,417.2695 90,417.4258 Q90.6563,417.582 91.2188,417.8789 L91.2188,420.5977 Q90.5938,420.0195 90,419.7539 Q89.4063,419.4727 88.7813,419.4727 Q87.4375,419.4727 86.75,420.5508 Q86.0625,421.6133 86.0625,423.707 Q86.0625,425.8008 86.75,426.8789 Q87.4375,427.9414 88.7813,427.9414 Q89.4063,427.9414 90,427.6758 Q90.5938,427.3945 91.2188,426.8164 L91.2188,429.5352 Z " fill="#000000"/><text fill="#FFE797" font-family="Helvetica" font-size="17" lengthAdjust="spacing" textLength="75" x="113.75" y="429.7798">database</text><line style="stroke:#000000;stroke-width:1.5;" x1="25.5" x2="244.5" y1="443.7891" y2="443.7891"/><text fill="#FFE797" font-family="sans-serif" font-size="11" font-weight="bold" lengthAdjust="spacing" textLength="50" x="35.5" y="462.9995">db_type</text><text fill="#FFE797" font-family="sans-serif" font-size="11" lengthAdjust="spacing" textLength="41" x="85.5" y="462.9995">: string</text><text fill="#FFE797" font-family="sans-serif" font-size="11" font-weight="bold" lengthAdjust="spacing" textLength="62" x="35.5" y="485.8042">db_status</text><text fill="#FFE797" font-family="sans-serif" font-size="11" lengthAdjust="spacing" textLength="41" x="97.5" y="485.8042">: string</text><text fill="#FFE797" font-family="sans-serif" font-size="11" font-weight="bold" lengthAdjust="spacing" textLength="79" x="35.5" y="508.6089">db_endpoint</text><text fill="#FFE797" font-family="sans-serif" font-size="11" lengthAdjust="spacing" textLength="41" x="114.5" y="508.6089">: string</text><text fill="#FFE797" font-family="sans-serif" font-size="11" font-weight="bold" lengthAdjust="spacing" textLength="69" x="35.5" y="531.4136">db_version</text><text fill="#FFE797" font-family="sans-serif" font-size="11" lengthAdjust="spacing" textLength="41" x="104.5" y="531.4136">: string</text><text fill="#FFE797" font-family="sans-serif" font-size="11" font-weight="bold" lengthAdjust="spacing" textLength="146" x="35.5" y="554.2183">db_publicly_accessible</text><text fill="#FFE797" font-family="sans-serif" font-size="11" lengthAdjust="spacing" textLength="53" x="181.5" y="554.2183">: boolean</text><text fill="#FFE797" font-family="sans-serif" font-size="11" font-weight="bold" lengthAdjust="spacing" textLength="89" x="35.5" y="577.0229">instance_type</text><text fill="#FFE797" font-family="sans-serif" font-size="11" lengthAdjust="spacing" textLength="41" x="124.5" y="577.0229">: string</text><text fill="#FFE797" font-family="sans-serif" font-size="11" font-weight="bold" lengthAdjust="spacing" textLength="78" x="35.5" y="599.8276">volume_size</text><text fill="#FFE797" font-family="sans-serif" font-size="11" lengthAdjust="spacing" textLength="36" x="113.5" y="599.8276">: int64</text><text fill="#FFE797" font-family="sans-serif" font-size="11" font-weight="bold" lengthAdjust="spacing" textLength="79" x="35.5" y="622.6323">volume_iops</text><text fill="#FFE797" font-family="sans-serif" font-size="11" lengthAdjust="spacing" textLength="36" x="114.5" y="622.6323">: int64</text><text fill="#FFE797" font-family="sans-serif" font-size="11" font-weight="bold" lengthAdjust="spacing" textLength="116" x="35.5" y="645.437">volume_encrypted</text><text fill="#FFE797" font-family="sans-serif" font-size="11" lengthAdjust="spacing" textLength="53" x="151.5" y="645.437">: boolean</text><!--MD5=[30c285e134fd43aa6c2a7dc46c5c68b8]
class gcp_database--><rect codeLine="44" fill="#194875" height="39.7891" id="gcp_database" rx="2.5" ry="2.5" style="stroke:#000000;stroke-width:1.5;" width="154" x="212" y="778"/><ellipse cx="227" cy="797.8945" fill="#1A83AF" rx="11" ry="11" style="stroke:#000000;stroke-width:1.0;"/><path d="M229.9688,803.5352 Q229.3906,803.832 228.75,803.9727 Q228.1094,804.1289 227.4063,804.1289 Q224.9063,804.1289 223.5781,802.4883 Q222.2656,800.832 222.2656,797.707 Q222.2656,794.582 223.5781,792.9258 Q224.9063,791.2695 227.4063,791.2695 Q228.1094,791.2695 228.75,791.4258 Q229.4063,791.582 229.9688,791.8789 L229.9688,794.5977 Q229.3438,794.0195 228.75,793.7539 Q228.1563,793.4727 227.5313,793.4727 Q226.1875,793.4727 225.5,794.5508 Q224.8125,795.6133 224.8125,797.707 Q224.8125,799.8008 225.5,800.8789 Q226.1875,801.9414 227.5313,801.9414 Q228.1563,801.9414 228.75,801.6758 Q229.3438,801.3945 229.9688,800.8164 L229.9688,803.5352 Z " fill="#000000"/><text fill="#FFE797" font-family="Helvetica" font-size="17" lengthAdjust="spacing" textLength="112" x="246" y="803.7798">gcp_database</text><!--MD5=[fceed0354bfe0df8659e8e95b5b412ed]
reverse link resource to database--><path codeLine="47" d="M135,303.17 C135,336.68 135,371.63 135,403.77 " fill="none" id="resource-backto-database" style="stroke:#FFAF37;stroke-width:2.0;"/><polygon fill="none" points="128,303.1,135,283.1,142,303.1,128,303.1" style="stroke:#FFAF37;stroke-width:2.0;"/><!--MD5=[4f8be6bf3871d519ccd704a282ee85c5]
reverse link gcp_resource to gcp_database--><path codeLine="48" d="M346.34,596.68 C329.29,656.25 305.15,740.58 294.46,777.93 " fill="none" id="gcp_resource-backto-gcp_database" style="stroke:#FFAF37;stroke-width:2.0;"/><polygon fill="none" points="339.7,594.44,351.94,577.14,353.16,598.3,339.7,594.44" style="stroke:#FFAF37;stroke-width:2.0;"/><!--MD5=[b3f4dde6370318abaa1262f8bf7a4d4e]
reverse link database to gcp_database--><path codeLine="49" d="M217.99,674.58 C241.82,715.66 264.88,755.41 277.96,777.97 " fill="none" id="database-backto-gcp_database" style="stroke:#FFAF37;stroke-width:2.0;"/><polygon fill="none" points="211.92,678.06,207.94,657.25,224.03,671.04,211.92,678.06" style="stroke:#FFAF37;stroke-width:2.0;"/><!--MD5=[8f48a59e47a8c37a69308fb4a7516b2a]
@startuml
hide empty members
skinparam ArrowColor #ffaf37
skinparam ArrowThickness 2
skinparam BackgroundColor transparent
skinparam ClassAttributeFontColor #ffe797
skinparam ClassBackgroundColor #194875
skinparam ClassBorderColor Black
skinparam ClassFontColor #ffe797
skinparam ClassFontName Helvetica
skinparam ClassFontSize 17
skinparam Padding 5
skinparam RoundCorner 5
skinparam Shadowing false
skinparam stereotypeCBackgroundColor #1a83af
skinparam stereotypeIBackgroundColor #1a83af

class resource {
**id**: string
**tags**: dictionary[string, string]
**name**: string
**ctime**: datetime
**age**: trafo.duration_to_datetime
**mtime**: datetime
**last_update**: trafo.duration_to_datetime
**atime**: datetime
**last_access**: trafo.duration_to_datetime
**kind**: string
}
class gcp_resource {
**link**: string
**label_fingerprint**: string
}
class database {
**db_type**: string
**db_status**: string
**db_endpoint**: string
**db_version**: string
**db_publicly_accessible**: boolean
**instance_type**: string
**volume_size**: int64
**volume_iops**: int64
**volume_encrypted**: boolean
}
class gcp_database {

}
resource <|- - - database
gcp_resource <|- - - gcp_database
database <|- - - gcp_database
@enduml

PlantUML version 1.2021.16(Wed Dec 08 17:25:22 UTC 2021)
(GPL source distribution)
Java Runtime: OpenJDK Runtime Environment
JVM: OpenJDK 64-Bit Server VM
Default Encoding: UTF-8
Language: en
Country: null
--></g></svg>