<svg xmlns="http://www.w3.org/2000/svg" xmlns:xlink="http://www.w3.org/1999/xlink" width="395" height="764" contentScriptType="application/ecmascript" contentStyleType="text/css" style="width:395px;height:764px;background:#00000000" preserveAspectRatio="none" version="1.1" viewBox="0 0 395 764" zoomAndPan="magnify"><g><rect id="resource" width="256" height="275.836" x="7" y="7" fill="#194875" codeLine="17" rx="2.5" ry="2.5" style="stroke:#000;stroke-width:1.5"/><ellipse cx="90.25" cy="26.895" fill="#1A83AF" rx="11" ry="11" style="stroke:#000;stroke-width:1"/><path fill="#000" d="M93.2188,32.5352 Q92.6406,32.832 92,32.9727 Q91.3594,33.1289 90.6563,33.1289 Q88.1563,33.1289 86.8281,31.4883 Q85.5156,29.832 85.5156,26.707 Q85.5156,23.582 86.8281,21.9258 Q88.1563,20.2695 90.6563,20.2695 Q91.3594,20.2695 92,20.4258 Q92.6563,20.582 93.2188,20.8789 L93.2188,23.5977 Q92.5938,23.0195 92,22.7539 Q91.4063,22.4727 90.7813,22.4727 Q89.4375,22.4727 88.75,23.5508 Q88.0625,24.6133 88.0625,26.707 Q88.0625,28.8008 88.75,29.8789 Q89.4375,30.9414 90.7813,30.9414 Q91.4063,30.9414 92,30.6758 Q92.5938,30.3945 93.2188,29.8164 L93.2188,32.5352 Z"/><text x="115.75" y="32.78" fill="#FFE797" font-family="Helvetica" font-size="17" lengthAdjust="spacing" textLength="71">resource</text><line style="stroke:#000;stroke-width:1.5" x1="8" x2="262" y1="46.789" y2="46.789"/><text x="18" y="65.999" fill="#FFE797" font-family="sans-serif" font-size="11" font-weight="bold" lengthAdjust="spacing" textLength="12">id</text><text x="30" y="65.999" fill="#FFE797" font-family="sans-serif" font-size="11" lengthAdjust="spacing" textLength="41">: string</text><text x="18" y="88.804" fill="#FFE797" font-family="sans-serif" font-size="11" font-weight="bold" lengthAdjust="spacing" textLength="28">tags</text><text x="46" y="88.804" fill="#FFE797" font-family="sans-serif" font-size="11" lengthAdjust="spacing" textLength="145">: dictionary[string, string]</text><text x="18" y="111.609" fill="#FFE797" font-family="sans-serif" font-size="11" font-weight="bold" lengthAdjust="spacing" textLength="35">name</text><text x="53" y="111.609" fill="#FFE797" font-family="sans-serif" font-size="11" lengthAdjust="spacing" textLength="41">: string</text><text x="18" y="134.414" fill="#FFE797" font-family="sans-serif" font-size="11" font-weight="bold" lengthAdjust="spacing" textLength="35">ctime</text><text x="53" y="134.414" fill="#FFE797" font-family="sans-serif" font-size="11" lengthAdjust="spacing" textLength="58">: datetime</text><text x="18" y="157.218" fill="#FFE797" font-family="sans-serif" font-size="11" font-weight="bold" lengthAdjust="spacing" textLength="24">age</text><text x="42" y="157.218" fill="#FFE797" font-family="sans-serif" font-size="11" lengthAdjust="spacing" textLength="159">: trafo.duration_to_datetime</text><text x="18" y="180.023" fill="#FFE797" font-family="sans-serif" font-size="11" font-weight="bold" lengthAdjust="spacing" textLength="39">mtime</text><text x="57" y="180.023" fill="#FFE797" font-family="sans-serif" font-size="11" lengthAdjust="spacing" textLength="58">: datetime</text><text x="18" y="202.828" fill="#FFE797" font-family="sans-serif" font-size="11" font-weight="bold" lengthAdjust="spacing" textLength="75">last_update</text><text x="93" y="202.828" fill="#FFE797" font-family="sans-serif" font-size="11" lengthAdjust="spacing" textLength="159">: trafo.duration_to_datetime</text><text x="18" y="225.632" fill="#FFE797" font-family="sans-serif" font-size="11" font-weight="bold" lengthAdjust="spacing" textLength="36">atime</text><text x="54" y="225.632" fill="#FFE797" font-family="sans-serif" font-size="11" lengthAdjust="spacing" textLength="58">: datetime</text><text x="18" y="248.437" fill="#FFE797" font-family="sans-serif" font-size="11" font-weight="bold" lengthAdjust="spacing" textLength="74">last_access</text><text x="92" y="248.437" fill="#FFE797" font-family="sans-serif" font-size="11" lengthAdjust="spacing" textLength="159">: trafo.duration_to_datetime</text><text x="18" y="271.242" fill="#FFE797" font-family="sans-serif" font-size="11" font-weight="bold" lengthAdjust="spacing" textLength="27">kind</text><text x="45" y="271.242" fill="#FFE797" font-family="sans-serif" font-size="11" lengthAdjust="spacing" textLength="41">: string</text><rect id="gcp_resource" width="169" height="93.398" x="219.5" y="404" fill="#194875" codeLine="29" rx="2.5" ry="2.5" style="stroke:#000;stroke-width:1.5"/><ellipse cx="243.05" cy="423.894" fill="#1A83AF" rx="11" ry="11" style="stroke:#000;stroke-width:1"/><path fill="#000" d="M246.0188,429.5352 Q245.4406,429.832 244.8,429.9727 Q244.1594,430.1289 243.4563,430.1289 Q240.9563,430.1289 239.6281,428.4883 Q238.3156,426.832 238.3156,423.707 Q238.3156,420.582 239.6281,418.9258 Q240.9563,417.2695 243.4563,417.2695 Q244.1594,417.2695 244.8,417.4258 Q245.4563,417.582 246.0188,417.8789 L246.0188,420.5977 Q245.3938,420.0195 244.8,419.7539 Q244.2063,419.4727 243.5813,419.4727 Q242.2375,419.4727 241.55,420.5508 Q240.8625,421.6133 240.8625,423.707 Q240.8625,425.8008 241.55,426.8789 Q242.2375,427.9414 243.5813,427.9414 Q244.2063,427.9414 244.8,427.6758 Q245.3938,427.3945 246.0188,426.8164 L246.0188,429.5352 Z"/><text x="263.95" y="429.78" fill="#FFE797" font-family="Helvetica" font-size="17" lengthAdjust="spacing" textLength="108">gcp_resource</text><line style="stroke:#000;stroke-width:1.5" x1="220.5" x2="387.5" y1="443.789" y2="443.789"/><text x="230.5" y="463" fill="#FFE797" font-family="sans-serif" font-size="11" font-weight="bold" lengthAdjust="spacing" textLength="23">link</text><text x="253.5" y="463" fill="#FFE797" font-family="sans-serif" font-size="11" lengthAdjust="spacing" textLength="41">: string</text><text x="230.5" y="485.804" fill="#FFE797" font-family="sans-serif" font-size="11" font-weight="bold" lengthAdjust="spacing" textLength="106">label_fingerprint</text><text x="336.5" y="485.804" fill="#FFE797" font-family="sans-serif" font-size="11" lengthAdjust="spacing" textLength="41">: string</text><rect id="gcp_bucket" width="198" height="139.008" x="120" y="618" fill="#194875" codeLine="33" rx="2.5" ry="2.5" style="stroke:#000;stroke-width:1.5"/><ellipse cx="163.35" cy="637.894" fill="#1A83AF" rx="11" ry="11" style="stroke:#000;stroke-width:1"/><path fill="#000" d="M166.3188,643.5352 Q165.7406,643.832 165.1,643.9727 Q164.4594,644.1289 163.7563,644.1289 Q161.2563,644.1289 159.9281,642.4883 Q158.6156,640.832 158.6156,637.707 Q158.6156,634.582 159.9281,632.9258 Q161.2563,631.2695 163.7563,631.2695 Q164.4594,631.2695 165.1,631.4258 Q165.7563,631.582 166.3188,631.8789 L166.3188,634.5977 Q165.6938,634.0195 165.1,633.7539 Q164.5063,633.4727 163.8813,633.4727 Q162.5375,633.4727 161.85,634.5508 Q161.1625,635.6133 161.1625,637.707 Q161.1625,639.8008 161.85,640.8789 Q162.5375,641.9414 163.8813,641.9414 Q164.5063,641.9414 165.1,641.6758 Q165.6938,641.3945 166.3188,640.8164 L166.3188,643.5352 Z"/><text x="188.65" y="643.78" fill="#FFE797" font-family="Helvetica" font-size="17" lengthAdjust="spacing" textLength="93">gcp_bucket</text><line style="stroke:#000;stroke-width:1.5" x1="121" x2="317" y1="657.789" y2="657.789"/><text x="131" y="677" fill="#FFE797" font-family="sans-serif" font-size="11" font-weight="bold" lengthAdjust="spacing" textLength="101">bucket_location</text><text x="232" y="677" fill="#FFE797" font-family="sans-serif" font-size="11" lengthAdjust="spacing" textLength="41">: string</text><text x="131" y="699.804" fill="#FFE797" font-family="sans-serif" font-size="11" font-weight="bold" lengthAdjust="spacing" textLength="135">bucket_location_type</text><text x="266" y="699.804" fill="#FFE797" font-family="sans-serif" font-size="11" lengthAdjust="spacing" textLength="41">: string</text><text x="131" y="722.609" fill="#FFE797" font-family="sans-serif" font-size="11" font-weight="bold" lengthAdjust="spacing" textLength="88">storage_class</text><text x="219" y="722.609" fill="#FFE797" font-family="sans-serif" font-size="11" lengthAdjust="spacing" textLength="41">: string</text><text x="131" y="745.414" fill="#FFE797" font-family="sans-serif" font-size="11" font-weight="bold" lengthAdjust="spacing" textLength="106">zone_separation</text><text x="237" y="745.414" fill="#FFE797" font-family="sans-serif" font-size="11" lengthAdjust="spacing" textLength="53">: boolean</text><rect id="bucket" width="98" height="39.789" x="86" y="430.5" fill="#194875" codeLine="39" rx="2.5" ry="2.5" style="stroke:#000;stroke-width:1.5"/><ellipse cx="101" cy="450.394" fill="#1A83AF" rx="11" ry="11" style="stroke:#000;stroke-width:1"/><path fill="#000" d="M103.9688,456.0352 Q103.3906,456.332 102.75,456.4727 Q102.1094,456.6289 101.4063,456.6289 Q98.9063,456.6289 97.5781,454.9883 Q96.2656,453.332 96.2656,450.207 Q96.2656,447.082 97.5781,445.4258 Q98.9063,443.7695 101.4063,443.7695 Q102.1094,443.7695 102.75,443.9258 Q103.4063,444.082 103.9688,444.3789 L103.9688,447.0977 Q103.3438,446.5195 102.75,446.2539 Q102.1563,445.9727 101.5313,445.9727 Q100.1875,445.9727 99.5,447.0508 Q98.8125,448.1133 98.8125,450.207 Q98.8125,452.3008 99.5,453.3789 Q100.1875,454.4414 101.5313,454.4414 Q102.1563,454.4414 102.75,454.1758 Q103.3438,453.8945 103.9688,453.3164 L103.9688,456.0352 Z"/><text x="120" y="456.28" fill="#FFE797" font-family="Helvetica" font-size="17" lengthAdjust="spacing" textLength="56">bucket</text><path id="gcp_resource-backto-gcp_bucket" fill="none" d="M280.57,516.29 C269.15,547.85 255.42,585.82 243.82,617.88" codeLine="42" style="stroke:#ffaf37;stroke-width:2"/><polygon fill="none" points="274.12 513.52 287.51 497.09 287.29 518.28 274.12 513.52" style="stroke:#ffaf37;stroke-width:2"/><path id="bucket-backto-gcp_bucket" fill="none" d="M148.7,489.82 C161.07,524.43 179.57,576.18 194.48,617.91" codeLine="43" style="stroke:#ffaf37;stroke-width:2"/><polygon fill="none" points="142.01 491.92 141.87 470.73 155.2 487.21 142.01 491.92" style="stroke:#ffaf37;stroke-width:2"/><path id="resource-backto-bucket" fill="none" d="M135,303.26 C135,353.92 135,403.76 135,430.16" codeLine="44" style="stroke:#ffaf37;stroke-width:2"/><polygon fill="none" points="128 303.1 135 283.1 142 303.1 128 303.1" style="stroke:#ffaf37;stroke-width:2"/></g></svg>