<svg xmlns="http://www.w3.org/2000/svg" xmlns:xlink="http://www.w3.org/1999/xlink" width="435" height="741" contentScriptType="application/ecmascript" contentStyleType="text/css" style="width:435px;height:741px;background:#00000000" preserveAspectRatio="none" version="1.1" viewBox="0 0 435 741" zoomAndPan="magnify"><g><rect id="resource" width="256" height="275.836" x="7" y="7" fill="#194875" codeLine="17" rx="2.5" ry="2.5" style="stroke:#000;stroke-width:1.5"/><ellipse cx="90.25" cy="26.895" fill="#1A83AF" rx="11" ry="11" style="stroke:#000;stroke-width:1"/><path fill="#000" d="M93.2188,32.5352 Q92.6406,32.832 92,32.9727 Q91.3594,33.1289 90.6563,33.1289 Q88.1563,33.1289 86.8281,31.4883 Q85.5156,29.832 85.5156,26.707 Q85.5156,23.582 86.8281,21.9258 Q88.1563,20.2695 90.6563,20.2695 Q91.3594,20.2695 92,20.4258 Q92.6563,20.582 93.2188,20.8789 L93.2188,23.5977 Q92.5938,23.0195 92,22.7539 Q91.4063,22.4727 90.7813,22.4727 Q89.4375,22.4727 88.75,23.5508 Q88.0625,24.6133 88.0625,26.707 Q88.0625,28.8008 88.75,29.8789 Q89.4375,30.9414 90.7813,30.9414 Q91.4063,30.9414 92,30.6758 Q92.5938,30.3945 93.2188,29.8164 L93.2188,32.5352 Z"/><text x="115.75" y="32.78" fill="#FFE797" font-family="Helvetica" font-size="17" lengthAdjust="spacing" textLength="71">resource</text><line style="stroke:#000;stroke-width:1.5" x1="8" x2="262" y1="46.789" y2="46.789"/><text x="18" y="65.999" fill="#FFE797" font-family="sans-serif" font-size="11" font-weight="bold" lengthAdjust="spacing" textLength="12">id</text><text x="30" y="65.999" fill="#FFE797" font-family="sans-serif" font-size="11" lengthAdjust="spacing" textLength="41">: string</text><text x="18" y="88.804" fill="#FFE797" font-family="sans-serif" font-size="11" font-weight="bold" lengthAdjust="spacing" textLength="28">tags</text><text x="46" y="88.804" fill="#FFE797" font-family="sans-serif" font-size="11" lengthAdjust="spacing" textLength="145">: dictionary[string, string]</text><text x="18" y="111.609" fill="#FFE797" font-family="sans-serif" font-size="11" font-weight="bold" lengthAdjust="spacing" textLength="35">name</text><text x="53" y="111.609" fill="#FFE797" font-family="sans-serif" font-size="11" lengthAdjust="spacing" textLength="41">: string</text><text x="18" y="134.414" fill="#FFE797" font-family="sans-serif" font-size="11" font-weight="bold" lengthAdjust="spacing" textLength="35">ctime</text><text x="53" y="134.414" fill="#FFE797" font-family="sans-serif" font-size="11" lengthAdjust="spacing" textLength="58">: datetime</text><text x="18" y="157.218" fill="#FFE797" font-family="sans-serif" font-size="11" font-weight="bold" lengthAdjust="spacing" textLength="24">age</text><text x="42" y="157.218" fill="#FFE797" font-family="sans-serif" font-size="11" lengthAdjust="spacing" textLength="159">: trafo.duration_to_datetime</text><text x="18" y="180.023" fill="#FFE797" font-family="sans-serif" font-size="11" font-weight="bold" lengthAdjust="spacing" textLength="39">mtime</text><text x="57" y="180.023" fill="#FFE797" font-family="sans-serif" font-size="11" lengthAdjust="spacing" textLength="58">: datetime</text><text x="18" y="202.828" fill="#FFE797" font-family="sans-serif" font-size="11" font-weight="bold" lengthAdjust="spacing" textLength="75">last_update</text><text x="93" y="202.828" fill="#FFE797" font-family="sans-serif" font-size="11" lengthAdjust="spacing" textLength="159">: trafo.duration_to_datetime</text><text x="18" y="225.632" fill="#FFE797" font-family="sans-serif" font-size="11" font-weight="bold" lengthAdjust="spacing" textLength="36">atime</text><text x="54" y="225.632" fill="#FFE797" font-family="sans-serif" font-size="11" lengthAdjust="spacing" textLength="58">: datetime</text><text x="18" y="248.437" fill="#FFE797" font-family="sans-serif" font-size="11" font-weight="bold" lengthAdjust="spacing" textLength="74">last_access</text><text x="92" y="248.437" fill="#FFE797" font-family="sans-serif" font-size="11" lengthAdjust="spacing" textLength="159">: trafo.duration_to_datetime</text><text x="18" y="271.242" fill="#FFE797" font-family="sans-serif" font-size="11" font-weight="bold" lengthAdjust="spacing" textLength="27">kind</text><text x="45" y="271.242" fill="#FFE797" font-family="sans-serif" font-size="11" lengthAdjust="spacing" textLength="41">: string</text><rect id="gcp_resource" width="169" height="93.398" x="259.5" y="427" fill="#194875" codeLine="29" rx="2.5" ry="2.5" style="stroke:#000;stroke-width:1.5"/><ellipse cx="283.05" cy="446.894" fill="#1A83AF" rx="11" ry="11" style="stroke:#000;stroke-width:1"/><path fill="#000" d="M286.0188,452.5352 Q285.4406,452.832 284.8,452.9727 Q284.1594,453.1289 283.4563,453.1289 Q280.9563,453.1289 279.6281,451.4883 Q278.3156,449.832 278.3156,446.707 Q278.3156,443.582 279.6281,441.9258 Q280.9563,440.2695 283.4563,440.2695 Q284.1594,440.2695 284.8,440.4258 Q285.4563,440.582 286.0188,440.8789 L286.0188,443.5977 Q285.3938,443.0195 284.8,442.7539 Q284.2063,442.4727 283.5813,442.4727 Q282.2375,442.4727 281.55,443.5508 Q280.8625,444.6133 280.8625,446.707 Q280.8625,448.8008 281.55,449.8789 Q282.2375,450.9414 283.5813,450.9414 Q284.2063,450.9414 284.8,450.6758 Q285.3938,450.3945 286.0188,449.8164 L286.0188,452.5352 Z"/><text x="303.95" y="452.78" fill="#FFE797" font-family="Helvetica" font-size="17" lengthAdjust="spacing" textLength="108">gcp_resource</text><line style="stroke:#000;stroke-width:1.5" x1="260.5" x2="427.5" y1="466.789" y2="466.789"/><text x="270.5" y="486" fill="#FFE797" font-family="sans-serif" font-size="11" font-weight="bold" lengthAdjust="spacing" textLength="23">link</text><text x="293.5" y="486" fill="#FFE797" font-family="sans-serif" font-size="11" lengthAdjust="spacing" textLength="41">: string</text><text x="270.5" y="508.804" fill="#FFE797" font-family="sans-serif" font-size="11" font-weight="bold" lengthAdjust="spacing" textLength="106">label_fingerprint</text><text x="376.5" y="508.804" fill="#FFE797" font-family="sans-serif" font-size="11" lengthAdjust="spacing" textLength="41">: string</text><rect id="instance" width="179" height="139.008" x="45.5" y="404" fill="#194875" codeLine="33" rx="2.5" ry="2.5" style="stroke:#000;stroke-width:1.5"/><ellipse cx="90.75" cy="423.894" fill="#1A83AF" rx="11" ry="11" style="stroke:#000;stroke-width:1"/><path fill="#000" d="M93.7188,429.5352 Q93.1406,429.832 92.5,429.9727 Q91.8594,430.1289 91.1563,430.1289 Q88.6563,430.1289 87.3281,428.4883 Q86.0156,426.832 86.0156,423.707 Q86.0156,420.582 87.3281,418.9258 Q88.6563,417.2695 91.1563,417.2695 Q91.8594,417.2695 92.5,417.4258 Q93.1563,417.582 93.7188,417.8789 L93.7188,420.5977 Q93.0938,420.0195 92.5,419.7539 Q91.9063,419.4727 91.2813,419.4727 Q89.9375,419.4727 89.25,420.5508 Q88.5625,421.6133 88.5625,423.707 Q88.5625,425.8008 89.25,426.8789 Q89.9375,427.9414 91.2813,427.9414 Q91.9063,427.9414 92.5,427.6758 Q93.0938,427.3945 93.7188,426.8164 L93.7188,429.5352 Z"/><text x="116.25" y="429.78" fill="#FFE797" font-family="Helvetica" font-size="17" lengthAdjust="spacing" textLength="70">instance</text><line style="stroke:#000;stroke-width:1.5" x1="46.5" x2="223.5" y1="443.789" y2="443.789"/><text x="56.5" y="463" fill="#FFE797" font-family="sans-serif" font-size="11" font-weight="bold" lengthAdjust="spacing" textLength="96">instance_cores</text><text x="152.5" y="463" fill="#FFE797" font-family="sans-serif" font-size="11" lengthAdjust="spacing" textLength="46">: double</text><text x="56.5" y="485.804" fill="#FFE797" font-family="sans-serif" font-size="11" font-weight="bold" lengthAdjust="spacing" textLength="111">instance_memory</text><text x="167.5" y="485.804" fill="#FFE797" font-family="sans-serif" font-size="11" lengthAdjust="spacing" textLength="46">: double</text><text x="56.5" y="508.609" fill="#FFE797" font-family="sans-serif" font-size="11" font-weight="bold" lengthAdjust="spacing" textLength="89">instance_type</text><text x="145.5" y="508.609" fill="#FFE797" font-family="sans-serif" font-size="11" lengthAdjust="spacing" textLength="41">: string</text><text x="56.5" y="531.414" fill="#FFE797" font-family="sans-serif" font-size="11" font-weight="bold" lengthAdjust="spacing" textLength="101">instance_status</text><text x="157.5" y="531.414" fill="#FFE797" font-family="sans-serif" font-size="11" lengthAdjust="spacing" textLength="41">: string</text><rect id="gcp_instance" width="186" height="70.594" x="181" y="664" fill="#194875" codeLine="39" rx="2.5" ry="2.5" style="stroke:#000;stroke-width:1.5"/><ellipse cx="212.65" cy="683.894" fill="#1A83AF" rx="11" ry="11" style="stroke:#000;stroke-width:1"/><path fill="#000" d="M215.6188,689.5352 Q215.0406,689.832 214.4,689.9727 Q213.7594,690.1289 213.0563,690.1289 Q210.5563,690.1289 209.2281,688.4883 Q207.9156,686.832 207.9156,683.707 Q207.9156,680.582 209.2281,678.9258 Q210.5563,677.2695 213.0563,677.2695 Q213.7594,677.2695 214.4,677.4258 Q215.0563,677.582 215.6188,677.8789 L215.6188,680.5977 Q214.9938,680.0195 214.4,679.7539 Q213.8063,679.4727 213.1813,679.4727 Q211.8375,679.4727 211.15,680.5508 Q210.4625,681.6133 210.4625,683.707 Q210.4625,685.8008 211.15,686.8789 Q211.8375,687.9414 213.1813,687.9414 Q213.8063,687.9414 214.4,687.6758 Q214.9938,687.3945 215.6188,686.8164 L215.6188,689.5352 Z"/><text x="235.35" y="689.78" fill="#FFE797" font-family="Helvetica" font-size="17" lengthAdjust="spacing" textLength="107">gcp_instance</text><line style="stroke:#000;stroke-width:1.5" x1="182" x2="366" y1="703.789" y2="703.789"/><text x="192" y="723" fill="#FFE797" font-family="sans-serif" font-size="11" font-weight="bold" lengthAdjust="spacing" textLength="123">network_interfaces</text><text x="315" y="723" fill="#FFE797" font-family="sans-serif" font-size="11" lengthAdjust="spacing" textLength="41">: string</text><path id="resource-backto-instance" fill="none" d="M135,303.22 C135,338.64 135,374.43 135,403.93" codeLine="42" style="stroke:#ffaf37;stroke-width:2"/><polygon fill="none" points="128 303.05 135 283.05 142 303.05 128 303.05" style="stroke:#ffaf37;stroke-width:2"/><path id="gcp_resource-backto-gcp_instance" fill="none" d="M323.71,539.42 C311.01,580.07 295.14,630.85 284.8,663.95" codeLine="43" style="stroke:#ffaf37;stroke-width:2"/><polygon fill="none" points="317.1 537.1 329.75 520.1 330.47 541.28 317.1 537.1" style="stroke:#ffaf37;stroke-width:2"/><path id="instance-backto-gcp_instance" fill="none" d="M188.4,560.55 C210.76,596.59 235.48,636.43 252.59,663.99" codeLine="44" style="stroke:#ffaf37;stroke-width:2"/><polygon fill="none" points="182.25 563.91 177.65 543.23 194.14 556.53 182.25 563.91" style="stroke:#ffaf37;stroke-width:2"/></g></svg>