<svg xmlns="http://www.w3.org/2000/svg" xmlns:xlink="http://www.w3.org/1999/xlink" width="379" height="561" contentScriptType="application/ecmascript" contentStyleType="text/css" style="width:379px;height:561px;background:#00000000" preserveAspectRatio="none" version="1.1" viewBox="0 0 379 561" zoomAndPan="magnify"><defs><filter id="f128saxrz6yk40" width="300%" height="300%" x="-1" y="-1"><feGaussianBlur result="blurOut" stdDeviation="2"/><feColorMatrix in="blurOut" result="blurOut2" type="matrix" values="0 0 0 0 0 0 0 0 0 0 0 0 0 0 0 0 0 0 .4 0"/><feOffset dx="4" dy="4" in="blurOut2" result="blurOut3"/><feBlend in="SourceGraphic" in2="blurOut3" mode="normal"/></filter></defs><g><rect id="resource" width="252" height="176.047" x="7" y="7" fill="#FEFECE" codeLine="2" filter="url(#f128saxrz6yk40)" style="stroke:#a80036;stroke-width:1.5"/><ellipse cx="100.75" cy="23" fill="#ADD1B2" rx="11" ry="11" style="stroke:#a80036;stroke-width:1"/><path fill="#000" d="M103.7188,28.6406 Q103.1406,28.9375 102.5,29.0781 Q101.8594,29.2344 101.1563,29.2344 Q98.6563,29.2344 97.3281,27.5938 Q96.0156,25.9375 96.0156,22.8125 Q96.0156,19.6875 97.3281,18.0313 Q98.6563,16.375 101.1563,16.375 Q101.8594,16.375 102.5,16.5313 Q103.1563,16.6875 103.7188,16.9844 L103.7188,19.7031 Q103.0938,19.125 102.5,18.8594 Q101.9063,18.5781 101.2813,18.5781 Q99.9375,18.5781 99.25,19.6563 Q98.5625,20.7188 98.5625,22.8125 Q98.5625,24.9063 99.25,25.9844 Q99.9375,27.0469 101.2813,27.0469 Q101.9063,27.0469 102.5,26.7813 Q103.0938,26.5 103.7188,25.9219 L103.7188,28.6406 Z"/><text x="121.25" y="27.154" fill="#000" font-family="sans-serif" font-size="12" lengthAdjust="spacing" textLength="56">resource</text><line style="stroke:#a80036;stroke-width:1.5" x1="8" x2="258" y1="39" y2="39"/><ellipse cx="18" cy="50" rx="3" ry="3" style="stroke:#038048;stroke-width:1;fill:none"/><text x="27" y="53.21" fill="#000" font-family="sans-serif" font-size="11" lengthAdjust="spacing" textLength="51">id: string</text><ellipse cx="18" cy="62.805" rx="3" ry="3" style="stroke:#038048;stroke-width:1;fill:none"/><text x="27" y="66.015" fill="#000" font-family="sans-serif" font-size="11" lengthAdjust="spacing" textLength="170">tags: dictionary[string, string]</text><ellipse cx="18" cy="75.609" rx="3" ry="3" style="stroke:#038048;stroke-width:1;fill:none"/><text x="27" y="78.82" fill="#000" font-family="sans-serif" font-size="11" lengthAdjust="spacing" textLength="73">name: string</text><ellipse cx="18" cy="88.414" rx="3" ry="3" style="stroke:#038048;stroke-width:1;fill:none"/><text x="27" y="91.624" fill="#000" font-family="sans-serif" font-size="11" lengthAdjust="spacing" textLength="89">ctime: datetime</text><ellipse cx="18" cy="101.219" rx="3" ry="3" style="stroke:#038048;stroke-width:1;fill:none"/><text x="27" y="104.429" fill="#000" font-family="sans-serif" font-size="11" lengthAdjust="spacing" textLength="180">age: trafo.duration_to_datetime</text><ellipse cx="18" cy="114.023" rx="3" ry="3" style="stroke:#038048;stroke-width:1;fill:none"/><text x="27" y="117.234" fill="#000" font-family="sans-serif" font-size="11" lengthAdjust="spacing" textLength="94">mtime: datetime</text><ellipse cx="18" cy="126.828" rx="3" ry="3" style="stroke:#038048;stroke-width:1;fill:none"/><text x="27" y="130.039" fill="#000" font-family="sans-serif" font-size="11" lengthAdjust="spacing" textLength="225">last_update: trafo.duration_to_datetime</text><ellipse cx="18" cy="139.633" rx="3" ry="3" style="stroke:#038048;stroke-width:1;fill:none"/><text x="27" y="142.843" fill="#000" font-family="sans-serif" font-size="11" lengthAdjust="spacing" textLength="90">atime: datetime</text><ellipse cx="18" cy="152.438" rx="3" ry="3" style="stroke:#038048;stroke-width:1;fill:none"/><text x="27" y="155.648" fill="#000" font-family="sans-serif" font-size="11" lengthAdjust="spacing" textLength="226">last_access: trafo.duration_to_datetime</text><ellipse cx="18" cy="165.242" rx="3" ry="3" style="stroke:#038048;stroke-width:1;fill:none"/><text x="27" y="168.453" fill="#000" font-family="sans-serif" font-size="11" lengthAdjust="spacing" textLength="64">kind: string</text><line style="stroke:#a80036;stroke-width:1.5" x1="8" x2="258" y1="175.047" y2="175.047"/><rect id="gcp_resource" width="159" height="73.609" x="206.5" y="304" fill="#FEFECE" codeLine="14" filter="url(#f128saxrz6yk40)" style="stroke:#a80036;stroke-width:1.5"/><ellipse cx="240.4" cy="320" fill="#ADD1B2" rx="11" ry="11" style="stroke:#a80036;stroke-width:1"/><path fill="#000" d="M243.3688,325.6406 Q242.7906,325.9375 242.15,326.0781 Q241.5094,326.2344 240.8063,326.2344 Q238.3063,326.2344 236.9781,324.5938 Q235.6656,322.9375 235.6656,319.8125 Q235.6656,316.6875 236.9781,315.0313 Q238.3063,313.375 240.8063,313.375 Q241.5094,313.375 242.15,313.5313 Q242.8063,313.6875 243.3688,313.9844 L243.3688,316.7031 Q242.7438,316.125 242.15,315.8594 Q241.5563,315.5781 240.9313,315.5781 Q239.5875,315.5781 238.9,316.6563 Q238.2125,317.7188 238.2125,319.8125 Q238.2125,321.9063 238.9,322.9844 Q239.5875,324.0469 240.9313,324.0469 Q241.5563,324.0469 242.15,323.7813 Q242.7438,323.5 243.3688,322.9219 L243.3688,325.6406 Z"/><text x="258.6" y="324.154" fill="#000" font-family="sans-serif" font-size="12" lengthAdjust="spacing" textLength="85">gcp_resource</text><line style="stroke:#a80036;stroke-width:1.5" x1="207.5" x2="364.5" y1="336" y2="336"/><ellipse cx="217.5" cy="347" rx="3" ry="3" style="stroke:#038048;stroke-width:1;fill:none"/><text x="226.5" y="350.21" fill="#000" font-family="sans-serif" font-size="11" lengthAdjust="spacing" textLength="60">link: string</text><ellipse cx="217.5" cy="359.805" rx="3" ry="3" style="stroke:#038048;stroke-width:1;fill:none"/><text x="226.5" y="363.015" fill="#000" font-family="sans-serif" font-size="11" lengthAdjust="spacing" textLength="133">label_fingerprint: string</text><line style="stroke:#a80036;stroke-width:1.5" x1="207.5" x2="364.5" y1="369.609" y2="369.609"/><rect id="gcp_subnetwork" width="134" height="48" x="142" y="499" fill="#FEFECE" codeLine="18" filter="url(#f128saxrz6yk40)" style="stroke:#a80036;stroke-width:1.5"/><ellipse cx="157" cy="515" fill="#ADD1B2" rx="11" ry="11" style="stroke:#a80036;stroke-width:1"/><path fill="#000" d="M159.9688,520.6406 Q159.3906,520.9375 158.75,521.0781 Q158.1094,521.2344 157.4063,521.2344 Q154.9063,521.2344 153.5781,519.5938 Q152.2656,517.9375 152.2656,514.8125 Q152.2656,511.6875 153.5781,510.0313 Q154.9063,508.375 157.4063,508.375 Q158.1094,508.375 158.75,508.5313 Q159.4063,508.6875 159.9688,508.9844 L159.9688,511.7031 Q159.3438,511.125 158.75,510.8594 Q158.1563,510.5781 157.5313,510.5781 Q156.1875,510.5781 155.5,511.6563 Q154.8125,512.7188 154.8125,514.8125 Q154.8125,516.9063 155.5,517.9844 Q156.1875,519.0469 157.5313,519.0469 Q158.1563,519.0469 158.75,518.7813 Q159.3438,518.5 159.9688,517.9219 L159.9688,520.6406 Z"/><text x="171" y="519.154" fill="#000" font-family="sans-serif" font-size="12" lengthAdjust="spacing" textLength="102">gcp_subnetwork</text><line style="stroke:#a80036;stroke-width:1.5" x1="143" x2="275" y1="531" y2="531"/><line style="stroke:#a80036;stroke-width:1.5" x1="143" x2="275" y1="539" y2="539"/><rect id="subnet" width="76" height="48" x="95" y="317" fill="#FEFECE" codeLine="21" filter="url(#f128saxrz6yk40)" style="stroke:#a80036;stroke-width:1.5"/><ellipse cx="110" cy="333" fill="#ADD1B2" rx="11" ry="11" style="stroke:#a80036;stroke-width:1"/><path fill="#000" d="M112.9688,338.6406 Q112.3906,338.9375 111.75,339.0781 Q111.1094,339.2344 110.4063,339.2344 Q107.9063,339.2344 106.5781,337.5938 Q105.2656,335.9375 105.2656,332.8125 Q105.2656,329.6875 106.5781,328.0313 Q107.9063,326.375 110.4063,326.375 Q111.1094,326.375 111.75,326.5313 Q112.4063,326.6875 112.9688,326.9844 L112.9688,329.7031 Q112.3438,329.125 111.75,328.8594 Q111.1563,328.5781 110.5313,328.5781 Q109.1875,328.5781 108.5,329.6563 Q107.8125,330.7188 107.8125,332.8125 Q107.8125,334.9063 108.5,335.9844 Q109.1875,337.0469 110.5313,337.0469 Q111.1563,337.0469 111.75,336.7813 Q112.3438,336.5 112.9688,335.9219 L112.9688,338.6406 Z"/><text x="124" y="337.154" fill="#000" font-family="sans-serif" font-size="12" lengthAdjust="spacing" textLength="44">subnet</text><line style="stroke:#a80036;stroke-width:1.5" x1="96" x2="170" y1="349" y2="349"/><line style="stroke:#a80036;stroke-width:1.5" x1="96" x2="170" y1="357" y2="357"/><path id="gcp_resource-backto-gcp_subnetwork" fill="none" d="M262.51,396.91 C247.91,431.04 229.89,473.16 218.94,498.77" codeLine="24" style="stroke:#a80036;stroke-width:1"/><polygon fill="none" points="256.12 394.06 270.42 378.43 268.99 399.57 256.12 394.06" style="stroke:#a80036;stroke-width:1"/><path id="subnet-backto-gcp_subnetwork" fill="none" d="M150.56,383.59 C165.7,419.44 186.99,469.87 199.26,498.93" codeLine="25" style="stroke:#a80036;stroke-width:1"/><polygon fill="none" points="144.11 386.31 142.78 365.16 157.01 380.87 144.11 386.31" style="stroke:#a80036;stroke-width:1"/><path id="resource-backto-subnet" fill="none" d="M133,203.29 C133,245.75 133,290.63 133,316.93" codeLine="26" style="stroke:#a80036;stroke-width:1"/><polygon fill="none" points="126 203.06 133 183.06 140 203.06 126 203.06" style="stroke:#a80036;stroke-width:1"/></g></svg>