<svg xmlns="http://www.w3.org/2000/svg" xmlns:xlink="http://www.w3.org/1999/xlink" width="405" height="794" contentScriptType="application/ecmascript" contentStyleType="text/css" style="width:405px;height:794px;background:#00000000" preserveAspectRatio="none" version="1.1" viewBox="0 0 405 794" zoomAndPan="magnify"><defs><filter id="f1brjikgfhyel5" width="300%" height="300%" x="-1" y="-1"><feGaussianBlur result="blurOut" stdDeviation="2"/><feColorMatrix in="blurOut" result="blurOut2" type="matrix" values="0 0 0 0 0 0 0 0 0 0 0 0 0 0 0 0 0 0 .4 0"/><feOffset dx="4" dy="4" in="blurOut2" result="blurOut3"/><feBlend in="SourceGraphic" in2="blurOut3" mode="normal"/></filter></defs><g><rect id="resource" width="252" height="176.047" x="7" y="7" fill="#FEFECE" codeLine="2" filter="url(#f1brjikgfhyel5)" style="stroke:#a80036;stroke-width:1.5"/><ellipse cx="100.75" cy="23" fill="#ADD1B2" rx="11" ry="11" style="stroke:#a80036;stroke-width:1"/><path fill="#000" d="M103.7188,28.6406 Q103.1406,28.9375 102.5,29.0781 Q101.8594,29.2344 101.1563,29.2344 Q98.6563,29.2344 97.3281,27.5938 Q96.0156,25.9375 96.0156,22.8125 Q96.0156,19.6875 97.3281,18.0313 Q98.6563,16.375 101.1563,16.375 Q101.8594,16.375 102.5,16.5313 Q103.1563,16.6875 103.7188,16.9844 L103.7188,19.7031 Q103.0938,19.125 102.5,18.8594 Q101.9063,18.5781 101.2813,18.5781 Q99.9375,18.5781 99.25,19.6563 Q98.5625,20.7188 98.5625,22.8125 Q98.5625,24.9063 99.25,25.9844 Q99.9375,27.0469 101.2813,27.0469 Q101.9063,27.0469 102.5,26.7813 Q103.0938,26.5 103.7188,25.9219 L103.7188,28.6406 Z"/><text x="121.25" y="27.154" fill="#000" font-family="sans-serif" font-size="12" lengthAdjust="spacing" textLength="56">resource</text><line style="stroke:#a80036;stroke-width:1.5" x1="8" x2="258" y1="39" y2="39"/><ellipse cx="18" cy="50" rx="3" ry="3" style="stroke:#038048;stroke-width:1;fill:none"/><text x="27" y="53.21" fill="#000" font-family="sans-serif" font-size="11" lengthAdjust="spacing" textLength="51">id: string</text><ellipse cx="18" cy="62.805" rx="3" ry="3" style="stroke:#038048;stroke-width:1;fill:none"/><text x="27" y="66.015" fill="#000" font-family="sans-serif" font-size="11" lengthAdjust="spacing" textLength="170">tags: dictionary[string, string]</text><ellipse cx="18" cy="75.609" rx="3" ry="3" style="stroke:#038048;stroke-width:1;fill:none"/><text x="27" y="78.82" fill="#000" font-family="sans-serif" font-size="11" lengthAdjust="spacing" textLength="73">name: string</text><ellipse cx="18" cy="88.414" rx="3" ry="3" style="stroke:#038048;stroke-width:1;fill:none"/><text x="27" y="91.624" fill="#000" font-family="sans-serif" font-size="11" lengthAdjust="spacing" textLength="89">ctime: datetime</text><ellipse cx="18" cy="101.219" rx="3" ry="3" style="stroke:#038048;stroke-width:1;fill:none"/><text x="27" y="104.429" fill="#000" font-family="sans-serif" font-size="11" lengthAdjust="spacing" textLength="180">age: trafo.duration_to_datetime</text><ellipse cx="18" cy="114.023" rx="3" ry="3" style="stroke:#038048;stroke-width:1;fill:none"/><text x="27" y="117.234" fill="#000" font-family="sans-serif" font-size="11" lengthAdjust="spacing" textLength="94">mtime: datetime</text><ellipse cx="18" cy="126.828" rx="3" ry="3" style="stroke:#038048;stroke-width:1;fill:none"/><text x="27" y="130.039" fill="#000" font-family="sans-serif" font-size="11" lengthAdjust="spacing" textLength="225">last_update: trafo.duration_to_datetime</text><ellipse cx="18" cy="139.633" rx="3" ry="3" style="stroke:#038048;stroke-width:1;fill:none"/><text x="27" y="142.843" fill="#000" font-family="sans-serif" font-size="11" lengthAdjust="spacing" textLength="90">atime: datetime</text><ellipse cx="18" cy="152.438" rx="3" ry="3" style="stroke:#038048;stroke-width:1;fill:none"/><text x="27" y="155.648" fill="#000" font-family="sans-serif" font-size="11" lengthAdjust="spacing" textLength="226">last_access: trafo.duration_to_datetime</text><ellipse cx="18" cy="165.242" rx="3" ry="3" style="stroke:#038048;stroke-width:1;fill:none"/><text x="27" y="168.453" fill="#000" font-family="sans-serif" font-size="11" lengthAdjust="spacing" textLength="64">kind: string</text><line style="stroke:#a80036;stroke-width:1.5" x1="8" x2="258" y1="175.047" y2="175.047"/><rect id="gcp_resource" width="159" height="73.609" x="232.5" y="304" fill="#FEFECE" codeLine="14" filter="url(#f1brjikgfhyel5)" style="stroke:#a80036;stroke-width:1.5"/><ellipse cx="266.4" cy="320" fill="#ADD1B2" rx="11" ry="11" style="stroke:#a80036;stroke-width:1"/><path fill="#000" d="M269.3688,325.6406 Q268.7906,325.9375 268.15,326.0781 Q267.5094,326.2344 266.8063,326.2344 Q264.3063,326.2344 262.9781,324.5938 Q261.6656,322.9375 261.6656,319.8125 Q261.6656,316.6875 262.9781,315.0313 Q264.3063,313.375 266.8063,313.375 Q267.5094,313.375 268.15,313.5313 Q268.8063,313.6875 269.3688,313.9844 L269.3688,316.7031 Q268.7438,316.125 268.15,315.8594 Q267.5563,315.5781 266.9313,315.5781 Q265.5875,315.5781 264.9,316.6563 Q264.2125,317.7188 264.2125,319.8125 Q264.2125,321.9063 264.9,322.9844 Q265.5875,324.0469 266.9313,324.0469 Q267.5563,324.0469 268.15,323.7813 Q268.7438,323.5 269.3688,322.9219 L269.3688,325.6406 Z"/><text x="284.6" y="324.154" fill="#000" font-family="sans-serif" font-size="12" lengthAdjust="spacing" textLength="85">gcp_resource</text><line style="stroke:#a80036;stroke-width:1.5" x1="233.5" x2="390.5" y1="336" y2="336"/><ellipse cx="243.5" cy="347" rx="3" ry="3" style="stroke:#038048;stroke-width:1;fill:none"/><text x="252.5" y="350.21" fill="#000" font-family="sans-serif" font-size="11" lengthAdjust="spacing" textLength="60">link: string</text><ellipse cx="243.5" cy="359.805" rx="3" ry="3" style="stroke:#038048;stroke-width:1;fill:none"/><text x="252.5" y="363.015" fill="#000" font-family="sans-serif" font-size="11" lengthAdjust="spacing" textLength="133">label_fingerprint: string</text><line style="stroke:#a80036;stroke-width:1.5" x1="233.5" x2="390.5" y1="369.609" y2="369.609"/><rect id="load_balancer" width="129" height="73.609" x="68.5" y="304" fill="#FEFECE" codeLine="18" filter="url(#f1brjikgfhyel5)" style="stroke:#a80036;stroke-width:1.5"/><ellipse cx="87.55" cy="320" fill="#ADD1B2" rx="11" ry="11" style="stroke:#a80036;stroke-width:1"/><path fill="#000" d="M90.5188,325.6406 Q89.9406,325.9375 89.3,326.0781 Q88.6594,326.2344 87.9563,326.2344 Q85.4563,326.2344 84.1281,324.5938 Q82.8156,322.9375 82.8156,319.8125 Q82.8156,316.6875 84.1281,315.0313 Q85.4563,313.375 87.9563,313.375 Q88.6594,313.375 89.3,313.5313 Q89.9563,313.6875 90.5188,313.9844 L90.5188,316.7031 Q89.8938,316.125 89.3,315.8594 Q88.7063,315.5781 88.0813,315.5781 Q86.7375,315.5781 86.05,316.6563 Q85.3625,317.7188 85.3625,319.8125 Q85.3625,321.9063 86.05,322.9844 Q86.7375,324.0469 88.0813,324.0469 Q88.7063,324.0469 89.3,323.7813 Q89.8938,323.5 90.5188,322.9219 L90.5188,325.6406 Z"/><text x="102.45" y="324.154" fill="#000" font-family="sans-serif" font-size="12" lengthAdjust="spacing" textLength="88">load_balancer</text><line style="stroke:#a80036;stroke-width:1.5" x1="69.5" x2="196.5" y1="336" y2="336"/><ellipse cx="79.5" cy="347" rx="3" ry="3" style="stroke:#038048;stroke-width:1;fill:none"/><text x="88.5" y="350.21" fill="#000" font-family="sans-serif" font-size="11" lengthAdjust="spacing" textLength="81">lb_type: string</text><ellipse cx="79.5" cy="359.805" rx="3" ry="3" style="stroke:#038048;stroke-width:1;fill:none"/><text x="88.5" y="363.015" fill="#000" font-family="sans-serif" font-size="11" lengthAdjust="spacing" textLength="103">backends: string[]</text><line style="stroke:#a80036;stroke-width:1.5" x1="69.5" x2="196.5" y1="369.609" y2="369.609"/><rect id="gcp_forwarding_rule" width="202" height="112.023" x="148" y="499" fill="#FEFECE" codeLine="22" filter="url(#f1brjikgfhyel5)" style="stroke:#a80036;stroke-width:1.5"/><ellipse cx="183.25" cy="515" fill="#ADD1B2" rx="11" ry="11" style="stroke:#a80036;stroke-width:1"/><path fill="#000" d="M186.2188,520.6406 Q185.6406,520.9375 185,521.0781 Q184.3594,521.2344 183.6563,521.2344 Q181.1563,521.2344 179.8281,519.5938 Q178.5156,517.9375 178.5156,514.8125 Q178.5156,511.6875 179.8281,510.0313 Q181.1563,508.375 183.6563,508.375 Q184.3594,508.375 185,508.5313 Q185.6563,508.6875 186.2188,508.9844 L186.2188,511.7031 Q185.5938,511.125 185,510.8594 Q184.4063,510.5781 183.7813,510.5781 Q182.4375,510.5781 181.75,511.6563 Q181.0625,512.7188 181.0625,514.8125 Q181.0625,516.9063 181.75,517.9844 Q182.4375,519.0469 183.7813,519.0469 Q184.4063,519.0469 185,518.7813 Q185.5938,518.5 186.2188,517.9219 L186.2188,520.6406 Z"/><text x="201.75" y="519.154" fill="#000" font-family="sans-serif" font-size="12" lengthAdjust="spacing" textLength="125">gcp_forwarding_rule</text><line style="stroke:#a80036;stroke-width:1.5" x1="149" x2="349" y1="531" y2="531"/><ellipse cx="159" cy="542" rx="3" ry="3" style="stroke:#038048;stroke-width:1;fill:none"/><text x="168" y="545.21" fill="#000" font-family="sans-serif" font-size="11" lengthAdjust="spacing" textLength="104">ip_address: string</text><ellipse cx="159" cy="554.805" rx="3" ry="3" style="stroke:#038048;stroke-width:1;fill:none"/><text x="168" y="558.015" fill="#000" font-family="sans-serif" font-size="11" lengthAdjust="spacing" textLength="103">ip_protocol: string</text><ellipse cx="159" cy="567.609" rx="3" ry="3" style="stroke:#038048;stroke-width:1;fill:none"/><text x="168" y="570.82" fill="#000" font-family="sans-serif" font-size="11" lengthAdjust="spacing" textLength="176">load_balancing_scheme: string</text><ellipse cx="159" cy="580.414" rx="3" ry="3" style="stroke:#038048;stroke-width:1;fill:none"/><text x="168" y="583.625" fill="#000" font-family="sans-serif" font-size="11" lengthAdjust="spacing" textLength="111">network_tier: string</text><ellipse cx="159" cy="593.219" rx="3" ry="3" style="stroke:#038048;stroke-width:1;fill:none"/><text x="168" y="596.429" fill="#000" font-family="sans-serif" font-size="11" lengthAdjust="spacing" textLength="103">port_range: string</text><line style="stroke:#a80036;stroke-width:1.5" x1="149" x2="349" y1="603.023" y2="603.023"/><rect id="gcp_global_forwarding_rule" width="201" height="48" x="148.5" y="732" fill="#FEFECE" codeLine="29" filter="url(#f1brjikgfhyel5)" style="stroke:#a80036;stroke-width:1.5"/><ellipse cx="163.5" cy="748" fill="#ADD1B2" rx="11" ry="11" style="stroke:#a80036;stroke-width:1"/><path fill="#000" d="M166.4688,753.6406 Q165.8906,753.9375 165.25,754.0781 Q164.6094,754.2344 163.9063,754.2344 Q161.4063,754.2344 160.0781,752.5938 Q158.7656,750.9375 158.7656,747.8125 Q158.7656,744.6875 160.0781,743.0313 Q161.4063,741.375 163.9063,741.375 Q164.6094,741.375 165.25,741.5313 Q165.9063,741.6875 166.4688,741.9844 L166.4688,744.7031 Q165.8438,744.125 165.25,743.8594 Q164.6563,743.5781 164.0313,743.5781 Q162.6875,743.5781 162,744.6563 Q161.3125,745.7188 161.3125,747.8125 Q161.3125,749.9063 162,750.9844 Q162.6875,752.0469 164.0313,752.0469 Q164.6563,752.0469 165.25,751.7813 Q165.8438,751.5 166.4688,750.9219 L166.4688,753.6406 Z"/><text x="177.5" y="752.154" fill="#000" font-family="sans-serif" font-size="12" lengthAdjust="spacing" textLength="169">gcp_global_forwarding_rule</text><line style="stroke:#a80036;stroke-width:1.5" x1="149.5" x2="348.5" y1="764" y2="764"/><line style="stroke:#a80036;stroke-width:1.5" x1="149.5" x2="348.5" y1="772" y2="772"/><path id="resource-backto-load_balancer" fill="none" d="M133,203.16 C133,239.31 133,277.21 133,303.94" codeLine="32" style="stroke:#a80036;stroke-width:1"/><polygon fill="none" points="126 203.06 133 183.06 140 203.06 126 203.06" style="stroke:#a80036;stroke-width:1"/><path id="gcp_resource-backto-gcp_forwarding_rule" fill="none" d="M295.44,397.73 C286.15,428.97 274.61,467.81 265.36,498.95" codeLine="33" style="stroke:#a80036;stroke-width:1"/><polygon fill="none" points="288.76 395.62 301.17 378.44 302.18 399.61 288.76 395.62" style="stroke:#a80036;stroke-width:1"/><path id="load_balancer-backto-gcp_forwarding_rule" fill="none" d="M162.76,396.39 C179.98,427.86 201.6,467.36 218.88,498.95" codeLine="34" style="stroke:#a80036;stroke-width:1"/><polygon fill="none" points="156.4 399.35 152.94 378.44 168.68 392.63 156.4 399.35" style="stroke:#a80036;stroke-width:1"/><path id="gcp_forwarding_rule-backto-gcp_global_forwarding_rule" fill="none" d="M249,631.32 C249,667.14 249,707.42 249,732" codeLine="35" style="stroke:#a80036;stroke-width:1"/><polygon fill="none" points="242 631.17 249 611.17 256 631.17 242 631.17" style="stroke:#a80036;stroke-width:1"/></g></svg>