<?xml version="1.0" encoding="UTF-8" standalone="no"?><svg xmlns="http://www.w3.org/2000/svg" xmlns:xlink="http://www.w3.org/1999/xlink" contentScriptType="application/ecmascript" contentStyleType="text/css" height="1106px" preserveAspectRatio="none" style="width:422px;height:1106px;background:#00000000;" version="1.1" viewBox="0 0 422 1106" width="422px" zoomAndPan="magnify"><defs><filter height="300%" id="f1hddkfxqccss5" width="300%" x="-1" y="-1"><feGaussianBlur result="blurOut" stdDeviation="2.0"/><feColorMatrix in="blurOut" result="blurOut2" type="matrix" values="0 0 0 0 0 0 0 0 0 0 0 0 0 0 0 0 0 0 .4 0"/><feOffset dx="4.0" dy="4.0" in="blurOut2" result="blurOut3"/><feBlend in="SourceGraphic" in2="blurOut3" mode="normal"/></filter></defs><g><!--MD5=[156df1ec125634b672185ad659f2920c]
class phantom_resource--><rect codeLine="2" fill="#FEFECE" filter="url(#f1hddkfxqccss5)" height="48" id="phantom_resource" style="stroke:#A80036;stroke-width:1.5;" width="150" x="207.5" y="304"/><ellipse cx="222.5" cy="320" fill="#ADD1B2" rx="11" ry="11" style="stroke:#A80036;stroke-width:1.0;"/><path d="M225.4688,325.6406 Q224.8906,325.9375 224.25,326.0781 Q223.6094,326.2344 222.9063,326.2344 Q220.4063,326.2344 219.0781,324.5938 Q217.7656,322.9375 217.7656,319.8125 Q217.7656,316.6875 219.0781,315.0313 Q220.4063,313.375 222.9063,313.375 Q223.6094,313.375 224.25,313.5313 Q224.9063,313.6875 225.4688,313.9844 L225.4688,316.7031 Q224.8438,316.125 224.25,315.8594 Q223.6563,315.5781 223.0313,315.5781 Q221.6875,315.5781 221,316.6563 Q220.3125,317.7188 220.3125,319.8125 Q220.3125,321.9063 221,322.9844 Q221.6875,324.0469 223.0313,324.0469 Q223.6563,324.0469 224.25,323.7813 Q224.8438,323.5 225.4688,322.9219 L225.4688,325.6406 Z " fill="#000000"/><text fill="#000000" font-family="sans-serif" font-size="12" lengthAdjust="spacing" textLength="118" x="236.5" y="324.1543">phantom_resource</text><line style="stroke:#A80036;stroke-width:1.5;" x1="208.5" x2="356.5" y1="336" y2="336"/><line style="stroke:#A80036;stroke-width:1.5;" x1="208.5" x2="356.5" y1="344" y2="344"/><!--MD5=[7f0ecf5f554433d3f2e1213379ac821c]
class resource--><rect codeLine="5" fill="#FEFECE" filter="url(#f1hddkfxqccss5)" height="176.0469" id="resource" style="stroke:#A80036;stroke-width:1.5;" width="252" x="156.5" y="7"/><ellipse cx="250.25" cy="23" fill="#ADD1B2" rx="11" ry="11" style="stroke:#A80036;stroke-width:1.0;"/><path d="M253.2188,28.6406 Q252.6406,28.9375 252,29.0781 Q251.3594,29.2344 250.6563,29.2344 Q248.1563,29.2344 246.8281,27.5938 Q245.5156,25.9375 245.5156,22.8125 Q245.5156,19.6875 246.8281,18.0313 Q248.1563,16.375 250.6563,16.375 Q251.3594,16.375 252,16.5313 Q252.6563,16.6875 253.2188,16.9844 L253.2188,19.7031 Q252.5938,19.125 252,18.8594 Q251.4063,18.5781 250.7813,18.5781 Q249.4375,18.5781 248.75,19.6563 Q248.0625,20.7188 248.0625,22.8125 Q248.0625,24.9063 248.75,25.9844 Q249.4375,27.0469 250.7813,27.0469 Q251.4063,27.0469 252,26.7813 Q252.5938,26.5 253.2188,25.9219 L253.2188,28.6406 Z " fill="#000000"/><text fill="#000000" font-family="sans-serif" font-size="12" lengthAdjust="spacing" textLength="56" x="270.75" y="27.1543">resource</text><line style="stroke:#A80036;stroke-width:1.5;" x1="157.5" x2="407.5" y1="39" y2="39"/><ellipse cx="167.5" cy="50" rx="3" ry="3" style="stroke:#038048;stroke-width:1.0;fill:none;"/><text fill="#000000" font-family="sans-serif" font-size="11" lengthAdjust="spacing" textLength="51" x="176.5" y="53.2104">id: string</text><ellipse cx="167.5" cy="62.8047" rx="3" ry="3" style="stroke:#038048;stroke-width:1.0;fill:none;"/><text fill="#000000" font-family="sans-serif" font-size="11" lengthAdjust="spacing" textLength="170" x="176.5" y="66.0151">tags: dictionary[string, string]</text><ellipse cx="167.5" cy="75.6094" rx="3" ry="3" style="stroke:#038048;stroke-width:1.0;fill:none;"/><text fill="#000000" font-family="sans-serif" font-size="11" lengthAdjust="spacing" textLength="73" x="176.5" y="78.8198">name: string</text><ellipse cx="167.5" cy="88.4141" rx="3" ry="3" style="stroke:#038048;stroke-width:1.0;fill:none;"/><text fill="#000000" font-family="sans-serif" font-size="11" lengthAdjust="spacing" textLength="89" x="176.5" y="91.6245">ctime: datetime</text><ellipse cx="167.5" cy="101.2188" rx="3" ry="3" style="stroke:#038048;stroke-width:1.0;fill:none;"/><text fill="#000000" font-family="sans-serif" font-size="11" lengthAdjust="spacing" textLength="180" x="176.5" y="104.4292">age: trafo.duration_to_datetime</text><ellipse cx="167.5" cy="114.0234" rx="3" ry="3" style="stroke:#038048;stroke-width:1.0;fill:none;"/><text fill="#000000" font-family="sans-serif" font-size="11" lengthAdjust="spacing" textLength="94" x="176.5" y="117.2339">mtime: datetime</text><ellipse cx="167.5" cy="126.8281" rx="3" ry="3" style="stroke:#038048;stroke-width:1.0;fill:none;"/><text fill="#000000" font-family="sans-serif" font-size="11" lengthAdjust="spacing" textLength="225" x="176.5" y="130.0386">last_update: trafo.duration_to_datetime</text><ellipse cx="167.5" cy="139.6328" rx="3" ry="3" style="stroke:#038048;stroke-width:1.0;fill:none;"/><text fill="#000000" font-family="sans-serif" font-size="11" lengthAdjust="spacing" textLength="90" x="176.5" y="142.8433">atime: datetime</text><ellipse cx="167.5" cy="152.4375" rx="3" ry="3" style="stroke:#038048;stroke-width:1.0;fill:none;"/><text fill="#000000" font-family="sans-serif" font-size="11" lengthAdjust="spacing" textLength="226" x="176.5" y="155.6479">last_access: trafo.duration_to_datetime</text><ellipse cx="167.5" cy="165.2422" rx="3" ry="3" style="stroke:#038048;stroke-width:1.0;fill:none;"/><text fill="#000000" font-family="sans-serif" font-size="11" lengthAdjust="spacing" textLength="64" x="176.5" y="168.4526">kind: string</text><line style="stroke:#A80036;stroke-width:1.5;" x1="157.5" x2="407.5" y1="175.0469" y2="175.0469"/><!--MD5=[96a667c91f46910544c8a4dd691a5f67]
class gcp_resource--><rect codeLine="17" fill="#FEFECE" filter="url(#f1hddkfxqccss5)" height="73.6094" id="gcp_resource" style="stroke:#A80036;stroke-width:1.5;" width="159" x="7" y="849"/><ellipse cx="40.9" cy="865" fill="#ADD1B2" rx="11" ry="11" style="stroke:#A80036;stroke-width:1.0;"/><path d="M43.8688,870.6406 Q43.2906,870.9375 42.65,871.0781 Q42.0094,871.2344 41.3063,871.2344 Q38.8063,871.2344 37.4781,869.5938 Q36.1656,867.9375 36.1656,864.8125 Q36.1656,861.6875 37.4781,860.0313 Q38.8063,858.375 41.3063,858.375 Q42.0094,858.375 42.65,858.5313 Q43.3063,858.6875 43.8688,858.9844 L43.8688,861.7031 Q43.2438,861.125 42.65,860.8594 Q42.0563,860.5781 41.4313,860.5781 Q40.0875,860.5781 39.4,861.6563 Q38.7125,862.7188 38.7125,864.8125 Q38.7125,866.9063 39.4,867.9844 Q40.0875,869.0469 41.4313,869.0469 Q42.0563,869.0469 42.65,868.7813 Q43.2438,868.5 43.8688,867.9219 L43.8688,870.6406 Z " fill="#000000"/><text fill="#000000" font-family="sans-serif" font-size="12" lengthAdjust="spacing" textLength="85" x="59.1" y="869.1543">gcp_resource</text><line style="stroke:#A80036;stroke-width:1.5;" x1="8" x2="165" y1="881" y2="881"/><ellipse cx="18" cy="892" rx="3" ry="3" style="stroke:#038048;stroke-width:1.0;fill:none;"/><text fill="#000000" font-family="sans-serif" font-size="11" lengthAdjust="spacing" textLength="60" x="27" y="895.2104">link: string</text><ellipse cx="18" cy="904.8047" rx="3" ry="3" style="stroke:#038048;stroke-width:1.0;fill:none;"/><text fill="#000000" font-family="sans-serif" font-size="11" lengthAdjust="spacing" textLength="133" x="27" y="908.0151">label_fingerprint: string</text><line style="stroke:#A80036;stroke-width:1.5;" x1="8" x2="165" y1="914.6094" y2="914.6094"/><!--MD5=[857a356b9e77f83de603e0318f36b735]
class type--><rect codeLine="21" fill="#FEFECE" filter="url(#f1hddkfxqccss5)" height="48" id="type" style="stroke:#A80036;stroke-width:1.5;" width="59" x="253" y="680"/><ellipse cx="268" cy="696" fill="#ADD1B2" rx="11" ry="11" style="stroke:#A80036;stroke-width:1.0;"/><path d="M270.9688,701.6406 Q270.3906,701.9375 269.75,702.0781 Q269.1094,702.2344 268.4063,702.2344 Q265.9063,702.2344 264.5781,700.5938 Q263.2656,698.9375 263.2656,695.8125 Q263.2656,692.6875 264.5781,691.0313 Q265.9063,689.375 268.4063,689.375 Q269.1094,689.375 269.75,689.5313 Q270.4063,689.6875 270.9688,689.9844 L270.9688,692.7031 Q270.3438,692.125 269.75,691.8594 Q269.1563,691.5781 268.5313,691.5781 Q267.1875,691.5781 266.5,692.6563 Q265.8125,693.7188 265.8125,695.8125 Q265.8125,697.9063 266.5,698.9844 Q267.1875,700.0469 268.5313,700.0469 Q269.1563,700.0469 269.75,699.7813 Q270.3438,699.5 270.9688,698.9219 L270.9688,701.6406 Z " fill="#000000"/><text fill="#000000" font-family="sans-serif" font-size="12" lengthAdjust="spacing" textLength="27" x="282" y="700.1543">type</text><line style="stroke:#A80036;stroke-width:1.5;" x1="254" x2="311" y1="712" y2="712"/><line style="stroke:#A80036;stroke-width:1.5;" x1="254" x2="311" y1="720" y2="720"/><!--MD5=[205bc3e74ea7d385e2b6aa1bb29a5024]
class quota--><rect codeLine="24" fill="#FEFECE" filter="url(#f1hddkfxqccss5)" height="86.4141" id="quota" style="stroke:#A80036;stroke-width:1.5;" width="129" x="218" y="473"/><ellipse cx="260" cy="489" fill="#ADD1B2" rx="11" ry="11" style="stroke:#A80036;stroke-width:1.0;"/><path d="M262.9688,494.6406 Q262.3906,494.9375 261.75,495.0781 Q261.1094,495.2344 260.4063,495.2344 Q257.9063,495.2344 256.5781,493.5938 Q255.2656,491.9375 255.2656,488.8125 Q255.2656,485.6875 256.5781,484.0313 Q257.9063,482.375 260.4063,482.375 Q261.1094,482.375 261.75,482.5313 Q262.4063,482.6875 262.9688,482.9844 L262.9688,485.7031 Q262.3438,485.125 261.75,484.8594 Q261.1563,484.5781 260.5313,484.5781 Q259.1875,484.5781 258.5,485.6563 Q257.8125,486.7188 257.8125,488.8125 Q257.8125,490.9063 258.5,491.9844 Q259.1875,493.0469 260.5313,493.0469 Q261.1563,493.0469 261.75,492.7813 Q262.3438,492.5 262.9688,491.9219 L262.9688,494.6406 Z " fill="#000000"/><text fill="#000000" font-family="sans-serif" font-size="12" lengthAdjust="spacing" textLength="37" x="280" y="493.1543">quota</text><line style="stroke:#A80036;stroke-width:1.5;" x1="219" x2="346" y1="505" y2="505"/><ellipse cx="229" cy="516" rx="3" ry="3" style="stroke:#038048;stroke-width:1.0;fill:none;"/><text fill="#000000" font-family="sans-serif" font-size="11" lengthAdjust="spacing" textLength="78" x="238" y="519.2104">quota: double</text><ellipse cx="229" cy="528.8047" rx="3" ry="3" style="stroke:#038048;stroke-width:1.0;fill:none;"/><text fill="#000000" font-family="sans-serif" font-size="11" lengthAdjust="spacing" textLength="81" x="238" y="532.0151">usage: double</text><ellipse cx="229" cy="541.6094" rx="3" ry="3" style="stroke:#038048;stroke-width:1.0;fill:none;"/><text fill="#000000" font-family="sans-serif" font-size="11" lengthAdjust="spacing" textLength="103" x="238" y="544.8198">quota_type: string</text><line style="stroke:#A80036;stroke-width:1.5;" x1="219" x2="346" y1="551.4141" y2="551.4141"/><!--MD5=[f2a71d650a44bb0ec9bebee690772a11]
class gcp_disk_type--><rect codeLine="29" fill="#FEFECE" filter="url(#f1hddkfxqccss5)" height="48" id="gcp_disk_type" style="stroke:#A80036;stroke-width:1.5;" width="119" x="62" y="1044"/><ellipse cx="77" cy="1060" fill="#ADD1B2" rx="11" ry="11" style="stroke:#A80036;stroke-width:1.0;"/><path d="M79.9688,1065.6406 Q79.3906,1065.9375 78.75,1066.0781 Q78.1094,1066.2344 77.4063,1066.2344 Q74.9063,1066.2344 73.5781,1064.5938 Q72.2656,1062.9375 72.2656,1059.8125 Q72.2656,1056.6875 73.5781,1055.0313 Q74.9063,1053.375 77.4063,1053.375 Q78.1094,1053.375 78.75,1053.5313 Q79.4063,1053.6875 79.9688,1053.9844 L79.9688,1056.7031 Q79.3438,1056.125 78.75,1055.8594 Q78.1563,1055.5781 77.5313,1055.5781 Q76.1875,1055.5781 75.5,1056.6563 Q74.8125,1057.7188 74.8125,1059.8125 Q74.8125,1061.9063 75.5,1062.9844 Q76.1875,1064.0469 77.5313,1064.0469 Q78.1563,1064.0469 78.75,1063.7813 Q79.3438,1063.5 79.9688,1062.9219 L79.9688,1065.6406 Z " fill="#000000"/><text fill="#000000" font-family="sans-serif" font-size="12" lengthAdjust="spacing" textLength="87" x="91" y="1064.1543">gcp_disk_type</text><line style="stroke:#A80036;stroke-width:1.5;" x1="63" x2="180" y1="1076" y2="1076"/><line style="stroke:#A80036;stroke-width:1.5;" x1="63" x2="180" y1="1084" y2="1084"/><!--MD5=[664939c0fb98180378d6d3f2b00b1a66]
class volume_type--><rect codeLine="32" fill="#FEFECE" filter="url(#f1hddkfxqccss5)" height="73.6094" id="volume_type" style="stroke:#A80036;stroke-width:1.5;" width="162" x="201.5" y="849"/><ellipse cx="240.35" cy="865" fill="#ADD1B2" rx="11" ry="11" style="stroke:#A80036;stroke-width:1.0;"/><path d="M243.3188,870.6406 Q242.7406,870.9375 242.1,871.0781 Q241.4594,871.2344 240.7563,871.2344 Q238.2563,871.2344 236.9281,869.5938 Q235.6156,867.9375 235.6156,864.8125 Q235.6156,861.6875 236.9281,860.0313 Q238.2563,858.375 240.7563,858.375 Q241.4594,858.375 242.1,858.5313 Q242.7563,858.6875 243.3188,858.9844 L243.3188,861.7031 Q242.6938,861.125 242.1,860.8594 Q241.5063,860.5781 240.8813,860.5781 Q239.5375,860.5781 238.85,861.6563 Q238.1625,862.7188 238.1625,864.8125 Q238.1625,866.9063 238.85,867.9844 Q239.5375,869.0469 240.8813,869.0469 Q241.5063,869.0469 242.1,868.7813 Q242.6938,868.5 243.3188,867.9219 L243.3188,870.6406 Z " fill="#000000"/><text fill="#000000" font-family="sans-serif" font-size="12" lengthAdjust="spacing" textLength="77" x="259.65" y="869.1543">volume_type</text><line style="stroke:#A80036;stroke-width:1.5;" x1="202.5" x2="362.5" y1="881" y2="881"/><ellipse cx="212.5" cy="892" rx="3" ry="3" style="stroke:#038048;stroke-width:1.0;fill:none;"/><text fill="#000000" font-family="sans-serif" font-size="11" lengthAdjust="spacing" textLength="112" x="221.5" y="895.2104">volume_type: string</text><ellipse cx="212.5" cy="904.8047" rx="3" ry="3" style="stroke:#038048;stroke-width:1.0;fill:none;"/><text fill="#000000" font-family="sans-serif" font-size="11" lengthAdjust="spacing" textLength="136" x="221.5" y="908.0151">ondemand_cost: double</text><line style="stroke:#A80036;stroke-width:1.5;" x1="202.5" x2="362.5" y1="914.6094" y2="914.6094"/><!--MD5=[e134558fd6f7e839ecb28ecbda576c0a]
reverse link resource to phantom_resource--><path codeLine="36" d="M282.5,203.18 C282.5,241 282.5,280.01 282.5,303.89 " fill="none" id="resource-backto-phantom_resource" style="stroke:#A80036;stroke-width:1.0;"/><polygon fill="none" points="275.5,203,282.5,183,289.5,203,275.5,203" style="stroke:#A80036;stroke-width:1.0;"/><!--MD5=[63e5c77e033f786e30b084e57dcd0955]
reverse link quota to type--><path codeLine="37" d="M282.5,579.21 C282.5,613.84 282.5,654.89 282.5,679.93 " fill="none" id="quota-backto-type" style="stroke:#A80036;stroke-width:1.0;"/><polygon fill="none" points="275.5,579.21,282.5,559.21,289.5,579.21,275.5,579.21" style="stroke:#A80036;stroke-width:1.0;"/><!--MD5=[8c556d10106c40540c768b31155cb09d]
reverse link phantom_resource to quota--><path codeLine="38" d="M282.5,372.6 C282.5,402.8 282.5,442.79 282.5,472.7 " fill="none" id="phantom_resource-backto-quota" style="stroke:#A80036;stroke-width:1.0;"/><polygon fill="none" points="275.5,372.18,282.5,352.18,289.5,372.18,275.5,372.18" style="stroke:#A80036;stroke-width:1.0;"/><!--MD5=[d29954c7c46c00717dff9dee4e719426]
reverse link gcp_resource to gcp_disk_type--><path codeLine="39" d="M97.46,943.34 C104.04,977.21 112.07,1018.51 116.98,1043.77 " fill="none" id="gcp_resource-backto-gcp_disk_type" style="stroke:#A80036;stroke-width:1.0;"/><polygon fill="none" points="90.53,944.39,93.58,923.43,104.27,941.72,90.53,944.39" style="stroke:#A80036;stroke-width:1.0;"/><!--MD5=[11bcd39f0b3bc981abd7800523d9f931]
reverse link volume_type to gcp_disk_type--><path codeLine="40" d="M236.34,938.6 C205.33,973.28 165.93,1017.32 142.27,1043.77 " fill="none" id="volume_type-backto-gcp_disk_type" style="stroke:#A80036;stroke-width:1.0;"/><polygon fill="none" points="231.37,933.67,249.92,923.43,241.8,943,231.37,933.67" style="stroke:#A80036;stroke-width:1.0;"/><!--MD5=[fef1d57d88716120bb8ab8d4a324733b]
reverse link type to volume_type--><path codeLine="41" d="M282.5,748.47 C282.5,779.2 282.5,819.91 282.5,848.87 " fill="none" id="type-backto-volume_type" style="stroke:#A80036;stroke-width:1.0;"/><polygon fill="none" points="275.5,748.16,282.5,728.16,289.5,748.16,275.5,748.16" style="stroke:#A80036;stroke-width:1.0;"/><!--MD5=[6cc1559f765e75aaa5bdd5e896a1ac4e]
@startuml
skinparam backgroundcolor transparent
class phantom_resource {

}
class resource {
+ id: string
+ tags: dictionary[string, string]
+ name: string
+ ctime: datetime
+ age: trafo.duration_to_datetime
+ mtime: datetime
+ last_update: trafo.duration_to_datetime
+ atime: datetime
+ last_access: trafo.duration_to_datetime
+ kind: string
}
class gcp_resource {
+ link: string
+ label_fingerprint: string
}
class type {

}
class quota {
+ quota: double
+ usage: double
+ quota_type: string
}
class gcp_disk_type {

}
class volume_type {
+ volume_type: string
+ ondemand_cost: double
}
resource <|- - - phantom_resource
quota <|- - - type
phantom_resource <|- - - quota
gcp_resource <|- - - gcp_disk_type
volume_type <|- - - gcp_disk_type
type <|- - - volume_type
@enduml

PlantUML version 1.2021.16(Wed Dec 08 17:25:22 UTC 2021)
(GPL source distribution)
Java Runtime: OpenJDK Runtime Environment
JVM: OpenJDK 64-Bit Server VM
Default Encoding: UTF-8
Language: en
Country: null
--></g></svg>