<?xml version="1.0" encoding="UTF-8" standalone="no"?><svg xmlns="http://www.w3.org/2000/svg" xmlns:xlink="http://www.w3.org/1999/xlink" contentScriptType="application/ecmascript" contentStyleType="text/css" height="561px" preserveAspectRatio="none" style="width:374px;height:561px;background:#00000000;" version="1.1" viewBox="0 0 374 561" width="374px" zoomAndPan="magnify"><defs><filter height="300%" id="fgvy0utrgra2g" width="300%" x="-1" y="-1"><feGaussianBlur result="blurOut" stdDeviation="2.0"/><feColorMatrix in="blurOut" result="blurOut2" type="matrix" values="0 0 0 0 0 0 0 0 0 0 0 0 0 0 0 0 0 0 .4 0"/><feOffset dx="4.0" dy="4.0" in="blurOut2" result="blurOut3"/><feBlend in="SourceGraphic" in2="blurOut3" mode="normal"/></filter></defs><g><!--MD5=[7f0ecf5f554433d3f2e1213379ac821c]
class resource--><rect codeLine="2" fill="#FEFECE" filter="url(#fgvy0utrgra2g)" height="176.0469" id="resource" style="stroke:#A80036;stroke-width:1.5;" width="252" x="7" y="7"/><ellipse cx="100.75" cy="23" fill="#ADD1B2" rx="11" ry="11" style="stroke:#A80036;stroke-width:1.0;"/><path d="M103.7188,28.6406 Q103.1406,28.9375 102.5,29.0781 Q101.8594,29.2344 101.1563,29.2344 Q98.6563,29.2344 97.3281,27.5938 Q96.0156,25.9375 96.0156,22.8125 Q96.0156,19.6875 97.3281,18.0313 Q98.6563,16.375 101.1563,16.375 Q101.8594,16.375 102.5,16.5313 Q103.1563,16.6875 103.7188,16.9844 L103.7188,19.7031 Q103.0938,19.125 102.5,18.8594 Q101.9063,18.5781 101.2813,18.5781 Q99.9375,18.5781 99.25,19.6563 Q98.5625,20.7188 98.5625,22.8125 Q98.5625,24.9063 99.25,25.9844 Q99.9375,27.0469 101.2813,27.0469 Q101.9063,27.0469 102.5,26.7813 Q103.0938,26.5 103.7188,25.9219 L103.7188,28.6406 Z " fill="#000000"/><text fill="#000000" font-family="sans-serif" font-size="12" lengthAdjust="spacing" textLength="56" x="121.25" y="27.1543">resource</text><line style="stroke:#A80036;stroke-width:1.5;" x1="8" x2="258" y1="39" y2="39"/><ellipse cx="18" cy="50" rx="3" ry="3" style="stroke:#038048;stroke-width:1.0;fill:none;"/><text fill="#000000" font-family="sans-serif" font-size="11" lengthAdjust="spacing" textLength="51" x="27" y="53.2104">id: string</text><ellipse cx="18" cy="62.8047" rx="3" ry="3" style="stroke:#038048;stroke-width:1.0;fill:none;"/><text fill="#000000" font-family="sans-serif" font-size="11" lengthAdjust="spacing" textLength="170" x="27" y="66.0151">tags: dictionary[string, string]</text><ellipse cx="18" cy="75.6094" rx="3" ry="3" style="stroke:#038048;stroke-width:1.0;fill:none;"/><text fill="#000000" font-family="sans-serif" font-size="11" lengthAdjust="spacing" textLength="73" x="27" y="78.8198">name: string</text><ellipse cx="18" cy="88.4141" rx="3" ry="3" style="stroke:#038048;stroke-width:1.0;fill:none;"/><text fill="#000000" font-family="sans-serif" font-size="11" lengthAdjust="spacing" textLength="89" x="27" y="91.6245">ctime: datetime</text><ellipse cx="18" cy="101.2188" rx="3" ry="3" style="stroke:#038048;stroke-width:1.0;fill:none;"/><text fill="#000000" font-family="sans-serif" font-size="11" lengthAdjust="spacing" textLength="180" x="27" y="104.4292">age: trafo.duration_to_datetime</text><ellipse cx="18" cy="114.0234" rx="3" ry="3" style="stroke:#038048;stroke-width:1.0;fill:none;"/><text fill="#000000" font-family="sans-serif" font-size="11" lengthAdjust="spacing" textLength="94" x="27" y="117.2339">mtime: datetime</text><ellipse cx="18" cy="126.8281" rx="3" ry="3" style="stroke:#038048;stroke-width:1.0;fill:none;"/><text fill="#000000" font-family="sans-serif" font-size="11" lengthAdjust="spacing" textLength="225" x="27" y="130.0386">last_update: trafo.duration_to_datetime</text><ellipse cx="18" cy="139.6328" rx="3" ry="3" style="stroke:#038048;stroke-width:1.0;fill:none;"/><text fill="#000000" font-family="sans-serif" font-size="11" lengthAdjust="spacing" textLength="90" x="27" y="142.8433">atime: datetime</text><ellipse cx="18" cy="152.4375" rx="3" ry="3" style="stroke:#038048;stroke-width:1.0;fill:none;"/><text fill="#000000" font-family="sans-serif" font-size="11" lengthAdjust="spacing" textLength="226" x="27" y="155.6479">last_access: trafo.duration_to_datetime</text><ellipse cx="18" cy="165.2422" rx="3" ry="3" style="stroke:#038048;stroke-width:1.0;fill:none;"/><text fill="#000000" font-family="sans-serif" font-size="11" lengthAdjust="spacing" textLength="64" x="27" y="168.4526">kind: string</text><line style="stroke:#A80036;stroke-width:1.5;" x1="8" x2="258" y1="175.0469" y2="175.0469"/><!--MD5=[96a667c91f46910544c8a4dd691a5f67]
class gcp_resource--><rect codeLine="14" fill="#FEFECE" filter="url(#fgvy0utrgra2g)" height="73.6094" id="gcp_resource" style="stroke:#A80036;stroke-width:1.5;" width="159" x="201.5" y="304"/><ellipse cx="235.4" cy="320" fill="#ADD1B2" rx="11" ry="11" style="stroke:#A80036;stroke-width:1.0;"/><path d="M238.3688,325.6406 Q237.7906,325.9375 237.15,326.0781 Q236.5094,326.2344 235.8063,326.2344 Q233.3063,326.2344 231.9781,324.5938 Q230.6656,322.9375 230.6656,319.8125 Q230.6656,316.6875 231.9781,315.0313 Q233.3063,313.375 235.8063,313.375 Q236.5094,313.375 237.15,313.5313 Q237.8063,313.6875 238.3688,313.9844 L238.3688,316.7031 Q237.7438,316.125 237.15,315.8594 Q236.5563,315.5781 235.9313,315.5781 Q234.5875,315.5781 233.9,316.6563 Q233.2125,317.7188 233.2125,319.8125 Q233.2125,321.9063 233.9,322.9844 Q234.5875,324.0469 235.9313,324.0469 Q236.5563,324.0469 237.15,323.7813 Q237.7438,323.5 238.3688,322.9219 L238.3688,325.6406 Z " fill="#000000"/><text fill="#000000" font-family="sans-serif" font-size="12" lengthAdjust="spacing" textLength="85" x="253.6" y="324.1543">gcp_resource</text><line style="stroke:#A80036;stroke-width:1.5;" x1="202.5" x2="359.5" y1="336" y2="336"/><ellipse cx="212.5" cy="347" rx="3" ry="3" style="stroke:#038048;stroke-width:1.0;fill:none;"/><text fill="#000000" font-family="sans-serif" font-size="11" lengthAdjust="spacing" textLength="60" x="221.5" y="350.2104">link: string</text><ellipse cx="212.5" cy="359.8047" rx="3" ry="3" style="stroke:#038048;stroke-width:1.0;fill:none;"/><text fill="#000000" font-family="sans-serif" font-size="11" lengthAdjust="spacing" textLength="133" x="221.5" y="363.0151">label_fingerprint: string</text><line style="stroke:#A80036;stroke-width:1.5;" x1="202.5" x2="359.5" y1="369.6094" y2="369.6094"/><!--MD5=[3105e977017215c62956ee5c147722ae]
class policy--><rect codeLine="18" fill="#FEFECE" filter="url(#fgvy0utrgra2g)" height="48" id="policy" style="stroke:#A80036;stroke-width:1.5;" width="67" x="99.5" y="317"/><ellipse cx="114.5" cy="333" fill="#ADD1B2" rx="11" ry="11" style="stroke:#A80036;stroke-width:1.0;"/><path d="M117.4688,338.6406 Q116.8906,338.9375 116.25,339.0781 Q115.6094,339.2344 114.9063,339.2344 Q112.4063,339.2344 111.0781,337.5938 Q109.7656,335.9375 109.7656,332.8125 Q109.7656,329.6875 111.0781,328.0313 Q112.4063,326.375 114.9063,326.375 Q115.6094,326.375 116.25,326.5313 Q116.9063,326.6875 117.4688,326.9844 L117.4688,329.7031 Q116.8438,329.125 116.25,328.8594 Q115.6563,328.5781 115.0313,328.5781 Q113.6875,328.5781 113,329.6563 Q112.3125,330.7188 112.3125,332.8125 Q112.3125,334.9063 113,335.9844 Q113.6875,337.0469 115.0313,337.0469 Q115.6563,337.0469 116.25,336.7813 Q116.8438,336.5 117.4688,335.9219 L117.4688,338.6406 Z " fill="#000000"/><text fill="#000000" font-family="sans-serif" font-size="12" lengthAdjust="spacing" textLength="35" x="128.5" y="337.1543">policy</text><line style="stroke:#A80036;stroke-width:1.5;" x1="100.5" x2="165.5" y1="349" y2="349"/><line style="stroke:#A80036;stroke-width:1.5;" x1="100.5" x2="165.5" y1="357" y2="357"/><!--MD5=[0b6f70b1e38f46f7ac72c1f206f7793c]
class gcp_security_policy--><rect codeLine="21" fill="#FEFECE" filter="url(#fgvy0utrgra2g)" height="48" id="gcp_security_policy" style="stroke:#A80036;stroke-width:1.5;" width="151" x="150.5" y="499"/><ellipse cx="165.5" cy="515" fill="#ADD1B2" rx="11" ry="11" style="stroke:#A80036;stroke-width:1.0;"/><path d="M168.4688,520.6406 Q167.8906,520.9375 167.25,521.0781 Q166.6094,521.2344 165.9063,521.2344 Q163.4063,521.2344 162.0781,519.5938 Q160.7656,517.9375 160.7656,514.8125 Q160.7656,511.6875 162.0781,510.0313 Q163.4063,508.375 165.9063,508.375 Q166.6094,508.375 167.25,508.5313 Q167.9063,508.6875 168.4688,508.9844 L168.4688,511.7031 Q167.8438,511.125 167.25,510.8594 Q166.6563,510.5781 166.0313,510.5781 Q164.6875,510.5781 164,511.6563 Q163.3125,512.7188 163.3125,514.8125 Q163.3125,516.9063 164,517.9844 Q164.6875,519.0469 166.0313,519.0469 Q166.6563,519.0469 167.25,518.7813 Q167.8438,518.5 168.4688,517.9219 L168.4688,520.6406 Z " fill="#000000"/><text fill="#000000" font-family="sans-serif" font-size="12" lengthAdjust="spacing" textLength="119" x="179.5" y="519.1543">gcp_security_policy</text><line style="stroke:#A80036;stroke-width:1.5;" x1="151.5" x2="300.5" y1="531" y2="531"/><line style="stroke:#A80036;stroke-width:1.5;" x1="151.5" x2="300.5" y1="539" y2="539"/><!--MD5=[d1b768fa0f5e561a77e04c19a766a91c]
reverse link resource to policy--><path codeLine="24" d="M133,203.29 C133,245.75 133,290.63 133,316.93 " fill="none" id="resource-backto-policy" style="stroke:#A80036;stroke-width:1.0;"/><polygon fill="none" points="126,203.06,133,183.06,140,203.06,126,203.06" style="stroke:#A80036;stroke-width:1.0;"/><!--MD5=[7a9f3aa23361335f5d56873b3a8026f6]
reverse link gcp_resource to gcp_security_policy--><path codeLine="25" d="M263.93,397.87 C253.55,431.82 240.85,473.39 233.1,498.77 " fill="none" id="gcp_resource-backto-gcp_security_policy" style="stroke:#A80036;stroke-width:1.0;"/><polygon fill="none" points="257.33,395.51,269.87,378.43,270.72,399.6,257.33,395.51" style="stroke:#A80036;stroke-width:1.0;"/><!--MD5=[1fc455058613cd8c6a3a691dc0bd8b25]
reverse link policy to gcp_security_policy--><path codeLine="26" d="M154.36,383.34 C172.89,419.2 199.03,469.81 214.08,498.93 " fill="none" id="policy-backto-gcp_security_policy" style="stroke:#A80036;stroke-width:1.0;"/><polygon fill="none" points="147.93,386.15,144.97,365.16,160.37,379.72,147.93,386.15" style="stroke:#A80036;stroke-width:1.0;"/><!--MD5=[23d91a28978e3a8fe4893cc8ff048ccc]
@startuml
skinparam backgroundcolor transparent
class resource {
+ id: string
+ tags: dictionary[string, string]
+ name: string
+ ctime: datetime
+ age: trafo.duration_to_datetime
+ mtime: datetime
+ last_update: trafo.duration_to_datetime
+ atime: datetime
+ last_access: trafo.duration_to_datetime
+ kind: string
}
class gcp_resource {
+ link: string
+ label_fingerprint: string
}
class policy {

}
class gcp_security_policy {

}
resource <|- - - policy
gcp_resource <|- - - gcp_security_policy
policy <|- - - gcp_security_policy
@enduml

PlantUML version 1.2021.16(Wed Dec 08 17:25:22 UTC 2021)
(GPL source distribution)
Java Runtime: OpenJDK Runtime Environment
JVM: OpenJDK 64-Bit Server VM
Default Encoding: UTF-8
Language: en
Country: null
--></g></svg>