<?xml version="1.0" encoding="UTF-8" standalone="no"?><svg xmlns="http://www.w3.org/2000/svg" xmlns:xlink="http://www.w3.org/1999/xlink" contentScriptType="application/ecmascript" contentStyleType="text/css" height="561px" preserveAspectRatio="none" style="width:382px;height:561px;background:#00000000;" version="1.1" viewBox="0 0 382 561" width="382px" zoomAndPan="magnify"><defs><filter height="300%" id="f14bw53k6zwyxl" width="300%" x="-1" y="-1"><feGaussianBlur result="blurOut" stdDeviation="2.0"/><feColorMatrix in="blurOut" result="blurOut2" type="matrix" values="0 0 0 0 0 0 0 0 0 0 0 0 0 0 0 0 0 0 .4 0"/><feOffset dx="4.0" dy="4.0" in="blurOut2" result="blurOut3"/><feBlend in="SourceGraphic" in2="blurOut3" mode="normal"/></filter></defs><g><!--MD5=[7f0ecf5f554433d3f2e1213379ac821c]
class resource--><rect codeLine="2" fill="#FEFECE" filter="url(#f14bw53k6zwyxl)" height="176.0469" id="resource" style="stroke:#A80036;stroke-width:1.5;" width="252" x="7" y="7"/><ellipse cx="100.75" cy="23" fill="#ADD1B2" rx="11" ry="11" style="stroke:#A80036;stroke-width:1.0;"/><path d="M103.7188,28.6406 Q103.1406,28.9375 102.5,29.0781 Q101.8594,29.2344 101.1563,29.2344 Q98.6563,29.2344 97.3281,27.5938 Q96.0156,25.9375 96.0156,22.8125 Q96.0156,19.6875 97.3281,18.0313 Q98.6563,16.375 101.1563,16.375 Q101.8594,16.375 102.5,16.5313 Q103.1563,16.6875 103.7188,16.9844 L103.7188,19.7031 Q103.0938,19.125 102.5,18.8594 Q101.9063,18.5781 101.2813,18.5781 Q99.9375,18.5781 99.25,19.6563 Q98.5625,20.7188 98.5625,22.8125 Q98.5625,24.9063 99.25,25.9844 Q99.9375,27.0469 101.2813,27.0469 Q101.9063,27.0469 102.5,26.7813 Q103.0938,26.5 103.7188,25.9219 L103.7188,28.6406 Z " fill="#000000"/><text fill="#000000" font-family="sans-serif" font-size="12" lengthAdjust="spacing" textLength="56" x="121.25" y="27.1543">resource</text><line style="stroke:#A80036;stroke-width:1.5;" x1="8" x2="258" y1="39" y2="39"/><ellipse cx="18" cy="50" rx="3" ry="3" style="stroke:#038048;stroke-width:1.0;fill:none;"/><text fill="#000000" font-family="sans-serif" font-size="11" lengthAdjust="spacing" textLength="51" x="27" y="53.2104">id: string</text><ellipse cx="18" cy="62.8047" rx="3" ry="3" style="stroke:#038048;stroke-width:1.0;fill:none;"/><text fill="#000000" font-family="sans-serif" font-size="11" lengthAdjust="spacing" textLength="170" x="27" y="66.0151">tags: dictionary[string, string]</text><ellipse cx="18" cy="75.6094" rx="3" ry="3" style="stroke:#038048;stroke-width:1.0;fill:none;"/><text fill="#000000" font-family="sans-serif" font-size="11" lengthAdjust="spacing" textLength="73" x="27" y="78.8198">name: string</text><ellipse cx="18" cy="88.4141" rx="3" ry="3" style="stroke:#038048;stroke-width:1.0;fill:none;"/><text fill="#000000" font-family="sans-serif" font-size="11" lengthAdjust="spacing" textLength="89" x="27" y="91.6245">ctime: datetime</text><ellipse cx="18" cy="101.2188" rx="3" ry="3" style="stroke:#038048;stroke-width:1.0;fill:none;"/><text fill="#000000" font-family="sans-serif" font-size="11" lengthAdjust="spacing" textLength="180" x="27" y="104.4292">age: trafo.duration_to_datetime</text><ellipse cx="18" cy="114.0234" rx="3" ry="3" style="stroke:#038048;stroke-width:1.0;fill:none;"/><text fill="#000000" font-family="sans-serif" font-size="11" lengthAdjust="spacing" textLength="94" x="27" y="117.2339">mtime: datetime</text><ellipse cx="18" cy="126.8281" rx="3" ry="3" style="stroke:#038048;stroke-width:1.0;fill:none;"/><text fill="#000000" font-family="sans-serif" font-size="11" lengthAdjust="spacing" textLength="225" x="27" y="130.0386">last_update: trafo.duration_to_datetime</text><ellipse cx="18" cy="139.6328" rx="3" ry="3" style="stroke:#038048;stroke-width:1.0;fill:none;"/><text fill="#000000" font-family="sans-serif" font-size="11" lengthAdjust="spacing" textLength="90" x="27" y="142.8433">atime: datetime</text><ellipse cx="18" cy="152.4375" rx="3" ry="3" style="stroke:#038048;stroke-width:1.0;fill:none;"/><text fill="#000000" font-family="sans-serif" font-size="11" lengthAdjust="spacing" textLength="226" x="27" y="155.6479">last_access: trafo.duration_to_datetime</text><ellipse cx="18" cy="165.2422" rx="3" ry="3" style="stroke:#038048;stroke-width:1.0;fill:none;"/><text fill="#000000" font-family="sans-serif" font-size="11" lengthAdjust="spacing" textLength="64" x="27" y="168.4526">kind: string</text><line style="stroke:#A80036;stroke-width:1.5;" x1="8" x2="258" y1="175.0469" y2="175.0469"/><!--MD5=[cd869b34d688661372d713ff53dbac1f]
class account--><rect codeLine="14" fill="#FEFECE" filter="url(#f14bw53k6zwyxl)" height="48" id="account" style="stroke:#A80036;stroke-width:1.5;" width="83" x="91.5" y="317"/><ellipse cx="106.5" cy="333" fill="#ADD1B2" rx="11" ry="11" style="stroke:#A80036;stroke-width:1.0;"/><path d="M109.4688,338.6406 Q108.8906,338.9375 108.25,339.0781 Q107.6094,339.2344 106.9063,339.2344 Q104.4063,339.2344 103.0781,337.5938 Q101.7656,335.9375 101.7656,332.8125 Q101.7656,329.6875 103.0781,328.0313 Q104.4063,326.375 106.9063,326.375 Q107.6094,326.375 108.25,326.5313 Q108.9063,326.6875 109.4688,326.9844 L109.4688,329.7031 Q108.8438,329.125 108.25,328.8594 Q107.6563,328.5781 107.0313,328.5781 Q105.6875,328.5781 105,329.6563 Q104.3125,330.7188 104.3125,332.8125 Q104.3125,334.9063 105,335.9844 Q105.6875,337.0469 107.0313,337.0469 Q107.6563,337.0469 108.25,336.7813 Q108.8438,336.5 109.4688,335.9219 L109.4688,338.6406 Z " fill="#000000"/><text fill="#000000" font-family="sans-serif" font-size="12" lengthAdjust="spacing" textLength="51" x="120.5" y="337.1543">account</text><line style="stroke:#A80036;stroke-width:1.5;" x1="92.5" x2="173.5" y1="349" y2="349"/><line style="stroke:#A80036;stroke-width:1.5;" x1="92.5" x2="173.5" y1="357" y2="357"/><!--MD5=[96a667c91f46910544c8a4dd691a5f67]
class gcp_resource--><rect codeLine="17" fill="#FEFECE" filter="url(#f14bw53k6zwyxl)" height="73.6094" id="gcp_resource" style="stroke:#A80036;stroke-width:1.5;" width="159" x="209.5" y="304"/><ellipse cx="243.4" cy="320" fill="#ADD1B2" rx="11" ry="11" style="stroke:#A80036;stroke-width:1.0;"/><path d="M246.3688,325.6406 Q245.7906,325.9375 245.15,326.0781 Q244.5094,326.2344 243.8063,326.2344 Q241.3063,326.2344 239.9781,324.5938 Q238.6656,322.9375 238.6656,319.8125 Q238.6656,316.6875 239.9781,315.0313 Q241.3063,313.375 243.8063,313.375 Q244.5094,313.375 245.15,313.5313 Q245.8063,313.6875 246.3688,313.9844 L246.3688,316.7031 Q245.7438,316.125 245.15,315.8594 Q244.5563,315.5781 243.9313,315.5781 Q242.5875,315.5781 241.9,316.6563 Q241.2125,317.7188 241.2125,319.8125 Q241.2125,321.9063 241.9,322.9844 Q242.5875,324.0469 243.9313,324.0469 Q244.5563,324.0469 245.15,323.7813 Q245.7438,323.5 246.3688,322.9219 L246.3688,325.6406 Z " fill="#000000"/><text fill="#000000" font-family="sans-serif" font-size="12" lengthAdjust="spacing" textLength="85" x="261.6" y="324.1543">gcp_resource</text><line style="stroke:#A80036;stroke-width:1.5;" x1="210.5" x2="367.5" y1="336" y2="336"/><ellipse cx="220.5" cy="347" rx="3" ry="3" style="stroke:#038048;stroke-width:1.0;fill:none;"/><text fill="#000000" font-family="sans-serif" font-size="11" lengthAdjust="spacing" textLength="60" x="229.5" y="350.2104">link: string</text><ellipse cx="220.5" cy="359.8047" rx="3" ry="3" style="stroke:#038048;stroke-width:1.0;fill:none;"/><text fill="#000000" font-family="sans-serif" font-size="11" lengthAdjust="spacing" textLength="133" x="229.5" y="363.0151">label_fingerprint: string</text><line style="stroke:#A80036;stroke-width:1.5;" x1="210.5" x2="367.5" y1="369.6094" y2="369.6094"/><!--MD5=[cab11c6fb1c2871eb7d2e02e154ea8ef]
class gcp_project--><rect codeLine="21" fill="#FEFECE" filter="url(#f14bw53k6zwyxl)" height="48" id="gcp_project" style="stroke:#A80036;stroke-width:1.5;" width="105" x="179.5" y="499"/><ellipse cx="194.5" cy="515" fill="#ADD1B2" rx="11" ry="11" style="stroke:#A80036;stroke-width:1.0;"/><path d="M197.4688,520.6406 Q196.8906,520.9375 196.25,521.0781 Q195.6094,521.2344 194.9063,521.2344 Q192.4063,521.2344 191.0781,519.5938 Q189.7656,517.9375 189.7656,514.8125 Q189.7656,511.6875 191.0781,510.0313 Q192.4063,508.375 194.9063,508.375 Q195.6094,508.375 196.25,508.5313 Q196.9063,508.6875 197.4688,508.9844 L197.4688,511.7031 Q196.8438,511.125 196.25,510.8594 Q195.6563,510.5781 195.0313,510.5781 Q193.6875,510.5781 193,511.6563 Q192.3125,512.7188 192.3125,514.8125 Q192.3125,516.9063 193,517.9844 Q193.6875,519.0469 195.0313,519.0469 Q195.6563,519.0469 196.25,518.7813 Q196.8438,518.5 197.4688,517.9219 L197.4688,520.6406 Z " fill="#000000"/><text fill="#000000" font-family="sans-serif" font-size="12" lengthAdjust="spacing" textLength="73" x="208.5" y="519.1543">gcp_project</text><line style="stroke:#A80036;stroke-width:1.5;" x1="180.5" x2="283.5" y1="531" y2="531"/><line style="stroke:#A80036;stroke-width:1.5;" x1="180.5" x2="283.5" y1="539" y2="539"/><!--MD5=[62607f6f3c82c72f08ad8473d4c0997b]
reverse link resource to account--><path codeLine="24" d="M133,203.29 C133,245.75 133,290.63 133,316.93 " fill="none" id="resource-backto-account" style="stroke:#A80036;stroke-width:1.0;"/><polygon fill="none" points="126,203.06,133,183.06,140,203.06,126,203.06" style="stroke:#A80036;stroke-width:1.0;"/><!--MD5=[893b8694a9a1eb27371d08a39e09caa8]
reverse link gcp_resource to gcp_project--><path codeLine="25" d="M271.31,397.87 C260.56,431.82 247.39,473.39 239.36,498.77 " fill="none" id="gcp_resource-backto-gcp_project" style="stroke:#A80036;stroke-width:1.0;"/><polygon fill="none" points="264.75,395.38,277.47,378.43,278.1,399.61,264.75,395.38" style="stroke:#A80036;stroke-width:1.0;"/><!--MD5=[0bbd592a4c1d1ed9c5c4fb780fb9cfbd]
reverse link account to gcp_project--><path codeLine="26" d="M155.46,382.84 C175.2,418.74 203.22,469.67 219.31,498.93 " fill="none" id="account-backto-gcp_project" style="stroke:#A80036;stroke-width:1.0;"/><polygon fill="none" points="149.24,386.06,145.74,365.16,161.51,379.31,149.24,386.06" style="stroke:#A80036;stroke-width:1.0;"/><!--MD5=[fe8c2bf970ae3371fd3390e9bba94a03]
@startuml
skinparam backgroundcolor transparent
class resource {
+ id: string
+ tags: dictionary[string, string]
+ name: string
+ ctime: datetime
+ age: trafo.duration_to_datetime
+ mtime: datetime
+ last_update: trafo.duration_to_datetime
+ atime: datetime
+ last_access: trafo.duration_to_datetime
+ kind: string
}
class account {

}
class gcp_resource {
+ link: string
+ label_fingerprint: string
}
class gcp_project {

}
resource <|- - - account
gcp_resource <|- - - gcp_project
account <|- - - gcp_project
@enduml

PlantUML version 1.2021.16(Wed Dec 08 17:25:22 UTC 2021)
(GPL source distribution)
Java Runtime: OpenJDK Runtime Environment
JVM: OpenJDK 64-Bit Server VM
Default Encoding: UTF-8
Language: en
Country: null
--></g></svg>