<svg xmlns="http://www.w3.org/2000/svg" xmlns:xlink="http://www.w3.org/1999/xlink" width="449" height="650" contentScriptType="application/ecmascript" contentStyleType="text/css" style="width:449px;height:650px;background:#00000000" preserveAspectRatio="none" version="1.1" viewBox="0 0 449 650" zoomAndPan="magnify"><defs><filter id="f1kwh3pi0t9f5b" width="300%" height="300%" x="-1" y="-1"><feGaussianBlur result="blurOut" stdDeviation="2"/><feColorMatrix in="blurOut" result="blurOut2" type="matrix" values="0 0 0 0 0 0 0 0 0 0 0 0 0 0 0 0 0 0 .4 0"/><feOffset dx="4" dy="4" in="blurOut2" result="blurOut3"/><feBlend in="SourceGraphic" in2="blurOut3" mode="normal"/></filter></defs><g><rect id="resource" width="252" height="176.047" x="7" y="7" fill="#FEFECE" codeLine="2" filter="url(#f1kwh3pi0t9f5b)" style="stroke:#a80036;stroke-width:1.5"/><ellipse cx="100.75" cy="23" fill="#ADD1B2" rx="11" ry="11" style="stroke:#a80036;stroke-width:1"/><path fill="#000" d="M103.7188,28.6406 Q103.1406,28.9375 102.5,29.0781 Q101.8594,29.2344 101.1563,29.2344 Q98.6563,29.2344 97.3281,27.5938 Q96.0156,25.9375 96.0156,22.8125 Q96.0156,19.6875 97.3281,18.0313 Q98.6563,16.375 101.1563,16.375 Q101.8594,16.375 102.5,16.5313 Q103.1563,16.6875 103.7188,16.9844 L103.7188,19.7031 Q103.0938,19.125 102.5,18.8594 Q101.9063,18.5781 101.2813,18.5781 Q99.9375,18.5781 99.25,19.6563 Q98.5625,20.7188 98.5625,22.8125 Q98.5625,24.9063 99.25,25.9844 Q99.9375,27.0469 101.2813,27.0469 Q101.9063,27.0469 102.5,26.7813 Q103.0938,26.5 103.7188,25.9219 L103.7188,28.6406 Z"/><text x="121.25" y="27.154" fill="#000" font-family="sans-serif" font-size="12" lengthAdjust="spacing" textLength="56">resource</text><line style="stroke:#a80036;stroke-width:1.5" x1="8" x2="258" y1="39" y2="39"/><ellipse cx="18" cy="50" rx="3" ry="3" style="stroke:#038048;stroke-width:1;fill:none"/><text x="27" y="53.21" fill="#000" font-family="sans-serif" font-size="11" lengthAdjust="spacing" textLength="51">id: string</text><ellipse cx="18" cy="62.805" rx="3" ry="3" style="stroke:#038048;stroke-width:1;fill:none"/><text x="27" y="66.015" fill="#000" font-family="sans-serif" font-size="11" lengthAdjust="spacing" textLength="170">tags: dictionary[string, string]</text><ellipse cx="18" cy="75.609" rx="3" ry="3" style="stroke:#038048;stroke-width:1;fill:none"/><text x="27" y="78.82" fill="#000" font-family="sans-serif" font-size="11" lengthAdjust="spacing" textLength="73">name: string</text><ellipse cx="18" cy="88.414" rx="3" ry="3" style="stroke:#038048;stroke-width:1;fill:none"/><text x="27" y="91.624" fill="#000" font-family="sans-serif" font-size="11" lengthAdjust="spacing" textLength="89">ctime: datetime</text><ellipse cx="18" cy="101.219" rx="3" ry="3" style="stroke:#038048;stroke-width:1;fill:none"/><text x="27" y="104.429" fill="#000" font-family="sans-serif" font-size="11" lengthAdjust="spacing" textLength="180">age: trafo.duration_to_datetime</text><ellipse cx="18" cy="114.023" rx="3" ry="3" style="stroke:#038048;stroke-width:1;fill:none"/><text x="27" y="117.234" fill="#000" font-family="sans-serif" font-size="11" lengthAdjust="spacing" textLength="94">mtime: datetime</text><ellipse cx="18" cy="126.828" rx="3" ry="3" style="stroke:#038048;stroke-width:1;fill:none"/><text x="27" y="130.039" fill="#000" font-family="sans-serif" font-size="11" lengthAdjust="spacing" textLength="225">last_update: trafo.duration_to_datetime</text><ellipse cx="18" cy="139.633" rx="3" ry="3" style="stroke:#038048;stroke-width:1;fill:none"/><text x="27" y="142.843" fill="#000" font-family="sans-serif" font-size="11" lengthAdjust="spacing" textLength="90">atime: datetime</text><ellipse cx="18" cy="152.438" rx="3" ry="3" style="stroke:#038048;stroke-width:1;fill:none"/><text x="27" y="155.648" fill="#000" font-family="sans-serif" font-size="11" lengthAdjust="spacing" textLength="226">last_access: trafo.duration_to_datetime</text><ellipse cx="18" cy="165.242" rx="3" ry="3" style="stroke:#038048;stroke-width:1;fill:none"/><text x="27" y="168.453" fill="#000" font-family="sans-serif" font-size="11" lengthAdjust="spacing" textLength="64">kind: string</text><line style="stroke:#a80036;stroke-width:1.5" x1="8" x2="258" y1="175.047" y2="175.047"/><rect id="gcp_resource" width="159" height="73.609" x="276.5" y="336" fill="#FEFECE" codeLine="14" filter="url(#f1kwh3pi0t9f5b)" style="stroke:#a80036;stroke-width:1.5"/><ellipse cx="310.4" cy="352" fill="#ADD1B2" rx="11" ry="11" style="stroke:#a80036;stroke-width:1"/><path fill="#000" d="M313.3688,357.6406 Q312.7906,357.9375 312.15,358.0781 Q311.5094,358.2344 310.8063,358.2344 Q308.3063,358.2344 306.9781,356.5938 Q305.6656,354.9375 305.6656,351.8125 Q305.6656,348.6875 306.9781,347.0313 Q308.3063,345.375 310.8063,345.375 Q311.5094,345.375 312.15,345.5313 Q312.8063,345.6875 313.3688,345.9844 L313.3688,348.7031 Q312.7438,348.125 312.15,347.8594 Q311.5563,347.5781 310.9313,347.5781 Q309.5875,347.5781 308.9,348.6563 Q308.2125,349.7188 308.2125,351.8125 Q308.2125,353.9063 308.9,354.9844 Q309.5875,356.0469 310.9313,356.0469 Q311.5563,356.0469 312.15,355.7813 Q312.7438,355.5 313.3688,354.9219 L313.3688,357.6406 Z"/><text x="328.6" y="356.154" fill="#000" font-family="sans-serif" font-size="12" lengthAdjust="spacing" textLength="85">gcp_resource</text><line style="stroke:#a80036;stroke-width:1.5" x1="277.5" x2="434.5" y1="368" y2="368"/><ellipse cx="287.5" cy="379" rx="3" ry="3" style="stroke:#038048;stroke-width:1;fill:none"/><text x="296.5" y="382.21" fill="#000" font-family="sans-serif" font-size="11" lengthAdjust="spacing" textLength="60">link: string</text><ellipse cx="287.5" cy="391.805" rx="3" ry="3" style="stroke:#038048;stroke-width:1;fill:none"/><text x="296.5" y="395.015" fill="#000" font-family="sans-serif" font-size="11" lengthAdjust="spacing" textLength="133">label_fingerprint: string</text><line style="stroke:#a80036;stroke-width:1.5" x1="277.5" x2="434.5" y1="401.609" y2="401.609"/><rect id="volume" width="216" height="137.633" x="25" y="304" fill="#FEFECE" codeLine="18" filter="url(#f1kwh3pi0t9f5b)" style="stroke:#a80036;stroke-width:1.5"/><ellipse cx="106.75" cy="320" fill="#ADD1B2" rx="11" ry="11" style="stroke:#a80036;stroke-width:1"/><path fill="#000" d="M109.7188,325.6406 Q109.1406,325.9375 108.5,326.0781 Q107.8594,326.2344 107.1563,326.2344 Q104.6563,326.2344 103.3281,324.5938 Q102.0156,322.9375 102.0156,319.8125 Q102.0156,316.6875 103.3281,315.0313 Q104.6563,313.375 107.1563,313.375 Q107.8594,313.375 108.5,313.5313 Q109.1563,313.6875 109.7188,313.9844 L109.7188,316.7031 Q109.0938,316.125 108.5,315.8594 Q107.9063,315.5781 107.2813,315.5781 Q105.9375,315.5781 105.25,316.6563 Q104.5625,317.7188 104.5625,319.8125 Q104.5625,321.9063 105.25,322.9844 Q105.9375,324.0469 107.2813,324.0469 Q107.9063,324.0469 108.5,323.7813 Q109.0938,323.5 109.7188,322.9219 L109.7188,325.6406 Z"/><text x="127.25" y="324.154" fill="#000" font-family="sans-serif" font-size="12" lengthAdjust="spacing" textLength="44">volume</text><line style="stroke:#a80036;stroke-width:1.5" x1="26" x2="240" y1="336" y2="336"/><ellipse cx="36" cy="347" rx="3" ry="3" style="stroke:#038048;stroke-width:1;fill:none"/><text x="45" y="350.21" fill="#000" font-family="sans-serif" font-size="11" lengthAdjust="spacing" textLength="105">volume_size: int64</text><ellipse cx="36" cy="359.805" rx="3" ry="3" style="stroke:#038048;stroke-width:1;fill:none"/><text x="45" y="363.015" fill="#000" font-family="sans-serif" font-size="11" lengthAdjust="spacing" textLength="112">volume_type: string</text><ellipse cx="36" cy="372.609" rx="3" ry="3" style="stroke:#038048;stroke-width:1;fill:none"/><text x="45" y="375.82" fill="#000" font-family="sans-serif" font-size="11" lengthAdjust="spacing" textLength="124">volume_status: string</text><ellipse cx="36" cy="385.414" rx="3" ry="3" style="stroke:#038048;stroke-width:1;fill:none"/><text x="45" y="388.625" fill="#000" font-family="sans-serif" font-size="11" lengthAdjust="spacing" textLength="107">volume_iops: int64</text><ellipse cx="36" cy="398.219" rx="3" ry="3" style="stroke:#038048;stroke-width:1;fill:none"/><text x="45" y="401.429" fill="#000" font-family="sans-serif" font-size="11" lengthAdjust="spacing" textLength="145">volume_throughput: int64</text><ellipse cx="36" cy="411.023" rx="3" ry="3" style="stroke:#038048;stroke-width:1;fill:none"/><text x="45" y="414.234" fill="#000" font-family="sans-serif" font-size="11" lengthAdjust="spacing" textLength="156">volume_encrypted: boolean</text><ellipse cx="36" cy="423.828" rx="3" ry="3" style="stroke:#038048;stroke-width:1;fill:none"/><text x="45" y="427.039" fill="#000" font-family="sans-serif" font-size="11" lengthAdjust="spacing" textLength="190">snapshot_before_delete: boolean</text><line style="stroke:#a80036;stroke-width:1.5" x1="26" x2="240" y1="433.633" y2="433.633"/><rect id="gcp_disk" width="216" height="73.609" x="136" y="563" fill="#FEFECE" codeLine="27" filter="url(#f1kwh3pi0t9f5b)" style="stroke:#a80036;stroke-width:1.5"/><ellipse cx="212.75" cy="579" fill="#ADD1B2" rx="11" ry="11" style="stroke:#a80036;stroke-width:1"/><path fill="#000" d="M215.7188,584.6406 Q215.1406,584.9375 214.5,585.0781 Q213.8594,585.2344 213.1563,585.2344 Q210.6563,585.2344 209.3281,583.5938 Q208.0156,581.9375 208.0156,578.8125 Q208.0156,575.6875 209.3281,574.0313 Q210.6563,572.375 213.1563,572.375 Q213.8594,572.375 214.5,572.5313 Q215.1563,572.6875 215.7188,572.9844 L215.7188,575.7031 Q215.0938,575.125 214.5,574.8594 Q213.9063,574.5781 213.2813,574.5781 Q211.9375,574.5781 211.25,575.6563 Q210.5625,576.7188 210.5625,578.8125 Q210.5625,580.9063 211.25,581.9844 Q211.9375,583.0469 213.2813,583.0469 Q213.9063,583.0469 214.5,582.7813 Q215.0938,582.5 215.7188,581.9219 L215.7188,584.6406 Z"/><text x="233.25" y="583.154" fill="#000" font-family="sans-serif" font-size="12" lengthAdjust="spacing" textLength="54">gcp_disk</text><line style="stroke:#a80036;stroke-width:1.5" x1="137" x2="351" y1="595" y2="595"/><ellipse cx="147" cy="606" rx="3" ry="3" style="stroke:#038048;stroke-width:1;fill:none"/><text x="156" y="609.21" fill="#000" font-family="sans-serif" font-size="11" lengthAdjust="spacing" textLength="187">last_attach_timestamp: datetime</text><ellipse cx="147" cy="618.805" rx="3" ry="3" style="stroke:#038048;stroke-width:1;fill:none"/><text x="156" y="622.015" fill="#000" font-family="sans-serif" font-size="11" lengthAdjust="spacing" textLength="190">last_detach_timestamp: datetime</text><line style="stroke:#a80036;stroke-width:1.5" x1="137" x2="351" y1="628.609" y2="628.609"/><path id="resource-backto-volume" fill="none" d="M133,203.36 C133,237.07 133,273.36 133,303.6" codeLine="31" style="stroke:#a80036;stroke-width:1"/><polygon fill="none" points="126 203.33 133 183.33 140 203.33 126 203.33" style="stroke:#a80036;stroke-width:1"/><path id="gcp_resource-backto-gcp_disk" fill="none" d="M329.03,428.18 C308.24,469.95 280.06,526.56 261.95,562.94" codeLine="32" style="stroke:#a80036;stroke-width:1"/><polygon fill="none" points="322.83 424.94 338.01 410.15 335.36 431.17 322.83 424.94" style="stroke:#a80036;stroke-width:1"/><path id="volume-backto-gcp_disk" fill="none" d="M175.57,460.3 C193.12,495.87 212.5,535.14 226.13,562.79" codeLine="33" style="stroke:#a80036;stroke-width:1"/><polygon fill="none" points="169.18 463.15 166.6 442.12 181.73 456.96 169.18 463.15" style="stroke:#a80036;stroke-width:1"/></g></svg>