<?xml version="1.0" encoding="UTF-8" standalone="no"?><svg xmlns="http://www.w3.org/2000/svg" xmlns:xlink="http://www.w3.org/1999/xlink" contentScriptType="application/ecmascript" contentStyleType="text/css" height="946px" preserveAspectRatio="none" style="width:424px;height:946px;background:#00000000;" version="1.1" viewBox="0 0 424 946" width="424px" zoomAndPan="magnify"><defs/><g><!--MD5=[7f0ecf5f554433d3f2e1213379ac821c]
class resource--><rect codeLine="17" fill="#194875" height="275.8359" id="resource" rx="2.5" ry="2.5" style="stroke:#000000;stroke-width:1.5;" width="256" x="7" y="7"/><ellipse cx="90.25" cy="26.8945" fill="#1A83AF" rx="11" ry="11" style="stroke:#000000;stroke-width:1.0;"/><path d="M93.2188,32.5352 Q92.6406,32.832 92,32.9727 Q91.3594,33.1289 90.6563,33.1289 Q88.1563,33.1289 86.8281,31.4883 Q85.5156,29.832 85.5156,26.707 Q85.5156,23.582 86.8281,21.9258 Q88.1563,20.2695 90.6563,20.2695 Q91.3594,20.2695 92,20.4258 Q92.6563,20.582 93.2188,20.8789 L93.2188,23.5977 Q92.5938,23.0195 92,22.7539 Q91.4063,22.4727 90.7813,22.4727 Q89.4375,22.4727 88.75,23.5508 Q88.0625,24.6133 88.0625,26.707 Q88.0625,28.8008 88.75,29.8789 Q89.4375,30.9414 90.7813,30.9414 Q91.4063,30.9414 92,30.6758 Q92.5938,30.3945 93.2188,29.8164 L93.2188,32.5352 Z " fill="#000000"/><text fill="#FFE797" font-family="Helvetica" font-size="17" lengthAdjust="spacing" textLength="71" x="115.75" y="32.7798">resource</text><line style="stroke:#000000;stroke-width:1.5;" x1="8" x2="262" y1="46.7891" y2="46.7891"/><text fill="#FFE797" font-family="sans-serif" font-size="11" font-weight="bold" lengthAdjust="spacing" textLength="12" x="18" y="65.9995">id</text><text fill="#FFE797" font-family="sans-serif" font-size="11" lengthAdjust="spacing" textLength="41" x="30" y="65.9995">: string</text><text fill="#FFE797" font-family="sans-serif" font-size="11" font-weight="bold" lengthAdjust="spacing" textLength="28" x="18" y="88.8042">tags</text><text fill="#FFE797" font-family="sans-serif" font-size="11" lengthAdjust="spacing" textLength="145" x="46" y="88.8042">: dictionary[string, string]</text><text fill="#FFE797" font-family="sans-serif" font-size="11" font-weight="bold" lengthAdjust="spacing" textLength="35" x="18" y="111.6089">name</text><text fill="#FFE797" font-family="sans-serif" font-size="11" lengthAdjust="spacing" textLength="41" x="53" y="111.6089">: string</text><text fill="#FFE797" font-family="sans-serif" font-size="11" font-weight="bold" lengthAdjust="spacing" textLength="35" x="18" y="134.4136">ctime</text><text fill="#FFE797" font-family="sans-serif" font-size="11" lengthAdjust="spacing" textLength="58" x="53" y="134.4136">: datetime</text><text fill="#FFE797" font-family="sans-serif" font-size="11" font-weight="bold" lengthAdjust="spacing" textLength="24" x="18" y="157.2183">age</text><text fill="#FFE797" font-family="sans-serif" font-size="11" lengthAdjust="spacing" textLength="159" x="42" y="157.2183">: trafo.duration_to_datetime</text><text fill="#FFE797" font-family="sans-serif" font-size="11" font-weight="bold" lengthAdjust="spacing" textLength="39" x="18" y="180.0229">mtime</text><text fill="#FFE797" font-family="sans-serif" font-size="11" lengthAdjust="spacing" textLength="58" x="57" y="180.0229">: datetime</text><text fill="#FFE797" font-family="sans-serif" font-size="11" font-weight="bold" lengthAdjust="spacing" textLength="75" x="18" y="202.8276">last_update</text><text fill="#FFE797" font-family="sans-serif" font-size="11" lengthAdjust="spacing" textLength="159" x="93" y="202.8276">: trafo.duration_to_datetime</text><text fill="#FFE797" font-family="sans-serif" font-size="11" font-weight="bold" lengthAdjust="spacing" textLength="36" x="18" y="225.6323">atime</text><text fill="#FFE797" font-family="sans-serif" font-size="11" lengthAdjust="spacing" textLength="58" x="54" y="225.6323">: datetime</text><text fill="#FFE797" font-family="sans-serif" font-size="11" font-weight="bold" lengthAdjust="spacing" textLength="74" x="18" y="248.437">last_access</text><text fill="#FFE797" font-family="sans-serif" font-size="11" lengthAdjust="spacing" textLength="159" x="92" y="248.437">: trafo.duration_to_datetime</text><text fill="#FFE797" font-family="sans-serif" font-size="11" font-weight="bold" lengthAdjust="spacing" textLength="27" x="18" y="271.2417">kind</text><text fill="#FFE797" font-family="sans-serif" font-size="11" lengthAdjust="spacing" textLength="41" x="45" y="271.2417">: string</text><!--MD5=[96a667c91f46910544c8a4dd691a5f67]
class gcp_resource--><rect codeLine="29" fill="#194875" height="93.3984" id="gcp_resource" rx="2.5" ry="2.5" style="stroke:#000000;stroke-width:1.5;" width="169" x="248.5" y="404"/><ellipse cx="272.05" cy="423.8945" fill="#1A83AF" rx="11" ry="11" style="stroke:#000000;stroke-width:1.0;"/><path d="M275.0188,429.5352 Q274.4406,429.832 273.8,429.9727 Q273.1594,430.1289 272.4563,430.1289 Q269.9563,430.1289 268.6281,428.4883 Q267.3156,426.832 267.3156,423.707 Q267.3156,420.582 268.6281,418.9258 Q269.9563,417.2695 272.4563,417.2695 Q273.1594,417.2695 273.8,417.4258 Q274.4563,417.582 275.0188,417.8789 L275.0188,420.5977 Q274.3938,420.0195 273.8,419.7539 Q273.2063,419.4727 272.5813,419.4727 Q271.2375,419.4727 270.55,420.5508 Q269.8625,421.6133 269.8625,423.707 Q269.8625,425.8008 270.55,426.8789 Q271.2375,427.9414 272.5813,427.9414 Q273.2063,427.9414 273.8,427.6758 Q274.3938,427.3945 275.0188,426.8164 L275.0188,429.5352 Z " fill="#000000"/><text fill="#FFE797" font-family="Helvetica" font-size="17" lengthAdjust="spacing" textLength="108" x="292.95" y="429.7798">gcp_resource</text><line style="stroke:#000000;stroke-width:1.5;" x1="249.5" x2="416.5" y1="443.7891" y2="443.7891"/><text fill="#FFE797" font-family="sans-serif" font-size="11" font-weight="bold" lengthAdjust="spacing" textLength="23" x="259.5" y="462.9995">link</text><text fill="#FFE797" font-family="sans-serif" font-size="11" lengthAdjust="spacing" textLength="41" x="282.5" y="462.9995">: string</text><text fill="#FFE797" font-family="sans-serif" font-size="11" font-weight="bold" lengthAdjust="spacing" textLength="106" x="259.5" y="485.8042">label_fingerprint</text><text fill="#FFE797" font-family="sans-serif" font-size="11" lengthAdjust="spacing" textLength="41" x="365.5" y="485.8042">: string</text><!--MD5=[86833b7771fd646511791fafeadda016]
class load_balancer--><rect codeLine="33" fill="#194875" height="93.3984" id="load_balancer" rx="2.5" ry="2.5" style="stroke:#000000;stroke-width:1.5;" width="157" x="56.5" y="404"/><ellipse cx="71.5" cy="423.8945" fill="#1A83AF" rx="11" ry="11" style="stroke:#000000;stroke-width:1.0;"/><path d="M74.4688,429.5352 Q73.8906,429.832 73.25,429.9727 Q72.6094,430.1289 71.9063,430.1289 Q69.4063,430.1289 68.0781,428.4883 Q66.7656,426.832 66.7656,423.707 Q66.7656,420.582 68.0781,418.9258 Q69.4063,417.2695 71.9063,417.2695 Q72.6094,417.2695 73.25,417.4258 Q73.9063,417.582 74.4688,417.8789 L74.4688,420.5977 Q73.8438,420.0195 73.25,419.7539 Q72.6563,419.4727 72.0313,419.4727 Q70.6875,419.4727 70,420.5508 Q69.3125,421.6133 69.3125,423.707 Q69.3125,425.8008 70,426.8789 Q70.6875,427.9414 72.0313,427.9414 Q72.6563,427.9414 73.25,427.6758 Q73.8438,427.3945 74.4688,426.8164 L74.4688,429.5352 Z " fill="#000000"/><text fill="#FFE797" font-family="Helvetica" font-size="17" lengthAdjust="spacing" textLength="115" x="90.5" y="429.7798">load_balancer</text><line style="stroke:#000000;stroke-width:1.5;" x1="57.5" x2="212.5" y1="443.7891" y2="443.7891"/><text fill="#FFE797" font-family="sans-serif" font-size="11" font-weight="bold" lengthAdjust="spacing" textLength="46" x="67.5" y="462.9995">lb_type</text><text fill="#FFE797" font-family="sans-serif" font-size="11" lengthAdjust="spacing" textLength="41" x="113.5" y="462.9995">: string</text><text fill="#FFE797" font-family="sans-serif" font-size="11" font-weight="bold" lengthAdjust="spacing" textLength="61" x="67.5" y="485.8042">backends</text><text fill="#FFE797" font-family="sans-serif" font-size="11" lengthAdjust="spacing" textLength="49" x="128.5" y="485.8042">: string[]</text><!--MD5=[3a125afeaaaf45c8ad94997c7293c783]
class gcp_forwarding_rule--><rect codeLine="37" fill="#194875" height="161.8125" id="gcp_forwarding_rule" rx="2.5" ry="2.5" style="stroke:#000000;stroke-width:1.5;" width="215" x="157.5" y="618"/><ellipse cx="173.85" cy="637.8945" fill="#1A83AF" rx="11" ry="11" style="stroke:#000000;stroke-width:1.0;"/><path d="M176.8188,643.5352 Q176.2406,643.832 175.6,643.9727 Q174.9594,644.1289 174.2563,644.1289 Q171.7563,644.1289 170.4281,642.4883 Q169.1156,640.832 169.1156,637.707 Q169.1156,634.582 170.4281,632.9258 Q171.7563,631.2695 174.2563,631.2695 Q174.9594,631.2695 175.6,631.4258 Q176.2563,631.582 176.8188,631.8789 L176.8188,634.5977 Q176.1938,634.0195 175.6,633.7539 Q175.0063,633.4727 174.3813,633.4727 Q173.0375,633.4727 172.35,634.5508 Q171.6625,635.6133 171.6625,637.707 Q171.6625,639.8008 172.35,640.8789 Q173.0375,641.9414 174.3813,641.9414 Q175.0063,641.9414 175.6,641.6758 Q176.1938,641.3945 176.8188,640.8164 L176.8188,643.5352 Z " fill="#000000"/><text fill="#FFE797" font-family="Helvetica" font-size="17" lengthAdjust="spacing" textLength="170" x="193.15" y="643.7798">gcp_forwarding_rule</text><line style="stroke:#000000;stroke-width:1.5;" x1="158.5" x2="371.5" y1="657.7891" y2="657.7891"/><text fill="#FFE797" font-family="sans-serif" font-size="11" font-weight="bold" lengthAdjust="spacing" textLength="69" x="168.5" y="676.9995">ip_address</text><text fill="#FFE797" font-family="sans-serif" font-size="11" lengthAdjust="spacing" textLength="41" x="237.5" y="676.9995">: string</text><text fill="#FFE797" font-family="sans-serif" font-size="11" font-weight="bold" lengthAdjust="spacing" textLength="71" x="168.5" y="699.8042">ip_protocol</text><text fill="#FFE797" font-family="sans-serif" font-size="11" lengthAdjust="spacing" textLength="41" x="239.5" y="699.8042">: string</text><text fill="#FFE797" font-family="sans-serif" font-size="11" font-weight="bold" lengthAdjust="spacing" textLength="152" x="168.5" y="722.6089">load_balancing_scheme</text><text fill="#FFE797" font-family="sans-serif" font-size="11" lengthAdjust="spacing" textLength="41" x="320.5" y="722.6089">: string</text><text fill="#FFE797" font-family="sans-serif" font-size="11" font-weight="bold" lengthAdjust="spacing" textLength="80" x="168.5" y="745.4136">network_tier</text><text fill="#FFE797" font-family="sans-serif" font-size="11" lengthAdjust="spacing" textLength="41" x="248.5" y="745.4136">: string</text><text fill="#FFE797" font-family="sans-serif" font-size="11" font-weight="bold" lengthAdjust="spacing" textLength="69" x="168.5" y="768.2183">port_range</text><text fill="#FFE797" font-family="sans-serif" font-size="11" lengthAdjust="spacing" textLength="41" x="237.5" y="768.2183">: string</text><!--MD5=[d373685df770b1ed5a34d816c230813f]
class gcp_global_forwarding_rule--><rect codeLine="44" fill="#194875" height="39.7891" id="gcp_global_forwarding_rule" rx="2.5" ry="2.5" style="stroke:#000000;stroke-width:1.5;" width="271" x="129.5" y="901"/><ellipse cx="144.5" cy="920.8945" fill="#1A83AF" rx="11" ry="11" style="stroke:#000000;stroke-width:1.0;"/><path d="M147.4688,926.5352 Q146.8906,926.832 146.25,926.9727 Q145.6094,927.1289 144.9063,927.1289 Q142.4063,927.1289 141.0781,925.4883 Q139.7656,923.832 139.7656,920.707 Q139.7656,917.582 141.0781,915.9258 Q142.4063,914.2695 144.9063,914.2695 Q145.6094,914.2695 146.25,914.4258 Q146.9063,914.582 147.4688,914.8789 L147.4688,917.5977 Q146.8438,917.0195 146.25,916.7539 Q145.6563,916.4727 145.0313,916.4727 Q143.6875,916.4727 143,917.5508 Q142.3125,918.6133 142.3125,920.707 Q142.3125,922.8008 143,923.8789 Q143.6875,924.9414 145.0313,924.9414 Q145.6563,924.9414 146.25,924.6758 Q146.8438,924.3945 147.4688,923.8164 L147.4688,926.5352 Z " fill="#000000"/><text fill="#FFE797" font-family="Helvetica" font-size="17" lengthAdjust="spacing" textLength="229" x="163.5" y="926.7798">gcp_global_forwarding_rule</text><!--MD5=[0344b77bad72b42f01cb7db15a535890]
reverse link resource to load_balancer--><path codeLine="47" d="M135,303.23 C135,340.03 135,376.4 135,403.66 " fill="none" id="resource-backto-load_balancer" style="stroke:#FFAF37;stroke-width:2.0;"/><polygon fill="none" points="128,303.1,135,283.1,142,303.1,128,303.1" style="stroke:#FFAF37;stroke-width:2.0;"/><!--MD5=[237ebeeb3ed1dfa60e4342f5a822793e]
reverse link gcp_resource to gcp_forwarding_rule--><path codeLine="48" d="M315.04,516.59 C306.51,547.54 296.22,584.83 287.2,617.53 " fill="none" id="gcp_resource-backto-gcp_forwarding_rule" style="stroke:#FFAF37;stroke-width:2.0;"/><polygon fill="none" points="308.3,514.71,320.37,497.29,321.8,518.43,308.3,514.71" style="stroke:#FFAF37;stroke-width:2.0;"/><!--MD5=[b1d604fc1a0c1a6cb6ae60ae65a3e80e]
reverse link load_balancer to gcp_forwarding_rule--><path codeLine="49" d="M168.63,515.27 C185.09,546.47 205.07,584.36 222.56,617.53 " fill="none" id="load_balancer-backto-gcp_forwarding_rule" style="stroke:#FFAF37;stroke-width:2.0;"/><polygon fill="none" points="162.29,518.24,159.15,497.29,174.67,511.71,162.29,518.24" style="stroke:#FFAF37;stroke-width:2.0;"/><!--MD5=[0f24705302c7be69cbb90002538f14a1]
reverse link gcp_forwarding_rule to gcp_global_forwarding_rule--><path codeLine="50" d="M265,800.29 C265,838.31 265,877.89 265,900.67 " fill="none" id="gcp_forwarding_rule-backto-gcp_global_forwarding_rule" style="stroke:#FFAF37;stroke-width:2.0;"/><polygon fill="none" points="258,800.05,265,780.05,272,800.05,258,800.05" style="stroke:#FFAF37;stroke-width:2.0;"/><!--MD5=[027b58579f93099147dc3a16cd28cf10]
@startuml
hide empty members
skinparam ArrowColor #ffaf37
skinparam ArrowThickness 2
skinparam BackgroundColor transparent
skinparam ClassAttributeFontColor #ffe797
skinparam ClassBackgroundColor #194875
skinparam ClassBorderColor Black
skinparam ClassFontColor #ffe797
skinparam ClassFontName Helvetica
skinparam ClassFontSize 17
skinparam Padding 5
skinparam RoundCorner 5
skinparam Shadowing false
skinparam stereotypeCBackgroundColor #1a83af
skinparam stereotypeIBackgroundColor #1a83af

class resource {
**id**: string
**tags**: dictionary[string, string]
**name**: string
**ctime**: datetime
**age**: trafo.duration_to_datetime
**mtime**: datetime
**last_update**: trafo.duration_to_datetime
**atime**: datetime
**last_access**: trafo.duration_to_datetime
**kind**: string
}
class gcp_resource {
**link**: string
**label_fingerprint**: string
}
class load_balancer {
**lb_type**: string
**backends**: string[]
}
class gcp_forwarding_rule {
**ip_address**: string
**ip_protocol**: string
**load_balancing_scheme**: string
**network_tier**: string
**port_range**: string
}
class gcp_global_forwarding_rule {

}
resource <|- - - load_balancer
gcp_resource <|- - - gcp_forwarding_rule
load_balancer <|- - - gcp_forwarding_rule
gcp_forwarding_rule <|- - - gcp_global_forwarding_rule
@enduml

PlantUML version 1.2021.16(Wed Dec 08 17:25:22 UTC 2021)
(GPL source distribution)
Java Runtime: OpenJDK Runtime Environment
JVM: OpenJDK 64-Bit Server VM
Default Encoding: UTF-8
Language: en
Country: null
--></g></svg>