<svg xmlns="http://www.w3.org/2000/svg" xmlns:xlink="http://www.w3.org/1999/xlink" width="474" height="449" contentScriptType="application/ecmascript" contentStyleType="text/css" style="width:474px;height:449px;background:#00000000" preserveAspectRatio="none" version="1.1" viewBox="0 0 474 449" zoomAndPan="magnify"><g><rect id="resource" width="256" height="275.836" x="7" y="7" fill="#194875" codeLine="17" rx="2.5" ry="2.5" style="stroke:#000;stroke-width:1.5"/><ellipse cx="90.25" cy="26.895" fill="#1A83AF" rx="11" ry="11" style="stroke:#000;stroke-width:1"/><path fill="#000" d="M93.2188,32.5352 Q92.6406,32.832 92,32.9727 Q91.3594,33.1289 90.6563,33.1289 Q88.1563,33.1289 86.8281,31.4883 Q85.5156,29.832 85.5156,26.707 Q85.5156,23.582 86.8281,21.9258 Q88.1563,20.2695 90.6563,20.2695 Q91.3594,20.2695 92,20.4258 Q92.6563,20.582 93.2188,20.8789 L93.2188,23.5977 Q92.5938,23.0195 92,22.7539 Q91.4063,22.4727 90.7813,22.4727 Q89.4375,22.4727 88.75,23.5508 Q88.0625,24.6133 88.0625,26.707 Q88.0625,28.8008 88.75,29.8789 Q89.4375,30.9414 90.7813,30.9414 Q91.4063,30.9414 92,30.6758 Q92.5938,30.3945 93.2188,29.8164 L93.2188,32.5352 Z"/><text x="115.75" y="32.78" fill="#FFE797" font-family="Helvetica" font-size="17" lengthAdjust="spacing" textLength="71">resource</text><line style="stroke:#000;stroke-width:1.5" x1="8" x2="262" y1="46.789" y2="46.789"/><text x="18" y="65.999" fill="#FFE797" font-family="sans-serif" font-size="11" font-weight="bold" lengthAdjust="spacing" textLength="12">id</text><text x="30" y="65.999" fill="#FFE797" font-family="sans-serif" font-size="11" lengthAdjust="spacing" textLength="41">: string</text><text x="18" y="88.804" fill="#FFE797" font-family="sans-serif" font-size="11" font-weight="bold" lengthAdjust="spacing" textLength="28">tags</text><text x="46" y="88.804" fill="#FFE797" font-family="sans-serif" font-size="11" lengthAdjust="spacing" textLength="145">: dictionary[string, string]</text><text x="18" y="111.609" fill="#FFE797" font-family="sans-serif" font-size="11" font-weight="bold" lengthAdjust="spacing" textLength="35">name</text><text x="53" y="111.609" fill="#FFE797" font-family="sans-serif" font-size="11" lengthAdjust="spacing" textLength="41">: string</text><text x="18" y="134.414" fill="#FFE797" font-family="sans-serif" font-size="11" font-weight="bold" lengthAdjust="spacing" textLength="35">ctime</text><text x="53" y="134.414" fill="#FFE797" font-family="sans-serif" font-size="11" lengthAdjust="spacing" textLength="58">: datetime</text><text x="18" y="157.218" fill="#FFE797" font-family="sans-serif" font-size="11" font-weight="bold" lengthAdjust="spacing" textLength="24">age</text><text x="42" y="157.218" fill="#FFE797" font-family="sans-serif" font-size="11" lengthAdjust="spacing" textLength="159">: trafo.duration_to_datetime</text><text x="18" y="180.023" fill="#FFE797" font-family="sans-serif" font-size="11" font-weight="bold" lengthAdjust="spacing" textLength="39">mtime</text><text x="57" y="180.023" fill="#FFE797" font-family="sans-serif" font-size="11" lengthAdjust="spacing" textLength="58">: datetime</text><text x="18" y="202.828" fill="#FFE797" font-family="sans-serif" font-size="11" font-weight="bold" lengthAdjust="spacing" textLength="75">last_update</text><text x="93" y="202.828" fill="#FFE797" font-family="sans-serif" font-size="11" lengthAdjust="spacing" textLength="159">: trafo.duration_to_datetime</text><text x="18" y="225.632" fill="#FFE797" font-family="sans-serif" font-size="11" font-weight="bold" lengthAdjust="spacing" textLength="36">atime</text><text x="54" y="225.632" fill="#FFE797" font-family="sans-serif" font-size="11" lengthAdjust="spacing" textLength="58">: datetime</text><text x="18" y="248.437" fill="#FFE797" font-family="sans-serif" font-size="11" font-weight="bold" lengthAdjust="spacing" textLength="74">last_access</text><text x="92" y="248.437" fill="#FFE797" font-family="sans-serif" font-size="11" lengthAdjust="spacing" textLength="159">: trafo.duration_to_datetime</text><text x="18" y="271.242" fill="#FFE797" font-family="sans-serif" font-size="11" font-weight="bold" lengthAdjust="spacing" textLength="27">kind</text><text x="45" y="271.242" fill="#FFE797" font-family="sans-serif" font-size="11" lengthAdjust="spacing" textLength="41">: string</text><rect id="gcp_resource" width="169" height="93.398" x="298.5" y="98.5" fill="#194875" codeLine="29" rx="2.5" ry="2.5" style="stroke:#000;stroke-width:1.5"/><ellipse cx="322.05" cy="118.394" fill="#1A83AF" rx="11" ry="11" style="stroke:#000;stroke-width:1"/><path fill="#000" d="M325.0188,124.0352 Q324.4406,124.332 323.8,124.4727 Q323.1594,124.6289 322.4563,124.6289 Q319.9563,124.6289 318.6281,122.9883 Q317.3156,121.332 317.3156,118.207 Q317.3156,115.082 318.6281,113.4258 Q319.9563,111.7695 322.4563,111.7695 Q323.1594,111.7695 323.8,111.9258 Q324.4563,112.082 325.0188,112.3789 L325.0188,115.0977 Q324.3938,114.5195 323.8,114.2539 Q323.2063,113.9727 322.5813,113.9727 Q321.2375,113.9727 320.55,115.0508 Q319.8625,116.1133 319.8625,118.207 Q319.8625,120.3008 320.55,121.3789 Q321.2375,122.4414 322.5813,122.4414 Q323.2063,122.4414 323.8,122.1758 Q324.3938,121.8945 325.0188,121.3164 L325.0188,124.0352 Z"/><text x="342.95" y="124.28" fill="#FFE797" font-family="Helvetica" font-size="17" lengthAdjust="spacing" textLength="108">gcp_resource</text><line style="stroke:#000;stroke-width:1.5" x1="299.5" x2="466.5" y1="138.289" y2="138.289"/><text x="309.5" y="157.5" fill="#FFE797" font-family="sans-serif" font-size="11" font-weight="bold" lengthAdjust="spacing" textLength="23">link</text><text x="332.5" y="157.5" fill="#FFE797" font-family="sans-serif" font-size="11" lengthAdjust="spacing" textLength="41">: string</text><text x="309.5" y="180.304" fill="#FFE797" font-family="sans-serif" font-size="11" font-weight="bold" lengthAdjust="spacing" textLength="106">label_fingerprint</text><text x="415.5" y="180.304" fill="#FFE797" font-family="sans-serif" font-size="11" lengthAdjust="spacing" textLength="41">: string</text><rect id="gcp_backend_service" width="215" height="39.789" x="151.5" y="404" fill="#194875" codeLine="33" rx="2.5" ry="2.5" style="stroke:#000;stroke-width:1.5"/><ellipse cx="166.5" cy="423.894" fill="#1A83AF" rx="11" ry="11" style="stroke:#000;stroke-width:1"/><path fill="#000" d="M169.4688,429.5352 Q168.8906,429.832 168.25,429.9727 Q167.6094,430.1289 166.9063,430.1289 Q164.4063,430.1289 163.0781,428.4883 Q161.7656,426.832 161.7656,423.707 Q161.7656,420.582 163.0781,418.9258 Q164.4063,417.2695 166.9063,417.2695 Q167.6094,417.2695 168.25,417.4258 Q168.9063,417.582 169.4688,417.8789 L169.4688,420.5977 Q168.8438,420.0195 168.25,419.7539 Q167.6563,419.4727 167.0313,419.4727 Q165.6875,419.4727 165,420.5508 Q164.3125,421.6133 164.3125,423.707 Q164.3125,425.8008 165,426.8789 Q165.6875,427.9414 167.0313,427.9414 Q167.6563,427.9414 168.25,427.6758 Q168.8438,427.3945 169.4688,426.8164 L169.4688,429.5352 Z"/><text x="185.5" y="429.78" fill="#FFE797" font-family="Helvetica" font-size="17" lengthAdjust="spacing" textLength="173">gcp_backend_service</text><path id="gcp_resource-backto-gcp_backend_service" fill="none" d="M354.27,210.18 C326.21,272.86 285.24,364.39 267.6,403.79" codeLine="36" style="stroke:#ffaf37;stroke-width:2"/><polygon fill="none" points="347.96 207.14 362.52 191.74 360.74 212.86 347.96 207.14" style="stroke:#ffaf37;stroke-width:2"/><path id="resource-backto-gcp_backend_service" fill="none" d="M204.63,301.55 C222.97,342.52 240.4,381.46 250.38,403.75" codeLine="37" style="stroke:#ffaf37;stroke-width:2"/><polygon fill="none" points="198.24 304.4 196.46 283.28 211.02 298.68 198.24 304.4" style="stroke:#ffaf37;stroke-width:2"/></g></svg>