<svg xmlns="http://www.w3.org/2000/svg" xmlns:xlink="http://www.w3.org/1999/xlink" width="444" height="650" contentScriptType="application/ecmascript" contentStyleType="text/css" style="width:444px;height:650px;background:#00000000" preserveAspectRatio="none" version="1.1" viewBox="0 0 444 650" zoomAndPan="magnify"><defs><filter id="f19ntpu20e85m5" width="300%" height="300%" x="-1" y="-1"><feGaussianBlur result="blurOut" stdDeviation="2"/><feColorMatrix in="blurOut" result="blurOut2" type="matrix" values="0 0 0 0 0 0 0 0 0 0 0 0 0 0 0 0 0 0 .4 0"/><feOffset dx="4" dy="4" in="blurOut2" result="blurOut3"/><feBlend in="SourceGraphic" in2="blurOut3" mode="normal"/></filter></defs><g><rect id="resource" width="252" height="176.047" x="7" y="7" fill="#FEFECE" codeLine="2" filter="url(#f19ntpu20e85m5)" style="stroke:#a80036;stroke-width:1.5"/><ellipse cx="100.75" cy="23" fill="#ADD1B2" rx="11" ry="11" style="stroke:#a80036;stroke-width:1"/><path fill="#000" d="M103.7188,28.6406 Q103.1406,28.9375 102.5,29.0781 Q101.8594,29.2344 101.1563,29.2344 Q98.6563,29.2344 97.3281,27.5938 Q96.0156,25.9375 96.0156,22.8125 Q96.0156,19.6875 97.3281,18.0313 Q98.6563,16.375 101.1563,16.375 Q101.8594,16.375 102.5,16.5313 Q103.1563,16.6875 103.7188,16.9844 L103.7188,19.7031 Q103.0938,19.125 102.5,18.8594 Q101.9063,18.5781 101.2813,18.5781 Q99.9375,18.5781 99.25,19.6563 Q98.5625,20.7188 98.5625,22.8125 Q98.5625,24.9063 99.25,25.9844 Q99.9375,27.0469 101.2813,27.0469 Q101.9063,27.0469 102.5,26.7813 Q103.0938,26.5 103.7188,25.9219 L103.7188,28.6406 Z"/><text x="121.25" y="27.154" fill="#000" font-family="sans-serif" font-size="12" lengthAdjust="spacing" textLength="56">resource</text><line style="stroke:#a80036;stroke-width:1.5" x1="8" x2="258" y1="39" y2="39"/><ellipse cx="18" cy="50" rx="3" ry="3" style="stroke:#038048;stroke-width:1;fill:none"/><text x="27" y="53.21" fill="#000" font-family="sans-serif" font-size="11" lengthAdjust="spacing" textLength="51">id: string</text><ellipse cx="18" cy="62.805" rx="3" ry="3" style="stroke:#038048;stroke-width:1;fill:none"/><text x="27" y="66.015" fill="#000" font-family="sans-serif" font-size="11" lengthAdjust="spacing" textLength="170">tags: dictionary[string, string]</text><ellipse cx="18" cy="75.609" rx="3" ry="3" style="stroke:#038048;stroke-width:1;fill:none"/><text x="27" y="78.82" fill="#000" font-family="sans-serif" font-size="11" lengthAdjust="spacing" textLength="73">name: string</text><ellipse cx="18" cy="88.414" rx="3" ry="3" style="stroke:#038048;stroke-width:1;fill:none"/><text x="27" y="91.624" fill="#000" font-family="sans-serif" font-size="11" lengthAdjust="spacing" textLength="89">ctime: datetime</text><ellipse cx="18" cy="101.219" rx="3" ry="3" style="stroke:#038048;stroke-width:1;fill:none"/><text x="27" y="104.429" fill="#000" font-family="sans-serif" font-size="11" lengthAdjust="spacing" textLength="180">age: trafo.duration_to_datetime</text><ellipse cx="18" cy="114.023" rx="3" ry="3" style="stroke:#038048;stroke-width:1;fill:none"/><text x="27" y="117.234" fill="#000" font-family="sans-serif" font-size="11" lengthAdjust="spacing" textLength="94">mtime: datetime</text><ellipse cx="18" cy="126.828" rx="3" ry="3" style="stroke:#038048;stroke-width:1;fill:none"/><text x="27" y="130.039" fill="#000" font-family="sans-serif" font-size="11" lengthAdjust="spacing" textLength="225">last_update: trafo.duration_to_datetime</text><ellipse cx="18" cy="139.633" rx="3" ry="3" style="stroke:#038048;stroke-width:1;fill:none"/><text x="27" y="142.843" fill="#000" font-family="sans-serif" font-size="11" lengthAdjust="spacing" textLength="90">atime: datetime</text><ellipse cx="18" cy="152.438" rx="3" ry="3" style="stroke:#038048;stroke-width:1;fill:none"/><text x="27" y="155.648" fill="#000" font-family="sans-serif" font-size="11" lengthAdjust="spacing" textLength="226">last_access: trafo.duration_to_datetime</text><ellipse cx="18" cy="165.242" rx="3" ry="3" style="stroke:#038048;stroke-width:1;fill:none"/><text x="27" y="168.453" fill="#000" font-family="sans-serif" font-size="11" lengthAdjust="spacing" textLength="64">kind: string</text><line style="stroke:#a80036;stroke-width:1.5" x1="8" x2="258" y1="175.047" y2="175.047"/><rect id="gcp_resource" width="159" height="73.609" x="271.5" y="348.5" fill="#FEFECE" codeLine="14" filter="url(#f19ntpu20e85m5)" style="stroke:#a80036;stroke-width:1.5"/><ellipse cx="305.4" cy="364.5" fill="#ADD1B2" rx="11" ry="11" style="stroke:#a80036;stroke-width:1"/><path fill="#000" d="M308.3688,370.1406 Q307.7906,370.4375 307.15,370.5781 Q306.5094,370.7344 305.8063,370.7344 Q303.3063,370.7344 301.9781,369.0938 Q300.6656,367.4375 300.6656,364.3125 Q300.6656,361.1875 301.9781,359.5313 Q303.3063,357.875 305.8063,357.875 Q306.5094,357.875 307.15,358.0313 Q307.8063,358.1875 308.3688,358.4844 L308.3688,361.2031 Q307.7438,360.625 307.15,360.3594 Q306.5563,360.0781 305.9313,360.0781 Q304.5875,360.0781 303.9,361.1563 Q303.2125,362.2188 303.2125,364.3125 Q303.2125,366.4063 303.9,367.4844 Q304.5875,368.5469 305.9313,368.5469 Q306.5563,368.5469 307.15,368.2813 Q307.7438,368 308.3688,367.4219 L308.3688,370.1406 Z"/><text x="323.6" y="368.654" fill="#000" font-family="sans-serif" font-size="12" lengthAdjust="spacing" textLength="85">gcp_resource</text><line style="stroke:#a80036;stroke-width:1.5" x1="272.5" x2="429.5" y1="380.5" y2="380.5"/><ellipse cx="282.5" cy="391.5" rx="3" ry="3" style="stroke:#038048;stroke-width:1;fill:none"/><text x="291.5" y="394.71" fill="#000" font-family="sans-serif" font-size="11" lengthAdjust="spacing" textLength="60">link: string</text><ellipse cx="282.5" cy="404.305" rx="3" ry="3" style="stroke:#038048;stroke-width:1;fill:none"/><text x="291.5" y="407.515" fill="#000" font-family="sans-serif" font-size="11" lengthAdjust="spacing" textLength="133">label_fingerprint: string</text><line style="stroke:#a80036;stroke-width:1.5" x1="272.5" x2="429.5" y1="414.109" y2="414.109"/><rect id="database" width="207" height="163.242" x="29.5" y="304" fill="#FEFECE" codeLine="18" filter="url(#f19ntpu20e85m5)" style="stroke:#a80036;stroke-width:1.5"/><ellipse cx="98.75" cy="320" fill="#ADD1B2" rx="11" ry="11" style="stroke:#a80036;stroke-width:1"/><path fill="#000" d="M101.7188,325.6406 Q101.1406,325.9375 100.5,326.0781 Q99.8594,326.2344 99.1563,326.2344 Q96.6563,326.2344 95.3281,324.5938 Q94.0156,322.9375 94.0156,319.8125 Q94.0156,316.6875 95.3281,315.0313 Q96.6563,313.375 99.1563,313.375 Q99.8594,313.375 100.5,313.5313 Q101.1563,313.6875 101.7188,313.9844 L101.7188,316.7031 Q101.0938,316.125 100.5,315.8594 Q99.9063,315.5781 99.2813,315.5781 Q97.9375,315.5781 97.25,316.6563 Q96.5625,317.7188 96.5625,319.8125 Q96.5625,321.9063 97.25,322.9844 Q97.9375,324.0469 99.2813,324.0469 Q99.9063,324.0469 100.5,323.7813 Q101.0938,323.5 101.7188,322.9219 L101.7188,325.6406 Z"/><text x="119.25" y="324.154" fill="#000" font-family="sans-serif" font-size="12" lengthAdjust="spacing" textLength="60">database</text><line style="stroke:#a80036;stroke-width:1.5" x1="30.5" x2="235.5" y1="336" y2="336"/><ellipse cx="40.5" cy="347" rx="3" ry="3" style="stroke:#038048;stroke-width:1;fill:none"/><text x="49.5" y="350.21" fill="#000" font-family="sans-serif" font-size="11" lengthAdjust="spacing" textLength="85">db_type: string</text><ellipse cx="40.5" cy="359.805" rx="3" ry="3" style="stroke:#038048;stroke-width:1;fill:none"/><text x="49.5" y="363.015" fill="#000" font-family="sans-serif" font-size="11" lengthAdjust="spacing" textLength="97">db_status: string</text><ellipse cx="40.5" cy="372.609" rx="3" ry="3" style="stroke:#038048;stroke-width:1;fill:none"/><text x="49.5" y="375.82" fill="#000" font-family="sans-serif" font-size="11" lengthAdjust="spacing" textLength="110">db_endpoint: string</text><ellipse cx="40.5" cy="385.414" rx="3" ry="3" style="stroke:#038048;stroke-width:1;fill:none"/><text x="49.5" y="388.625" fill="#000" font-family="sans-serif" font-size="11" lengthAdjust="spacing" textLength="103">db_version: string</text><ellipse cx="40.5" cy="398.219" rx="3" ry="3" style="stroke:#038048;stroke-width:1;fill:none"/><text x="49.5" y="401.429" fill="#000" font-family="sans-serif" font-size="11" lengthAdjust="spacing" textLength="181">db_publicly_accessible: boolean</text><ellipse cx="40.5" cy="411.023" rx="3" ry="3" style="stroke:#038048;stroke-width:1;fill:none"/><text x="49.5" y="414.234" fill="#000" font-family="sans-serif" font-size="11" lengthAdjust="spacing" textLength="119">instance_type: string</text><ellipse cx="40.5" cy="423.828" rx="3" ry="3" style="stroke:#038048;stroke-width:1;fill:none"/><text x="49.5" y="427.039" fill="#000" font-family="sans-serif" font-size="11" lengthAdjust="spacing" textLength="105">volume_size: int64</text><ellipse cx="40.5" cy="436.633" rx="3" ry="3" style="stroke:#038048;stroke-width:1;fill:none"/><text x="49.5" y="439.843" fill="#000" font-family="sans-serif" font-size="11" lengthAdjust="spacing" textLength="107">volume_iops: int64</text><ellipse cx="40.5" cy="449.438" rx="3" ry="3" style="stroke:#038048;stroke-width:1;fill:none"/><text x="49.5" y="452.648" fill="#000" font-family="sans-serif" font-size="11" lengthAdjust="spacing" textLength="156">volume_encrypted: boolean</text><line style="stroke:#a80036;stroke-width:1.5" x1="30.5" x2="235.5" y1="459.242" y2="459.242"/><rect id="gcp_database" width="121" height="48" x="217.5" y="588" fill="#FEFECE" codeLine="29" filter="url(#f19ntpu20e85m5)" style="stroke:#a80036;stroke-width:1.5"/><ellipse cx="232.5" cy="604" fill="#ADD1B2" rx="11" ry="11" style="stroke:#a80036;stroke-width:1"/><path fill="#000" d="M235.4688,609.6406 Q234.8906,609.9375 234.25,610.0781 Q233.6094,610.2344 232.9063,610.2344 Q230.4063,610.2344 229.0781,608.5938 Q227.7656,606.9375 227.7656,603.8125 Q227.7656,600.6875 229.0781,599.0313 Q230.4063,597.375 232.9063,597.375 Q233.6094,597.375 234.25,597.5313 Q234.9063,597.6875 235.4688,597.9844 L235.4688,600.7031 Q234.8438,600.125 234.25,599.8594 Q233.6563,599.5781 233.0313,599.5781 Q231.6875,599.5781 231,600.6563 Q230.3125,601.7188 230.3125,603.8125 Q230.3125,605.9063 231,606.9844 Q231.6875,608.0469 233.0313,608.0469 Q233.6563,608.0469 234.25,607.7813 Q234.8438,607.5 235.4688,606.9219 L235.4688,609.6406 Z"/><text x="246.5" y="608.154" fill="#000" font-family="sans-serif" font-size="12" lengthAdjust="spacing" textLength="89">gcp_database</text><line style="stroke:#a80036;stroke-width:1.5" x1="218.5" x2="337.5" y1="620" y2="620"/><line style="stroke:#a80036;stroke-width:1.5" x1="218.5" x2="337.5" y1="628" y2="628"/><path id="resource-backto-database" fill="none" d="M133,203.59 C133,236.8 133,272.79 133,303.85" codeLine="32" style="stroke:#a80036;stroke-width:1"/><polygon fill="none" points="126 203.34 133 183.34 140 203.34 126 203.34" style="stroke:#a80036;stroke-width:1"/><path id="gcp_resource-backto-gcp_database" fill="none" d="M333.05,441.72 C317.81,488.58 296.7,553.5 285.57,587.73" codeLine="33" style="stroke:#a80036;stroke-width:1"/><polygon fill="none" points="326.43 439.42 339.27 422.57 339.74 443.75 326.43 439.42" style="stroke:#a80036;stroke-width:1"/><path id="database-backto-gcp_database" fill="none" d="M196.16,484.29 C220.86,522.53 247.03,563.06 262.95,587.7" codeLine="34" style="stroke:#a80036;stroke-width:1"/><polygon fill="none" points="190.11 487.83 185.14 467.23 201.87 480.24 190.11 487.83" style="stroke:#a80036;stroke-width:1"/></g></svg>