<?xml version="1.0" encoding="UTF-8" standalone="no"?><svg xmlns="http://www.w3.org/2000/svg" xmlns:xlink="http://www.w3.org/1999/xlink" contentScriptType="application/ecmascript" contentStyleType="text/css" height="663px" preserveAspectRatio="none" style="width:395px;height:663px;background:#00000000;" version="1.1" viewBox="0 0 395 663" width="395px" zoomAndPan="magnify"><defs/><g><!--MD5=[7f0ecf5f554433d3f2e1213379ac821c]
class resource--><rect codeLine="17" fill="#194875" height="275.8359" id="resource" rx="2.5" ry="2.5" style="stroke:#000000;stroke-width:1.5;" width="256" x="7" y="7"/><ellipse cx="90.25" cy="26.8945" fill="#1A83AF" rx="11" ry="11" style="stroke:#000000;stroke-width:1.0;"/><path d="M93.2188,32.5352 Q92.6406,32.832 92,32.9727 Q91.3594,33.1289 90.6563,33.1289 Q88.1563,33.1289 86.8281,31.4883 Q85.5156,29.832 85.5156,26.707 Q85.5156,23.582 86.8281,21.9258 Q88.1563,20.2695 90.6563,20.2695 Q91.3594,20.2695 92,20.4258 Q92.6563,20.582 93.2188,20.8789 L93.2188,23.5977 Q92.5938,23.0195 92,22.7539 Q91.4063,22.4727 90.7813,22.4727 Q89.4375,22.4727 88.75,23.5508 Q88.0625,24.6133 88.0625,26.707 Q88.0625,28.8008 88.75,29.8789 Q89.4375,30.9414 90.7813,30.9414 Q91.4063,30.9414 92,30.6758 Q92.5938,30.3945 93.2188,29.8164 L93.2188,32.5352 Z " fill="#000000"/><text fill="#FFE797" font-family="Helvetica" font-size="17" lengthAdjust="spacing" textLength="71" x="115.75" y="32.7798">resource</text><line style="stroke:#000000;stroke-width:1.5;" x1="8" x2="262" y1="46.7891" y2="46.7891"/><text fill="#FFE797" font-family="sans-serif" font-size="11" font-weight="bold" lengthAdjust="spacing" textLength="12" x="18" y="65.9995">id</text><text fill="#FFE797" font-family="sans-serif" font-size="11" lengthAdjust="spacing" textLength="41" x="30" y="65.9995">: string</text><text fill="#FFE797" font-family="sans-serif" font-size="11" font-weight="bold" lengthAdjust="spacing" textLength="28" x="18" y="88.8042">tags</text><text fill="#FFE797" font-family="sans-serif" font-size="11" lengthAdjust="spacing" textLength="145" x="46" y="88.8042">: dictionary[string, string]</text><text fill="#FFE797" font-family="sans-serif" font-size="11" font-weight="bold" lengthAdjust="spacing" textLength="35" x="18" y="111.6089">name</text><text fill="#FFE797" font-family="sans-serif" font-size="11" lengthAdjust="spacing" textLength="41" x="53" y="111.6089">: string</text><text fill="#FFE797" font-family="sans-serif" font-size="11" font-weight="bold" lengthAdjust="spacing" textLength="35" x="18" y="134.4136">ctime</text><text fill="#FFE797" font-family="sans-serif" font-size="11" lengthAdjust="spacing" textLength="58" x="53" y="134.4136">: datetime</text><text fill="#FFE797" font-family="sans-serif" font-size="11" font-weight="bold" lengthAdjust="spacing" textLength="24" x="18" y="157.2183">age</text><text fill="#FFE797" font-family="sans-serif" font-size="11" lengthAdjust="spacing" textLength="159" x="42" y="157.2183">: trafo.duration_to_datetime</text><text fill="#FFE797" font-family="sans-serif" font-size="11" font-weight="bold" lengthAdjust="spacing" textLength="39" x="18" y="180.0229">mtime</text><text fill="#FFE797" font-family="sans-serif" font-size="11" lengthAdjust="spacing" textLength="58" x="57" y="180.0229">: datetime</text><text fill="#FFE797" font-family="sans-serif" font-size="11" font-weight="bold" lengthAdjust="spacing" textLength="75" x="18" y="202.8276">last_update</text><text fill="#FFE797" font-family="sans-serif" font-size="11" lengthAdjust="spacing" textLength="159" x="93" y="202.8276">: trafo.duration_to_datetime</text><text fill="#FFE797" font-family="sans-serif" font-size="11" font-weight="bold" lengthAdjust="spacing" textLength="36" x="18" y="225.6323">atime</text><text fill="#FFE797" font-family="sans-serif" font-size="11" lengthAdjust="spacing" textLength="58" x="54" y="225.6323">: datetime</text><text fill="#FFE797" font-family="sans-serif" font-size="11" font-weight="bold" lengthAdjust="spacing" textLength="74" x="18" y="248.437">last_access</text><text fill="#FFE797" font-family="sans-serif" font-size="11" lengthAdjust="spacing" textLength="159" x="92" y="248.437">: trafo.duration_to_datetime</text><text fill="#FFE797" font-family="sans-serif" font-size="11" font-weight="bold" lengthAdjust="spacing" textLength="27" x="18" y="271.2417">kind</text><text fill="#FFE797" font-family="sans-serif" font-size="11" lengthAdjust="spacing" textLength="41" x="45" y="271.2417">: string</text><!--MD5=[96a667c91f46910544c8a4dd691a5f67]
class gcp_resource--><rect codeLine="29" fill="#194875" height="93.3984" id="gcp_resource" rx="2.5" ry="2.5" style="stroke:#000000;stroke-width:1.5;" width="169" x="219.5" y="404"/><ellipse cx="243.05" cy="423.8945" fill="#1A83AF" rx="11" ry="11" style="stroke:#000000;stroke-width:1.0;"/><path d="M246.0188,429.5352 Q245.4406,429.832 244.8,429.9727 Q244.1594,430.1289 243.4563,430.1289 Q240.9563,430.1289 239.6281,428.4883 Q238.3156,426.832 238.3156,423.707 Q238.3156,420.582 239.6281,418.9258 Q240.9563,417.2695 243.4563,417.2695 Q244.1594,417.2695 244.8,417.4258 Q245.4563,417.582 246.0188,417.8789 L246.0188,420.5977 Q245.3938,420.0195 244.8,419.7539 Q244.2063,419.4727 243.5813,419.4727 Q242.2375,419.4727 241.55,420.5508 Q240.8625,421.6133 240.8625,423.707 Q240.8625,425.8008 241.55,426.8789 Q242.2375,427.9414 243.5813,427.9414 Q244.2063,427.9414 244.8,427.6758 Q245.3938,427.3945 246.0188,426.8164 L246.0188,429.5352 Z " fill="#000000"/><text fill="#FFE797" font-family="Helvetica" font-size="17" lengthAdjust="spacing" textLength="108" x="263.95" y="429.7798">gcp_resource</text><line style="stroke:#000000;stroke-width:1.5;" x1="220.5" x2="387.5" y1="443.7891" y2="443.7891"/><text fill="#FFE797" font-family="sans-serif" font-size="11" font-weight="bold" lengthAdjust="spacing" textLength="23" x="230.5" y="462.9995">link</text><text fill="#FFE797" font-family="sans-serif" font-size="11" lengthAdjust="spacing" textLength="41" x="253.5" y="462.9995">: string</text><text fill="#FFE797" font-family="sans-serif" font-size="11" font-weight="bold" lengthAdjust="spacing" textLength="106" x="230.5" y="485.8042">label_fingerprint</text><text fill="#FFE797" font-family="sans-serif" font-size="11" lengthAdjust="spacing" textLength="41" x="336.5" y="485.8042">: string</text><!--MD5=[c9b1461450344310a09eee878d70507a]
class gcp_subnetwork--><rect codeLine="33" fill="#194875" height="39.7891" id="gcp_subnetwork" rx="2.5" ry="2.5" style="stroke:#000000;stroke-width:1.5;" width="178" x="155" y="618"/><ellipse cx="170" cy="637.8945" fill="#1A83AF" rx="11" ry="11" style="stroke:#000000;stroke-width:1.0;"/><path d="M172.9688,643.5352 Q172.3906,643.832 171.75,643.9727 Q171.1094,644.1289 170.4063,644.1289 Q167.9063,644.1289 166.5781,642.4883 Q165.2656,640.832 165.2656,637.707 Q165.2656,634.582 166.5781,632.9258 Q167.9063,631.2695 170.4063,631.2695 Q171.1094,631.2695 171.75,631.4258 Q172.4063,631.582 172.9688,631.8789 L172.9688,634.5977 Q172.3438,634.0195 171.75,633.7539 Q171.1563,633.4727 170.5313,633.4727 Q169.1875,633.4727 168.5,634.5508 Q167.8125,635.6133 167.8125,637.707 Q167.8125,639.8008 168.5,640.8789 Q169.1875,641.9414 170.5313,641.9414 Q171.1563,641.9414 171.75,641.6758 Q172.3438,641.3945 172.9688,640.8164 L172.9688,643.5352 Z " fill="#000000"/><text fill="#FFE797" font-family="Helvetica" font-size="17" lengthAdjust="spacing" textLength="136" x="189" y="643.7798">gcp_subnetwork</text><!--MD5=[ae7729082261e624b90b67805ad34df2]
class subnet--><rect codeLine="36" fill="#194875" height="39.7891" id="subnet" rx="2.5" ry="2.5" style="stroke:#000000;stroke-width:1.5;" width="99" x="85.5" y="430.5"/><ellipse cx="100.5" cy="450.3945" fill="#1A83AF" rx="11" ry="11" style="stroke:#000000;stroke-width:1.0;"/><path d="M103.4688,456.0352 Q102.8906,456.332 102.25,456.4727 Q101.6094,456.6289 100.9063,456.6289 Q98.4063,456.6289 97.0781,454.9883 Q95.7656,453.332 95.7656,450.207 Q95.7656,447.082 97.0781,445.4258 Q98.4063,443.7695 100.9063,443.7695 Q101.6094,443.7695 102.25,443.9258 Q102.9063,444.082 103.4688,444.3789 L103.4688,447.0977 Q102.8438,446.5195 102.25,446.2539 Q101.6563,445.9727 101.0313,445.9727 Q99.6875,445.9727 99,447.0508 Q98.3125,448.1133 98.3125,450.207 Q98.3125,452.3008 99,453.3789 Q99.6875,454.4414 101.0313,454.4414 Q101.6563,454.4414 102.25,454.1758 Q102.8438,453.8945 103.4688,453.3164 L103.4688,456.0352 Z " fill="#000000"/><text fill="#FFE797" font-family="Helvetica" font-size="17" lengthAdjust="spacing" textLength="57" x="119.5" y="456.2798">subnet</text><!--MD5=[db9918491e556254146af21a629380f9]
reverse link gcp_resource to gcp_subnetwork--><path codeLine="39" d="M283.01,516.39 C271.48,552.04 257.99,593.74 250.28,617.6 " fill="none" id="gcp_resource-backto-gcp_subnetwork" style="stroke:#FFAF37;stroke-width:2.0;"/><polygon fill="none" points="276.35,514.23,289.17,497.35,289.67,518.54,276.35,514.23" style="stroke:#FFAF37;stroke-width:2.0;"/><!--MD5=[3018e7edc5663d4422b0b7b4fa09282d]
reverse link subnet to gcp_subnetwork--><path codeLine="40" d="M156.52,488.13 C179.46,527.17 214.89,587.46 232.81,617.95 " fill="none" id="subnet-backto-gcp_subnetwork" style="stroke:#FFAF37;stroke-width:2.0;"/><polygon fill="none" points="150.35,491.44,146.25,470.65,162.42,484.35,150.35,491.44" style="stroke:#FFAF37;stroke-width:2.0;"/><!--MD5=[97e9d3cc8eb6c906dc7f27aa9ecfad30]
reverse link resource to subnet--><path codeLine="41" d="M135,303.26 C135,353.92 135,403.76 135,430.16 " fill="none" id="resource-backto-subnet" style="stroke:#FFAF37;stroke-width:2.0;"/><polygon fill="none" points="128,303.1,135,283.1,142,303.1,128,303.1" style="stroke:#FFAF37;stroke-width:2.0;"/><!--MD5=[35e8beb3957f66efc81328dae4bc47a5]
@startuml
hide empty members
skinparam ArrowColor #ffaf37
skinparam ArrowThickness 2
skinparam BackgroundColor transparent
skinparam ClassAttributeFontColor #ffe797
skinparam ClassBackgroundColor #194875
skinparam ClassBorderColor Black
skinparam ClassFontColor #ffe797
skinparam ClassFontName Helvetica
skinparam ClassFontSize 17
skinparam Padding 5
skinparam RoundCorner 5
skinparam Shadowing false
skinparam stereotypeCBackgroundColor #1a83af
skinparam stereotypeIBackgroundColor #1a83af

class resource {
**id**: string
**tags**: dictionary[string, string]
**name**: string
**ctime**: datetime
**age**: trafo.duration_to_datetime
**mtime**: datetime
**last_update**: trafo.duration_to_datetime
**atime**: datetime
**last_access**: trafo.duration_to_datetime
**kind**: string
}
class gcp_resource {
**link**: string
**label_fingerprint**: string
}
class gcp_subnetwork {

}
class subnet {

}
gcp_resource <|- - - gcp_subnetwork
subnet <|- - - gcp_subnetwork
resource <|- - - subnet
@enduml

PlantUML version 1.2021.16(Wed Dec 08 17:25:22 UTC 2021)
(GPL source distribution)
Java Runtime: OpenJDK Runtime Environment
JVM: OpenJDK 64-Bit Server VM
Default Encoding: UTF-8
Language: en
Country: null
--></g></svg>