<?xml version="1.0" encoding="UTF-8" standalone="no"?><svg xmlns="http://www.w3.org/2000/svg" xmlns:xlink="http://www.w3.org/1999/xlink" contentScriptType="application/ecmascript" contentStyleType="text/css" height="741px" preserveAspectRatio="none" style="width:435px;height:741px;background:#00000000;" version="1.1" viewBox="0 0 435 741" width="435px" zoomAndPan="magnify"><defs/><g><!--MD5=[7f0ecf5f554433d3f2e1213379ac821c]
class resource--><rect codeLine="17" fill="#194875" height="275.8359" id="resource" rx="2.5" ry="2.5" style="stroke:#000000;stroke-width:1.5;" width="256" x="7" y="7"/><ellipse cx="90.25" cy="26.8945" fill="#1A83AF" rx="11" ry="11" style="stroke:#000000;stroke-width:1.0;"/><path d="M93.2188,32.5352 Q92.6406,32.832 92,32.9727 Q91.3594,33.1289 90.6563,33.1289 Q88.1563,33.1289 86.8281,31.4883 Q85.5156,29.832 85.5156,26.707 Q85.5156,23.582 86.8281,21.9258 Q88.1563,20.2695 90.6563,20.2695 Q91.3594,20.2695 92,20.4258 Q92.6563,20.582 93.2188,20.8789 L93.2188,23.5977 Q92.5938,23.0195 92,22.7539 Q91.4063,22.4727 90.7813,22.4727 Q89.4375,22.4727 88.75,23.5508 Q88.0625,24.6133 88.0625,26.707 Q88.0625,28.8008 88.75,29.8789 Q89.4375,30.9414 90.7813,30.9414 Q91.4063,30.9414 92,30.6758 Q92.5938,30.3945 93.2188,29.8164 L93.2188,32.5352 Z " fill="#000000"/><text fill="#FFE797" font-family="Helvetica" font-size="17" lengthAdjust="spacing" textLength="71" x="115.75" y="32.7798">resource</text><line style="stroke:#000000;stroke-width:1.5;" x1="8" x2="262" y1="46.7891" y2="46.7891"/><text fill="#FFE797" font-family="sans-serif" font-size="11" font-weight="bold" lengthAdjust="spacing" textLength="12" x="18" y="65.9995">id</text><text fill="#FFE797" font-family="sans-serif" font-size="11" lengthAdjust="spacing" textLength="41" x="30" y="65.9995">: string</text><text fill="#FFE797" font-family="sans-serif" font-size="11" font-weight="bold" lengthAdjust="spacing" textLength="28" x="18" y="88.8042">tags</text><text fill="#FFE797" font-family="sans-serif" font-size="11" lengthAdjust="spacing" textLength="145" x="46" y="88.8042">: dictionary[string, string]</text><text fill="#FFE797" font-family="sans-serif" font-size="11" font-weight="bold" lengthAdjust="spacing" textLength="35" x="18" y="111.6089">name</text><text fill="#FFE797" font-family="sans-serif" font-size="11" lengthAdjust="spacing" textLength="41" x="53" y="111.6089">: string</text><text fill="#FFE797" font-family="sans-serif" font-size="11" font-weight="bold" lengthAdjust="spacing" textLength="35" x="18" y="134.4136">ctime</text><text fill="#FFE797" font-family="sans-serif" font-size="11" lengthAdjust="spacing" textLength="58" x="53" y="134.4136">: datetime</text><text fill="#FFE797" font-family="sans-serif" font-size="11" font-weight="bold" lengthAdjust="spacing" textLength="24" x="18" y="157.2183">age</text><text fill="#FFE797" font-family="sans-serif" font-size="11" lengthAdjust="spacing" textLength="159" x="42" y="157.2183">: trafo.duration_to_datetime</text><text fill="#FFE797" font-family="sans-serif" font-size="11" font-weight="bold" lengthAdjust="spacing" textLength="39" x="18" y="180.0229">mtime</text><text fill="#FFE797" font-family="sans-serif" font-size="11" lengthAdjust="spacing" textLength="58" x="57" y="180.0229">: datetime</text><text fill="#FFE797" font-family="sans-serif" font-size="11" font-weight="bold" lengthAdjust="spacing" textLength="75" x="18" y="202.8276">last_update</text><text fill="#FFE797" font-family="sans-serif" font-size="11" lengthAdjust="spacing" textLength="159" x="93" y="202.8276">: trafo.duration_to_datetime</text><text fill="#FFE797" font-family="sans-serif" font-size="11" font-weight="bold" lengthAdjust="spacing" textLength="36" x="18" y="225.6323">atime</text><text fill="#FFE797" font-family="sans-serif" font-size="11" lengthAdjust="spacing" textLength="58" x="54" y="225.6323">: datetime</text><text fill="#FFE797" font-family="sans-serif" font-size="11" font-weight="bold" lengthAdjust="spacing" textLength="74" x="18" y="248.437">last_access</text><text fill="#FFE797" font-family="sans-serif" font-size="11" lengthAdjust="spacing" textLength="159" x="92" y="248.437">: trafo.duration_to_datetime</text><text fill="#FFE797" font-family="sans-serif" font-size="11" font-weight="bold" lengthAdjust="spacing" textLength="27" x="18" y="271.2417">kind</text><text fill="#FFE797" font-family="sans-serif" font-size="11" lengthAdjust="spacing" textLength="41" x="45" y="271.2417">: string</text><!--MD5=[96a667c91f46910544c8a4dd691a5f67]
class gcp_resource--><rect codeLine="29" fill="#194875" height="93.3984" id="gcp_resource" rx="2.5" ry="2.5" style="stroke:#000000;stroke-width:1.5;" width="169" x="259.5" y="427"/><ellipse cx="283.05" cy="446.8945" fill="#1A83AF" rx="11" ry="11" style="stroke:#000000;stroke-width:1.0;"/><path d="M286.0188,452.5352 Q285.4406,452.832 284.8,452.9727 Q284.1594,453.1289 283.4563,453.1289 Q280.9563,453.1289 279.6281,451.4883 Q278.3156,449.832 278.3156,446.707 Q278.3156,443.582 279.6281,441.9258 Q280.9563,440.2695 283.4563,440.2695 Q284.1594,440.2695 284.8,440.4258 Q285.4563,440.582 286.0188,440.8789 L286.0188,443.5977 Q285.3938,443.0195 284.8,442.7539 Q284.2063,442.4727 283.5813,442.4727 Q282.2375,442.4727 281.55,443.5508 Q280.8625,444.6133 280.8625,446.707 Q280.8625,448.8008 281.55,449.8789 Q282.2375,450.9414 283.5813,450.9414 Q284.2063,450.9414 284.8,450.6758 Q285.3938,450.3945 286.0188,449.8164 L286.0188,452.5352 Z " fill="#000000"/><text fill="#FFE797" font-family="Helvetica" font-size="17" lengthAdjust="spacing" textLength="108" x="303.95" y="452.7798">gcp_resource</text><line style="stroke:#000000;stroke-width:1.5;" x1="260.5" x2="427.5" y1="466.7891" y2="466.7891"/><text fill="#FFE797" font-family="sans-serif" font-size="11" font-weight="bold" lengthAdjust="spacing" textLength="23" x="270.5" y="485.9995">link</text><text fill="#FFE797" font-family="sans-serif" font-size="11" lengthAdjust="spacing" textLength="41" x="293.5" y="485.9995">: string</text><text fill="#FFE797" font-family="sans-serif" font-size="11" font-weight="bold" lengthAdjust="spacing" textLength="106" x="270.5" y="508.8042">label_fingerprint</text><text fill="#FFE797" font-family="sans-serif" font-size="11" lengthAdjust="spacing" textLength="41" x="376.5" y="508.8042">: string</text><!--MD5=[230a9b3152d0e43428e5ec47aa3382f3]
class instance--><rect codeLine="33" fill="#194875" height="139.0078" id="instance" rx="2.5" ry="2.5" style="stroke:#000000;stroke-width:1.5;" width="179" x="45.5" y="404"/><ellipse cx="90.75" cy="423.8945" fill="#1A83AF" rx="11" ry="11" style="stroke:#000000;stroke-width:1.0;"/><path d="M93.7188,429.5352 Q93.1406,429.832 92.5,429.9727 Q91.8594,430.1289 91.1563,430.1289 Q88.6563,430.1289 87.3281,428.4883 Q86.0156,426.832 86.0156,423.707 Q86.0156,420.582 87.3281,418.9258 Q88.6563,417.2695 91.1563,417.2695 Q91.8594,417.2695 92.5,417.4258 Q93.1563,417.582 93.7188,417.8789 L93.7188,420.5977 Q93.0938,420.0195 92.5,419.7539 Q91.9063,419.4727 91.2813,419.4727 Q89.9375,419.4727 89.25,420.5508 Q88.5625,421.6133 88.5625,423.707 Q88.5625,425.8008 89.25,426.8789 Q89.9375,427.9414 91.2813,427.9414 Q91.9063,427.9414 92.5,427.6758 Q93.0938,427.3945 93.7188,426.8164 L93.7188,429.5352 Z " fill="#000000"/><text fill="#FFE797" font-family="Helvetica" font-size="17" lengthAdjust="spacing" textLength="70" x="116.25" y="429.7798">instance</text><line style="stroke:#000000;stroke-width:1.5;" x1="46.5" x2="223.5" y1="443.7891" y2="443.7891"/><text fill="#FFE797" font-family="sans-serif" font-size="11" font-weight="bold" lengthAdjust="spacing" textLength="96" x="56.5" y="462.9995">instance_cores</text><text fill="#FFE797" font-family="sans-serif" font-size="11" lengthAdjust="spacing" textLength="46" x="152.5" y="462.9995">: double</text><text fill="#FFE797" font-family="sans-serif" font-size="11" font-weight="bold" lengthAdjust="spacing" textLength="111" x="56.5" y="485.8042">instance_memory</text><text fill="#FFE797" font-family="sans-serif" font-size="11" lengthAdjust="spacing" textLength="46" x="167.5" y="485.8042">: double</text><text fill="#FFE797" font-family="sans-serif" font-size="11" font-weight="bold" lengthAdjust="spacing" textLength="89" x="56.5" y="508.6089">instance_type</text><text fill="#FFE797" font-family="sans-serif" font-size="11" lengthAdjust="spacing" textLength="41" x="145.5" y="508.6089">: string</text><text fill="#FFE797" font-family="sans-serif" font-size="11" font-weight="bold" lengthAdjust="spacing" textLength="101" x="56.5" y="531.4136">instance_status</text><text fill="#FFE797" font-family="sans-serif" font-size="11" lengthAdjust="spacing" textLength="41" x="157.5" y="531.4136">: string</text><!--MD5=[6cacedcd4c2effd6f4e2b3539316018b]
class gcp_instance--><rect codeLine="39" fill="#194875" height="70.5938" id="gcp_instance" rx="2.5" ry="2.5" style="stroke:#000000;stroke-width:1.5;" width="186" x="181" y="664"/><ellipse cx="212.65" cy="683.8945" fill="#1A83AF" rx="11" ry="11" style="stroke:#000000;stroke-width:1.0;"/><path d="M215.6188,689.5352 Q215.0406,689.832 214.4,689.9727 Q213.7594,690.1289 213.0563,690.1289 Q210.5563,690.1289 209.2281,688.4883 Q207.9156,686.832 207.9156,683.707 Q207.9156,680.582 209.2281,678.9258 Q210.5563,677.2695 213.0563,677.2695 Q213.7594,677.2695 214.4,677.4258 Q215.0563,677.582 215.6188,677.8789 L215.6188,680.5977 Q214.9938,680.0195 214.4,679.7539 Q213.8063,679.4727 213.1813,679.4727 Q211.8375,679.4727 211.15,680.5508 Q210.4625,681.6133 210.4625,683.707 Q210.4625,685.8008 211.15,686.8789 Q211.8375,687.9414 213.1813,687.9414 Q213.8063,687.9414 214.4,687.6758 Q214.9938,687.3945 215.6188,686.8164 L215.6188,689.5352 Z " fill="#000000"/><text fill="#FFE797" font-family="Helvetica" font-size="17" lengthAdjust="spacing" textLength="107" x="235.35" y="689.7798">gcp_instance</text><line style="stroke:#000000;stroke-width:1.5;" x1="182" x2="366" y1="703.7891" y2="703.7891"/><text fill="#FFE797" font-family="sans-serif" font-size="11" font-weight="bold" lengthAdjust="spacing" textLength="123" x="192" y="722.9995">network_interfaces</text><text fill="#FFE797" font-family="sans-serif" font-size="11" lengthAdjust="spacing" textLength="41" x="315" y="722.9995">: string</text><!--MD5=[d8c8fec3d897e15ddf46b16cbe65a677]
reverse link resource to instance--><path codeLine="42" d="M135,303.22 C135,338.64 135,374.43 135,403.93 " fill="none" id="resource-backto-instance" style="stroke:#FFAF37;stroke-width:2.0;"/><polygon fill="none" points="128,303.05,135,283.05,142,303.05,128,303.05" style="stroke:#FFAF37;stroke-width:2.0;"/><!--MD5=[62cc04601fd5c72e3827447754c642bb]
reverse link gcp_resource to gcp_instance--><path codeLine="43" d="M323.71,539.42 C311.01,580.07 295.14,630.85 284.8,663.95 " fill="none" id="gcp_resource-backto-gcp_instance" style="stroke:#FFAF37;stroke-width:2.0;"/><polygon fill="none" points="317.1,537.1,329.75,520.1,330.47,541.28,317.1,537.1" style="stroke:#FFAF37;stroke-width:2.0;"/><!--MD5=[f04006243f1a8eceb6c84a213e7d8eed]
reverse link instance to gcp_instance--><path codeLine="44" d="M188.4,560.55 C210.76,596.59 235.48,636.43 252.59,663.99 " fill="none" id="instance-backto-gcp_instance" style="stroke:#FFAF37;stroke-width:2.0;"/><polygon fill="none" points="182.25,563.91,177.65,543.23,194.14,556.53,182.25,563.91" style="stroke:#FFAF37;stroke-width:2.0;"/><!--MD5=[68f6f3299871f3795751b1bad7853874]
@startuml
hide empty members
skinparam ArrowColor #ffaf37
skinparam ArrowThickness 2
skinparam BackgroundColor transparent
skinparam ClassAttributeFontColor #ffe797
skinparam ClassBackgroundColor #194875
skinparam ClassBorderColor Black
skinparam ClassFontColor #ffe797
skinparam ClassFontName Helvetica
skinparam ClassFontSize 17
skinparam Padding 5
skinparam RoundCorner 5
skinparam Shadowing false
skinparam stereotypeCBackgroundColor #1a83af
skinparam stereotypeIBackgroundColor #1a83af

class resource {
**id**: string
**tags**: dictionary[string, string]
**name**: string
**ctime**: datetime
**age**: trafo.duration_to_datetime
**mtime**: datetime
**last_update**: trafo.duration_to_datetime
**atime**: datetime
**last_access**: trafo.duration_to_datetime
**kind**: string
}
class gcp_resource {
**link**: string
**label_fingerprint**: string
}
class instance {
**instance_cores**: double
**instance_memory**: double
**instance_type**: string
**instance_status**: string
}
class gcp_instance {
**network_interfaces**: string
}
resource <|- - - instance
gcp_resource <|- - - gcp_instance
instance <|- - - gcp_instance
@enduml

PlantUML version 1.2021.16(Wed Dec 08 17:25:22 UTC 2021)
(GPL source distribution)
Java Runtime: OpenJDK Runtime Environment
JVM: OpenJDK 64-Bit Server VM
Default Encoding: UTF-8
Language: en
Country: null
--></g></svg>