<svg xmlns="http://www.w3.org/2000/svg" xmlns:xlink="http://www.w3.org/1999/xlink" width="377" height="573" contentScriptType="application/ecmascript" contentStyleType="text/css" style="width:377px;height:573px;background:#00000000" preserveAspectRatio="none" version="1.1" viewBox="0 0 377 573" zoomAndPan="magnify"><defs><filter id="fq6uk6o8gi5qc" width="300%" height="300%" x="-1" y="-1"><feGaussianBlur result="blurOut" stdDeviation="2"/><feColorMatrix in="blurOut" result="blurOut2" type="matrix" values="0 0 0 0 0 0 0 0 0 0 0 0 0 0 0 0 0 0 .4 0"/><feOffset dx="4" dy="4" in="blurOut2" result="blurOut3"/><feBlend in="SourceGraphic" in2="blurOut3" mode="normal"/></filter></defs><g><rect id="region" width="72" height="48" x="201.5" y="317" fill="#FEFECE" codeLine="2" filter="url(#fq6uk6o8gi5qc)" style="stroke:#a80036;stroke-width:1.5"/><ellipse cx="216.5" cy="333" fill="#ADD1B2" rx="11" ry="11" style="stroke:#a80036;stroke-width:1"/><path fill="#000" d="M219.4688,338.6406 Q218.8906,338.9375 218.25,339.0781 Q217.6094,339.2344 216.9063,339.2344 Q214.4063,339.2344 213.0781,337.5938 Q211.7656,335.9375 211.7656,332.8125 Q211.7656,329.6875 213.0781,328.0313 Q214.4063,326.375 216.9063,326.375 Q217.6094,326.375 218.25,326.5313 Q218.9063,326.6875 219.4688,326.9844 L219.4688,329.7031 Q218.8438,329.125 218.25,328.8594 Q217.6563,328.5781 217.0313,328.5781 Q215.6875,328.5781 215,329.6563 Q214.3125,330.7188 214.3125,332.8125 Q214.3125,334.9063 215,335.9844 Q215.6875,337.0469 217.0313,337.0469 Q217.6563,337.0469 218.25,336.7813 Q218.8438,336.5 219.4688,335.9219 L219.4688,338.6406 Z"/><text x="230.5" y="337.154" fill="#000" font-family="sans-serif" font-size="12" lengthAdjust="spacing" textLength="40">region</text><line style="stroke:#a80036;stroke-width:1.5" x1="202.5" x2="272.5" y1="349" y2="349"/><line style="stroke:#a80036;stroke-width:1.5" x1="202.5" x2="272.5" y1="357" y2="357"/><rect id="resource" width="252" height="176.047" x="111.5" y="7" fill="#FEFECE" codeLine="5" filter="url(#fq6uk6o8gi5qc)" style="stroke:#a80036;stroke-width:1.5"/><ellipse cx="205.25" cy="23" fill="#ADD1B2" rx="11" ry="11" style="stroke:#a80036;stroke-width:1"/><path fill="#000" d="M208.2188,28.6406 Q207.6406,28.9375 207,29.0781 Q206.3594,29.2344 205.6563,29.2344 Q203.1563,29.2344 201.8281,27.5938 Q200.5156,25.9375 200.5156,22.8125 Q200.5156,19.6875 201.8281,18.0313 Q203.1563,16.375 205.6563,16.375 Q206.3594,16.375 207,16.5313 Q207.6563,16.6875 208.2188,16.9844 L208.2188,19.7031 Q207.5938,19.125 207,18.8594 Q206.4063,18.5781 205.7813,18.5781 Q204.4375,18.5781 203.75,19.6563 Q203.0625,20.7188 203.0625,22.8125 Q203.0625,24.9063 203.75,25.9844 Q204.4375,27.0469 205.7813,27.0469 Q206.4063,27.0469 207,26.7813 Q207.5938,26.5 208.2188,25.9219 L208.2188,28.6406 Z"/><text x="225.75" y="27.154" fill="#000" font-family="sans-serif" font-size="12" lengthAdjust="spacing" textLength="56">resource</text><line style="stroke:#a80036;stroke-width:1.5" x1="112.5" x2="362.5" y1="39" y2="39"/><ellipse cx="122.5" cy="50" rx="3" ry="3" style="stroke:#038048;stroke-width:1;fill:none"/><text x="131.5" y="53.21" fill="#000" font-family="sans-serif" font-size="11" lengthAdjust="spacing" textLength="51">id: string</text><ellipse cx="122.5" cy="62.805" rx="3" ry="3" style="stroke:#038048;stroke-width:1;fill:none"/><text x="131.5" y="66.015" fill="#000" font-family="sans-serif" font-size="11" lengthAdjust="spacing" textLength="170">tags: dictionary[string, string]</text><ellipse cx="122.5" cy="75.609" rx="3" ry="3" style="stroke:#038048;stroke-width:1;fill:none"/><text x="131.5" y="78.82" fill="#000" font-family="sans-serif" font-size="11" lengthAdjust="spacing" textLength="73">name: string</text><ellipse cx="122.5" cy="88.414" rx="3" ry="3" style="stroke:#038048;stroke-width:1;fill:none"/><text x="131.5" y="91.624" fill="#000" font-family="sans-serif" font-size="11" lengthAdjust="spacing" textLength="89">ctime: datetime</text><ellipse cx="122.5" cy="101.219" rx="3" ry="3" style="stroke:#038048;stroke-width:1;fill:none"/><text x="131.5" y="104.429" fill="#000" font-family="sans-serif" font-size="11" lengthAdjust="spacing" textLength="180">age: trafo.duration_to_datetime</text><ellipse cx="122.5" cy="114.023" rx="3" ry="3" style="stroke:#038048;stroke-width:1;fill:none"/><text x="131.5" y="117.234" fill="#000" font-family="sans-serif" font-size="11" lengthAdjust="spacing" textLength="94">mtime: datetime</text><ellipse cx="122.5" cy="126.828" rx="3" ry="3" style="stroke:#038048;stroke-width:1;fill:none"/><text x="131.5" y="130.039" fill="#000" font-family="sans-serif" font-size="11" lengthAdjust="spacing" textLength="225">last_update: trafo.duration_to_datetime</text><ellipse cx="122.5" cy="139.633" rx="3" ry="3" style="stroke:#038048;stroke-width:1;fill:none"/><text x="131.5" y="142.843" fill="#000" font-family="sans-serif" font-size="11" lengthAdjust="spacing" textLength="90">atime: datetime</text><ellipse cx="122.5" cy="152.438" rx="3" ry="3" style="stroke:#038048;stroke-width:1;fill:none"/><text x="131.5" y="155.648" fill="#000" font-family="sans-serif" font-size="11" lengthAdjust="spacing" textLength="226">last_access: trafo.duration_to_datetime</text><ellipse cx="122.5" cy="165.242" rx="3" ry="3" style="stroke:#038048;stroke-width:1;fill:none"/><text x="131.5" y="168.453" fill="#000" font-family="sans-serif" font-size="11" lengthAdjust="spacing" textLength="64">kind: string</text><line style="stroke:#a80036;stroke-width:1.5" x1="112.5" x2="362.5" y1="175.047" y2="175.047"/><rect id="gcp_resource" width="159" height="73.609" x="7" y="304" fill="#FEFECE" codeLine="17" filter="url(#fq6uk6o8gi5qc)" style="stroke:#a80036;stroke-width:1.5"/><ellipse cx="40.9" cy="320" fill="#ADD1B2" rx="11" ry="11" style="stroke:#a80036;stroke-width:1"/><path fill="#000" d="M43.8688,325.6406 Q43.2906,325.9375 42.65,326.0781 Q42.0094,326.2344 41.3063,326.2344 Q38.8063,326.2344 37.4781,324.5938 Q36.1656,322.9375 36.1656,319.8125 Q36.1656,316.6875 37.4781,315.0313 Q38.8063,313.375 41.3063,313.375 Q42.0094,313.375 42.65,313.5313 Q43.3063,313.6875 43.8688,313.9844 L43.8688,316.7031 Q43.2438,316.125 42.65,315.8594 Q42.0563,315.5781 41.4313,315.5781 Q40.0875,315.5781 39.4,316.6563 Q38.7125,317.7188 38.7125,319.8125 Q38.7125,321.9063 39.4,322.9844 Q40.0875,324.0469 41.4313,324.0469 Q42.0563,324.0469 42.65,323.7813 Q43.2438,323.5 43.8688,322.9219 L43.8688,325.6406 Z"/><text x="59.1" y="324.154" fill="#000" font-family="sans-serif" font-size="12" lengthAdjust="spacing" textLength="85">gcp_resource</text><line style="stroke:#a80036;stroke-width:1.5" x1="8" x2="165" y1="336" y2="336"/><ellipse cx="18" cy="347" rx="3" ry="3" style="stroke:#038048;stroke-width:1;fill:none"/><text x="27" y="350.21" fill="#000" font-family="sans-serif" font-size="11" lengthAdjust="spacing" textLength="60">link: string</text><ellipse cx="18" cy="359.805" rx="3" ry="3" style="stroke:#038048;stroke-width:1;fill:none"/><text x="27" y="363.015" fill="#000" font-family="sans-serif" font-size="11" lengthAdjust="spacing" textLength="133">label_fingerprint: string</text><line style="stroke:#a80036;stroke-width:1.5" x1="8" x2="165" y1="369.609" y2="369.609"/><rect id="gcp_region" width="145" height="60.805" x="49" y="499" fill="#FEFECE" codeLine="21" filter="url(#fq6uk6o8gi5qc)" style="stroke:#a80036;stroke-width:1.5"/><ellipse cx="83.8" cy="515" fill="#ADD1B2" rx="11" ry="11" style="stroke:#a80036;stroke-width:1"/><path fill="#000" d="M86.7688,520.6406 Q86.1906,520.9375 85.55,521.0781 Q84.9094,521.2344 84.2063,521.2344 Q81.7063,521.2344 80.3781,519.5938 Q79.0656,517.9375 79.0656,514.8125 Q79.0656,511.6875 80.3781,510.0313 Q81.7063,508.375 84.2063,508.375 Q84.9094,508.375 85.55,508.5313 Q86.2063,508.6875 86.7688,508.9844 L86.7688,511.7031 Q86.1438,511.125 85.55,510.8594 Q84.9563,510.5781 84.3313,510.5781 Q82.9875,510.5781 82.3,511.6563 Q81.6125,512.7188 81.6125,514.8125 Q81.6125,516.9063 82.3,517.9844 Q82.9875,519.0469 84.3313,519.0469 Q84.9563,519.0469 85.55,518.7813 Q86.1438,518.5 86.7688,517.9219 L86.7688,520.6406 Z"/><text x="102.2" y="519.154" fill="#000" font-family="sans-serif" font-size="12" lengthAdjust="spacing" textLength="69">gcp_region</text><line style="stroke:#a80036;stroke-width:1.5" x1="50" x2="193" y1="531" y2="531"/><ellipse cx="60" cy="542" rx="3" ry="3" style="stroke:#038048;stroke-width:1;fill:none"/><text x="69" y="545.21" fill="#000" font-family="sans-serif" font-size="11" lengthAdjust="spacing" textLength="119">region_status: string</text><line style="stroke:#a80036;stroke-width:1.5" x1="50" x2="193" y1="551.805" y2="551.805"/><path id="resource-backto-region" fill="none" d="M237.5,203.29 C237.5,245.75 237.5,290.63 237.5,316.93" codeLine="24" style="stroke:#a80036;stroke-width:1"/><polygon fill="none" points="230.5 203.06 237.5 183.06 244.5 203.06 230.5 203.06" style="stroke:#a80036;stroke-width:1"/><path id="gcp_resource-backto-gcp_region" fill="none" d="M97.08,398.38 C103.29,431.49 110.9,472 115.95,498.94" codeLine="25" style="stroke:#a80036;stroke-width:1"/><polygon fill="none" points="90.14 399.35 93.33 378.4 103.9 396.77 90.14 399.35" style="stroke:#a80036;stroke-width:1"/><path id="region-backto-gcp_region" fill="none" d="M212.31,382.5 C190.52,417.53 159.53,467.36 139.97,498.8" codeLine="26" style="stroke:#a80036;stroke-width:1"/><polygon fill="none" points="206.54 378.53 223.04 365.24 218.42 385.92 206.54 378.53" style="stroke:#a80036;stroke-width:1"/></g></svg>