<svg xmlns="http://www.w3.org/2000/svg" xmlns:xlink="http://www.w3.org/1999/xlink" width="467" height="366" contentScriptType="application/ecmascript" contentStyleType="text/css" style="width:467px;height:366px;background:#00000000" preserveAspectRatio="none" version="1.1" viewBox="0 0 467 366" zoomAndPan="magnify"><defs><filter id="fsarssn1p3xn2" width="300%" height="300%" x="-1" y="-1"><feGaussianBlur result="blurOut" stdDeviation="2"/><feColorMatrix in="blurOut" result="blurOut2" type="matrix" values="0 0 0 0 0 0 0 0 0 0 0 0 0 0 0 0 0 0 .4 0"/><feOffset dx="4" dy="4" in="blurOut2" result="blurOut3"/><feBlend in="SourceGraphic" in2="blurOut3" mode="normal"/></filter></defs><g><rect id="resource" width="252" height="176.047" x="7" y="7" fill="#FEFECE" codeLine="2" filter="url(#fsarssn1p3xn2)" style="stroke:#a80036;stroke-width:1.5"/><ellipse cx="100.75" cy="23" fill="#ADD1B2" rx="11" ry="11" style="stroke:#a80036;stroke-width:1"/><path fill="#000" d="M103.7188,28.6406 Q103.1406,28.9375 102.5,29.0781 Q101.8594,29.2344 101.1563,29.2344 Q98.6563,29.2344 97.3281,27.5938 Q96.0156,25.9375 96.0156,22.8125 Q96.0156,19.6875 97.3281,18.0313 Q98.6563,16.375 101.1563,16.375 Q101.8594,16.375 102.5,16.5313 Q103.1563,16.6875 103.7188,16.9844 L103.7188,19.7031 Q103.0938,19.125 102.5,18.8594 Q101.9063,18.5781 101.2813,18.5781 Q99.9375,18.5781 99.25,19.6563 Q98.5625,20.7188 98.5625,22.8125 Q98.5625,24.9063 99.25,25.9844 Q99.9375,27.0469 101.2813,27.0469 Q101.9063,27.0469 102.5,26.7813 Q103.0938,26.5 103.7188,25.9219 L103.7188,28.6406 Z"/><text x="121.25" y="27.154" fill="#000" font-family="sans-serif" font-size="12" lengthAdjust="spacing" textLength="56">resource</text><line style="stroke:#a80036;stroke-width:1.5" x1="8" x2="258" y1="39" y2="39"/><ellipse cx="18" cy="50" rx="3" ry="3" style="stroke:#038048;stroke-width:1;fill:none"/><text x="27" y="53.21" fill="#000" font-family="sans-serif" font-size="11" lengthAdjust="spacing" textLength="51">id: string</text><ellipse cx="18" cy="62.805" rx="3" ry="3" style="stroke:#038048;stroke-width:1;fill:none"/><text x="27" y="66.015" fill="#000" font-family="sans-serif" font-size="11" lengthAdjust="spacing" textLength="170">tags: dictionary[string, string]</text><ellipse cx="18" cy="75.609" rx="3" ry="3" style="stroke:#038048;stroke-width:1;fill:none"/><text x="27" y="78.82" fill="#000" font-family="sans-serif" font-size="11" lengthAdjust="spacing" textLength="73">name: string</text><ellipse cx="18" cy="88.414" rx="3" ry="3" style="stroke:#038048;stroke-width:1;fill:none"/><text x="27" y="91.624" fill="#000" font-family="sans-serif" font-size="11" lengthAdjust="spacing" textLength="89">ctime: datetime</text><ellipse cx="18" cy="101.219" rx="3" ry="3" style="stroke:#038048;stroke-width:1;fill:none"/><text x="27" y="104.429" fill="#000" font-family="sans-serif" font-size="11" lengthAdjust="spacing" textLength="180">age: trafo.duration_to_datetime</text><ellipse cx="18" cy="114.023" rx="3" ry="3" style="stroke:#038048;stroke-width:1;fill:none"/><text x="27" y="117.234" fill="#000" font-family="sans-serif" font-size="11" lengthAdjust="spacing" textLength="94">mtime: datetime</text><ellipse cx="18" cy="126.828" rx="3" ry="3" style="stroke:#038048;stroke-width:1;fill:none"/><text x="27" y="130.039" fill="#000" font-family="sans-serif" font-size="11" lengthAdjust="spacing" textLength="225">last_update: trafo.duration_to_datetime</text><ellipse cx="18" cy="139.633" rx="3" ry="3" style="stroke:#038048;stroke-width:1;fill:none"/><text x="27" y="142.843" fill="#000" font-family="sans-serif" font-size="11" lengthAdjust="spacing" textLength="90">atime: datetime</text><ellipse cx="18" cy="152.438" rx="3" ry="3" style="stroke:#038048;stroke-width:1;fill:none"/><text x="27" y="155.648" fill="#000" font-family="sans-serif" font-size="11" lengthAdjust="spacing" textLength="226">last_access: trafo.duration_to_datetime</text><ellipse cx="18" cy="165.242" rx="3" ry="3" style="stroke:#038048;stroke-width:1;fill:none"/><text x="27" y="168.453" fill="#000" font-family="sans-serif" font-size="11" lengthAdjust="spacing" textLength="64">kind: string</text><line style="stroke:#a80036;stroke-width:1.5" x1="8" x2="258" y1="175.047" y2="175.047"/><rect id="gcp_resource" width="159" height="73.609" x="294.5" y="58" fill="#FEFECE" codeLine="14" filter="url(#fsarssn1p3xn2)" style="stroke:#a80036;stroke-width:1.5"/><ellipse cx="328.4" cy="74" fill="#ADD1B2" rx="11" ry="11" style="stroke:#a80036;stroke-width:1"/><path fill="#000" d="M331.3688,79.6406 Q330.7906,79.9375 330.15,80.0781 Q329.5094,80.2344 328.8063,80.2344 Q326.3063,80.2344 324.9781,78.5938 Q323.6656,76.9375 323.6656,73.8125 Q323.6656,70.6875 324.9781,69.0313 Q326.3063,67.375 328.8063,67.375 Q329.5094,67.375 330.15,67.5313 Q330.8063,67.6875 331.3688,67.9844 L331.3688,70.7031 Q330.7438,70.125 330.15,69.8594 Q329.5563,69.5781 328.9313,69.5781 Q327.5875,69.5781 326.9,70.6563 Q326.2125,71.7188 326.2125,73.8125 Q326.2125,75.9063 326.9,76.9844 Q327.5875,78.0469 328.9313,78.0469 Q329.5563,78.0469 330.15,77.7813 Q330.7438,77.5 331.3688,76.9219 L331.3688,79.6406 Z"/><text x="346.6" y="78.154" fill="#000" font-family="sans-serif" font-size="12" lengthAdjust="spacing" textLength="85">gcp_resource</text><line style="stroke:#a80036;stroke-width:1.5" x1="295.5" x2="452.5" y1="90" y2="90"/><ellipse cx="305.5" cy="101" rx="3" ry="3" style="stroke:#038048;stroke-width:1;fill:none"/><text x="314.5" y="104.21" fill="#000" font-family="sans-serif" font-size="11" lengthAdjust="spacing" textLength="60">link: string</text><ellipse cx="305.5" cy="113.805" rx="3" ry="3" style="stroke:#038048;stroke-width:1;fill:none"/><text x="314.5" y="117.015" fill="#000" font-family="sans-serif" font-size="11" lengthAdjust="spacing" textLength="133">label_fingerprint: string</text><line style="stroke:#a80036;stroke-width:1.5" x1="295.5" x2="452.5" y1="123.609" y2="123.609"/><rect id="gcp_backend_service" width="165" height="48" x="170.5" y="304" fill="#FEFECE" codeLine="18" filter="url(#fsarssn1p3xn2)" style="stroke:#a80036;stroke-width:1.5"/><ellipse cx="185.5" cy="320" fill="#ADD1B2" rx="11" ry="11" style="stroke:#a80036;stroke-width:1"/><path fill="#000" d="M188.4688,325.6406 Q187.8906,325.9375 187.25,326.0781 Q186.6094,326.2344 185.9063,326.2344 Q183.4063,326.2344 182.0781,324.5938 Q180.7656,322.9375 180.7656,319.8125 Q180.7656,316.6875 182.0781,315.0313 Q183.4063,313.375 185.9063,313.375 Q186.6094,313.375 187.25,313.5313 Q187.9063,313.6875 188.4688,313.9844 L188.4688,316.7031 Q187.8438,316.125 187.25,315.8594 Q186.6563,315.5781 186.0313,315.5781 Q184.6875,315.5781 184,316.6563 Q183.3125,317.7188 183.3125,319.8125 Q183.3125,321.9063 184,322.9844 Q184.6875,324.0469 186.0313,324.0469 Q186.6563,324.0469 187.25,323.7813 Q187.8438,323.5 188.4688,322.9219 L188.4688,325.6406 Z"/><text x="199.5" y="324.154" fill="#000" font-family="sans-serif" font-size="12" lengthAdjust="spacing" textLength="133">gcp_backend_service</text><line style="stroke:#a80036;stroke-width:1.5" x1="171.5" x2="334.5" y1="336" y2="336"/><line style="stroke:#a80036;stroke-width:1.5" x1="171.5" x2="334.5" y1="344" y2="344"/><path id="gcp_resource-backto-gcp_backend_service" fill="none" d="M345.73,149.97 C320.2,198.7 283.86,268.09 265.16,303.79" codeLine="21" style="stroke:#a80036;stroke-width:1"/><polygon fill="none" points="339.61 146.56 355.09 132.09 352.01 153.06 339.61 146.56" style="stroke:#a80036;stroke-width:1"/><path id="resource-backto-gcp_backend_service" fill="none" d="M187.46,200.83 C207.48,239.37 228.33,279.51 240.99,303.89" codeLine="22" style="stroke:#a80036;stroke-width:1"/><polygon fill="none" points="181.2 203.98 178.2 183 193.63 197.52 181.2 203.98" style="stroke:#a80036;stroke-width:1"/></g></svg>