<?xml version="1.0" encoding="UTF-8" standalone="no"?><svg xmlns="http://www.w3.org/2000/svg" xmlns:xlink="http://www.w3.org/1999/xlink" contentScriptType="application/ecmascript" contentStyleType="text/css" height="810px" preserveAspectRatio="none" style="width:440px;height:810px;background:#00000000;" version="1.1" viewBox="0 0 440 810" width="440px" zoomAndPan="magnify"><defs/><g><!--MD5=[7f0ecf5f554433d3f2e1213379ac821c]
class resource--><rect codeLine="17" fill="#194875" height="275.8359" id="resource" rx="2.5" ry="2.5" style="stroke:#000000;stroke-width:1.5;" width="256" x="7" y="7"/><ellipse cx="90.25" cy="26.8945" fill="#1A83AF" rx="11" ry="11" style="stroke:#000000;stroke-width:1.0;"/><path d="M93.2188,32.5352 Q92.6406,32.832 92,32.9727 Q91.3594,33.1289 90.6563,33.1289 Q88.1563,33.1289 86.8281,31.4883 Q85.5156,29.832 85.5156,26.707 Q85.5156,23.582 86.8281,21.9258 Q88.1563,20.2695 90.6563,20.2695 Q91.3594,20.2695 92,20.4258 Q92.6563,20.582 93.2188,20.8789 L93.2188,23.5977 Q92.5938,23.0195 92,22.7539 Q91.4063,22.4727 90.7813,22.4727 Q89.4375,22.4727 88.75,23.5508 Q88.0625,24.6133 88.0625,26.707 Q88.0625,28.8008 88.75,29.8789 Q89.4375,30.9414 90.7813,30.9414 Q91.4063,30.9414 92,30.6758 Q92.5938,30.3945 93.2188,29.8164 L93.2188,32.5352 Z " fill="#000000"/><text fill="#FFE797" font-family="Helvetica" font-size="17" lengthAdjust="spacing" textLength="71" x="115.75" y="32.7798">resource</text><line style="stroke:#000000;stroke-width:1.5;" x1="8" x2="262" y1="46.7891" y2="46.7891"/><text fill="#FFE797" font-family="sans-serif" font-size="11" font-weight="bold" lengthAdjust="spacing" textLength="12" x="18" y="65.9995">id</text><text fill="#FFE797" font-family="sans-serif" font-size="11" lengthAdjust="spacing" textLength="41" x="30" y="65.9995">: string</text><text fill="#FFE797" font-family="sans-serif" font-size="11" font-weight="bold" lengthAdjust="spacing" textLength="28" x="18" y="88.8042">tags</text><text fill="#FFE797" font-family="sans-serif" font-size="11" lengthAdjust="spacing" textLength="145" x="46" y="88.8042">: dictionary[string, string]</text><text fill="#FFE797" font-family="sans-serif" font-size="11" font-weight="bold" lengthAdjust="spacing" textLength="35" x="18" y="111.6089">name</text><text fill="#FFE797" font-family="sans-serif" font-size="11" lengthAdjust="spacing" textLength="41" x="53" y="111.6089">: string</text><text fill="#FFE797" font-family="sans-serif" font-size="11" font-weight="bold" lengthAdjust="spacing" textLength="35" x="18" y="134.4136">ctime</text><text fill="#FFE797" font-family="sans-serif" font-size="11" lengthAdjust="spacing" textLength="58" x="53" y="134.4136">: datetime</text><text fill="#FFE797" font-family="sans-serif" font-size="11" font-weight="bold" lengthAdjust="spacing" textLength="24" x="18" y="157.2183">age</text><text fill="#FFE797" font-family="sans-serif" font-size="11" lengthAdjust="spacing" textLength="159" x="42" y="157.2183">: trafo.duration_to_datetime</text><text fill="#FFE797" font-family="sans-serif" font-size="11" font-weight="bold" lengthAdjust="spacing" textLength="39" x="18" y="180.0229">mtime</text><text fill="#FFE797" font-family="sans-serif" font-size="11" lengthAdjust="spacing" textLength="58" x="57" y="180.0229">: datetime</text><text fill="#FFE797" font-family="sans-serif" font-size="11" font-weight="bold" lengthAdjust="spacing" textLength="75" x="18" y="202.8276">last_update</text><text fill="#FFE797" font-family="sans-serif" font-size="11" lengthAdjust="spacing" textLength="159" x="93" y="202.8276">: trafo.duration_to_datetime</text><text fill="#FFE797" font-family="sans-serif" font-size="11" font-weight="bold" lengthAdjust="spacing" textLength="36" x="18" y="225.6323">atime</text><text fill="#FFE797" font-family="sans-serif" font-size="11" lengthAdjust="spacing" textLength="58" x="54" y="225.6323">: datetime</text><text fill="#FFE797" font-family="sans-serif" font-size="11" font-weight="bold" lengthAdjust="spacing" textLength="74" x="18" y="248.437">last_access</text><text fill="#FFE797" font-family="sans-serif" font-size="11" lengthAdjust="spacing" textLength="159" x="92" y="248.437">: trafo.duration_to_datetime</text><text fill="#FFE797" font-family="sans-serif" font-size="11" font-weight="bold" lengthAdjust="spacing" textLength="27" x="18" y="271.2417">kind</text><text fill="#FFE797" font-family="sans-serif" font-size="11" lengthAdjust="spacing" textLength="41" x="45" y="271.2417">: string</text><!--MD5=[96a667c91f46910544c8a4dd691a5f67]
class gcp_resource--><rect codeLine="29" fill="#194875" height="93.3984" id="gcp_resource" rx="2.5" ry="2.5" style="stroke:#000000;stroke-width:1.5;" width="169" x="264.5" y="438.5"/><ellipse cx="288.05" cy="458.3945" fill="#1A83AF" rx="11" ry="11" style="stroke:#000000;stroke-width:1.0;"/><path d="M291.0188,464.0352 Q290.4406,464.332 289.8,464.4727 Q289.1594,464.6289 288.4563,464.6289 Q285.9563,464.6289 284.6281,462.9883 Q283.3156,461.332 283.3156,458.207 Q283.3156,455.082 284.6281,453.4258 Q285.9563,451.7695 288.4563,451.7695 Q289.1594,451.7695 289.8,451.9258 Q290.4563,452.082 291.0188,452.3789 L291.0188,455.0977 Q290.3938,454.5195 289.8,454.2539 Q289.2063,453.9727 288.5813,453.9727 Q287.2375,453.9727 286.55,455.0508 Q285.8625,456.1133 285.8625,458.207 Q285.8625,460.3008 286.55,461.3789 Q287.2375,462.4414 288.5813,462.4414 Q289.2063,462.4414 289.8,462.1758 Q290.3938,461.8945 291.0188,461.3164 L291.0188,464.0352 Z " fill="#000000"/><text fill="#FFE797" font-family="Helvetica" font-size="17" lengthAdjust="spacing" textLength="108" x="308.95" y="464.2798">gcp_resource</text><line style="stroke:#000000;stroke-width:1.5;" x1="265.5" x2="432.5" y1="478.2891" y2="478.2891"/><text fill="#FFE797" font-family="sans-serif" font-size="11" font-weight="bold" lengthAdjust="spacing" textLength="23" x="275.5" y="497.4995">link</text><text fill="#FFE797" font-family="sans-serif" font-size="11" lengthAdjust="spacing" textLength="41" x="298.5" y="497.4995">: string</text><text fill="#FFE797" font-family="sans-serif" font-size="11" font-weight="bold" lengthAdjust="spacing" textLength="106" x="275.5" y="520.3042">label_fingerprint</text><text fill="#FFE797" font-family="sans-serif" font-size="11" lengthAdjust="spacing" textLength="41" x="381.5" y="520.3042">: string</text><!--MD5=[7efa0d785ec5d971fa39f472a6995436]
class gcp_http_health_check--><rect codeLine="33" fill="#194875" height="116.2031" id="gcp_http_health_check" rx="2.5" ry="2.5" style="stroke:#000000;stroke-width:1.5;" width="233" x="160.5" y="687"/><ellipse cx="175.5" cy="706.8945" fill="#1A83AF" rx="11" ry="11" style="stroke:#000000;stroke-width:1.0;"/><path d="M178.4688,712.5352 Q177.8906,712.832 177.25,712.9727 Q176.6094,713.1289 175.9063,713.1289 Q173.4063,713.1289 172.0781,711.4883 Q170.7656,709.832 170.7656,706.707 Q170.7656,703.582 172.0781,701.9258 Q173.4063,700.2695 175.9063,700.2695 Q176.6094,700.2695 177.25,700.4258 Q177.9063,700.582 178.4688,700.8789 L178.4688,703.5977 Q177.8438,703.0195 177.25,702.7539 Q176.6563,702.4727 176.0313,702.4727 Q174.6875,702.4727 174,703.5508 Q173.3125,704.6133 173.3125,706.707 Q173.3125,708.8008 174,709.8789 Q174.6875,710.9414 176.0313,710.9414 Q176.6563,710.9414 177.25,710.6758 Q177.8438,710.3945 178.4688,709.8164 L178.4688,712.5352 Z " fill="#000000"/><text fill="#FFE797" font-family="Helvetica" font-size="17" lengthAdjust="spacing" textLength="191" x="194.5" y="712.7798">gcp_http_health_check</text><line style="stroke:#000000;stroke-width:1.5;" x1="161.5" x2="392.5" y1="726.7891" y2="726.7891"/><text fill="#FFE797" font-family="sans-serif" font-size="11" font-weight="bold" lengthAdjust="spacing" textLength="28" x="171.5" y="745.9995">host</text><text fill="#FFE797" font-family="sans-serif" font-size="11" lengthAdjust="spacing" textLength="41" x="199.5" y="745.9995">: string</text><text fill="#FFE797" font-family="sans-serif" font-size="11" font-weight="bold" lengthAdjust="spacing" textLength="84" x="171.5" y="768.8042">request_path</text><text fill="#FFE797" font-family="sans-serif" font-size="11" lengthAdjust="spacing" textLength="41" x="255.5" y="768.8042">: string</text><text fill="#FFE797" font-family="sans-serif" font-size="11" font-weight="bold" lengthAdjust="spacing" textLength="26" x="171.5" y="791.6089">port</text><text fill="#FFE797" font-family="sans-serif" font-size="11" lengthAdjust="spacing" textLength="36" x="197.5" y="791.6089">: int64</text><!--MD5=[a393f42a4c461dfa9d88d0b2ffd945b3]
class health_check--><rect codeLine="38" fill="#194875" height="161.8125" id="health_check" rx="2.5" ry="2.5" style="stroke:#000000;stroke-width:1.5;" width="189" x="40.5" y="404"/><ellipse cx="72.15" cy="423.8945" fill="#1A83AF" rx="11" ry="11" style="stroke:#000000;stroke-width:1.0;"/><path d="M75.1188,429.5352 Q74.5406,429.832 73.9,429.9727 Q73.2594,430.1289 72.5563,430.1289 Q70.0563,430.1289 68.7281,428.4883 Q67.4156,426.832 67.4156,423.707 Q67.4156,420.582 68.7281,418.9258 Q70.0563,417.2695 72.5563,417.2695 Q73.2594,417.2695 73.9,417.4258 Q74.5563,417.582 75.1188,417.8789 L75.1188,420.5977 Q74.4938,420.0195 73.9,419.7539 Q73.3063,419.4727 72.6813,419.4727 Q71.3375,419.4727 70.65,420.5508 Q69.9625,421.6133 69.9625,423.707 Q69.9625,425.8008 70.65,426.8789 Q71.3375,427.9414 72.6813,427.9414 Q73.3063,427.9414 73.9,427.6758 Q74.4938,427.3945 75.1188,426.8164 L75.1188,429.5352 Z " fill="#000000"/><text fill="#FFE797" font-family="Helvetica" font-size="17" lengthAdjust="spacing" textLength="110" x="94.85" y="429.7798">health_check</text><line style="stroke:#000000;stroke-width:1.5;" x1="41.5" x2="228.5" y1="443.7891" y2="443.7891"/><text fill="#FFE797" font-family="sans-serif" font-size="11" font-weight="bold" lengthAdjust="spacing" textLength="92" x="51.5" y="462.9995">check_interval</text><text fill="#FFE797" font-family="sans-serif" font-size="11" lengthAdjust="spacing" textLength="36" x="143.5" y="462.9995">: int64</text><text fill="#FFE797" font-family="sans-serif" font-size="11" font-weight="bold" lengthAdjust="spacing" textLength="115" x="51.5" y="485.8042">healthy_threshold</text><text fill="#FFE797" font-family="sans-serif" font-size="11" lengthAdjust="spacing" textLength="36" x="166.5" y="485.8042">: int64</text><text fill="#FFE797" font-family="sans-serif" font-size="11" font-weight="bold" lengthAdjust="spacing" textLength="131" x="51.5" y="508.6089">unhealthy_threshold</text><text fill="#FFE797" font-family="sans-serif" font-size="11" lengthAdjust="spacing" textLength="36" x="182.5" y="508.6089">: int64</text><text fill="#FFE797" font-family="sans-serif" font-size="11" font-weight="bold" lengthAdjust="spacing" textLength="49" x="51.5" y="531.4136">timeout</text><text fill="#FFE797" font-family="sans-serif" font-size="11" lengthAdjust="spacing" textLength="36" x="100.5" y="531.4136">: int64</text><text fill="#FFE797" font-family="sans-serif" font-size="11" font-weight="bold" lengthAdjust="spacing" textLength="118" x="51.5" y="554.2183">health_check_type</text><text fill="#FFE797" font-family="sans-serif" font-size="11" lengthAdjust="spacing" textLength="41" x="169.5" y="554.2183">: string</text><!--MD5=[1a47e2d1ed8f333a6c6e3448ef35f6f1]
reverse link gcp_resource to gcp_http_health_check--><path codeLine="45" d="M330.87,550.97 C319.21,592.76 304.19,646.56 292.98,686.74 " fill="none" id="gcp_resource-backto-gcp_http_health_check" style="stroke:#FFAF37;stroke-width:2.0;"/><polygon fill="none" points="324.18,548.91,336.29,531.53,337.66,552.68,324.18,548.91" style="stroke:#FFAF37;stroke-width:2.0;"/><!--MD5=[696dad61de5bf5cafed99788192eb495]
reverse link health_check to gcp_http_health_check--><path codeLine="46" d="M188.95,584.01 C208.04,618.71 228.88,656.58 245.5,686.76 " fill="none" id="health_check-backto-gcp_http_health_check" style="stroke:#FFAF37;stroke-width:2.0;"/><polygon fill="none" points="182.66,587.12,179.15,566.22,194.93,580.36,182.66,587.12" style="stroke:#FFAF37;stroke-width:2.0;"/><!--MD5=[01c4ccc954d718a219d26dc2c846da6a]
reverse link resource to health_check--><path codeLine="47" d="M135,303.79 C135,338.49 135,373.82 135,403.9 " fill="none" id="resource-backto-health_check" style="stroke:#FFAF37;stroke-width:2.0;"/><polygon fill="none" points="128,303.48,135,283.48,142,303.48,128,303.48" style="stroke:#FFAF37;stroke-width:2.0;"/><!--MD5=[f30f25cd83b54a4b7922c3e6cd44f84a]
@startuml
hide empty members
skinparam ArrowColor #ffaf37
skinparam ArrowThickness 2
skinparam BackgroundColor transparent
skinparam ClassAttributeFontColor #ffe797
skinparam ClassBackgroundColor #194875
skinparam ClassBorderColor Black
skinparam ClassFontColor #ffe797
skinparam ClassFontName Helvetica
skinparam ClassFontSize 17
skinparam Padding 5
skinparam RoundCorner 5
skinparam Shadowing false
skinparam stereotypeCBackgroundColor #1a83af
skinparam stereotypeIBackgroundColor #1a83af

class resource {
**id**: string
**tags**: dictionary[string, string]
**name**: string
**ctime**: datetime
**age**: trafo.duration_to_datetime
**mtime**: datetime
**last_update**: trafo.duration_to_datetime
**atime**: datetime
**last_access**: trafo.duration_to_datetime
**kind**: string
}
class gcp_resource {
**link**: string
**label_fingerprint**: string
}
class gcp_http_health_check {
**host**: string
**request_path**: string
**port**: int64
}
class health_check {
**check_interval**: int64
**healthy_threshold**: int64
**unhealthy_threshold**: int64
**timeout**: int64
**health_check_type**: string
}
gcp_resource <|- - - gcp_http_health_check
health_check <|- - - gcp_http_health_check
resource <|- - - health_check
@enduml

PlantUML version 1.2021.16(Wed Dec 08 17:25:22 UTC 2021)
(GPL source distribution)
Java Runtime: OpenJDK Runtime Environment
JVM: OpenJDK 64-Bit Server VM
Default Encoding: UTF-8
Language: en
Country: null
--></g></svg>