<?xml version="1.0" encoding="UTF-8" standalone="no"?><svg xmlns="http://www.w3.org/2000/svg" xmlns:xlink="http://www.w3.org/1999/xlink" contentScriptType="application/ecmascript" contentStyleType="text/css" height="625px" preserveAspectRatio="none" style="width:404px;height:625px;background:#00000000;" version="1.1" viewBox="0 0 404 625" width="404px" zoomAndPan="magnify"><defs><filter height="300%" id="f14wo82pilwz36" width="300%" x="-1" y="-1"><feGaussianBlur result="blurOut" stdDeviation="2.0"/><feColorMatrix in="blurOut" result="blurOut2" type="matrix" values="0 0 0 0 0 0 0 0 0 0 0 0 0 0 0 0 0 0 .4 0"/><feOffset dx="4.0" dy="4.0" in="blurOut2" result="blurOut3"/><feBlend in="SourceGraphic" in2="blurOut3" mode="normal"/></filter></defs><g><!--MD5=[7f0ecf5f554433d3f2e1213379ac821c]
class resource--><rect codeLine="2" fill="#FEFECE" filter="url(#f14wo82pilwz36)" height="176.0469" id="resource" style="stroke:#A80036;stroke-width:1.5;" width="252" x="7" y="7"/><ellipse cx="100.75" cy="23" fill="#ADD1B2" rx="11" ry="11" style="stroke:#A80036;stroke-width:1.0;"/><path d="M103.7188,28.6406 Q103.1406,28.9375 102.5,29.0781 Q101.8594,29.2344 101.1563,29.2344 Q98.6563,29.2344 97.3281,27.5938 Q96.0156,25.9375 96.0156,22.8125 Q96.0156,19.6875 97.3281,18.0313 Q98.6563,16.375 101.1563,16.375 Q101.8594,16.375 102.5,16.5313 Q103.1563,16.6875 103.7188,16.9844 L103.7188,19.7031 Q103.0938,19.125 102.5,18.8594 Q101.9063,18.5781 101.2813,18.5781 Q99.9375,18.5781 99.25,19.6563 Q98.5625,20.7188 98.5625,22.8125 Q98.5625,24.9063 99.25,25.9844 Q99.9375,27.0469 101.2813,27.0469 Q101.9063,27.0469 102.5,26.7813 Q103.0938,26.5 103.7188,25.9219 L103.7188,28.6406 Z " fill="#000000"/><text fill="#000000" font-family="sans-serif" font-size="12" lengthAdjust="spacing" textLength="56" x="121.25" y="27.1543">resource</text><line style="stroke:#A80036;stroke-width:1.5;" x1="8" x2="258" y1="39" y2="39"/><ellipse cx="18" cy="50" rx="3" ry="3" style="stroke:#038048;stroke-width:1.0;fill:none;"/><text fill="#000000" font-family="sans-serif" font-size="11" lengthAdjust="spacing" textLength="51" x="27" y="53.2104">id: string</text><ellipse cx="18" cy="62.8047" rx="3" ry="3" style="stroke:#038048;stroke-width:1.0;fill:none;"/><text fill="#000000" font-family="sans-serif" font-size="11" lengthAdjust="spacing" textLength="170" x="27" y="66.0151">tags: dictionary[string, string]</text><ellipse cx="18" cy="75.6094" rx="3" ry="3" style="stroke:#038048;stroke-width:1.0;fill:none;"/><text fill="#000000" font-family="sans-serif" font-size="11" lengthAdjust="spacing" textLength="73" x="27" y="78.8198">name: string</text><ellipse cx="18" cy="88.4141" rx="3" ry="3" style="stroke:#038048;stroke-width:1.0;fill:none;"/><text fill="#000000" font-family="sans-serif" font-size="11" lengthAdjust="spacing" textLength="89" x="27" y="91.6245">ctime: datetime</text><ellipse cx="18" cy="101.2188" rx="3" ry="3" style="stroke:#038048;stroke-width:1.0;fill:none;"/><text fill="#000000" font-family="sans-serif" font-size="11" lengthAdjust="spacing" textLength="180" x="27" y="104.4292">age: trafo.duration_to_datetime</text><ellipse cx="18" cy="114.0234" rx="3" ry="3" style="stroke:#038048;stroke-width:1.0;fill:none;"/><text fill="#000000" font-family="sans-serif" font-size="11" lengthAdjust="spacing" textLength="94" x="27" y="117.2339">mtime: datetime</text><ellipse cx="18" cy="126.8281" rx="3" ry="3" style="stroke:#038048;stroke-width:1.0;fill:none;"/><text fill="#000000" font-family="sans-serif" font-size="11" lengthAdjust="spacing" textLength="225" x="27" y="130.0386">last_update: trafo.duration_to_datetime</text><ellipse cx="18" cy="139.6328" rx="3" ry="3" style="stroke:#038048;stroke-width:1.0;fill:none;"/><text fill="#000000" font-family="sans-serif" font-size="11" lengthAdjust="spacing" textLength="90" x="27" y="142.8433">atime: datetime</text><ellipse cx="18" cy="152.4375" rx="3" ry="3" style="stroke:#038048;stroke-width:1.0;fill:none;"/><text fill="#000000" font-family="sans-serif" font-size="11" lengthAdjust="spacing" textLength="226" x="27" y="155.6479">last_access: trafo.duration_to_datetime</text><ellipse cx="18" cy="165.2422" rx="3" ry="3" style="stroke:#038048;stroke-width:1.0;fill:none;"/><text fill="#000000" font-family="sans-serif" font-size="11" lengthAdjust="spacing" textLength="64" x="27" y="168.4526">kind: string</text><line style="stroke:#A80036;stroke-width:1.5;" x1="8" x2="258" y1="175.0469" y2="175.0469"/><!--MD5=[f80c7a7392575a24cb3ff69d552c02ac]
class certificate--><rect codeLine="14" fill="#FEFECE" filter="url(#f14wo82pilwz36)" height="60.8047" id="certificate" style="stroke:#A80036;stroke-width:1.5;" width="126" x="70" y="310.5"/><ellipse cx="98.95" cy="326.5" fill="#ADD1B2" rx="11" ry="11" style="stroke:#A80036;stroke-width:1.0;"/><path d="M101.9188,332.1406 Q101.3406,332.4375 100.7,332.5781 Q100.0594,332.7344 99.3563,332.7344 Q96.8563,332.7344 95.5281,331.0938 Q94.2156,329.4375 94.2156,326.3125 Q94.2156,323.1875 95.5281,321.5313 Q96.8563,319.875 99.3563,319.875 Q100.0594,319.875 100.7,320.0313 Q101.3563,320.1875 101.9188,320.4844 L101.9188,323.2031 Q101.2938,322.625 100.7,322.3594 Q100.1063,322.0781 99.4813,322.0781 Q98.1375,322.0781 97.45,323.1563 Q96.7625,324.2188 96.7625,326.3125 Q96.7625,328.4063 97.45,329.4844 Q98.1375,330.5469 99.4813,330.5469 Q100.1063,330.5469 100.7,330.2813 Q101.2938,330 101.9188,329.4219 L101.9188,332.1406 Z " fill="#000000"/><text fill="#000000" font-family="sans-serif" font-size="12" lengthAdjust="spacing" textLength="63" x="116.05" y="330.6543">certificate</text><line style="stroke:#A80036;stroke-width:1.5;" x1="71" x2="195" y1="342.5" y2="342.5"/><ellipse cx="81" cy="353.5" rx="3" ry="3" style="stroke:#038048;stroke-width:1.0;fill:none;"/><text fill="#000000" font-family="sans-serif" font-size="11" lengthAdjust="spacing" textLength="100" x="90" y="356.7104">expires: datetime</text><line style="stroke:#A80036;stroke-width:1.5;" x1="71" x2="195" y1="363.3047" y2="363.3047"/><!--MD5=[96a667c91f46910544c8a4dd691a5f67]
class gcp_resource--><rect codeLine="17" fill="#FEFECE" filter="url(#f14wo82pilwz36)" height="73.6094" id="gcp_resource" style="stroke:#A80036;stroke-width:1.5;" width="159" x="231.5" y="304"/><ellipse cx="265.4" cy="320" fill="#ADD1B2" rx="11" ry="11" style="stroke:#A80036;stroke-width:1.0;"/><path d="M268.3688,325.6406 Q267.7906,325.9375 267.15,326.0781 Q266.5094,326.2344 265.8063,326.2344 Q263.3063,326.2344 261.9781,324.5938 Q260.6656,322.9375 260.6656,319.8125 Q260.6656,316.6875 261.9781,315.0313 Q263.3063,313.375 265.8063,313.375 Q266.5094,313.375 267.15,313.5313 Q267.8063,313.6875 268.3688,313.9844 L268.3688,316.7031 Q267.7438,316.125 267.15,315.8594 Q266.5563,315.5781 265.9313,315.5781 Q264.5875,315.5781 263.9,316.6563 Q263.2125,317.7188 263.2125,319.8125 Q263.2125,321.9063 263.9,322.9844 Q264.5875,324.0469 265.9313,324.0469 Q266.5563,324.0469 267.15,323.7813 Q267.7438,323.5 268.3688,322.9219 L268.3688,325.6406 Z " fill="#000000"/><text fill="#000000" font-family="sans-serif" font-size="12" lengthAdjust="spacing" textLength="85" x="283.6" y="324.1543">gcp_resource</text><line style="stroke:#A80036;stroke-width:1.5;" x1="232.5" x2="389.5" y1="336" y2="336"/><ellipse cx="242.5" cy="347" rx="3" ry="3" style="stroke:#038048;stroke-width:1.0;fill:none;"/><text fill="#000000" font-family="sans-serif" font-size="11" lengthAdjust="spacing" textLength="60" x="251.5" y="350.2104">link: string</text><ellipse cx="242.5" cy="359.8047" rx="3" ry="3" style="stroke:#038048;stroke-width:1.0;fill:none;"/><text fill="#000000" font-family="sans-serif" font-size="11" lengthAdjust="spacing" textLength="133" x="251.5" y="363.0151">label_fingerprint: string</text><line style="stroke:#A80036;stroke-width:1.5;" x1="232.5" x2="389.5" y1="369.6094" y2="369.6094"/><!--MD5=[422996f95ba4170b567a74482f56b89b]
class gcp_ssl_certificate--><rect codeLine="21" fill="#FEFECE" filter="url(#f14wo82pilwz36)" height="112.0234" id="gcp_ssl_certificate" style="stroke:#A80036;stroke-width:1.5;" width="260" x="92" y="499"/><ellipse cx="160.25" cy="515" fill="#ADD1B2" rx="11" ry="11" style="stroke:#A80036;stroke-width:1.0;"/><path d="M163.2188,520.6406 Q162.6406,520.9375 162,521.0781 Q161.3594,521.2344 160.6563,521.2344 Q158.1563,521.2344 156.8281,519.5938 Q155.5156,517.9375 155.5156,514.8125 Q155.5156,511.6875 156.8281,510.0313 Q158.1563,508.375 160.6563,508.375 Q161.3594,508.375 162,508.5313 Q162.6563,508.6875 163.2188,508.9844 L163.2188,511.7031 Q162.5938,511.125 162,510.8594 Q161.4063,510.5781 160.7813,510.5781 Q159.4375,510.5781 158.75,511.6563 Q158.0625,512.7188 158.0625,514.8125 Q158.0625,516.9063 158.75,517.9844 Q159.4375,519.0469 160.7813,519.0469 Q161.4063,519.0469 162,518.7813 Q162.5938,518.5 163.2188,517.9219 L163.2188,520.6406 Z " fill="#000000"/><text fill="#000000" font-family="sans-serif" font-size="12" lengthAdjust="spacing" textLength="115" x="180.75" y="519.1543">gcp_ssl_certificate</text><line style="stroke:#A80036;stroke-width:1.5;" x1="93" x2="351" y1="531" y2="531"/><ellipse cx="103" cy="542" rx="3" ry="3" style="stroke:#038048;stroke-width:1.0;fill:none;"/><text fill="#000000" font-family="sans-serif" font-size="11" lengthAdjust="spacing" textLength="104" x="112" y="545.2104">description: string</text><ellipse cx="103" cy="554.8047" rx="3" ry="3" style="stroke:#038048;stroke-width:1.0;fill:none;"/><text fill="#000000" font-family="sans-serif" font-size="11" lengthAdjust="spacing" textLength="97" x="112" y="558.0151">certificate: string</text><ellipse cx="103" cy="567.6094" rx="3" ry="3" style="stroke:#038048;stroke-width:1.0;fill:none;"/><text fill="#000000" font-family="sans-serif" font-size="11" lengthAdjust="spacing" textLength="127" x="112" y="570.8198">certificate_type: string</text><ellipse cx="103" cy="580.4141" rx="3" ry="3" style="stroke:#038048;stroke-width:1.0;fill:none;"/><text fill="#000000" font-family="sans-serif" font-size="11" lengthAdjust="spacing" textLength="234" x="112" y="583.6245">certificate_managed: dictionary[any, any]</text><ellipse cx="103" cy="593.2188" rx="3" ry="3" style="stroke:#038048;stroke-width:1.0;fill:none;"/><text fill="#000000" font-family="sans-serif" font-size="11" lengthAdjust="spacing" textLength="201" x="112" y="596.4292">subject_alternative_names: string[]</text><line style="stroke:#A80036;stroke-width:1.5;" x1="93" x2="351" y1="603.0234" y2="603.0234"/><!--MD5=[8c19e7a10388630f27bb1807a737e0fc]
reverse link resource to certificate--><path codeLine="28" d="M133,203.22 C133,242.32 133,283.46 133,310.29 " fill="none" id="resource-backto-certificate" style="stroke:#A80036;stroke-width:1.0;"/><polygon fill="none" points="126,203.06,133,183.06,140,203.06,126,203.06" style="stroke:#A80036;stroke-width:1.0;"/><!--MD5=[8b545347c32d4d66bbc6a37e0ce89d30]
reverse link gcp_resource to gcp_ssl_certificate--><path codeLine="29" d="M287.79,397.28 C274.64,428.6 258.25,467.66 245.11,498.95 " fill="none" id="gcp_resource-backto-gcp_ssl_certificate" style="stroke:#A80036;stroke-width:1.0;"/><polygon fill="none" points="281.5,394.18,295.7,378.44,294.41,399.59,281.5,394.18" style="stroke:#A80036;stroke-width:1.0;"/><!--MD5=[7b38d936c874aafa9808519decaed60c]
reverse link certificate to gcp_ssl_certificate--><path codeLine="30" d="M153.37,390.53 C166.92,422.8 184.75,465.26 198.83,498.82 " fill="none" id="certificate-backto-gcp_ssl_certificate" style="stroke:#A80036;stroke-width:1.0;"/><polygon fill="none" points="146.85,393.08,145.56,371.92,159.76,387.66,146.85,393.08" style="stroke:#A80036;stroke-width:1.0;"/><!--MD5=[ed0b69b5b2d741c8692c8546da5ffebd]
@startuml
skinparam backgroundcolor transparent
class resource {
+ id: string
+ tags: dictionary[string, string]
+ name: string
+ ctime: datetime
+ age: trafo.duration_to_datetime
+ mtime: datetime
+ last_update: trafo.duration_to_datetime
+ atime: datetime
+ last_access: trafo.duration_to_datetime
+ kind: string
}
class certificate {
+ expires: datetime
}
class gcp_resource {
+ link: string
+ label_fingerprint: string
}
class gcp_ssl_certificate {
+ description: string
+ certificate: string
+ certificate_type: string
+ certificate_managed: dictionary[any, any]
+ subject_alternative_names: string[]
}
resource <|- - - certificate
gcp_resource <|- - - gcp_ssl_certificate
certificate <|- - - gcp_ssl_certificate
@enduml

PlantUML version 1.2021.16(Wed Dec 08 17:25:22 UTC 2021)
(GPL source distribution)
Java Runtime: OpenJDK Runtime Environment
JVM: OpenJDK 64-Bit Server VM
Default Encoding: UTF-8
Language: en
Country: null
--></g></svg>