<?xml version="1.0" encoding="UTF-8" standalone="no"?><svg xmlns="http://www.w3.org/2000/svg" xmlns:xlink="http://www.w3.org/1999/xlink" contentScriptType="application/ecmascript" contentStyleType="text/css" height="504px" preserveAspectRatio="none" style="width:474px;height:504px;background:#00000000;" version="1.1" viewBox="0 0 474 504" width="474px" zoomAndPan="magnify"><defs/><g><!--MD5=[7f0ecf5f554433d3f2e1213379ac821c]
class resource--><rect codeLine="17" fill="#194875" height="275.8359" id="resource" rx="2.5" ry="2.5" style="stroke:#000000;stroke-width:1.5;" width="256" x="7" y="7"/><ellipse cx="90.25" cy="26.8945" fill="#1A83AF" rx="11" ry="11" style="stroke:#000000;stroke-width:1.0;"/><path d="M93.2188,32.5352 Q92.6406,32.832 92,32.9727 Q91.3594,33.1289 90.6563,33.1289 Q88.1563,33.1289 86.8281,31.4883 Q85.5156,29.832 85.5156,26.707 Q85.5156,23.582 86.8281,21.9258 Q88.1563,20.2695 90.6563,20.2695 Q91.3594,20.2695 92,20.4258 Q92.6563,20.582 93.2188,20.8789 L93.2188,23.5977 Q92.5938,23.0195 92,22.7539 Q91.4063,22.4727 90.7813,22.4727 Q89.4375,22.4727 88.75,23.5508 Q88.0625,24.6133 88.0625,26.707 Q88.0625,28.8008 88.75,29.8789 Q89.4375,30.9414 90.7813,30.9414 Q91.4063,30.9414 92,30.6758 Q92.5938,30.3945 93.2188,29.8164 L93.2188,32.5352 Z " fill="#000000"/><text fill="#FFE797" font-family="Helvetica" font-size="17" lengthAdjust="spacing" textLength="71" x="115.75" y="32.7798">resource</text><line style="stroke:#000000;stroke-width:1.5;" x1="8" x2="262" y1="46.7891" y2="46.7891"/><text fill="#FFE797" font-family="sans-serif" font-size="11" font-weight="bold" lengthAdjust="spacing" textLength="12" x="18" y="65.9995">id</text><text fill="#FFE797" font-family="sans-serif" font-size="11" lengthAdjust="spacing" textLength="41" x="30" y="65.9995">: string</text><text fill="#FFE797" font-family="sans-serif" font-size="11" font-weight="bold" lengthAdjust="spacing" textLength="28" x="18" y="88.8042">tags</text><text fill="#FFE797" font-family="sans-serif" font-size="11" lengthAdjust="spacing" textLength="145" x="46" y="88.8042">: dictionary[string, string]</text><text fill="#FFE797" font-family="sans-serif" font-size="11" font-weight="bold" lengthAdjust="spacing" textLength="35" x="18" y="111.6089">name</text><text fill="#FFE797" font-family="sans-serif" font-size="11" lengthAdjust="spacing" textLength="41" x="53" y="111.6089">: string</text><text fill="#FFE797" font-family="sans-serif" font-size="11" font-weight="bold" lengthAdjust="spacing" textLength="35" x="18" y="134.4136">ctime</text><text fill="#FFE797" font-family="sans-serif" font-size="11" lengthAdjust="spacing" textLength="58" x="53" y="134.4136">: datetime</text><text fill="#FFE797" font-family="sans-serif" font-size="11" font-weight="bold" lengthAdjust="spacing" textLength="24" x="18" y="157.2183">age</text><text fill="#FFE797" font-family="sans-serif" font-size="11" lengthAdjust="spacing" textLength="159" x="42" y="157.2183">: trafo.duration_to_datetime</text><text fill="#FFE797" font-family="sans-serif" font-size="11" font-weight="bold" lengthAdjust="spacing" textLength="39" x="18" y="180.0229">mtime</text><text fill="#FFE797" font-family="sans-serif" font-size="11" lengthAdjust="spacing" textLength="58" x="57" y="180.0229">: datetime</text><text fill="#FFE797" font-family="sans-serif" font-size="11" font-weight="bold" lengthAdjust="spacing" textLength="75" x="18" y="202.8276">last_update</text><text fill="#FFE797" font-family="sans-serif" font-size="11" lengthAdjust="spacing" textLength="159" x="93" y="202.8276">: trafo.duration_to_datetime</text><text fill="#FFE797" font-family="sans-serif" font-size="11" font-weight="bold" lengthAdjust="spacing" textLength="36" x="18" y="225.6323">atime</text><text fill="#FFE797" font-family="sans-serif" font-size="11" lengthAdjust="spacing" textLength="58" x="54" y="225.6323">: datetime</text><text fill="#FFE797" font-family="sans-serif" font-size="11" font-weight="bold" lengthAdjust="spacing" textLength="74" x="18" y="248.437">last_access</text><text fill="#FFE797" font-family="sans-serif" font-size="11" lengthAdjust="spacing" textLength="159" x="92" y="248.437">: trafo.duration_to_datetime</text><text fill="#FFE797" font-family="sans-serif" font-size="11" font-weight="bold" lengthAdjust="spacing" textLength="27" x="18" y="271.2417">kind</text><text fill="#FFE797" font-family="sans-serif" font-size="11" lengthAdjust="spacing" textLength="41" x="45" y="271.2417">: string</text><!--MD5=[96a667c91f46910544c8a4dd691a5f67]
class gcp_resource--><rect codeLine="29" fill="#194875" height="93.3984" id="gcp_resource" rx="2.5" ry="2.5" style="stroke:#000000;stroke-width:1.5;" width="169" x="298.5" y="98.5"/><ellipse cx="322.05" cy="118.3945" fill="#1A83AF" rx="11" ry="11" style="stroke:#000000;stroke-width:1.0;"/><path d="M325.0188,124.0352 Q324.4406,124.332 323.8,124.4727 Q323.1594,124.6289 322.4563,124.6289 Q319.9563,124.6289 318.6281,122.9883 Q317.3156,121.332 317.3156,118.207 Q317.3156,115.082 318.6281,113.4258 Q319.9563,111.7695 322.4563,111.7695 Q323.1594,111.7695 323.8,111.9258 Q324.4563,112.082 325.0188,112.3789 L325.0188,115.0977 Q324.3938,114.5195 323.8,114.2539 Q323.2063,113.9727 322.5813,113.9727 Q321.2375,113.9727 320.55,115.0508 Q319.8625,116.1133 319.8625,118.207 Q319.8625,120.3008 320.55,121.3789 Q321.2375,122.4414 322.5813,122.4414 Q323.2063,122.4414 323.8,122.1758 Q324.3938,121.8945 325.0188,121.3164 L325.0188,124.0352 Z " fill="#000000"/><text fill="#FFE797" font-family="Helvetica" font-size="17" lengthAdjust="spacing" textLength="108" x="342.95" y="124.2798">gcp_resource</text><line style="stroke:#000000;stroke-width:1.5;" x1="299.5" x2="466.5" y1="138.2891" y2="138.2891"/><text fill="#FFE797" font-family="sans-serif" font-size="11" font-weight="bold" lengthAdjust="spacing" textLength="23" x="309.5" y="157.4995">link</text><text fill="#FFE797" font-family="sans-serif" font-size="11" lengthAdjust="spacing" textLength="41" x="332.5" y="157.4995">: string</text><text fill="#FFE797" font-family="sans-serif" font-size="11" font-weight="bold" lengthAdjust="spacing" textLength="106" x="309.5" y="180.3042">label_fingerprint</text><text fill="#FFE797" font-family="sans-serif" font-size="11" lengthAdjust="spacing" textLength="41" x="415.5" y="180.3042">: string</text><!--MD5=[9fa093f73fffc39f0381be8f54903057]
class gcp_network_endpoint_group--><rect codeLine="33" fill="#194875" height="93.3984" id="gcp_network_endpoint_group" rx="2.5" ry="2.5" style="stroke:#000000;stroke-width:1.5;" width="289" x="114.5" y="404"/><ellipse cx="129.5" cy="423.8945" fill="#1A83AF" rx="11" ry="11" style="stroke:#000000;stroke-width:1.0;"/><path d="M132.4688,429.5352 Q131.8906,429.832 131.25,429.9727 Q130.6094,430.1289 129.9063,430.1289 Q127.4063,430.1289 126.0781,428.4883 Q124.7656,426.832 124.7656,423.707 Q124.7656,420.582 126.0781,418.9258 Q127.4063,417.2695 129.9063,417.2695 Q130.6094,417.2695 131.25,417.4258 Q131.9063,417.582 132.4688,417.8789 L132.4688,420.5977 Q131.8438,420.0195 131.25,419.7539 Q130.6563,419.4727 130.0313,419.4727 Q128.6875,419.4727 128,420.5508 Q127.3125,421.6133 127.3125,423.707 Q127.3125,425.8008 128,426.8789 Q128.6875,427.9414 130.0313,427.9414 Q130.6563,427.9414 131.25,427.6758 Q131.8438,427.3945 132.4688,426.8164 L132.4688,429.5352 Z " fill="#000000"/><text fill="#FFE797" font-family="Helvetica" font-size="17" lengthAdjust="spacing" textLength="247" x="148.5" y="429.7798">gcp_network_endpoint_group</text><line style="stroke:#000000;stroke-width:1.5;" x1="115.5" x2="402.5" y1="443.7891" y2="443.7891"/><text fill="#FFE797" font-family="sans-serif" font-size="11" font-weight="bold" lengthAdjust="spacing" textLength="78" x="125.5" y="462.9995">default_port</text><text fill="#FFE797" font-family="sans-serif" font-size="11" lengthAdjust="spacing" textLength="36" x="203.5" y="462.9995">: int64</text><text fill="#FFE797" font-family="sans-serif" font-size="11" font-weight="bold" lengthAdjust="spacing" textLength="58" x="125.5" y="485.8042">neg_type</text><text fill="#FFE797" font-family="sans-serif" font-size="11" lengthAdjust="spacing" textLength="41" x="183.5" y="485.8042">: string</text><!--MD5=[ba27c9cb1bf6a71b595b765f96590918]
reverse link gcp_resource to gcp_network_endpoint_group--><path codeLine="37" d="M356.69,210.38 C332.97,268.46 298.66,352.43 277.65,403.86 " fill="none" id="gcp_resource-backto-gcp_network_endpoint_group" style="stroke:#FFAF37;stroke-width:2.0;"/><polygon fill="none" points="350.26,207.63,364.3,191.77,363.22,212.93,350.26,207.63" style="stroke:#FFAF37;stroke-width:2.0;"/><!--MD5=[2bc39e865b4e18e52006c9852b4bebd6]
reverse link resource to gcp_network_endpoint_group--><path codeLine="38" d="M198.61,301.7 C213.86,339.02 228.98,376.02 240.27,403.66 " fill="none" id="resource-backto-gcp_network_endpoint_group" style="stroke:#FFAF37;stroke-width:2.0;"/><polygon fill="none" points="192.1,304.26,191.01,283.1,205.06,298.97,192.1,304.26" style="stroke:#FFAF37;stroke-width:2.0;"/><!--MD5=[1d2339966da0884f0edbc6a06279d389]
@startuml
hide empty members
skinparam ArrowColor #ffaf37
skinparam ArrowThickness 2
skinparam BackgroundColor transparent
skinparam ClassAttributeFontColor #ffe797
skinparam ClassBackgroundColor #194875
skinparam ClassBorderColor Black
skinparam ClassFontColor #ffe797
skinparam ClassFontName Helvetica
skinparam ClassFontSize 17
skinparam Padding 5
skinparam RoundCorner 5
skinparam Shadowing false
skinparam stereotypeCBackgroundColor #1a83af
skinparam stereotypeIBackgroundColor #1a83af

class resource {
**id**: string
**tags**: dictionary[string, string]
**name**: string
**ctime**: datetime
**age**: trafo.duration_to_datetime
**mtime**: datetime
**last_update**: trafo.duration_to_datetime
**atime**: datetime
**last_access**: trafo.duration_to_datetime
**kind**: string
}
class gcp_resource {
**link**: string
**label_fingerprint**: string
}
class gcp_network_endpoint_group {
**default_port**: int64
**neg_type**: string
}
gcp_resource <|- - - gcp_network_endpoint_group
resource <|- - - gcp_network_endpoint_group
@enduml

PlantUML version 1.2021.16(Wed Dec 08 17:25:22 UTC 2021)
(GPL source distribution)
Java Runtime: OpenJDK Runtime Environment
JVM: OpenJDK 64-Bit Server VM
Default Encoding: UTF-8
Language: en
Country: null
--></g></svg>