<?xml version="1.0" encoding="UTF-8" standalone="no"?><svg xmlns="http://www.w3.org/2000/svg" xmlns:xlink="http://www.w3.org/1999/xlink" contentScriptType="application/ecmascript" contentStyleType="text/css" height="468px" preserveAspectRatio="none" style="width:467px;height:468px;background:#00000000;" version="1.1" viewBox="0 0 467 468" width="467px" zoomAndPan="magnify"><defs><filter height="300%" id="f1i624x584ncn1" width="300%" x="-1" y="-1"><feGaussianBlur result="blurOut" stdDeviation="2.0"/><feColorMatrix in="blurOut" result="blurOut2" type="matrix" values="0 0 0 0 0 0 0 0 0 0 0 0 0 0 0 0 0 0 .4 0"/><feOffset dx="4.0" dy="4.0" in="blurOut2" result="blurOut3"/><feBlend in="SourceGraphic" in2="blurOut3" mode="normal"/></filter></defs><g><!--MD5=[7f0ecf5f554433d3f2e1213379ac821c]
class resource--><rect codeLine="2" fill="#FEFECE" filter="url(#f1i624x584ncn1)" height="176.0469" id="resource" style="stroke:#A80036;stroke-width:1.5;" width="252" x="7" y="7"/><ellipse cx="100.75" cy="23" fill="#ADD1B2" rx="11" ry="11" style="stroke:#A80036;stroke-width:1.0;"/><path d="M103.7188,28.6406 Q103.1406,28.9375 102.5,29.0781 Q101.8594,29.2344 101.1563,29.2344 Q98.6563,29.2344 97.3281,27.5938 Q96.0156,25.9375 96.0156,22.8125 Q96.0156,19.6875 97.3281,18.0313 Q98.6563,16.375 101.1563,16.375 Q101.8594,16.375 102.5,16.5313 Q103.1563,16.6875 103.7188,16.9844 L103.7188,19.7031 Q103.0938,19.125 102.5,18.8594 Q101.9063,18.5781 101.2813,18.5781 Q99.9375,18.5781 99.25,19.6563 Q98.5625,20.7188 98.5625,22.8125 Q98.5625,24.9063 99.25,25.9844 Q99.9375,27.0469 101.2813,27.0469 Q101.9063,27.0469 102.5,26.7813 Q103.0938,26.5 103.7188,25.9219 L103.7188,28.6406 Z " fill="#000000"/><text fill="#000000" font-family="sans-serif" font-size="12" lengthAdjust="spacing" textLength="56" x="121.25" y="27.1543">resource</text><line style="stroke:#A80036;stroke-width:1.5;" x1="8" x2="258" y1="39" y2="39"/><ellipse cx="18" cy="50" rx="3" ry="3" style="stroke:#038048;stroke-width:1.0;fill:none;"/><text fill="#000000" font-family="sans-serif" font-size="11" lengthAdjust="spacing" textLength="51" x="27" y="53.2104">id: string</text><ellipse cx="18" cy="62.8047" rx="3" ry="3" style="stroke:#038048;stroke-width:1.0;fill:none;"/><text fill="#000000" font-family="sans-serif" font-size="11" lengthAdjust="spacing" textLength="170" x="27" y="66.0151">tags: dictionary[string, string]</text><ellipse cx="18" cy="75.6094" rx="3" ry="3" style="stroke:#038048;stroke-width:1.0;fill:none;"/><text fill="#000000" font-family="sans-serif" font-size="11" lengthAdjust="spacing" textLength="73" x="27" y="78.8198">name: string</text><ellipse cx="18" cy="88.4141" rx="3" ry="3" style="stroke:#038048;stroke-width:1.0;fill:none;"/><text fill="#000000" font-family="sans-serif" font-size="11" lengthAdjust="spacing" textLength="89" x="27" y="91.6245">ctime: datetime</text><ellipse cx="18" cy="101.2188" rx="3" ry="3" style="stroke:#038048;stroke-width:1.0;fill:none;"/><text fill="#000000" font-family="sans-serif" font-size="11" lengthAdjust="spacing" textLength="180" x="27" y="104.4292">age: trafo.duration_to_datetime</text><ellipse cx="18" cy="114.0234" rx="3" ry="3" style="stroke:#038048;stroke-width:1.0;fill:none;"/><text fill="#000000" font-family="sans-serif" font-size="11" lengthAdjust="spacing" textLength="94" x="27" y="117.2339">mtime: datetime</text><ellipse cx="18" cy="126.8281" rx="3" ry="3" style="stroke:#038048;stroke-width:1.0;fill:none;"/><text fill="#000000" font-family="sans-serif" font-size="11" lengthAdjust="spacing" textLength="225" x="27" y="130.0386">last_update: trafo.duration_to_datetime</text><ellipse cx="18" cy="139.6328" rx="3" ry="3" style="stroke:#038048;stroke-width:1.0;fill:none;"/><text fill="#000000" font-family="sans-serif" font-size="11" lengthAdjust="spacing" textLength="90" x="27" y="142.8433">atime: datetime</text><ellipse cx="18" cy="152.4375" rx="3" ry="3" style="stroke:#038048;stroke-width:1.0;fill:none;"/><text fill="#000000" font-family="sans-serif" font-size="11" lengthAdjust="spacing" textLength="226" x="27" y="155.6479">last_access: trafo.duration_to_datetime</text><ellipse cx="18" cy="165.2422" rx="3" ry="3" style="stroke:#038048;stroke-width:1.0;fill:none;"/><text fill="#000000" font-family="sans-serif" font-size="11" lengthAdjust="spacing" textLength="64" x="27" y="168.4526">kind: string</text><line style="stroke:#A80036;stroke-width:1.5;" x1="8" x2="258" y1="175.0469" y2="175.0469"/><!--MD5=[96a667c91f46910544c8a4dd691a5f67]
class gcp_resource--><rect codeLine="14" fill="#FEFECE" filter="url(#f1i624x584ncn1)" height="73.6094" id="gcp_resource" style="stroke:#A80036;stroke-width:1.5;" width="159" x="294.5" y="58"/><ellipse cx="328.4" cy="74" fill="#ADD1B2" rx="11" ry="11" style="stroke:#A80036;stroke-width:1.0;"/><path d="M331.3688,79.6406 Q330.7906,79.9375 330.15,80.0781 Q329.5094,80.2344 328.8063,80.2344 Q326.3063,80.2344 324.9781,78.5938 Q323.6656,76.9375 323.6656,73.8125 Q323.6656,70.6875 324.9781,69.0313 Q326.3063,67.375 328.8063,67.375 Q329.5094,67.375 330.15,67.5313 Q330.8063,67.6875 331.3688,67.9844 L331.3688,70.7031 Q330.7438,70.125 330.15,69.8594 Q329.5563,69.5781 328.9313,69.5781 Q327.5875,69.5781 326.9,70.6563 Q326.2125,71.7188 326.2125,73.8125 Q326.2125,75.9063 326.9,76.9844 Q327.5875,78.0469 328.9313,78.0469 Q329.5563,78.0469 330.15,77.7813 Q330.7438,77.5 331.3688,76.9219 L331.3688,79.6406 Z " fill="#000000"/><text fill="#000000" font-family="sans-serif" font-size="12" lengthAdjust="spacing" textLength="85" x="346.6" y="78.1543">gcp_resource</text><line style="stroke:#A80036;stroke-width:1.5;" x1="295.5" x2="452.5" y1="90" y2="90"/><ellipse cx="305.5" cy="101" rx="3" ry="3" style="stroke:#038048;stroke-width:1.0;fill:none;"/><text fill="#000000" font-family="sans-serif" font-size="11" lengthAdjust="spacing" textLength="60" x="314.5" y="104.2104">link: string</text><ellipse cx="305.5" cy="113.8047" rx="3" ry="3" style="stroke:#038048;stroke-width:1.0;fill:none;"/><text fill="#000000" font-family="sans-serif" font-size="11" lengthAdjust="spacing" textLength="133" x="314.5" y="117.0151">label_fingerprint: string</text><line style="stroke:#A80036;stroke-width:1.5;" x1="295.5" x2="452.5" y1="123.6094" y2="123.6094"/><!--MD5=[dba760a9a6356c9c8a45080ad902208e]
class gcp_service_sku--><rect codeLine="18" fill="#FEFECE" filter="url(#f1i624x584ncn1)" height="150.4375" id="gcp_service_sku" style="stroke:#A80036;stroke-width:1.5;" width="199" x="153.5" y="304"/><ellipse cx="198.25" cy="320" fill="#ADD1B2" rx="11" ry="11" style="stroke:#A80036;stroke-width:1.0;"/><path d="M201.2188,325.6406 Q200.6406,325.9375 200,326.0781 Q199.3594,326.2344 198.6563,326.2344 Q196.1563,326.2344 194.8281,324.5938 Q193.5156,322.9375 193.5156,319.8125 Q193.5156,316.6875 194.8281,315.0313 Q196.1563,313.375 198.6563,313.375 Q199.3594,313.375 200,313.5313 Q200.6563,313.6875 201.2188,313.9844 L201.2188,316.7031 Q200.5938,316.125 200,315.8594 Q199.4063,315.5781 198.7813,315.5781 Q197.4375,315.5781 196.75,316.6563 Q196.0625,317.7188 196.0625,319.8125 Q196.0625,321.9063 196.75,322.9844 Q197.4375,324.0469 198.7813,324.0469 Q199.4063,324.0469 200,323.7813 Q200.5938,323.5 201.2188,322.9219 L201.2188,325.6406 Z " fill="#000000"/><text fill="#000000" font-family="sans-serif" font-size="12" lengthAdjust="spacing" textLength="101" x="218.75" y="324.1543">gcp_service_sku</text><line style="stroke:#A80036;stroke-width:1.5;" x1="154.5" x2="351.5" y1="336" y2="336"/><ellipse cx="164.5" cy="347" rx="3" ry="3" style="stroke:#038048;stroke-width:1.0;fill:none;"/><text fill="#000000" font-family="sans-serif" font-size="11" lengthAdjust="spacing" textLength="82" x="173.5" y="350.2104">service: string</text><ellipse cx="164.5" cy="359.8047" rx="3" ry="3" style="stroke:#038048;stroke-width:1.0;fill:none;"/><text fill="#000000" font-family="sans-serif" font-size="11" lengthAdjust="spacing" textLength="132" x="173.5" y="363.0151">resource_family: string</text><ellipse cx="164.5" cy="372.6094" rx="3" ry="3" style="stroke:#038048;stroke-width:1.0;fill:none;"/><text fill="#000000" font-family="sans-serif" font-size="11" lengthAdjust="spacing" textLength="131" x="173.5" y="375.8198">resource_group: string</text><ellipse cx="164.5" cy="385.4141" rx="3" ry="3" style="stroke:#038048;stroke-width:1.0;fill:none;"/><text fill="#000000" font-family="sans-serif" font-size="11" lengthAdjust="spacing" textLength="106" x="173.5" y="388.6245">usage_type: string</text><ellipse cx="164.5" cy="398.2188" rx="3" ry="3" style="stroke:#038048;stroke-width:1.0;fill:none;"/><text fill="#000000" font-family="sans-serif" font-size="11" lengthAdjust="spacing" textLength="101" x="173.5" y="401.4292">pricing_info: any[]</text><ellipse cx="164.5" cy="411.0234" rx="3" ry="3" style="stroke:#038048;stroke-width:1.0;fill:none;"/><text fill="#000000" font-family="sans-serif" font-size="11" lengthAdjust="spacing" textLength="173" x="173.5" y="414.2339">service_provider_name: string</text><ellipse cx="164.5" cy="423.8281" rx="3" ry="3" style="stroke:#038048;stroke-width:1.0;fill:none;"/><text fill="#000000" font-family="sans-serif" font-size="11" lengthAdjust="spacing" textLength="153" x="173.5" y="427.0386">geo_taxonomy_type: string</text><ellipse cx="164.5" cy="436.6328" rx="3" ry="3" style="stroke:#038048;stroke-width:1.0;fill:none;"/><text fill="#000000" font-family="sans-serif" font-size="11" lengthAdjust="spacing" textLength="167" x="173.5" y="439.8433">geo_taxonomy_regions: any[]</text><line style="stroke:#A80036;stroke-width:1.5;" x1="154.5" x2="351.5" y1="446.4375" y2="446.4375"/><!--MD5=[b80f93b07a099d25a1d07e6f65b23890]
reverse link gcp_resource to gcp_service_sku--><path codeLine="28" d="M350.54,150.68 C331.82,194.31 305.4,255.88 284.78,303.93 " fill="none" id="gcp_resource-backto-gcp_service_sku" style="stroke:#A80036;stroke-width:1.0;"/><polygon fill="none" points="344.23,147.62,358.55,132,357.1,153.14,344.23,147.62" style="stroke:#A80036;stroke-width:1.0;"/><!--MD5=[84f008d6d495358afa1549d19aa2536e]
reverse link resource to gcp_service_sku--><path codeLine="29" d="M178.03,201.83 C192.5,235.82 208.2,272.73 221.48,303.94 " fill="none" id="resource-backto-gcp_service_sku" style="stroke:#A80036;stroke-width:1.0;"/><polygon fill="none" points="171.54,204.44,170.15,183.3,184.42,198.96,171.54,204.44" style="stroke:#A80036;stroke-width:1.0;"/><!--MD5=[00ed012df9abf8f79ede0f0ebaae4a91]
@startuml
skinparam backgroundcolor transparent
class resource {
+ id: string
+ tags: dictionary[string, string]
+ name: string
+ ctime: datetime
+ age: trafo.duration_to_datetime
+ mtime: datetime
+ last_update: trafo.duration_to_datetime
+ atime: datetime
+ last_access: trafo.duration_to_datetime
+ kind: string
}
class gcp_resource {
+ link: string
+ label_fingerprint: string
}
class gcp_service_sku {
+ service: string
+ resource_family: string
+ resource_group: string
+ usage_type: string
+ pricing_info: any[]
+ service_provider_name: string
+ geo_taxonomy_type: string
+ geo_taxonomy_regions: any[]
}
gcp_resource <|- - - gcp_service_sku
resource <|- - - gcp_service_sku
@enduml

PlantUML version 1.2021.16(Wed Dec 08 17:25:22 UTC 2021)
(GPL source distribution)
Java Runtime: OpenJDK Runtime Environment
JVM: OpenJDK 64-Bit Server VM
Default Encoding: UTF-8
Language: en
Country: null
--></g></svg>