<?xml version="1.0" encoding="UTF-8" standalone="no"?><svg xmlns="http://www.w3.org/2000/svg" xmlns:xlink="http://www.w3.org/1999/xlink" contentScriptType="application/ecmascript" contentStyleType="text/css" height="561px" preserveAspectRatio="none" style="width:383px;height:561px;background:#00000000;" version="1.1" viewBox="0 0 383 561" width="383px" zoomAndPan="magnify"><defs><filter height="300%" id="f8s3gonmcl81k" width="300%" x="-1" y="-1"><feGaussianBlur result="blurOut" stdDeviation="2.0"/><feColorMatrix in="blurOut" result="blurOut2" type="matrix" values="0 0 0 0 0 0 0 0 0 0 0 0 0 0 0 0 0 0 .4 0"/><feOffset dx="4.0" dy="4.0" in="blurOut2" result="blurOut3"/><feBlend in="SourceGraphic" in2="blurOut3" mode="normal"/></filter></defs><g><!--MD5=[7f0ecf5f554433d3f2e1213379ac821c]
class resource--><rect codeLine="2" fill="#FEFECE" filter="url(#f8s3gonmcl81k)" height="176.0469" id="resource" style="stroke:#A80036;stroke-width:1.5;" width="252" x="7" y="7"/><ellipse cx="100.75" cy="23" fill="#ADD1B2" rx="11" ry="11" style="stroke:#A80036;stroke-width:1.0;"/><path d="M103.7188,28.6406 Q103.1406,28.9375 102.5,29.0781 Q101.8594,29.2344 101.1563,29.2344 Q98.6563,29.2344 97.3281,27.5938 Q96.0156,25.9375 96.0156,22.8125 Q96.0156,19.6875 97.3281,18.0313 Q98.6563,16.375 101.1563,16.375 Q101.8594,16.375 102.5,16.5313 Q103.1563,16.6875 103.7188,16.9844 L103.7188,19.7031 Q103.0938,19.125 102.5,18.8594 Q101.9063,18.5781 101.2813,18.5781 Q99.9375,18.5781 99.25,19.6563 Q98.5625,20.7188 98.5625,22.8125 Q98.5625,24.9063 99.25,25.9844 Q99.9375,27.0469 101.2813,27.0469 Q101.9063,27.0469 102.5,26.7813 Q103.0938,26.5 103.7188,25.9219 L103.7188,28.6406 Z " fill="#000000"/><text fill="#000000" font-family="sans-serif" font-size="12" lengthAdjust="spacing" textLength="56" x="121.25" y="27.1543">resource</text><line style="stroke:#A80036;stroke-width:1.5;" x1="8" x2="258" y1="39" y2="39"/><ellipse cx="18" cy="50" rx="3" ry="3" style="stroke:#038048;stroke-width:1.0;fill:none;"/><text fill="#000000" font-family="sans-serif" font-size="11" lengthAdjust="spacing" textLength="51" x="27" y="53.2104">id: string</text><ellipse cx="18" cy="62.8047" rx="3" ry="3" style="stroke:#038048;stroke-width:1.0;fill:none;"/><text fill="#000000" font-family="sans-serif" font-size="11" lengthAdjust="spacing" textLength="170" x="27" y="66.0151">tags: dictionary[string, string]</text><ellipse cx="18" cy="75.6094" rx="3" ry="3" style="stroke:#038048;stroke-width:1.0;fill:none;"/><text fill="#000000" font-family="sans-serif" font-size="11" lengthAdjust="spacing" textLength="73" x="27" y="78.8198">name: string</text><ellipse cx="18" cy="88.4141" rx="3" ry="3" style="stroke:#038048;stroke-width:1.0;fill:none;"/><text fill="#000000" font-family="sans-serif" font-size="11" lengthAdjust="spacing" textLength="89" x="27" y="91.6245">ctime: datetime</text><ellipse cx="18" cy="101.2188" rx="3" ry="3" style="stroke:#038048;stroke-width:1.0;fill:none;"/><text fill="#000000" font-family="sans-serif" font-size="11" lengthAdjust="spacing" textLength="180" x="27" y="104.4292">age: trafo.duration_to_datetime</text><ellipse cx="18" cy="114.0234" rx="3" ry="3" style="stroke:#038048;stroke-width:1.0;fill:none;"/><text fill="#000000" font-family="sans-serif" font-size="11" lengthAdjust="spacing" textLength="94" x="27" y="117.2339">mtime: datetime</text><ellipse cx="18" cy="126.8281" rx="3" ry="3" style="stroke:#038048;stroke-width:1.0;fill:none;"/><text fill="#000000" font-family="sans-serif" font-size="11" lengthAdjust="spacing" textLength="225" x="27" y="130.0386">last_update: trafo.duration_to_datetime</text><ellipse cx="18" cy="139.6328" rx="3" ry="3" style="stroke:#038048;stroke-width:1.0;fill:none;"/><text fill="#000000" font-family="sans-serif" font-size="11" lengthAdjust="spacing" textLength="90" x="27" y="142.8433">atime: datetime</text><ellipse cx="18" cy="152.4375" rx="3" ry="3" style="stroke:#038048;stroke-width:1.0;fill:none;"/><text fill="#000000" font-family="sans-serif" font-size="11" lengthAdjust="spacing" textLength="226" x="27" y="155.6479">last_access: trafo.duration_to_datetime</text><ellipse cx="18" cy="165.2422" rx="3" ry="3" style="stroke:#038048;stroke-width:1.0;fill:none;"/><text fill="#000000" font-family="sans-serif" font-size="11" lengthAdjust="spacing" textLength="64" x="27" y="168.4526">kind: string</text><line style="stroke:#A80036;stroke-width:1.5;" x1="8" x2="258" y1="175.0469" y2="175.0469"/><!--MD5=[96a667c91f46910544c8a4dd691a5f67]
class gcp_resource--><rect codeLine="14" fill="#FEFECE" filter="url(#f8s3gonmcl81k)" height="73.6094" id="gcp_resource" style="stroke:#A80036;stroke-width:1.5;" width="159" x="210.5" y="304"/><ellipse cx="244.4" cy="320" fill="#ADD1B2" rx="11" ry="11" style="stroke:#A80036;stroke-width:1.0;"/><path d="M247.3688,325.6406 Q246.7906,325.9375 246.15,326.0781 Q245.5094,326.2344 244.8063,326.2344 Q242.3063,326.2344 240.9781,324.5938 Q239.6656,322.9375 239.6656,319.8125 Q239.6656,316.6875 240.9781,315.0313 Q242.3063,313.375 244.8063,313.375 Q245.5094,313.375 246.15,313.5313 Q246.8063,313.6875 247.3688,313.9844 L247.3688,316.7031 Q246.7438,316.125 246.15,315.8594 Q245.5563,315.5781 244.9313,315.5781 Q243.5875,315.5781 242.9,316.6563 Q242.2125,317.7188 242.2125,319.8125 Q242.2125,321.9063 242.9,322.9844 Q243.5875,324.0469 244.9313,324.0469 Q245.5563,324.0469 246.15,323.7813 Q246.7438,323.5 247.3688,322.9219 L247.3688,325.6406 Z " fill="#000000"/><text fill="#000000" font-family="sans-serif" font-size="12" lengthAdjust="spacing" textLength="85" x="262.6" y="324.1543">gcp_resource</text><line style="stroke:#A80036;stroke-width:1.5;" x1="211.5" x2="368.5" y1="336" y2="336"/><ellipse cx="221.5" cy="347" rx="3" ry="3" style="stroke:#038048;stroke-width:1.0;fill:none;"/><text fill="#000000" font-family="sans-serif" font-size="11" lengthAdjust="spacing" textLength="60" x="230.5" y="350.2104">link: string</text><ellipse cx="221.5" cy="359.8047" rx="3" ry="3" style="stroke:#038048;stroke-width:1.0;fill:none;"/><text fill="#000000" font-family="sans-serif" font-size="11" lengthAdjust="spacing" textLength="133" x="230.5" y="363.0151">label_fingerprint: string</text><line style="stroke:#A80036;stroke-width:1.5;" x1="211.5" x2="368.5" y1="369.6094" y2="369.6094"/><!--MD5=[eff632cd13c78728b9ed697c2a1b75de]
class gcp_vpn_gateway--><rect codeLine="18" fill="#FEFECE" filter="url(#f8s3gonmcl81k)" height="48" id="gcp_vpn_gateway" style="stroke:#A80036;stroke-width:1.5;" width="141" x="140.5" y="499"/><ellipse cx="155.5" cy="515" fill="#ADD1B2" rx="11" ry="11" style="stroke:#A80036;stroke-width:1.0;"/><path d="M158.4688,520.6406 Q157.8906,520.9375 157.25,521.0781 Q156.6094,521.2344 155.9063,521.2344 Q153.4063,521.2344 152.0781,519.5938 Q150.7656,517.9375 150.7656,514.8125 Q150.7656,511.6875 152.0781,510.0313 Q153.4063,508.375 155.9063,508.375 Q156.6094,508.375 157.25,508.5313 Q157.9063,508.6875 158.4688,508.9844 L158.4688,511.7031 Q157.8438,511.125 157.25,510.8594 Q156.6563,510.5781 156.0313,510.5781 Q154.6875,510.5781 154,511.6563 Q153.3125,512.7188 153.3125,514.8125 Q153.3125,516.9063 154,517.9844 Q154.6875,519.0469 156.0313,519.0469 Q156.6563,519.0469 157.25,518.7813 Q157.8438,518.5 158.4688,517.9219 L158.4688,520.6406 Z " fill="#000000"/><text fill="#000000" font-family="sans-serif" font-size="12" lengthAdjust="spacing" textLength="109" x="169.5" y="519.1543">gcp_vpn_gateway</text><line style="stroke:#A80036;stroke-width:1.5;" x1="141.5" x2="280.5" y1="531" y2="531"/><line style="stroke:#A80036;stroke-width:1.5;" x1="141.5" x2="280.5" y1="539" y2="539"/><!--MD5=[ac3459bb810f61169c23e72ed3fa4a86]
class gateway--><rect codeLine="21" fill="#FEFECE" filter="url(#f8s3gonmcl81k)" height="48" id="gateway" style="stroke:#A80036;stroke-width:1.5;" width="84" x="91" y="317"/><ellipse cx="106" cy="333" fill="#ADD1B2" rx="11" ry="11" style="stroke:#A80036;stroke-width:1.0;"/><path d="M108.9688,338.6406 Q108.3906,338.9375 107.75,339.0781 Q107.1094,339.2344 106.4063,339.2344 Q103.9063,339.2344 102.5781,337.5938 Q101.2656,335.9375 101.2656,332.8125 Q101.2656,329.6875 102.5781,328.0313 Q103.9063,326.375 106.4063,326.375 Q107.1094,326.375 107.75,326.5313 Q108.4063,326.6875 108.9688,326.9844 L108.9688,329.7031 Q108.3438,329.125 107.75,328.8594 Q107.1563,328.5781 106.5313,328.5781 Q105.1875,328.5781 104.5,329.6563 Q103.8125,330.7188 103.8125,332.8125 Q103.8125,334.9063 104.5,335.9844 Q105.1875,337.0469 106.5313,337.0469 Q107.1563,337.0469 107.75,336.7813 Q108.3438,336.5 108.9688,335.9219 L108.9688,338.6406 Z " fill="#000000"/><text fill="#000000" font-family="sans-serif" font-size="12" lengthAdjust="spacing" textLength="52" x="120" y="337.1543">gateway</text><line style="stroke:#A80036;stroke-width:1.5;" x1="92" x2="174" y1="349" y2="349"/><line style="stroke:#A80036;stroke-width:1.5;" x1="92" x2="174" y1="357" y2="357"/><!--MD5=[0790e2661a00eabb377efec3d4ba4118]
reverse link gcp_resource to gcp_vpn_gateway--><path codeLine="24" d="M265.9,396.91 C250.92,431.04 232.44,473.16 221.19,498.77 " fill="none" id="gcp_resource-backto-gcp_vpn_gateway" style="stroke:#A80036;stroke-width:1.0;"/><polygon fill="none" points="259.57,393.93,274.01,378.43,272.39,399.55,259.57,393.93" style="stroke:#A80036;stroke-width:1.0;"/><!--MD5=[a2b8cb542d372ef1f89101f7e3d493bb]
reverse link gateway to gcp_vpn_gateway--><path codeLine="25" d="M151.02,383.59 C166.56,419.44 188.41,469.87 201,498.93 " fill="none" id="gateway-backto-gcp_vpn_gateway" style="stroke:#A80036;stroke-width:1.0;"/><polygon fill="none" points="144.57,386.3,143.04,365.16,157.41,380.73,144.57,386.3" style="stroke:#A80036;stroke-width:1.0;"/><!--MD5=[7a6ca6b323d3c1a06faf4f592dace119]
reverse link resource to gateway--><path codeLine="26" d="M133,203.29 C133,245.75 133,290.63 133,316.93 " fill="none" id="resource-backto-gateway" style="stroke:#A80036;stroke-width:1.0;"/><polygon fill="none" points="126,203.06,133,183.06,140,203.06,126,203.06" style="stroke:#A80036;stroke-width:1.0;"/><!--MD5=[180aaecb0dc39fb42e5425961c923e46]
@startuml
skinparam backgroundcolor transparent
class resource {
+ id: string
+ tags: dictionary[string, string]
+ name: string
+ ctime: datetime
+ age: trafo.duration_to_datetime
+ mtime: datetime
+ last_update: trafo.duration_to_datetime
+ atime: datetime
+ last_access: trafo.duration_to_datetime
+ kind: string
}
class gcp_resource {
+ link: string
+ label_fingerprint: string
}
class gcp_vpn_gateway {

}
class gateway {

}
gcp_resource <|- - - gcp_vpn_gateway
gateway <|- - - gcp_vpn_gateway
resource <|- - - gateway
@enduml

PlantUML version 1.2021.16(Wed Dec 08 17:25:22 UTC 2021)
(GPL source distribution)
Java Runtime: OpenJDK Runtime Environment
JVM: OpenJDK 64-Bit Server VM
Default Encoding: UTF-8
Language: en
Country: null
--></g></svg>