<?xml version="1.0" encoding="UTF-8" standalone="no"?><svg xmlns="http://www.w3.org/2000/svg" xmlns:xlink="http://www.w3.org/1999/xlink" contentScriptType="application/ecmascript" contentStyleType="text/css" height="1222px" preserveAspectRatio="none" style="width:429px;height:1222px;background:#00000000;" version="1.1" viewBox="0 0 429 1222" width="429px" zoomAndPan="magnify"><defs/><g><!--MD5=[156df1ec125634b672185ad659f2920c]
class phantom_resource--><rect codeLine="17" fill="#194875" height="39.7891" id="phantom_resource" rx="2.5" ry="2.5" style="stroke:#000000;stroke-width:1.5;" width="198" x="195.5" y="404"/><ellipse cx="210.5" cy="423.8945" fill="#1A83AF" rx="11" ry="11" style="stroke:#000000;stroke-width:1.0;"/><path d="M213.4688,429.5352 Q212.8906,429.832 212.25,429.9727 Q211.6094,430.1289 210.9063,430.1289 Q208.4063,430.1289 207.0781,428.4883 Q205.7656,426.832 205.7656,423.707 Q205.7656,420.582 207.0781,418.9258 Q208.4063,417.2695 210.9063,417.2695 Q211.6094,417.2695 212.25,417.4258 Q212.9063,417.582 213.4688,417.8789 L213.4688,420.5977 Q212.8438,420.0195 212.25,419.7539 Q211.6563,419.4727 211.0313,419.4727 Q209.6875,419.4727 209,420.5508 Q208.3125,421.6133 208.3125,423.707 Q208.3125,425.8008 209,426.8789 Q209.6875,427.9414 211.0313,427.9414 Q211.6563,427.9414 212.25,427.6758 Q212.8438,427.3945 213.4688,426.8164 L213.4688,429.5352 Z " fill="#000000"/><text fill="#FFE797" font-family="Helvetica" font-size="17" lengthAdjust="spacing" textLength="156" x="229.5" y="429.7798">phantom_resource</text><!--MD5=[7f0ecf5f554433d3f2e1213379ac821c]
class resource--><rect codeLine="20" fill="#194875" height="275.8359" id="resource" rx="2.5" ry="2.5" style="stroke:#000000;stroke-width:1.5;" width="256" x="166.5" y="7"/><ellipse cx="249.75" cy="26.8945" fill="#1A83AF" rx="11" ry="11" style="stroke:#000000;stroke-width:1.0;"/><path d="M252.7188,32.5352 Q252.1406,32.832 251.5,32.9727 Q250.8594,33.1289 250.1563,33.1289 Q247.6563,33.1289 246.3281,31.4883 Q245.0156,29.832 245.0156,26.707 Q245.0156,23.582 246.3281,21.9258 Q247.6563,20.2695 250.1563,20.2695 Q250.8594,20.2695 251.5,20.4258 Q252.1563,20.582 252.7188,20.8789 L252.7188,23.5977 Q252.0938,23.0195 251.5,22.7539 Q250.9063,22.4727 250.2813,22.4727 Q248.9375,22.4727 248.25,23.5508 Q247.5625,24.6133 247.5625,26.707 Q247.5625,28.8008 248.25,29.8789 Q248.9375,30.9414 250.2813,30.9414 Q250.9063,30.9414 251.5,30.6758 Q252.0938,30.3945 252.7188,29.8164 L252.7188,32.5352 Z " fill="#000000"/><text fill="#FFE797" font-family="Helvetica" font-size="17" lengthAdjust="spacing" textLength="71" x="275.25" y="32.7798">resource</text><line style="stroke:#000000;stroke-width:1.5;" x1="167.5" x2="421.5" y1="46.7891" y2="46.7891"/><text fill="#FFE797" font-family="sans-serif" font-size="11" font-weight="bold" lengthAdjust="spacing" textLength="12" x="177.5" y="65.9995">id</text><text fill="#FFE797" font-family="sans-serif" font-size="11" lengthAdjust="spacing" textLength="41" x="189.5" y="65.9995">: string</text><text fill="#FFE797" font-family="sans-serif" font-size="11" font-weight="bold" lengthAdjust="spacing" textLength="28" x="177.5" y="88.8042">tags</text><text fill="#FFE797" font-family="sans-serif" font-size="11" lengthAdjust="spacing" textLength="145" x="205.5" y="88.8042">: dictionary[string, string]</text><text fill="#FFE797" font-family="sans-serif" font-size="11" font-weight="bold" lengthAdjust="spacing" textLength="35" x="177.5" y="111.6089">name</text><text fill="#FFE797" font-family="sans-serif" font-size="11" lengthAdjust="spacing" textLength="41" x="212.5" y="111.6089">: string</text><text fill="#FFE797" font-family="sans-serif" font-size="11" font-weight="bold" lengthAdjust="spacing" textLength="35" x="177.5" y="134.4136">ctime</text><text fill="#FFE797" font-family="sans-serif" font-size="11" lengthAdjust="spacing" textLength="58" x="212.5" y="134.4136">: datetime</text><text fill="#FFE797" font-family="sans-serif" font-size="11" font-weight="bold" lengthAdjust="spacing" textLength="24" x="177.5" y="157.2183">age</text><text fill="#FFE797" font-family="sans-serif" font-size="11" lengthAdjust="spacing" textLength="159" x="201.5" y="157.2183">: trafo.duration_to_datetime</text><text fill="#FFE797" font-family="sans-serif" font-size="11" font-weight="bold" lengthAdjust="spacing" textLength="39" x="177.5" y="180.0229">mtime</text><text fill="#FFE797" font-family="sans-serif" font-size="11" lengthAdjust="spacing" textLength="58" x="216.5" y="180.0229">: datetime</text><text fill="#FFE797" font-family="sans-serif" font-size="11" font-weight="bold" lengthAdjust="spacing" textLength="75" x="177.5" y="202.8276">last_update</text><text fill="#FFE797" font-family="sans-serif" font-size="11" lengthAdjust="spacing" textLength="159" x="252.5" y="202.8276">: trafo.duration_to_datetime</text><text fill="#FFE797" font-family="sans-serif" font-size="11" font-weight="bold" lengthAdjust="spacing" textLength="36" x="177.5" y="225.6323">atime</text><text fill="#FFE797" font-family="sans-serif" font-size="11" lengthAdjust="spacing" textLength="58" x="213.5" y="225.6323">: datetime</text><text fill="#FFE797" font-family="sans-serif" font-size="11" font-weight="bold" lengthAdjust="spacing" textLength="74" x="177.5" y="248.437">last_access</text><text fill="#FFE797" font-family="sans-serif" font-size="11" lengthAdjust="spacing" textLength="159" x="251.5" y="248.437">: trafo.duration_to_datetime</text><text fill="#FFE797" font-family="sans-serif" font-size="11" font-weight="bold" lengthAdjust="spacing" textLength="27" x="177.5" y="271.2417">kind</text><text fill="#FFE797" font-family="sans-serif" font-size="11" lengthAdjust="spacing" textLength="41" x="204.5" y="271.2417">: string</text><!--MD5=[96a667c91f46910544c8a4dd691a5f67]
class gcp_resource--><rect codeLine="32" fill="#194875" height="93.3984" id="gcp_resource" rx="2.5" ry="2.5" style="stroke:#000000;stroke-width:1.5;" width="169" x="7" y="963"/><ellipse cx="30.55" cy="982.8945" fill="#1A83AF" rx="11" ry="11" style="stroke:#000000;stroke-width:1.0;"/><path d="M33.5188,988.5352 Q32.9406,988.832 32.3,988.9727 Q31.6594,989.1289 30.9563,989.1289 Q28.4563,989.1289 27.1281,987.4883 Q25.8156,985.832 25.8156,982.707 Q25.8156,979.582 27.1281,977.9258 Q28.4563,976.2695 30.9563,976.2695 Q31.6594,976.2695 32.3,976.4258 Q32.9563,976.582 33.5188,976.8789 L33.5188,979.5977 Q32.8938,979.0195 32.3,978.7539 Q31.7063,978.4727 31.0813,978.4727 Q29.7375,978.4727 29.05,979.5508 Q28.3625,980.6133 28.3625,982.707 Q28.3625,984.8008 29.05,985.8789 Q29.7375,986.9414 31.0813,986.9414 Q31.7063,986.9414 32.3,986.6758 Q32.8938,986.3945 33.5188,985.8164 L33.5188,988.5352 Z " fill="#000000"/><text fill="#FFE797" font-family="Helvetica" font-size="17" lengthAdjust="spacing" textLength="108" x="51.45" y="988.7798">gcp_resource</text><line style="stroke:#000000;stroke-width:1.5;" x1="8" x2="175" y1="1002.7891" y2="1002.7891"/><text fill="#FFE797" font-family="sans-serif" font-size="11" font-weight="bold" lengthAdjust="spacing" textLength="23" x="18" y="1021.9995">link</text><text fill="#FFE797" font-family="sans-serif" font-size="11" lengthAdjust="spacing" textLength="41" x="41" y="1021.9995">: string</text><text fill="#FFE797" font-family="sans-serif" font-size="11" font-weight="bold" lengthAdjust="spacing" textLength="106" x="18" y="1044.8042">label_fingerprint</text><text fill="#FFE797" font-family="sans-serif" font-size="11" lengthAdjust="spacing" textLength="41" x="124" y="1044.8042">: string</text><!--MD5=[857a356b9e77f83de603e0318f36b735]
class type--><rect codeLine="36" fill="#194875" height="39.7891" id="type" rx="2.5" ry="2.5" style="stroke:#000000;stroke-width:1.5;" width="79" x="255" y="802"/><ellipse cx="270" cy="821.8945" fill="#1A83AF" rx="11" ry="11" style="stroke:#000000;stroke-width:1.0;"/><path d="M272.9688,827.5352 Q272.3906,827.832 271.75,827.9727 Q271.1094,828.1289 270.4063,828.1289 Q267.9063,828.1289 266.5781,826.4883 Q265.2656,824.832 265.2656,821.707 Q265.2656,818.582 266.5781,816.9258 Q267.9063,815.2695 270.4063,815.2695 Q271.1094,815.2695 271.75,815.4258 Q272.4063,815.582 272.9688,815.8789 L272.9688,818.5977 Q272.3438,818.0195 271.75,817.7539 Q271.1563,817.4727 270.5313,817.4727 Q269.1875,817.4727 268.5,818.5508 Q267.8125,819.6133 267.8125,821.707 Q267.8125,823.8008 268.5,824.8789 Q269.1875,825.9414 270.5313,825.9414 Q271.1563,825.9414 271.75,825.6758 Q272.3438,825.3945 272.9688,824.8164 L272.9688,827.5352 Z " fill="#000000"/><text fill="#FFE797" font-family="Helvetica" font-size="17" lengthAdjust="spacing" textLength="37" x="289" y="827.7798">type</text><!--MD5=[205bc3e74ea7d385e2b6aa1bb29a5024]
class quota--><rect codeLine="39" fill="#194875" height="116.2031" id="quota" rx="2.5" ry="2.5" style="stroke:#000000;stroke-width:1.5;" width="134" x="227.5" y="565"/><ellipse cx="262.3" cy="584.8945" fill="#1A83AF" rx="11" ry="11" style="stroke:#000000;stroke-width:1.0;"/><path d="M265.2688,590.5352 Q264.6906,590.832 264.05,590.9727 Q263.4094,591.1289 262.7063,591.1289 Q260.2063,591.1289 258.8781,589.4883 Q257.5656,587.832 257.5656,584.707 Q257.5656,581.582 258.8781,579.9258 Q260.2063,578.2695 262.7063,578.2695 Q263.4094,578.2695 264.05,578.4258 Q264.7063,578.582 265.2688,578.8789 L265.2688,581.5977 Q264.6438,581.0195 264.05,580.7539 Q263.4563,580.4727 262.8313,580.4727 Q261.4875,580.4727 260.8,581.5508 Q260.1125,582.6133 260.1125,584.707 Q260.1125,586.8008 260.8,587.8789 Q261.4875,588.9414 262.8313,588.9414 Q263.4563,588.9414 264.05,588.6758 Q264.6438,588.3945 265.2688,587.8164 L265.2688,590.5352 Z " fill="#000000"/><text fill="#FFE797" font-family="Helvetica" font-size="17" lengthAdjust="spacing" textLength="48" x="285.7" y="590.7798">quota</text><line style="stroke:#000000;stroke-width:1.5;" x1="228.5" x2="360.5" y1="604.7891" y2="604.7891"/><text fill="#FFE797" font-family="sans-serif" font-size="11" font-weight="bold" lengthAdjust="spacing" textLength="37" x="238.5" y="623.9995">quota</text><text fill="#FFE797" font-family="sans-serif" font-size="11" lengthAdjust="spacing" textLength="46" x="275.5" y="623.9995">: double</text><text fill="#FFE797" font-family="sans-serif" font-size="11" font-weight="bold" lengthAdjust="spacing" textLength="39" x="238.5" y="646.8042">usage</text><text fill="#FFE797" font-family="sans-serif" font-size="11" lengthAdjust="spacing" textLength="46" x="277.5" y="646.8042">: double</text><text fill="#FFE797" font-family="sans-serif" font-size="11" font-weight="bold" lengthAdjust="spacing" textLength="71" x="238.5" y="669.6089">quota_type</text><text fill="#FFE797" font-family="sans-serif" font-size="11" lengthAdjust="spacing" textLength="41" x="309.5" y="669.6089">: string</text><!--MD5=[f2a71d650a44bb0ec9bebee690772a11]
class gcp_disk_type--><rect codeLine="44" fill="#194875" height="39.7891" id="gcp_disk_type" rx="2.5" ry="2.5" style="stroke:#000000;stroke-width:1.5;" width="158" x="47.5" y="1177"/><ellipse cx="62.5" cy="1196.8945" fill="#1A83AF" rx="11" ry="11" style="stroke:#000000;stroke-width:1.0;"/><path d="M65.4688,1202.5352 Q64.8906,1202.832 64.25,1202.9727 Q63.6094,1203.1289 62.9063,1203.1289 Q60.4063,1203.1289 59.0781,1201.4883 Q57.7656,1199.832 57.7656,1196.707 Q57.7656,1193.582 59.0781,1191.9258 Q60.4063,1190.2695 62.9063,1190.2695 Q63.6094,1190.2695 64.25,1190.4258 Q64.9063,1190.582 65.4688,1190.8789 L65.4688,1193.5977 Q64.8438,1193.0195 64.25,1192.7539 Q63.6563,1192.4727 63.0313,1192.4727 Q61.6875,1192.4727 61,1193.5508 Q60.3125,1194.6133 60.3125,1196.707 Q60.3125,1198.8008 61,1199.8789 Q61.6875,1200.9414 63.0313,1200.9414 Q63.6563,1200.9414 64.25,1200.6758 Q64.8438,1200.3945 65.4688,1199.8164 L65.4688,1202.5352 Z " fill="#000000"/><text fill="#FFE797" font-family="Helvetica" font-size="17" lengthAdjust="spacing" textLength="116" x="81.5" y="1202.7798">gcp_disk_type</text><!--MD5=[664939c0fb98180378d6d3f2b00b1a66]
class volume_type--><rect codeLine="47" fill="#194875" height="93.3984" id="volume_type" rx="2.5" ry="2.5" style="stroke:#000000;stroke-width:1.5;" width="168" x="210.5" y="963"/><ellipse cx="233.15" cy="982.8945" fill="#1A83AF" rx="11" ry="11" style="stroke:#000000;stroke-width:1.0;"/><path d="M236.1188,988.5352 Q235.5406,988.832 234.9,988.9727 Q234.2594,989.1289 233.5563,989.1289 Q231.0563,989.1289 229.7281,987.4883 Q228.4156,985.832 228.4156,982.707 Q228.4156,979.582 229.7281,977.9258 Q231.0563,976.2695 233.5563,976.2695 Q234.2594,976.2695 234.9,976.4258 Q235.5563,976.582 236.1188,976.8789 L236.1188,979.5977 Q235.4938,979.0195 234.9,978.7539 Q234.3063,978.4727 233.6813,978.4727 Q232.3375,978.4727 231.65,979.5508 Q230.9625,980.6133 230.9625,982.707 Q230.9625,984.8008 231.65,985.8789 Q232.3375,986.9414 233.6813,986.9414 Q234.3063,986.9414 234.9,986.6758 Q235.4938,986.3945 236.1188,985.8164 L236.1188,988.5352 Z " fill="#000000"/><text fill="#FFE797" font-family="Helvetica" font-size="17" lengthAdjust="spacing" textLength="109" x="253.85" y="988.7798">volume_type</text><line style="stroke:#000000;stroke-width:1.5;" x1="211.5" x2="377.5" y1="1002.7891" y2="1002.7891"/><text fill="#FFE797" font-family="sans-serif" font-size="11" font-weight="bold" lengthAdjust="spacing" textLength="80" x="221.5" y="1021.9995">volume_type</text><text fill="#FFE797" font-family="sans-serif" font-size="11" lengthAdjust="spacing" textLength="41" x="301.5" y="1021.9995">: string</text><text fill="#FFE797" font-family="sans-serif" font-size="11" font-weight="bold" lengthAdjust="spacing" textLength="100" x="221.5" y="1044.8042">ondemand_cost</text><text fill="#FFE797" font-family="sans-serif" font-size="11" lengthAdjust="spacing" textLength="46" x="321.5" y="1044.8042">: double</text><!--MD5=[e134558fd6f7e839ecb28ecbda576c0a]
reverse link resource to phantom_resource--><path codeLine="51" d="M294.5,303.48 C294.5,343.73 294.5,381.81 294.5,403.75 " fill="none" id="resource-backto-phantom_resource" style="stroke:#FFAF37;stroke-width:2.0;"/><polygon fill="none" points="287.5,303.28,294.5,283.28,301.5,303.28,287.5,303.28" style="stroke:#FFAF37;stroke-width:2.0;"/><!--MD5=[63e5c77e033f786e30b084e57dcd0955]
reverse link quota to type--><path codeLine="52" d="M294.5,701.27 C294.5,737.8 294.5,778.42 294.5,801.71 " fill="none" id="quota-backto-type" style="stroke:#FFAF37;stroke-width:2.0;"/><polygon fill="none" points="287.5,701.25,294.5,681.25,301.5,701.25,287.5,701.25" style="stroke:#FFAF37;stroke-width:2.0;"/><!--MD5=[8c556d10106c40540c768b31155cb09d]
reverse link phantom_resource to quota--><path codeLine="53" d="M294.5,464.28 C294.5,493.07 294.5,532.58 294.5,564.86 " fill="none" id="phantom_resource-backto-quota" style="stroke:#FFAF37;stroke-width:2.0;"/><polygon fill="none" points="287.5,464.25,294.5,444.25,301.5,464.25,287.5,464.25" style="stroke:#FFAF37;stroke-width:2.0;"/><!--MD5=[d29954c7c46c00717dff9dee4e719426]
reverse link gcp_resource to gcp_disk_type--><path codeLine="54" d="M103.93,1076.38 C110.61,1111.81 118.38,1152.96 122.84,1176.6 " fill="none" id="gcp_resource-backto-gcp_disk_type" style="stroke:#FFAF37;stroke-width:2.0;"/><polygon fill="none" points="96.98,1077.31,100.15,1056.35,110.74,1074.71,96.98,1077.31" style="stroke:#FFAF37;stroke-width:2.0;"/><!--MD5=[11bcd39f0b3bc981abd7800523d9f931]
reverse link volume_type to gcp_disk_type--><path codeLine="55" d="M239.3,1071.45 C206.27,1107.92 166.48,1151.86 144.07,1176.6 " fill="none" id="volume_type-backto-gcp_disk_type" style="stroke:#FFAF37;stroke-width:2.0;"/><polygon fill="none" points="234.36,1066.48,252.97,1056.35,244.73,1075.88,234.36,1066.48" style="stroke:#FFAF37;stroke-width:2.0;"/><!--MD5=[fef1d57d88716120bb8ab8d4a324733b]
reverse link type to volume_type--><path codeLine="56" d="M294.5,862.16 C294.5,891.56 294.5,931.88 294.5,962.76 " fill="none" id="type-backto-volume_type" style="stroke:#FFAF37;stroke-width:2.0;"/><polygon fill="none" points="287.5,862.15,294.5,842.15,301.5,862.15,287.5,862.15" style="stroke:#FFAF37;stroke-width:2.0;"/><!--MD5=[3f5a3667ca9256d608e0530a6f5cd307]
@startuml
hide empty members
skinparam ArrowColor #ffaf37
skinparam ArrowThickness 2
skinparam BackgroundColor transparent
skinparam ClassAttributeFontColor #ffe797
skinparam ClassBackgroundColor #194875
skinparam ClassBorderColor Black
skinparam ClassFontColor #ffe797
skinparam ClassFontName Helvetica
skinparam ClassFontSize 17
skinparam Padding 5
skinparam RoundCorner 5
skinparam Shadowing false
skinparam stereotypeCBackgroundColor #1a83af
skinparam stereotypeIBackgroundColor #1a83af

class phantom_resource {

}
class resource {
**id**: string
**tags**: dictionary[string, string]
**name**: string
**ctime**: datetime
**age**: trafo.duration_to_datetime
**mtime**: datetime
**last_update**: trafo.duration_to_datetime
**atime**: datetime
**last_access**: trafo.duration_to_datetime
**kind**: string
}
class gcp_resource {
**link**: string
**label_fingerprint**: string
}
class type {

}
class quota {
**quota**: double
**usage**: double
**quota_type**: string
}
class gcp_disk_type {

}
class volume_type {
**volume_type**: string
**ondemand_cost**: double
}
resource <|- - - phantom_resource
quota <|- - - type
phantom_resource <|- - - quota
gcp_resource <|- - - gcp_disk_type
volume_type <|- - - gcp_disk_type
type <|- - - volume_type
@enduml

PlantUML version 1.2021.16(Wed Dec 08 17:25:22 UTC 2021)
(GPL source distribution)
Java Runtime: OpenJDK Runtime Environment
JVM: OpenJDK 64-Bit Server VM
Default Encoding: UTF-8
Language: en
Country: null
--></g></svg>