<svg xmlns="http://www.w3.org/2000/svg" xmlns:xlink="http://www.w3.org/1999/xlink" width="429" height="637" contentScriptType="application/ecmascript" contentStyleType="text/css" style="width:429px;height:637px;background:#00000000" preserveAspectRatio="none" version="1.1" viewBox="0 0 429 637" zoomAndPan="magnify"><defs><filter id="flai6qr81ojua" width="300%" height="300%" x="-1" y="-1"><feGaussianBlur result="blurOut" stdDeviation="2"/><feColorMatrix in="blurOut" result="blurOut2" type="matrix" values="0 0 0 0 0 0 0 0 0 0 0 0 0 0 0 0 0 0 .4 0"/><feOffset dx="4" dy="4" in="blurOut2" result="blurOut3"/><feBlend in="SourceGraphic" in2="blurOut3" mode="normal"/></filter></defs><g><rect id="resource" width="252" height="176.047" x="7" y="7" fill="#FEFECE" codeLine="2" filter="url(#flai6qr81ojua)" style="stroke:#a80036;stroke-width:1.5"/><ellipse cx="100.75" cy="23" fill="#ADD1B2" rx="11" ry="11" style="stroke:#a80036;stroke-width:1"/><path fill="#000" d="M103.7188,28.6406 Q103.1406,28.9375 102.5,29.0781 Q101.8594,29.2344 101.1563,29.2344 Q98.6563,29.2344 97.3281,27.5938 Q96.0156,25.9375 96.0156,22.8125 Q96.0156,19.6875 97.3281,18.0313 Q98.6563,16.375 101.1563,16.375 Q101.8594,16.375 102.5,16.5313 Q103.1563,16.6875 103.7188,16.9844 L103.7188,19.7031 Q103.0938,19.125 102.5,18.8594 Q101.9063,18.5781 101.2813,18.5781 Q99.9375,18.5781 99.25,19.6563 Q98.5625,20.7188 98.5625,22.8125 Q98.5625,24.9063 99.25,25.9844 Q99.9375,27.0469 101.2813,27.0469 Q101.9063,27.0469 102.5,26.7813 Q103.0938,26.5 103.7188,25.9219 L103.7188,28.6406 Z"/><text x="121.25" y="27.154" fill="#000" font-family="sans-serif" font-size="12" lengthAdjust="spacing" textLength="56">resource</text><line style="stroke:#a80036;stroke-width:1.5" x1="8" x2="258" y1="39" y2="39"/><ellipse cx="18" cy="50" rx="3" ry="3" style="stroke:#038048;stroke-width:1;fill:none"/><text x="27" y="53.21" fill="#000" font-family="sans-serif" font-size="11" lengthAdjust="spacing" textLength="51">id: string</text><ellipse cx="18" cy="62.805" rx="3" ry="3" style="stroke:#038048;stroke-width:1;fill:none"/><text x="27" y="66.015" fill="#000" font-family="sans-serif" font-size="11" lengthAdjust="spacing" textLength="170">tags: dictionary[string, string]</text><ellipse cx="18" cy="75.609" rx="3" ry="3" style="stroke:#038048;stroke-width:1;fill:none"/><text x="27" y="78.82" fill="#000" font-family="sans-serif" font-size="11" lengthAdjust="spacing" textLength="73">name: string</text><ellipse cx="18" cy="88.414" rx="3" ry="3" style="stroke:#038048;stroke-width:1;fill:none"/><text x="27" y="91.624" fill="#000" font-family="sans-serif" font-size="11" lengthAdjust="spacing" textLength="89">ctime: datetime</text><ellipse cx="18" cy="101.219" rx="3" ry="3" style="stroke:#038048;stroke-width:1;fill:none"/><text x="27" y="104.429" fill="#000" font-family="sans-serif" font-size="11" lengthAdjust="spacing" textLength="180">age: trafo.duration_to_datetime</text><ellipse cx="18" cy="114.023" rx="3" ry="3" style="stroke:#038048;stroke-width:1;fill:none"/><text x="27" y="117.234" fill="#000" font-family="sans-serif" font-size="11" lengthAdjust="spacing" textLength="94">mtime: datetime</text><ellipse cx="18" cy="126.828" rx="3" ry="3" style="stroke:#038048;stroke-width:1;fill:none"/><text x="27" y="130.039" fill="#000" font-family="sans-serif" font-size="11" lengthAdjust="spacing" textLength="225">last_update: trafo.duration_to_datetime</text><ellipse cx="18" cy="139.633" rx="3" ry="3" style="stroke:#038048;stroke-width:1;fill:none"/><text x="27" y="142.843" fill="#000" font-family="sans-serif" font-size="11" lengthAdjust="spacing" textLength="90">atime: datetime</text><ellipse cx="18" cy="152.438" rx="3" ry="3" style="stroke:#038048;stroke-width:1;fill:none"/><text x="27" y="155.648" fill="#000" font-family="sans-serif" font-size="11" lengthAdjust="spacing" textLength="226">last_access: trafo.duration_to_datetime</text><ellipse cx="18" cy="165.242" rx="3" ry="3" style="stroke:#038048;stroke-width:1;fill:none"/><text x="27" y="168.453" fill="#000" font-family="sans-serif" font-size="11" lengthAdjust="spacing" textLength="64">kind: string</text><line style="stroke:#a80036;stroke-width:1.5" x1="8" x2="258" y1="175.047" y2="175.047"/><rect id="gcp_resource" width="159" height="73.609" x="256.5" y="323" fill="#FEFECE" codeLine="14" filter="url(#flai6qr81ojua)" style="stroke:#a80036;stroke-width:1.5"/><ellipse cx="290.4" cy="339" fill="#ADD1B2" rx="11" ry="11" style="stroke:#a80036;stroke-width:1"/><path fill="#000" d="M293.3688,344.6406 Q292.7906,344.9375 292.15,345.0781 Q291.5094,345.2344 290.8063,345.2344 Q288.3063,345.2344 286.9781,343.5938 Q285.6656,341.9375 285.6656,338.8125 Q285.6656,335.6875 286.9781,334.0313 Q288.3063,332.375 290.8063,332.375 Q291.5094,332.375 292.15,332.5313 Q292.8063,332.6875 293.3688,332.9844 L293.3688,335.7031 Q292.7438,335.125 292.15,334.8594 Q291.5563,334.5781 290.9313,334.5781 Q289.5875,334.5781 288.9,335.6563 Q288.2125,336.7188 288.2125,338.8125 Q288.2125,340.9063 288.9,341.9844 Q289.5875,343.0469 290.9313,343.0469 Q291.5563,343.0469 292.15,342.7813 Q292.7438,342.5 293.3688,341.9219 L293.3688,344.6406 Z"/><text x="308.6" y="343.154" fill="#000" font-family="sans-serif" font-size="12" lengthAdjust="spacing" textLength="85">gcp_resource</text><line style="stroke:#a80036;stroke-width:1.5" x1="257.5" x2="414.5" y1="355" y2="355"/><ellipse cx="267.5" cy="366" rx="3" ry="3" style="stroke:#038048;stroke-width:1;fill:none"/><text x="276.5" y="369.21" fill="#000" font-family="sans-serif" font-size="11" lengthAdjust="spacing" textLength="60">link: string</text><ellipse cx="267.5" cy="378.805" rx="3" ry="3" style="stroke:#038048;stroke-width:1;fill:none"/><text x="276.5" y="382.015" fill="#000" font-family="sans-serif" font-size="11" lengthAdjust="spacing" textLength="133">label_fingerprint: string</text><line style="stroke:#a80036;stroke-width:1.5" x1="257.5" x2="414.5" y1="388.609" y2="388.609"/><rect id="gcp_http_health_check" width="176" height="86.414" x="146" y="537" fill="#FEFECE" codeLine="18" filter="url(#flai6qr81ojua)" style="stroke:#a80036;stroke-width:1.5"/><ellipse cx="161" cy="553" fill="#ADD1B2" rx="11" ry="11" style="stroke:#a80036;stroke-width:1"/><path fill="#000" d="M163.9688,558.6406 Q163.3906,558.9375 162.75,559.0781 Q162.1094,559.2344 161.4063,559.2344 Q158.9063,559.2344 157.5781,557.5938 Q156.2656,555.9375 156.2656,552.8125 Q156.2656,549.6875 157.5781,548.0313 Q158.9063,546.375 161.4063,546.375 Q162.1094,546.375 162.75,546.5313 Q163.4063,546.6875 163.9688,546.9844 L163.9688,549.7031 Q163.3438,549.125 162.75,548.8594 Q162.1563,548.5781 161.5313,548.5781 Q160.1875,548.5781 159.5,549.6563 Q158.8125,550.7188 158.8125,552.8125 Q158.8125,554.9063 159.5,555.9844 Q160.1875,557.0469 161.5313,557.0469 Q162.1563,557.0469 162.75,556.7813 Q163.3438,556.5 163.9688,555.9219 L163.9688,558.6406 Z"/><text x="175" y="557.154" fill="#000" font-family="sans-serif" font-size="12" lengthAdjust="spacing" textLength="144">gcp_http_health_check</text><line style="stroke:#a80036;stroke-width:1.5" x1="147" x2="321" y1="569" y2="569"/><ellipse cx="157" cy="580" rx="3" ry="3" style="stroke:#038048;stroke-width:1;fill:none"/><text x="166" y="583.21" fill="#000" font-family="sans-serif" font-size="11" lengthAdjust="spacing" textLength="66">host: string</text><ellipse cx="157" cy="592.805" rx="3" ry="3" style="stroke:#038048;stroke-width:1;fill:none"/><text x="166" y="596.015" fill="#000" font-family="sans-serif" font-size="11" lengthAdjust="spacing" textLength="116">request_path: string</text><ellipse cx="157" cy="605.609" rx="3" ry="3" style="stroke:#038048;stroke-width:1;fill:none"/><text x="166" y="608.82" fill="#000" font-family="sans-serif" font-size="11" lengthAdjust="spacing" textLength="59">port: int64</text><line style="stroke:#a80036;stroke-width:1.5" x1="147" x2="321" y1="615.414" y2="615.414"/><rect id="health_check" width="177" height="112.023" x="44.5" y="304" fill="#FEFECE" codeLine="23" filter="url(#flai6qr81ojua)" style="stroke:#a80036;stroke-width:1.5"/><ellipse cx="87.4" cy="320" fill="#ADD1B2" rx="11" ry="11" style="stroke:#a80036;stroke-width:1"/><path fill="#000" d="M90.3688,325.6406 Q89.7906,325.9375 89.15,326.0781 Q88.5094,326.2344 87.8063,326.2344 Q85.3063,326.2344 83.9781,324.5938 Q82.6656,322.9375 82.6656,319.8125 Q82.6656,316.6875 83.9781,315.0313 Q85.3063,313.375 87.8063,313.375 Q88.5094,313.375 89.15,313.5313 Q89.8063,313.6875 90.3688,313.9844 L90.3688,316.7031 Q89.7438,316.125 89.15,315.8594 Q88.5563,315.5781 87.9313,315.5781 Q86.5875,315.5781 85.9,316.6563 Q85.2125,317.7188 85.2125,319.8125 Q85.2125,321.9063 85.9,322.9844 Q86.5875,324.0469 87.9313,324.0469 Q88.5563,324.0469 89.15,323.7813 Q89.7438,323.5 90.3688,322.9219 L90.3688,325.6406 Z"/><text x="107.6" y="324.154" fill="#000" font-family="sans-serif" font-size="12" lengthAdjust="spacing" textLength="83">health_check</text><line style="stroke:#a80036;stroke-width:1.5" x1="45.5" x2="220.5" y1="336" y2="336"/><ellipse cx="55.5" cy="347" rx="3" ry="3" style="stroke:#038048;stroke-width:1;fill:none"/><text x="64.5" y="350.21" fill="#000" font-family="sans-serif" font-size="11" lengthAdjust="spacing" textLength="116">check_interval: int64</text><ellipse cx="55.5" cy="359.805" rx="3" ry="3" style="stroke:#038048;stroke-width:1;fill:none"/><text x="64.5" y="363.015" fill="#000" font-family="sans-serif" font-size="11" lengthAdjust="spacing" textLength="137">healthy_threshold: int64</text><ellipse cx="55.5" cy="372.609" rx="3" ry="3" style="stroke:#038048;stroke-width:1;fill:none"/><text x="64.5" y="375.82" fill="#000" font-family="sans-serif" font-size="11" lengthAdjust="spacing" textLength="151">unhealthy_threshold: int64</text><ellipse cx="55.5" cy="385.414" rx="3" ry="3" style="stroke:#038048;stroke-width:1;fill:none"/><text x="64.5" y="388.625" fill="#000" font-family="sans-serif" font-size="11" lengthAdjust="spacing" textLength="79">timeout: int64</text><ellipse cx="55.5" cy="398.219" rx="3" ry="3" style="stroke:#038048;stroke-width:1;fill:none"/><text x="64.5" y="401.429" fill="#000" font-family="sans-serif" font-size="11" lengthAdjust="spacing" textLength="144">health_check_type: string</text><line style="stroke:#a80036;stroke-width:1.5" x1="45.5" x2="220.5" y1="408.023" y2="408.023"/><path id="gcp_resource-backto-gcp_http_health_check" fill="none" d="M310.43,415.66 C292.87,453.19 269.91,502.26 253.75,536.79" codeLine="30" style="stroke:#a80036;stroke-width:1"/><polygon fill="none" points="304.11 412.64 318.93 397.49 316.79 418.57 304.11 412.64" style="stroke:#a80036;stroke-width:1"/><path id="health_check-backto-gcp_http_health_check" fill="none" d="M166.96,434.31 C182.75,468.38 200.96,507.69 214.42,536.73" codeLine="31" style="stroke:#a80036;stroke-width:1"/><polygon fill="none" points="160.54 437.1 158.49 416.01 173.25 431.21 160.54 437.1" style="stroke:#a80036;stroke-width:1"/><path id="resource-backto-health_check" fill="none" d="M133,203.69 C133,238.09 133,274.74 133,303.8" codeLine="32" style="stroke:#a80036;stroke-width:1"/><polygon fill="none" points="126 203.21 133 183.21 140 203.21 126 203.21" style="stroke:#a80036;stroke-width:1"/></g></svg>