<svg xmlns="http://www.w3.org/2000/svg" xmlns:xlink="http://www.w3.org/1999/xlink" width="440" height="969" contentScriptType="application/ecmascript" contentStyleType="text/css" style="width:440px;height:969px;background:#00000000" preserveAspectRatio="none" version="1.1" viewBox="0 0 440 969" zoomAndPan="magnify"><g><rect id="resource" width="256" height="275.836" x="7" y="7" fill="#194875" codeLine="17" rx="2.5" ry="2.5" style="stroke:#000;stroke-width:1.5"/><ellipse cx="90.25" cy="26.895" fill="#1A83AF" rx="11" ry="11" style="stroke:#000;stroke-width:1"/><path fill="#000" d="M93.2188,32.5352 Q92.6406,32.832 92,32.9727 Q91.3594,33.1289 90.6563,33.1289 Q88.1563,33.1289 86.8281,31.4883 Q85.5156,29.832 85.5156,26.707 Q85.5156,23.582 86.8281,21.9258 Q88.1563,20.2695 90.6563,20.2695 Q91.3594,20.2695 92,20.4258 Q92.6563,20.582 93.2188,20.8789 L93.2188,23.5977 Q92.5938,23.0195 92,22.7539 Q91.4063,22.4727 90.7813,22.4727 Q89.4375,22.4727 88.75,23.5508 Q88.0625,24.6133 88.0625,26.707 Q88.0625,28.8008 88.75,29.8789 Q89.4375,30.9414 90.7813,30.9414 Q91.4063,30.9414 92,30.6758 Q92.5938,30.3945 93.2188,29.8164 L93.2188,32.5352 Z"/><text x="115.75" y="32.78" fill="#FFE797" font-family="Helvetica" font-size="17" lengthAdjust="spacing" textLength="71">resource</text><line style="stroke:#000;stroke-width:1.5" x1="8" x2="262" y1="46.789" y2="46.789"/><text x="18" y="65.999" fill="#FFE797" font-family="sans-serif" font-size="11" font-weight="bold" lengthAdjust="spacing" textLength="12">id</text><text x="30" y="65.999" fill="#FFE797" font-family="sans-serif" font-size="11" lengthAdjust="spacing" textLength="41">: string</text><text x="18" y="88.804" fill="#FFE797" font-family="sans-serif" font-size="11" font-weight="bold" lengthAdjust="spacing" textLength="28">tags</text><text x="46" y="88.804" fill="#FFE797" font-family="sans-serif" font-size="11" lengthAdjust="spacing" textLength="145">: dictionary[string, string]</text><text x="18" y="111.609" fill="#FFE797" font-family="sans-serif" font-size="11" font-weight="bold" lengthAdjust="spacing" textLength="35">name</text><text x="53" y="111.609" fill="#FFE797" font-family="sans-serif" font-size="11" lengthAdjust="spacing" textLength="41">: string</text><text x="18" y="134.414" fill="#FFE797" font-family="sans-serif" font-size="11" font-weight="bold" lengthAdjust="spacing" textLength="35">ctime</text><text x="53" y="134.414" fill="#FFE797" font-family="sans-serif" font-size="11" lengthAdjust="spacing" textLength="58">: datetime</text><text x="18" y="157.218" fill="#FFE797" font-family="sans-serif" font-size="11" font-weight="bold" lengthAdjust="spacing" textLength="24">age</text><text x="42" y="157.218" fill="#FFE797" font-family="sans-serif" font-size="11" lengthAdjust="spacing" textLength="159">: trafo.duration_to_datetime</text><text x="18" y="180.023" fill="#FFE797" font-family="sans-serif" font-size="11" font-weight="bold" lengthAdjust="spacing" textLength="39">mtime</text><text x="57" y="180.023" fill="#FFE797" font-family="sans-serif" font-size="11" lengthAdjust="spacing" textLength="58">: datetime</text><text x="18" y="202.828" fill="#FFE797" font-family="sans-serif" font-size="11" font-weight="bold" lengthAdjust="spacing" textLength="75">last_update</text><text x="93" y="202.828" fill="#FFE797" font-family="sans-serif" font-size="11" lengthAdjust="spacing" textLength="159">: trafo.duration_to_datetime</text><text x="18" y="225.632" fill="#FFE797" font-family="sans-serif" font-size="11" font-weight="bold" lengthAdjust="spacing" textLength="36">atime</text><text x="54" y="225.632" fill="#FFE797" font-family="sans-serif" font-size="11" lengthAdjust="spacing" textLength="58">: datetime</text><text x="18" y="248.437" fill="#FFE797" font-family="sans-serif" font-size="11" font-weight="bold" lengthAdjust="spacing" textLength="74">last_access</text><text x="92" y="248.437" fill="#FFE797" font-family="sans-serif" font-size="11" lengthAdjust="spacing" textLength="159">: trafo.duration_to_datetime</text><text x="18" y="271.242" fill="#FFE797" font-family="sans-serif" font-size="11" font-weight="bold" lengthAdjust="spacing" textLength="27">kind</text><text x="45" y="271.242" fill="#FFE797" font-family="sans-serif" font-size="11" lengthAdjust="spacing" textLength="41">: string</text><rect id="gcp_resource" width="169" height="93.398" x="264.5" y="438.5" fill="#194875" codeLine="29" rx="2.5" ry="2.5" style="stroke:#000;stroke-width:1.5"/><ellipse cx="288.05" cy="458.394" fill="#1A83AF" rx="11" ry="11" style="stroke:#000;stroke-width:1"/><path fill="#000" d="M291.0188,464.0352 Q290.4406,464.332 289.8,464.4727 Q289.1594,464.6289 288.4563,464.6289 Q285.9563,464.6289 284.6281,462.9883 Q283.3156,461.332 283.3156,458.207 Q283.3156,455.082 284.6281,453.4258 Q285.9563,451.7695 288.4563,451.7695 Q289.1594,451.7695 289.8,451.9258 Q290.4563,452.082 291.0188,452.3789 L291.0188,455.0977 Q290.3938,454.5195 289.8,454.2539 Q289.2063,453.9727 288.5813,453.9727 Q287.2375,453.9727 286.55,455.0508 Q285.8625,456.1133 285.8625,458.207 Q285.8625,460.3008 286.55,461.3789 Q287.2375,462.4414 288.5813,462.4414 Q289.2063,462.4414 289.8,462.1758 Q290.3938,461.8945 291.0188,461.3164 L291.0188,464.0352 Z"/><text x="308.95" y="464.28" fill="#FFE797" font-family="Helvetica" font-size="17" lengthAdjust="spacing" textLength="108">gcp_resource</text><line style="stroke:#000;stroke-width:1.5" x1="265.5" x2="432.5" y1="478.289" y2="478.289"/><text x="275.5" y="497.5" fill="#FFE797" font-family="sans-serif" font-size="11" font-weight="bold" lengthAdjust="spacing" textLength="23">link</text><text x="298.5" y="497.5" fill="#FFE797" font-family="sans-serif" font-size="11" lengthAdjust="spacing" textLength="41">: string</text><text x="275.5" y="520.304" fill="#FFE797" font-family="sans-serif" font-size="11" font-weight="bold" lengthAdjust="spacing" textLength="106">label_fingerprint</text><text x="381.5" y="520.304" fill="#FFE797" font-family="sans-serif" font-size="11" lengthAdjust="spacing" textLength="41">: string</text><rect id="gcp_https_health_check" width="241" height="39.789" x="156.5" y="924" fill="#194875" codeLine="33" rx="2.5" ry="2.5" style="stroke:#000;stroke-width:1.5"/><ellipse cx="171.5" cy="943.894" fill="#1A83AF" rx="11" ry="11" style="stroke:#000;stroke-width:1"/><path fill="#000" d="M174.4688,949.5352 Q173.8906,949.832 173.25,949.9727 Q172.6094,950.1289 171.9063,950.1289 Q169.4063,950.1289 168.0781,948.4883 Q166.7656,946.832 166.7656,943.707 Q166.7656,940.582 168.0781,938.9258 Q169.4063,937.2695 171.9063,937.2695 Q172.6094,937.2695 173.25,937.4258 Q173.9063,937.582 174.4688,937.8789 L174.4688,940.5977 Q173.8438,940.0195 173.25,939.7539 Q172.6563,939.4727 172.0313,939.4727 Q170.6875,939.4727 170,940.5508 Q169.3125,941.6133 169.3125,943.707 Q169.3125,945.8008 170,946.8789 Q170.6875,947.9414 172.0313,947.9414 Q172.6563,947.9414 173.25,947.6758 Q173.8438,947.3945 174.4688,946.8164 L174.4688,949.5352 Z"/><text x="190.5" y="949.78" fill="#FFE797" font-family="Helvetica" font-size="17" lengthAdjust="spacing" textLength="199">gcp_https_health_check</text><rect id="gcp_http_health_check" width="233" height="116.203" x="160.5" y="687" fill="#194875" codeLine="36" rx="2.5" ry="2.5" style="stroke:#000;stroke-width:1.5"/><ellipse cx="175.5" cy="706.894" fill="#1A83AF" rx="11" ry="11" style="stroke:#000;stroke-width:1"/><path fill="#000" d="M178.4688,712.5352 Q177.8906,712.832 177.25,712.9727 Q176.6094,713.1289 175.9063,713.1289 Q173.4063,713.1289 172.0781,711.4883 Q170.7656,709.832 170.7656,706.707 Q170.7656,703.582 172.0781,701.9258 Q173.4063,700.2695 175.9063,700.2695 Q176.6094,700.2695 177.25,700.4258 Q177.9063,700.582 178.4688,700.8789 L178.4688,703.5977 Q177.8438,703.0195 177.25,702.7539 Q176.6563,702.4727 176.0313,702.4727 Q174.6875,702.4727 174,703.5508 Q173.3125,704.6133 173.3125,706.707 Q173.3125,708.8008 174,709.8789 Q174.6875,710.9414 176.0313,710.9414 Q176.6563,710.9414 177.25,710.6758 Q177.8438,710.3945 178.4688,709.8164 L178.4688,712.5352 Z"/><text x="194.5" y="712.78" fill="#FFE797" font-family="Helvetica" font-size="17" lengthAdjust="spacing" textLength="191">gcp_http_health_check</text><line style="stroke:#000;stroke-width:1.5" x1="161.5" x2="392.5" y1="726.789" y2="726.789"/><text x="171.5" y="746" fill="#FFE797" font-family="sans-serif" font-size="11" font-weight="bold" lengthAdjust="spacing" textLength="28">host</text><text x="199.5" y="746" fill="#FFE797" font-family="sans-serif" font-size="11" lengthAdjust="spacing" textLength="41">: string</text><text x="171.5" y="768.804" fill="#FFE797" font-family="sans-serif" font-size="11" font-weight="bold" lengthAdjust="spacing" textLength="84">request_path</text><text x="255.5" y="768.804" fill="#FFE797" font-family="sans-serif" font-size="11" lengthAdjust="spacing" textLength="41">: string</text><text x="171.5" y="791.609" fill="#FFE797" font-family="sans-serif" font-size="11" font-weight="bold" lengthAdjust="spacing" textLength="26">port</text><text x="197.5" y="791.609" fill="#FFE797" font-family="sans-serif" font-size="11" lengthAdjust="spacing" textLength="36">: int64</text><rect id="health_check" width="189" height="161.813" x="40.5" y="404" fill="#194875" codeLine="41" rx="2.5" ry="2.5" style="stroke:#000;stroke-width:1.5"/><ellipse cx="72.15" cy="423.894" fill="#1A83AF" rx="11" ry="11" style="stroke:#000;stroke-width:1"/><path fill="#000" d="M75.1188,429.5352 Q74.5406,429.832 73.9,429.9727 Q73.2594,430.1289 72.5563,430.1289 Q70.0563,430.1289 68.7281,428.4883 Q67.4156,426.832 67.4156,423.707 Q67.4156,420.582 68.7281,418.9258 Q70.0563,417.2695 72.5563,417.2695 Q73.2594,417.2695 73.9,417.4258 Q74.5563,417.582 75.1188,417.8789 L75.1188,420.5977 Q74.4938,420.0195 73.9,419.7539 Q73.3063,419.4727 72.6813,419.4727 Q71.3375,419.4727 70.65,420.5508 Q69.9625,421.6133 69.9625,423.707 Q69.9625,425.8008 70.65,426.8789 Q71.3375,427.9414 72.6813,427.9414 Q73.3063,427.9414 73.9,427.6758 Q74.4938,427.3945 75.1188,426.8164 L75.1188,429.5352 Z"/><text x="94.85" y="429.78" fill="#FFE797" font-family="Helvetica" font-size="17" lengthAdjust="spacing" textLength="110">health_check</text><line style="stroke:#000;stroke-width:1.5" x1="41.5" x2="228.5" y1="443.789" y2="443.789"/><text x="51.5" y="463" fill="#FFE797" font-family="sans-serif" font-size="11" font-weight="bold" lengthAdjust="spacing" textLength="92">check_interval</text><text x="143.5" y="463" fill="#FFE797" font-family="sans-serif" font-size="11" lengthAdjust="spacing" textLength="36">: int64</text><text x="51.5" y="485.804" fill="#FFE797" font-family="sans-serif" font-size="11" font-weight="bold" lengthAdjust="spacing" textLength="115">healthy_threshold</text><text x="166.5" y="485.804" fill="#FFE797" font-family="sans-serif" font-size="11" lengthAdjust="spacing" textLength="36">: int64</text><text x="51.5" y="508.609" fill="#FFE797" font-family="sans-serif" font-size="11" font-weight="bold" lengthAdjust="spacing" textLength="131">unhealthy_threshold</text><text x="182.5" y="508.609" fill="#FFE797" font-family="sans-serif" font-size="11" lengthAdjust="spacing" textLength="36">: int64</text><text x="51.5" y="531.414" fill="#FFE797" font-family="sans-serif" font-size="11" font-weight="bold" lengthAdjust="spacing" textLength="49">timeout</text><text x="100.5" y="531.414" fill="#FFE797" font-family="sans-serif" font-size="11" lengthAdjust="spacing" textLength="36">: int64</text><text x="51.5" y="554.218" fill="#FFE797" font-family="sans-serif" font-size="11" font-weight="bold" lengthAdjust="spacing" textLength="118">health_check_type</text><text x="169.5" y="554.218" fill="#FFE797" font-family="sans-serif" font-size="11" lengthAdjust="spacing" textLength="41">: string</text><path id="gcp_http_health_check-backto-gcp_https_health_check" fill="none" d="M277,823.27 C277,859.8 277,900.42 277,923.71" codeLine="48" style="stroke:#ffaf37;stroke-width:2"/><polygon fill="none" points="270 823.25 277 803.25 284 823.25 270 823.25" style="stroke:#ffaf37;stroke-width:2"/><path id="gcp_resource-backto-gcp_http_health_check" fill="none" d="M330.87,550.97 C319.21,592.76 304.19,646.56 292.98,686.74" codeLine="49" style="stroke:#ffaf37;stroke-width:2"/><polygon fill="none" points="324.18 548.91 336.29 531.53 337.66 552.68 324.18 548.91" style="stroke:#ffaf37;stroke-width:2"/><path id="health_check-backto-gcp_http_health_check" fill="none" d="M188.95,584.01 C208.04,618.71 228.88,656.58 245.5,686.76" codeLine="50" style="stroke:#ffaf37;stroke-width:2"/><polygon fill="none" points="182.66 587.12 179.15 566.22 194.93 580.36 182.66 587.12" style="stroke:#ffaf37;stroke-width:2"/><path id="resource-backto-health_check" fill="none" d="M135,303.79 C135,338.49 135,373.82 135,403.9" codeLine="51" style="stroke:#ffaf37;stroke-width:2"/><polygon fill="none" points="128 303.48 135 283.48 142 303.48 128 303.48" style="stroke:#ffaf37;stroke-width:2"/></g></svg>