<svg xmlns="http://www.w3.org/2000/svg" xmlns:xlink="http://www.w3.org/1999/xlink" width="391" height="663" contentScriptType="application/ecmascript" contentStyleType="text/css" style="width:391px;height:663px;background:#00000000" preserveAspectRatio="none" version="1.1" viewBox="0 0 391 663" zoomAndPan="magnify"><g><rect id="resource" width="256" height="275.836" x="7" y="7" fill="#194875" codeLine="17" rx="2.5" ry="2.5" style="stroke:#000;stroke-width:1.5"/><ellipse cx="90.25" cy="26.895" fill="#1A83AF" rx="11" ry="11" style="stroke:#000;stroke-width:1"/><path fill="#000" d="M93.2188,32.5352 Q92.6406,32.832 92,32.9727 Q91.3594,33.1289 90.6563,33.1289 Q88.1563,33.1289 86.8281,31.4883 Q85.5156,29.832 85.5156,26.707 Q85.5156,23.582 86.8281,21.9258 Q88.1563,20.2695 90.6563,20.2695 Q91.3594,20.2695 92,20.4258 Q92.6563,20.582 93.2188,20.8789 L93.2188,23.5977 Q92.5938,23.0195 92,22.7539 Q91.4063,22.4727 90.7813,22.4727 Q89.4375,22.4727 88.75,23.5508 Q88.0625,24.6133 88.0625,26.707 Q88.0625,28.8008 88.75,29.8789 Q89.4375,30.9414 90.7813,30.9414 Q91.4063,30.9414 92,30.6758 Q92.5938,30.3945 93.2188,29.8164 L93.2188,32.5352 Z"/><text x="115.75" y="32.78" fill="#FFE797" font-family="Helvetica" font-size="17" lengthAdjust="spacing" textLength="71">resource</text><line style="stroke:#000;stroke-width:1.5" x1="8" x2="262" y1="46.789" y2="46.789"/><text x="18" y="65.999" fill="#FFE797" font-family="sans-serif" font-size="11" font-weight="bold" lengthAdjust="spacing" textLength="12">id</text><text x="30" y="65.999" fill="#FFE797" font-family="sans-serif" font-size="11" lengthAdjust="spacing" textLength="41">: string</text><text x="18" y="88.804" fill="#FFE797" font-family="sans-serif" font-size="11" font-weight="bold" lengthAdjust="spacing" textLength="28">tags</text><text x="46" y="88.804" fill="#FFE797" font-family="sans-serif" font-size="11" lengthAdjust="spacing" textLength="145">: dictionary[string, string]</text><text x="18" y="111.609" fill="#FFE797" font-family="sans-serif" font-size="11" font-weight="bold" lengthAdjust="spacing" textLength="35">name</text><text x="53" y="111.609" fill="#FFE797" font-family="sans-serif" font-size="11" lengthAdjust="spacing" textLength="41">: string</text><text x="18" y="134.414" fill="#FFE797" font-family="sans-serif" font-size="11" font-weight="bold" lengthAdjust="spacing" textLength="35">ctime</text><text x="53" y="134.414" fill="#FFE797" font-family="sans-serif" font-size="11" lengthAdjust="spacing" textLength="58">: datetime</text><text x="18" y="157.218" fill="#FFE797" font-family="sans-serif" font-size="11" font-weight="bold" lengthAdjust="spacing" textLength="24">age</text><text x="42" y="157.218" fill="#FFE797" font-family="sans-serif" font-size="11" lengthAdjust="spacing" textLength="159">: trafo.duration_to_datetime</text><text x="18" y="180.023" fill="#FFE797" font-family="sans-serif" font-size="11" font-weight="bold" lengthAdjust="spacing" textLength="39">mtime</text><text x="57" y="180.023" fill="#FFE797" font-family="sans-serif" font-size="11" lengthAdjust="spacing" textLength="58">: datetime</text><text x="18" y="202.828" fill="#FFE797" font-family="sans-serif" font-size="11" font-weight="bold" lengthAdjust="spacing" textLength="75">last_update</text><text x="93" y="202.828" fill="#FFE797" font-family="sans-serif" font-size="11" lengthAdjust="spacing" textLength="159">: trafo.duration_to_datetime</text><text x="18" y="225.632" fill="#FFE797" font-family="sans-serif" font-size="11" font-weight="bold" lengthAdjust="spacing" textLength="36">atime</text><text x="54" y="225.632" fill="#FFE797" font-family="sans-serif" font-size="11" lengthAdjust="spacing" textLength="58">: datetime</text><text x="18" y="248.437" fill="#FFE797" font-family="sans-serif" font-size="11" font-weight="bold" lengthAdjust="spacing" textLength="74">last_access</text><text x="92" y="248.437" fill="#FFE797" font-family="sans-serif" font-size="11" lengthAdjust="spacing" textLength="159">: trafo.duration_to_datetime</text><text x="18" y="271.242" fill="#FFE797" font-family="sans-serif" font-size="11" font-weight="bold" lengthAdjust="spacing" textLength="27">kind</text><text x="45" y="271.242" fill="#FFE797" font-family="sans-serif" font-size="11" lengthAdjust="spacing" textLength="41">: string</text><rect id="gcp_resource" width="169" height="93.398" x="215.5" y="404" fill="#194875" codeLine="29" rx="2.5" ry="2.5" style="stroke:#000;stroke-width:1.5"/><ellipse cx="239.05" cy="423.894" fill="#1A83AF" rx="11" ry="11" style="stroke:#000;stroke-width:1"/><path fill="#000" d="M242.0188,429.5352 Q241.4406,429.832 240.8,429.9727 Q240.1594,430.1289 239.4563,430.1289 Q236.9563,430.1289 235.6281,428.4883 Q234.3156,426.832 234.3156,423.707 Q234.3156,420.582 235.6281,418.9258 Q236.9563,417.2695 239.4563,417.2695 Q240.1594,417.2695 240.8,417.4258 Q241.4563,417.582 242.0188,417.8789 L242.0188,420.5977 Q241.3938,420.0195 240.8,419.7539 Q240.2063,419.4727 239.5813,419.4727 Q238.2375,419.4727 237.55,420.5508 Q236.8625,421.6133 236.8625,423.707 Q236.8625,425.8008 237.55,426.8789 Q238.2375,427.9414 239.5813,427.9414 Q240.2063,427.9414 240.8,427.6758 Q241.3938,427.3945 242.0188,426.8164 L242.0188,429.5352 Z"/><text x="259.95" y="429.78" fill="#FFE797" font-family="Helvetica" font-size="17" lengthAdjust="spacing" textLength="108">gcp_resource</text><line style="stroke:#000;stroke-width:1.5" x1="216.5" x2="383.5" y1="443.789" y2="443.789"/><text x="226.5" y="463" fill="#FFE797" font-family="sans-serif" font-size="11" font-weight="bold" lengthAdjust="spacing" textLength="23">link</text><text x="249.5" y="463" fill="#FFE797" font-family="sans-serif" font-size="11" lengthAdjust="spacing" textLength="41">: string</text><text x="226.5" y="485.804" fill="#FFE797" font-family="sans-serif" font-size="11" font-weight="bold" lengthAdjust="spacing" textLength="106">label_fingerprint</text><text x="332.5" y="485.804" fill="#FFE797" font-family="sans-serif" font-size="11" lengthAdjust="spacing" textLength="41">: string</text><rect id="policy" width="90" height="39.789" x="90" y="430.5" fill="#194875" codeLine="33" rx="2.5" ry="2.5" style="stroke:#000;stroke-width:1.5"/><ellipse cx="105" cy="450.394" fill="#1A83AF" rx="11" ry="11" style="stroke:#000;stroke-width:1"/><path fill="#000" d="M107.9688,456.0352 Q107.3906,456.332 106.75,456.4727 Q106.1094,456.6289 105.4063,456.6289 Q102.9063,456.6289 101.5781,454.9883 Q100.2656,453.332 100.2656,450.207 Q100.2656,447.082 101.5781,445.4258 Q102.9063,443.7695 105.4063,443.7695 Q106.1094,443.7695 106.75,443.9258 Q107.4063,444.082 107.9688,444.3789 L107.9688,447.0977 Q107.3438,446.5195 106.75,446.2539 Q106.1563,445.9727 105.5313,445.9727 Q104.1875,445.9727 103.5,447.0508 Q102.8125,448.1133 102.8125,450.207 Q102.8125,452.3008 103.5,453.3789 Q104.1875,454.4414 105.5313,454.4414 Q106.1563,454.4414 106.75,454.1758 Q107.3438,453.8945 107.9688,453.3164 L107.9688,456.0352 Z"/><text x="124" y="456.28" fill="#FFE797" font-family="Helvetica" font-size="17" lengthAdjust="spacing" textLength="48">policy</text><rect id="gcp_security_policy" width="202" height="39.789" x="116" y="618" fill="#194875" codeLine="36" rx="2.5" ry="2.5" style="stroke:#000;stroke-width:1.5"/><ellipse cx="131" cy="637.894" fill="#1A83AF" rx="11" ry="11" style="stroke:#000;stroke-width:1"/><path fill="#000" d="M133.9688,643.5352 Q133.3906,643.832 132.75,643.9727 Q132.1094,644.1289 131.4063,644.1289 Q128.9063,644.1289 127.5781,642.4883 Q126.2656,640.832 126.2656,637.707 Q126.2656,634.582 127.5781,632.9258 Q128.9063,631.2695 131.4063,631.2695 Q132.1094,631.2695 132.75,631.4258 Q133.4063,631.582 133.9688,631.8789 L133.9688,634.5977 Q133.3438,634.0195 132.75,633.7539 Q132.1563,633.4727 131.5313,633.4727 Q130.1875,633.4727 129.5,634.5508 Q128.8125,635.6133 128.8125,637.707 Q128.8125,639.8008 129.5,640.8789 Q130.1875,641.9414 131.5313,641.9414 Q132.1563,641.9414 132.75,641.6758 Q133.3438,641.3945 133.9688,640.8164 L133.9688,643.5352 Z"/><text x="150" y="643.78" fill="#FFE797" font-family="Helvetica" font-size="17" lengthAdjust="spacing" textLength="160">gcp_security_policy</text><path id="resource-backto-policy" fill="none" d="M135,303.26 C135,353.92 135,403.76 135,430.16" codeLine="39" style="stroke:#ffaf37;stroke-width:2"/><polygon fill="none" points="128 303.1 135 283.1 142 303.1 128 303.1" style="stroke:#ffaf37;stroke-width:2"/><path id="gcp_resource-backto-gcp_security_policy" fill="none" d="M271.19,515.89 C255.19,551.65 236.4,593.63 225.68,617.6" codeLine="40" style="stroke:#ffaf37;stroke-width:2"/><polygon fill="none" points="264.93 512.75 279.48 497.35 277.7 518.47 264.93 512.75" style="stroke:#ffaf37;stroke-width:2"/><path id="policy-backto-gcp_security_policy" fill="none" d="M151.67,489.2 C168.93,528.26 195.22,587.74 208.58,617.95" codeLine="41" style="stroke:#ffaf37;stroke-width:2"/><polygon fill="none" points="145.15 491.78 143.47 470.65 157.96 486.12 145.15 491.78" style="stroke:#ffaf37;stroke-width:2"/></g></svg>