<?xml version="1.0" encoding="UTF-8" standalone="no"?><svg xmlns="http://www.w3.org/2000/svg" xmlns:xlink="http://www.w3.org/1999/xlink" contentScriptType="application/ecmascript" contentStyleType="text/css" height="599px" preserveAspectRatio="none" style="width:429px;height:599px;background:#00000000;" version="1.1" viewBox="0 0 429 599" width="429px" zoomAndPan="magnify"><defs><filter height="300%" id="f1amm88bwup6df" width="300%" x="-1" y="-1"><feGaussianBlur result="blurOut" stdDeviation="2.0"/><feColorMatrix in="blurOut" result="blurOut2" type="matrix" values="0 0 0 0 0 0 0 0 0 0 0 0 0 0 0 0 0 0 .4 0"/><feOffset dx="4.0" dy="4.0" in="blurOut2" result="blurOut3"/><feBlend in="SourceGraphic" in2="blurOut3" mode="normal"/></filter></defs><g><!--MD5=[7f0ecf5f554433d3f2e1213379ac821c]
class resource--><rect codeLine="2" fill="#FEFECE" filter="url(#f1amm88bwup6df)" height="176.0469" id="resource" style="stroke:#A80036;stroke-width:1.5;" width="252" x="7" y="7"/><ellipse cx="100.75" cy="23" fill="#ADD1B2" rx="11" ry="11" style="stroke:#A80036;stroke-width:1.0;"/><path d="M103.7188,28.6406 Q103.1406,28.9375 102.5,29.0781 Q101.8594,29.2344 101.1563,29.2344 Q98.6563,29.2344 97.3281,27.5938 Q96.0156,25.9375 96.0156,22.8125 Q96.0156,19.6875 97.3281,18.0313 Q98.6563,16.375 101.1563,16.375 Q101.8594,16.375 102.5,16.5313 Q103.1563,16.6875 103.7188,16.9844 L103.7188,19.7031 Q103.0938,19.125 102.5,18.8594 Q101.9063,18.5781 101.2813,18.5781 Q99.9375,18.5781 99.25,19.6563 Q98.5625,20.7188 98.5625,22.8125 Q98.5625,24.9063 99.25,25.9844 Q99.9375,27.0469 101.2813,27.0469 Q101.9063,27.0469 102.5,26.7813 Q103.0938,26.5 103.7188,25.9219 L103.7188,28.6406 Z " fill="#000000"/><text fill="#000000" font-family="sans-serif" font-size="12" lengthAdjust="spacing" textLength="56" x="121.25" y="27.1543">resource</text><line style="stroke:#A80036;stroke-width:1.5;" x1="8" x2="258" y1="39" y2="39"/><ellipse cx="18" cy="50" rx="3" ry="3" style="stroke:#038048;stroke-width:1.0;fill:none;"/><text fill="#000000" font-family="sans-serif" font-size="11" lengthAdjust="spacing" textLength="51" x="27" y="53.2104">id: string</text><ellipse cx="18" cy="62.8047" rx="3" ry="3" style="stroke:#038048;stroke-width:1.0;fill:none;"/><text fill="#000000" font-family="sans-serif" font-size="11" lengthAdjust="spacing" textLength="170" x="27" y="66.0151">tags: dictionary[string, string]</text><ellipse cx="18" cy="75.6094" rx="3" ry="3" style="stroke:#038048;stroke-width:1.0;fill:none;"/><text fill="#000000" font-family="sans-serif" font-size="11" lengthAdjust="spacing" textLength="73" x="27" y="78.8198">name: string</text><ellipse cx="18" cy="88.4141" rx="3" ry="3" style="stroke:#038048;stroke-width:1.0;fill:none;"/><text fill="#000000" font-family="sans-serif" font-size="11" lengthAdjust="spacing" textLength="89" x="27" y="91.6245">ctime: datetime</text><ellipse cx="18" cy="101.2188" rx="3" ry="3" style="stroke:#038048;stroke-width:1.0;fill:none;"/><text fill="#000000" font-family="sans-serif" font-size="11" lengthAdjust="spacing" textLength="180" x="27" y="104.4292">age: trafo.duration_to_datetime</text><ellipse cx="18" cy="114.0234" rx="3" ry="3" style="stroke:#038048;stroke-width:1.0;fill:none;"/><text fill="#000000" font-family="sans-serif" font-size="11" lengthAdjust="spacing" textLength="94" x="27" y="117.2339">mtime: datetime</text><ellipse cx="18" cy="126.8281" rx="3" ry="3" style="stroke:#038048;stroke-width:1.0;fill:none;"/><text fill="#000000" font-family="sans-serif" font-size="11" lengthAdjust="spacing" textLength="225" x="27" y="130.0386">last_update: trafo.duration_to_datetime</text><ellipse cx="18" cy="139.6328" rx="3" ry="3" style="stroke:#038048;stroke-width:1.0;fill:none;"/><text fill="#000000" font-family="sans-serif" font-size="11" lengthAdjust="spacing" textLength="90" x="27" y="142.8433">atime: datetime</text><ellipse cx="18" cy="152.4375" rx="3" ry="3" style="stroke:#038048;stroke-width:1.0;fill:none;"/><text fill="#000000" font-family="sans-serif" font-size="11" lengthAdjust="spacing" textLength="226" x="27" y="155.6479">last_access: trafo.duration_to_datetime</text><ellipse cx="18" cy="165.2422" rx="3" ry="3" style="stroke:#038048;stroke-width:1.0;fill:none;"/><text fill="#000000" font-family="sans-serif" font-size="11" lengthAdjust="spacing" textLength="64" x="27" y="168.4526">kind: string</text><line style="stroke:#A80036;stroke-width:1.5;" x1="8" x2="258" y1="175.0469" y2="175.0469"/><!--MD5=[96a667c91f46910544c8a4dd691a5f67]
class gcp_resource--><rect codeLine="14" fill="#FEFECE" filter="url(#f1amm88bwup6df)" height="73.6094" id="gcp_resource" style="stroke:#A80036;stroke-width:1.5;" width="159" x="256.5" y="323"/><ellipse cx="290.4" cy="339" fill="#ADD1B2" rx="11" ry="11" style="stroke:#A80036;stroke-width:1.0;"/><path d="M293.3688,344.6406 Q292.7906,344.9375 292.15,345.0781 Q291.5094,345.2344 290.8063,345.2344 Q288.3063,345.2344 286.9781,343.5938 Q285.6656,341.9375 285.6656,338.8125 Q285.6656,335.6875 286.9781,334.0313 Q288.3063,332.375 290.8063,332.375 Q291.5094,332.375 292.15,332.5313 Q292.8063,332.6875 293.3688,332.9844 L293.3688,335.7031 Q292.7438,335.125 292.15,334.8594 Q291.5563,334.5781 290.9313,334.5781 Q289.5875,334.5781 288.9,335.6563 Q288.2125,336.7188 288.2125,338.8125 Q288.2125,340.9063 288.9,341.9844 Q289.5875,343.0469 290.9313,343.0469 Q291.5563,343.0469 292.15,342.7813 Q292.7438,342.5 293.3688,341.9219 L293.3688,344.6406 Z " fill="#000000"/><text fill="#000000" font-family="sans-serif" font-size="12" lengthAdjust="spacing" textLength="85" x="308.6" y="343.1543">gcp_resource</text><line style="stroke:#A80036;stroke-width:1.5;" x1="257.5" x2="414.5" y1="355" y2="355"/><ellipse cx="267.5" cy="366" rx="3" ry="3" style="stroke:#038048;stroke-width:1.0;fill:none;"/><text fill="#000000" font-family="sans-serif" font-size="11" lengthAdjust="spacing" textLength="60" x="276.5" y="369.2104">link: string</text><ellipse cx="267.5" cy="378.8047" rx="3" ry="3" style="stroke:#038048;stroke-width:1.0;fill:none;"/><text fill="#000000" font-family="sans-serif" font-size="11" lengthAdjust="spacing" textLength="133" x="276.5" y="382.0151">label_fingerprint: string</text><line style="stroke:#A80036;stroke-width:1.5;" x1="257.5" x2="414.5" y1="388.6094" y2="388.6094"/><!--MD5=[a393f42a4c461dfa9d88d0b2ffd945b3]
class health_check--><rect codeLine="18" fill="#FEFECE" filter="url(#f1amm88bwup6df)" height="112.0234" id="health_check" style="stroke:#A80036;stroke-width:1.5;" width="177" x="44.5" y="304"/><ellipse cx="87.4" cy="320" fill="#ADD1B2" rx="11" ry="11" style="stroke:#A80036;stroke-width:1.0;"/><path d="M90.3688,325.6406 Q89.7906,325.9375 89.15,326.0781 Q88.5094,326.2344 87.8063,326.2344 Q85.3063,326.2344 83.9781,324.5938 Q82.6656,322.9375 82.6656,319.8125 Q82.6656,316.6875 83.9781,315.0313 Q85.3063,313.375 87.8063,313.375 Q88.5094,313.375 89.15,313.5313 Q89.8063,313.6875 90.3688,313.9844 L90.3688,316.7031 Q89.7438,316.125 89.15,315.8594 Q88.5563,315.5781 87.9313,315.5781 Q86.5875,315.5781 85.9,316.6563 Q85.2125,317.7188 85.2125,319.8125 Q85.2125,321.9063 85.9,322.9844 Q86.5875,324.0469 87.9313,324.0469 Q88.5563,324.0469 89.15,323.7813 Q89.7438,323.5 90.3688,322.9219 L90.3688,325.6406 Z " fill="#000000"/><text fill="#000000" font-family="sans-serif" font-size="12" lengthAdjust="spacing" textLength="83" x="107.6" y="324.1543">health_check</text><line style="stroke:#A80036;stroke-width:1.5;" x1="45.5" x2="220.5" y1="336" y2="336"/><ellipse cx="55.5" cy="347" rx="3" ry="3" style="stroke:#038048;stroke-width:1.0;fill:none;"/><text fill="#000000" font-family="sans-serif" font-size="11" lengthAdjust="spacing" textLength="116" x="64.5" y="350.2104">check_interval: int64</text><ellipse cx="55.5" cy="359.8047" rx="3" ry="3" style="stroke:#038048;stroke-width:1.0;fill:none;"/><text fill="#000000" font-family="sans-serif" font-size="11" lengthAdjust="spacing" textLength="137" x="64.5" y="363.0151">healthy_threshold: int64</text><ellipse cx="55.5" cy="372.6094" rx="3" ry="3" style="stroke:#038048;stroke-width:1.0;fill:none;"/><text fill="#000000" font-family="sans-serif" font-size="11" lengthAdjust="spacing" textLength="151" x="64.5" y="375.8198">unhealthy_threshold: int64</text><ellipse cx="55.5" cy="385.4141" rx="3" ry="3" style="stroke:#038048;stroke-width:1.0;fill:none;"/><text fill="#000000" font-family="sans-serif" font-size="11" lengthAdjust="spacing" textLength="79" x="64.5" y="388.6245">timeout: int64</text><ellipse cx="55.5" cy="398.2188" rx="3" ry="3" style="stroke:#038048;stroke-width:1.0;fill:none;"/><text fill="#000000" font-family="sans-serif" font-size="11" lengthAdjust="spacing" textLength="144" x="64.5" y="401.4292">health_check_type: string</text><line style="stroke:#A80036;stroke-width:1.5;" x1="45.5" x2="220.5" y1="408.0234" y2="408.0234"/><!--MD5=[bef48a407db6f6e5c3c301ddedea12ae]
class gcp_health_check--><rect codeLine="25" fill="#FEFECE" filter="url(#f1amm88bwup6df)" height="48" id="gcp_health_check" style="stroke:#A80036;stroke-width:1.5;" width="144" x="162" y="537"/><ellipse cx="177" cy="553" fill="#ADD1B2" rx="11" ry="11" style="stroke:#A80036;stroke-width:1.0;"/><path d="M179.9688,558.6406 Q179.3906,558.9375 178.75,559.0781 Q178.1094,559.2344 177.4063,559.2344 Q174.9063,559.2344 173.5781,557.5938 Q172.2656,555.9375 172.2656,552.8125 Q172.2656,549.6875 173.5781,548.0313 Q174.9063,546.375 177.4063,546.375 Q178.1094,546.375 178.75,546.5313 Q179.4063,546.6875 179.9688,546.9844 L179.9688,549.7031 Q179.3438,549.125 178.75,548.8594 Q178.1563,548.5781 177.5313,548.5781 Q176.1875,548.5781 175.5,549.6563 Q174.8125,550.7188 174.8125,552.8125 Q174.8125,554.9063 175.5,555.9844 Q176.1875,557.0469 177.5313,557.0469 Q178.1563,557.0469 178.75,556.7813 Q179.3438,556.5 179.9688,555.9219 L179.9688,558.6406 Z " fill="#000000"/><text fill="#000000" font-family="sans-serif" font-size="12" lengthAdjust="spacing" textLength="112" x="191" y="557.1543">gcp_health_check</text><line style="stroke:#A80036;stroke-width:1.5;" x1="163" x2="305" y1="569" y2="569"/><line style="stroke:#A80036;stroke-width:1.5;" x1="163" x2="305" y1="577" y2="577"/><!--MD5=[01c4ccc954d718a219d26dc2c846da6a]
reverse link resource to health_check--><path codeLine="28" d="M133,203.69 C133,238.09 133,274.74 133,303.8 " fill="none" id="resource-backto-health_check" style="stroke:#A80036;stroke-width:1.0;"/><polygon fill="none" points="126,203.21,133,183.21,140,203.21,126,203.21" style="stroke:#A80036;stroke-width:1.0;"/><!--MD5=[30747ae8258ed47be6729fd211d1bca6]
reverse link gcp_resource to gcp_health_check--><path codeLine="29" d="M308.36,414.93 C287.88,454.88 261.01,507.31 245.81,536.96 " fill="none" id="gcp_resource-backto-gcp_health_check" style="stroke:#A80036;stroke-width:1.0;"/><polygon fill="none" points="302.18,411.64,317.53,397.04,314.64,418.03,302.18,411.64" style="stroke:#A80036;stroke-width:1.0;"/><!--MD5=[7d32f2d1b2400e5c908adf8afcd841e9]
reverse link health_check to gcp_health_check--><path codeLine="30" d="M170.08,434.07 C188.55,470.44 209.59,511.9 222.32,537 " fill="none" id="health_check-backto-gcp_health_check" style="stroke:#A80036;stroke-width:1.0;"/><polygon fill="none" points="163.81,437.17,161,416.17,176.29,430.83,163.81,437.17" style="stroke:#A80036;stroke-width:1.0;"/><!--MD5=[8a59703914bacf7abef52d2bdc1074a1]
@startuml
skinparam backgroundcolor transparent
class resource {
+ id: string
+ tags: dictionary[string, string]
+ name: string
+ ctime: datetime
+ age: trafo.duration_to_datetime
+ mtime: datetime
+ last_update: trafo.duration_to_datetime
+ atime: datetime
+ last_access: trafo.duration_to_datetime
+ kind: string
}
class gcp_resource {
+ link: string
+ label_fingerprint: string
}
class health_check {
+ check_interval: int64
+ healthy_threshold: int64
+ unhealthy_threshold: int64
+ timeout: int64
+ health_check_type: string
}
class gcp_health_check {

}
resource <|- - - health_check
gcp_resource <|- - - gcp_health_check
health_check <|- - - gcp_health_check
@enduml

PlantUML version 1.2021.16(Wed Dec 08 17:25:22 UTC 2021)
(GPL source distribution)
Java Runtime: OpenJDK Runtime Environment
JVM: OpenJDK 64-Bit Server VM
Default Encoding: UTF-8
Language: en
Country: null
--></g></svg>