<?xml version="1.0" encoding="UTF-8" standalone="no"?><svg xmlns="http://www.w3.org/2000/svg" xmlns:xlink="http://www.w3.org/1999/xlink" contentScriptType="application/ecmascript" contentStyleType="text/css" height="663px" preserveAspectRatio="none" style="width:403px;height:663px;background:#00000000;" version="1.1" viewBox="0 0 403 663" width="403px" zoomAndPan="magnify"><defs/><g><!--MD5=[7f0ecf5f554433d3f2e1213379ac821c]
class resource--><rect codeLine="17" fill="#194875" height="275.8359" id="resource" rx="2.5" ry="2.5" style="stroke:#000000;stroke-width:1.5;" width="256" x="7" y="7"/><ellipse cx="90.25" cy="26.8945" fill="#1A83AF" rx="11" ry="11" style="stroke:#000000;stroke-width:1.0;"/><path d="M93.2188,32.5352 Q92.6406,32.832 92,32.9727 Q91.3594,33.1289 90.6563,33.1289 Q88.1563,33.1289 86.8281,31.4883 Q85.5156,29.832 85.5156,26.707 Q85.5156,23.582 86.8281,21.9258 Q88.1563,20.2695 90.6563,20.2695 Q91.3594,20.2695 92,20.4258 Q92.6563,20.582 93.2188,20.8789 L93.2188,23.5977 Q92.5938,23.0195 92,22.7539 Q91.4063,22.4727 90.7813,22.4727 Q89.4375,22.4727 88.75,23.5508 Q88.0625,24.6133 88.0625,26.707 Q88.0625,28.8008 88.75,29.8789 Q89.4375,30.9414 90.7813,30.9414 Q91.4063,30.9414 92,30.6758 Q92.5938,30.3945 93.2188,29.8164 L93.2188,32.5352 Z " fill="#000000"/><text fill="#FFE797" font-family="Helvetica" font-size="17" lengthAdjust="spacing" textLength="71" x="115.75" y="32.7798">resource</text><line style="stroke:#000000;stroke-width:1.5;" x1="8" x2="262" y1="46.7891" y2="46.7891"/><text fill="#FFE797" font-family="sans-serif" font-size="11" font-weight="bold" lengthAdjust="spacing" textLength="12" x="18" y="65.9995">id</text><text fill="#FFE797" font-family="sans-serif" font-size="11" lengthAdjust="spacing" textLength="41" x="30" y="65.9995">: string</text><text fill="#FFE797" font-family="sans-serif" font-size="11" font-weight="bold" lengthAdjust="spacing" textLength="28" x="18" y="88.8042">tags</text><text fill="#FFE797" font-family="sans-serif" font-size="11" lengthAdjust="spacing" textLength="145" x="46" y="88.8042">: dictionary[string, string]</text><text fill="#FFE797" font-family="sans-serif" font-size="11" font-weight="bold" lengthAdjust="spacing" textLength="35" x="18" y="111.6089">name</text><text fill="#FFE797" font-family="sans-serif" font-size="11" lengthAdjust="spacing" textLength="41" x="53" y="111.6089">: string</text><text fill="#FFE797" font-family="sans-serif" font-size="11" font-weight="bold" lengthAdjust="spacing" textLength="35" x="18" y="134.4136">ctime</text><text fill="#FFE797" font-family="sans-serif" font-size="11" lengthAdjust="spacing" textLength="58" x="53" y="134.4136">: datetime</text><text fill="#FFE797" font-family="sans-serif" font-size="11" font-weight="bold" lengthAdjust="spacing" textLength="24" x="18" y="157.2183">age</text><text fill="#FFE797" font-family="sans-serif" font-size="11" lengthAdjust="spacing" textLength="159" x="42" y="157.2183">: trafo.duration_to_datetime</text><text fill="#FFE797" font-family="sans-serif" font-size="11" font-weight="bold" lengthAdjust="spacing" textLength="39" x="18" y="180.0229">mtime</text><text fill="#FFE797" font-family="sans-serif" font-size="11" lengthAdjust="spacing" textLength="58" x="57" y="180.0229">: datetime</text><text fill="#FFE797" font-family="sans-serif" font-size="11" font-weight="bold" lengthAdjust="spacing" textLength="75" x="18" y="202.8276">last_update</text><text fill="#FFE797" font-family="sans-serif" font-size="11" lengthAdjust="spacing" textLength="159" x="93" y="202.8276">: trafo.duration_to_datetime</text><text fill="#FFE797" font-family="sans-serif" font-size="11" font-weight="bold" lengthAdjust="spacing" textLength="36" x="18" y="225.6323">atime</text><text fill="#FFE797" font-family="sans-serif" font-size="11" lengthAdjust="spacing" textLength="58" x="54" y="225.6323">: datetime</text><text fill="#FFE797" font-family="sans-serif" font-size="11" font-weight="bold" lengthAdjust="spacing" textLength="74" x="18" y="248.437">last_access</text><text fill="#FFE797" font-family="sans-serif" font-size="11" lengthAdjust="spacing" textLength="159" x="92" y="248.437">: trafo.duration_to_datetime</text><text fill="#FFE797" font-family="sans-serif" font-size="11" font-weight="bold" lengthAdjust="spacing" textLength="27" x="18" y="271.2417">kind</text><text fill="#FFE797" font-family="sans-serif" font-size="11" lengthAdjust="spacing" textLength="41" x="45" y="271.2417">: string</text><!--MD5=[96a667c91f46910544c8a4dd691a5f67]
class gcp_resource--><rect codeLine="29" fill="#194875" height="93.3984" id="gcp_resource" rx="2.5" ry="2.5" style="stroke:#000000;stroke-width:1.5;" width="169" x="227.5" y="404"/><ellipse cx="251.05" cy="423.8945" fill="#1A83AF" rx="11" ry="11" style="stroke:#000000;stroke-width:1.0;"/><path d="M254.0188,429.5352 Q253.4406,429.832 252.8,429.9727 Q252.1594,430.1289 251.4563,430.1289 Q248.9563,430.1289 247.6281,428.4883 Q246.3156,426.832 246.3156,423.707 Q246.3156,420.582 247.6281,418.9258 Q248.9563,417.2695 251.4563,417.2695 Q252.1594,417.2695 252.8,417.4258 Q253.4563,417.582 254.0188,417.8789 L254.0188,420.5977 Q253.3938,420.0195 252.8,419.7539 Q252.2063,419.4727 251.5813,419.4727 Q250.2375,419.4727 249.55,420.5508 Q248.8625,421.6133 248.8625,423.707 Q248.8625,425.8008 249.55,426.8789 Q250.2375,427.9414 251.5813,427.9414 Q252.2063,427.9414 252.8,427.6758 Q253.3938,427.3945 254.0188,426.8164 L254.0188,429.5352 Z " fill="#000000"/><text fill="#FFE797" font-family="Helvetica" font-size="17" lengthAdjust="spacing" textLength="108" x="271.95" y="429.7798">gcp_resource</text><line style="stroke:#000000;stroke-width:1.5;" x1="228.5" x2="395.5" y1="443.7891" y2="443.7891"/><text fill="#FFE797" font-family="sans-serif" font-size="11" font-weight="bold" lengthAdjust="spacing" textLength="23" x="238.5" y="462.9995">link</text><text fill="#FFE797" font-family="sans-serif" font-size="11" lengthAdjust="spacing" textLength="41" x="261.5" y="462.9995">: string</text><text fill="#FFE797" font-family="sans-serif" font-size="11" font-weight="bold" lengthAdjust="spacing" textLength="106" x="238.5" y="485.8042">label_fingerprint</text><text fill="#FFE797" font-family="sans-serif" font-size="11" lengthAdjust="spacing" textLength="41" x="344.5" y="485.8042">: string</text><!--MD5=[ac3459bb810f61169c23e72ed3fa4a86]
class gateway--><rect codeLine="33" fill="#194875" height="39.7891" id="gateway" rx="2.5" ry="2.5" style="stroke:#000000;stroke-width:1.5;" width="114" x="78" y="430.5"/><ellipse cx="93" cy="450.3945" fill="#1A83AF" rx="11" ry="11" style="stroke:#000000;stroke-width:1.0;"/><path d="M95.9688,456.0352 Q95.3906,456.332 94.75,456.4727 Q94.1094,456.6289 93.4063,456.6289 Q90.9063,456.6289 89.5781,454.9883 Q88.2656,453.332 88.2656,450.207 Q88.2656,447.082 89.5781,445.4258 Q90.9063,443.7695 93.4063,443.7695 Q94.1094,443.7695 94.75,443.9258 Q95.4063,444.082 95.9688,444.3789 L95.9688,447.0977 Q95.3438,446.5195 94.75,446.2539 Q94.1563,445.9727 93.5313,445.9727 Q92.1875,445.9727 91.5,447.0508 Q90.8125,448.1133 90.8125,450.207 Q90.8125,452.3008 91.5,453.3789 Q92.1875,454.4414 93.5313,454.4414 Q94.1563,454.4414 94.75,454.1758 Q95.3438,453.8945 95.9688,453.3164 L95.9688,456.0352 Z " fill="#000000"/><text fill="#FFE797" font-family="Helvetica" font-size="17" lengthAdjust="spacing" textLength="72" x="112" y="456.2798">gateway</text><!--MD5=[0894b0117c71b104d0690e4693cd293a]
class gcp_router--><rect codeLine="36" fill="#194875" height="39.7891" id="gcp_router" rx="2.5" ry="2.5" style="stroke:#000000;stroke-width:1.5;" width="131" x="157.5" y="618"/><ellipse cx="172.5" cy="637.8945" fill="#1A83AF" rx="11" ry="11" style="stroke:#000000;stroke-width:1.0;"/><path d="M175.4688,643.5352 Q174.8906,643.832 174.25,643.9727 Q173.6094,644.1289 172.9063,644.1289 Q170.4063,644.1289 169.0781,642.4883 Q167.7656,640.832 167.7656,637.707 Q167.7656,634.582 169.0781,632.9258 Q170.4063,631.2695 172.9063,631.2695 Q173.6094,631.2695 174.25,631.4258 Q174.9063,631.582 175.4688,631.8789 L175.4688,634.5977 Q174.8438,634.0195 174.25,633.7539 Q173.6563,633.4727 173.0313,633.4727 Q171.6875,633.4727 171,634.5508 Q170.3125,635.6133 170.3125,637.707 Q170.3125,639.8008 171,640.8789 Q171.6875,641.9414 173.0313,641.9414 Q173.6563,641.9414 174.25,641.6758 Q174.8438,641.3945 175.4688,640.8164 L175.4688,643.5352 Z " fill="#000000"/><text fill="#FFE797" font-family="Helvetica" font-size="17" lengthAdjust="spacing" textLength="89" x="191.5" y="643.7798">gcp_router</text><!--MD5=[7a6ca6b323d3c1a06faf4f592dace119]
reverse link resource to gateway--><path codeLine="39" d="M135,303.26 C135,353.92 135,403.76 135,430.16 " fill="none" id="resource-backto-gateway" style="stroke:#FFAF37;stroke-width:2.0;"/><polygon fill="none" points="128,303.1,135,283.1,142,303.1,128,303.1" style="stroke:#FFAF37;stroke-width:2.0;"/><!--MD5=[9027fef5876cbe7f982a12c798fb3541]
reverse link gcp_resource to gcp_router--><path codeLine="40" d="M281.34,515.4 C264.14,551.26 243.86,593.52 232.31,617.6 " fill="none" id="gcp_resource-backto-gcp_router" style="stroke:#FFAF37;stroke-width:2.0;"/><polygon fill="none" points="275.04,512.36,290,497.35,287.66,518.41,275.04,512.36" style="stroke:#FFAF37;stroke-width:2.0;"/><!--MD5=[a9df76aa7d1cf5d5e8c4e07778019982]
reverse link gateway to gcp_router--><path codeLine="41" d="M152.76,488.93 C171.29,527.99 199.6,587.67 213.96,617.95 " fill="none" id="gateway-backto-gcp_router" style="stroke:#FFAF37;stroke-width:2.0;"/><polygon fill="none" points="146.33,491.72,144.09,470.65,158.98,485.72,146.33,491.72" style="stroke:#FFAF37;stroke-width:2.0;"/><!--MD5=[6df42e371d55e32a31182ae86e3d27a0]
@startuml
hide empty members
skinparam ArrowColor #ffaf37
skinparam ArrowThickness 2
skinparam BackgroundColor transparent
skinparam ClassAttributeFontColor #ffe797
skinparam ClassBackgroundColor #194875
skinparam ClassBorderColor Black
skinparam ClassFontColor #ffe797
skinparam ClassFontName Helvetica
skinparam ClassFontSize 17
skinparam Padding 5
skinparam RoundCorner 5
skinparam Shadowing false
skinparam stereotypeCBackgroundColor #1a83af
skinparam stereotypeIBackgroundColor #1a83af

class resource {
**id**: string
**tags**: dictionary[string, string]
**name**: string
**ctime**: datetime
**age**: trafo.duration_to_datetime
**mtime**: datetime
**last_update**: trafo.duration_to_datetime
**atime**: datetime
**last_access**: trafo.duration_to_datetime
**kind**: string
}
class gcp_resource {
**link**: string
**label_fingerprint**: string
}
class gateway {

}
class gcp_router {

}
resource <|- - - gateway
gcp_resource <|- - - gcp_router
gateway <|- - - gcp_router
@enduml

PlantUML version 1.2021.16(Wed Dec 08 17:25:22 UTC 2021)
(GPL source distribution)
Java Runtime: OpenJDK Runtime Environment
JVM: OpenJDK 64-Bit Server VM
Default Encoding: UTF-8
Language: en
Country: null
--></g></svg>