<?xml version="1.0" encoding="UTF-8" standalone="no"?><svg xmlns="http://www.w3.org/2000/svg" xmlns:xlink="http://www.w3.org/1999/xlink" contentScriptType="application/ecmascript" contentStyleType="text/css" height="598px" preserveAspectRatio="none" style="width:427px;height:598px;background:#00000000;" version="1.1" viewBox="0 0 427 598" width="427px" zoomAndPan="magnify"><defs><filter height="300%" id="folwfovii8hxc" width="300%" x="-1" y="-1"><feGaussianBlur result="blurOut" stdDeviation="2.0"/><feColorMatrix in="blurOut" result="blurOut2" type="matrix" values="0 0 0 0 0 0 0 0 0 0 0 0 0 0 0 0 0 0 .4 0"/><feOffset dx="4.0" dy="4.0" in="blurOut2" result="blurOut3"/><feBlend in="SourceGraphic" in2="blurOut3" mode="normal"/></filter></defs><g><!--MD5=[7f0ecf5f554433d3f2e1213379ac821c]
class resource--><rect codeLine="2" fill="#FEFECE" filter="url(#folwfovii8hxc)" height="176.0469" id="resource" style="stroke:#A80036;stroke-width:1.5;" width="252" x="7" y="7"/><ellipse cx="100.75" cy="23" fill="#ADD1B2" rx="11" ry="11" style="stroke:#A80036;stroke-width:1.0;"/><path d="M103.7188,28.6406 Q103.1406,28.9375 102.5,29.0781 Q101.8594,29.2344 101.1563,29.2344 Q98.6563,29.2344 97.3281,27.5938 Q96.0156,25.9375 96.0156,22.8125 Q96.0156,19.6875 97.3281,18.0313 Q98.6563,16.375 101.1563,16.375 Q101.8594,16.375 102.5,16.5313 Q103.1563,16.6875 103.7188,16.9844 L103.7188,19.7031 Q103.0938,19.125 102.5,18.8594 Q101.9063,18.5781 101.2813,18.5781 Q99.9375,18.5781 99.25,19.6563 Q98.5625,20.7188 98.5625,22.8125 Q98.5625,24.9063 99.25,25.9844 Q99.9375,27.0469 101.2813,27.0469 Q101.9063,27.0469 102.5,26.7813 Q103.0938,26.5 103.7188,25.9219 L103.7188,28.6406 Z " fill="#000000"/><text fill="#000000" font-family="sans-serif" font-size="12" lengthAdjust="spacing" textLength="56" x="121.25" y="27.1543">resource</text><line style="stroke:#A80036;stroke-width:1.5;" x1="8" x2="258" y1="39" y2="39"/><ellipse cx="18" cy="50" rx="3" ry="3" style="stroke:#038048;stroke-width:1.0;fill:none;"/><text fill="#000000" font-family="sans-serif" font-size="11" lengthAdjust="spacing" textLength="51" x="27" y="53.2104">id: string</text><ellipse cx="18" cy="62.8047" rx="3" ry="3" style="stroke:#038048;stroke-width:1.0;fill:none;"/><text fill="#000000" font-family="sans-serif" font-size="11" lengthAdjust="spacing" textLength="170" x="27" y="66.0151">tags: dictionary[string, string]</text><ellipse cx="18" cy="75.6094" rx="3" ry="3" style="stroke:#038048;stroke-width:1.0;fill:none;"/><text fill="#000000" font-family="sans-serif" font-size="11" lengthAdjust="spacing" textLength="73" x="27" y="78.8198">name: string</text><ellipse cx="18" cy="88.4141" rx="3" ry="3" style="stroke:#038048;stroke-width:1.0;fill:none;"/><text fill="#000000" font-family="sans-serif" font-size="11" lengthAdjust="spacing" textLength="89" x="27" y="91.6245">ctime: datetime</text><ellipse cx="18" cy="101.2188" rx="3" ry="3" style="stroke:#038048;stroke-width:1.0;fill:none;"/><text fill="#000000" font-family="sans-serif" font-size="11" lengthAdjust="spacing" textLength="180" x="27" y="104.4292">age: trafo.duration_to_datetime</text><ellipse cx="18" cy="114.0234" rx="3" ry="3" style="stroke:#038048;stroke-width:1.0;fill:none;"/><text fill="#000000" font-family="sans-serif" font-size="11" lengthAdjust="spacing" textLength="94" x="27" y="117.2339">mtime: datetime</text><ellipse cx="18" cy="126.8281" rx="3" ry="3" style="stroke:#038048;stroke-width:1.0;fill:none;"/><text fill="#000000" font-family="sans-serif" font-size="11" lengthAdjust="spacing" textLength="225" x="27" y="130.0386">last_update: trafo.duration_to_datetime</text><ellipse cx="18" cy="139.6328" rx="3" ry="3" style="stroke:#038048;stroke-width:1.0;fill:none;"/><text fill="#000000" font-family="sans-serif" font-size="11" lengthAdjust="spacing" textLength="90" x="27" y="142.8433">atime: datetime</text><ellipse cx="18" cy="152.4375" rx="3" ry="3" style="stroke:#038048;stroke-width:1.0;fill:none;"/><text fill="#000000" font-family="sans-serif" font-size="11" lengthAdjust="spacing" textLength="226" x="27" y="155.6479">last_access: trafo.duration_to_datetime</text><ellipse cx="18" cy="165.2422" rx="3" ry="3" style="stroke:#038048;stroke-width:1.0;fill:none;"/><text fill="#000000" font-family="sans-serif" font-size="11" lengthAdjust="spacing" textLength="64" x="27" y="168.4526">kind: string</text><line style="stroke:#A80036;stroke-width:1.5;" x1="8" x2="258" y1="175.0469" y2="175.0469"/><!--MD5=[96a667c91f46910544c8a4dd691a5f67]
class gcp_resource--><rect codeLine="14" fill="#FEFECE" filter="url(#folwfovii8hxc)" height="73.6094" id="gcp_resource" style="stroke:#A80036;stroke-width:1.5;" width="159" x="254.5" y="316.5"/><ellipse cx="288.4" cy="332.5" fill="#ADD1B2" rx="11" ry="11" style="stroke:#A80036;stroke-width:1.0;"/><path d="M291.3688,338.1406 Q290.7906,338.4375 290.15,338.5781 Q289.5094,338.7344 288.8063,338.7344 Q286.3063,338.7344 284.9781,337.0938 Q283.6656,335.4375 283.6656,332.3125 Q283.6656,329.1875 284.9781,327.5313 Q286.3063,325.875 288.8063,325.875 Q289.5094,325.875 290.15,326.0313 Q290.8063,326.1875 291.3688,326.4844 L291.3688,329.2031 Q290.7438,328.625 290.15,328.3594 Q289.5563,328.0781 288.9313,328.0781 Q287.5875,328.0781 286.9,329.1563 Q286.2125,330.2188 286.2125,332.3125 Q286.2125,334.4063 286.9,335.4844 Q287.5875,336.5469 288.9313,336.5469 Q289.5563,336.5469 290.15,336.2813 Q290.7438,336 291.3688,335.4219 L291.3688,338.1406 Z " fill="#000000"/><text fill="#000000" font-family="sans-serif" font-size="12" lengthAdjust="spacing" textLength="85" x="306.6" y="336.6543">gcp_resource</text><line style="stroke:#A80036;stroke-width:1.5;" x1="255.5" x2="412.5" y1="348.5" y2="348.5"/><ellipse cx="265.5" cy="359.5" rx="3" ry="3" style="stroke:#038048;stroke-width:1.0;fill:none;"/><text fill="#000000" font-family="sans-serif" font-size="11" lengthAdjust="spacing" textLength="60" x="274.5" y="362.7104">link: string</text><ellipse cx="265.5" cy="372.3047" rx="3" ry="3" style="stroke:#038048;stroke-width:1.0;fill:none;"/><text fill="#000000" font-family="sans-serif" font-size="11" lengthAdjust="spacing" textLength="133" x="274.5" y="375.5151">label_fingerprint: string</text><line style="stroke:#A80036;stroke-width:1.5;" x1="255.5" x2="412.5" y1="382.1094" y2="382.1094"/><!--MD5=[230a9b3152d0e43428e5ec47aa3382f3]
class instance--><rect codeLine="18" fill="#FEFECE" filter="url(#folwfovii8hxc)" height="99.2188" id="instance" style="stroke:#A80036;stroke-width:1.5;" width="173" x="46.5" y="304"/><ellipse cx="101.75" cy="320" fill="#ADD1B2" rx="11" ry="11" style="stroke:#A80036;stroke-width:1.0;"/><path d="M104.7188,325.6406 Q104.1406,325.9375 103.5,326.0781 Q102.8594,326.2344 102.1563,326.2344 Q99.6563,326.2344 98.3281,324.5938 Q97.0156,322.9375 97.0156,319.8125 Q97.0156,316.6875 98.3281,315.0313 Q99.6563,313.375 102.1563,313.375 Q102.8594,313.375 103.5,313.5313 Q104.1563,313.6875 104.7188,313.9844 L104.7188,316.7031 Q104.0938,316.125 103.5,315.8594 Q102.9063,315.5781 102.2813,315.5781 Q100.9375,315.5781 100.25,316.6563 Q99.5625,317.7188 99.5625,319.8125 Q99.5625,321.9063 100.25,322.9844 Q100.9375,324.0469 102.2813,324.0469 Q102.9063,324.0469 103.5,323.7813 Q104.0938,323.5 104.7188,322.9219 L104.7188,325.6406 Z " fill="#000000"/><text fill="#000000" font-family="sans-serif" font-size="12" lengthAdjust="spacing" textLength="54" x="122.25" y="324.1543">instance</text><line style="stroke:#A80036;stroke-width:1.5;" x1="47.5" x2="218.5" y1="336" y2="336"/><ellipse cx="57.5" cy="347" rx="3" ry="3" style="stroke:#038048;stroke-width:1.0;fill:none;"/><text fill="#000000" font-family="sans-serif" font-size="11" lengthAdjust="spacing" textLength="132" x="66.5" y="350.2104">instance_cores: double</text><ellipse cx="57.5" cy="359.8047" rx="3" ry="3" style="stroke:#038048;stroke-width:1.0;fill:none;"/><text fill="#000000" font-family="sans-serif" font-size="11" lengthAdjust="spacing" textLength="147" x="66.5" y="363.0151">instance_memory: double</text><ellipse cx="57.5" cy="372.6094" rx="3" ry="3" style="stroke:#038048;stroke-width:1.0;fill:none;"/><text fill="#000000" font-family="sans-serif" font-size="11" lengthAdjust="spacing" textLength="119" x="66.5" y="375.8198">instance_type: string</text><ellipse cx="57.5" cy="385.4141" rx="3" ry="3" style="stroke:#038048;stroke-width:1.0;fill:none;"/><text fill="#000000" font-family="sans-serif" font-size="11" lengthAdjust="spacing" textLength="131" x="66.5" y="388.6245">instance_status: string</text><line style="stroke:#A80036;stroke-width:1.5;" x1="47.5" x2="218.5" y1="395.2188" y2="395.2188"/><!--MD5=[6cacedcd4c2effd6f4e2b3539316018b]
class gcp_instance--><rect codeLine="24" fill="#FEFECE" filter="url(#folwfovii8hxc)" height="60.8047" id="gcp_instance" style="stroke:#A80036;stroke-width:1.5;" width="175" x="178.5" y="524"/><ellipse cx="220.5" cy="540" fill="#ADD1B2" rx="11" ry="11" style="stroke:#A80036;stroke-width:1.0;"/><path d="M223.4688,545.6406 Q222.8906,545.9375 222.25,546.0781 Q221.6094,546.2344 220.9063,546.2344 Q218.4063,546.2344 217.0781,544.5938 Q215.7656,542.9375 215.7656,539.8125 Q215.7656,536.6875 217.0781,535.0313 Q218.4063,533.375 220.9063,533.375 Q221.6094,533.375 222.25,533.5313 Q222.9063,533.6875 223.4688,533.9844 L223.4688,536.7031 Q222.8438,536.125 222.25,535.8594 Q221.6563,535.5781 221.0313,535.5781 Q219.6875,535.5781 219,536.6563 Q218.3125,537.7188 218.3125,539.8125 Q218.3125,541.9063 219,542.9844 Q219.6875,544.0469 221.0313,544.0469 Q221.6563,544.0469 222.25,543.7813 Q222.8438,543.5 223.4688,542.9219 L223.4688,545.6406 Z " fill="#000000"/><text fill="#000000" font-family="sans-serif" font-size="12" lengthAdjust="spacing" textLength="83" x="240.5" y="544.1543">gcp_instance</text><line style="stroke:#A80036;stroke-width:1.5;" x1="179.5" x2="352.5" y1="556" y2="556"/><ellipse cx="189.5" cy="567" rx="3" ry="3" style="stroke:#038048;stroke-width:1.0;fill:none;"/><text fill="#000000" font-family="sans-serif" font-size="11" lengthAdjust="spacing" textLength="149" x="198.5" y="570.2104">network_interfaces: string</text><line style="stroke:#A80036;stroke-width:1.5;" x1="179.5" x2="352.5" y1="576.8047" y2="576.8047"/><!--MD5=[d8c8fec3d897e15ddf46b16cbe65a677]
reverse link resource to instance--><path codeLine="27" d="M133,203.4 C133,238.27 133,275.26 133,303.67 " fill="none" id="resource-backto-instance" style="stroke:#A80036;stroke-width:1.0;"/><polygon fill="none" points="126,203.2,133,183.2,140,203.2,126,203.2" style="stroke:#A80036;stroke-width:1.0;"/><!--MD5=[62cc04601fd5c72e3827447754c642bb]
reverse link gcp_resource to gcp_instance--><path codeLine="28" d="M315.18,409.58 C302.55,446.55 286.39,493.82 276.12,523.89 " fill="none" id="gcp_resource-backto-gcp_instance" style="stroke:#A80036;stroke-width:1.0;"/><polygon fill="none" points="308.59,407.2,321.69,390.54,321.84,411.73,308.59,407.2" style="stroke:#A80036;stroke-width:1.0;"/><!--MD5=[f04006243f1a8eceb6c84a213e7d8eed]
reverse link instance to gcp_instance--><path codeLine="29" d="M176.97,420.28 C200.36,455.28 227.97,496.6 246.17,523.84 " fill="none" id="instance-backto-gcp_instance" style="stroke:#A80036;stroke-width:1.0;"/><polygon fill="none" points="170.83,423.7,165.54,403.18,182.47,415.92,170.83,423.7" style="stroke:#A80036;stroke-width:1.0;"/><!--MD5=[42373a8c09bc3d03715b5d060a4232ad]
@startuml
skinparam backgroundcolor transparent
class resource {
+ id: string
+ tags: dictionary[string, string]
+ name: string
+ ctime: datetime
+ age: trafo.duration_to_datetime
+ mtime: datetime
+ last_update: trafo.duration_to_datetime
+ atime: datetime
+ last_access: trafo.duration_to_datetime
+ kind: string
}
class gcp_resource {
+ link: string
+ label_fingerprint: string
}
class instance {
+ instance_cores: double
+ instance_memory: double
+ instance_type: string
+ instance_status: string
}
class gcp_instance {
+ network_interfaces: string
}
resource <|- - - instance
gcp_resource <|- - - gcp_instance
instance <|- - - gcp_instance
@enduml

PlantUML version 1.2021.16(Wed Dec 08 17:25:22 UTC 2021)
(GPL source distribution)
Java Runtime: OpenJDK Runtime Environment
JVM: OpenJDK 64-Bit Server VM
Default Encoding: UTF-8
Language: en
Country: null
--></g></svg>