<?xml version="1.0" encoding="UTF-8" standalone="no"?><svg xmlns="http://www.w3.org/2000/svg" xmlns:xlink="http://www.w3.org/1999/xlink" contentScriptType="application/ecmascript" contentStyleType="text/css" height="847px" preserveAspectRatio="none" style="width:413px;height:847px;background:#00000000;" version="1.1" viewBox="0 0 413 847" width="413px" zoomAndPan="magnify"><defs/><g><!--MD5=[156df1ec125634b672185ad659f2920c]
class phantom_resource--><rect codeLine="17" fill="#194875" height="39.7891" id="phantom_resource" rx="2.5" ry="2.5" style="stroke:#000000;stroke-width:1.5;" width="198" x="179.5" y="404"/><ellipse cx="194.5" cy="423.8945" fill="#1A83AF" rx="11" ry="11" style="stroke:#000000;stroke-width:1.0;"/><path d="M197.4688,429.5352 Q196.8906,429.832 196.25,429.9727 Q195.6094,430.1289 194.9063,430.1289 Q192.4063,430.1289 191.0781,428.4883 Q189.7656,426.832 189.7656,423.707 Q189.7656,420.582 191.0781,418.9258 Q192.4063,417.2695 194.9063,417.2695 Q195.6094,417.2695 196.25,417.4258 Q196.9063,417.582 197.4688,417.8789 L197.4688,420.5977 Q196.8438,420.0195 196.25,419.7539 Q195.6563,419.4727 195.0313,419.4727 Q193.6875,419.4727 193,420.5508 Q192.3125,421.6133 192.3125,423.707 Q192.3125,425.8008 193,426.8789 Q193.6875,427.9414 195.0313,427.9414 Q195.6563,427.9414 196.25,427.6758 Q196.8438,427.3945 197.4688,426.8164 L197.4688,429.5352 Z " fill="#000000"/><text fill="#FFE797" font-family="Helvetica" font-size="17" lengthAdjust="spacing" textLength="156" x="213.5" y="429.7798">phantom_resource</text><!--MD5=[7f0ecf5f554433d3f2e1213379ac821c]
class resource--><rect codeLine="20" fill="#194875" height="275.8359" id="resource" rx="2.5" ry="2.5" style="stroke:#000000;stroke-width:1.5;" width="256" x="150.5" y="7"/><ellipse cx="233.75" cy="26.8945" fill="#1A83AF" rx="11" ry="11" style="stroke:#000000;stroke-width:1.0;"/><path d="M236.7188,32.5352 Q236.1406,32.832 235.5,32.9727 Q234.8594,33.1289 234.1563,33.1289 Q231.6563,33.1289 230.3281,31.4883 Q229.0156,29.832 229.0156,26.707 Q229.0156,23.582 230.3281,21.9258 Q231.6563,20.2695 234.1563,20.2695 Q234.8594,20.2695 235.5,20.4258 Q236.1563,20.582 236.7188,20.8789 L236.7188,23.5977 Q236.0938,23.0195 235.5,22.7539 Q234.9063,22.4727 234.2813,22.4727 Q232.9375,22.4727 232.25,23.5508 Q231.5625,24.6133 231.5625,26.707 Q231.5625,28.8008 232.25,29.8789 Q232.9375,30.9414 234.2813,30.9414 Q234.9063,30.9414 235.5,30.6758 Q236.0938,30.3945 236.7188,29.8164 L236.7188,32.5352 Z " fill="#000000"/><text fill="#FFE797" font-family="Helvetica" font-size="17" lengthAdjust="spacing" textLength="71" x="259.25" y="32.7798">resource</text><line style="stroke:#000000;stroke-width:1.5;" x1="151.5" x2="405.5" y1="46.7891" y2="46.7891"/><text fill="#FFE797" font-family="sans-serif" font-size="11" font-weight="bold" lengthAdjust="spacing" textLength="12" x="161.5" y="65.9995">id</text><text fill="#FFE797" font-family="sans-serif" font-size="11" lengthAdjust="spacing" textLength="41" x="173.5" y="65.9995">: string</text><text fill="#FFE797" font-family="sans-serif" font-size="11" font-weight="bold" lengthAdjust="spacing" textLength="28" x="161.5" y="88.8042">tags</text><text fill="#FFE797" font-family="sans-serif" font-size="11" lengthAdjust="spacing" textLength="145" x="189.5" y="88.8042">: dictionary[string, string]</text><text fill="#FFE797" font-family="sans-serif" font-size="11" font-weight="bold" lengthAdjust="spacing" textLength="35" x="161.5" y="111.6089">name</text><text fill="#FFE797" font-family="sans-serif" font-size="11" lengthAdjust="spacing" textLength="41" x="196.5" y="111.6089">: string</text><text fill="#FFE797" font-family="sans-serif" font-size="11" font-weight="bold" lengthAdjust="spacing" textLength="35" x="161.5" y="134.4136">ctime</text><text fill="#FFE797" font-family="sans-serif" font-size="11" lengthAdjust="spacing" textLength="58" x="196.5" y="134.4136">: datetime</text><text fill="#FFE797" font-family="sans-serif" font-size="11" font-weight="bold" lengthAdjust="spacing" textLength="24" x="161.5" y="157.2183">age</text><text fill="#FFE797" font-family="sans-serif" font-size="11" lengthAdjust="spacing" textLength="159" x="185.5" y="157.2183">: trafo.duration_to_datetime</text><text fill="#FFE797" font-family="sans-serif" font-size="11" font-weight="bold" lengthAdjust="spacing" textLength="39" x="161.5" y="180.0229">mtime</text><text fill="#FFE797" font-family="sans-serif" font-size="11" lengthAdjust="spacing" textLength="58" x="200.5" y="180.0229">: datetime</text><text fill="#FFE797" font-family="sans-serif" font-size="11" font-weight="bold" lengthAdjust="spacing" textLength="75" x="161.5" y="202.8276">last_update</text><text fill="#FFE797" font-family="sans-serif" font-size="11" lengthAdjust="spacing" textLength="159" x="236.5" y="202.8276">: trafo.duration_to_datetime</text><text fill="#FFE797" font-family="sans-serif" font-size="11" font-weight="bold" lengthAdjust="spacing" textLength="36" x="161.5" y="225.6323">atime</text><text fill="#FFE797" font-family="sans-serif" font-size="11" lengthAdjust="spacing" textLength="58" x="197.5" y="225.6323">: datetime</text><text fill="#FFE797" font-family="sans-serif" font-size="11" font-weight="bold" lengthAdjust="spacing" textLength="74" x="161.5" y="248.437">last_access</text><text fill="#FFE797" font-family="sans-serif" font-size="11" lengthAdjust="spacing" textLength="159" x="235.5" y="248.437">: trafo.duration_to_datetime</text><text fill="#FFE797" font-family="sans-serif" font-size="11" font-weight="bold" lengthAdjust="spacing" textLength="27" x="161.5" y="271.2417">kind</text><text fill="#FFE797" font-family="sans-serif" font-size="11" lengthAdjust="spacing" textLength="41" x="188.5" y="271.2417">: string</text><!--MD5=[96a667c91f46910544c8a4dd691a5f67]
class gcp_resource--><rect codeLine="32" fill="#194875" height="93.3984" id="gcp_resource" rx="2.5" ry="2.5" style="stroke:#000000;stroke-width:1.5;" width="169" x="7" y="576.5"/><ellipse cx="30.55" cy="596.3945" fill="#1A83AF" rx="11" ry="11" style="stroke:#000000;stroke-width:1.0;"/><path d="M33.5188,602.0352 Q32.9406,602.332 32.3,602.4727 Q31.6594,602.6289 30.9563,602.6289 Q28.4563,602.6289 27.1281,600.9883 Q25.8156,599.332 25.8156,596.207 Q25.8156,593.082 27.1281,591.4258 Q28.4563,589.7695 30.9563,589.7695 Q31.6594,589.7695 32.3,589.9258 Q32.9563,590.082 33.5188,590.3789 L33.5188,593.0977 Q32.8938,592.5195 32.3,592.2539 Q31.7063,591.9727 31.0813,591.9727 Q29.7375,591.9727 29.05,593.0508 Q28.3625,594.1133 28.3625,596.207 Q28.3625,598.3008 29.05,599.3789 Q29.7375,600.4414 31.0813,600.4414 Q31.7063,600.4414 32.3,600.1758 Q32.8938,599.8945 33.5188,599.3164 L33.5188,602.0352 Z " fill="#000000"/><text fill="#FFE797" font-family="Helvetica" font-size="17" lengthAdjust="spacing" textLength="108" x="51.45" y="602.2798">gcp_resource</text><line style="stroke:#000000;stroke-width:1.5;" x1="8" x2="175" y1="616.2891" y2="616.2891"/><text fill="#FFE797" font-family="sans-serif" font-size="11" font-weight="bold" lengthAdjust="spacing" textLength="23" x="18" y="635.4995">link</text><text fill="#FFE797" font-family="sans-serif" font-size="11" lengthAdjust="spacing" textLength="41" x="41" y="635.4995">: string</text><text fill="#FFE797" font-family="sans-serif" font-size="11" font-weight="bold" lengthAdjust="spacing" textLength="106" x="18" y="658.3042">label_fingerprint</text><text fill="#FFE797" font-family="sans-serif" font-size="11" lengthAdjust="spacing" textLength="41" x="124" y="658.3042">: string</text><!--MD5=[205bc3e74ea7d385e2b6aa1bb29a5024]
class quota--><rect codeLine="36" fill="#194875" height="116.2031" id="quota" rx="2.5" ry="2.5" style="stroke:#000000;stroke-width:1.5;" width="134" x="211.5" y="565"/><ellipse cx="246.3" cy="584.8945" fill="#1A83AF" rx="11" ry="11" style="stroke:#000000;stroke-width:1.0;"/><path d="M249.2688,590.5352 Q248.6906,590.832 248.05,590.9727 Q247.4094,591.1289 246.7063,591.1289 Q244.2063,591.1289 242.8781,589.4883 Q241.5656,587.832 241.5656,584.707 Q241.5656,581.582 242.8781,579.9258 Q244.2063,578.2695 246.7063,578.2695 Q247.4094,578.2695 248.05,578.4258 Q248.7063,578.582 249.2688,578.8789 L249.2688,581.5977 Q248.6438,581.0195 248.05,580.7539 Q247.4563,580.4727 246.8313,580.4727 Q245.4875,580.4727 244.8,581.5508 Q244.1125,582.6133 244.1125,584.707 Q244.1125,586.8008 244.8,587.8789 Q245.4875,588.9414 246.8313,588.9414 Q247.4563,588.9414 248.05,588.6758 Q248.6438,588.3945 249.2688,587.8164 L249.2688,590.5352 Z " fill="#000000"/><text fill="#FFE797" font-family="Helvetica" font-size="17" lengthAdjust="spacing" textLength="48" x="269.7" y="590.7798">quota</text><line style="stroke:#000000;stroke-width:1.5;" x1="212.5" x2="344.5" y1="604.7891" y2="604.7891"/><text fill="#FFE797" font-family="sans-serif" font-size="11" font-weight="bold" lengthAdjust="spacing" textLength="37" x="222.5" y="623.9995">quota</text><text fill="#FFE797" font-family="sans-serif" font-size="11" lengthAdjust="spacing" textLength="46" x="259.5" y="623.9995">: double</text><text fill="#FFE797" font-family="sans-serif" font-size="11" font-weight="bold" lengthAdjust="spacing" textLength="39" x="222.5" y="646.8042">usage</text><text fill="#FFE797" font-family="sans-serif" font-size="11" lengthAdjust="spacing" textLength="46" x="261.5" y="646.8042">: double</text><text fill="#FFE797" font-family="sans-serif" font-size="11" font-weight="bold" lengthAdjust="spacing" textLength="71" x="222.5" y="669.6089">quota_type</text><text fill="#FFE797" font-family="sans-serif" font-size="11" lengthAdjust="spacing" textLength="41" x="293.5" y="669.6089">: string</text><!--MD5=[04ed1fef27aad9af5c56e82c3fd2ab27]
class gcp_quota--><rect codeLine="41" fill="#194875" height="39.7891" id="gcp_quota" rx="2.5" ry="2.5" style="stroke:#000000;stroke-width:1.5;" width="127" x="63" y="802"/><ellipse cx="78" cy="821.8945" fill="#1A83AF" rx="11" ry="11" style="stroke:#000000;stroke-width:1.0;"/><path d="M80.9688,827.5352 Q80.3906,827.832 79.75,827.9727 Q79.1094,828.1289 78.4063,828.1289 Q75.9063,828.1289 74.5781,826.4883 Q73.2656,824.832 73.2656,821.707 Q73.2656,818.582 74.5781,816.9258 Q75.9063,815.2695 78.4063,815.2695 Q79.1094,815.2695 79.75,815.4258 Q80.4063,815.582 80.9688,815.8789 L80.9688,818.5977 Q80.3438,818.0195 79.75,817.7539 Q79.1563,817.4727 78.5313,817.4727 Q77.1875,817.4727 76.5,818.5508 Q75.8125,819.6133 75.8125,821.707 Q75.8125,823.8008 76.5,824.8789 Q77.1875,825.9414 78.5313,825.9414 Q79.1563,825.9414 79.75,825.6758 Q80.3438,825.3945 80.9688,824.8164 L80.9688,827.5352 Z " fill="#000000"/><text fill="#FFE797" font-family="Helvetica" font-size="17" lengthAdjust="spacing" textLength="85" x="97" y="827.7798">gcp_quota</text><!--MD5=[e134558fd6f7e839ecb28ecbda576c0a]
reverse link resource to phantom_resource--><path codeLine="44" d="M278.5,303.48 C278.5,343.73 278.5,381.81 278.5,403.75 " fill="none" id="resource-backto-phantom_resource" style="stroke:#FFAF37;stroke-width:2.0;"/><polygon fill="none" points="271.5,303.28,278.5,283.28,285.5,303.28,271.5,303.28" style="stroke:#FFAF37;stroke-width:2.0;"/><!--MD5=[8c556d10106c40540c768b31155cb09d]
reverse link phantom_resource to quota--><path codeLine="45" d="M278.5,464.28 C278.5,493.07 278.5,532.58 278.5,564.86 " fill="none" id="phantom_resource-backto-quota" style="stroke:#FFAF37;stroke-width:2.0;"/><polygon fill="none" points="271.5,464.25,278.5,444.25,285.5,464.25,271.5,464.25" style="stroke:#FFAF37;stroke-width:2.0;"/><!--MD5=[9634f8cc2e25bc4f5740f5a2632558af]
reverse link gcp_resource to gcp_quota--><path codeLine="46" d="M103.16,689.62 C110.13,728.86 118.5,775.95 123.08,801.75 " fill="none" id="gcp_resource-backto-gcp_quota" style="stroke:#FFAF37;stroke-width:2.0;"/><polygon fill="none" points="96.22,690.61,99.62,669.69,110.01,688.16,96.22,690.61" style="stroke:#FFAF37;stroke-width:2.0;"/><!--MD5=[8be053d3fb83331dd95310dac6d683fe]
reverse link quota to gcp_quota--><path codeLine="47" d="M222.01,697.22 C193.04,734.76 160.02,777.55 141.38,801.71 " fill="none" id="quota-backto-gcp_quota" style="stroke:#FFAF37;stroke-width:2.0;"/><polygon fill="none" points="216.57,692.8,234.33,681.25,227.66,701.36,216.57,692.8" style="stroke:#FFAF37;stroke-width:2.0;"/><!--MD5=[88a38e810ea6c7b3b71d56e2f9bd137c]
@startuml
hide empty members
skinparam ArrowColor #ffaf37
skinparam ArrowThickness 2
skinparam BackgroundColor transparent
skinparam ClassAttributeFontColor #ffe797
skinparam ClassBackgroundColor #194875
skinparam ClassBorderColor Black
skinparam ClassFontColor #ffe797
skinparam ClassFontName Helvetica
skinparam ClassFontSize 17
skinparam Padding 5
skinparam RoundCorner 5
skinparam Shadowing false
skinparam stereotypeCBackgroundColor #1a83af
skinparam stereotypeIBackgroundColor #1a83af

class phantom_resource {

}
class resource {
**id**: string
**tags**: dictionary[string, string]
**name**: string
**ctime**: datetime
**age**: trafo.duration_to_datetime
**mtime**: datetime
**last_update**: trafo.duration_to_datetime
**atime**: datetime
**last_access**: trafo.duration_to_datetime
**kind**: string
}
class gcp_resource {
**link**: string
**label_fingerprint**: string
}
class quota {
**quota**: double
**usage**: double
**quota_type**: string
}
class gcp_quota {

}
resource <|- - - phantom_resource
phantom_resource <|- - - quota
gcp_resource <|- - - gcp_quota
quota <|- - - gcp_quota
@enduml

PlantUML version 1.2021.16(Wed Dec 08 17:25:22 UTC 2021)
(GPL source distribution)
Java Runtime: OpenJDK Runtime Environment
JVM: OpenJDK 64-Bit Server VM
Default Encoding: UTF-8
Language: en
Country: null
--></g></svg>