<?xml version="1.0" encoding="UTF-8" standalone="no"?><svg xmlns="http://www.w3.org/2000/svg" xmlns:xlink="http://www.w3.org/1999/xlink" contentScriptType="application/ecmascript" contentStyleType="text/css" height="663px" preserveAspectRatio="none" style="width:399px;height:663px;background:#00000000;" version="1.1" viewBox="0 0 399 663" width="399px" zoomAndPan="magnify"><defs/><g><!--MD5=[7f0ecf5f554433d3f2e1213379ac821c]
class resource--><rect codeLine="17" fill="#194875" height="275.8359" id="resource" rx="2.5" ry="2.5" style="stroke:#000000;stroke-width:1.5;" width="256" x="7" y="7"/><ellipse cx="90.25" cy="26.8945" fill="#1A83AF" rx="11" ry="11" style="stroke:#000000;stroke-width:1.0;"/><path d="M93.2188,32.5352 Q92.6406,32.832 92,32.9727 Q91.3594,33.1289 90.6563,33.1289 Q88.1563,33.1289 86.8281,31.4883 Q85.5156,29.832 85.5156,26.707 Q85.5156,23.582 86.8281,21.9258 Q88.1563,20.2695 90.6563,20.2695 Q91.3594,20.2695 92,20.4258 Q92.6563,20.582 93.2188,20.8789 L93.2188,23.5977 Q92.5938,23.0195 92,22.7539 Q91.4063,22.4727 90.7813,22.4727 Q89.4375,22.4727 88.75,23.5508 Q88.0625,24.6133 88.0625,26.707 Q88.0625,28.8008 88.75,29.8789 Q89.4375,30.9414 90.7813,30.9414 Q91.4063,30.9414 92,30.6758 Q92.5938,30.3945 93.2188,29.8164 L93.2188,32.5352 Z " fill="#000000"/><text fill="#FFE797" font-family="Helvetica" font-size="17" lengthAdjust="spacing" textLength="71" x="115.75" y="32.7798">resource</text><line style="stroke:#000000;stroke-width:1.5;" x1="8" x2="262" y1="46.7891" y2="46.7891"/><text fill="#FFE797" font-family="sans-serif" font-size="11" font-weight="bold" lengthAdjust="spacing" textLength="12" x="18" y="65.9995">id</text><text fill="#FFE797" font-family="sans-serif" font-size="11" lengthAdjust="spacing" textLength="41" x="30" y="65.9995">: string</text><text fill="#FFE797" font-family="sans-serif" font-size="11" font-weight="bold" lengthAdjust="spacing" textLength="28" x="18" y="88.8042">tags</text><text fill="#FFE797" font-family="sans-serif" font-size="11" lengthAdjust="spacing" textLength="145" x="46" y="88.8042">: dictionary[string, string]</text><text fill="#FFE797" font-family="sans-serif" font-size="11" font-weight="bold" lengthAdjust="spacing" textLength="35" x="18" y="111.6089">name</text><text fill="#FFE797" font-family="sans-serif" font-size="11" lengthAdjust="spacing" textLength="41" x="53" y="111.6089">: string</text><text fill="#FFE797" font-family="sans-serif" font-size="11" font-weight="bold" lengthAdjust="spacing" textLength="35" x="18" y="134.4136">ctime</text><text fill="#FFE797" font-family="sans-serif" font-size="11" lengthAdjust="spacing" textLength="58" x="53" y="134.4136">: datetime</text><text fill="#FFE797" font-family="sans-serif" font-size="11" font-weight="bold" lengthAdjust="spacing" textLength="24" x="18" y="157.2183">age</text><text fill="#FFE797" font-family="sans-serif" font-size="11" lengthAdjust="spacing" textLength="159" x="42" y="157.2183">: trafo.duration_to_datetime</text><text fill="#FFE797" font-family="sans-serif" font-size="11" font-weight="bold" lengthAdjust="spacing" textLength="39" x="18" y="180.0229">mtime</text><text fill="#FFE797" font-family="sans-serif" font-size="11" lengthAdjust="spacing" textLength="58" x="57" y="180.0229">: datetime</text><text fill="#FFE797" font-family="sans-serif" font-size="11" font-weight="bold" lengthAdjust="spacing" textLength="75" x="18" y="202.8276">last_update</text><text fill="#FFE797" font-family="sans-serif" font-size="11" lengthAdjust="spacing" textLength="159" x="93" y="202.8276">: trafo.duration_to_datetime</text><text fill="#FFE797" font-family="sans-serif" font-size="11" font-weight="bold" lengthAdjust="spacing" textLength="36" x="18" y="225.6323">atime</text><text fill="#FFE797" font-family="sans-serif" font-size="11" lengthAdjust="spacing" textLength="58" x="54" y="225.6323">: datetime</text><text fill="#FFE797" font-family="sans-serif" font-size="11" font-weight="bold" lengthAdjust="spacing" textLength="74" x="18" y="248.437">last_access</text><text fill="#FFE797" font-family="sans-serif" font-size="11" lengthAdjust="spacing" textLength="159" x="92" y="248.437">: trafo.duration_to_datetime</text><text fill="#FFE797" font-family="sans-serif" font-size="11" font-weight="bold" lengthAdjust="spacing" textLength="27" x="18" y="271.2417">kind</text><text fill="#FFE797" font-family="sans-serif" font-size="11" lengthAdjust="spacing" textLength="41" x="45" y="271.2417">: string</text><!--MD5=[cd869b34d688661372d713ff53dbac1f]
class account--><rect codeLine="29" fill="#194875" height="39.7891" id="account" rx="2.5" ry="2.5" style="stroke:#000000;stroke-width:1.5;" width="107" x="81.5" y="430.5"/><ellipse cx="96.5" cy="450.3945" fill="#1A83AF" rx="11" ry="11" style="stroke:#000000;stroke-width:1.0;"/><path d="M99.4688,456.0352 Q98.8906,456.332 98.25,456.4727 Q97.6094,456.6289 96.9063,456.6289 Q94.4063,456.6289 93.0781,454.9883 Q91.7656,453.332 91.7656,450.207 Q91.7656,447.082 93.0781,445.4258 Q94.4063,443.7695 96.9063,443.7695 Q97.6094,443.7695 98.25,443.9258 Q98.9063,444.082 99.4688,444.3789 L99.4688,447.0977 Q98.8438,446.5195 98.25,446.2539 Q97.6563,445.9727 97.0313,445.9727 Q95.6875,445.9727 95,447.0508 Q94.3125,448.1133 94.3125,450.207 Q94.3125,452.3008 95,453.3789 Q95.6875,454.4414 97.0313,454.4414 Q97.6563,454.4414 98.25,454.1758 Q98.8438,453.8945 99.4688,453.3164 L99.4688,456.0352 Z " fill="#000000"/><text fill="#FFE797" font-family="Helvetica" font-size="17" lengthAdjust="spacing" textLength="65" x="115.5" y="456.2798">account</text><!--MD5=[96a667c91f46910544c8a4dd691a5f67]
class gcp_resource--><rect codeLine="32" fill="#194875" height="93.3984" id="gcp_resource" rx="2.5" ry="2.5" style="stroke:#000000;stroke-width:1.5;" width="169" x="223.5" y="404"/><ellipse cx="247.05" cy="423.8945" fill="#1A83AF" rx="11" ry="11" style="stroke:#000000;stroke-width:1.0;"/><path d="M250.0188,429.5352 Q249.4406,429.832 248.8,429.9727 Q248.1594,430.1289 247.4563,430.1289 Q244.9563,430.1289 243.6281,428.4883 Q242.3156,426.832 242.3156,423.707 Q242.3156,420.582 243.6281,418.9258 Q244.9563,417.2695 247.4563,417.2695 Q248.1594,417.2695 248.8,417.4258 Q249.4563,417.582 250.0188,417.8789 L250.0188,420.5977 Q249.3938,420.0195 248.8,419.7539 Q248.2063,419.4727 247.5813,419.4727 Q246.2375,419.4727 245.55,420.5508 Q244.8625,421.6133 244.8625,423.707 Q244.8625,425.8008 245.55,426.8789 Q246.2375,427.9414 247.5813,427.9414 Q248.2063,427.9414 248.8,427.6758 Q249.3938,427.3945 250.0188,426.8164 L250.0188,429.5352 Z " fill="#000000"/><text fill="#FFE797" font-family="Helvetica" font-size="17" lengthAdjust="spacing" textLength="108" x="267.95" y="429.7798">gcp_resource</text><line style="stroke:#000000;stroke-width:1.5;" x1="224.5" x2="391.5" y1="443.7891" y2="443.7891"/><text fill="#FFE797" font-family="sans-serif" font-size="11" font-weight="bold" lengthAdjust="spacing" textLength="23" x="234.5" y="462.9995">link</text><text fill="#FFE797" font-family="sans-serif" font-size="11" lengthAdjust="spacing" textLength="41" x="257.5" y="462.9995">: string</text><text fill="#FFE797" font-family="sans-serif" font-size="11" font-weight="bold" lengthAdjust="spacing" textLength="106" x="234.5" y="485.8042">label_fingerprint</text><text fill="#FFE797" font-family="sans-serif" font-size="11" lengthAdjust="spacing" textLength="41" x="340.5" y="485.8042">: string</text><!--MD5=[cab11c6fb1c2871eb7d2e02e154ea8ef]
class gcp_project--><rect codeLine="36" fill="#194875" height="39.7891" id="gcp_project" rx="2.5" ry="2.5" style="stroke:#000000;stroke-width:1.5;" width="136" x="179" y="618"/><ellipse cx="194" cy="637.8945" fill="#1A83AF" rx="11" ry="11" style="stroke:#000000;stroke-width:1.0;"/><path d="M196.9688,643.5352 Q196.3906,643.832 195.75,643.9727 Q195.1094,644.1289 194.4063,644.1289 Q191.9063,644.1289 190.5781,642.4883 Q189.2656,640.832 189.2656,637.707 Q189.2656,634.582 190.5781,632.9258 Q191.9063,631.2695 194.4063,631.2695 Q195.1094,631.2695 195.75,631.4258 Q196.4063,631.582 196.9688,631.8789 L196.9688,634.5977 Q196.3438,634.0195 195.75,633.7539 Q195.1563,633.4727 194.5313,633.4727 Q193.1875,633.4727 192.5,634.5508 Q191.8125,635.6133 191.8125,637.707 Q191.8125,639.8008 192.5,640.8789 Q193.1875,641.9414 194.5313,641.9414 Q195.1563,641.9414 195.75,641.6758 Q196.3438,641.3945 196.9688,640.8164 L196.9688,643.5352 Z " fill="#000000"/><text fill="#FFE797" font-family="Helvetica" font-size="17" lengthAdjust="spacing" textLength="94" x="213" y="643.7798">gcp_project</text><!--MD5=[62607f6f3c82c72f08ad8473d4c0997b]
reverse link resource to account--><path codeLine="39" d="M135,303.26 C135,353.92 135,403.76 135,430.16 " fill="none" id="resource-backto-account" style="stroke:#FFAF37;stroke-width:2.0;"/><polygon fill="none" points="128,303.1,135,283.1,142,303.1,128,303.1" style="stroke:#FFAF37;stroke-width:2.0;"/><!--MD5=[893b8694a9a1eb27371d08a39e09caa8]
reverse link gcp_resource to gcp_project--><path codeLine="40" d="M286.66,516.39 C274.94,552.04 261.22,593.74 253.38,617.6 " fill="none" id="gcp_resource-backto-gcp_project" style="stroke:#FFAF37;stroke-width:2.0;"/><polygon fill="none" points="280.02,514.17,292.92,497.35,293.32,518.54,280.02,514.17" style="stroke:#FFAF37;stroke-width:2.0;"/><!--MD5=[0bbd592a4c1d1ed9c5c4fb780fb9cfbd]
reverse link account to gcp_project--><path codeLine="41" d="M156.96,487.86 C180.52,526.89 217.05,587.39 235.5,617.95 " fill="none" id="account-backto-gcp_project" style="stroke:#FFAF37;stroke-width:2.0;"/><polygon fill="none" points="150.91,491.39,146.56,470.65,162.89,484.16,150.91,491.39" style="stroke:#FFAF37;stroke-width:2.0;"/><!--MD5=[2a563870617ee06c81c17b3aaeb431b3]
@startuml
hide empty members
skinparam ArrowColor #ffaf37
skinparam ArrowThickness 2
skinparam BackgroundColor transparent
skinparam ClassAttributeFontColor #ffe797
skinparam ClassBackgroundColor #194875
skinparam ClassBorderColor Black
skinparam ClassFontColor #ffe797
skinparam ClassFontName Helvetica
skinparam ClassFontSize 17
skinparam Padding 5
skinparam RoundCorner 5
skinparam Shadowing false
skinparam stereotypeCBackgroundColor #1a83af
skinparam stereotypeIBackgroundColor #1a83af

class resource {
**id**: string
**tags**: dictionary[string, string]
**name**: string
**ctime**: datetime
**age**: trafo.duration_to_datetime
**mtime**: datetime
**last_update**: trafo.duration_to_datetime
**atime**: datetime
**last_access**: trafo.duration_to_datetime
**kind**: string
}
class account {

}
class gcp_resource {
**link**: string
**label_fingerprint**: string
}
class gcp_project {

}
resource <|- - - account
gcp_resource <|- - - gcp_project
account <|- - - gcp_project
@enduml

PlantUML version 1.2021.16(Wed Dec 08 17:25:22 UTC 2021)
(GPL source distribution)
Java Runtime: OpenJDK Runtime Environment
JVM: OpenJDK 64-Bit Server VM
Default Encoding: UTF-8
Language: en
Country: null
--></g></svg>