<?xml version="1.0" encoding="UTF-8" standalone="no"?><svg xmlns="http://www.w3.org/2000/svg" xmlns:xlink="http://www.w3.org/1999/xlink" contentScriptType="application/ecmascript" contentStyleType="text/css" height="561px" preserveAspectRatio="none" style="width:415px;height:561px;background:#00000000;" version="1.1" viewBox="0 0 415 561" width="415px" zoomAndPan="magnify"><defs><filter height="300%" id="fv9tdskh68l2r" width="300%" x="-1" y="-1"><feGaussianBlur result="blurOut" stdDeviation="2.0"/><feColorMatrix in="blurOut" result="blurOut2" type="matrix" values="0 0 0 0 0 0 0 0 0 0 0 0 0 0 0 0 0 0 .4 0"/><feOffset dx="4.0" dy="4.0" in="blurOut2" result="blurOut3"/><feBlend in="SourceGraphic" in2="blurOut3" mode="normal"/></filter></defs><g><!--MD5=[7f0ecf5f554433d3f2e1213379ac821c]
class resource--><rect codeLine="2" fill="#FEFECE" filter="url(#fv9tdskh68l2r)" height="176.0469" id="resource" style="stroke:#A80036;stroke-width:1.5;" width="252" x="7" y="7"/><ellipse cx="100.75" cy="23" fill="#ADD1B2" rx="11" ry="11" style="stroke:#A80036;stroke-width:1.0;"/><path d="M103.7188,28.6406 Q103.1406,28.9375 102.5,29.0781 Q101.8594,29.2344 101.1563,29.2344 Q98.6563,29.2344 97.3281,27.5938 Q96.0156,25.9375 96.0156,22.8125 Q96.0156,19.6875 97.3281,18.0313 Q98.6563,16.375 101.1563,16.375 Q101.8594,16.375 102.5,16.5313 Q103.1563,16.6875 103.7188,16.9844 L103.7188,19.7031 Q103.0938,19.125 102.5,18.8594 Q101.9063,18.5781 101.2813,18.5781 Q99.9375,18.5781 99.25,19.6563 Q98.5625,20.7188 98.5625,22.8125 Q98.5625,24.9063 99.25,25.9844 Q99.9375,27.0469 101.2813,27.0469 Q101.9063,27.0469 102.5,26.7813 Q103.0938,26.5 103.7188,25.9219 L103.7188,28.6406 Z " fill="#000000"/><text fill="#000000" font-family="sans-serif" font-size="12" lengthAdjust="spacing" textLength="56" x="121.25" y="27.1543">resource</text><line style="stroke:#A80036;stroke-width:1.5;" x1="8" x2="258" y1="39" y2="39"/><ellipse cx="18" cy="50" rx="3" ry="3" style="stroke:#038048;stroke-width:1.0;fill:none;"/><text fill="#000000" font-family="sans-serif" font-size="11" lengthAdjust="spacing" textLength="51" x="27" y="53.2104">id: string</text><ellipse cx="18" cy="62.8047" rx="3" ry="3" style="stroke:#038048;stroke-width:1.0;fill:none;"/><text fill="#000000" font-family="sans-serif" font-size="11" lengthAdjust="spacing" textLength="170" x="27" y="66.0151">tags: dictionary[string, string]</text><ellipse cx="18" cy="75.6094" rx="3" ry="3" style="stroke:#038048;stroke-width:1.0;fill:none;"/><text fill="#000000" font-family="sans-serif" font-size="11" lengthAdjust="spacing" textLength="73" x="27" y="78.8198">name: string</text><ellipse cx="18" cy="88.4141" rx="3" ry="3" style="stroke:#038048;stroke-width:1.0;fill:none;"/><text fill="#000000" font-family="sans-serif" font-size="11" lengthAdjust="spacing" textLength="89" x="27" y="91.6245">ctime: datetime</text><ellipse cx="18" cy="101.2188" rx="3" ry="3" style="stroke:#038048;stroke-width:1.0;fill:none;"/><text fill="#000000" font-family="sans-serif" font-size="11" lengthAdjust="spacing" textLength="180" x="27" y="104.4292">age: trafo.duration_to_datetime</text><ellipse cx="18" cy="114.0234" rx="3" ry="3" style="stroke:#038048;stroke-width:1.0;fill:none;"/><text fill="#000000" font-family="sans-serif" font-size="11" lengthAdjust="spacing" textLength="94" x="27" y="117.2339">mtime: datetime</text><ellipse cx="18" cy="126.8281" rx="3" ry="3" style="stroke:#038048;stroke-width:1.0;fill:none;"/><text fill="#000000" font-family="sans-serif" font-size="11" lengthAdjust="spacing" textLength="225" x="27" y="130.0386">last_update: trafo.duration_to_datetime</text><ellipse cx="18" cy="139.6328" rx="3" ry="3" style="stroke:#038048;stroke-width:1.0;fill:none;"/><text fill="#000000" font-family="sans-serif" font-size="11" lengthAdjust="spacing" textLength="90" x="27" y="142.8433">atime: datetime</text><ellipse cx="18" cy="152.4375" rx="3" ry="3" style="stroke:#038048;stroke-width:1.0;fill:none;"/><text fill="#000000" font-family="sans-serif" font-size="11" lengthAdjust="spacing" textLength="226" x="27" y="155.6479">last_access: trafo.duration_to_datetime</text><ellipse cx="18" cy="165.2422" rx="3" ry="3" style="stroke:#038048;stroke-width:1.0;fill:none;"/><text fill="#000000" font-family="sans-serif" font-size="11" lengthAdjust="spacing" textLength="64" x="27" y="168.4526">kind: string</text><line style="stroke:#A80036;stroke-width:1.5;" x1="8" x2="258" y1="175.0469" y2="175.0469"/><!--MD5=[96a667c91f46910544c8a4dd691a5f67]
class gcp_resource--><rect codeLine="14" fill="#FEFECE" filter="url(#fv9tdskh68l2r)" height="73.6094" id="gcp_resource" style="stroke:#A80036;stroke-width:1.5;" width="159" x="242.5" y="304"/><ellipse cx="276.4" cy="320" fill="#ADD1B2" rx="11" ry="11" style="stroke:#A80036;stroke-width:1.0;"/><path d="M279.3688,325.6406 Q278.7906,325.9375 278.15,326.0781 Q277.5094,326.2344 276.8063,326.2344 Q274.3063,326.2344 272.9781,324.5938 Q271.6656,322.9375 271.6656,319.8125 Q271.6656,316.6875 272.9781,315.0313 Q274.3063,313.375 276.8063,313.375 Q277.5094,313.375 278.15,313.5313 Q278.8063,313.6875 279.3688,313.9844 L279.3688,316.7031 Q278.7438,316.125 278.15,315.8594 Q277.5563,315.5781 276.9313,315.5781 Q275.5875,315.5781 274.9,316.6563 Q274.2125,317.7188 274.2125,319.8125 Q274.2125,321.9063 274.9,322.9844 Q275.5875,324.0469 276.9313,324.0469 Q277.5563,324.0469 278.15,323.7813 Q278.7438,323.5 279.3688,322.9219 L279.3688,325.6406 Z " fill="#000000"/><text fill="#000000" font-family="sans-serif" font-size="12" lengthAdjust="spacing" textLength="85" x="294.6" y="324.1543">gcp_resource</text><line style="stroke:#A80036;stroke-width:1.5;" x1="243.5" x2="400.5" y1="336" y2="336"/><ellipse cx="253.5" cy="347" rx="3" ry="3" style="stroke:#038048;stroke-width:1.0;fill:none;"/><text fill="#000000" font-family="sans-serif" font-size="11" lengthAdjust="spacing" textLength="60" x="262.5" y="350.2104">link: string</text><ellipse cx="253.5" cy="359.8047" rx="3" ry="3" style="stroke:#038048;stroke-width:1.0;fill:none;"/><text fill="#000000" font-family="sans-serif" font-size="11" lengthAdjust="spacing" textLength="133" x="262.5" y="363.0151">label_fingerprint: string</text><line style="stroke:#A80036;stroke-width:1.5;" x1="243.5" x2="400.5" y1="369.6094" y2="369.6094"/><!--MD5=[524a0d867f3f91bd9f824d8a37d28e16]
class autoscaling_group--><rect codeLine="18" fill="#FEFECE" filter="url(#fv9tdskh68l2r)" height="73.6094" id="autoscaling_group" style="stroke:#A80036;stroke-width:1.5;" width="148" x="59" y="304"/><ellipse cx="74" cy="320" fill="#ADD1B2" rx="11" ry="11" style="stroke:#A80036;stroke-width:1.0;"/><path d="M76.9688,325.6406 Q76.3906,325.9375 75.75,326.0781 Q75.1094,326.2344 74.4063,326.2344 Q71.9063,326.2344 70.5781,324.5938 Q69.2656,322.9375 69.2656,319.8125 Q69.2656,316.6875 70.5781,315.0313 Q71.9063,313.375 74.4063,313.375 Q75.1094,313.375 75.75,313.5313 Q76.4063,313.6875 76.9688,313.9844 L76.9688,316.7031 Q76.3438,316.125 75.75,315.8594 Q75.1563,315.5781 74.5313,315.5781 Q73.1875,315.5781 72.5,316.6563 Q71.8125,317.7188 71.8125,319.8125 Q71.8125,321.9063 72.5,322.9844 Q73.1875,324.0469 74.5313,324.0469 Q75.1563,324.0469 75.75,323.7813 Q76.3438,323.5 76.9688,322.9219 L76.9688,325.6406 Z " fill="#000000"/><text fill="#000000" font-family="sans-serif" font-size="12" lengthAdjust="spacing" textLength="116" x="88" y="324.1543">autoscaling_group</text><line style="stroke:#A80036;stroke-width:1.5;" x1="60" x2="206" y1="336" y2="336"/><ellipse cx="70" cy="347" rx="3" ry="3" style="stroke:#038048;stroke-width:1.0;fill:none;"/><text fill="#000000" font-family="sans-serif" font-size="11" lengthAdjust="spacing" textLength="85" x="79" y="350.2104">min_size: int64</text><ellipse cx="70" cy="359.8047" rx="3" ry="3" style="stroke:#038048;stroke-width:1.0;fill:none;"/><text fill="#000000" font-family="sans-serif" font-size="11" lengthAdjust="spacing" textLength="88" x="79" y="363.0151">max_size: int64</text><line style="stroke:#A80036;stroke-width:1.5;" x1="60" x2="206" y1="369.6094" y2="369.6094"/><!--MD5=[4f095a0b2a596b2c69ecd53cefd1c1d0]
class gcp_autoscaler--><rect codeLine="22" fill="#FEFECE" filter="url(#fv9tdskh68l2r)" height="48" id="gcp_autoscaler" style="stroke:#A80036;stroke-width:1.5;" width="128" x="163" y="499"/><ellipse cx="178" cy="515" fill="#ADD1B2" rx="11" ry="11" style="stroke:#A80036;stroke-width:1.0;"/><path d="M180.9688,520.6406 Q180.3906,520.9375 179.75,521.0781 Q179.1094,521.2344 178.4063,521.2344 Q175.9063,521.2344 174.5781,519.5938 Q173.2656,517.9375 173.2656,514.8125 Q173.2656,511.6875 174.5781,510.0313 Q175.9063,508.375 178.4063,508.375 Q179.1094,508.375 179.75,508.5313 Q180.4063,508.6875 180.9688,508.9844 L180.9688,511.7031 Q180.3438,511.125 179.75,510.8594 Q179.1563,510.5781 178.5313,510.5781 Q177.1875,510.5781 176.5,511.6563 Q175.8125,512.7188 175.8125,514.8125 Q175.8125,516.9063 176.5,517.9844 Q177.1875,519.0469 178.5313,519.0469 Q179.1563,519.0469 179.75,518.7813 Q180.3438,518.5 180.9688,517.9219 L180.9688,520.6406 Z " fill="#000000"/><text fill="#000000" font-family="sans-serif" font-size="12" lengthAdjust="spacing" textLength="96" x="192" y="519.1543">gcp_autoscaler</text><line style="stroke:#A80036;stroke-width:1.5;" x1="164" x2="290" y1="531" y2="531"/><line style="stroke:#A80036;stroke-width:1.5;" x1="164" x2="290" y1="539" y2="539"/><!--MD5=[300d2197a1ec4ee7c85286d308478953]
reverse link resource to autoscaling_group--><path codeLine="25" d="M133,203.16 C133,239.31 133,277.21 133,303.94 " fill="none" id="resource-backto-autoscaling_group" style="stroke:#A80036;stroke-width:1.0;"/><polygon fill="none" points="126,203.06,133,183.06,140,203.06,126,203.06" style="stroke:#A80036;stroke-width:1.0;"/><!--MD5=[3e919385a5e2126037e5996729e2a9e1]
reverse link gcp_resource to gcp_autoscaler--><path codeLine="26" d="M293.27,396.44 C275.21,430.65 252.84,473.04 239.26,498.77 " fill="none" id="gcp_resource-backto-gcp_autoscaler" style="stroke:#A80036;stroke-width:1.0;"/><polygon fill="none" points="287.25,392.85,302.78,378.43,299.63,399.38,287.25,392.85" style="stroke:#A80036;stroke-width:1.0;"/><!--MD5=[bcf0534e34fa99c742337b202aaed196]
reverse link autoscaling_group to gcp_autoscaler--><path codeLine="27" d="M161.43,396.44 C179.3,430.65 201.43,473.04 214.87,498.77 " fill="none" id="autoscaling_group-backto-gcp_autoscaler" style="stroke:#A80036;stroke-width:1.0;"/><polygon fill="none" points="155.08,399.39,152.02,378.43,167.49,392.91,155.08,399.39" style="stroke:#A80036;stroke-width:1.0;"/><!--MD5=[bd199ff30f28891d3b6d2f123fbda777]
@startuml
skinparam backgroundcolor transparent
class resource {
+ id: string
+ tags: dictionary[string, string]
+ name: string
+ ctime: datetime
+ age: trafo.duration_to_datetime
+ mtime: datetime
+ last_update: trafo.duration_to_datetime
+ atime: datetime
+ last_access: trafo.duration_to_datetime
+ kind: string
}
class gcp_resource {
+ link: string
+ label_fingerprint: string
}
class autoscaling_group {
+ min_size: int64
+ max_size: int64
}
class gcp_autoscaler {

}
resource <|- - - autoscaling_group
gcp_resource <|- - - gcp_autoscaler
autoscaling_group <|- - - gcp_autoscaler
@enduml

PlantUML version 1.2021.16(Wed Dec 08 17:25:22 UTC 2021)
(GPL source distribution)
Java Runtime: OpenJDK Runtime Environment
JVM: OpenJDK 64-Bit Server VM
Default Encoding: UTF-8
Language: en
Country: null
--></g></svg>