<?xml version="1.0" encoding="UTF-8" standalone="no"?><svg xmlns="http://www.w3.org/2000/svg" xmlns:xlink="http://www.w3.org/1999/xlink" contentScriptType="application/ecmascript" contentStyleType="text/css" height="612px" preserveAspectRatio="none" style="width:378px;height:612px;background:#00000000;" version="1.1" viewBox="0 0 378 612" width="378px" zoomAndPan="magnify"><defs><filter height="300%" id="f1n356jyh7q1n9" width="300%" x="-1" y="-1"><feGaussianBlur result="blurOut" stdDeviation="2.0"/><feColorMatrix in="blurOut" result="blurOut2" type="matrix" values="0 0 0 0 0 0 0 0 0 0 0 0 0 0 0 0 0 0 .4 0"/><feOffset dx="4.0" dy="4.0" in="blurOut2" result="blurOut3"/><feBlend in="SourceGraphic" in2="blurOut3" mode="normal"/></filter></defs><g><!--MD5=[7f0ecf5f554433d3f2e1213379ac821c]
class resource--><rect codeLine="2" fill="#FEFECE" filter="url(#f1n356jyh7q1n9)" height="176.0469" id="resource" style="stroke:#A80036;stroke-width:1.5;" width="252" x="7" y="7"/><ellipse cx="100.75" cy="23" fill="#ADD1B2" rx="11" ry="11" style="stroke:#A80036;stroke-width:1.0;"/><path d="M103.7188,28.6406 Q103.1406,28.9375 102.5,29.0781 Q101.8594,29.2344 101.1563,29.2344 Q98.6563,29.2344 97.3281,27.5938 Q96.0156,25.9375 96.0156,22.8125 Q96.0156,19.6875 97.3281,18.0313 Q98.6563,16.375 101.1563,16.375 Q101.8594,16.375 102.5,16.5313 Q103.1563,16.6875 103.7188,16.9844 L103.7188,19.7031 Q103.0938,19.125 102.5,18.8594 Q101.9063,18.5781 101.2813,18.5781 Q99.9375,18.5781 99.25,19.6563 Q98.5625,20.7188 98.5625,22.8125 Q98.5625,24.9063 99.25,25.9844 Q99.9375,27.0469 101.2813,27.0469 Q101.9063,27.0469 102.5,26.7813 Q103.0938,26.5 103.7188,25.9219 L103.7188,28.6406 Z " fill="#000000"/><text fill="#000000" font-family="sans-serif" font-size="12" lengthAdjust="spacing" textLength="56" x="121.25" y="27.1543">resource</text><line style="stroke:#A80036;stroke-width:1.5;" x1="8" x2="258" y1="39" y2="39"/><ellipse cx="18" cy="50" rx="3" ry="3" style="stroke:#038048;stroke-width:1.0;fill:none;"/><text fill="#000000" font-family="sans-serif" font-size="11" lengthAdjust="spacing" textLength="51" x="27" y="53.2104">id: string</text><ellipse cx="18" cy="62.8047" rx="3" ry="3" style="stroke:#038048;stroke-width:1.0;fill:none;"/><text fill="#000000" font-family="sans-serif" font-size="11" lengthAdjust="spacing" textLength="170" x="27" y="66.0151">tags: dictionary[string, string]</text><ellipse cx="18" cy="75.6094" rx="3" ry="3" style="stroke:#038048;stroke-width:1.0;fill:none;"/><text fill="#000000" font-family="sans-serif" font-size="11" lengthAdjust="spacing" textLength="73" x="27" y="78.8198">name: string</text><ellipse cx="18" cy="88.4141" rx="3" ry="3" style="stroke:#038048;stroke-width:1.0;fill:none;"/><text fill="#000000" font-family="sans-serif" font-size="11" lengthAdjust="spacing" textLength="89" x="27" y="91.6245">ctime: datetime</text><ellipse cx="18" cy="101.2188" rx="3" ry="3" style="stroke:#038048;stroke-width:1.0;fill:none;"/><text fill="#000000" font-family="sans-serif" font-size="11" lengthAdjust="spacing" textLength="180" x="27" y="104.4292">age: trafo.duration_to_datetime</text><ellipse cx="18" cy="114.0234" rx="3" ry="3" style="stroke:#038048;stroke-width:1.0;fill:none;"/><text fill="#000000" font-family="sans-serif" font-size="11" lengthAdjust="spacing" textLength="94" x="27" y="117.2339">mtime: datetime</text><ellipse cx="18" cy="126.8281" rx="3" ry="3" style="stroke:#038048;stroke-width:1.0;fill:none;"/><text fill="#000000" font-family="sans-serif" font-size="11" lengthAdjust="spacing" textLength="225" x="27" y="130.0386">last_update: trafo.duration_to_datetime</text><ellipse cx="18" cy="139.6328" rx="3" ry="3" style="stroke:#038048;stroke-width:1.0;fill:none;"/><text fill="#000000" font-family="sans-serif" font-size="11" lengthAdjust="spacing" textLength="90" x="27" y="142.8433">atime: datetime</text><ellipse cx="18" cy="152.4375" rx="3" ry="3" style="stroke:#038048;stroke-width:1.0;fill:none;"/><text fill="#000000" font-family="sans-serif" font-size="11" lengthAdjust="spacing" textLength="226" x="27" y="155.6479">last_access: trafo.duration_to_datetime</text><ellipse cx="18" cy="165.2422" rx="3" ry="3" style="stroke:#038048;stroke-width:1.0;fill:none;"/><text fill="#000000" font-family="sans-serif" font-size="11" lengthAdjust="spacing" textLength="64" x="27" y="168.4526">kind: string</text><line style="stroke:#A80036;stroke-width:1.5;" x1="8" x2="258" y1="175.0469" y2="175.0469"/><!--MD5=[96a667c91f46910544c8a4dd691a5f67]
class gcp_resource--><rect codeLine="14" fill="#FEFECE" filter="url(#f1n356jyh7q1n9)" height="73.6094" id="gcp_resource" style="stroke:#A80036;stroke-width:1.5;" width="159" x="205.5" y="304"/><ellipse cx="239.4" cy="320" fill="#ADD1B2" rx="11" ry="11" style="stroke:#A80036;stroke-width:1.0;"/><path d="M242.3688,325.6406 Q241.7906,325.9375 241.15,326.0781 Q240.5094,326.2344 239.8063,326.2344 Q237.3063,326.2344 235.9781,324.5938 Q234.6656,322.9375 234.6656,319.8125 Q234.6656,316.6875 235.9781,315.0313 Q237.3063,313.375 239.8063,313.375 Q240.5094,313.375 241.15,313.5313 Q241.8063,313.6875 242.3688,313.9844 L242.3688,316.7031 Q241.7438,316.125 241.15,315.8594 Q240.5563,315.5781 239.9313,315.5781 Q238.5875,315.5781 237.9,316.6563 Q237.2125,317.7188 237.2125,319.8125 Q237.2125,321.9063 237.9,322.9844 Q238.5875,324.0469 239.9313,324.0469 Q240.5563,324.0469 241.15,323.7813 Q241.7438,323.5 242.3688,322.9219 L242.3688,325.6406 Z " fill="#000000"/><text fill="#000000" font-family="sans-serif" font-size="12" lengthAdjust="spacing" textLength="85" x="257.6" y="324.1543">gcp_resource</text><line style="stroke:#A80036;stroke-width:1.5;" x1="206.5" x2="363.5" y1="336" y2="336"/><ellipse cx="216.5" cy="347" rx="3" ry="3" style="stroke:#038048;stroke-width:1.0;fill:none;"/><text fill="#000000" font-family="sans-serif" font-size="11" lengthAdjust="spacing" textLength="60" x="225.5" y="350.2104">link: string</text><ellipse cx="216.5" cy="359.8047" rx="3" ry="3" style="stroke:#038048;stroke-width:1.0;fill:none;"/><text fill="#000000" font-family="sans-serif" font-size="11" lengthAdjust="spacing" textLength="133" x="225.5" y="363.0151">label_fingerprint: string</text><line style="stroke:#A80036;stroke-width:1.5;" x1="206.5" x2="363.5" y1="369.6094" y2="369.6094"/><!--MD5=[f4cc44c3074f4ca2463ff99379771cb8]
class gcp_bucket--><rect codeLine="18" fill="#FEFECE" filter="url(#f1n356jyh7q1n9)" height="99.2188" id="gcp_bucket" style="stroke:#A80036;stroke-width:1.5;" width="184" x="137" y="499"/><ellipse cx="188.75" cy="515" fill="#ADD1B2" rx="11" ry="11" style="stroke:#A80036;stroke-width:1.0;"/><path d="M191.7188,520.6406 Q191.1406,520.9375 190.5,521.0781 Q189.8594,521.2344 189.1563,521.2344 Q186.6563,521.2344 185.3281,519.5938 Q184.0156,517.9375 184.0156,514.8125 Q184.0156,511.6875 185.3281,510.0313 Q186.6563,508.375 189.1563,508.375 Q189.8594,508.375 190.5,508.5313 Q191.1563,508.6875 191.7188,508.9844 L191.7188,511.7031 Q191.0938,511.125 190.5,510.8594 Q189.9063,510.5781 189.2813,510.5781 Q187.9375,510.5781 187.25,511.6563 Q186.5625,512.7188 186.5625,514.8125 Q186.5625,516.9063 187.25,517.9844 Q187.9375,519.0469 189.2813,519.0469 Q189.9063,519.0469 190.5,518.7813 Q191.0938,518.5 191.7188,517.9219 L191.7188,520.6406 Z " fill="#000000"/><text fill="#000000" font-family="sans-serif" font-size="12" lengthAdjust="spacing" textLength="72" x="209.25" y="519.1543">gcp_bucket</text><line style="stroke:#A80036;stroke-width:1.5;" x1="138" x2="320" y1="531" y2="531"/><ellipse cx="148" cy="542" rx="3" ry="3" style="stroke:#038048;stroke-width:1.0;fill:none;"/><text fill="#000000" font-family="sans-serif" font-size="11" lengthAdjust="spacing" textLength="128" x="157" y="545.2104">bucket_location: string</text><ellipse cx="148" cy="554.8047" rx="3" ry="3" style="stroke:#038048;stroke-width:1.0;fill:none;"/><text fill="#000000" font-family="sans-serif" font-size="11" lengthAdjust="spacing" textLength="158" x="157" y="558.0151">bucket_location_type: string</text><ellipse cx="148" cy="567.6094" rx="3" ry="3" style="stroke:#038048;stroke-width:1.0;fill:none;"/><text fill="#000000" font-family="sans-serif" font-size="11" lengthAdjust="spacing" textLength="121" x="157" y="570.8198">storage_class: string</text><ellipse cx="148" cy="580.4141" rx="3" ry="3" style="stroke:#038048;stroke-width:1.0;fill:none;"/><text fill="#000000" font-family="sans-serif" font-size="11" lengthAdjust="spacing" textLength="146" x="157" y="583.6245">zone_separation: boolean</text><line style="stroke:#A80036;stroke-width:1.5;" x1="138" x2="320" y1="590.2188" y2="590.2188"/><!--MD5=[b60e41f8c5ce2a05a6014451cfd4b9a4]
class bucket--><rect codeLine="24" fill="#FEFECE" filter="url(#f1n356jyh7q1n9)" height="48" id="bucket" style="stroke:#A80036;stroke-width:1.5;" width="75" x="95.5" y="317"/><ellipse cx="110.5" cy="333" fill="#ADD1B2" rx="11" ry="11" style="stroke:#A80036;stroke-width:1.0;"/><path d="M113.4688,338.6406 Q112.8906,338.9375 112.25,339.0781 Q111.6094,339.2344 110.9063,339.2344 Q108.4063,339.2344 107.0781,337.5938 Q105.7656,335.9375 105.7656,332.8125 Q105.7656,329.6875 107.0781,328.0313 Q108.4063,326.375 110.9063,326.375 Q111.6094,326.375 112.25,326.5313 Q112.9063,326.6875 113.4688,326.9844 L113.4688,329.7031 Q112.8438,329.125 112.25,328.8594 Q111.6563,328.5781 111.0313,328.5781 Q109.6875,328.5781 109,329.6563 Q108.3125,330.7188 108.3125,332.8125 Q108.3125,334.9063 109,335.9844 Q109.6875,337.0469 111.0313,337.0469 Q111.6563,337.0469 112.25,336.7813 Q112.8438,336.5 113.4688,335.9219 L113.4688,338.6406 Z " fill="#000000"/><text fill="#000000" font-family="sans-serif" font-size="12" lengthAdjust="spacing" textLength="43" x="124.5" y="337.1543">bucket</text><line style="stroke:#A80036;stroke-width:1.5;" x1="96.5" x2="169.5" y1="349" y2="349"/><line style="stroke:#A80036;stroke-width:1.5;" x1="96.5" x2="169.5" y1="357" y2="357"/><!--MD5=[4504e8e70e553ec81e4948f900f69185]
reverse link gcp_resource to gcp_bucket--><path codeLine="27" d="M269.8,397.77 C261.19,429.37 250.52,468.53 242.25,498.87 " fill="none" id="gcp_resource-backto-gcp_bucket" style="stroke:#A80036;stroke-width:1.0;"/><polygon fill="none" points="263.11,395.72,275.12,378.27,276.61,399.4,263.11,395.72" style="stroke:#A80036;stroke-width:1.0;"/><!--MD5=[46bb7c8fb0c2e9e7106ef8f5cef82c85]
reverse link bucket to gcp_bucket--><path codeLine="28" d="M152.38,383.48 C167.94,416.79 189.81,463.62 206.21,498.72 " fill="none" id="bucket-backto-gcp_bucket" style="stroke:#A80036;stroke-width:1.0;"/><polygon fill="none" points="145.95,386.26,143.83,365.17,158.63,380.33,145.95,386.26" style="stroke:#A80036;stroke-width:1.0;"/><!--MD5=[c2ce428bba000f1aae17481df3b8690b]
reverse link resource to bucket--><path codeLine="29" d="M133,203.29 C133,245.75 133,290.63 133,316.93 " fill="none" id="resource-backto-bucket" style="stroke:#A80036;stroke-width:1.0;"/><polygon fill="none" points="126,203.06,133,183.06,140,203.06,126,203.06" style="stroke:#A80036;stroke-width:1.0;"/><!--MD5=[2f62122bafa2300152fea9d2c2f24920]
@startuml
skinparam backgroundcolor transparent
class resource {
+ id: string
+ tags: dictionary[string, string]
+ name: string
+ ctime: datetime
+ age: trafo.duration_to_datetime
+ mtime: datetime
+ last_update: trafo.duration_to_datetime
+ atime: datetime
+ last_access: trafo.duration_to_datetime
+ kind: string
}
class gcp_resource {
+ link: string
+ label_fingerprint: string
}
class gcp_bucket {
+ bucket_location: string
+ bucket_location_type: string
+ storage_class: string
+ zone_separation: boolean
}
class bucket {

}
gcp_resource <|- - - gcp_bucket
bucket <|- - - gcp_bucket
resource <|- - - bucket
@enduml

PlantUML version 1.2021.16(Wed Dec 08 17:25:22 UTC 2021)
(GPL source distribution)
Java Runtime: OpenJDK Runtime Environment
JVM: OpenJDK 64-Bit Server VM
Default Encoding: UTF-8
Language: en
Country: null
--></g></svg>