<?xml version="1.0" encoding="UTF-8" standalone="no"?><svg xmlns="http://www.w3.org/2000/svg" xmlns:xlink="http://www.w3.org/1999/xlink" contentScriptType="application/ecmascript" contentStyleType="text/css" height="695px" preserveAspectRatio="none" style="width:393px;height:695px;background:#00000000;" version="1.1" viewBox="0 0 393 695" width="393px" zoomAndPan="magnify"><defs/><g><!--MD5=[9816fef65c55bd144cddd7de1655a168]
class region--><rect codeLine="17" fill="#194875" height="39.7891" id="region" rx="2.5" ry="2.5" style="stroke:#000000;stroke-width:1.5;" width="95" x="211" y="430.5"/><ellipse cx="226" cy="450.3945" fill="#1A83AF" rx="11" ry="11" style="stroke:#000000;stroke-width:1.0;"/><path d="M228.9688,456.0352 Q228.3906,456.332 227.75,456.4727 Q227.1094,456.6289 226.4063,456.6289 Q223.9063,456.6289 222.5781,454.9883 Q221.2656,453.332 221.2656,450.207 Q221.2656,447.082 222.5781,445.4258 Q223.9063,443.7695 226.4063,443.7695 Q227.1094,443.7695 227.75,443.9258 Q228.4063,444.082 228.9688,444.3789 L228.9688,447.0977 Q228.3438,446.5195 227.75,446.2539 Q227.1563,445.9727 226.5313,445.9727 Q225.1875,445.9727 224.5,447.0508 Q223.8125,448.1133 223.8125,450.207 Q223.8125,452.3008 224.5,453.3789 Q225.1875,454.4414 226.5313,454.4414 Q227.1563,454.4414 227.75,454.1758 Q228.3438,453.8945 228.9688,453.3164 L228.9688,456.0352 Z " fill="#000000"/><text fill="#FFE797" font-family="Helvetica" font-size="17" lengthAdjust="spacing" textLength="53" x="245" y="456.2798">region</text><!--MD5=[7f0ecf5f554433d3f2e1213379ac821c]
class resource--><rect codeLine="20" fill="#194875" height="275.8359" id="resource" rx="2.5" ry="2.5" style="stroke:#000000;stroke-width:1.5;" width="256" x="130.5" y="7"/><ellipse cx="213.75" cy="26.8945" fill="#1A83AF" rx="11" ry="11" style="stroke:#000000;stroke-width:1.0;"/><path d="M216.7188,32.5352 Q216.1406,32.832 215.5,32.9727 Q214.8594,33.1289 214.1563,33.1289 Q211.6563,33.1289 210.3281,31.4883 Q209.0156,29.832 209.0156,26.707 Q209.0156,23.582 210.3281,21.9258 Q211.6563,20.2695 214.1563,20.2695 Q214.8594,20.2695 215.5,20.4258 Q216.1563,20.582 216.7188,20.8789 L216.7188,23.5977 Q216.0938,23.0195 215.5,22.7539 Q214.9063,22.4727 214.2813,22.4727 Q212.9375,22.4727 212.25,23.5508 Q211.5625,24.6133 211.5625,26.707 Q211.5625,28.8008 212.25,29.8789 Q212.9375,30.9414 214.2813,30.9414 Q214.9063,30.9414 215.5,30.6758 Q216.0938,30.3945 216.7188,29.8164 L216.7188,32.5352 Z " fill="#000000"/><text fill="#FFE797" font-family="Helvetica" font-size="17" lengthAdjust="spacing" textLength="71" x="239.25" y="32.7798">resource</text><line style="stroke:#000000;stroke-width:1.5;" x1="131.5" x2="385.5" y1="46.7891" y2="46.7891"/><text fill="#FFE797" font-family="sans-serif" font-size="11" font-weight="bold" lengthAdjust="spacing" textLength="12" x="141.5" y="65.9995">id</text><text fill="#FFE797" font-family="sans-serif" font-size="11" lengthAdjust="spacing" textLength="41" x="153.5" y="65.9995">: string</text><text fill="#FFE797" font-family="sans-serif" font-size="11" font-weight="bold" lengthAdjust="spacing" textLength="28" x="141.5" y="88.8042">tags</text><text fill="#FFE797" font-family="sans-serif" font-size="11" lengthAdjust="spacing" textLength="145" x="169.5" y="88.8042">: dictionary[string, string]</text><text fill="#FFE797" font-family="sans-serif" font-size="11" font-weight="bold" lengthAdjust="spacing" textLength="35" x="141.5" y="111.6089">name</text><text fill="#FFE797" font-family="sans-serif" font-size="11" lengthAdjust="spacing" textLength="41" x="176.5" y="111.6089">: string</text><text fill="#FFE797" font-family="sans-serif" font-size="11" font-weight="bold" lengthAdjust="spacing" textLength="35" x="141.5" y="134.4136">ctime</text><text fill="#FFE797" font-family="sans-serif" font-size="11" lengthAdjust="spacing" textLength="58" x="176.5" y="134.4136">: datetime</text><text fill="#FFE797" font-family="sans-serif" font-size="11" font-weight="bold" lengthAdjust="spacing" textLength="24" x="141.5" y="157.2183">age</text><text fill="#FFE797" font-family="sans-serif" font-size="11" lengthAdjust="spacing" textLength="159" x="165.5" y="157.2183">: trafo.duration_to_datetime</text><text fill="#FFE797" font-family="sans-serif" font-size="11" font-weight="bold" lengthAdjust="spacing" textLength="39" x="141.5" y="180.0229">mtime</text><text fill="#FFE797" font-family="sans-serif" font-size="11" lengthAdjust="spacing" textLength="58" x="180.5" y="180.0229">: datetime</text><text fill="#FFE797" font-family="sans-serif" font-size="11" font-weight="bold" lengthAdjust="spacing" textLength="75" x="141.5" y="202.8276">last_update</text><text fill="#FFE797" font-family="sans-serif" font-size="11" lengthAdjust="spacing" textLength="159" x="216.5" y="202.8276">: trafo.duration_to_datetime</text><text fill="#FFE797" font-family="sans-serif" font-size="11" font-weight="bold" lengthAdjust="spacing" textLength="36" x="141.5" y="225.6323">atime</text><text fill="#FFE797" font-family="sans-serif" font-size="11" lengthAdjust="spacing" textLength="58" x="177.5" y="225.6323">: datetime</text><text fill="#FFE797" font-family="sans-serif" font-size="11" font-weight="bold" lengthAdjust="spacing" textLength="74" x="141.5" y="248.437">last_access</text><text fill="#FFE797" font-family="sans-serif" font-size="11" lengthAdjust="spacing" textLength="159" x="215.5" y="248.437">: trafo.duration_to_datetime</text><text fill="#FFE797" font-family="sans-serif" font-size="11" font-weight="bold" lengthAdjust="spacing" textLength="27" x="141.5" y="271.2417">kind</text><text fill="#FFE797" font-family="sans-serif" font-size="11" lengthAdjust="spacing" textLength="41" x="168.5" y="271.2417">: string</text><!--MD5=[96a667c91f46910544c8a4dd691a5f67]
class gcp_resource--><rect codeLine="32" fill="#194875" height="93.3984" id="gcp_resource" rx="2.5" ry="2.5" style="stroke:#000000;stroke-width:1.5;" width="169" x="7" y="404"/><ellipse cx="30.55" cy="423.8945" fill="#1A83AF" rx="11" ry="11" style="stroke:#000000;stroke-width:1.0;"/><path d="M33.5188,429.5352 Q32.9406,429.832 32.3,429.9727 Q31.6594,430.1289 30.9563,430.1289 Q28.4563,430.1289 27.1281,428.4883 Q25.8156,426.832 25.8156,423.707 Q25.8156,420.582 27.1281,418.9258 Q28.4563,417.2695 30.9563,417.2695 Q31.6594,417.2695 32.3,417.4258 Q32.9563,417.582 33.5188,417.8789 L33.5188,420.5977 Q32.8938,420.0195 32.3,419.7539 Q31.7063,419.4727 31.0813,419.4727 Q29.7375,419.4727 29.05,420.5508 Q28.3625,421.6133 28.3625,423.707 Q28.3625,425.8008 29.05,426.8789 Q29.7375,427.9414 31.0813,427.9414 Q31.7063,427.9414 32.3,427.6758 Q32.8938,427.3945 33.5188,426.8164 L33.5188,429.5352 Z " fill="#000000"/><text fill="#FFE797" font-family="Helvetica" font-size="17" lengthAdjust="spacing" textLength="108" x="51.45" y="429.7798">gcp_resource</text><line style="stroke:#000000;stroke-width:1.5;" x1="8" x2="175" y1="443.7891" y2="443.7891"/><text fill="#FFE797" font-family="sans-serif" font-size="11" font-weight="bold" lengthAdjust="spacing" textLength="23" x="18" y="462.9995">link</text><text fill="#FFE797" font-family="sans-serif" font-size="11" lengthAdjust="spacing" textLength="41" x="41" y="462.9995">: string</text><text fill="#FFE797" font-family="sans-serif" font-size="11" font-weight="bold" lengthAdjust="spacing" textLength="106" x="18" y="485.8042">label_fingerprint</text><text fill="#FFE797" font-family="sans-serif" font-size="11" lengthAdjust="spacing" textLength="41" x="124" y="485.8042">: string</text><!--MD5=[dfb342624abca34c7dd87f3bd9b67829]
class gcp_region--><rect codeLine="36" fill="#194875" height="70.5938" id="gcp_region" rx="2.5" ry="2.5" style="stroke:#000000;stroke-width:1.5;" width="150" x="51.5" y="618"/><ellipse cx="74.6" cy="637.8945" fill="#1A83AF" rx="11" ry="11" style="stroke:#000000;stroke-width:1.0;"/><path d="M77.5688,643.5352 Q76.9906,643.832 76.35,643.9727 Q75.7094,644.1289 75.0063,644.1289 Q72.5063,644.1289 71.1781,642.4883 Q69.8656,640.832 69.8656,637.707 Q69.8656,634.582 71.1781,632.9258 Q72.5063,631.2695 75.0063,631.2695 Q75.7094,631.2695 76.35,631.4258 Q77.0063,631.582 77.5688,631.8789 L77.5688,634.5977 Q76.9438,634.0195 76.35,633.7539 Q75.7563,633.4727 75.1313,633.4727 Q73.7875,633.4727 73.1,634.5508 Q72.4125,635.6133 72.4125,637.707 Q72.4125,639.8008 73.1,640.8789 Q73.7875,641.9414 75.1313,641.9414 Q75.7563,641.9414 76.35,641.6758 Q76.9438,641.3945 77.5688,640.8164 L77.5688,643.5352 Z " fill="#000000"/><text fill="#FFE797" font-family="Helvetica" font-size="17" lengthAdjust="spacing" textLength="90" x="95.4" y="643.7798">gcp_region</text><line style="stroke:#000000;stroke-width:1.5;" x1="52.5" x2="200.5" y1="657.7891" y2="657.7891"/><text fill="#FFE797" font-family="sans-serif" font-size="11" font-weight="bold" lengthAdjust="spacing" textLength="87" x="62.5" y="676.9995">region_status</text><text fill="#FFE797" font-family="sans-serif" font-size="11" lengthAdjust="spacing" textLength="41" x="149.5" y="676.9995">: string</text><!--MD5=[d58696f1e4bc9d0c039b8d6296c69bfb]
reverse link resource to region--><path codeLine="39" d="M258.5,303.26 C258.5,353.92 258.5,403.76 258.5,430.16 " fill="none" id="resource-backto-region" style="stroke:#FFAF37;stroke-width:2.0;"/><polygon fill="none" points="251.5,303.1,258.5,283.1,265.5,303.1,251.5,303.1" style="stroke:#FFAF37;stroke-width:2.0;"/><!--MD5=[5b74d861332feb76dd2953b28d963f9c]
reverse link gcp_resource to gcp_region--><path codeLine="40" d="M102.92,517.07 C108.76,550.6 115.63,590.06 120.44,617.71 " fill="none" id="gcp_resource-backto-gcp_region" style="stroke:#FFAF37;stroke-width:2.0;"/><polygon fill="none" points="95.98,518.01,99.44,497.11,109.77,515.61,95.98,518.01" style="stroke:#FFAF37;stroke-width:2.0;"/><!--MD5=[2b05606ac8ffd2664f07652ab4febc54]
reverse link region to gcp_region--><path codeLine="41" d="M234.8,487.58 C210.54,524.53 173.1,581.55 149.2,617.93 " fill="none" id="region-backto-gcp_region" style="stroke:#FFAF37;stroke-width:2.0;"/><polygon fill="none" points="229.01,483.65,245.84,470.77,240.72,491.33,229.01,483.65" style="stroke:#FFAF37;stroke-width:2.0;"/><!--MD5=[afbc755bd1960c865d6897ed14562e64]
@startuml
hide empty members
skinparam ArrowColor #ffaf37
skinparam ArrowThickness 2
skinparam BackgroundColor transparent
skinparam ClassAttributeFontColor #ffe797
skinparam ClassBackgroundColor #194875
skinparam ClassBorderColor Black
skinparam ClassFontColor #ffe797
skinparam ClassFontName Helvetica
skinparam ClassFontSize 17
skinparam Padding 5
skinparam RoundCorner 5
skinparam Shadowing false
skinparam stereotypeCBackgroundColor #1a83af
skinparam stereotypeIBackgroundColor #1a83af

class region {

}
class resource {
**id**: string
**tags**: dictionary[string, string]
**name**: string
**ctime**: datetime
**age**: trafo.duration_to_datetime
**mtime**: datetime
**last_update**: trafo.duration_to_datetime
**atime**: datetime
**last_access**: trafo.duration_to_datetime
**kind**: string
}
class gcp_resource {
**link**: string
**label_fingerprint**: string
}
class gcp_region {
**region_status**: string
}
resource <|- - - region
gcp_resource <|- - - gcp_region
region <|- - - gcp_region
@enduml

PlantUML version 1.2021.16(Wed Dec 08 17:25:22 UTC 2021)
(GPL source distribution)
Java Runtime: OpenJDK Runtime Environment
JVM: OpenJDK 64-Bit Server VM
Default Encoding: UTF-8
Language: en
Country: null
--></g></svg>