<svg xmlns="http://www.w3.org/2000/svg" xmlns:xlink="http://www.w3.org/1999/xlink" width="403" height="663" contentScriptType="application/ecmascript" contentStyleType="text/css" style="width:403px;height:663px;background:#00000000" preserveAspectRatio="none" version="1.1" viewBox="0 0 403 663" zoomAndPan="magnify"><g><rect id="resource" width="256" height="275.836" x="7" y="7" fill="#194875" codeLine="17" rx="2.5" ry="2.5" style="stroke:#000;stroke-width:1.5"/><ellipse cx="90.25" cy="26.895" fill="#1A83AF" rx="11" ry="11" style="stroke:#000;stroke-width:1"/><path fill="#000" d="M93.2188,32.5352 Q92.6406,32.832 92,32.9727 Q91.3594,33.1289 90.6563,33.1289 Q88.1563,33.1289 86.8281,31.4883 Q85.5156,29.832 85.5156,26.707 Q85.5156,23.582 86.8281,21.9258 Q88.1563,20.2695 90.6563,20.2695 Q91.3594,20.2695 92,20.4258 Q92.6563,20.582 93.2188,20.8789 L93.2188,23.5977 Q92.5938,23.0195 92,22.7539 Q91.4063,22.4727 90.7813,22.4727 Q89.4375,22.4727 88.75,23.5508 Q88.0625,24.6133 88.0625,26.707 Q88.0625,28.8008 88.75,29.8789 Q89.4375,30.9414 90.7813,30.9414 Q91.4063,30.9414 92,30.6758 Q92.5938,30.3945 93.2188,29.8164 L93.2188,32.5352 Z"/><text x="115.75" y="32.78" fill="#FFE797" font-family="Helvetica" font-size="17" lengthAdjust="spacing" textLength="71">resource</text><line style="stroke:#000;stroke-width:1.5" x1="8" x2="262" y1="46.789" y2="46.789"/><text x="18" y="65.999" fill="#FFE797" font-family="sans-serif" font-size="11" font-weight="bold" lengthAdjust="spacing" textLength="12">id</text><text x="30" y="65.999" fill="#FFE797" font-family="sans-serif" font-size="11" lengthAdjust="spacing" textLength="41">: string</text><text x="18" y="88.804" fill="#FFE797" font-family="sans-serif" font-size="11" font-weight="bold" lengthAdjust="spacing" textLength="28">tags</text><text x="46" y="88.804" fill="#FFE797" font-family="sans-serif" font-size="11" lengthAdjust="spacing" textLength="145">: dictionary[string, string]</text><text x="18" y="111.609" fill="#FFE797" font-family="sans-serif" font-size="11" font-weight="bold" lengthAdjust="spacing" textLength="35">name</text><text x="53" y="111.609" fill="#FFE797" font-family="sans-serif" font-size="11" lengthAdjust="spacing" textLength="41">: string</text><text x="18" y="134.414" fill="#FFE797" font-family="sans-serif" font-size="11" font-weight="bold" lengthAdjust="spacing" textLength="35">ctime</text><text x="53" y="134.414" fill="#FFE797" font-family="sans-serif" font-size="11" lengthAdjust="spacing" textLength="58">: datetime</text><text x="18" y="157.218" fill="#FFE797" font-family="sans-serif" font-size="11" font-weight="bold" lengthAdjust="spacing" textLength="24">age</text><text x="42" y="157.218" fill="#FFE797" font-family="sans-serif" font-size="11" lengthAdjust="spacing" textLength="159">: trafo.duration_to_datetime</text><text x="18" y="180.023" fill="#FFE797" font-family="sans-serif" font-size="11" font-weight="bold" lengthAdjust="spacing" textLength="39">mtime</text><text x="57" y="180.023" fill="#FFE797" font-family="sans-serif" font-size="11" lengthAdjust="spacing" textLength="58">: datetime</text><text x="18" y="202.828" fill="#FFE797" font-family="sans-serif" font-size="11" font-weight="bold" lengthAdjust="spacing" textLength="75">last_update</text><text x="93" y="202.828" fill="#FFE797" font-family="sans-serif" font-size="11" lengthAdjust="spacing" textLength="159">: trafo.duration_to_datetime</text><text x="18" y="225.632" fill="#FFE797" font-family="sans-serif" font-size="11" font-weight="bold" lengthAdjust="spacing" textLength="36">atime</text><text x="54" y="225.632" fill="#FFE797" font-family="sans-serif" font-size="11" lengthAdjust="spacing" textLength="58">: datetime</text><text x="18" y="248.437" fill="#FFE797" font-family="sans-serif" font-size="11" font-weight="bold" lengthAdjust="spacing" textLength="74">last_access</text><text x="92" y="248.437" fill="#FFE797" font-family="sans-serif" font-size="11" lengthAdjust="spacing" textLength="159">: trafo.duration_to_datetime</text><text x="18" y="271.242" fill="#FFE797" font-family="sans-serif" font-size="11" font-weight="bold" lengthAdjust="spacing" textLength="27">kind</text><text x="45" y="271.242" fill="#FFE797" font-family="sans-serif" font-size="11" lengthAdjust="spacing" textLength="41">: string</text><rect id="gcp_resource" width="169" height="93.398" x="227.5" y="404" fill="#194875" codeLine="29" rx="2.5" ry="2.5" style="stroke:#000;stroke-width:1.5"/><ellipse cx="251.05" cy="423.894" fill="#1A83AF" rx="11" ry="11" style="stroke:#000;stroke-width:1"/><path fill="#000" d="M254.0188,429.5352 Q253.4406,429.832 252.8,429.9727 Q252.1594,430.1289 251.4563,430.1289 Q248.9563,430.1289 247.6281,428.4883 Q246.3156,426.832 246.3156,423.707 Q246.3156,420.582 247.6281,418.9258 Q248.9563,417.2695 251.4563,417.2695 Q252.1594,417.2695 252.8,417.4258 Q253.4563,417.582 254.0188,417.8789 L254.0188,420.5977 Q253.3938,420.0195 252.8,419.7539 Q252.2063,419.4727 251.5813,419.4727 Q250.2375,419.4727 249.55,420.5508 Q248.8625,421.6133 248.8625,423.707 Q248.8625,425.8008 249.55,426.8789 Q250.2375,427.9414 251.5813,427.9414 Q252.2063,427.9414 252.8,427.6758 Q253.3938,427.3945 254.0188,426.8164 L254.0188,429.5352 Z"/><text x="271.95" y="429.78" fill="#FFE797" font-family="Helvetica" font-size="17" lengthAdjust="spacing" textLength="108">gcp_resource</text><line style="stroke:#000;stroke-width:1.5" x1="228.5" x2="395.5" y1="443.789" y2="443.789"/><text x="238.5" y="463" fill="#FFE797" font-family="sans-serif" font-size="11" font-weight="bold" lengthAdjust="spacing" textLength="23">link</text><text x="261.5" y="463" fill="#FFE797" font-family="sans-serif" font-size="11" lengthAdjust="spacing" textLength="41">: string</text><text x="238.5" y="485.804" fill="#FFE797" font-family="sans-serif" font-size="11" font-weight="bold" lengthAdjust="spacing" textLength="106">label_fingerprint</text><text x="344.5" y="485.804" fill="#FFE797" font-family="sans-serif" font-size="11" lengthAdjust="spacing" textLength="41">: string</text><rect id="gateway" width="114" height="39.789" x="78" y="430.5" fill="#194875" codeLine="33" rx="2.5" ry="2.5" style="stroke:#000;stroke-width:1.5"/><ellipse cx="93" cy="450.394" fill="#1A83AF" rx="11" ry="11" style="stroke:#000;stroke-width:1"/><path fill="#000" d="M95.9688,456.0352 Q95.3906,456.332 94.75,456.4727 Q94.1094,456.6289 93.4063,456.6289 Q90.9063,456.6289 89.5781,454.9883 Q88.2656,453.332 88.2656,450.207 Q88.2656,447.082 89.5781,445.4258 Q90.9063,443.7695 93.4063,443.7695 Q94.1094,443.7695 94.75,443.9258 Q95.4063,444.082 95.9688,444.3789 L95.9688,447.0977 Q95.3438,446.5195 94.75,446.2539 Q94.1563,445.9727 93.5313,445.9727 Q92.1875,445.9727 91.5,447.0508 Q90.8125,448.1133 90.8125,450.207 Q90.8125,452.3008 91.5,453.3789 Q92.1875,454.4414 93.5313,454.4414 Q94.1563,454.4414 94.75,454.1758 Q95.3438,453.8945 95.9688,453.3164 L95.9688,456.0352 Z"/><text x="112" y="456.28" fill="#FFE797" font-family="Helvetica" font-size="17" lengthAdjust="spacing" textLength="72">gateway</text><rect id="gcp_target_vpn_gateway" width="251" height="39.789" x="97.5" y="618" fill="#194875" codeLine="36" rx="2.5" ry="2.5" style="stroke:#000;stroke-width:1.5"/><ellipse cx="112.5" cy="637.894" fill="#1A83AF" rx="11" ry="11" style="stroke:#000;stroke-width:1"/><path fill="#000" d="M115.4688,643.5352 Q114.8906,643.832 114.25,643.9727 Q113.6094,644.1289 112.9063,644.1289 Q110.4063,644.1289 109.0781,642.4883 Q107.7656,640.832 107.7656,637.707 Q107.7656,634.582 109.0781,632.9258 Q110.4063,631.2695 112.9063,631.2695 Q113.6094,631.2695 114.25,631.4258 Q114.9063,631.582 115.4688,631.8789 L115.4688,634.5977 Q114.8438,634.0195 114.25,633.7539 Q113.6563,633.4727 113.0313,633.4727 Q111.6875,633.4727 111,634.5508 Q110.3125,635.6133 110.3125,637.707 Q110.3125,639.8008 111,640.8789 Q111.6875,641.9414 113.0313,641.9414 Q113.6563,641.9414 114.25,641.6758 Q114.8438,641.3945 115.4688,640.8164 L115.4688,643.5352 Z"/><text x="131.5" y="643.78" fill="#FFE797" font-family="Helvetica" font-size="17" lengthAdjust="spacing" textLength="209">gcp_target_vpn_gateway</text><path id="resource-backto-gateway" fill="none" d="M135,303.26 C135,353.92 135,403.76 135,430.16" codeLine="39" style="stroke:#ffaf37;stroke-width:2"/><polygon fill="none" points="128 303.1 135 283.1 142 303.1 128 303.1" style="stroke:#ffaf37;stroke-width:2"/><path id="gcp_resource-backto-gcp_target_vpn_gateway" fill="none" d="M281.34,515.4 C264.14,551.26 243.86,593.52 232.31,617.6" codeLine="40" style="stroke:#ffaf37;stroke-width:2"/><polygon fill="none" points="275.04 512.36 290 497.35 287.66 518.41 275.04 512.36" style="stroke:#ffaf37;stroke-width:2"/><path id="gateway-backto-gcp_target_vpn_gateway" fill="none" d="M152.76,488.93 C171.29,527.99 199.6,587.67 213.96,617.95" codeLine="41" style="stroke:#ffaf37;stroke-width:2"/><polygon fill="none" points="146.33 491.72 144.09 470.65 158.98 485.72 146.33 491.72" style="stroke:#ffaf37;stroke-width:2"/></g></svg>