<svg xmlns="http://www.w3.org/2000/svg" xmlns:xlink="http://www.w3.org/1999/xlink" width="413" height="847" contentScriptType="application/ecmascript" contentStyleType="text/css" style="width:413px;height:847px;background:#00000000" preserveAspectRatio="none" version="1.1" viewBox="0 0 413 847" zoomAndPan="magnify"><g><rect id="phantom_resource" width="198" height="39.789" x="179.5" y="404" fill="#194875" codeLine="17" rx="2.5" ry="2.5" style="stroke:#000;stroke-width:1.5"/><ellipse cx="194.5" cy="423.894" fill="#1A83AF" rx="11" ry="11" style="stroke:#000;stroke-width:1"/><path fill="#000" d="M197.4688,429.5352 Q196.8906,429.832 196.25,429.9727 Q195.6094,430.1289 194.9063,430.1289 Q192.4063,430.1289 191.0781,428.4883 Q189.7656,426.832 189.7656,423.707 Q189.7656,420.582 191.0781,418.9258 Q192.4063,417.2695 194.9063,417.2695 Q195.6094,417.2695 196.25,417.4258 Q196.9063,417.582 197.4688,417.8789 L197.4688,420.5977 Q196.8438,420.0195 196.25,419.7539 Q195.6563,419.4727 195.0313,419.4727 Q193.6875,419.4727 193,420.5508 Q192.3125,421.6133 192.3125,423.707 Q192.3125,425.8008 193,426.8789 Q193.6875,427.9414 195.0313,427.9414 Q195.6563,427.9414 196.25,427.6758 Q196.8438,427.3945 197.4688,426.8164 L197.4688,429.5352 Z"/><text x="213.5" y="429.78" fill="#FFE797" font-family="Helvetica" font-size="17" lengthAdjust="spacing" textLength="156">phantom_resource</text><rect id="resource" width="256" height="275.836" x="150.5" y="7" fill="#194875" codeLine="20" rx="2.5" ry="2.5" style="stroke:#000;stroke-width:1.5"/><ellipse cx="233.75" cy="26.895" fill="#1A83AF" rx="11" ry="11" style="stroke:#000;stroke-width:1"/><path fill="#000" d="M236.7188,32.5352 Q236.1406,32.832 235.5,32.9727 Q234.8594,33.1289 234.1563,33.1289 Q231.6563,33.1289 230.3281,31.4883 Q229.0156,29.832 229.0156,26.707 Q229.0156,23.582 230.3281,21.9258 Q231.6563,20.2695 234.1563,20.2695 Q234.8594,20.2695 235.5,20.4258 Q236.1563,20.582 236.7188,20.8789 L236.7188,23.5977 Q236.0938,23.0195 235.5,22.7539 Q234.9063,22.4727 234.2813,22.4727 Q232.9375,22.4727 232.25,23.5508 Q231.5625,24.6133 231.5625,26.707 Q231.5625,28.8008 232.25,29.8789 Q232.9375,30.9414 234.2813,30.9414 Q234.9063,30.9414 235.5,30.6758 Q236.0938,30.3945 236.7188,29.8164 L236.7188,32.5352 Z"/><text x="259.25" y="32.78" fill="#FFE797" font-family="Helvetica" font-size="17" lengthAdjust="spacing" textLength="71">resource</text><line style="stroke:#000;stroke-width:1.5" x1="151.5" x2="405.5" y1="46.789" y2="46.789"/><text x="161.5" y="65.999" fill="#FFE797" font-family="sans-serif" font-size="11" font-weight="bold" lengthAdjust="spacing" textLength="12">id</text><text x="173.5" y="65.999" fill="#FFE797" font-family="sans-serif" font-size="11" lengthAdjust="spacing" textLength="41">: string</text><text x="161.5" y="88.804" fill="#FFE797" font-family="sans-serif" font-size="11" font-weight="bold" lengthAdjust="spacing" textLength="28">tags</text><text x="189.5" y="88.804" fill="#FFE797" font-family="sans-serif" font-size="11" lengthAdjust="spacing" textLength="145">: dictionary[string, string]</text><text x="161.5" y="111.609" fill="#FFE797" font-family="sans-serif" font-size="11" font-weight="bold" lengthAdjust="spacing" textLength="35">name</text><text x="196.5" y="111.609" fill="#FFE797" font-family="sans-serif" font-size="11" lengthAdjust="spacing" textLength="41">: string</text><text x="161.5" y="134.414" fill="#FFE797" font-family="sans-serif" font-size="11" font-weight="bold" lengthAdjust="spacing" textLength="35">ctime</text><text x="196.5" y="134.414" fill="#FFE797" font-family="sans-serif" font-size="11" lengthAdjust="spacing" textLength="58">: datetime</text><text x="161.5" y="157.218" fill="#FFE797" font-family="sans-serif" font-size="11" font-weight="bold" lengthAdjust="spacing" textLength="24">age</text><text x="185.5" y="157.218" fill="#FFE797" font-family="sans-serif" font-size="11" lengthAdjust="spacing" textLength="159">: trafo.duration_to_datetime</text><text x="161.5" y="180.023" fill="#FFE797" font-family="sans-serif" font-size="11" font-weight="bold" lengthAdjust="spacing" textLength="39">mtime</text><text x="200.5" y="180.023" fill="#FFE797" font-family="sans-serif" font-size="11" lengthAdjust="spacing" textLength="58">: datetime</text><text x="161.5" y="202.828" fill="#FFE797" font-family="sans-serif" font-size="11" font-weight="bold" lengthAdjust="spacing" textLength="75">last_update</text><text x="236.5" y="202.828" fill="#FFE797" font-family="sans-serif" font-size="11" lengthAdjust="spacing" textLength="159">: trafo.duration_to_datetime</text><text x="161.5" y="225.632" fill="#FFE797" font-family="sans-serif" font-size="11" font-weight="bold" lengthAdjust="spacing" textLength="36">atime</text><text x="197.5" y="225.632" fill="#FFE797" font-family="sans-serif" font-size="11" lengthAdjust="spacing" textLength="58">: datetime</text><text x="161.5" y="248.437" fill="#FFE797" font-family="sans-serif" font-size="11" font-weight="bold" lengthAdjust="spacing" textLength="74">last_access</text><text x="235.5" y="248.437" fill="#FFE797" font-family="sans-serif" font-size="11" lengthAdjust="spacing" textLength="159">: trafo.duration_to_datetime</text><text x="161.5" y="271.242" fill="#FFE797" font-family="sans-serif" font-size="11" font-weight="bold" lengthAdjust="spacing" textLength="27">kind</text><text x="188.5" y="271.242" fill="#FFE797" font-family="sans-serif" font-size="11" lengthAdjust="spacing" textLength="41">: string</text><rect id="gcp_resource" width="169" height="93.398" x="7" y="576.5" fill="#194875" codeLine="32" rx="2.5" ry="2.5" style="stroke:#000;stroke-width:1.5"/><ellipse cx="30.55" cy="596.394" fill="#1A83AF" rx="11" ry="11" style="stroke:#000;stroke-width:1"/><path fill="#000" d="M33.5188,602.0352 Q32.9406,602.332 32.3,602.4727 Q31.6594,602.6289 30.9563,602.6289 Q28.4563,602.6289 27.1281,600.9883 Q25.8156,599.332 25.8156,596.207 Q25.8156,593.082 27.1281,591.4258 Q28.4563,589.7695 30.9563,589.7695 Q31.6594,589.7695 32.3,589.9258 Q32.9563,590.082 33.5188,590.3789 L33.5188,593.0977 Q32.8938,592.5195 32.3,592.2539 Q31.7063,591.9727 31.0813,591.9727 Q29.7375,591.9727 29.05,593.0508 Q28.3625,594.1133 28.3625,596.207 Q28.3625,598.3008 29.05,599.3789 Q29.7375,600.4414 31.0813,600.4414 Q31.7063,600.4414 32.3,600.1758 Q32.8938,599.8945 33.5188,599.3164 L33.5188,602.0352 Z"/><text x="51.45" y="602.28" fill="#FFE797" font-family="Helvetica" font-size="17" lengthAdjust="spacing" textLength="108">gcp_resource</text><line style="stroke:#000;stroke-width:1.5" x1="8" x2="175" y1="616.289" y2="616.289"/><text x="18" y="635.5" fill="#FFE797" font-family="sans-serif" font-size="11" font-weight="bold" lengthAdjust="spacing" textLength="23">link</text><text x="41" y="635.5" fill="#FFE797" font-family="sans-serif" font-size="11" lengthAdjust="spacing" textLength="41">: string</text><text x="18" y="658.304" fill="#FFE797" font-family="sans-serif" font-size="11" font-weight="bold" lengthAdjust="spacing" textLength="106">label_fingerprint</text><text x="124" y="658.304" fill="#FFE797" font-family="sans-serif" font-size="11" lengthAdjust="spacing" textLength="41">: string</text><rect id="quota" width="134" height="116.203" x="211.5" y="565" fill="#194875" codeLine="36" rx="2.5" ry="2.5" style="stroke:#000;stroke-width:1.5"/><ellipse cx="246.3" cy="584.894" fill="#1A83AF" rx="11" ry="11" style="stroke:#000;stroke-width:1"/><path fill="#000" d="M249.2688,590.5352 Q248.6906,590.832 248.05,590.9727 Q247.4094,591.1289 246.7063,591.1289 Q244.2063,591.1289 242.8781,589.4883 Q241.5656,587.832 241.5656,584.707 Q241.5656,581.582 242.8781,579.9258 Q244.2063,578.2695 246.7063,578.2695 Q247.4094,578.2695 248.05,578.4258 Q248.7063,578.582 249.2688,578.8789 L249.2688,581.5977 Q248.6438,581.0195 248.05,580.7539 Q247.4563,580.4727 246.8313,580.4727 Q245.4875,580.4727 244.8,581.5508 Q244.1125,582.6133 244.1125,584.707 Q244.1125,586.8008 244.8,587.8789 Q245.4875,588.9414 246.8313,588.9414 Q247.4563,588.9414 248.05,588.6758 Q248.6438,588.3945 249.2688,587.8164 L249.2688,590.5352 Z"/><text x="269.7" y="590.78" fill="#FFE797" font-family="Helvetica" font-size="17" lengthAdjust="spacing" textLength="48">quota</text><line style="stroke:#000;stroke-width:1.5" x1="212.5" x2="344.5" y1="604.789" y2="604.789"/><text x="222.5" y="624" fill="#FFE797" font-family="sans-serif" font-size="11" font-weight="bold" lengthAdjust="spacing" textLength="37">quota</text><text x="259.5" y="624" fill="#FFE797" font-family="sans-serif" font-size="11" lengthAdjust="spacing" textLength="46">: double</text><text x="222.5" y="646.804" fill="#FFE797" font-family="sans-serif" font-size="11" font-weight="bold" lengthAdjust="spacing" textLength="39">usage</text><text x="261.5" y="646.804" fill="#FFE797" font-family="sans-serif" font-size="11" lengthAdjust="spacing" textLength="46">: double</text><text x="222.5" y="669.609" fill="#FFE797" font-family="sans-serif" font-size="11" font-weight="bold" lengthAdjust="spacing" textLength="71">quota_type</text><text x="293.5" y="669.609" fill="#FFE797" font-family="sans-serif" font-size="11" lengthAdjust="spacing" textLength="41">: string</text><rect id="gcp_quota" width="127" height="39.789" x="63" y="802" fill="#194875" codeLine="41" rx="2.5" ry="2.5" style="stroke:#000;stroke-width:1.5"/><ellipse cx="78" cy="821.894" fill="#1A83AF" rx="11" ry="11" style="stroke:#000;stroke-width:1"/><path fill="#000" d="M80.9688,827.5352 Q80.3906,827.832 79.75,827.9727 Q79.1094,828.1289 78.4063,828.1289 Q75.9063,828.1289 74.5781,826.4883 Q73.2656,824.832 73.2656,821.707 Q73.2656,818.582 74.5781,816.9258 Q75.9063,815.2695 78.4063,815.2695 Q79.1094,815.2695 79.75,815.4258 Q80.4063,815.582 80.9688,815.8789 L80.9688,818.5977 Q80.3438,818.0195 79.75,817.7539 Q79.1563,817.4727 78.5313,817.4727 Q77.1875,817.4727 76.5,818.5508 Q75.8125,819.6133 75.8125,821.707 Q75.8125,823.8008 76.5,824.8789 Q77.1875,825.9414 78.5313,825.9414 Q79.1563,825.9414 79.75,825.6758 Q80.3438,825.3945 80.9688,824.8164 L80.9688,827.5352 Z"/><text x="97" y="827.78" fill="#FFE797" font-family="Helvetica" font-size="17" lengthAdjust="spacing" textLength="85">gcp_quota</text><path id="resource-backto-phantom_resource" fill="none" d="M278.5,303.48 C278.5,343.73 278.5,381.81 278.5,403.75" codeLine="44" style="stroke:#ffaf37;stroke-width:2"/><polygon fill="none" points="271.5 303.28 278.5 283.28 285.5 303.28 271.5 303.28" style="stroke:#ffaf37;stroke-width:2"/><path id="phantom_resource-backto-quota" fill="none" d="M278.5,464.28 C278.5,493.07 278.5,532.58 278.5,564.86" codeLine="45" style="stroke:#ffaf37;stroke-width:2"/><polygon fill="none" points="271.5 464.25 278.5 444.25 285.5 464.25 271.5 464.25" style="stroke:#ffaf37;stroke-width:2"/><path id="gcp_resource-backto-gcp_quota" fill="none" d="M103.16,689.62 C110.13,728.86 118.5,775.95 123.08,801.75" codeLine="46" style="stroke:#ffaf37;stroke-width:2"/><polygon fill="none" points="96.22 690.61 99.62 669.69 110.01 688.16 96.22 690.61" style="stroke:#ffaf37;stroke-width:2"/><path id="quota-backto-gcp_quota" fill="none" d="M222.01,697.22 C193.04,734.76 160.02,777.55 141.38,801.71" codeLine="47" style="stroke:#ffaf37;stroke-width:2"/><polygon fill="none" points="216.57 692.8 234.33 681.25 227.66 701.36 216.57 692.8" style="stroke:#ffaf37;stroke-width:2"/></g></svg>