<?xml version="1.0" encoding="UTF-8" standalone="no"?><svg xmlns="http://www.w3.org/2000/svg" xmlns:xlink="http://www.w3.org/1999/xlink" contentScriptType="application/ecmascript" contentStyleType="text/css" height="625px" preserveAspectRatio="none" style="width:405px;height:625px;background:#00000000;" version="1.1" viewBox="0 0 405 625" width="405px" zoomAndPan="magnify"><defs><filter height="300%" id="f1ipernw85t6z7" width="300%" x="-1" y="-1"><feGaussianBlur result="blurOut" stdDeviation="2.0"/><feColorMatrix in="blurOut" result="blurOut2" type="matrix" values="0 0 0 0 0 0 0 0 0 0 0 0 0 0 0 0 0 0 .4 0"/><feOffset dx="4.0" dy="4.0" in="blurOut2" result="blurOut3"/><feBlend in="SourceGraphic" in2="blurOut3" mode="normal"/></filter></defs><g><!--MD5=[7f0ecf5f554433d3f2e1213379ac821c]
class resource--><rect codeLine="2" fill="#FEFECE" filter="url(#f1ipernw85t6z7)" height="176.0469" id="resource" style="stroke:#A80036;stroke-width:1.5;" width="252" x="7" y="7"/><ellipse cx="100.75" cy="23" fill="#ADD1B2" rx="11" ry="11" style="stroke:#A80036;stroke-width:1.0;"/><path d="M103.7188,28.6406 Q103.1406,28.9375 102.5,29.0781 Q101.8594,29.2344 101.1563,29.2344 Q98.6563,29.2344 97.3281,27.5938 Q96.0156,25.9375 96.0156,22.8125 Q96.0156,19.6875 97.3281,18.0313 Q98.6563,16.375 101.1563,16.375 Q101.8594,16.375 102.5,16.5313 Q103.1563,16.6875 103.7188,16.9844 L103.7188,19.7031 Q103.0938,19.125 102.5,18.8594 Q101.9063,18.5781 101.2813,18.5781 Q99.9375,18.5781 99.25,19.6563 Q98.5625,20.7188 98.5625,22.8125 Q98.5625,24.9063 99.25,25.9844 Q99.9375,27.0469 101.2813,27.0469 Q101.9063,27.0469 102.5,26.7813 Q103.0938,26.5 103.7188,25.9219 L103.7188,28.6406 Z " fill="#000000"/><text fill="#000000" font-family="sans-serif" font-size="12" lengthAdjust="spacing" textLength="56" x="121.25" y="27.1543">resource</text><line style="stroke:#A80036;stroke-width:1.5;" x1="8" x2="258" y1="39" y2="39"/><ellipse cx="18" cy="50" rx="3" ry="3" style="stroke:#038048;stroke-width:1.0;fill:none;"/><text fill="#000000" font-family="sans-serif" font-size="11" lengthAdjust="spacing" textLength="51" x="27" y="53.2104">id: string</text><ellipse cx="18" cy="62.8047" rx="3" ry="3" style="stroke:#038048;stroke-width:1.0;fill:none;"/><text fill="#000000" font-family="sans-serif" font-size="11" lengthAdjust="spacing" textLength="170" x="27" y="66.0151">tags: dictionary[string, string]</text><ellipse cx="18" cy="75.6094" rx="3" ry="3" style="stroke:#038048;stroke-width:1.0;fill:none;"/><text fill="#000000" font-family="sans-serif" font-size="11" lengthAdjust="spacing" textLength="73" x="27" y="78.8198">name: string</text><ellipse cx="18" cy="88.4141" rx="3" ry="3" style="stroke:#038048;stroke-width:1.0;fill:none;"/><text fill="#000000" font-family="sans-serif" font-size="11" lengthAdjust="spacing" textLength="89" x="27" y="91.6245">ctime: datetime</text><ellipse cx="18" cy="101.2188" rx="3" ry="3" style="stroke:#038048;stroke-width:1.0;fill:none;"/><text fill="#000000" font-family="sans-serif" font-size="11" lengthAdjust="spacing" textLength="180" x="27" y="104.4292">age: trafo.duration_to_datetime</text><ellipse cx="18" cy="114.0234" rx="3" ry="3" style="stroke:#038048;stroke-width:1.0;fill:none;"/><text fill="#000000" font-family="sans-serif" font-size="11" lengthAdjust="spacing" textLength="94" x="27" y="117.2339">mtime: datetime</text><ellipse cx="18" cy="126.8281" rx="3" ry="3" style="stroke:#038048;stroke-width:1.0;fill:none;"/><text fill="#000000" font-family="sans-serif" font-size="11" lengthAdjust="spacing" textLength="225" x="27" y="130.0386">last_update: trafo.duration_to_datetime</text><ellipse cx="18" cy="139.6328" rx="3" ry="3" style="stroke:#038048;stroke-width:1.0;fill:none;"/><text fill="#000000" font-family="sans-serif" font-size="11" lengthAdjust="spacing" textLength="90" x="27" y="142.8433">atime: datetime</text><ellipse cx="18" cy="152.4375" rx="3" ry="3" style="stroke:#038048;stroke-width:1.0;fill:none;"/><text fill="#000000" font-family="sans-serif" font-size="11" lengthAdjust="spacing" textLength="226" x="27" y="155.6479">last_access: trafo.duration_to_datetime</text><ellipse cx="18" cy="165.2422" rx="3" ry="3" style="stroke:#038048;stroke-width:1.0;fill:none;"/><text fill="#000000" font-family="sans-serif" font-size="11" lengthAdjust="spacing" textLength="64" x="27" y="168.4526">kind: string</text><line style="stroke:#A80036;stroke-width:1.5;" x1="8" x2="258" y1="175.0469" y2="175.0469"/><!--MD5=[96a667c91f46910544c8a4dd691a5f67]
class gcp_resource--><rect codeLine="14" fill="#FEFECE" filter="url(#f1ipernw85t6z7)" height="73.6094" id="gcp_resource" style="stroke:#A80036;stroke-width:1.5;" width="159" x="232.5" y="304"/><ellipse cx="266.4" cy="320" fill="#ADD1B2" rx="11" ry="11" style="stroke:#A80036;stroke-width:1.0;"/><path d="M269.3688,325.6406 Q268.7906,325.9375 268.15,326.0781 Q267.5094,326.2344 266.8063,326.2344 Q264.3063,326.2344 262.9781,324.5938 Q261.6656,322.9375 261.6656,319.8125 Q261.6656,316.6875 262.9781,315.0313 Q264.3063,313.375 266.8063,313.375 Q267.5094,313.375 268.15,313.5313 Q268.8063,313.6875 269.3688,313.9844 L269.3688,316.7031 Q268.7438,316.125 268.15,315.8594 Q267.5563,315.5781 266.9313,315.5781 Q265.5875,315.5781 264.9,316.6563 Q264.2125,317.7188 264.2125,319.8125 Q264.2125,321.9063 264.9,322.9844 Q265.5875,324.0469 266.9313,324.0469 Q267.5563,324.0469 268.15,323.7813 Q268.7438,323.5 269.3688,322.9219 L269.3688,325.6406 Z " fill="#000000"/><text fill="#000000" font-family="sans-serif" font-size="12" lengthAdjust="spacing" textLength="85" x="284.6" y="324.1543">gcp_resource</text><line style="stroke:#A80036;stroke-width:1.5;" x1="233.5" x2="390.5" y1="336" y2="336"/><ellipse cx="243.5" cy="347" rx="3" ry="3" style="stroke:#038048;stroke-width:1.0;fill:none;"/><text fill="#000000" font-family="sans-serif" font-size="11" lengthAdjust="spacing" textLength="60" x="252.5" y="350.2104">link: string</text><ellipse cx="243.5" cy="359.8047" rx="3" ry="3" style="stroke:#038048;stroke-width:1.0;fill:none;"/><text fill="#000000" font-family="sans-serif" font-size="11" lengthAdjust="spacing" textLength="133" x="252.5" y="363.0151">label_fingerprint: string</text><line style="stroke:#A80036;stroke-width:1.5;" x1="233.5" x2="390.5" y1="369.6094" y2="369.6094"/><!--MD5=[86833b7771fd646511791fafeadda016]
class load_balancer--><rect codeLine="18" fill="#FEFECE" filter="url(#f1ipernw85t6z7)" height="73.6094" id="load_balancer" style="stroke:#A80036;stroke-width:1.5;" width="129" x="68.5" y="304"/><ellipse cx="87.55" cy="320" fill="#ADD1B2" rx="11" ry="11" style="stroke:#A80036;stroke-width:1.0;"/><path d="M90.5188,325.6406 Q89.9406,325.9375 89.3,326.0781 Q88.6594,326.2344 87.9563,326.2344 Q85.4563,326.2344 84.1281,324.5938 Q82.8156,322.9375 82.8156,319.8125 Q82.8156,316.6875 84.1281,315.0313 Q85.4563,313.375 87.9563,313.375 Q88.6594,313.375 89.3,313.5313 Q89.9563,313.6875 90.5188,313.9844 L90.5188,316.7031 Q89.8938,316.125 89.3,315.8594 Q88.7063,315.5781 88.0813,315.5781 Q86.7375,315.5781 86.05,316.6563 Q85.3625,317.7188 85.3625,319.8125 Q85.3625,321.9063 86.05,322.9844 Q86.7375,324.0469 88.0813,324.0469 Q88.7063,324.0469 89.3,323.7813 Q89.8938,323.5 90.5188,322.9219 L90.5188,325.6406 Z " fill="#000000"/><text fill="#000000" font-family="sans-serif" font-size="12" lengthAdjust="spacing" textLength="88" x="102.45" y="324.1543">load_balancer</text><line style="stroke:#A80036;stroke-width:1.5;" x1="69.5" x2="196.5" y1="336" y2="336"/><ellipse cx="79.5" cy="347" rx="3" ry="3" style="stroke:#038048;stroke-width:1.0;fill:none;"/><text fill="#000000" font-family="sans-serif" font-size="11" lengthAdjust="spacing" textLength="81" x="88.5" y="350.2104">lb_type: string</text><ellipse cx="79.5" cy="359.8047" rx="3" ry="3" style="stroke:#038048;stroke-width:1.0;fill:none;"/><text fill="#000000" font-family="sans-serif" font-size="11" lengthAdjust="spacing" textLength="103" x="88.5" y="363.0151">backends: string[]</text><line style="stroke:#A80036;stroke-width:1.5;" x1="69.5" x2="196.5" y1="369.6094" y2="369.6094"/><!--MD5=[3a125afeaaaf45c8ad94997c7293c783]
class gcp_forwarding_rule--><rect codeLine="22" fill="#FEFECE" filter="url(#f1ipernw85t6z7)" height="112.0234" id="gcp_forwarding_rule" style="stroke:#A80036;stroke-width:1.5;" width="202" x="148" y="499"/><ellipse cx="183.25" cy="515" fill="#ADD1B2" rx="11" ry="11" style="stroke:#A80036;stroke-width:1.0;"/><path d="M186.2188,520.6406 Q185.6406,520.9375 185,521.0781 Q184.3594,521.2344 183.6563,521.2344 Q181.1563,521.2344 179.8281,519.5938 Q178.5156,517.9375 178.5156,514.8125 Q178.5156,511.6875 179.8281,510.0313 Q181.1563,508.375 183.6563,508.375 Q184.3594,508.375 185,508.5313 Q185.6563,508.6875 186.2188,508.9844 L186.2188,511.7031 Q185.5938,511.125 185,510.8594 Q184.4063,510.5781 183.7813,510.5781 Q182.4375,510.5781 181.75,511.6563 Q181.0625,512.7188 181.0625,514.8125 Q181.0625,516.9063 181.75,517.9844 Q182.4375,519.0469 183.7813,519.0469 Q184.4063,519.0469 185,518.7813 Q185.5938,518.5 186.2188,517.9219 L186.2188,520.6406 Z " fill="#000000"/><text fill="#000000" font-family="sans-serif" font-size="12" lengthAdjust="spacing" textLength="125" x="201.75" y="519.1543">gcp_forwarding_rule</text><line style="stroke:#A80036;stroke-width:1.5;" x1="149" x2="349" y1="531" y2="531"/><ellipse cx="159" cy="542" rx="3" ry="3" style="stroke:#038048;stroke-width:1.0;fill:none;"/><text fill="#000000" font-family="sans-serif" font-size="11" lengthAdjust="spacing" textLength="104" x="168" y="545.2104">ip_address: string</text><ellipse cx="159" cy="554.8047" rx="3" ry="3" style="stroke:#038048;stroke-width:1.0;fill:none;"/><text fill="#000000" font-family="sans-serif" font-size="11" lengthAdjust="spacing" textLength="103" x="168" y="558.0151">ip_protocol: string</text><ellipse cx="159" cy="567.6094" rx="3" ry="3" style="stroke:#038048;stroke-width:1.0;fill:none;"/><text fill="#000000" font-family="sans-serif" font-size="11" lengthAdjust="spacing" textLength="176" x="168" y="570.8198">load_balancing_scheme: string</text><ellipse cx="159" cy="580.4141" rx="3" ry="3" style="stroke:#038048;stroke-width:1.0;fill:none;"/><text fill="#000000" font-family="sans-serif" font-size="11" lengthAdjust="spacing" textLength="111" x="168" y="583.6245">network_tier: string</text><ellipse cx="159" cy="593.2188" rx="3" ry="3" style="stroke:#038048;stroke-width:1.0;fill:none;"/><text fill="#000000" font-family="sans-serif" font-size="11" lengthAdjust="spacing" textLength="103" x="168" y="596.4292">port_range: string</text><line style="stroke:#A80036;stroke-width:1.5;" x1="149" x2="349" y1="603.0234" y2="603.0234"/><!--MD5=[0344b77bad72b42f01cb7db15a535890]
reverse link resource to load_balancer--><path codeLine="29" d="M133,203.16 C133,239.31 133,277.21 133,303.94 " fill="none" id="resource-backto-load_balancer" style="stroke:#A80036;stroke-width:1.0;"/><polygon fill="none" points="126,203.06,133,183.06,140,203.06,126,203.06" style="stroke:#A80036;stroke-width:1.0;"/><!--MD5=[237ebeeb3ed1dfa60e4342f5a822793e]
reverse link gcp_resource to gcp_forwarding_rule--><path codeLine="30" d="M295.44,397.73 C286.15,428.97 274.61,467.81 265.36,498.95 " fill="none" id="gcp_resource-backto-gcp_forwarding_rule" style="stroke:#A80036;stroke-width:1.0;"/><polygon fill="none" points="288.76,395.62,301.17,378.44,302.18,399.61,288.76,395.62" style="stroke:#A80036;stroke-width:1.0;"/><!--MD5=[b1d604fc1a0c1a6cb6ae60ae65a3e80e]
reverse link load_balancer to gcp_forwarding_rule--><path codeLine="31" d="M162.76,396.39 C179.98,427.86 201.6,467.36 218.88,498.95 " fill="none" id="load_balancer-backto-gcp_forwarding_rule" style="stroke:#A80036;stroke-width:1.0;"/><polygon fill="none" points="156.4,399.35,152.94,378.44,168.68,392.63,156.4,399.35" style="stroke:#A80036;stroke-width:1.0;"/><!--MD5=[4e486fb7eaca6a48dbdaba656da1c03f]
@startuml
skinparam backgroundcolor transparent
class resource {
+ id: string
+ tags: dictionary[string, string]
+ name: string
+ ctime: datetime
+ age: trafo.duration_to_datetime
+ mtime: datetime
+ last_update: trafo.duration_to_datetime
+ atime: datetime
+ last_access: trafo.duration_to_datetime
+ kind: string
}
class gcp_resource {
+ link: string
+ label_fingerprint: string
}
class load_balancer {
+ lb_type: string
+ backends: string[]
}
class gcp_forwarding_rule {
+ ip_address: string
+ ip_protocol: string
+ load_balancing_scheme: string
+ network_tier: string
+ port_range: string
}
resource <|- - - load_balancer
gcp_resource <|- - - gcp_forwarding_rule
load_balancer <|- - - gcp_forwarding_rule
@enduml

PlantUML version 1.2021.16(Wed Dec 08 17:25:22 UTC 2021)
(GPL source distribution)
Java Runtime: OpenJDK Runtime Environment
JVM: OpenJDK 64-Bit Server VM
Default Encoding: UTF-8
Language: en
Country: null
--></g></svg>