<svg xmlns="http://www.w3.org/2000/svg" xmlns:xlink="http://www.w3.org/1999/xlink" width="429" height="809" contentScriptType="application/ecmascript" contentStyleType="text/css" style="width:429px;height:809px;background:#00000000" preserveAspectRatio="none" version="1.1" viewBox="0 0 429 809" zoomAndPan="magnify"><g><rect id="resource" width="256" height="275.836" x="7" y="7" fill="#194875" codeLine="17" rx="2.5" ry="2.5" style="stroke:#000;stroke-width:1.5"/><ellipse cx="90.25" cy="26.895" fill="#1A83AF" rx="11" ry="11" style="stroke:#000;stroke-width:1"/><path fill="#000" d="M93.2188,32.5352 Q92.6406,32.832 92,32.9727 Q91.3594,33.1289 90.6563,33.1289 Q88.1563,33.1289 86.8281,31.4883 Q85.5156,29.832 85.5156,26.707 Q85.5156,23.582 86.8281,21.9258 Q88.1563,20.2695 90.6563,20.2695 Q91.3594,20.2695 92,20.4258 Q92.6563,20.582 93.2188,20.8789 L93.2188,23.5977 Q92.5938,23.0195 92,22.7539 Q91.4063,22.4727 90.7813,22.4727 Q89.4375,22.4727 88.75,23.5508 Q88.0625,24.6133 88.0625,26.707 Q88.0625,28.8008 88.75,29.8789 Q89.4375,30.9414 90.7813,30.9414 Q91.4063,30.9414 92,30.6758 Q92.5938,30.3945 93.2188,29.8164 L93.2188,32.5352 Z"/><text x="115.75" y="32.78" fill="#FFE797" font-family="Helvetica" font-size="17" lengthAdjust="spacing" textLength="71">resource</text><line style="stroke:#000;stroke-width:1.5" x1="8" x2="262" y1="46.789" y2="46.789"/><text x="18" y="65.999" fill="#FFE797" font-family="sans-serif" font-size="11" font-weight="bold" lengthAdjust="spacing" textLength="12">id</text><text x="30" y="65.999" fill="#FFE797" font-family="sans-serif" font-size="11" lengthAdjust="spacing" textLength="41">: string</text><text x="18" y="88.804" fill="#FFE797" font-family="sans-serif" font-size="11" font-weight="bold" lengthAdjust="spacing" textLength="28">tags</text><text x="46" y="88.804" fill="#FFE797" font-family="sans-serif" font-size="11" lengthAdjust="spacing" textLength="145">: dictionary[string, string]</text><text x="18" y="111.609" fill="#FFE797" font-family="sans-serif" font-size="11" font-weight="bold" lengthAdjust="spacing" textLength="35">name</text><text x="53" y="111.609" fill="#FFE797" font-family="sans-serif" font-size="11" lengthAdjust="spacing" textLength="41">: string</text><text x="18" y="134.414" fill="#FFE797" font-family="sans-serif" font-size="11" font-weight="bold" lengthAdjust="spacing" textLength="35">ctime</text><text x="53" y="134.414" fill="#FFE797" font-family="sans-serif" font-size="11" lengthAdjust="spacing" textLength="58">: datetime</text><text x="18" y="157.218" fill="#FFE797" font-family="sans-serif" font-size="11" font-weight="bold" lengthAdjust="spacing" textLength="24">age</text><text x="42" y="157.218" fill="#FFE797" font-family="sans-serif" font-size="11" lengthAdjust="spacing" textLength="159">: trafo.duration_to_datetime</text><text x="18" y="180.023" fill="#FFE797" font-family="sans-serif" font-size="11" font-weight="bold" lengthAdjust="spacing" textLength="39">mtime</text><text x="57" y="180.023" fill="#FFE797" font-family="sans-serif" font-size="11" lengthAdjust="spacing" textLength="58">: datetime</text><text x="18" y="202.828" fill="#FFE797" font-family="sans-serif" font-size="11" font-weight="bold" lengthAdjust="spacing" textLength="75">last_update</text><text x="93" y="202.828" fill="#FFE797" font-family="sans-serif" font-size="11" lengthAdjust="spacing" textLength="159">: trafo.duration_to_datetime</text><text x="18" y="225.632" fill="#FFE797" font-family="sans-serif" font-size="11" font-weight="bold" lengthAdjust="spacing" textLength="36">atime</text><text x="54" y="225.632" fill="#FFE797" font-family="sans-serif" font-size="11" lengthAdjust="spacing" textLength="58">: datetime</text><text x="18" y="248.437" fill="#FFE797" font-family="sans-serif" font-size="11" font-weight="bold" lengthAdjust="spacing" textLength="74">last_access</text><text x="92" y="248.437" fill="#FFE797" font-family="sans-serif" font-size="11" lengthAdjust="spacing" textLength="159">: trafo.duration_to_datetime</text><text x="18" y="271.242" fill="#FFE797" font-family="sans-serif" font-size="11" font-weight="bold" lengthAdjust="spacing" textLength="27">kind</text><text x="45" y="271.242" fill="#FFE797" font-family="sans-serif" font-size="11" lengthAdjust="spacing" textLength="41">: string</text><rect id="gcp_resource" width="169" height="93.398" x="253.5" y="461" fill="#194875" codeLine="29" rx="2.5" ry="2.5" style="stroke:#000;stroke-width:1.5"/><ellipse cx="277.05" cy="480.894" fill="#1A83AF" rx="11" ry="11" style="stroke:#000;stroke-width:1"/><path fill="#000" d="M280.0188,486.5352 Q279.4406,486.832 278.8,486.9727 Q278.1594,487.1289 277.4563,487.1289 Q274.9563,487.1289 273.6281,485.4883 Q272.3156,483.832 272.3156,480.707 Q272.3156,477.582 273.6281,475.9258 Q274.9563,474.2695 277.4563,474.2695 Q278.1594,474.2695 278.8,474.4258 Q279.4563,474.582 280.0188,474.8789 L280.0188,477.5977 Q279.3938,477.0195 278.8,476.7539 Q278.2063,476.4727 277.5813,476.4727 Q276.2375,476.4727 275.55,477.5508 Q274.8625,478.6133 274.8625,480.707 Q274.8625,482.8008 275.55,483.8789 Q276.2375,484.9414 277.5813,484.9414 Q278.2063,484.9414 278.8,484.6758 Q279.3938,484.3945 280.0188,483.8164 L280.0188,486.5352 Z"/><text x="297.95" y="486.78" fill="#FFE797" font-family="Helvetica" font-size="17" lengthAdjust="spacing" textLength="108">gcp_resource</text><line style="stroke:#000;stroke-width:1.5" x1="254.5" x2="421.5" y1="500.789" y2="500.789"/><text x="264.5" y="520" fill="#FFE797" font-family="sans-serif" font-size="11" font-weight="bold" lengthAdjust="spacing" textLength="23">link</text><text x="287.5" y="520" fill="#FFE797" font-family="sans-serif" font-size="11" lengthAdjust="spacing" textLength="41">: string</text><text x="264.5" y="542.804" fill="#FFE797" font-family="sans-serif" font-size="11" font-weight="bold" lengthAdjust="spacing" textLength="106">label_fingerprint</text><text x="370.5" y="542.804" fill="#FFE797" font-family="sans-serif" font-size="11" lengthAdjust="spacing" textLength="41">: string</text><rect id="gcp_snapshot" width="154" height="70.594" x="192" y="732" fill="#194875" codeLine="33" rx="2.5" ry="2.5" style="stroke:#000;stroke-width:1.5"/><ellipse cx="207" cy="751.894" fill="#1A83AF" rx="11" ry="11" style="stroke:#000;stroke-width:1"/><path fill="#000" d="M209.9688,757.5352 Q209.3906,757.832 208.75,757.9727 Q208.1094,758.1289 207.4063,758.1289 Q204.9063,758.1289 203.5781,756.4883 Q202.2656,754.832 202.2656,751.707 Q202.2656,748.582 203.5781,746.9258 Q204.9063,745.2695 207.4063,745.2695 Q208.1094,745.2695 208.75,745.4258 Q209.4063,745.582 209.9688,745.8789 L209.9688,748.5977 Q209.3438,748.0195 208.75,747.7539 Q208.1563,747.4727 207.5313,747.4727 Q206.1875,747.4727 205.5,748.5508 Q204.8125,749.6133 204.8125,751.707 Q204.8125,753.8008 205.5,754.8789 Q206.1875,755.9414 207.5313,755.9414 Q208.1563,755.9414 208.75,755.6758 Q209.3438,755.3945 209.9688,754.8164 L209.9688,757.5352 Z"/><text x="226" y="757.78" fill="#FFE797" font-family="Helvetica" font-size="17" lengthAdjust="spacing" textLength="112">gcp_snapshot</text><line style="stroke:#000;stroke-width:1.5" x1="193" x2="345" y1="771.789" y2="771.789"/><text x="203" y="791" fill="#FFE797" font-family="sans-serif" font-size="11" font-weight="bold" lengthAdjust="spacing" textLength="90">storage_bytes</text><text x="293" y="791" fill="#FFE797" font-family="sans-serif" font-size="11" lengthAdjust="spacing" textLength="36">: int64</text><rect id="snapshot" width="168" height="207.422" x="51" y="404" fill="#194875" codeLine="36" rx="2.5" ry="2.5" style="stroke:#000;stroke-width:1.5"/><ellipse cx="88.95" cy="423.894" fill="#1A83AF" rx="11" ry="11" style="stroke:#000;stroke-width:1"/><path fill="#000" d="M91.9188,429.5352 Q91.3406,429.832 90.7,429.9727 Q90.0594,430.1289 89.3563,430.1289 Q86.8563,430.1289 85.5281,428.4883 Q84.2156,426.832 84.2156,423.707 Q84.2156,420.582 85.5281,418.9258 Q86.8563,417.2695 89.3563,417.2695 Q90.0594,417.2695 90.7,417.4258 Q91.3563,417.582 91.9188,417.8789 L91.9188,420.5977 Q91.2938,420.0195 90.7,419.7539 Q90.1063,419.4727 89.4813,419.4727 Q88.1375,419.4727 87.45,420.5508 Q86.7625,421.6133 86.7625,423.707 Q86.7625,425.8008 87.45,426.8789 Q88.1375,427.9414 89.4813,427.9414 Q90.1063,427.9414 90.7,427.6758 Q91.2938,427.3945 91.9188,426.8164 L91.9188,429.5352 Z"/><text x="113.05" y="429.78" fill="#FFE797" font-family="Helvetica" font-size="17" lengthAdjust="spacing" textLength="75">snapshot</text><line style="stroke:#000;stroke-width:1.5" x1="52" x2="218" y1="443.789" y2="443.789"/><text x="62" y="463" fill="#FFE797" font-family="sans-serif" font-size="11" font-weight="bold" lengthAdjust="spacing" textLength="105">snapshot_status</text><text x="167" y="463" fill="#FFE797" font-family="sans-serif" font-size="11" lengthAdjust="spacing" textLength="41">: string</text><text x="62" y="485.804" fill="#FFE797" font-family="sans-serif" font-size="11" font-weight="bold" lengthAdjust="spacing" textLength="72">description</text><text x="134" y="485.804" fill="#FFE797" font-family="sans-serif" font-size="11" lengthAdjust="spacing" textLength="41">: string</text><text x="62" y="508.609" fill="#FFE797" font-family="sans-serif" font-size="11" font-weight="bold" lengthAdjust="spacing" textLength="64">volume_id</text><text x="126" y="508.609" fill="#FFE797" font-family="sans-serif" font-size="11" lengthAdjust="spacing" textLength="41">: string</text><text x="62" y="531.414" fill="#FFE797" font-family="sans-serif" font-size="11" font-weight="bold" lengthAdjust="spacing" textLength="78">volume_size</text><text x="140" y="531.414" fill="#FFE797" font-family="sans-serif" font-size="11" lengthAdjust="spacing" textLength="36">: int64</text><text x="62" y="554.218" fill="#FFE797" font-family="sans-serif" font-size="11" font-weight="bold" lengthAdjust="spacing" textLength="64">encrypted</text><text x="126" y="554.218" fill="#FFE797" font-family="sans-serif" font-size="11" lengthAdjust="spacing" textLength="53">: boolean</text><text x="62" y="577.023" fill="#FFE797" font-family="sans-serif" font-size="11" font-weight="bold" lengthAdjust="spacing" textLength="58">owner_id</text><text x="120" y="577.023" fill="#FFE797" font-family="sans-serif" font-size="11" lengthAdjust="spacing" textLength="41">: string</text><text x="62" y="599.828" fill="#FFE797" font-family="sans-serif" font-size="11" font-weight="bold" lengthAdjust="spacing" textLength="77">owner_alias</text><text x="139" y="599.828" fill="#FFE797" font-family="sans-serif" font-size="11" lengthAdjust="spacing" textLength="41">: string</text><path id="gcp_resource-backto-gcp_snapshot" fill="none" d="M320.65,573.36 C307.21,623.61 289.11,691.29 278.29,731.75" codeLine="45" style="stroke:#ffaf37;stroke-width:2"/><polygon fill="none" points="313.89 571.54 325.82 554.03 327.42 575.16 313.89 571.54" style="stroke:#ffaf37;stroke-width:2"/><path id="snapshot-backto-gcp_snapshot" fill="none" d="M197.57,628.96 C217.11,666.6 237.16,705.2 251.03,731.89" codeLine="46" style="stroke:#ffaf37;stroke-width:2"/><polygon fill="none" points="191.35 632.19 188.35 611.21 203.78 625.73 191.35 632.19" style="stroke:#ffaf37;stroke-width:2"/><path id="resource-backto-snapshot" fill="none" d="M135,303.49 C135,337.51 135,372.64 135,403.9" codeLine="47" style="stroke:#ffaf37;stroke-width:2"/><polygon fill="none" points="128 303.06 135 283.06 142 303.06 128 303.06" style="stroke:#ffaf37;stroke-width:2"/></g></svg>