<svg xmlns="http://www.w3.org/2000/svg" xmlns:xlink="http://www.w3.org/1999/xlink" width="371" height="573" contentScriptType="application/ecmascript" contentStyleType="text/css" style="width:371px;height:573px;background:#00000000" preserveAspectRatio="none" version="1.1" viewBox="0 0 371 573" zoomAndPan="magnify"><defs><filter id="f1q7neytkfzcs8" width="300%" height="300%" x="-1" y="-1"><feGaussianBlur result="blurOut" stdDeviation="2"/><feColorMatrix in="blurOut" result="blurOut2" type="matrix" values="0 0 0 0 0 0 0 0 0 0 0 0 0 0 0 0 0 0 .4 0"/><feOffset dx="4" dy="4" in="blurOut2" result="blurOut3"/><feBlend in="SourceGraphic" in2="blurOut3" mode="normal"/></filter></defs><g><rect id="resource" width="252" height="176.047" x="7" y="7" fill="#FEFECE" codeLine="2" filter="url(#f1q7neytkfzcs8)" style="stroke:#a80036;stroke-width:1.5"/><ellipse cx="100.75" cy="23" fill="#ADD1B2" rx="11" ry="11" style="stroke:#a80036;stroke-width:1"/><path fill="#000" d="M103.7188,28.6406 Q103.1406,28.9375 102.5,29.0781 Q101.8594,29.2344 101.1563,29.2344 Q98.6563,29.2344 97.3281,27.5938 Q96.0156,25.9375 96.0156,22.8125 Q96.0156,19.6875 97.3281,18.0313 Q98.6563,16.375 101.1563,16.375 Q101.8594,16.375 102.5,16.5313 Q103.1563,16.6875 103.7188,16.9844 L103.7188,19.7031 Q103.0938,19.125 102.5,18.8594 Q101.9063,18.5781 101.2813,18.5781 Q99.9375,18.5781 99.25,19.6563 Q98.5625,20.7188 98.5625,22.8125 Q98.5625,24.9063 99.25,25.9844 Q99.9375,27.0469 101.2813,27.0469 Q101.9063,27.0469 102.5,26.7813 Q103.0938,26.5 103.7188,25.9219 L103.7188,28.6406 Z"/><text x="121.25" y="27.154" fill="#000" font-family="sans-serif" font-size="12" lengthAdjust="spacing" textLength="56">resource</text><line style="stroke:#a80036;stroke-width:1.5" x1="8" x2="258" y1="39" y2="39"/><ellipse cx="18" cy="50" rx="3" ry="3" style="stroke:#038048;stroke-width:1;fill:none"/><text x="27" y="53.21" fill="#000" font-family="sans-serif" font-size="11" lengthAdjust="spacing" textLength="51">id: string</text><ellipse cx="18" cy="62.805" rx="3" ry="3" style="stroke:#038048;stroke-width:1;fill:none"/><text x="27" y="66.015" fill="#000" font-family="sans-serif" font-size="11" lengthAdjust="spacing" textLength="170">tags: dictionary[string, string]</text><ellipse cx="18" cy="75.609" rx="3" ry="3" style="stroke:#038048;stroke-width:1;fill:none"/><text x="27" y="78.82" fill="#000" font-family="sans-serif" font-size="11" lengthAdjust="spacing" textLength="73">name: string</text><ellipse cx="18" cy="88.414" rx="3" ry="3" style="stroke:#038048;stroke-width:1;fill:none"/><text x="27" y="91.624" fill="#000" font-family="sans-serif" font-size="11" lengthAdjust="spacing" textLength="89">ctime: datetime</text><ellipse cx="18" cy="101.219" rx="3" ry="3" style="stroke:#038048;stroke-width:1;fill:none"/><text x="27" y="104.429" fill="#000" font-family="sans-serif" font-size="11" lengthAdjust="spacing" textLength="180">age: trafo.duration_to_datetime</text><ellipse cx="18" cy="114.023" rx="3" ry="3" style="stroke:#038048;stroke-width:1;fill:none"/><text x="27" y="117.234" fill="#000" font-family="sans-serif" font-size="11" lengthAdjust="spacing" textLength="94">mtime: datetime</text><ellipse cx="18" cy="126.828" rx="3" ry="3" style="stroke:#038048;stroke-width:1;fill:none"/><text x="27" y="130.039" fill="#000" font-family="sans-serif" font-size="11" lengthAdjust="spacing" textLength="225">last_update: trafo.duration_to_datetime</text><ellipse cx="18" cy="139.633" rx="3" ry="3" style="stroke:#038048;stroke-width:1;fill:none"/><text x="27" y="142.843" fill="#000" font-family="sans-serif" font-size="11" lengthAdjust="spacing" textLength="90">atime: datetime</text><ellipse cx="18" cy="152.438" rx="3" ry="3" style="stroke:#038048;stroke-width:1;fill:none"/><text x="27" y="155.648" fill="#000" font-family="sans-serif" font-size="11" lengthAdjust="spacing" textLength="226">last_access: trafo.duration_to_datetime</text><ellipse cx="18" cy="165.242" rx="3" ry="3" style="stroke:#038048;stroke-width:1;fill:none"/><text x="27" y="168.453" fill="#000" font-family="sans-serif" font-size="11" lengthAdjust="spacing" textLength="64">kind: string</text><line style="stroke:#a80036;stroke-width:1.5" x1="8" x2="258" y1="175.047" y2="175.047"/><rect id="gcp_resource" width="159" height="73.609" x="198.5" y="304" fill="#FEFECE" codeLine="14" filter="url(#f1q7neytkfzcs8)" style="stroke:#a80036;stroke-width:1.5"/><ellipse cx="232.4" cy="320" fill="#ADD1B2" rx="11" ry="11" style="stroke:#a80036;stroke-width:1"/><path fill="#000" d="M235.3688,325.6406 Q234.7906,325.9375 234.15,326.0781 Q233.5094,326.2344 232.8063,326.2344 Q230.3063,326.2344 228.9781,324.5938 Q227.6656,322.9375 227.6656,319.8125 Q227.6656,316.6875 228.9781,315.0313 Q230.3063,313.375 232.8063,313.375 Q233.5094,313.375 234.15,313.5313 Q234.8063,313.6875 235.3688,313.9844 L235.3688,316.7031 Q234.7438,316.125 234.15,315.8594 Q233.5563,315.5781 232.9313,315.5781 Q231.5875,315.5781 230.9,316.6563 Q230.2125,317.7188 230.2125,319.8125 Q230.2125,321.9063 230.9,322.9844 Q231.5875,324.0469 232.9313,324.0469 Q233.5563,324.0469 234.15,323.7813 Q234.7438,323.5 235.3688,322.9219 L235.3688,325.6406 Z"/><text x="250.6" y="324.154" fill="#000" font-family="sans-serif" font-size="12" lengthAdjust="spacing" textLength="85">gcp_resource</text><line style="stroke:#a80036;stroke-width:1.5" x1="199.5" x2="356.5" y1="336" y2="336"/><ellipse cx="209.5" cy="347" rx="3" ry="3" style="stroke:#038048;stroke-width:1;fill:none"/><text x="218.5" y="350.21" fill="#000" font-family="sans-serif" font-size="11" lengthAdjust="spacing" textLength="60">link: string</text><ellipse cx="209.5" cy="359.805" rx="3" ry="3" style="stroke:#038048;stroke-width:1;fill:none"/><text x="218.5" y="363.015" fill="#000" font-family="sans-serif" font-size="11" lengthAdjust="spacing" textLength="133">label_fingerprint: string</text><line style="stroke:#a80036;stroke-width:1.5" x1="199.5" x2="356.5" y1="369.609" y2="369.609"/><rect id="zone" width="61" height="48" x="102.5" y="317" fill="#FEFECE" codeLine="18" filter="url(#f1q7neytkfzcs8)" style="stroke:#a80036;stroke-width:1.5"/><ellipse cx="117.5" cy="333" fill="#ADD1B2" rx="11" ry="11" style="stroke:#a80036;stroke-width:1"/><path fill="#000" d="M120.4688,338.6406 Q119.8906,338.9375 119.25,339.0781 Q118.6094,339.2344 117.9063,339.2344 Q115.4063,339.2344 114.0781,337.5938 Q112.7656,335.9375 112.7656,332.8125 Q112.7656,329.6875 114.0781,328.0313 Q115.4063,326.375 117.9063,326.375 Q118.6094,326.375 119.25,326.5313 Q119.9063,326.6875 120.4688,326.9844 L120.4688,329.7031 Q119.8438,329.125 119.25,328.8594 Q118.6563,328.5781 118.0313,328.5781 Q116.6875,328.5781 116,329.6563 Q115.3125,330.7188 115.3125,332.8125 Q115.3125,334.9063 116,335.9844 Q116.6875,337.0469 118.0313,337.0469 Q118.6563,337.0469 119.25,336.7813 Q119.8438,336.5 120.4688,335.9219 L120.4688,338.6406 Z"/><text x="131.5" y="337.154" fill="#000" font-family="sans-serif" font-size="12" lengthAdjust="spacing" textLength="29">zone</text><line style="stroke:#a80036;stroke-width:1.5" x1="103.5" x2="162.5" y1="349" y2="349"/><line style="stroke:#a80036;stroke-width:1.5" x1="103.5" x2="162.5" y1="357" y2="357"/><rect id="gcp_zone" width="135" height="60.805" x="156.5" y="499" fill="#FEFECE" codeLine="21" filter="url(#f1q7neytkfzcs8)" style="stroke:#a80036;stroke-width:1.5"/><ellipse cx="191.75" cy="515" fill="#ADD1B2" rx="11" ry="11" style="stroke:#a80036;stroke-width:1"/><path fill="#000" d="M194.7188,520.6406 Q194.1406,520.9375 193.5,521.0781 Q192.8594,521.2344 192.1563,521.2344 Q189.6563,521.2344 188.3281,519.5938 Q187.0156,517.9375 187.0156,514.8125 Q187.0156,511.6875 188.3281,510.0313 Q189.6563,508.375 192.1563,508.375 Q192.8594,508.375 193.5,508.5313 Q194.1563,508.6875 194.7188,508.9844 L194.7188,511.7031 Q194.0938,511.125 193.5,510.8594 Q192.9063,510.5781 192.2813,510.5781 Q190.9375,510.5781 190.25,511.6563 Q189.5625,512.7188 189.5625,514.8125 Q189.5625,516.9063 190.25,517.9844 Q190.9375,519.0469 192.2813,519.0469 Q192.9063,519.0469 193.5,518.7813 Q194.0938,518.5 194.7188,517.9219 L194.7188,520.6406 Z"/><text x="210.25" y="519.154" fill="#000" font-family="sans-serif" font-size="12" lengthAdjust="spacing" textLength="58">gcp_zone</text><line style="stroke:#a80036;stroke-width:1.5" x1="157.5" x2="290.5" y1="531" y2="531"/><ellipse cx="167.5" cy="542" rx="3" ry="3" style="stroke:#038048;stroke-width:1;fill:none"/><text x="176.5" y="545.21" fill="#000" font-family="sans-serif" font-size="11" lengthAdjust="spacing" textLength="109">zone_status: string</text><line style="stroke:#a80036;stroke-width:1.5" x1="157.5" x2="290.5" y1="551.805" y2="551.805"/><path id="resource-backto-zone" fill="none" d="M133,203.29 C133,245.75 133,290.63 133,316.93" codeLine="24" style="stroke:#a80036;stroke-width:1"/><polygon fill="none" points="126 203.06 133 183.06 140 203.06 126 203.06" style="stroke:#a80036;stroke-width:1"/><path id="gcp_resource-backto-gcp_zone" fill="none" d="M261.81,397.91 C252.2,431.11 240.4,471.88 232.56,498.94" codeLine="25" style="stroke:#a80036;stroke-width:1"/><polygon fill="none" points="255.17 395.67 267.46 378.4 268.62 399.56 255.17 395.67" style="stroke:#a80036;stroke-width:1"/><path id="zone-backto-gcp_zone" fill="none" d="M153.24,383.48 C170.3,418.45 194.31,467.65 209.51,498.8" codeLine="26" style="stroke:#a80036;stroke-width:1"/><polygon fill="none" points="146.82 386.29 144.34 365.24 159.4 380.15 146.82 386.29" style="stroke:#a80036;stroke-width:1"/></g></svg>